<svg width="456" height="323" viewBox="0 0 456 323" fill="none" xmlns="http://www.w3.org/2000/svg">
<path d="M339.617 114.139C339.617 114.139 343.76 110.738 350.27 120.791C356.78 130.844 359.443 136.758 359.443 136.758C359.443 136.758 361.07 138.827 362.476 137.201C363.881 135.575 365.509 131.288 368.172 131.731C370.909 132.249 372.167 135.131 372.093 139.64C372.019 144.075 372.241 153.907 372.315 154.794C372.315 155.681 372.98 156.863 374.09 155.902C375.2 154.941 381.34 146.589 385.112 149.693C388.885 152.798 386.74 165.216 386.518 166.62C386.296 167.951 386.592 168.542 387.258 168.764C387.923 169.06 389.699 166.029 391.548 163.664C393.398 161.372 395.913 159.007 397.984 161.003C400.055 162.999 401.535 172.017 394.433 187.613L390.66 194.636L382.671 195.005C365.509 194.783 358.037 189.535 357.076 186.874C356.114 184.139 359.369 182.882 362.254 182.217C365.139 181.552 368.616 181.256 368.69 180.517C368.764 179.778 368.394 179.261 367.062 178.891C365.731 178.521 353.525 175.195 352.341 170.39C351.158 165.586 361.366 163.664 362.698 163.072C364.029 162.481 363.216 161.372 362.402 161.003C361.588 160.633 352.859 156.198 348.79 154.35C344.722 152.502 342.576 150.137 343.316 147.476C344.056 144.889 348.642 145.184 350.714 144.667C352.785 144.075 351.601 141.71 351.601 141.71C351.601 141.71 347.385 136.758 341.097 126.557C334.809 116.356 339.765 114.065 339.765 114.065" fill="#EBEBEB"/>
<path d="M391.992 195.966C387.331 188.5 378.824 175.417 371.575 164.107C364.325 152.798 357.741 142.597 353.081 135.131C350.714 131.436 348.864 128.405 347.533 126.335C346.867 125.3 346.349 124.487 346.053 123.97C345.905 123.674 345.757 123.526 345.683 123.378C345.757 123.526 345.905 123.748 346.053 124.044C346.423 124.635 346.867 125.448 347.533 126.483C348.79 128.553 350.714 131.583 353.007 135.353C357.667 142.819 364.177 153.02 371.427 164.329C378.676 175.639 387.258 188.722 391.918 196.114" fill="#E0E0E0"/>
<path d="M366.101 137.94C366.101 137.94 366.027 138.162 365.953 138.532C365.879 138.901 365.805 139.419 365.657 140.084C365.435 141.415 365.139 143.189 364.917 145.184C364.695 147.18 364.473 148.954 364.251 150.285C364.177 150.876 364.103 151.394 364.029 151.837C363.955 152.207 363.955 152.428 363.955 152.428C363.955 152.428 364.029 152.207 364.103 151.837C364.177 151.467 364.251 150.95 364.399 150.285C364.621 148.954 364.843 147.18 365.139 145.184C365.435 143.189 365.657 141.415 365.805 140.084C365.879 139.493 365.953 138.975 366.027 138.532C366.101 138.162 366.101 137.94 366.101 137.94Z" fill="#E0E0E0"/>
<path d="M363.29 152.576C363.29 152.502 359.591 151.763 355.004 150.95C350.418 150.137 346.719 149.545 346.719 149.545C346.719 149.619 350.418 150.359 355.004 151.172C359.517 152.059 363.216 152.65 363.29 152.576Z" fill="#E0E0E0"/>
<path d="M375.2 169.429C375.2 169.429 374.978 169.429 374.608 169.429C374.164 169.503 373.646 169.503 373.054 169.577C371.723 169.725 369.873 169.873 367.802 170.021C365.731 170.168 363.881 170.242 362.55 170.242C361.884 170.242 361.366 170.242 360.922 170.316C360.552 170.316 360.331 170.316 360.331 170.39C360.331 170.39 360.552 170.39 360.922 170.464C361.292 170.464 361.81 170.464 362.55 170.538C363.881 170.538 365.805 170.538 367.802 170.39C369.873 170.242 371.723 170.021 373.054 169.873C373.72 169.799 374.238 169.725 374.608 169.651C374.978 169.503 375.2 169.429 375.2 169.429Z" fill="#E0E0E0"/>
<path d="M380.674 156.715C380.674 156.715 380.6 156.863 380.378 157.159C380.23 157.528 380.008 157.972 379.712 158.489C379.194 159.598 378.454 161.15 377.715 162.924C376.975 164.625 376.235 166.251 375.791 167.36C375.569 167.877 375.347 168.32 375.2 168.69C375.052 168.986 374.978 169.208 375.052 169.208C375.052 169.208 375.126 169.06 375.347 168.764C375.495 168.394 375.717 167.951 376.013 167.433C376.531 166.325 377.271 164.772 378.011 162.998C378.75 161.298 379.49 159.672 379.934 158.563C380.156 158.046 380.378 157.602 380.526 157.233C380.6 156.937 380.674 156.715 380.674 156.715Z" fill="#E0E0E0"/>
<path d="M393.102 170.243C393.102 170.243 392.954 170.464 392.806 170.834C392.584 171.278 392.288 171.869 391.992 172.534C391.326 174.012 390.364 176.008 389.329 178.226C388.293 180.443 387.405 182.439 386.74 183.918C386.444 184.583 386.148 185.174 386 185.618C385.852 186.061 385.704 186.283 385.778 186.283C385.778 186.283 385.926 186.061 386.074 185.692C386.296 185.248 386.592 184.657 386.888 183.991C387.553 182.513 388.515 180.517 389.551 178.3C390.586 176.082 391.474 174.086 392.14 172.608C392.436 171.943 392.732 171.351 392.88 170.908C393.028 170.464 393.102 170.243 393.102 170.243Z" fill="#E0E0E0"/>
<path d="M385.778 185.839C385.778 185.839 385.482 185.839 385.038 185.839C384.52 185.839 383.855 185.913 383.041 185.987C381.34 186.135 378.972 186.283 376.383 186.357C373.794 186.431 371.427 186.505 369.725 186.505C368.912 186.505 368.246 186.505 367.728 186.505C367.284 186.505 366.988 186.505 366.988 186.505C366.988 186.505 367.284 186.579 367.728 186.579C368.172 186.579 368.912 186.652 369.725 186.652C371.427 186.726 373.794 186.726 376.383 186.579C378.972 186.505 381.34 186.283 383.041 186.135C383.929 186.061 384.594 185.987 385.038 185.913C385.556 185.913 385.778 185.913 385.778 185.839Z" fill="#E0E0E0"/>
<path d="M404.79 142.301C404.79 142.301 404.716 143.558 405.012 145.923C405.308 148.289 406.121 151.763 408.341 155.68L408.415 155.533H408.267L408.341 155.68C413.149 164.255 420.399 177.043 429.054 192.418L429.202 192.639L429.35 192.418C435.933 181.921 443.405 170.02 451.246 157.528C451.616 156.937 451.986 156.346 452.356 155.828L452.504 155.533H452.208L452.356 155.828C454.057 152.945 455.167 149.767 455.685 146.588C455.907 144.962 456.055 143.41 455.981 141.784C455.907 140.971 455.907 140.231 455.833 139.418C455.685 138.605 455.611 137.866 455.463 137.053C454.279 130.918 450.876 125.448 446.512 121.752C444.293 119.904 441.851 118.5 439.336 117.539L438.375 117.169L437.931 117.021L437.413 116.873C436.747 116.725 436.155 116.504 435.49 116.356C434.158 116.134 432.9 115.912 431.643 115.912C430.385 115.765 429.128 115.912 427.87 115.986C427.278 116.06 426.687 116.134 426.095 116.282C425.799 116.356 425.503 116.356 425.207 116.43C424.911 116.504 424.615 116.578 424.319 116.652C423.727 116.799 423.21 116.947 422.618 117.095C422.1 117.317 421.508 117.539 420.99 117.686C420.694 117.76 420.473 117.908 420.177 117.982C419.955 118.13 419.659 118.204 419.437 118.352C418.919 118.573 418.475 118.869 417.957 119.091C414.185 121.308 411.374 124.117 409.45 126.926C407.527 129.735 406.417 132.544 405.751 134.835C405.456 136.018 405.16 137.053 405.086 137.94C404.938 138.827 404.864 139.64 404.864 140.231C404.864 140.823 404.79 141.34 404.79 141.636C404.79 142.153 404.79 142.301 404.79 142.301C404.79 142.301 404.79 142.153 404.864 141.784C404.864 141.414 404.938 140.971 404.938 140.379C404.938 139.714 405.086 138.975 405.234 138.088C405.308 137.201 405.604 136.166 405.899 134.983C406.565 132.692 407.675 129.957 409.672 127.148C411.596 124.339 414.407 121.53 418.105 119.387C418.549 119.165 419.067 118.869 419.585 118.647C419.807 118.5 420.103 118.426 420.325 118.278C420.547 118.13 420.842 118.056 421.138 117.982C421.656 117.76 422.174 117.612 422.766 117.391C423.284 117.243 423.875 117.095 424.467 116.947C424.763 116.873 425.059 116.799 425.355 116.725C425.651 116.652 425.947 116.652 426.243 116.578C426.834 116.504 427.426 116.356 428.018 116.356C429.202 116.282 430.459 116.208 431.717 116.282C432.974 116.282 434.232 116.578 435.564 116.725C436.229 116.873 436.821 117.095 437.487 117.243L437.931 117.391L438.375 117.539L439.336 117.908C441.851 118.869 444.293 120.274 446.438 122.122C450.729 125.817 454.057 131.14 455.241 137.201C455.389 137.94 455.463 138.753 455.611 139.492C455.685 140.305 455.685 141.045 455.759 141.858C455.833 143.41 455.685 145.036 455.463 146.588C454.945 149.767 453.835 152.871 452.208 155.68L452.06 155.976H452.356L452.208 155.68C451.838 156.198 451.468 156.789 451.098 157.38C443.257 169.947 435.785 181.773 429.202 192.344H429.498C420.768 177.043 413.519 164.255 408.637 155.68L408.563 155.828H408.71L408.637 155.68C406.417 151.837 405.604 148.289 405.234 145.997C405.086 144.814 405.012 143.927 405.012 143.262C405.012 142.966 405.012 142.745 405.012 142.597C404.79 142.375 404.79 142.301 404.79 142.301Z" fill="#E0E0E0"/>
<path d="M414.111 142.006C414.111 142.006 414.111 141.932 414.111 141.71C414.111 141.488 414.111 141.266 414.185 140.971C414.185 140.823 414.185 140.601 414.185 140.379C414.185 140.158 414.259 139.936 414.259 139.714C414.333 139.197 414.407 138.679 414.629 138.014C414.924 136.757 415.516 135.279 416.404 133.727C417.366 132.174 418.697 130.548 420.473 129.144C422.322 127.813 424.615 126.631 427.204 126.113C429.867 125.67 432.827 125.744 435.638 126.778C436.377 127 437.043 127.37 437.709 127.665C438.375 128.035 439.04 128.405 439.706 128.922C440.372 129.365 440.964 129.957 441.556 130.474C442.073 131.066 442.665 131.657 443.109 132.322C444.071 133.653 444.885 135.131 445.402 136.757C445.92 138.384 446.216 140.084 446.216 141.784C446.216 143.558 445.92 145.258 445.402 146.81C444.885 148.436 444.071 149.915 443.109 151.245C442.665 151.911 442.073 152.502 441.556 153.093C440.964 153.611 440.372 154.202 439.706 154.646C439.114 155.163 438.375 155.533 437.709 155.902C437.043 156.272 436.303 156.567 435.638 156.863C432.827 157.972 429.867 158.046 427.204 157.602C424.541 157.159 422.248 155.976 420.473 154.646C418.623 153.241 417.292 151.689 416.33 150.137C415.368 148.584 414.777 147.106 414.555 145.849C414.333 145.258 414.259 144.667 414.185 144.149C414.111 143.927 414.111 143.706 414.111 143.484C414.111 143.262 414.111 143.114 414.037 142.893C414.037 142.597 413.963 142.301 413.963 142.153C414.111 142.153 414.111 142.006 414.111 142.006C414.111 142.006 414.111 142.079 414.111 142.301C414.111 142.523 414.111 142.745 414.111 143.04C414.111 143.188 414.111 143.41 414.111 143.632C414.111 143.853 414.185 144.075 414.185 144.297C414.259 144.814 414.333 145.332 414.481 145.997C414.777 147.254 415.368 148.732 416.256 150.358C417.218 151.911 418.549 153.611 420.399 155.015C422.248 156.42 424.541 157.602 427.278 158.046C429.941 158.489 432.974 158.415 435.86 157.307C436.599 157.085 437.265 156.715 438.005 156.346C438.671 155.976 439.41 155.533 440.002 155.089C440.668 154.646 441.26 154.054 441.852 153.537C442.369 152.945 442.961 152.354 443.479 151.615C444.441 150.284 445.328 148.732 445.846 147.106C446.364 145.48 446.66 143.706 446.66 141.932C446.66 140.158 446.364 138.384 445.772 136.757C445.254 135.131 444.367 133.579 443.405 132.248C442.961 131.583 442.369 130.992 441.778 130.326C441.186 129.809 440.594 129.218 439.928 128.774C439.336 128.257 438.597 127.887 437.931 127.518C437.191 127.148 436.525 126.852 435.786 126.557C432.9 125.448 429.867 125.448 427.204 125.891C424.541 126.409 422.174 127.591 420.325 128.996C418.475 130.4 417.144 132.1 416.256 133.653C415.368 135.279 414.777 136.757 414.481 138.014C414.333 138.605 414.259 139.197 414.185 139.714C414.185 139.936 414.111 140.158 414.111 140.379C414.111 140.601 414.111 140.749 414.111 140.971C414.111 141.266 414.111 141.562 414.111 141.71C414.037 141.932 414.037 142.006 414.111 142.006Z" fill="#E0E0E0"/>
<path d="M430.607 149.545L440.002 143.04L437.709 139.714L431.421 144.149L423.21 133.727L420.103 136.24L430.607 149.545Z" fill="#E0E0E0"/>
<path fill-rule="evenodd" clip-rule="evenodd" d="M167.181 28.0978C164.37 28.4674 161.707 29.1327 159.191 30.2414L153.273 25.2889L143.139 32.9764L146.32 39.9247C144.618 42.0683 143.213 44.5076 142.177 47.0948L134.558 47.76L132.856 60.3261L140.032 62.9872C140.402 65.7961 141.067 68.4571 142.177 70.9703L137.221 76.8838L144.914 87.0106L151.868 83.8321C154.013 85.5322 156.454 86.9367 159.043 87.9715L159.709 95.5851L172.285 97.2852L174.948 90.1152C177.759 89.7456 180.422 89.0803 182.937 87.9715L188.856 92.9241L198.99 85.2366L195.809 78.2883C197.511 76.1446 198.916 73.7053 199.952 71.1182L207.571 70.4529L209.273 57.8868L202.097 55.2258C201.727 52.4169 201.061 49.7558 199.952 47.2426L204.908 41.3292L197.215 31.2024L190.261 34.3808C188.116 32.6807 185.675 31.2763 183.085 30.2414L182.42 22.6279L169.844 20.9277L167.181 28.0978ZM170.953 45.3947C179.609 45.6903 185.749 53.7474 183.751 62.1741C182.272 68.3832 176.428 72.8183 170.066 72.5966C161.411 72.3009 155.271 64.2438 157.268 55.8171C158.748 49.608 164.592 45.1729 170.953 45.3947Z" fill="#F5F5F5"/>
<path fill-rule="evenodd" clip-rule="evenodd" d="M281.843 68.3092C280.067 68.5309 278.292 68.9745 276.664 69.7136L272.818 66.5352L266.234 71.5616L268.305 76.0706C267.195 77.475 266.308 79.0273 265.568 80.7275L260.612 81.171L259.502 89.302L264.162 91.076C264.384 92.85 264.828 94.6241 265.568 96.2503L262.387 100.094L267.343 106.673L271.856 104.603C273.261 105.712 274.815 106.599 276.516 107.338L276.96 112.291L285.098 113.399L286.873 108.742C288.648 108.521 290.424 108.077 292.051 107.338L295.898 110.516L302.482 105.49L300.41 100.981C301.52 99.5766 302.408 98.0243 303.148 96.3242L308.104 95.8807L309.214 87.7497L304.553 85.9756C304.331 84.2016 303.887 82.4276 303.148 80.8014L306.328 76.9576L301.372 70.3789L296.86 72.4486C295.454 71.3398 293.901 70.4528 292.199 69.7136L291.755 64.7611L283.618 63.6523L281.843 68.3092ZM284.284 79.5448C289.906 79.7665 293.901 85.0147 292.569 90.4846C291.607 94.5502 287.835 97.359 283.692 97.2112C278.07 96.9894 274.075 91.7413 275.407 86.2713C276.368 82.2797 280.067 79.3969 284.284 79.5448Z" fill="#EBEBEB"/>
<path d="M213.267 127.962C213.267 127.962 212.084 128.405 210.308 129.883C208.607 131.362 206.388 134.171 205.722 138.31C205.426 140.38 205.426 142.671 206.24 145.037C206.979 147.328 208.385 149.693 210.456 151.468C211.492 152.428 212.676 153.168 214.007 153.759C215.339 154.35 216.744 154.794 218.224 155.016C221.183 155.459 224.438 154.868 227.249 153.389C230.06 151.837 232.279 149.472 233.463 146.737C234.128 145.406 234.498 143.928 234.72 142.523C234.942 141.119 234.868 139.641 234.646 138.31C234.276 135.575 233.019 133.136 231.465 131.288C229.912 129.366 227.988 128.109 226.065 127.296C222.218 125.67 218.668 125.966 216.522 126.631C214.303 127.148 213.267 127.962 213.267 127.962C213.341 128.035 214.377 127.37 216.596 126.853C218.742 126.335 222.144 126.114 225.843 127.74C227.619 128.553 229.468 129.809 230.948 131.657C232.353 133.505 233.537 135.797 233.907 138.384C234.128 139.641 234.128 141.045 233.907 142.376C233.759 143.706 233.315 145.111 232.723 146.367C231.539 148.954 229.468 151.172 226.805 152.65C224.142 154.055 221.109 154.646 218.298 154.202C216.892 154.055 215.561 153.611 214.303 153.02C213.045 152.428 211.936 151.763 210.974 150.876C208.977 149.176 207.645 146.958 206.905 144.741C206.166 142.523 206.092 140.306 206.314 138.31C206.905 134.318 208.903 131.584 210.53 130.031C212.158 128.627 213.341 128.035 213.267 127.962Z" fill="#EBEBEB"/>
<path d="M198.028 116.43C198.028 116.43 198.028 116.282 197.955 115.913C197.881 115.543 197.733 115.1 197.585 114.434C197.215 113.104 196.697 111.182 195.957 108.595L195.883 108.743C198.916 107.116 202.837 104.973 207.571 102.386L207.349 102.312C208.977 104.16 210.752 106.156 212.676 108.373L212.75 108.447H212.898C215.561 107.782 218.446 107.486 221.479 107.56H221.627L221.701 107.412C222.958 105.195 224.216 102.829 225.621 100.39L225.251 100.538C229.246 101.72 233.537 102.977 238.049 104.308L237.827 104.012C237.679 106.525 237.531 109.26 237.309 112.069V112.291L237.457 112.365C239.751 113.769 242.118 115.543 244.189 117.761L244.337 117.909L244.559 117.835C246.926 117.169 249.589 116.43 252.326 115.617L251.883 115.469C253.88 119.165 256.025 123.083 258.244 127.148L258.318 126.705C256.469 128.331 254.398 130.179 252.252 132.027L252.105 132.175L252.178 132.396C252.844 134.984 253.214 137.94 253.066 140.897V141.119L253.288 141.267C255.507 142.523 257.875 143.854 260.316 145.184L260.094 144.741C258.91 148.806 257.653 153.094 256.395 157.529L256.839 157.233C254.324 157.085 251.587 156.937 248.776 156.716H248.554L248.406 156.937C247 159.303 245.151 161.594 243.08 163.59C243.006 163.738 243.153 163.146 242.932 164.033V164.107V164.255L243.006 164.477L243.153 164.994L243.449 165.955L244.041 167.877C244.411 169.134 244.781 170.464 245.151 171.721L245.373 171.277C241.452 173.421 237.531 175.565 233.685 177.708L234.202 177.782C232.427 175.786 230.652 173.717 228.876 171.795L228.728 171.647L228.506 171.721C225.695 172.386 222.81 172.756 219.999 172.682H219.777L219.629 172.904C218.298 175.269 217.04 177.634 215.709 179.926L216.152 179.704C211.788 178.448 207.497 177.191 203.355 176.008L203.651 176.378C203.799 173.643 203.947 170.982 204.094 168.321V168.099L203.873 167.951C201.357 166.473 199.138 164.625 197.141 162.555L196.993 162.407L196.771 162.481C194.108 163.22 191.519 163.96 189.003 164.699L189.373 164.847C187.08 160.781 185.009 156.863 182.938 153.168L182.864 153.537C185.009 151.689 186.932 149.915 188.856 148.215L189.003 148.067L188.93 147.919C188.19 144.963 187.894 142.08 187.968 139.345V139.197L187.82 139.123C185.231 137.719 182.937 136.462 180.792 135.279L180.94 135.575C182.346 130.622 183.603 126.409 184.639 122.787L184.417 122.935C187.598 123.083 190.261 123.231 192.48 123.378H192.554L192.628 123.305C194.108 120.791 195.513 119.091 196.475 118.056C196.919 117.539 197.289 117.169 197.585 116.874C197.881 116.578 198.028 116.43 198.028 116.43C198.028 116.43 197.881 116.578 197.585 116.8C197.289 117.021 196.919 117.391 196.401 117.909C195.439 118.943 193.96 120.643 192.406 123.157L192.554 123.083C190.335 122.935 187.746 122.787 184.491 122.565H184.343L184.269 122.713C183.233 126.335 181.976 130.549 180.496 135.501L180.422 135.723L180.57 135.797C182.716 136.979 185.009 138.31 187.598 139.714L187.45 139.493C187.376 142.228 187.598 145.184 188.412 148.215L188.486 147.919C186.562 149.619 184.565 151.393 182.42 153.241L182.198 153.389L182.346 153.611C184.343 157.307 186.488 161.151 188.708 165.29L188.856 165.512L189.151 165.438C191.667 164.699 194.256 163.96 196.919 163.22L196.549 163.146C198.546 165.216 200.84 167.064 203.429 168.616L203.281 168.247C203.133 170.908 202.985 173.569 202.763 176.304V176.6L203.059 176.673C207.201 177.856 211.492 179.113 215.857 180.443L216.152 180.517L216.3 180.222C217.558 177.93 218.89 175.565 220.221 173.199L219.851 173.421C222.736 173.495 225.695 173.199 228.58 172.46L228.21 172.312C229.986 174.308 231.761 176.304 233.537 178.374L233.759 178.595L234.055 178.448C237.901 176.378 241.822 174.234 245.743 172.017L246.039 171.869L245.965 171.573C245.595 170.317 245.225 168.986 244.855 167.729L244.263 165.808L243.967 164.847L243.819 164.329L243.745 164.107V163.96V163.886C243.523 164.699 243.671 164.107 243.671 164.329C245.891 162.259 247.74 159.894 249.146 157.455L248.776 157.677C251.513 157.824 254.25 158.046 256.839 158.194H257.135L257.209 157.898C258.466 153.537 259.724 149.176 260.908 145.11L260.982 144.815L260.686 144.667C258.244 143.336 255.877 142.006 253.658 140.749L253.88 141.119C253.954 138.088 253.584 135.058 252.918 132.396L252.77 132.766C254.842 130.918 256.913 129.07 258.762 127.444L258.984 127.222L258.836 126.927C256.617 122.861 254.398 118.943 252.4 115.247L252.252 115.026L251.957 115.1C249.293 115.839 246.63 116.652 244.189 117.317L244.559 117.391C242.414 115.174 240.047 113.326 237.679 111.921L237.827 112.217C237.975 109.408 238.123 106.673 238.271 104.16V103.938L238.049 103.864C233.537 102.534 229.246 101.351 225.251 100.168L225.03 100.094L224.882 100.316C223.55 102.755 222.218 105.195 220.961 107.338L221.183 107.19C218.076 107.116 215.117 107.486 212.454 108.151L212.676 108.225C210.752 106.082 208.977 104.012 207.349 102.238L207.201 102.09L207.053 102.164C202.319 104.825 198.398 106.969 195.439 108.669L195.365 108.743V108.817C196.105 111.33 196.697 113.178 197.067 114.508C197.289 115.1 197.437 115.617 197.511 115.987C197.955 116.282 197.955 116.43 198.028 116.43Z" fill="#EBEBEB"/>
<path d="M166.663 129.809L178.277 83.6842L131.081 82.8711L166.663 129.809Z" fill="#EBEBEB"/>
<path d="M145.297 91.8642L161.53 113.239L75.0815 178.79L58.8488 157.415L145.297 91.8642Z" fill="#EBEBEB"/>
<path d="M82.1831 247.708L76.1911 261.309C76.1911 261.309 88.0272 271.954 87.1395 274.615L60.3604 263.97L68.8675 242.386L82.1831 247.708Z" fill="#4DAEEB"/>
<path opacity="0.5" d="M82.1831 247.708L76.1911 261.309C76.1911 261.309 88.0272 271.954 87.1395 274.615L60.3604 263.97L68.8675 242.386L82.1831 247.708Z" fill="black"/>
<path d="M60.3603 263.897L61.322 261.753L86.6216 272.841C86.6216 272.841 87.5833 273.802 87.1394 274.615L60.3603 263.897Z" fill="#263238"/>
<path d="M34.9867 267.001L27.4412 279.789C27.4412 279.789 37.9457 291.69 36.8361 294.203L11.4626 280.528L22.3369 260.053L34.9867 267.001Z" fill="#4DAEEB"/>
<path opacity="0.5" d="M34.9867 267.001L27.4412 279.789C27.4412 279.789 37.9457 291.69 36.8361 294.203L11.4626 280.528L22.3369 260.053L34.9867 267.001Z" fill="black"/>
<path d="M11.4627 280.602L12.6463 278.606L36.5403 292.429C36.5403 292.429 37.428 293.538 36.8362 294.277L11.4627 280.602Z" fill="#263238"/>
<path d="M67.7579 87.1585L84.2544 88.4151L84.7722 79.1753C84.7722 79.1753 91.43 79.1014 92.3917 72.5966C93.3534 66.0918 94.389 51.0125 94.389 51.0125C87.2874 46.7252 78.4843 46.5774 71.3087 50.6429L70.2731 51.2342L67.7579 87.1585Z" fill="#FFBE9D"/>
<path d="M84.8462 79.1015C84.8462 79.1015 80.7036 78.8797 76.7089 75.4795C76.7089 75.4795 78.1145 80.5798 84.6983 80.8755L84.8462 79.1015Z" fill="#EB996E"/>
<path d="M70.0511 58.1827C69.9772 58.1088 65.7606 56.2608 65.3167 60.6959C64.7989 65.131 69.3854 64.6875 69.4594 64.6136C69.4594 64.4657 70.0511 58.1827 70.0511 58.1827Z" fill="#FFBE9D"/>
<path d="M68.2758 62.7655C68.2758 62.7655 68.2018 62.8395 68.0538 62.8395C67.9059 62.9134 67.6839 62.9134 67.462 62.7655C67.0181 62.5438 66.7222 61.7307 66.7222 60.9176C66.7222 60.4741 66.8702 60.1045 67.0921 59.8088C67.2401 59.5131 67.536 59.2914 67.7579 59.2914C67.9798 59.2914 68.1278 59.4392 68.2018 59.5871C68.2757 59.7349 68.2018 59.8088 68.2018 59.8088C68.2018 59.8088 68.2758 59.7349 68.2758 59.5871C68.2758 59.5131 68.2018 59.3653 68.1278 59.2914C68.0538 59.2175 67.9059 59.1436 67.684 59.1436C67.3141 59.1436 67.0182 59.4392 66.7962 59.7349C66.5743 60.1045 66.4264 60.4741 66.4264 60.9176C66.3524 61.8046 66.7223 62.6916 67.388 62.9873C67.6839 63.1351 67.9798 63.0612 68.1278 62.9134C68.2018 62.8395 68.2758 62.7655 68.2758 62.7655Z" fill="#EB996E"/>
<path d="M91.578 61.2868C91.504 61.8042 91.0601 62.1738 90.5423 62.0999C90.0245 62.0259 89.6546 61.6564 89.7286 61.1389C89.8026 60.6215 90.2464 60.2519 90.7642 60.3258C91.282 60.3258 91.652 60.7693 91.578 61.2868Z" fill="#263238"/>
<path d="M91.8738 60.0303C91.7259 60.1042 91.1341 59.5129 90.0984 59.365C89.1368 59.2172 88.323 59.5868 88.1751 59.5129C88.1011 59.4389 88.2491 59.2172 88.6189 59.0694C88.9888 58.8476 89.5066 58.6998 90.1724 58.8476C90.7642 58.9215 91.2821 59.2172 91.578 59.5129C91.8739 59.7346 91.9478 60.0303 91.8738 60.0303Z" fill="#263238"/>
<path d="M81.8871 60.1784C81.8131 60.6958 81.3693 61.0654 80.8515 60.9915C80.3336 60.9175 79.9637 60.548 80.0377 60.0305C80.1117 59.5131 80.5555 59.1435 81.0734 59.2174C81.5172 59.2174 81.8871 59.6609 81.8871 60.1784Z" fill="#263238"/>
<path d="M82.0351 58.8477C81.8871 58.9216 81.2954 58.3302 80.2597 58.1824C79.298 58.0346 78.4843 58.4042 78.3363 58.3302C78.2623 58.2563 78.4103 58.0346 78.7802 57.8867C79.1501 57.665 79.6679 57.5171 80.3337 57.665C80.9255 57.7389 81.4433 58.0346 81.7392 58.3302C82.0351 58.552 82.1091 58.7737 82.0351 58.8477Z" fill="#263238"/>
<path d="M84.6243 66.7567C84.6243 66.6828 85.29 66.6828 86.2517 66.6828C86.4736 66.6828 86.7695 66.6828 86.8435 66.535C86.9175 66.3872 86.8435 66.0915 86.7696 65.7219C86.6216 65.0566 86.4736 64.3914 86.2517 63.6522C85.5859 60.7694 85.1421 58.3301 85.29 58.3301C85.438 58.3301 86.0298 60.6215 86.6956 63.5783C86.8435 64.3175 86.9915 64.9827 87.1394 65.648C87.2134 65.9436 87.2874 66.3132 87.1394 66.6828C87.0655 66.8307 86.8435 66.9785 86.6956 66.9785C86.5476 66.9785 86.3997 66.9785 86.2517 66.9785C85.2161 66.9046 84.6243 66.8307 84.6243 66.7567Z" fill="#263238"/>
<path d="M81.5913 67.0527C81.7392 67.0527 81.5913 68.1615 82.405 69.0485C83.2187 69.9355 84.4023 70.0095 84.4023 70.1573C84.4023 70.2312 84.1064 70.3051 83.6626 70.3051C83.1448 70.2312 82.479 70.0095 82.0351 69.4181C81.5173 68.9007 81.3694 68.2354 81.3694 67.718C81.3694 67.2745 81.5173 67.0527 81.5913 67.0527Z" fill="#263238"/>
<path d="M82.8488 55.0041C82.7009 55.2258 81.7392 55.0041 80.5556 55.0041C79.372 54.9302 78.3363 55.1519 78.2623 54.9302C78.1884 54.7823 78.4103 54.5606 78.8541 54.3388C79.298 54.1171 79.8898 53.9692 80.6296 53.9692C81.3693 53.9692 81.9611 54.191 82.4049 54.4127C82.7008 54.6345 82.9228 54.8563 82.8488 55.0041Z" fill="#263238"/>
<path d="M91.9478 57.074C91.7259 57.2958 91.0601 56.9262 90.2464 56.8523C89.4327 56.7044 88.6929 56.7783 88.5449 56.5566C88.4709 56.4087 88.6189 56.187 88.9888 56.0391C89.2847 55.8913 89.8765 55.7435 90.3943 55.8913C90.9861 55.9652 91.43 56.2609 91.6519 56.5566C91.9478 56.7783 92.0218 57.0001 91.9478 57.074Z" fill="#263238"/>
<path d="M98.1617 47.4641C98.3097 46.651 98.1617 45.764 97.5699 45.1727C96.9781 44.5813 95.9425 44.5074 95.3507 45.0248C95.7945 43.99 95.1287 42.5855 94.0191 42.3638C92.9835 42.142 91.9478 42.8073 90.9121 42.9551C89.8765 43.103 88.8408 42.7334 87.9531 42.142C87.0654 41.6246 86.2517 40.9593 85.29 40.4419C83.3667 39.4071 80.9994 39.1853 78.9281 39.7767C76.8568 40.368 75.0075 41.8464 73.9718 43.7682C72.6402 43.103 70.8648 43.6204 69.8292 44.7292C68.7935 45.8379 68.3497 47.3902 68.2757 48.8686C68.2757 49.9034 68.4236 50.8644 68.6456 51.8992C68.6456 51.9732 68.6455 52.0471 68.5716 52.121C68.1277 55.6691 67.9798 59.9563 69.4593 60.1781C72.1224 60.6216 72.1964 55.5212 72.1964 55.5212C75.5992 54.7081 75.0814 49.6817 76.0431 49.0164C76.9308 48.4251 78.9281 46.8728 85.216 51.3818C87.6572 53.0819 91.2081 53.5254 93.2054 53.3776C93.2794 53.3776 93.3533 53.3776 93.3533 53.3776C93.3533 53.3776 93.3533 53.3776 93.4273 53.3776H93.5013C94.1671 53.3037 94.7589 53.1559 95.3507 52.8602C96.0164 52.5645 96.6822 52.121 97.0521 51.4557C97.422 50.7905 97.422 49.9774 96.9781 49.386C97.422 48.9425 97.9398 48.2033 98.1617 47.4641Z" fill="#263238"/>
<path d="M84.8462 84.8668L84.1064 110.664L68.0538 76.0706L68.4237 72.8921L84.8462 84.8668Z" fill="#EBEBEB"/>
<path d="M74.1937 161.89C74.7855 162.111 108.222 195.818 107.483 201.953C106.743 208.015 82.9228 252.957 82.9228 252.957L65.9824 244.604L81.8871 205.206L81.6652 202.766L62.2097 186.8L63.2454 161.15L74.1937 161.89Z" fill="#263238"/>
<path d="M66.9441 168.542C66.5742 169.134 60.8041 222.207 59.2506 224.942C57.6971 227.677 34.4689 272.989 34.4689 272.989L17.2326 266.04L38.3156 216.294L35.9484 169.208L37.2799 155.902L63.3193 161.224L66.9441 168.542Z" fill="#263238"/>
<path d="M59.5466 224.055C59.5466 224.055 59.6205 223.907 59.6945 223.537C59.7685 223.168 59.8425 222.65 59.9164 221.985C60.1384 220.581 60.4342 218.659 60.8041 216.367C61.4699 211.563 62.4316 204.984 63.4673 197.74C64.5029 190.496 65.3906 183.917 66.0564 179.112C66.3523 176.747 66.6482 174.825 66.7961 173.421C66.8701 172.756 66.9441 172.238 66.9441 171.868C67.0181 171.499 67.0181 171.351 67.0181 171.351C67.0181 171.351 66.9441 171.499 66.8701 171.868C66.7961 172.238 66.7222 172.756 66.6482 173.421C66.4263 174.825 66.1304 176.747 65.7605 179.039C65.0947 183.843 64.133 190.422 63.0974 197.666C62.0617 204.91 61.174 211.489 60.5082 216.293C60.2123 218.659 59.9164 220.581 59.7685 221.985C59.6945 222.65 59.6205 223.168 59.6205 223.537C59.5466 223.833 59.5466 224.055 59.5466 224.055Z" fill="#455A64"/>
<path d="M38.6855 214.741C38.6116 214.741 39.0554 216.663 39.7212 218.955C40.3869 221.246 40.9788 223.094 41.0528 223.094C41.1267 223.094 40.6829 221.172 40.0171 218.881C39.4253 216.589 38.7595 214.741 38.6855 214.741Z" fill="#455A64"/>
<path d="M36.0963 226.79C36.0963 226.79 36.5402 226.346 37.058 225.459C37.5758 224.572 38.0937 223.315 38.4635 221.837C38.7594 220.359 38.7594 218.954 38.6855 217.919C38.6115 216.959 38.3895 216.367 38.3895 216.367C38.2416 216.367 38.7594 218.806 38.0937 221.763C37.4279 224.646 35.9484 226.716 36.0963 226.79Z" fill="#455A64"/>
<path d="M87.3614 199.44C87.3614 199.366 85.9559 199.958 84.5503 201.214C83.2188 202.471 82.479 203.801 82.553 203.801C82.627 203.875 83.4407 202.693 84.7723 201.436C86.1778 200.253 87.4354 199.588 87.3614 199.44Z" fill="#455A64"/>
<path d="M84.7722 197.888C84.6982 197.814 83.8845 198.553 83.1447 199.736C82.405 200.919 82.1091 202.027 82.1831 202.027C82.257 202.101 82.7009 201.066 83.4406 199.884C84.1804 198.849 84.8462 197.962 84.7722 197.888Z" fill="#455A64"/>
<path d="M82.4789 120.496L78.1883 141.71L74.7115 171.277C74.7115 171.277 60.3602 169.282 54.2943 167.36C47.1926 165.142 31.8058 163.22 31.8058 163.22L34.3949 165.807C28.8467 164.255 25.3699 159.007 25.3699 159.007C34.8387 150.137 42.976 131.953 42.976 131.953L50.2256 96.1026C50.2256 96.1026 51.3353 91.0761 52.001 88.7847C52.6668 86.5671 63.6152 79.2492 65.1687 78.3622L66.1303 77.9187L66.4262 75.0359L67.5359 74.3706L79.4459 85.1627C81.7391 87.2324 83.2187 90.1152 83.5885 93.2197C83.9584 96.4721 84.3283 101.203 84.1063 106.747C83.8844 110.886 82.4789 120.496 82.4789 120.496Z" fill="#4DAEEB"/>
<path d="M74.3417 83.8324C74.3417 83.8324 80.6296 87.1587 81.7392 90.0415C82.8488 92.9243 79.5939 124.192 79.5939 124.192L102.156 124.635L102.23 138.088C102.23 138.088 66.4263 140.897 65.0207 138.975C63.1713 136.388 60.9521 111.921 60.9521 111.921L60.1384 94.3287C60.0644 94.2548 62.1357 80.8756 74.3417 83.8324Z" fill="#4DAEEB"/>
<g opacity="0.3">
<path d="M78.1883 141.71C75.1553 142.671 72.3443 142.819 69.1634 142.523C65.9824 142.228 62.7275 140.527 61.5439 137.571C60.6562 135.279 61.0261 132.766 60.8781 130.327C60.7302 128.183 60.2124 126.113 59.9165 124.044C59.6206 121.974 60.6562 118.13 61.396 116.061C61.396 116.061 62.2097 130.549 64.5029 136.684C64.7988 137.497 65.1687 138.384 65.9084 138.901C66.7222 139.567 67.8318 139.64 68.8675 139.714C71.7525 140.01 78.7062 139.493 78.7062 139.493" fill="black"/>
</g>
<path d="M60.0644 96.1768C60.0644 96.1768 60.0644 96.2507 60.0644 96.4724C60.0644 96.6942 60.0644 96.9899 60.0644 97.4334C60.1383 98.2465 60.1383 99.5031 60.2123 101.055C60.2863 102.608 60.3603 104.53 60.5082 106.747C60.6562 108.965 60.7302 111.478 60.9521 114.287C61.174 117.096 61.4699 120.126 61.8398 123.379C62.2097 126.631 62.5796 130.105 63.2453 133.801C63.3933 134.688 63.5412 135.649 63.8371 136.536C64.133 137.423 64.6509 138.31 65.4646 138.975C66.2044 139.567 67.24 140.01 68.2757 140.01C69.2373 140.01 70.273 140.01 71.3086 140.01C75.3033 139.936 79.5199 139.715 83.7365 139.493C90.0984 139.123 96.3123 138.754 102.082 138.31H102.23V138.162C102.23 133.432 102.156 128.923 102.156 124.783V124.635H102.008C92.9834 124.414 85.5119 124.266 80.2597 124.192C77.6705 124.118 75.5992 124.118 74.1937 124.118C73.5279 124.118 72.9361 124.118 72.5662 124.118C72.1963 124.118 72.0484 124.118 72.0484 124.118C72.0484 124.118 72.2703 124.118 72.5662 124.192C72.9361 124.192 73.4539 124.192 74.1937 124.266C75.5992 124.34 77.6705 124.34 80.2597 124.487C85.5119 124.635 92.9834 124.857 102.008 125.079L101.86 124.931C101.86 129.07 101.86 133.579 101.934 138.31L102.082 138.162C96.3123 138.532 90.1724 138.975 83.7365 139.271C79.4459 139.493 75.3033 139.715 71.3086 139.788C70.273 139.788 69.3113 139.862 68.3496 139.788C67.3879 139.862 66.5002 139.419 65.7605 138.901C65.0207 138.31 64.5029 137.497 64.207 136.61C63.9111 135.723 63.7632 134.836 63.6152 133.875C63.0234 130.253 62.5795 126.779 62.2097 123.526C61.8398 120.274 61.5439 117.243 61.248 114.435C60.9521 111.626 60.8781 109.112 60.7302 106.895C60.5822 104.677 60.4343 102.755 60.3603 101.203C60.2863 99.6509 60.1384 98.4682 60.1384 97.5812C60.1384 97.2116 60.0644 96.842 60.0644 96.6203C60.1383 96.2507 60.0644 96.1768 60.0644 96.1768Z" fill="#263238"/>
<path d="M97.7179 137.793C97.7919 137.793 97.8658 134.91 97.8658 131.288C97.8658 127.666 97.7179 124.783 97.6439 124.783C97.57 124.783 97.496 127.666 97.496 131.288C97.496 134.91 97.6439 137.793 97.7179 137.793Z" fill="#263238"/>
<path d="M100.085 126.853C100.159 126.853 99.9371 126.557 99.4932 126.705C99.2713 126.779 99.0494 127.001 99.0494 127.296C99.0494 127.592 99.1973 127.962 99.4932 128.109C99.8631 128.257 100.159 128.109 100.381 127.962C100.603 127.74 100.677 127.444 100.603 127.222C100.529 126.779 100.233 126.705 100.159 126.779C100.159 126.853 100.307 127.001 100.307 127.296C100.307 127.444 100.233 127.592 100.085 127.74C99.9371 127.888 99.7152 127.888 99.5672 127.814C99.4193 127.74 99.2713 127.518 99.2713 127.37C99.2713 127.222 99.3453 127.075 99.4932 127.001C99.8631 126.779 100.085 126.927 100.085 126.853Z" fill="#263238"/>
<path d="M50.0776 99.207C50.0776 99.207 38.3156 114.508 36.91 118.721C35.5045 122.861 36.6141 128.922 38.9813 131.731C41.3485 134.54 43.2719 133.431 43.2719 133.431L50.0776 99.207Z" fill="#4DAEEB"/>
<path d="M43.7158 132.175C43.7158 132.248 45.0473 132.618 46.6748 132.84C48.3022 133.135 49.6338 133.283 49.7078 133.135C49.7078 133.062 48.3762 132.692 46.7487 132.47C45.1213 132.248 43.7158 132.101 43.7158 132.175Z" fill="#263238"/>
<path d="M41.4966 143.484C41.4966 143.484 41.3486 143.78 41.2007 144.297C41.0527 144.814 40.7568 145.554 40.387 146.515C39.7212 148.362 38.6116 150.95 37.206 153.611C35.8005 156.272 34.395 158.637 33.2853 160.337C32.7675 161.15 32.2496 161.816 31.9537 162.259C31.6578 162.703 31.5099 162.998 31.5099 162.998C31.5099 162.998 31.7318 162.777 32.1017 162.333C32.4716 161.89 32.9154 161.224 33.5072 160.411C34.6909 158.785 36.1704 156.42 37.5759 153.759C38.9814 151.024 40.0171 148.51 40.6089 146.588C40.9048 145.628 41.1267 144.888 41.2747 144.297C41.4226 143.78 41.4966 143.484 41.4966 143.484Z" fill="#263238"/>
<g opacity="0.3">
<path d="M40.6829 145.332C38.8335 148.658 36.9101 151.985 34.099 154.572C33.0634 155.459 31.9537 156.272 31.214 157.381C30.4742 158.489 30.1043 160.042 30.8441 161.151C31.066 161.52 31.5839 161.89 32.0277 161.816C32.3236 161.742 32.6195 161.446 32.7675 161.224C36.3183 156.715 38.9814 151.467 40.5349 145.923" fill="black"/>
</g>
<g opacity="0.3">
<path d="M42.2364 133.357C40.6089 132.174 40.0911 130.031 40.313 128.035C40.535 126.039 41.4226 124.265 42.2364 122.491C44.7515 116.873 46.453 111.847 47.9325 105.786L49.0421 101.572L43.272 131.879L42.2364 133.357Z" fill="black"/>
</g>
<path d="M71.2347 82.4278C71.3086 82.3538 70.273 81.4668 69.0154 80.2102C67.8318 79.0275 66.9441 77.9927 66.7961 77.9927C66.7222 78.0666 67.4619 79.2493 68.7195 80.432C70.051 81.7625 71.2347 82.5017 71.2347 82.4278Z" fill="#263238"/>
<path d="M72.4182 85.0886C72.4182 85.1625 73.084 85.3842 74.1197 85.9017C75.1553 86.4191 76.4869 87.3061 77.7445 88.5627C79.0021 89.8193 79.8158 91.2238 80.3336 92.2586C80.8514 93.2935 80.9994 94.0327 81.0734 93.9588C81.0734 93.9588 81.0734 93.737 80.9994 93.4413C80.9254 93.1457 80.7775 92.6282 80.5555 92.1108C80.1117 91.002 79.2979 89.5976 77.9664 88.2671C76.7088 87.0104 75.2293 86.1234 74.1937 85.6799C73.6758 85.4582 73.232 85.3103 72.8621 85.2364C72.6402 85.0886 72.4182 85.0147 72.4182 85.0886Z" fill="#263238"/>
<path d="M40.9787 136.388C40.9787 136.388 41.0526 136.314 41.1266 136.092C41.2746 135.871 41.4225 135.575 41.5705 135.205C42.0143 134.392 42.5322 133.284 43.2719 131.879C44.0117 128.553 45.0473 123.6 46.1569 118.204C47.1926 113.104 48.1543 108.447 48.8201 104.973C49.116 103.347 49.4119 101.942 49.5598 100.981C49.6338 100.538 49.7078 100.168 49.7818 99.8725C49.8557 99.6508 49.8557 99.5029 49.8557 99.5029C49.8557 99.5029 49.7817 99.6508 49.7078 99.8725C49.6338 100.168 49.5598 100.538 49.4119 100.981C49.19 101.942 48.894 103.347 48.5242 104.973C47.7844 108.373 46.8227 113.03 45.7131 118.13C44.6035 123.6 43.5678 128.479 42.9021 131.879C42.2363 133.284 41.7184 134.392 41.3485 135.205C41.2006 135.575 41.0527 135.871 40.9047 136.092C40.9787 136.314 40.9047 136.388 40.9787 136.388Z" fill="#263238"/>
<path d="M79.8898 124.191C79.8898 124.191 79.9638 123.822 80.0377 123.082C80.1117 122.269 80.2597 121.308 80.3336 120.052C80.6295 117.465 80.9254 113.917 81.2953 109.999C81.6652 106.081 81.9611 102.533 82.1091 99.9461C82.1831 98.6895 82.257 97.6546 82.331 96.9154C82.405 96.1762 82.405 95.8066 82.331 95.8066C82.331 95.8066 82.257 96.1762 82.183 96.9154C82.1091 97.7285 81.9611 98.6895 81.8871 99.9461C81.5912 102.533 81.2953 106.081 80.9254 109.999C80.5556 113.917 80.2597 117.465 80.1117 120.052C80.0378 121.308 79.9638 122.343 79.8898 123.082C79.8898 123.748 79.8898 124.191 79.8898 124.191Z" fill="#263238"/>
<path d="M101.787 126.187C101.787 126.187 106.669 122.491 107.853 122.269C108.74 122.122 114.214 122.196 116.656 122.269C117.617 122.269 118.431 123.009 118.431 123.97C118.431 124.043 118.431 124.117 118.431 124.117C118.209 125.152 117.247 125.374 117.247 125.374C117.247 125.374 118.505 125.744 118.579 127.148C118.579 128.552 116.878 128.848 116.878 128.848C116.878 128.848 116.952 128.922 117.099 129.07C118.061 130.031 117.543 131.583 116.286 131.879L115.546 132.027C115.546 132.027 116.582 132.47 116.582 133.431C116.582 135.279 112.365 135.649 112.365 135.649C112.365 135.649 102.082 137.275 101.861 137.201C101.639 137.127 101.787 126.187 101.787 126.187Z" fill="#FFBE9D"/>
<path d="M115.694 120.052C115.62 120.643 115.472 121.974 114.436 122.565L108.666 122.343C108.666 122.343 112.957 120.865 113.549 120.126C113.771 119.904 114.066 119.534 114.362 119.313C114.954 118.943 115.768 119.387 115.694 120.052Z" fill="#FFBE9D"/>
<path d="M111.403 122.27C111.403 122.344 112.587 122.491 113.993 122.491C115.472 122.491 116.582 122.417 116.582 122.27C116.582 122.196 115.398 122.048 113.993 122.048C112.587 122.122 111.403 122.122 111.403 122.27Z" fill="#EB996E"/>
<path d="M112.735 125.448C112.735 125.522 113.771 125.743 115.028 125.67C116.286 125.596 117.321 125.374 117.247 125.3C117.247 125.226 116.212 125.3 115.028 125.3C113.771 125.374 112.735 125.374 112.735 125.448Z" fill="#EB996E"/>
<path d="M109.776 125.078C109.702 125.152 109.776 125.448 110.146 125.67C110.442 125.891 110.812 125.817 110.812 125.744C110.812 125.67 110.59 125.522 110.368 125.374C110.072 125.152 109.85 125.004 109.776 125.078Z" fill="#EB996E"/>
<path d="M112.069 129.07C112.069 129.144 113.179 129.218 114.51 129.144C115.842 129.07 116.952 128.996 116.952 128.848C116.952 128.774 115.842 128.7 114.51 128.774C113.179 128.848 112.069 128.996 112.069 129.07Z" fill="#EB996E"/>
<path d="M108.814 127.591C108.74 127.591 108.666 127.665 108.666 127.887C108.666 128.109 108.666 128.478 108.888 128.7C109.11 128.996 109.406 129.144 109.628 129.144C109.85 129.144 109.998 129.144 109.998 129.07C109.998 128.996 109.48 128.922 109.184 128.478C108.814 128.109 108.888 127.591 108.814 127.591Z" fill="#EB996E"/>
<path d="M111.255 132.692C111.255 132.766 112.291 132.766 113.475 132.618C114.732 132.47 115.694 132.248 115.694 132.175C115.694 132.101 114.658 132.101 113.475 132.248C112.217 132.322 111.181 132.544 111.255 132.692Z" fill="#EB996E"/>
<path d="M108 130.844C107.927 130.844 107.853 130.992 107.853 131.213C107.853 131.435 107.927 131.731 108.148 132.026C108.592 132.544 109.036 132.692 109.11 132.618C109.184 132.544 108.814 132.174 108.444 131.731C108.148 131.287 108.148 130.844 108 130.844Z" fill="#EB996E"/>
<path d="M36.3183 166.029C34.321 165.881 32.3976 164.625 31.362 162.924C31.214 162.703 31.1401 162.481 31.288 162.259C31.362 162.111 31.5839 162.111 31.7318 162.111C33.3593 162.111 34.9128 162.407 36.4663 162.924C36.6142 162.998 36.8361 163.072 36.9101 163.22C36.9841 163.368 36.9101 163.516 36.9101 163.59C36.6882 164.403 36.5402 165.142 36.3183 165.955" fill="#4DAEEB"/>
<g opacity="0.4">
<path d="M36.3183 166.029C34.321 165.881 32.3976 164.625 31.362 162.924C31.214 162.703 31.1401 162.481 31.288 162.259C31.362 162.111 31.5839 162.111 31.7318 162.111C33.3593 162.111 34.9128 162.407 36.4663 162.924C36.6142 162.998 36.8361 163.072 36.9101 163.22C36.9841 163.368 36.9101 163.516 36.9101 163.59C36.6882 164.403 36.5402 165.142 36.3183 165.955" fill="black"/>
</g>
<path d="M84.8462 84.8667C84.8462 84.8667 87.2135 92.776 86.5477 92.3324C85.8819 91.8889 84.4764 90.6323 84.4764 90.6323L84.8462 84.8667Z" fill="#EBEBEB"/>
<path d="M84.6983 88.4888L85.9559 91.5933C86.1038 91.889 86.1779 92.2586 86.1779 92.5543C86.2518 93.4413 86.3998 94.9936 85.8819 95.1414C85.1422 95.2892 84.4764 94.5501 84.4764 94.5501L84.6983 88.4888Z" fill="#263238"/>
<path d="M44.6037 89.006C44.6037 89.006 57.2534 84.0535 64.2811 88.4147C71.3088 92.7759 72.5663 99.7242 76.709 99.7242C84.8463 99.7242 84.5504 93.9585 84.5504 93.9585L86.2518 94.476C86.2518 95.6587 88.1012 104.085 79.594 105.12C71.0129 106.155 67.3881 94.476 59.6946 94.476C52.0012 94.476 46.1571 98.6154 46.1571 98.6154L40.609 95.1412L44.6037 89.006Z" fill="#263238"/>
<path d="M77.0049 105.046C77.0049 105.046 73.824 103.42 72.1225 99.4284C70.1252 94.9194 65.9086 89.7451 62.4317 88.4146C58.8809 87.084 50.7436 86.197 45.1215 89.8929L41.4967 94.7715L46.1571 97.8022C46.1571 97.8022 49.8559 95.8064 54.3684 94.4759C60.2125 92.8497 63.6893 94.6976 67.0922 97.8761C67.3141 98.0979 67.4621 98.2457 67.684 98.4675C68.5717 99.4284 70.8649 101.646 73.0102 103.198C74.7856 104.381 76.2651 105.046 77.0049 105.046Z" fill="#455A64"/>
<path d="M338.878 36.2285C346.349 37.4112 351.897 31.0542 353.599 25.5104C355.226 20.3361 355.966 14.9401 358.259 10.0615C361.44 3.18707 369.873 0.008591 377.419 0.673855C384.964 1.33912 392.584 5.10895 399.242 8.65702L397.392 50.0512C397.392 50.0512 382.819 34.5284 375.865 34.3066C364.177 33.8631 364.843 53.0079 353.525 55.8168C353.525 55.8168 337.62 60.1041 326.894 46.2814C320.088 37.4851 319.496 26.767 319.496 26.767C319.496 26.767 324.748 34.011 338.878 36.2285Z" fill="#4DAEEB"/>
<path d="M399.612 1.7085C399.538 1.7085 397.466 45.6898 395.025 99.8719C392.584 154.128 390.734 198.109 390.808 198.109C390.882 198.109 392.954 154.128 395.395 99.8719C397.836 45.6898 399.759 1.7085 399.612 1.7085Z" fill="#263238"/>
<g opacity="0.2">
<path d="M359.591 22.6274C358.555 26.4712 356.262 31.6455 354.043 35.0457C351.897 38.4459 348.642 41.2548 344.648 42.0679C343.908 42.2158 343.168 42.2897 342.576 42.5854C341.911 42.881 341.319 43.4724 341.319 44.2115C341.319 45.3203 342.429 45.9856 343.39 46.503C344.796 47.1683 346.201 47.9075 347.681 48.1292C349.234 48.4249 350.418 48.5727 351.454 47.464C352.341 46.503 353.525 45.3203 354.191 44.2115C357.593 38.372 359.295 30.0193 359.591 23.4405" fill="black"/>
</g>
<path d="M349.382 49.1643C349.382 49.1643 349.53 49.0903 349.752 48.9425C349.974 48.7947 350.27 48.5729 350.64 48.2772C351.38 47.6859 352.415 46.651 353.377 45.2466C354.413 43.8421 355.374 41.9942 356.114 39.8506C356.928 37.7069 357.593 35.2676 358.185 32.7544C359.369 27.6541 359.887 22.9233 360.109 19.4491C360.183 17.749 360.257 16.3446 360.183 15.3836C360.183 14.9401 360.183 14.5705 360.183 14.2749C360.183 14.0531 360.183 13.9053 360.183 13.9053C360.183 13.9053 360.183 14.0531 360.109 14.2749C360.109 14.5705 360.109 14.9401 360.035 15.3836C359.961 16.3446 359.961 17.749 359.813 19.4491C359.591 22.8494 358.999 27.5801 357.815 32.6805C357.224 35.1937 356.558 37.633 355.818 39.7766C355.078 41.9203 354.117 43.6943 353.155 45.0988C352.193 46.5032 351.232 47.5381 350.492 48.1294C349.826 48.8686 349.382 49.1643 349.382 49.1643Z" fill="#263238"/>
<path d="M444.884 206.832L345.757 223.094V206.832H444.884Z" fill="#E0E0E0"/>
<path d="M329.409 243.495L230.282 259.683V243.495H329.409Z" fill="#E0E0E0"/>
<path d="M214.747 278.532L115.62 294.72V278.532H214.747Z" fill="#E0E0E0"/>
<path d="M100.233 306.399L1.106 322.587V306.399H100.233Z" fill="#E0E0E0"/>
<path d="M345.757 194.709H444.884V206.832H345.757V194.709Z" fill="#4DAEEB"/>
<g opacity="0.3">
<path d="M345.757 194.709H376.679V206.832H345.757V194.709Z" fill="black"/>
</g>
<path d="M230.282 231.298H329.409V243.421H230.282V231.298Z" fill="#4DAEEB"/>
<g opacity="0.3">
<path d="M230.282 231.298H261.203V243.421H230.282V231.298Z" fill="black"/>
</g>
<path d="M115.62 266.336H214.747V278.459H115.62V266.336Z" fill="#4DAEEB"/>
<g opacity="0.3">
<path d="M115.62 266.336H146.542V278.459H115.62V266.336Z" fill="black"/>
</g>
<path d="M0.958046 294.203H100.085V306.325H0.958046V294.203Z" fill="#4DAEEB"/>
<g opacity="0.3">
<path d="M0.958052 294.203H31.8798V306.325H0.958052V294.203Z" fill="black"/>
</g>
<path d="M61.9878 250.074C61.9878 251.552 60.8042 252.735 59.3247 252.735C57.8451 252.735 56.6616 251.552 56.6616 250.074C56.6616 248.595 57.8451 247.412 59.3247 247.412C60.8042 247.339 61.9878 248.521 61.9878 250.074Z" fill="#EBEBEB"/>
</svg>
