<svg width="228" height="153" viewBox="0 0 228 153" fill="none" xmlns="http://www.w3.org/2000/svg">
<g filter="url(#filter0_d_284_6370)">
<rect x="20" y="20.5874" width="188" height="112" rx="10" fill="white" shape-rendering="crispEdges"/>
<path fill-rule="evenodd" clip-rule="evenodd" d="M73.2384 68.6773L74.1887 72.2905H79.9177L73.5099 52.957H66.5319L60.2055 72.2905H65.9617L66.9391 68.6773H73.2384ZM70.9305 59.806C71.0934 60.4352 71.2201 60.9205 71.3106 61.2621L72.1523 64.4169H68.0252L68.8669 61.2621C68.9755 60.8307 69.1022 60.3004 69.247 59.6712C69.41 59.042 69.5638 58.4039 69.7086 57.7567C69.8715 57.1096 69.9892 56.5703 70.0616 56.1388C70.1521 56.5703 70.2788 57.1275 70.4417 57.8106C70.6046 58.4937 70.7676 59.1589 70.9305 59.806Z" fill="#4DAEEB"/>
<path fill-rule="evenodd" clip-rule="evenodd" d="M55.2685 53.6042C54.1281 53.2267 52.6257 53.0379 50.7613 53.0379H44.0005V72.2905H51.5487C53.0692 72.2905 54.3815 72.0658 55.4857 71.6164C56.5899 71.167 57.4407 70.5199 58.038 69.675C58.6353 68.8301 58.934 67.8234 58.934 66.655C58.934 65.6303 58.753 64.8214 58.391 64.2282C58.047 63.617 57.6126 63.1586 57.0877 62.853C56.5627 62.5474 56.0378 62.3317 55.5129 62.2058V62.071C56.0016 61.9452 56.4722 61.7115 56.9248 61.3699C57.3954 61.0284 57.7846 60.57 58.0923 59.9948C58.4 59.4015 58.5539 58.6825 58.5539 57.8376C58.5539 56.795 58.2914 55.9231 57.7665 55.222C57.2415 54.503 56.4089 53.9637 55.2685 53.6042ZM52.6348 59.8869C52.2908 60.2464 51.6845 60.4262 50.8156 60.4262H49.2408V56.9747H50.707C51.5577 56.9747 52.1822 57.1185 52.5805 57.4062C52.9787 57.6758 53.1778 58.0713 53.1778 58.5926C53.1778 59.0959 52.9968 59.5274 52.6348 59.8869ZM49.2408 68.2728V64.2282H50.9785C51.6302 64.2282 52.137 64.327 52.499 64.5248C52.8791 64.7045 53.1416 64.9472 53.2864 65.2528C53.4493 65.5584 53.5308 65.882 53.5308 66.2235C53.5308 66.8168 53.3498 67.3111 52.9877 67.7066C52.6257 68.0841 51.9922 68.2728 51.0871 68.2728H49.2408Z" fill="#4DAEEB"/>
<path d="M100.46 72.2905H93.591L86.5043 58.7274H86.3957C86.4319 59.033 86.4591 59.3925 86.4772 59.806C86.5134 60.2195 86.5406 60.6509 86.5587 61.1003C86.5768 61.5497 86.5949 61.9901 86.613 62.4216C86.6311 62.853 86.6401 63.2485 86.6401 63.608V72.2905H81.9971V53.0379H88.8394L95.8989 66.4123H95.9803C95.9622 66.1067 95.9351 65.7562 95.8989 65.3607L95.8446 64.1203C95.8265 63.6889 95.8084 63.2664 95.7903 62.853V53.0379H100.46V72.2905Z" fill="#4DAEEB"/>
<path d="M115.285 72.2905H121.204L115.203 61.6665L121.313 53.0379H115.584L111.511 58.9431C111.239 59.3206 110.959 59.7251 110.669 60.1565C110.379 60.57 110.126 60.9834 109.909 61.3969V53.0379H104.641V72.2905H109.909V65.846L111.456 64.9292L115.285 72.2905Z" fill="#4DAEEB"/>
<path d="M53.9647 99.9485H48.7244V84.9563H44V80.6959H58.6891V84.9563H53.9647V99.9485Z" fill="#4DAEEB"/>
<path fill-rule="evenodd" clip-rule="evenodd" d="M72.1787 81.3431C71.0203 80.9116 69.5631 80.6959 67.8073 80.6959H61.4538V99.9485H66.6941V92.9378H68.0245L72.1244 99.9485H83.4945L84.4719 96.3353H90.7712L91.7215 99.9485H97.4505L91.0427 80.615H84.0647L77.847 99.6164L72.4231 91.5626C73.111 91.1851 73.6992 90.7447 74.188 90.2413C74.6767 89.738 75.0478 89.1628 75.3012 88.5156C75.5727 87.8685 75.7085 87.1584 75.7085 86.3854C75.7085 85.1271 75.4098 84.0844 74.8125 83.2575C74.2332 82.4127 73.3553 81.7745 72.1787 81.3431ZM66.6941 84.6327H67.7258C68.3594 84.6327 68.8753 84.7136 69.2735 84.8754C69.6717 85.0372 69.9613 85.2709 70.1423 85.5765C70.3234 85.8641 70.4139 86.2146 70.4139 86.6281C70.4139 87.2213 70.2962 87.6977 70.0609 88.0572C69.8256 88.3988 69.4998 88.6504 69.0834 88.8122C68.6852 88.956 68.2146 89.0279 67.6715 89.0279H66.6941V84.6327ZM88.8434 88.9201C88.7529 88.5785 88.6262 88.0932 88.4633 87.464C88.3004 86.8168 88.1374 86.1517 87.9745 85.4686C87.8116 84.7855 87.6849 84.2283 87.5944 83.7968C87.522 84.2283 87.4043 84.7675 87.2414 85.4147C87.0966 86.0618 86.9428 86.7 86.7799 87.3292C86.635 87.9583 86.5083 88.4886 86.3997 88.9201L85.558 92.0749H89.6851L88.8434 88.9201Z" fill="#4DAEEB"/>
<path d="M111.124 99.9485H117.993V80.6959H113.323V90.511C113.341 90.9244 113.359 91.3469 113.377 91.7783L113.432 93.0187C113.468 93.4142 113.495 93.7647 113.513 94.0703H113.432L106.372 80.6959H99.53V99.9485H104.173V91.266C104.173 90.9065 104.164 90.511 104.146 90.0795C104.128 89.6481 104.11 89.2077 104.091 88.7583C104.073 88.3089 104.046 87.8774 104.01 87.464C103.992 87.0505 103.965 86.691 103.929 86.3854H104.037L111.124 99.9485Z" fill="#4DAEEB"/>
<path d="M134.854 94.0972C134.854 95.1399 134.583 96.1286 134.04 97.0633C133.515 97.9981 132.691 98.7621 131.569 99.3553C130.465 99.9306 129.026 100.218 127.252 100.218C126.365 100.218 125.586 100.173 124.917 100.083C124.265 100.011 123.649 99.8856 123.07 99.7059C122.491 99.5261 121.894 99.2924 121.278 99.0048V94.3669C122.328 94.8882 123.387 95.2927 124.455 95.5803C125.523 95.8499 126.491 95.9848 127.36 95.9848C127.885 95.9848 128.311 95.9218 128.636 95.796C128.962 95.6702 129.207 95.4994 129.369 95.2837C129.532 95.068 129.614 94.8253 129.614 94.5556C129.614 94.2141 129.496 93.9265 129.261 93.6928C129.026 93.4591 128.654 93.2164 128.148 92.9647C127.641 92.7131 126.962 92.3985 126.111 92.021C125.387 91.6974 124.736 91.3559 124.156 90.9963C123.577 90.6368 123.079 90.2323 122.663 89.7829C122.265 89.3335 121.957 88.8122 121.74 88.219C121.523 87.6078 121.414 86.8888 121.414 86.0618C121.414 84.8215 121.722 83.7878 122.337 82.9609C122.953 82.116 123.803 81.4869 124.889 81.0734C125.994 80.642 127.27 80.4263 128.718 80.4263C129.985 80.4263 131.125 80.5701 132.139 80.8577C133.153 81.1273 134.058 81.4419 134.854 81.8015L133.252 85.8192C132.42 85.4417 131.596 85.1451 130.781 84.9293C129.985 84.6956 129.243 84.5788 128.555 84.5788C128.102 84.5788 127.731 84.6327 127.442 84.7406C127.152 84.8484 126.935 85.0012 126.79 85.199C126.663 85.3787 126.6 85.5855 126.6 85.8192C126.6 86.1248 126.718 86.3944 126.953 86.6281C127.188 86.8618 127.577 87.1224 128.12 87.4101C128.682 87.6797 129.442 88.0302 130.401 88.4617C131.342 88.8751 132.139 89.3335 132.791 89.8369C133.46 90.3222 133.967 90.9065 134.311 91.5896C134.673 92.2547 134.854 93.0906 134.854 94.0972Z" fill="#4DAEEB"/>
<path d="M137.845 99.9485H143.004V92.7221H148.814V88.5426H143.004V84.8754H149.303V80.6959H137.845V99.9485Z" fill="#4DAEEB"/>
<path d="M163.994 99.9485H152.481V80.6959H163.994V84.8754H157.722V87.8954H163.532V92.0749H157.722V95.7151H163.994V99.9485Z" fill="#4DAEEB"/>
<path fill-rule="evenodd" clip-rule="evenodd" d="M178.108 81.3431C176.95 80.9116 175.492 80.6959 173.737 80.6959H167.383V99.9485H172.623V92.9378H173.954L178.054 99.9485H184L178.352 91.5626C179.04 91.1851 179.629 90.7447 180.117 90.2413C180.606 89.738 180.977 89.1628 181.231 88.5156C181.502 87.8685 181.638 87.1584 181.638 86.3854C181.638 85.1271 181.339 84.0844 180.742 83.2575C180.163 82.4127 179.285 81.7745 178.108 81.3431ZM172.623 84.6327H173.655C174.289 84.6327 174.805 84.7136 175.203 84.8754C175.601 85.0372 175.891 85.2709 176.072 85.5765C176.253 85.8641 176.343 86.2146 176.343 86.6281C176.343 87.2213 176.226 87.6977 175.99 88.0572C175.755 88.3988 175.429 88.6504 175.013 88.8122C174.615 88.956 174.144 89.0279 173.601 89.0279H172.623V84.6327Z" fill="#4DAEEB"/>
<path d="M183.638 52.957H127.395V56.8091H183.638V52.957Z" fill="#78C468"/>
<path d="M127.395 60.6612H183.638V64.5132H127.395V60.6612Z" fill="#78C468"/>
<path d="M183.638 68.3653H127.395V72.2174H183.638V68.3653Z" fill="#78C468"/>
</g>
<defs>
<filter id="filter0_d_284_6370" x="0" y="0.587402" width="228" height="152" filterUnits="userSpaceOnUse" color-interpolation-filters="sRGB">
<feFlood flood-opacity="0" result="BackgroundImageFix"/>
<feColorMatrix in="SourceAlpha" type="matrix" values="0 0 0 0 0 0 0 0 0 0 0 0 0 0 0 0 0 0 127 0" result="hardAlpha"/>
<feOffset/>
<feGaussianBlur stdDeviation="10"/>
<feComposite in2="hardAlpha" operator="out"/>
<feColorMatrix type="matrix" values="0 0 0 0 0.0995312 0 0 0 0 0.324553 0 0 0 0 0.4875 0 0 0 0.1 0"/>
<feBlend mode="normal" in2="BackgroundImageFix" result="effect1_dropShadow_284_6370"/>
<feBlend mode="normal" in="SourceGraphic" in2="effect1_dropShadow_284_6370" result="shape"/>
</filter>
</defs>
</svg>
