<svg width="276" height="205" viewBox="0 0 276 205" fill="none" xmlns="http://www.w3.org/2000/svg">
<path d="M192.475 48.5516C193.865 45.0016 195.285 41.3416 195.305 37.5116C195.325 33.6816 193.635 29.5816 190.275 27.9516C187.175 26.4416 183.445 27.3116 180.165 26.2516C176.125 24.9516 173.475 21.0016 171.575 17.0916C169.675 13.1916 168.125 8.94162 165.035 5.96162C160.935 2.00162 154.345 1.20162 149.385 3.85162C145.685 1.39162 140.905 0.161621 137.275 0.161621C131.885 0.161621 125.765 0.781625 122.125 4.75163C119.305 7.83162 117.565 11.7016 114.055 13.9716C109.225 17.0916 102.865 14.7616 97.1251 15.1516C95.9551 15.2316 94.5951 15.5716 94.1451 16.6516C93.7551 17.5916 94.2351 18.6416 94.6951 19.5416C96.2751 22.5816 97.8451 25.6316 99.4251 28.6716C97.0451 29.8616 94.1151 29.8816 91.7251 28.7216C92.1651 34.7616 94.8151 40.6216 99.0551 44.9516C98.0151 44.2616 96.5051 45.0516 96.0251 46.2116C95.5551 47.3716 95.8251 48.6916 96.1851 49.8816C98.4151 57.2216 103.935 63.4916 110.945 66.6216C117.945 69.7516 126.305 69.6916 133.255 66.4616L165.005 67.8716C165.955 70.3116 168.125 72.2116 170.625 72.7716C174.095 70.0416 174.615 68.5416 174.615 68.5416C176.845 70.1016 175.105 69.3316 176.845 70.1016C180.825 71.8516 186.565 69.4516 187.315 65.0516C187.625 63.2116 188.085 61.4416 189.275 60.1616C190.495 58.8516 192.265 58.3016 193.825 57.4616C196.275 56.1316 198.285 53.9416 199.445 51.3416C196.895 51.4416 194.305 50.4016 192.475 48.5516Z" fill="#263238"/>
<path d="M114.185 36.5117C114.305 20.6117 126.605 7.47169 142.465 6.31169L144.045 6.1917C161.105 5.9417 170.855 20.2817 170.635 37.3517L173.175 115.922L134.225 118.702L132.755 93.1717C132.755 93.1717 116.235 91.8317 114.835 75.5217C114.145 67.6417 114.075 51.3017 114.185 36.5117Z" fill="#FFBE9D"/>
<path d="M122.365 48.8618C122.415 50.0918 123.495 51.0718 124.785 51.0518C126.075 51.0218 127.085 50.0118 127.035 48.7718C126.985 47.5418 125.905 46.5618 124.615 46.5818C123.325 46.6018 122.315 47.6318 122.365 48.8618Z" fill="#263238"/>
<path d="M119.115 42.7618C119.425 43.0418 121.095 41.6118 123.605 41.4318C126.105 41.2218 128.045 42.3718 128.295 42.0518C128.415 41.9018 128.085 41.3818 127.235 40.8518C126.405 40.3318 125.015 39.8618 123.455 39.9818C121.895 40.1018 120.625 40.7718 119.905 41.4218C119.185 42.0718 118.965 42.6418 119.115 42.7618Z" fill="#263238"/>
<path d="M135.745 63.1515C135.745 63.0115 134.165 62.8515 131.615 62.7115C130.965 62.6915 130.355 62.6115 130.215 62.1815C130.035 61.7315 130.245 61.0215 130.505 60.2515C130.995 58.6615 131.505 56.9815 132.045 55.2315C134.165 48.0915 135.655 42.2415 135.365 42.1615C135.075 42.0815 133.125 47.8015 131.005 54.9415C130.495 56.7015 130.015 58.3815 129.545 59.9815C129.355 60.7315 128.995 61.5815 129.395 62.5215C129.605 62.9915 130.095 63.3015 130.515 63.3815C130.935 63.4815 131.295 63.4615 131.615 63.4515C134.165 63.3915 135.745 63.2915 135.745 63.1515Z" fill="#263238"/>
<path d="M118.345 36.7214C118.925 37.2614 121.005 36.5314 123.545 36.3414C126.085 36.0814 128.275 36.4314 128.735 35.8014C128.935 35.5014 128.555 34.9514 127.585 34.4714C126.625 33.9914 125.045 33.6514 123.295 33.8014C121.545 33.9614 120.065 34.5714 119.215 35.2114C118.345 35.8514 118.085 36.4614 118.345 36.7214Z" fill="#263238"/>
<path d="M169.045 49.6218C169.315 49.4818 180.025 45.4818 180.485 56.6718C180.945 67.8618 169.615 66.0118 169.585 65.6918C169.545 65.3818 169.045 49.6218 169.045 49.6218Z" fill="#FFBE9D"/>
<path d="M171.835 61.3818C171.885 61.3418 172.035 61.5118 172.375 61.6518C172.705 61.7818 173.255 61.8618 173.835 61.6218C174.995 61.1418 175.915 59.2218 175.885 57.2018C175.875 56.1818 175.615 55.2218 175.225 54.4318C174.845 53.6318 174.295 53.0818 173.695 52.9918C173.095 52.8818 172.695 53.2518 172.565 53.5718C172.425 53.8918 172.505 54.1118 172.445 54.1318C172.415 54.1618 172.195 53.9518 172.265 53.4918C172.305 53.2718 172.425 53.0018 172.675 52.7718C172.935 52.5418 173.325 52.4118 173.745 52.4418C174.615 52.4618 175.415 53.2318 175.855 54.0918C176.335 54.9618 176.645 56.0418 176.655 57.1818C176.675 59.4418 175.605 61.6018 174.015 62.1318C173.235 62.3718 172.565 62.1618 172.225 61.9118C171.875 61.6518 171.805 61.4118 171.835 61.3818Z" fill="#EB996E"/>
<path d="M172.825 24.0616C172.825 24.0616 171.955 19.8616 168.475 15.0316C162.615 6.90158 149.255 3.10158 141.675 3.78158C134.095 4.45158 126.215 10.0816 119.145 12.9016C114.515 14.7516 111.005 19.0016 112.765 22.2916C110.005 23.3416 107.155 24.0516 104.185 24.1716C104.185 24.1716 103.915 28.3516 106.235 29.4516L113.535 34.2316C123.265 35.5216 140.345 25.9416 143.645 22.9216C146.495 20.3116 150.555 17.3016 153.705 15.7016C150.605 23.8316 160.695 22.0316 160.435 25.1816C157.345 36.6116 166.665 40.8316 166.665 40.8316L166.895 50.8116C166.685 53.3716 167.785 55.3516 170.355 55.1716C170.355 55.1716 173.125 51.3516 173.605 48.2416C174.525 42.2416 173.955 30.0516 172.825 24.0616Z" fill="#263238"/>
<path d="M132.605 93.1615C132.605 93.1615 143.075 93.0215 153.545 85.3315C153.545 85.3315 149.375 97.4515 132.975 97.1715L132.605 93.1615Z" fill="#EB996E"/>
<path d="M145.885 47.3618C145.935 48.5918 147.015 49.5718 148.305 49.5518C149.595 49.5218 150.605 48.5118 150.555 47.2718C150.505 46.0418 149.425 45.0618 148.135 45.0818C146.845 45.1118 145.845 46.1318 145.885 47.3618Z" fill="#263238"/>
<path d="M143.195 41.5016C143.505 41.8216 145.475 40.5816 148.225 40.6816C150.965 40.7516 152.945 42.1216 153.255 41.8216C153.405 41.6916 153.105 41.1316 152.235 40.5116C151.385 39.9016 149.935 39.2816 148.215 39.2216C146.505 39.1716 145.045 39.6916 144.205 40.2516C143.345 40.8216 143.045 41.3616 143.195 41.5016Z" fill="#263238"/>
<path d="M142.945 33.6315C143.185 34.3215 145.705 34.0115 148.655 34.3915C151.615 34.7115 153.985 35.5915 154.385 34.9815C154.565 34.6915 154.155 34.0415 153.195 33.3715C152.245 32.7015 150.725 32.0615 148.955 31.8515C147.185 31.6415 145.555 31.9115 144.485 32.3415C143.385 32.7715 142.835 33.3115 142.945 33.6315Z" fill="#263238"/>
<path d="M135.515 67.9818C136.795 67.4318 140.605 66.5818 141.965 66.3418L143.555 65.8418C144.355 66.7918 144.515 69.4718 143.915 70.5618C143.295 71.6918 142.085 72.4218 140.825 72.6818C139.925 72.8618 138.915 72.8118 138.185 72.2518C138.185 72.2518 136.125 71.4418 135.515 67.9818Z" fill="#EB996E"/>
<path d="M139.865 72.6916C139.845 72.5916 140.955 72.7216 142.235 71.7516C142.855 71.2716 143.455 70.5116 143.755 69.5116C144.055 68.5216 144.105 67.3316 143.735 66.1916C143.715 66.1316 143.695 66.0716 143.675 66.0116L143.975 66.1716C141.575 66.7016 139.405 67.1616 137.835 67.4616C136.265 67.7616 135.285 67.9216 135.265 67.8516C135.245 67.7816 136.195 67.5016 137.755 67.1116C139.305 66.7116 141.465 66.2016 143.865 65.6716L144.095 65.6216L144.165 65.8416C144.185 65.9016 144.205 65.9716 144.225 66.0316C144.625 67.2816 144.565 68.5816 144.205 69.6516C143.855 70.7316 143.155 71.5616 142.455 72.0416C141.745 72.5316 141.055 72.7116 140.595 72.7416C140.115 72.7816 139.855 72.7216 139.865 72.6916Z" fill="#263238"/>
<path d="M190.745 58.2218C190.745 58.2218 190.495 58.2218 190.075 58.0518C189.655 57.8718 189.055 57.5018 188.515 56.8018C187.985 56.1118 187.505 55.1018 187.365 53.8618C187.205 52.6218 187.355 51.2118 187.535 49.6918C187.705 48.1818 187.875 46.4818 187.315 44.8118C187.035 43.9918 186.535 43.2218 185.815 42.6418C185.105 42.0418 184.225 41.6118 183.315 41.1818C182.405 40.7518 181.425 40.3318 180.535 39.6818C179.625 39.0618 178.885 38.1218 178.455 37.0718C177.545 34.9518 177.635 32.5618 177.135 30.3418C176.875 29.2218 176.485 28.1418 175.815 27.2818C175.155 26.4018 174.195 25.8718 173.145 25.6518C172.105 25.4118 171.005 25.3718 169.935 25.1618C168.875 24.9618 167.795 24.4818 167.095 23.6518C166.395 22.8218 166.055 21.8218 165.825 20.8818C165.585 19.9318 165.455 19.0118 165.255 18.1418C165.065 17.2718 164.785 16.4718 164.415 15.7318C164.015 15.0118 163.585 14.3518 163.075 13.7918C161.045 11.5218 158.555 10.6818 156.905 10.4218C155.215 10.2018 154.265 10.4318 154.265 10.3618C154.265 10.3618 155.195 10.0518 156.935 10.2218C158.625 10.4218 161.205 11.2218 163.345 13.5418C163.885 14.1118 164.345 14.7918 164.765 15.5418C165.155 16.3018 165.465 17.1518 165.665 18.0418C165.875 18.9318 166.025 19.8518 166.255 20.7718C166.485 21.6818 166.825 22.6118 167.445 23.3418C168.075 24.0718 168.995 24.4918 170.015 24.6818C171.035 24.8818 172.125 24.9118 173.235 25.1618C174.345 25.3818 175.475 26.0018 176.195 26.9718C176.935 27.9218 177.345 29.0718 177.615 30.2318C178.135 32.5618 178.045 34.8918 178.905 36.8818C179.315 37.8718 179.965 38.7018 180.805 39.2918C181.635 39.9018 182.585 40.3218 183.495 40.7618C184.415 41.2018 185.325 41.6618 186.085 42.3018C186.865 42.9318 187.415 43.7918 187.705 44.6818C188.275 46.4818 188.065 48.2318 187.875 49.7518C187.665 51.2718 187.505 52.6418 187.625 53.8418C187.735 55.0318 188.165 56.0118 188.655 56.6918C189.695 58.0818 190.795 58.1618 190.745 58.2218Z" fill="#78C468"/>
<path d="M100.755 18.4214C100.765 18.4114 100.935 18.5214 101.255 18.7414C101.625 18.9914 102.085 19.3114 102.655 19.7014C103.885 20.5114 105.695 21.6714 108.165 22.5514C110.605 23.4214 113.855 23.8814 117.115 22.7314C118.725 22.1614 120.265 21.1314 121.395 19.6614C122.555 18.2014 123.385 16.4114 124.325 14.6214C125.255 12.8214 126.405 11.1214 127.885 9.86142C129.345 8.58142 131.025 7.70141 132.685 7.09141C136.045 5.89141 139.345 5.95141 141.945 6.41141C144.575 6.87141 146.595 7.67141 147.945 8.27141C148.625 8.58141 149.135 8.84141 149.475 9.02141C149.815 9.21141 149.995 9.31142 149.985 9.33142C149.975 9.35142 149.785 9.27142 149.435 9.11142C149.075 8.95142 148.555 8.72141 147.875 8.45141C146.505 7.91141 144.495 7.17141 141.895 6.77141C139.325 6.37141 136.105 6.35142 132.855 7.54142C131.245 8.14142 129.625 9.01141 128.225 10.2414C126.805 11.4614 125.715 13.0814 124.785 14.8614C123.845 16.6314 123.005 18.4514 121.795 19.9714C120.605 21.5114 118.955 22.6014 117.275 23.1814C113.865 24.3614 110.505 23.8314 108.035 22.9014C105.525 21.9614 103.735 20.7314 102.535 19.8714C101.935 19.4314 101.485 19.0714 101.185 18.8214C100.895 18.5714 100.745 18.4314 100.755 18.4214Z" fill="#78C468"/>
<path d="M96.5351 33.2716C96.5951 33.2016 97.3651 33.8716 98.7551 34.7316C100.135 35.5916 102.185 36.5616 104.605 37.1116C107.025 37.6516 109.295 37.6616 110.915 37.4816C112.535 37.3116 113.515 37.0316 113.545 37.1216C113.555 37.1516 113.315 37.2516 112.875 37.4016C112.435 37.5516 111.785 37.7116 110.965 37.8516C109.325 38.1316 106.985 38.1816 104.495 37.6216C102.005 37.0516 99.9151 35.9916 98.5551 35.0416C97.8751 34.5716 97.3451 34.1416 97.0151 33.8116C96.6751 33.4916 96.5051 33.3016 96.5351 33.2716Z" fill="#78C468"/>
<path d="M105.935 42.6218C105.995 42.4818 107.705 43.1818 109.915 43.5418C112.125 43.9218 113.965 43.8218 113.975 43.9818C113.995 44.1118 112.125 44.4518 109.835 44.0618C107.525 43.6718 105.865 42.7418 105.935 42.6218Z" fill="#78C468"/>
<path d="M133.285 102.691L101.175 111.531L66.5452 136.561L75.7852 152.361L239.095 152.641C239.095 152.641 233.145 130.811 231.185 124.111C228.235 114.001 224.235 111.141 220.575 107.451C219.465 106.331 216.285 104.361 214.745 104.021C208.295 102.611 178.395 95.9014 172.575 96.0614C172.575 96.0614 165.865 109.931 151.805 109.791C137.765 109.661 133.285 102.691 133.285 102.691Z" fill="#78C468"/>
<path d="M199.475 128.321C199.575 128.351 199.875 127.001 200.825 125.031C201.755 123.051 203.445 120.511 205.775 118.111C208.105 115.711 210.525 113.841 212.265 112.481C214.015 111.131 215.085 110.281 215.035 110.211C214.985 110.151 213.825 110.871 212.015 112.141C210.215 113.421 207.725 115.251 205.355 117.691C202.975 120.131 201.295 122.781 200.445 124.851C200.015 125.881 199.745 126.751 199.615 127.361C199.475 127.971 199.435 128.311 199.475 128.321Z" fill="#263238"/>
<path d="M101.945 145.661C102.025 145.661 102.075 144.361 102.055 142.261C102.035 140.161 101.925 137.271 101.675 134.081C101.435 130.891 101.105 128.011 100.805 125.931C100.515 123.851 100.265 122.581 100.185 122.591C100.105 122.601 100.205 123.891 100.395 125.981C100.585 128.251 100.825 131.041 101.085 134.121C101.295 137.211 101.485 140.001 101.635 142.271C101.765 144.371 101.865 145.671 101.945 145.661Z" fill="#263238"/>
<g opacity="0.3">
<path d="M92.3152 149.822C94.9552 149.042 97.6452 148.042 99.6052 146.102C101.565 144.162 102.615 141.062 101.445 138.562C105.185 146.862 114.215 152.472 123.315 152.162L84.5752 152.642C86.9352 151.242 89.6652 150.602 92.3152 149.822Z" fill="black"/>
</g>
<path d="M275.015 152.562C275.015 152.562 271.085 147.222 269.155 146.212C267.225 145.202 264.555 145.232 263.385 146.282C262.215 147.332 262.215 147.332 262.215 147.332C262.215 147.332 256.125 144.592 253.185 146.702C253.185 146.702 247.385 143.962 244.615 147.102C244.615 147.102 240.145 144.202 238.255 146.732C236.365 149.272 236.565 153.552 237.475 155.762C238.385 157.972 240.105 165.492 241.435 165.622C241.435 165.622 244.995 166.002 245.475 164.072C245.955 162.142 246.155 161.222 246.155 161.222C246.155 161.222 247.515 168.042 249.155 168.372C250.795 168.712 253.925 168.532 254.035 165.542C254.035 165.542 255.555 167.802 257.045 167.142C258.535 166.482 260.365 165.392 260.205 163.542C260.045 161.692 260.015 159.842 260.015 159.842C260.015 159.842 260.825 162.532 262.175 161.952C263.525 161.362 264.875 161.492 265.625 159.202C266.385 156.912 268.255 152.562 268.255 152.562H275.015Z" fill="#FFBE9D"/>
<path d="M260.125 159.691C260.205 159.651 259.855 158.951 259.545 157.761C259.225 156.581 259.005 154.871 259.345 153.041C259.685 151.211 260.505 149.691 261.225 148.701C261.945 147.701 262.525 147.181 262.455 147.111C262.415 147.061 261.725 147.471 260.895 148.441C260.065 149.401 259.125 150.981 258.765 152.931C258.405 154.881 258.705 156.691 259.145 157.881C259.575 159.101 260.075 159.731 260.125 159.691Z" fill="#EB996E"/>
<path d="M252.815 146.742C252.745 146.722 252.375 147.731 252.035 149.421C251.695 151.111 251.455 153.522 251.625 156.162C251.805 158.802 252.365 161.151 252.935 162.781C253.495 164.421 254.005 165.361 254.065 165.331C254.255 165.271 252.535 161.321 252.215 156.111C251.845 150.921 253.005 146.772 252.815 146.742Z" fill="#EB996E"/>
<path d="M244.485 147.191C244.335 147.171 243.935 150.421 244.395 154.401C244.845 158.391 245.975 161.451 246.115 161.401C246.285 161.351 245.425 158.251 244.985 154.331C244.525 150.411 244.655 147.201 244.485 147.191Z" fill="#EB996E"/>
<path d="M220.495 148.722C220.745 148.092 221.375 147.672 222.025 147.482C223.555 147.042 225.225 147.642 226.445 148.662C227.665 149.682 228.845 151.282 229.675 152.642L221.035 152.582C221.125 151.262 220.015 149.952 220.495 148.722Z" fill="#FFBE9D"/>
<path d="M1.53509 154.892C2.07509 149.532 5.05508 144.732 9.62508 141.892C13.2551 139.752 17.6551 139.312 21.6351 140.702L38.3051 146.512C39.2051 147.472 66.7151 136.872 66.7151 136.872L75.9551 152.652L23.3751 152.582C27.1651 157.052 32.5551 161.992 32.5551 161.992L36.1251 173.852L35.7651 184.582C33.8751 185.452 31.0551 182.142 31.0551 182.142L29.4051 185.172L29.9551 188.092C29.9551 188.092 34.8151 199.892 34.6451 202.512C34.5751 203.562 33.9051 203.932 33.1151 204.002C31.7051 204.122 30.3851 203.292 29.7351 202.042L22.8251 188.612C22.8251 188.612 17.4751 187.302 15.6051 185.542C13.6451 183.692 10.8651 180.362 10.8651 180.362L7.47507 179.882C7.16507 179.962 6.74508 179.862 6.30508 179.652C4.47508 178.792 3.24507 177.032 2.86507 175.052L1.14509 166.002C0.775087 163.992 1.10509 159.232 1.53509 154.892Z" fill="#FFBE9D"/>
<path d="M17.1951 178.261C17.0551 178.301 17.7751 180.911 19.3651 183.811C20.9551 186.721 22.7651 188.731 22.8751 188.641C23.0051 188.541 21.4151 186.411 19.8551 183.551C18.2851 180.701 17.3451 178.211 17.1951 178.261Z" fill="#EB996E"/>
<path d="M9.17508 177.282C9.00508 177.352 9.62508 178.742 10.7051 180.202C11.7651 181.672 12.7751 182.752 12.8851 182.662C13.0151 182.562 12.2051 181.332 11.1551 179.882C10.0851 178.422 9.28508 177.232 9.17508 177.282Z" fill="#EB996E"/>
<path d="M31.0451 190.761C31.1251 190.731 30.7051 189.501 30.1051 187.481C29.4951 185.471 28.7051 182.671 27.9351 179.561C27.5451 178.001 27.1951 176.521 26.8951 175.161C26.5851 173.811 26.4251 172.591 26.5351 171.571C26.7451 169.491 27.8951 168.591 27.8051 168.551C27.7851 168.531 27.4851 168.691 27.1051 169.161C26.7251 169.631 26.3051 170.441 26.1451 171.511C25.9751 172.591 26.1051 173.891 26.3951 175.261C26.6751 176.631 27.0051 178.131 27.3951 179.691C28.1751 182.811 29.0251 185.611 29.7351 187.601C30.4351 189.591 30.9851 190.781 31.0451 190.761Z" fill="#EB996E"/>
<path d="M27.435 170.821C27.365 170.881 27.935 171.521 28.595 172.711C29.255 173.891 29.955 175.671 30.085 177.721C30.145 178.731 30.085 179.791 30.335 180.711C30.545 181.671 31.095 182.391 31.595 182.881C32.625 183.861 33.435 184.201 33.465 184.161C33.525 184.081 32.785 183.611 31.885 182.611C31.445 182.111 30.995 181.441 30.835 180.591C30.625 179.731 30.705 178.761 30.645 177.671C30.505 175.501 29.705 173.651 28.935 172.491C28.155 171.331 27.475 170.781 27.435 170.821Z" fill="#EB996E"/>
<path d="M23.5152 152.711C23.6152 152.581 21.6652 150.961 19.6952 148.551C17.7052 146.171 16.4652 143.921 16.2852 144.061C16.2452 144.041 16.4752 144.671 16.9752 145.571C17.4752 146.481 18.2552 147.681 19.2652 148.901C21.2752 151.371 23.4352 152.831 23.5152 152.711Z" fill="#EB996E"/>
<g opacity="0.3">
<path d="M196.485 152.561L197.145 137.501L186.565 152.551L196.485 152.561Z" fill="black"/>
</g>
<path d="M196.485 152.561C196.345 152.551 196.445 148.561 196.715 143.641C196.985 138.721 197.325 134.741 197.465 134.751C197.605 134.761 197.505 138.751 197.235 143.671C196.975 148.591 196.635 152.571 196.485 152.561Z" fill="#263238"/>
<path d="M193.255 99.9517C193.255 99.9517 193.445 100.262 193.525 100.922C193.605 101.582 193.485 102.622 192.795 103.712C192.135 104.792 190.885 105.912 189.135 106.402C187.395 106.942 185.315 106.942 183.085 106.912C181.965 106.902 180.805 106.912 179.605 107.092C178.415 107.262 177.195 107.612 176.135 108.332C175.065 109.042 174.225 110.102 173.645 111.352C173.055 112.592 172.685 113.982 172.365 115.422C172.035 116.862 171.745 118.362 171.285 119.862C170.815 121.352 170.125 122.862 169.065 124.122C166.995 126.672 163.775 128.462 160.275 128.692C156.765 128.902 153.365 127.542 150.935 125.352C149.695 124.272 148.755 122.912 147.985 121.562C147.205 120.242 146.375 118.952 145.115 118.272C143.885 117.562 142.425 117.442 141.055 117.562C139.675 117.672 138.355 117.992 137.065 118.242C135.775 118.502 134.505 118.752 133.255 118.762C132.005 118.822 130.815 118.552 129.735 118.202C127.565 117.472 125.895 116.172 124.695 114.842C123.485 113.502 122.755 112.102 122.335 110.912C122.095 110.322 122.015 109.762 121.895 109.292C121.845 108.812 121.765 108.402 121.755 108.072C121.755 107.762 121.755 107.522 121.765 107.322C121.765 107.152 121.775 107.062 121.785 107.062C121.895 107.042 121.635 108.502 122.525 110.842C122.965 112.002 123.705 113.352 124.905 114.642C126.095 115.922 127.745 117.172 129.845 117.852C130.895 118.172 132.035 118.422 133.235 118.362C134.435 118.342 135.675 118.092 136.965 117.822C138.255 117.552 139.585 117.232 141.005 117.102C142.405 116.962 143.975 117.072 145.335 117.852C146.725 118.602 147.615 119.992 148.395 121.302C149.165 122.642 150.055 123.922 151.255 124.962C153.605 127.062 156.875 128.372 160.225 128.162C163.565 127.942 166.665 126.232 168.655 123.792C170.725 121.342 171.215 118.172 171.875 115.302C172.205 113.852 172.585 112.432 173.205 111.142C173.815 109.842 174.725 108.702 175.865 107.962C177.005 107.212 178.295 106.852 179.515 106.682C180.745 106.512 181.935 106.512 183.055 106.532C185.285 106.592 187.325 106.612 189.015 106.112C190.725 105.662 191.925 104.612 192.595 103.592C193.285 102.562 193.435 101.562 193.395 100.922C193.375 100.282 193.225 99.9617 193.255 99.9517Z" fill="white"/>
<path d="M144.625 151.482C144.605 151.482 144.535 151.252 144.415 150.792C144.275 150.292 144.095 149.632 143.875 148.812C143.355 147.132 142.685 144.582 140.915 141.962C140.485 141.302 139.935 140.692 139.325 140.092C138.695 139.522 137.975 138.992 137.155 138.582C135.515 137.752 133.515 137.452 131.445 137.582C129.365 137.702 127.215 138.192 124.985 138.712C122.755 139.242 120.375 139.702 117.895 139.632C115.445 139.572 112.925 138.842 111.225 137.142C109.495 135.462 108.815 133.142 108.595 131.042C108.365 128.912 108.575 126.882 108.735 125.022C108.895 123.162 109.005 121.422 108.865 119.852C108.625 116.692 107.105 114.402 105.755 113.312C104.365 112.212 103.295 112.162 103.325 112.082C103.325 112.072 103.385 112.082 103.505 112.102C103.625 112.132 103.805 112.142 104.035 112.212C104.495 112.332 105.155 112.612 105.875 113.152C107.305 114.222 108.935 116.562 109.235 119.812C109.415 121.422 109.315 123.182 109.175 125.052C109.035 126.922 108.845 128.912 109.085 130.982C109.315 133.022 109.985 135.222 111.595 136.772C113.185 138.352 115.545 139.042 117.925 139.102C120.325 139.172 122.655 138.732 124.875 138.212C127.105 137.702 129.295 137.212 131.425 137.102C133.555 136.982 135.645 137.312 137.355 138.202C138.205 138.642 138.955 139.202 139.605 139.802C140.225 140.432 140.795 141.072 141.225 141.762C143.005 144.482 143.615 147.062 144.075 148.772C144.295 149.642 144.435 150.322 144.525 150.782C144.605 151.242 144.645 151.482 144.625 151.482Z" fill="white"/>
<path d="M197.715 138.712C197.665 138.812 196.165 137.732 193.345 137.042C191.945 136.702 190.225 136.512 188.325 136.672C186.435 136.842 184.385 137.392 182.475 138.462C180.555 139.522 178.985 140.952 177.805 142.442C176.645 143.942 175.845 145.492 175.415 146.852C174.985 148.222 174.995 149.412 175.195 150.182C175.385 150.962 175.685 151.322 175.635 151.352C175.625 151.362 175.545 151.282 175.415 151.102C175.295 150.922 175.125 150.642 175.005 150.242C174.735 149.452 174.665 148.192 175.065 146.752C175.475 145.322 176.245 143.712 177.425 142.152C178.615 140.602 180.235 139.112 182.215 138.012C184.195 136.902 186.325 136.342 188.275 136.192C190.235 136.052 192.005 136.292 193.425 136.682C194.855 137.072 195.935 137.582 196.645 137.992C197.005 138.192 197.265 138.372 197.445 138.492C197.635 138.622 197.725 138.692 197.715 138.712Z" fill="white"/>
<path d="M208.495 111.732C208.445 111.762 208.135 111.322 207.885 110.492C207.635 109.672 207.495 108.452 207.745 107.152C207.995 105.852 208.585 104.772 209.125 104.112C209.665 103.442 210.115 103.152 210.155 103.192C210.285 103.292 208.715 104.772 208.255 107.252C207.755 109.732 208.655 111.692 208.495 111.732Z" fill="white"/>
<path d="M232.975 131.552C232.995 131.562 232.955 131.702 232.875 131.992C232.805 132.282 232.645 132.682 232.415 133.192C231.945 134.212 231.055 135.612 229.545 136.952C228.035 138.262 225.855 139.512 223.185 139.862C220.485 140.262 217.595 139.402 214.695 138.682C213.235 138.332 211.785 138.042 210.385 138.032C208.985 138.012 207.635 138.232 206.415 138.642C203.965 139.472 202.045 140.912 200.725 142.352C199.405 143.802 198.655 145.232 198.245 146.252C197.825 147.272 197.705 147.882 197.645 147.862C197.625 147.862 197.655 147.702 197.705 147.422C197.765 147.132 197.845 146.702 198.045 146.182C198.405 145.132 199.115 143.632 200.445 142.112C201.765 140.602 203.725 139.082 206.255 138.192C207.515 137.752 208.925 137.502 210.385 137.522C211.845 137.532 213.325 137.822 214.805 138.182C217.735 138.912 220.545 139.762 223.115 139.392C225.675 139.082 227.805 137.912 229.305 136.682C230.805 135.412 231.715 134.082 232.235 133.112C232.745 132.132 232.915 131.532 232.975 131.552Z" fill="white"/>
<path d="M99.2352 149.821C99.2352 149.841 99.1152 149.861 98.8852 149.881C98.6552 149.911 98.3152 149.921 97.8752 149.891C97.0052 149.841 95.7152 149.641 94.2752 148.961C92.8552 148.281 91.2552 147.141 90.0752 145.391C89.4752 144.521 89.0052 143.501 88.7052 142.391C88.4152 141.281 88.2652 140.121 88.1152 138.941C87.8452 136.601 87.4652 134.321 86.1452 132.801C84.8452 131.271 83.0152 130.661 81.5352 130.381C80.0252 130.091 78.7652 130.061 77.8952 130.011C77.0252 129.981 76.5452 129.961 76.5452 129.921C76.5452 129.891 77.0252 129.841 77.8952 129.801C78.7652 129.781 80.0352 129.761 81.5952 130.011C83.1252 130.261 85.0752 130.851 86.5052 132.491C87.2152 133.291 87.6952 134.341 88.0152 135.431C88.3352 136.531 88.4752 137.701 88.6252 138.881C88.7752 140.061 88.9152 141.201 89.1952 142.261C89.4752 143.321 89.9152 144.281 90.4752 145.121C91.5852 146.811 93.0952 147.931 94.4452 148.631C97.2152 150.001 99.2652 149.681 99.2352 149.821Z" fill="white"/>
</svg>
