<svg width="140" height="16" viewBox="0 0 140 16" fill="none" xmlns="http://www.w3.org/2000/svg">
<g clip-path="url(#clip0_257_7916)">
<path d="M26.8371 9.4738L25.6828 14.9164C25.6546 15.0495 25.5369 15.1448 25.4006 15.1448H22.6772C22.4938 15.1448 22.3569 14.976 22.3951 14.7968L24.4997 4.90488C24.5214 4.80317 24.6113 4.73044 24.7154 4.73044H27.5775C27.7178 4.73044 27.8224 4.85972 27.793 4.99681L27.3437 7.09166H32.369C32.5524 7.09166 32.6892 7.26042 32.6511 7.43964L32.2671 9.24555C32.2388 9.37863 32.1212 9.4738 31.985 9.4738H26.8371ZM24.804 3.41067L25.2907 1.10127C25.3187 0.967938 25.4365 0.872498 25.5729 0.872498H35.5563C35.7395 0.872498 35.8763 1.04089 35.8385 1.21997L35.3691 3.44749C35.341 3.58081 35.2233 3.67625 35.0869 3.67625H25.0197C24.8797 3.67625 24.7752 3.54755 24.804 3.41067Z" fill="#2B323F"/>
<path d="M41.8921 14.9454L41.7576 12.9311H36.6083L35.5698 15.026C35.5338 15.0987 35.4595 15.1448 35.3782 15.1448H32.761C32.6006 15.1448 32.4973 14.9748 32.5713 14.8326L39.6638 1.20552C39.7703 1.0009 39.982 0.872513 40.2128 0.872513H43.4637C43.7871 0.872513 44.0559 1.12124 44.0807 1.44334L45.1166 14.9148C45.1261 15.0389 45.0279 15.1448 44.9034 15.1448H42.1055C41.9929 15.1448 41.8996 15.0576 41.8921 14.9454ZM41.209 3.7394L37.7479 10.5702H41.6522L41.209 3.7394Z" fill="#2B323F"/>
<path d="M46.6797 14.7175L47.1393 12.5536C47.163 12.4419 47.2617 12.3619 47.3761 12.3619H54.7984C55.0516 12.3619 55.2379 12.3129 55.3576 12.2144C55.4769 12.1163 55.565 11.9335 55.6213 11.6662L56.0434 9.68477C56.0573 9.62852 56.0645 9.55132 56.0645 9.45287C56.0645 9.19971 55.8815 9.07313 55.5159 9.07313H49.8812C49.3041 9.07313 48.8857 8.95047 48.6255 8.70418C48.3651 8.45854 48.2351 8.11085 48.2351 7.66078C48.2351 7.49201 48.2562 7.28856 48.2984 7.04946L49.0793 3.35997C49.2619 2.51674 49.5716 1.89169 50.0077 1.48382C50.4437 1.07627 51.1264 0.872498 52.0549 0.872498H60.6415C60.7951 0.872498 60.9099 1.01363 60.8784 1.16385L60.41 3.39959C60.3866 3.51162 60.2877 3.59187 60.1731 3.59187H52.7934C52.5683 3.59187 52.4064 3.64126 52.3082 3.73938C52.2095 3.83816 52.132 4.01348 52.076 4.26664L51.6749 6.14279C51.6609 6.19905 51.6502 6.24811 51.6434 6.2903C51.6361 6.3325 51.6327 6.37469 51.6327 6.41688C51.6327 6.62785 51.7874 6.73317 52.097 6.73317H57.8162C58.407 6.73317 58.8325 6.85976 59.093 7.11259C59.3531 7.36575 59.4834 7.71704 59.4834 8.16678C59.4834 8.34962 59.4623 8.5462 59.4201 8.75717L58.5969 12.657C58.4141 13.5005 58.1043 14.1259 57.6684 14.5335C57.2322 14.9413 56.5569 15.1448 55.6425 15.1448H47.0262C46.801 15.1448 46.633 14.9376 46.6797 14.7175Z" fill="#2B323F"/>
<path d="M66.1262 15.1448H63.4133C63.2594 15.1448 63.1446 15.0033 63.1764 14.8529L65.5415 3.67625H62.3789C62.2251 3.67625 62.1103 3.53491 62.142 3.38461L62.631 1.06449C62.6546 0.952593 62.7535 0.872498 62.8679 0.872498H72.524C72.6778 0.872498 72.7926 1.01384 72.7609 1.16414L72.2718 3.48426C72.2482 3.59616 72.1494 3.67625 72.035 3.67625H68.7493L66.363 14.953C66.3393 15.0648 66.2406 15.1448 66.1262 15.1448Z" fill="#2B323F"/>
<path d="M75.7332 10.5489L74.803 14.9529C74.7793 15.0647 74.6805 15.1448 74.5661 15.1448H71.8535C71.6996 15.1448 71.5848 15.0032 71.6167 14.8528L73.7243 4.92683C73.7512 4.79994 73.8634 4.70918 73.9932 4.70918H76.6382C76.8132 4.70918 76.9437 4.8704 76.907 5.04136L76.2818 7.95581H80.6925C80.9597 7.95581 81.1463 7.89988 81.2519 7.78736C81.3573 7.67485 81.4451 7.45734 81.5156 7.13385L82.1276 4.32977C82.1556 4.18945 82.1698 4.091 82.1698 4.03474C82.1698 3.88003 82.124 3.7783 82.0326 3.72892C81.9409 3.67985 81.7969 3.65532 81.6001 3.65532H74.2462C74.1099 3.65532 74.0081 3.52991 74.0364 3.39671L74.5318 1.06413C74.5555 0.952405 74.6543 0.872498 74.7686 0.872498H83.5204C84.2379 0.872498 84.7513 0.998752 85.0611 1.25191C85.3703 1.50475 85.5254 1.89856 85.5254 2.43236C85.5254 2.573 85.5147 2.71692 85.4936 2.86476C85.4725 3.01228 85.4478 3.17745 85.4198 3.35997L84.4278 8.06146C84.2448 8.90468 83.9352 9.53006 83.4993 9.93761C83.0632 10.3455 82.3877 10.5489 81.4734 10.5489H75.7332Z" fill="#15B4FC"/>
<path d="M92.405 14.8234L92.2786 12.9311H87.1293L86.1269 14.9532C86.0687 15.0705 85.949 15.1448 85.818 15.1448H83.4975C83.2389 15.1448 83.0724 14.8708 83.1917 14.6416L90.2616 1.05799C90.3209 0.944008 90.4388 0.872498 90.5674 0.872498H94.2386C94.4187 0.872498 94.5684 1.01104 94.5822 1.19045L95.6268 14.7741C95.6422 14.974 95.4839 15.1448 95.2831 15.1448H92.7489C92.5674 15.1448 92.417 15.0042 92.405 14.8234ZM91.73 3.73938L88.2689 10.5702H92.1732L91.73 3.73938Z" fill="#15B4FC"/>
<path d="M107.516 15.1448L102.113 5.7843L100.188 14.8718C100.154 15.0309 100.013 15.1448 99.8503 15.1448H97.5792C97.3602 15.1448 97.1967 14.9434 97.2419 14.7293L100.114 1.14566C100.148 0.986433 100.289 0.872498 100.452 0.872498H102.986C103.112 0.872498 103.227 0.940911 103.288 1.05101L107.874 9.38942L109.611 1.14592C109.645 0.986568 109.785 0.872498 109.948 0.872498H112.24C112.459 0.872498 112.623 1.07391 112.577 1.28798L109.648 15.1448H107.516Z" fill="#15B4FC"/>
<path d="M112.037 14.6184L114.12 4.80987C114.132 4.75117 114.184 4.70918 114.244 4.70918H117.296C117.378 4.70918 117.438 4.7841 117.421 4.86332L116.948 7.0282H121.664C121.941 7.0282 122.148 7.28368 122.09 7.55488L121.791 8.9599C121.748 9.16115 121.57 9.30503 121.364 9.30503H116.463L115.829 12.2988H122.574C122.851 12.2988 123.057 12.5527 123.001 12.8233L122.591 14.7974C122.549 14.9997 122.371 15.1448 122.164 15.1448H112.464C112.186 15.1448 111.979 14.8895 112.037 14.6184ZM114.385 3.5019L114.87 1.21794C114.912 1.01654 115.09 0.872498 115.297 0.872498H124.998C125.276 0.872498 125.483 1.12771 125.425 1.39882L125.02 3.30984C124.977 3.51125 124.799 3.65532 124.593 3.65532H114.509C114.428 3.65532 114.368 3.58092 114.385 3.5019Z" fill="#15B4FC"/>
<path d="M134.158 15.1448H125.241C125.034 15.1448 124.881 14.9552 124.923 14.7536L127.804 1.12967C127.836 0.979765 127.968 0.872498 128.121 0.872498H130.666C130.872 0.872498 131.026 1.06209 130.983 1.26363L128.66 12.2566H134.633C134.839 12.2566 134.993 12.4463 134.95 12.6479L134.476 14.8877C134.444 15.0376 134.312 15.1448 134.158 15.1448Z" fill="#15B4FC"/>
<path d="M8.57662 3.18616H7.16322C6.99266 3.18616 6.88277 3.04675 6.91903 2.87637L7.3825 0.653436C7.41875 0.48305 7.58796 0.343643 7.75853 0.343643H9.17192C9.34248 0.343643 9.45237 0.48305 9.41612 0.653436L8.95265 2.87637C8.91639 3.04675 8.74718 3.18616 8.57662 3.18616Z" fill="#15B4FC"/>
<path d="M19.3319 1.08563H10.0728L9.79883 2.38234H19.0579C19.2284 2.38234 19.3977 2.24293 19.4339 2.07254L19.5761 1.39543C19.6123 1.22504 19.5024 1.08563 19.3319 1.08563Z" fill="#2B323F"/>
<path d="M6.56054 1.08563H3.16537C2.99481 1.08563 2.8256 1.22504 2.78935 1.39543L2.64754 2.07555C2.61129 2.24593 2.72118 2.38534 2.89174 2.38534H6.28691L6.56054 1.08563Z" fill="#15B4FC"/>
<path d="M14.4653 7.33588H13.0519C12.8813 7.33588 12.7714 7.19647 12.8077 7.02608L13.2852 4.78202C13.3214 4.61164 13.4906 4.47223 13.6612 4.47223H15.0746C15.2452 4.47223 15.3551 4.61164 15.3188 4.78202L14.8413 7.02608C14.8051 7.19647 14.6359 7.33588 14.4653 7.33588Z" fill="#15B4FC"/>
<path d="M12.4487 5.23529H2.31653C2.14597 5.23529 1.97676 5.3747 1.9405 5.54508L1.81161 6.15891C1.77535 6.32929 1.88524 6.4687 2.0558 6.4687H12.1879L12.4487 5.23529Z" fill="#15B4FC"/>
<path d="M18.484 5.23529H15.9619L15.7031 6.4667H18.2252C18.3958 6.4667 18.565 6.32729 18.6013 6.1569L18.7282 5.54508C18.7644 5.3747 18.6546 5.23529 18.484 5.23529Z" fill="#2B323F"/>
<path d="M6.686 11.4855H5.2726C5.10204 11.4855 4.99215 11.3461 5.0284 11.1757L5.50588 8.93168C5.54214 8.76129 5.71135 8.62189 5.88191 8.62189H7.29531C7.46587 8.62189 7.57576 8.76129 7.5395 8.93168L7.06202 11.1757C7.02577 11.3461 6.85656 11.4855 6.686 11.4855Z" fill="#15B4FC"/>
<path d="M4.66836 9.38501H1.41654C1.24598 9.38501 1.07677 9.52442 1.04051 9.6948L0.887778 10.4126C0.851522 10.583 0.961409 10.7224 1.13197 10.7224H4.38379L4.66836 9.38501Z" fill="#15B4FC"/>
<path d="M17.5835 9.38501H8.18105L7.89648 10.7224H17.2989C17.4695 10.7224 17.6387 10.583 17.6749 10.4126L17.8277 9.6948C17.8639 9.52442 17.754 9.38501 17.5835 9.38501Z" fill="#2B323F"/>
<path d="M11.0063 15.6564H9.59291C9.42235 15.6564 9.31246 15.517 9.34871 15.3466L9.83631 13.0814C9.87256 12.911 10.0418 12.7716 10.2123 12.7716H11.6257C11.7963 12.7716 11.9062 12.911 11.8699 13.0814L11.3823 15.3466C11.3461 15.517 11.1769 15.6564 11.0063 15.6564Z" fill="#15B4FC"/>
<path d="M16.689 13.6147H12.5001L12.2305 14.8721H16.4194C16.5899 14.8721 16.7592 14.7327 16.7954 14.5623L16.9332 13.9245C16.9695 13.7541 16.8596 13.6147 16.689 13.6147Z" fill="#2B323F"/>
<path d="M9.001 13.6147H0.535683C0.365121 13.6147 0.195908 13.7541 0.159652 13.9245L0.00691846 14.5623C-0.0293369 14.7327 0.0805497 14.8721 0.251111 14.8721H8.71643L9.001 13.6147Z" fill="#15B4FC"/>
<path d="M137.987 3.54535C138.245 3.43864 138.386 3.21621 138.386 2.91224C138.386 2.55516 138.129 2.19507 137.555 2.19507H136.865V4.41243H137.256V3.62388H137.6L138.043 4.41243H138.48L137.987 3.54535ZM137.995 2.91224C137.995 3.13283 137.851 3.24462 137.566 3.24462H137.256V2.57433H137.566C137.839 2.57433 137.995 2.69744 137.995 2.91224Z" fill="#2B323F"/>
<path d="M137.567 5.73498C136.225 5.73498 135.133 4.64432 135.133 3.30374C135.133 1.96316 136.225 0.872498 137.567 0.872498C138.909 0.872498 140.001 1.96316 140.001 3.30374C140.001 4.64431 138.909 5.73498 137.567 5.73498ZM137.567 1.25083C136.434 1.25083 135.512 2.17173 135.512 3.30374C135.512 4.43574 136.434 5.35664 137.567 5.35664C138.7 5.35664 139.622 4.43574 139.622 3.30374C139.622 2.17173 138.7 1.25083 137.567 1.25083Z" fill="#2B323F"/>
</g>
<defs>
<clipPath id="clip0_257_7916">
<rect width="140" height="15.3125" fill="white" transform="translate(0 0.34375)"/>
</clipPath>
</defs>
</svg>
