<svg width="140" height="30" viewBox="0 0 140 30" fill="none" xmlns="http://www.w3.org/2000/svg">
<path fill-rule="evenodd" clip-rule="evenodd" d="M15.2659 29.8867L22.5498 2.42028C22.7275 1.75489 23.1171 1.16655 23.6589 0.745495C24.1972 0.325113 24.8618 0.101951 25.543 0.112799H33.2706C34.9739 0.0956755 36.6555 0.498148 38.1689 1.28515C39.6207 2.03086 40.8897 3.09227 41.8839 4.39251C42.8782 5.69275 43.5728 7.1993 43.9174 8.80307C44.2874 10.4847 44.2366 12.2325 43.7696 13.8895L43.6217 14.4477C43.31 15.6193 42.8105 16.7318 42.143 17.7415C41.1552 19.2384 39.8143 20.4655 38.2402 21.3131C36.6661 22.1607 34.9078 22.6022 33.1227 22.5983H26.4315L27.7624 17.574C27.9473 16.9222 28.3363 16.3478 28.8714 15.9364C29.4101 15.5158 30.0751 15.2926 30.7568 15.3037H32.9009C33.7645 15.3047 34.6038 15.0162 35.2866 14.4839C35.9693 13.9515 36.4566 13.2055 36.6717 12.3635C36.8424 11.7677 36.8594 11.1379 36.721 10.5337C36.5957 9.96064 36.3499 9.42128 36.0001 8.95194C35.6449 8.48435 35.1901 8.10283 34.6692 7.83541C34.1233 7.54968 33.5162 7.40274 32.9009 7.40741H28.7605L23.3631 27.6165C23.1782 28.2683 22.7892 28.8426 22.2541 29.254C21.7274 29.6706 21.0754 29.8937 20.4057 29.8867H15.2659ZM11.0516 7.44511H19.4064L18.1138 12.4322C17.9361 13.0976 17.5465 13.686 17.0047 14.107C16.4661 14.5277 15.801 14.7509 15.1194 14.7397H11.2365C10.391 14.7279 9.56618 15.0033 8.89517 15.5213C8.20769 16.0571 7.70887 16.8006 7.47189 17.6427C7.30072 18.2615 7.28169 18.9129 7.41644 19.5408C7.54024 20.1134 7.78436 20.6527 8.13239 21.1225C8.48503 21.5878 8.94075 21.9638 9.46324 22.2204C10.0145 22.4955 10.6225 22.6358 11.2377 22.6298H13.6037C13.815 22.6261 14.0241 22.6732 14.2137 22.767C14.4034 22.8609 14.5681 22.9988 14.6942 23.1695C14.8325 23.3343 14.9275 23.5313 14.9705 23.7426C15.0136 23.954 15.0033 24.1728 14.9407 24.379L13.462 29.8872H10.8742C9.17091 29.9043 7.48931 29.5019 5.97591 28.7149C4.52256 27.968 3.2513 26.9068 2.25322 25.6072C1.26365 24.3089 0.575243 22.8041 0.238457 21.2032C-0.118838 19.5212 -0.0740679 17.7779 0.369078 16.1168L0.516951 15.5585C1.1423 13.2267 2.51239 11.1669 4.41586 9.69676C5.34932 8.98421 6.38913 8.42521 7.49654 8.04059C8.63971 7.64155 9.84172 7.44022 11.0516 7.44511ZM61.4772 14.814L61.3663 15.2234L59.5549 21.9597L59.4809 22.2574C59.4366 22.4957 59.3046 22.7084 59.1113 22.8529C58.9081 23.0034 58.6611 23.0819 58.4089 23.0762H51.1261C50.9984 23.0794 50.8717 23.0524 50.7562 22.9975C50.6406 22.9426 50.5395 22.8612 50.4607 22.7599C50.3767 22.6616 50.3189 22.5434 50.2931 22.4164C50.2672 22.2893 50.274 22.1578 50.3128 22.0341C50.4352 21.6123 50.7063 21.4014 51.1261 21.4014H55.6363C56.3059 21.4081 56.9578 21.1849 57.4847 20.7688C58.0191 20.3566 58.4079 19.7826 58.5937 19.1312L59.3331 16.3399H49.2408C48.5235 16.3361 47.8109 16.4557 47.1336 16.6934C46.481 16.9218 45.8693 17.2549 45.3221 17.6797C44.7712 18.1101 44.2909 18.625 43.8989 19.2056C43.4954 19.7925 43.2011 20.4482 43.0301 21.1409L42.8822 21.6992C42.6121 22.6764 42.5867 23.7057 42.8083 24.6952C43.0129 25.6388 43.4163 26.5272 43.9913 27.3004C44.5881 28.094 45.3605 28.7366 46.2472 29.177C47.1339 29.6174 48.1104 29.8435 49.0991 29.8374L61.1137 29.8746C62.2264 29.8832 63.3102 29.5184 64.1939 28.8376C65.0776 28.1569 65.7108 27.1991 65.9935 26.1157L68.914 15.1737C69.1584 14.2302 69.1774 13.2418 68.9694 12.2894C68.7743 11.3872 68.3829 10.5398 67.8234 9.80822C67.2578 9.08067 66.5434 8.4841 65.7286 8.059C64.8735 7.60849 63.9209 7.37832 62.956 7.38909H46.69L45.9506 10.2176C45.8267 10.692 45.814 11.1889 45.9136 11.6691C46.0034 12.1194 46.193 12.5434 46.4682 12.9097C46.7451 13.2727 47.0987 13.5693 47.5033 13.7781C47.9369 14.0048 48.4195 14.1199 48.9081 14.113H60.9227C61.0102 14.1087 61.0976 14.1249 61.1778 14.1605C61.258 14.196 61.3289 14.2498 61.3848 14.3177C61.4387 14.3869 61.4752 14.4681 61.4913 14.5545C61.5074 14.6409 61.5025 14.7299 61.4772 14.814ZM82.8805 7.44505C84.5939 7.42598 86.2859 7.82842 87.8096 8.6174C89.26 9.36334 90.5291 10.4223 91.5261 11.7189C92.5186 13.0245 93.2068 14.5381 93.5397 16.1477C93.8961 17.8357 93.8394 19.5855 93.3745 21.2465L91.5261 28.2434C91.4123 28.7238 91.1301 29.1467 90.7313 29.4344C90.3397 29.7276 89.8639 29.8844 89.3758 29.881H85.3956C85.1823 29.886 84.9708 29.8402 84.7784 29.7474C84.586 29.6547 84.418 29.5174 84.2882 29.347C84.1584 29.1765 84.0704 28.9776 84.0313 28.7664C83.9923 28.5553 84.0033 28.3378 84.0635 28.1317L86.2816 19.6834C86.4533 19.0901 86.4724 18.4625 86.337 17.8597C86.2117 17.2869 85.9663 16.7477 85.6174 16.278C85.2615 15.8111 84.8069 15.4297 84.2865 15.1615C83.7387 14.875 83.1294 14.7281 82.5121 14.7335H78.3716L74.7833 28.2496C74.6708 28.7306 74.3883 29.1539 73.9884 29.4406C73.5866 29.7367 73.1001 29.8934 72.6021 29.8872H68.6466C68.4354 29.8908 68.2265 29.8438 68.0371 29.75C67.8476 29.6561 67.6831 29.5181 67.5572 29.3475C67.4193 29.1825 67.3245 28.9855 67.2814 28.7742C67.2384 28.563 67.2485 28.3443 67.3108 28.1379L72.7821 7.44505H82.8805ZM104.025 15.4465C104.14 15.0865 104.359 14.769 104.654 14.5347C104.936 14.3033 105.29 14.1783 105.654 14.1812H112.53C112.66 14.1828 112.788 14.2142 112.904 14.2731C113.02 14.3319 113.12 14.4166 113.199 14.5207C113.277 14.6248 113.331 14.7455 113.356 14.8737C113.381 15.0019 113.377 15.1342 113.344 15.2605L113.196 15.8187C113.072 16.2405 112.801 16.4514 112.382 16.4514H107.872C107.191 16.4403 106.526 16.6635 105.987 17.0841C105.455 17.4909 105.076 18.0687 104.915 18.7217L104.175 21.4758H115.34C116.44 21.4878 117.512 21.1298 118.387 20.4585C119.275 19.7893 119.907 18.8317 120.174 17.7478L120.84 15.217C121.085 14.2806 121.11 13.2993 120.913 12.3513C120.732 11.4441 120.347 10.5909 119.786 9.85773C119.221 9.1299 118.506 8.53329 117.691 8.10851C116.836 7.65775 115.883 7.42757 114.918 7.4386H105.048C104.123 7.43669 103.204 7.59403 102.331 7.90381C100.618 8.49945 99.1468 9.64324 98.1411 11.1603C97.6216 11.9337 97.2342 12.7891 96.995 13.6911L94.74 22.1395C94.4696 23.0673 94.4378 24.0492 94.6476 24.9928C94.8454 25.8979 95.2364 26.7487 95.7936 27.4864C96.352 28.2209 97.0682 28.8189 97.8884 29.2356C98.7469 29.6747 99.6982 29.8982 100.661 29.8869H114.601C115.27 29.8939 115.922 29.6707 116.449 29.2542C116.984 28.8428 117.373 28.2685 117.558 27.6166L118.738 23.1878H103.434C103.263 23.1883 103.094 23.1489 102.94 23.0727C102.787 22.9965 102.653 22.8856 102.549 22.7486C102.445 22.6116 102.374 22.4523 102.342 22.2832C102.309 22.114 102.316 21.9396 102.362 21.7735L104.025 15.4465ZM118.702 29.8868L126.132 1.78766C126.247 1.30336 126.527 0.875083 126.923 0.578099C127.322 0.270256 127.811 0.106381 128.313 0.112881H132.269C132.486 0.106399 132.701 0.151952 132.897 0.245783C133.093 0.339614 133.265 0.479032 133.397 0.652533C133.534 0.817505 133.629 1.01457 133.672 1.22581C133.715 1.43705 133.705 1.65578 133.643 1.8621L128.098 22.5922C127.839 23.655 127.394 24.6632 126.785 25.5696C126.198 26.4443 125.474 27.2173 124.641 27.8585C123.806 28.4961 122.877 28.9984 121.887 29.3472C120.864 29.7094 119.786 29.8919 118.702 29.8868ZM135.251 1.44888C135.028 1.83668 134.911 2.27721 134.912 2.72544C134.909 3.16687 135.021 3.60143 135.236 3.98587C135.458 4.38152 135.78 4.71072 136.17 4.93979C136.56 5.16886 137.003 5.28958 137.454 5.28958C137.905 5.28958 138.349 5.16886 138.738 4.93979C139.128 4.71072 139.45 4.38152 139.672 3.98587C139.889 3.597 140.002 3.15795 140 2.71185C139.998 2.26575 139.88 1.82794 139.659 1.44144C139.437 1.05012 139.114 0.726474 138.725 0.504797C138.339 0.280417 137.902 0.163111 137.457 0.164878C137.009 0.164198 136.57 0.2826 136.182 0.508087C135.795 0.733573 135.474 1.05813 135.251 1.44888ZM135.561 3.82838C135.369 3.49318 135.267 3.11275 135.267 2.72544C135.264 2.33744 135.367 1.95609 135.564 1.62256C135.757 1.29003 136.032 1.01382 136.364 0.821146C136.696 0.626574 137.074 0.524087 137.459 0.524087C137.844 0.524087 138.222 0.626574 138.555 0.821146C138.885 1.0158 139.159 1.29371 139.351 1.62752C139.546 1.96025 139.648 2.34019 139.645 2.72668C139.648 3.11536 139.546 3.49756 139.349 3.83204C139.157 4.16495 138.881 4.44158 138.55 4.63469C138.218 4.82847 137.841 4.93053 137.457 4.93053C137.074 4.93053 136.697 4.82847 136.365 4.63469C136.031 4.44169 135.754 4.16357 135.561 3.82838ZM138.344 2.58649C138.44 2.44537 138.491 2.27746 138.488 2.10616C138.488 2.10624 138.488 2.10631 138.488 2.10639V2.10515C138.488 2.10548 138.488 2.10582 138.488 2.10616M137.39 2.61875H137.02L137.025 1.64117H137.384C137.545 1.62843 137.706 1.66753 137.844 1.75282C137.895 1.79756 137.935 1.85419 137.961 1.91789C137.986 1.9816 137.996 2.05052 137.989 2.11879C137.99 2.18716 137.977 2.25497 137.948 2.3171C137.92 2.37922 137.878 2.43401 137.825 2.47732C137.702 2.57628 137.547 2.62658 137.39 2.61875Z" fill="#FF6C2C"/>
</svg>
