<svg width="156" height="39" viewBox="0 0 156 39" fill="none" xmlns="http://www.w3.org/2000/svg">
<path d="M53.1451 24.0494L49.5976 17.7198H47.5673V24.0494H43.0828V6.11182H50.914C52.6989 6.11182 54.0822 6.49204 55.1977 7.31958C56.581 8.32606 57.295 9.98115 57.295 11.7704C57.295 13.9623 56.2464 16.0871 53.9037 17.0488L58.009 24.0494H53.1451ZM50.3339 9.64566H47.545V14.3873H50.3339C51.9403 14.3873 52.9443 13.4479 52.9443 11.9941C52.9443 10.339 51.8288 9.64566 50.3339 9.64566Z" fill="white"/>
<path d="M60.0613 24.0494V6.11182H64.5458V24.0494H60.0613Z" fill="white"/>
<path d="M75.7915 17.8317H72.0655V24.0494H67.6033V6.11182H75.6799C79.6513 6.11182 81.9494 8.54972 81.9494 11.8599C81.9494 14.8346 80.1422 17.8317 75.7915 17.8317ZM74.966 9.64566H72.0878V14.3873H74.966C76.5054 14.3873 77.5764 13.5821 77.5764 11.9717C77.5764 10.4285 76.5724 9.64566 74.966 9.64566Z" fill="white"/>
<path d="M84.2019 24.0494V6.11182H97.3655V9.75749H88.6641V13.1795H95.9822V16.8028H88.6641V20.3814H97.4101V24.0494H84.2019Z" fill="white"/>
<path d="M117.669 24.0494L110.663 13.515H110.618V24.0494H106.469V6.11182H110.819L117.624 16.2437H117.669V6.11182H121.841V24.0494H117.669Z" fill="white"/>
<path d="M132.038 24.3625C128.089 24.3625 124.407 22.372 124.407 17.8987V12.4414C124.407 8.03529 127.977 5.82104 131.904 5.82104C135.384 5.82104 139.177 7.58797 139.177 11.7257V12.8664H134.96V12.1506C134.96 10.2943 133.376 9.48908 131.993 9.48908C130.409 9.48908 128.892 10.3166 128.892 12.3519V17.7869C128.892 19.6209 130.23 20.6721 132.06 20.6721C133.443 20.6721 134.96 19.8893 134.96 18.0106V17.2725H139.177V18.4803C139.177 22.5956 135.496 24.3625 132.038 24.3625Z" fill="white"/>
<path d="M148.861 24.3625C144.912 24.3625 141.23 22.372 141.23 17.8987V12.4414C141.23 8.03529 144.8 5.82104 148.727 5.82104C152.207 5.82104 156 7.58797 156 11.7257V12.8664H151.783V12.1506C151.783 10.2943 150.199 9.48908 148.816 9.48908C147.232 9.48908 145.715 10.3166 145.715 12.3519V17.7869C145.715 19.6209 147.053 20.6721 148.883 20.6721C150.266 20.6721 151.783 19.8893 151.783 18.0106V17.3396H156V18.4803C156.023 22.5956 152.319 24.3625 148.861 24.3625Z" fill="white"/>
<path d="M28.3129 16.6015V6.17893L18.6522 0.587402L8.99142 6.17893V16.6015V16.6239L0 21.8128V32.9959L9.66076 38.5874L18.6522 33.3761L27.6436 38.5874L37.3043 32.9959V21.8128L28.3129 16.6015ZM18.6522 21.4102L10.9771 16.9594L18.6522 12.5085L26.3272 16.9594L18.6522 21.4102ZM10.3078 18.1224L17.9828 22.5733V31.4526L10.3078 27.0018V18.1224ZM19.2992 22.5733L26.9743 18.1224V27.0018L19.2992 31.4303V22.5733ZM10.3078 6.93937L18.6522 2.10829L26.9966 6.93937V15.8187L18.6522 10.9876L10.3078 15.8187V6.93937ZM1.31636 32.2131V22.5509L8.99142 18.1001V27.7398L17.3358 32.5709L9.63844 37.0218L1.31636 32.2131ZM35.988 32.2131L27.6436 37.0441L19.9462 32.5933L28.2906 27.7622V18.1224L35.9657 22.5733L35.988 32.2131Z" fill="white"/>
<path d="M43.819 31.2289V32.9958H43.3281V28.7239H44.4883C45.0015 28.7239 45.4031 28.8133 45.6485 29.0146C45.8939 29.2159 46.0278 29.5067 46.0278 29.9316C46.0278 30.4908 45.7377 30.871 45.18 31.0723L46.3401 32.9958H45.7377L44.7114 31.2289H43.819ZM43.819 30.8039H44.4883C44.8453 30.8039 45.0907 30.7368 45.2692 30.6026C45.4477 30.4684 45.5146 30.2448 45.5146 29.9764C45.5146 29.6856 45.4254 29.4843 45.2692 29.3725C45.113 29.2607 44.8453 29.1936 44.466 29.1936H43.819V30.8039Z" fill="white"/>
<path d="M47.0322 32.9958V28.7239H47.5231V32.9958H47.0322Z" fill="white"/>
<path d="M51.4272 29.9763C51.4272 30.4013 51.271 30.7368 50.981 30.9828C50.6909 31.2065 50.267 31.3407 49.7092 31.3407H49.2184V33.0181H48.7275V28.7462H49.8431C50.8917 28.7238 51.4272 29.1488 51.4272 29.9763ZM49.2184 30.8933H49.6646C50.1108 30.8933 50.4232 30.8262 50.624 30.6697C50.8248 30.5355 50.914 30.2895 50.914 29.9763C50.914 29.6856 50.8248 29.4843 50.6463 29.3501C50.4678 29.2159 50.1778 29.1488 49.7762 29.1488H49.2184V30.8933Z" fill="white"/>
<path d="M54.7069 32.9958H52.3196V28.7239H54.7069V29.1712H52.8327V30.5579H54.5953V31.0052H52.8327V32.5708H54.7069V32.9958Z" fill="white"/>
<path d="M60.5744 32.9958H60.0166L57.6962 29.4172H57.6739C57.6962 29.8422 57.7185 30.2224 57.7185 30.5803V32.9958H57.25V28.7239H57.8078L60.1281 32.3025H60.1505C60.1505 32.2577 60.1281 32.0788 60.1281 31.788C60.1058 31.4973 60.1058 31.296 60.1058 31.1841V28.7239H60.5744V32.9958Z" fill="white"/>
<path d="M64.1441 32.9958H61.7568V28.7239H64.1441V29.1712H62.2477V30.5579H64.0103V31.0052H62.2477V32.5708H64.1218V32.9958H64.1441Z" fill="white"/>
<path d="M66.4202 32.9958H65.9293V29.1712H64.5684V28.7239H67.7589V29.1712H66.3979V32.9958H66.4202Z" fill="white"/>
<path d="M72.1542 32.9958H71.6633L70.7932 30.1329C70.7486 29.9987 70.7039 29.8422 70.6593 29.6633C70.6147 29.4843 70.5924 29.3501 70.5701 29.3054C70.5254 29.5738 70.4585 29.8422 70.3693 30.1553L69.5438 32.9958H69.0529L67.915 28.7239H68.4505L69.1198 31.3631C69.2091 31.7433 69.276 32.0788 69.3206 32.3696C69.3653 32.0117 69.4545 31.6538 69.5438 31.3183L70.3023 28.7239H70.8378L71.641 31.3407C71.7303 31.6538 71.8195 31.9893 71.8864 32.3696C71.9311 32.1012 71.998 31.7657 72.0872 31.3631L72.7566 28.7239H73.292L72.1542 32.9958Z" fill="white"/>
<path d="M77.6651 30.8488C77.6651 31.5421 77.4866 32.0789 77.1519 32.4591C76.8172 32.8617 76.3264 33.0406 75.7017 33.0406C75.077 33.0406 74.5861 32.8393 74.2514 32.4591C73.9168 32.0789 73.7383 31.5197 73.7383 30.8264C73.7383 30.133 73.9168 29.5963 74.2514 29.216C74.5861 28.8358 75.077 28.6345 75.7017 28.6345C76.3041 28.6345 76.7949 28.8358 77.1296 29.216C77.5089 29.641 77.6651 30.1778 77.6651 30.8488ZM74.2737 30.8488C74.2737 31.4303 74.4076 31.8776 74.653 32.1684C74.8985 32.4591 75.2554 32.6157 75.724 32.6157C76.1925 32.6157 76.5495 32.4591 76.7949 32.1684C77.0403 31.8776 77.1519 31.4303 77.1519 30.8488C77.1519 30.2672 77.0403 29.8423 76.7949 29.5515C76.5495 29.2608 76.1925 29.1042 75.724 29.1042C75.2554 29.1042 74.8985 29.2608 74.653 29.5515C74.4076 29.8423 74.2737 30.2896 74.2737 30.8488Z" fill="white"/>
<path d="M79.1373 31.2289V32.9958H78.6465V28.7239H79.8067C80.3198 28.7239 80.7214 28.8133 80.9668 29.0146C81.2123 29.2159 81.3461 29.5067 81.3461 29.9316C81.3461 30.4908 81.0561 30.871 80.4983 31.0723L81.6585 32.9958H81.0784L80.0521 31.2289H79.1373ZM79.1373 30.8039H79.8067C80.1636 30.8039 80.4091 30.7368 80.5876 30.6026C80.7661 30.4684 80.833 30.2448 80.833 29.9764C80.833 29.6856 80.7437 29.4843 80.5876 29.3725C80.4314 29.2383 80.1636 29.1936 79.7844 29.1936H79.1373V30.8039Z" fill="white"/>
<path d="M85.4293 32.9958H84.8492L83.2874 30.9158L82.8412 31.3183V32.9958H82.3503V28.7239H82.8412V30.8487L84.7823 28.7239H85.3624L83.6444 30.5803L85.4293 32.9958Z" fill="white"/>
<path d="M89.4231 29.1041C88.9546 29.1041 88.5753 29.2607 88.3076 29.5738C88.0398 29.8869 87.906 30.3119 87.906 30.8487C87.906 31.4078 88.0398 31.8328 88.3076 32.1459C88.5753 32.459 88.9323 32.5932 89.4231 32.5932C89.7132 32.5932 90.0702 32.5485 90.4495 32.4367V32.8616C90.1594 32.9734 89.7801 33.0182 89.3562 33.0182C88.7315 33.0182 88.2406 32.8169 87.906 32.4367C87.5713 32.0564 87.3928 31.5197 87.3928 30.8039C87.3928 30.3566 87.4821 29.9764 87.6382 29.6409C87.7944 29.3054 88.0398 29.0594 88.3522 28.8805C88.6646 28.7015 89.0215 28.6121 89.4454 28.6121C89.8917 28.6121 90.2933 28.7015 90.6279 28.8581L90.4271 29.283C90.0702 29.1936 89.7578 29.1041 89.4231 29.1041Z" fill="white"/>
<path d="M95.0899 30.8485C95.0899 31.5419 94.9114 32.0787 94.5767 32.4589C94.242 32.8615 93.7512 33.0404 93.1265 33.0404C92.5018 33.0404 92.0109 32.8391 91.6762 32.4589C91.3416 32.0787 91.1631 31.5195 91.1631 30.8262C91.1631 30.1328 91.3416 29.596 91.6762 29.2158C92.0109 28.8356 92.5018 28.6343 93.1265 28.6343C93.7289 28.6343 94.2197 28.8356 94.5544 29.2158C94.9114 29.6408 95.0899 30.1775 95.0899 30.8485ZM91.6986 30.8485C91.6986 31.43 91.8324 31.8774 92.0778 32.1681C92.3233 32.4589 92.6802 32.6154 93.1488 32.6154C93.6173 32.6154 93.9743 32.4589 94.2197 32.1681C94.4651 31.8774 94.5767 31.43 94.5767 30.8485C94.5767 30.267 94.4651 29.842 94.2197 29.5513C93.9743 29.2605 93.6173 29.104 93.1488 29.104C92.6802 29.104 92.3233 29.2605 92.0778 29.5513C91.8101 29.842 91.6986 30.2894 91.6986 30.8485Z" fill="white"/>
<path d="M99.7532 30.8488C99.7532 31.5421 99.5747 32.0789 99.24 32.4591C98.9054 32.8617 98.4145 33.0406 97.7898 33.0406C97.1651 33.0406 96.6742 32.8393 96.3396 32.4591C96.0049 32.0789 95.8264 31.5197 95.8264 30.8264C95.8264 30.133 96.0049 29.5963 96.3396 29.216C96.6742 28.8358 97.1651 28.6345 97.7898 28.6345C98.3922 28.6345 98.8831 28.8358 99.2177 29.216C99.597 29.641 99.7532 30.1778 99.7532 30.8488ZM96.3619 30.8488C96.3619 31.4303 96.4958 31.8776 96.7412 32.1684C96.9866 32.4591 97.3436 32.6157 97.8121 32.6157C98.2806 32.6157 98.6376 32.4591 98.8831 32.1684C99.1285 31.8776 99.24 31.4303 99.24 30.8488C99.24 30.2672 99.1285 29.8423 98.8831 29.5515C98.6376 29.2608 98.2806 29.1042 97.8121 29.1042C97.3436 29.1042 96.9866 29.2608 96.7412 29.5515C96.4958 29.8423 96.3619 30.2896 96.3619 30.8488Z" fill="white"/>
<path d="M101.226 31.2289V32.9958H100.735V28.7239H101.896C102.409 28.7239 102.81 28.8133 103.056 29.0146C103.301 29.2159 103.435 29.5067 103.435 29.9316C103.435 30.4908 103.145 30.871 102.587 31.0723L103.747 32.9958H103.167L102.141 31.2289H101.226ZM101.226 30.8039H101.896C102.253 30.8039 102.498 30.7368 102.676 30.6026C102.855 30.4684 102.922 30.2448 102.922 29.9764C102.922 29.6856 102.833 29.4843 102.676 29.3725C102.52 29.2607 102.253 29.1936 101.873 29.1936H101.226V30.8039Z" fill="white"/>
<path d="M107.852 30.8263C107.852 31.542 107.651 32.0788 107.272 32.4367C106.893 32.8169 106.335 32.9958 105.621 32.9958H104.438V28.7239H105.755C106.424 28.7239 106.937 28.9028 107.294 29.283C107.651 29.6409 107.852 30.1553 107.852 30.8263ZM107.317 30.8487C107.317 30.2895 107.183 29.8645 106.893 29.5962C106.625 29.3054 106.201 29.1712 105.643 29.1712H104.929V32.5932H105.532C106.112 32.5932 106.558 32.4367 106.87 32.1459C107.16 31.8328 107.317 31.4078 107.317 30.8487Z" fill="white"/>
<path d="M108.812 32.9958V28.7239H109.302V32.9958H108.812Z" fill="white"/>
<path d="M113.831 32.9958H113.273L110.953 29.4172H110.931C110.953 29.8422 110.975 30.2224 110.975 30.5803V32.9958H110.507V28.7239H111.065L113.385 32.3025H113.407C113.407 32.2577 113.385 32.0788 113.385 31.788C113.363 31.4973 113.363 31.296 113.363 31.1841V28.7239H113.831V32.9958Z" fill="white"/>
<path d="M117.692 32.996L117.156 31.6316H115.438L114.903 32.996H114.412L116.108 28.7017H116.532L118.205 32.996H117.692ZM117 31.1843L116.509 29.8647C116.442 29.6858 116.375 29.4845 116.309 29.2385C116.264 29.4174 116.197 29.641 116.13 29.8647L115.639 31.1843H117Z" fill="white"/>
<path d="M120.123 32.9958H119.632V29.1712H118.271V28.7239H121.462V29.1712H120.101V32.9958H120.123Z" fill="white"/>
<path d="M122.131 32.9958V28.7239H122.622V32.9958H122.131Z" fill="white"/>
<path d="M127.509 30.8485C127.509 31.5419 127.33 32.0787 126.996 32.4589C126.661 32.8615 126.17 33.0404 125.545 33.0404C124.921 33.0404 124.43 32.8391 124.095 32.4589C123.761 32.0787 123.582 31.5195 123.582 30.8262C123.582 30.1328 123.761 29.596 124.095 29.2158C124.43 28.8356 124.921 28.6343 125.545 28.6343C126.148 28.6343 126.639 28.8356 126.973 29.2158C127.353 29.6408 127.509 30.1775 127.509 30.8485ZM124.117 30.8485C124.117 31.43 124.251 31.8774 124.497 32.1681C124.742 32.4589 125.099 32.6154 125.568 32.6154C126.036 32.6154 126.393 32.4589 126.639 32.1681C126.884 31.8774 126.996 31.43 126.996 30.8485C126.996 30.267 126.884 29.842 126.639 29.5513C126.393 29.2605 126.036 29.104 125.568 29.104C125.099 29.104 124.742 29.2605 124.497 29.5513C124.251 29.842 124.117 30.2894 124.117 30.8485Z" fill="white"/>
<path d="M131.814 32.9958H131.257L128.936 29.4172H128.914C128.936 29.8422 128.959 30.2224 128.959 30.5803V32.9958H128.49V28.7239H129.048L131.368 32.3025H131.39C131.39 32.2577 131.368 32.0788 131.368 31.788C131.346 31.4973 131.346 31.296 131.346 31.1841V28.7239H131.814V32.9958Z" fill="white"/>
<path d="M136.41 29.1041C135.942 29.1041 135.562 29.2607 135.295 29.5738C135.027 29.8869 134.893 30.3119 134.893 30.8487C134.893 31.4078 135.027 31.8328 135.295 32.1459C135.562 32.459 135.919 32.5932 136.41 32.5932C136.7 32.5932 137.057 32.5485 137.437 32.4367V32.8616C137.146 32.9734 136.767 33.0182 136.343 33.0182C135.719 33.0182 135.228 32.8169 134.893 32.4367C134.558 32.0564 134.38 31.5197 134.38 30.8039C134.38 30.3566 134.469 29.9764 134.625 29.6409C134.781 29.3054 135.027 29.0594 135.339 28.8805C135.652 28.7015 136.009 28.6121 136.433 28.6121C136.879 28.6121 137.28 28.7015 137.615 28.8581L137.414 29.283C137.057 29.1936 136.723 29.1041 136.41 29.1041Z" fill="white"/>
<path d="M140.739 32.9958H138.352V28.7239H140.739V29.1712H138.865V30.5579H140.627V31.0052H138.865V32.5708H140.739V32.9958Z" fill="white"/>
<path d="M145.045 32.9958H144.487L142.167 29.4172H142.122C142.144 29.8422 142.167 30.2224 142.167 30.5803V32.9958H141.698V28.7239H142.256L144.576 32.3025H144.599C144.599 32.2577 144.576 32.0788 144.576 31.788C144.554 31.4973 144.554 31.296 144.554 31.1841V28.7239H145.023V32.9958H145.045Z" fill="white"/>
<path d="M147.544 32.9958H147.031V29.1712H145.692V28.7239H148.883V29.1712H147.522V32.9958H147.544Z" fill="white"/>
<path d="M150.043 31.2289V32.9958H149.552V28.7239H150.712C151.225 28.7239 151.627 28.8133 151.872 29.0146C152.118 29.2159 152.251 29.5067 152.251 29.9316C152.251 30.4908 151.961 30.871 151.404 31.0723L152.564 32.9958H151.984L150.957 31.2289H150.043ZM150.043 30.8039H150.712C151.069 30.8039 151.314 30.7368 151.493 30.6026C151.671 30.4684 151.738 30.2448 151.738 29.9764C151.738 29.6856 151.649 29.4843 151.493 29.3725C151.337 29.2607 151.069 29.1936 150.69 29.1936H150.043V30.8039Z" fill="white"/>
<path d="M155.643 32.9958H153.256V28.7239H155.643V29.1712H153.769V30.5579H155.532V31.0052H153.769V32.5708H155.643V32.9958Z" fill="white"/>
</svg>
