<svg width="78" height="42" viewBox="0 0 78 42" fill="none" xmlns="http://www.w3.org/2000/svg">
<path d="M38.4508 27.5172C38.349 27.4894 36.7821 27.0864 35.117 27.0864C31.9645 27.0864 30.0665 28.7841 30.0665 31.3123C30.0665 33.5502 31.6543 34.6663 33.5599 35.2666C33.7711 35.3361 34.0824 35.4334 34.2897 35.5018C35.138 35.7679 35.815 36.1634 35.815 36.8483C35.815 37.6144 35.0325 38.1103 33.3313 38.1103C31.8363 38.1103 30.4031 37.6839 30.1012 37.6079V40.7184C30.2694 40.7541 31.9728 41.0875 33.7925 41.0875C36.4098 41.0875 39.4038 39.947 39.4038 36.5516C39.4038 34.9047 38.3927 33.3885 36.1729 32.6848L35.2293 32.3851C34.6663 32.208 33.6614 31.9209 33.6614 31.098C33.6614 30.448 34.406 29.9902 35.7771 29.9902C36.9601 29.9902 38.3999 30.3867 38.4508 30.4026V27.5172ZM67.3545 34.0872C67.3545 36.0539 65.844 37.645 63.8171 37.645C61.788 37.645 60.2814 36.0539 60.2814 34.0872C60.2814 32.1244 61.788 30.5326 63.8171 30.5326C65.844 30.5326 67.3545 32.1244 67.3545 34.0872ZM63.8171 27.0907C59.6484 27.0907 56.6588 30.2265 56.6588 34.0872C56.6588 37.954 59.6484 41.0875 63.8171 41.0875C67.9854 41.0875 70.9794 37.954 70.9794 34.0872C70.9794 30.2265 67.9854 27.0907 63.8171 27.0907ZM25.48 40.847H22.0596V27.3302H25.48" fill="white"/>
<path d="M17.3586 27.575C17.0372 27.4799 15.8491 27.0906 14.24 27.0906C10.0778 27.0906 7.02246 30.0502 7.02246 34.087C7.02246 38.4421 10.3952 41.0874 14.24 41.0874C15.7675 41.0874 16.9335 40.7265 17.3586 40.6062V36.9778C17.2116 37.0592 16.0936 37.6952 14.4852 37.6952C12.2066 37.6952 10.7369 36.0958 10.7369 34.087C10.7369 32.0169 12.2701 30.4816 14.4852 30.4816C16.121 30.4816 17.221 31.1317 17.3586 31.2034" fill="white"/>
<path d="M53.0578 27.575C52.7364 27.4799 51.5483 27.0906 49.9392 27.0906C45.777 27.0906 42.7217 30.0502 42.7217 34.087C42.7217 38.4421 46.0945 41.0874 49.9392 41.0874C51.4667 41.0874 52.6328 40.7265 53.0578 40.6062V36.9778C52.9108 37.0592 51.7928 37.6952 50.1844 37.6952C47.9058 37.6952 46.4361 36.0958 46.4361 34.087C46.4361 32.0169 47.9694 30.4816 50.1844 30.4816C51.8203 30.4816 52.9202 31.1317 53.0578 31.2034" fill="white"/>
<path d="M22.0498 1.77465C22.0498 0.842974 21.2868 0.0874023 20.3515 0.0874023C19.4166 0.0874023 18.6536 0.842974 18.6536 1.77465V19.724C18.6538 20.1729 18.8328 20.6034 19.1512 20.9208C19.4696 21.2381 19.9014 21.4164 20.3515 21.4163C20.5745 21.4164 20.7952 21.3727 21.0012 21.2877C21.2072 21.2027 21.3944 21.078 21.5521 20.9209C21.7098 20.7638 21.8349 20.5772 21.9203 20.3718C22.0057 20.1664 22.0498 19.9463 22.0498 19.724V1.77465ZM12.7227 8.14623C12.7227 7.21491 11.96 6.45826 11.0247 6.45826C10.0895 6.45826 9.32679 7.21491 9.32679 8.14623V16.352C9.32699 16.8009 9.50597 17.2314 9.82439 17.5488C10.1428 17.8661 10.5746 18.0444 11.0247 18.0443C11.4749 18.0444 11.9067 17.8661 12.2251 17.5488C12.5435 17.2314 12.7225 16.8009 12.7227 16.352V8.14623ZM3.3959 12.8035C3.3959 11.8719 2.63323 11.1167 1.69795 11.1167C0.763752 11.1167 0 11.8719 0 12.8035V16.352C0.00916292 16.7951 0.192079 17.2169 0.509508 17.527C0.826937 17.8371 1.25359 18.0108 1.69795 18.0108C2.1423 18.0108 2.56896 17.8371 2.88639 17.527C3.20382 17.2169 3.38673 16.7951 3.3959 16.352" fill="white"/>
<path d="M18.6533 1.77465C18.6533 0.842974 19.4163 0.0874023 20.3516 0.0874023C21.2865 0.0874023 22.0495 0.842974 22.0495 1.77465V19.724C22.0493 20.1729 21.8704 20.6034 21.5519 20.9208C21.2335 21.2381 20.8018 21.4164 20.3516 21.4163C20.1287 21.4164 19.9079 21.3727 19.7019 21.2877C19.4959 21.2027 19.3087 21.078 19.151 20.9209C18.9933 20.7638 18.8682 20.5772 18.7828 20.3718C18.6974 20.1664 18.6534 19.9463 18.6533 19.724V1.77465ZM27.9804 8.14623C27.9804 7.21491 28.7431 6.45826 29.6784 6.45826C30.6137 6.45826 31.3763 7.21491 31.3763 8.14623V16.352C31.3761 16.8009 31.1972 17.2314 30.8787 17.5488C30.5603 17.8661 30.1285 18.0444 29.6784 18.0443C29.2282 18.0444 28.7964 17.8661 28.478 17.5488C28.1596 17.2314 27.9806 16.8009 27.9804 16.352V8.14623ZM37.3072 12.8035C37.3072 11.8719 38.0699 11.1167 39.0052 11.1167C39.9394 11.1167 40.7031 11.8719 40.7031 12.8035V16.352C40.694 16.7951 40.511 17.2169 40.1936 17.527C39.8762 17.8371 39.4495 18.0108 39.0052 18.0108C38.5608 18.0108 38.1342 17.8371 37.8167 17.527C37.4993 17.2169 37.3164 16.7951 37.3072 16.352" fill="white"/>
<path d="M55.9502 1.77465C55.9502 0.842974 56.7132 0.0874023 57.6485 0.0874023C58.5834 0.0874023 59.3464 0.842974 59.3464 1.77465V19.724C59.3462 20.1729 59.1672 20.6034 58.8488 20.9208C58.5304 21.2381 58.0986 21.4164 57.6485 21.4163C57.4255 21.4164 57.2048 21.3727 56.9988 21.2877C56.7928 21.2027 56.6056 21.078 56.4479 20.9209C56.2902 20.7638 56.1651 20.5772 56.0797 20.3718C55.9943 20.1664 55.9502 19.9463 55.9502 19.724V1.77465ZM65.2773 8.14623C65.2773 7.21491 66.04 6.45826 66.9753 6.45826C67.9105 6.45826 68.6732 7.21491 68.6732 8.14623V16.352C68.673 16.8009 68.494 17.2314 68.1756 17.5488C67.8572 17.8661 67.4254 18.0444 66.9753 18.0443C66.5251 18.0444 66.0933 17.8661 65.7749 17.5488C65.4565 17.2314 65.2775 16.8009 65.2773 16.352V8.14623ZM74.6041 12.8035C74.6041 11.8719 75.3668 11.1167 76.3021 11.1167C77.2362 11.1167 78 11.8719 78 12.8035V16.352C77.9908 16.7951 77.8079 17.2169 77.4905 17.527C77.1731 17.8371 76.7464 18.0108 76.3021 18.0108C75.8577 18.0108 75.431 17.8371 75.1136 17.527C74.7962 17.2169 74.6133 16.7951 74.6041 16.352" fill="white"/>
<path d="M59.3467 1.77465C59.3467 0.842974 58.5837 0.0874023 57.6484 0.0874023C56.7135 0.0874023 55.9505 0.842974 55.9505 1.77465V19.724C55.9507 20.1729 56.1296 20.6034 56.4481 20.9208C56.7665 21.2381 57.1982 21.4164 57.6484 21.4163C57.8713 21.4164 58.0921 21.3727 58.2981 21.2877C58.5041 21.2027 58.6913 21.078 58.849 20.9209C59.0067 20.7638 59.1318 20.5772 59.2172 20.3718C59.3026 20.1664 59.3466 19.9463 59.3467 19.724V1.77465ZM50.0196 8.14623C50.0196 7.21491 49.2569 6.45826 48.3216 6.45826C47.3863 6.45826 46.6237 7.21491 46.6237 8.14623V16.352C46.6239 16.8009 46.8028 17.2314 47.1213 17.5488C47.4397 17.8661 47.8715 18.0444 48.3216 18.0443C48.7718 18.0444 49.2036 17.8661 49.522 17.5488C49.8404 17.2314 50.0194 16.8009 50.0196 16.352V8.14623ZM40.6928 12.8035C40.6928 11.8719 39.9301 11.1167 38.9948 11.1167C38.0606 11.1167 37.2969 11.8719 37.2969 12.8035V16.352C37.306 16.7951 37.489 17.2169 37.8064 17.527C38.1238 17.8371 38.5505 18.0108 38.9948 18.0108C39.4392 18.0108 39.8658 17.8371 40.1833 17.527C40.5007 17.2169 40.6836 16.7951 40.6928 16.352" fill="white"/>
</svg>
