<svg width="93" height="26" viewBox="0 0 93 26" fill="none" xmlns="http://www.w3.org/2000/svg">
<path d="M45.6143 20.167H46.1856L49.1291 24.1598V20.167H49.6341V25.0093H49.1549L46.1192 20.8987V25.0093H45.6143V20.167ZM50.8892 20.167H54.1442V20.6574H51.4136V22.2577H54.0778V22.7418H51.4136V24.5387H54.1709V25.0093H50.8892L50.8892 20.167ZM56.7813 20.6572H54.9345V20.1667H59.1534V20.6572H57.3066V25.0098H56.7813V20.6572ZM59.7905 20.167H60.3287L61.6236 24.1725L62.946 20.167H63.3975L64.7127 24.1725L66.0149 20.167H66.5198L64.9385 25.0419H64.4877L63.1588 21.0101L61.8364 25.0419H61.3783L59.7905 20.167Z" fill="white"/>
<path d="M71.4231 22.5906C71.4231 21.2833 70.8056 20.5779 69.463 20.5779C68.1276 20.5779 67.5166 21.2833 67.5166 22.5906C67.5166 23.9043 68.1276 24.6105 69.463 24.6105C70.8056 24.6105 71.4231 23.9043 71.4231 22.5906ZM66.9922 22.5843C66.9922 20.859 67.8889 20.0883 69.463 20.0883C71.0444 20.0883 71.9476 20.859 71.9476 22.5843C71.9476 24.3159 71.0444 25.0874 69.463 25.0874C67.8889 25.0874 66.9922 24.3159 66.9922 22.5843ZM75.1498 22.5647C75.8474 22.5647 76.2788 22.3553 76.2788 21.591C76.2788 20.8394 75.8604 20.6435 75.1304 20.6435H73.5288V22.5647H75.1498ZM75.0041 23.0352H73.5288V25.0089H73.0173V20.1666H75.1433C76.2861 20.1666 76.804 20.6173 76.804 21.5782C76.804 22.4142 76.3986 22.9046 75.5415 23.0153L76.7304 25.0089H76.1728L75.0041 23.0352ZM79.4146 22.4405L78.4313 23.4987V25.009H77.9198V20.1667H78.4313V22.8394L80.9223 20.1667H81.5269L79.7602 22.068L81.7664 25.009H81.1748L79.4146 22.4405ZM82.2048 24.5187L82.4702 24.127C83.061 24.4924 83.6397 24.6166 84.2304 24.6166C85.2469 24.6166 85.6985 24.3356 85.6985 23.6692C85.6985 22.9829 85.1142 22.885 84.2304 22.7281C83.1678 22.545 82.45 22.3682 82.45 21.389C82.45 20.4535 83.061 20.088 84.2304 20.088C85.0017 20.088 85.5528 20.2576 85.9446 20.5196L85.6653 20.9376C85.3133 20.7091 84.7889 20.5586 84.2304 20.5586C83.3475 20.5586 82.9687 20.8006 82.9687 21.3754C82.9687 21.9901 83.4802 22.1071 84.3575 22.2639C85.4331 22.4534 86.21 22.6103 86.21 23.6493C86.21 24.6102 85.586 25.0736 84.2442 25.0736C83.5005 25.0736 82.8287 24.924 82.2048 24.5187Z" fill="white"/>
<path d="M91.3567 0.151976C84.4363 0.151976 84.1425 3.20205 84.1425 7.50532V18.0697H85.7741V7.50532C85.7741 4.26175 85.6438 1.66072 91.3567 1.66072C91.9685 1.66072 92.5116 1.69254 93.0004 1.74907V0.219667C92.4962 0.175879 91.9523 0.151976 91.3567 0.151976ZM10.6436 11.1979V0.504574H12.3083V11.2297C12.3083 14.3125 12.2759 16.9136 18.0204 16.9136C23.7324 16.9136 23.6021 14.3125 23.6021 11.0689V0.504574H25.2345V11.0689C25.2345 15.3722 24.9399 18.4231 18.0204 18.4231C11.0676 18.4231 10.6436 15.3722 10.6436 11.1979ZM42.5863 7.37636V18.0697H40.9216V7.34453C40.9216 4.26178 40.9539 1.66072 35.2095 1.66072C29.4966 1.66072 29.6277 4.26175 29.6277 7.50532V18.0697H27.9962V7.50532C27.9962 3.20205 28.29 0.151976 35.2095 0.151976C42.1622 0.151976 42.5863 3.20206 42.5863 7.37636ZM45.6157 0.53339H47.2133V18.0658H45.6157V0.53339ZM58.5725 10.4012C61.4552 10.4012 62.8877 9.01911 62.8877 6.22696C62.8877 3.4364 61.3419 2.11075 58.5013 2.11075H51.8027V10.4012H58.5725ZM50.2051 0.537569H58.5482C62.6854 0.537569 64.5614 2.56061 64.5614 6.15689C64.5614 9.77705 62.7097 11.9776 58.5256 11.9776H51.8027V18.0699H50.2051V0.537569Z" fill="white"/>
<path d="M68.0534 8.05062H80.1954C80.0327 4.55068 79.8037 1.56424 74.6136 1.56424C69.6202 1.56424 68.2493 4.22982 68.0534 8.05062ZM66.4211 9.23928C66.4211 4.06978 67.9231 0.0873661 74.6476 0.0873661C81.5996 0.0873661 81.8278 4.67885 81.7954 9.52749H68.021C68.0534 13.7989 69.1298 16.978 74.7771 16.978C77.7805 16.978 79.1514 16.1747 80.6203 15.1158L81.5332 16.3036C79.9016 17.4915 77.9763 18.4231 74.7771 18.4231C67.7273 18.4231 66.4211 14.4088 66.4211 9.23928ZM0.620735 21.874C7.54029 21.874 7.83487 18.8239 7.83487 14.5206V0.504984H6.20251V14.5206C6.20251 17.7634 6.3328 20.3653 0.620735 20.3653C0.404651 20.3653 0.199898 20.3597 0 20.3518V21.8661C0.200707 21.8708 0.407079 21.874 0.620735 21.874Z" fill="white"/>
</svg>
