<svg width="101" height="23" viewBox="0 0 101 23" fill="none" xmlns="http://www.w3.org/2000/svg">
<g clip-path="url(#clip0_215_3497)">
<path d="M8.28941 6.00495H14.5555L13.586 9.68995C13.4527 10.1816 13.1605 10.6163 12.7542 10.9274C12.3502 11.2383 11.8514 11.4032 11.3402 11.3949H8.42804C7.79392 11.3862 7.17533 11.5897 6.67207 11.9724C6.15646 12.3683 5.78235 12.9177 5.60462 13.5399C5.47624 13.9972 5.46197 14.4785 5.56303 14.9424C5.65588 15.3656 5.83897 15.7641 6.09999 16.1112C6.36446 16.455 6.70625 16.7328 7.09812 16.9224C7.51157 17.1257 7.96754 17.2293 8.42897 17.2249H10.2034C10.3619 17.2222 10.5187 17.257 10.6609 17.3263C10.8032 17.3957 10.9267 17.4976 11.0213 17.6237C11.125 17.7455 11.1963 17.8911 11.2286 18.0472C11.2608 18.2034 11.2532 18.365 11.2062 18.5174L10.0971 22.5874H8.15633C6.87887 22.6001 5.61768 22.3027 4.48264 21.7212C3.39263 21.1694 2.43919 20.3852 1.69064 19.4249C0.948467 18.4656 0.432162 17.3537 0.179574 16.1708C-0.0883953 14.928 -0.0548182 13.6398 0.277539 12.4124L0.388443 11.9999C0.857449 10.277 1.88501 8.75498 3.31261 7.6687C4.0127 7.14219 4.79255 6.72915 5.6231 6.44495C6.48047 6.1501 7.38198 6.00133 8.28941 6.00495Z" fill="white"/>
<path d="M11.4502 22.5875L16.9131 2.29255C17.0464 1.80089 17.3386 1.36616 17.7449 1.05505C18.1487 0.744425 18.6471 0.579531 19.158 0.587546H24.9537C26.2311 0.574893 27.4923 0.872281 28.6273 1.4538C29.7162 2.00481 30.6679 2.78908 31.4136 3.74983C32.1593 4.71058 32.6802 5.82377 32.9387 7.0088C33.2162 8.25134 33.1781 9.54281 32.8278 10.7671L32.7169 11.1796C32.4832 12.0453 32.1086 12.8674 31.6079 13.6134C30.8671 14.7195 29.8614 15.6262 28.6808 16.2525C27.5002 16.8787 26.1816 17.205 24.8427 17.2021H19.8244L20.8225 13.4896C20.9612 13.008 21.2529 12.5836 21.6543 12.2796C22.0583 11.9688 22.5571 11.8039 23.0683 11.8121H24.6764C25.3241 11.8128 25.9536 11.5997 26.4656 11.2063C26.9777 10.813 27.3431 10.2618 27.5044 9.63963C27.6325 9.19938 27.6452 8.73403 27.5414 8.28755C27.4474 7.86412 27.2631 7.46559 27.0008 7.1188C26.7344 6.77329 26.3933 6.49139 26.0026 6.2938C25.5932 6.08267 25.1379 5.97409 24.6764 5.97755H21.5711L17.5231 20.91C17.3844 21.3917 17.0927 21.816 16.6913 22.12C16.2963 22.4278 15.8073 22.5927 15.305 22.5875H11.4502Z" fill="white"/>
<path d="M46.0255 11.7526L46.1087 11.4501C46.1277 11.388 46.1313 11.3222 46.1192 11.2584C46.1072 11.1946 46.0798 11.1346 46.0394 11.0835C45.9974 11.0333 45.9443 10.9935 45.8841 10.9673C45.824 10.941 45.7585 10.929 45.6928 10.9322H36.6819C36.3155 10.9373 35.9535 10.8523 35.6283 10.6847C35.3249 10.5304 35.0597 10.3113 34.852 10.0431C34.6456 9.77243 34.5034 9.45909 34.4361 9.12639C34.3614 8.77159 34.3709 8.40442 34.4638 8.05389L35.0183 5.96389H47.2177C47.9415 5.95594 48.6559 6.126 49.2972 6.45889C49.9083 6.773 50.4441 7.2138 50.8683 7.75139C51.2879 8.29197 51.5815 8.91811 51.7278 9.58472C51.8838 10.2884 51.8695 11.0188 51.6862 11.716L49.4959 19.801C49.2839 20.6016 48.809 21.3092 48.1462 21.8122C47.4834 22.3152 46.6706 22.5848 45.8361 22.5785L36.8251 22.551C36.0836 22.5555 35.3512 22.3884 34.6862 22.063C34.0212 21.7376 33.4419 21.2628 32.9943 20.6764C32.5631 20.1051 32.2606 19.4486 32.1071 18.7514C31.9409 18.0203 31.96 17.2597 32.1626 16.5376L32.2735 16.1251C32.4017 15.6133 32.6225 15.1288 32.925 14.6951C33.2191 14.2662 33.5793 13.8857 33.9925 13.5676C34.4028 13.2537 34.8616 13.0077 35.351 12.8389C35.859 12.6632 36.3935 12.5749 36.9314 12.5776H44.5006L43.9461 14.6401C43.8067 15.1215 43.5151 15.5456 43.1143 15.8501C42.7192 16.1576 42.2302 16.3225 41.728 16.3176H38.3454C38.0306 16.3176 37.8273 16.4735 37.7355 16.7851C37.7063 16.8765 37.7012 16.9737 37.7206 17.0676C37.74 17.1614 37.7833 17.2488 37.8464 17.3214C37.9054 17.3962 37.9813 17.4564 38.068 17.497C38.1546 17.5375 38.2496 17.5575 38.3454 17.5551H43.8075C43.9966 17.5593 44.1818 17.5013 44.3342 17.3901C44.4792 17.2833 44.5782 17.1262 44.6115 16.9501L44.667 16.7301L46.0255 11.7526Z" fill="white"/>
<path d="M62.1613 6.00487C63.4463 5.99078 64.7153 6.28814 65.8581 6.87112C66.9459 7.4223 67.8976 8.20479 68.6455 9.16279C69.3898 10.1275 69.9059 11.246 70.1556 12.4353C70.4229 13.6825 70.3804 14.9755 70.0318 16.2028L68.6455 21.3728C68.5601 21.7277 68.3484 22.0402 68.0494 22.2528C67.7556 22.4695 67.3988 22.5853 67.0327 22.5828H64.0476C63.8876 22.5865 63.729 22.5527 63.5847 22.4841C63.4404 22.4156 63.3144 22.3142 63.2171 22.1882C63.1197 22.0623 63.0537 21.9153 63.0244 21.7593C62.9951 21.6032 63.0034 21.4426 63.0485 21.2903L64.7121 15.0478C64.8409 14.6094 64.8552 14.1457 64.7537 13.7003C64.6596 13.2771 64.4756 12.8786 64.2139 12.5315C63.947 12.1866 63.6061 11.9048 63.2158 11.7065C62.8049 11.4949 62.3479 11.3863 61.885 11.3903H58.7796L56.0884 21.3774C56.004 21.7328 55.7921 22.0456 55.4923 22.2574C55.1909 22.4762 54.826 22.592 54.4526 22.5874H51.4859C51.3275 22.5901 51.1708 22.5553 51.0288 22.486C50.8867 22.4166 50.7633 22.3147 50.6689 22.1886C50.5654 22.0667 50.4943 21.9211 50.462 21.765C50.4298 21.6089 50.4373 21.4473 50.484 21.2949L54.5875 6.00487H62.1613Z" fill="white"/>
<path d="M78.491 11.2436C78.2698 11.4168 78.1057 11.6513 78.0196 11.9174L76.7719 16.5924C76.7377 16.7151 76.7326 16.844 76.7569 16.969C76.7813 17.094 76.8345 17.2117 76.9124 17.3129C76.9902 17.4141 77.0907 17.496 77.2058 17.5523C77.3209 17.6086 77.4476 17.6377 77.576 17.6374H89.0545L88.1692 20.9099C88.0304 21.3915 87.7387 21.8159 87.3374 22.1199C86.9424 22.4276 86.4533 22.5925 85.9511 22.5874H75.4965C74.7744 22.5957 74.061 22.4306 73.4171 22.1061C72.8019 21.7982 72.2648 21.3564 71.846 20.8136C71.4281 20.2686 71.1348 19.6399 70.9865 18.9711C70.8291 18.2739 70.8529 17.5484 71.0558 16.8628L72.7471 10.6203C72.9265 9.95378 73.217 9.32173 73.6066 8.75028C74.3609 7.62929 75.4645 6.78414 76.7488 6.34403C77.4034 6.11513 78.0926 5.99887 78.7867 6.00028H86.1895C86.9133 5.99213 87.6278 6.16221 88.269 6.49528C88.8802 6.80915 89.4161 7.24999 89.8401 7.78778C90.2607 8.32953 90.55 8.95994 90.6857 9.63028C90.8335 10.3308 90.8145 11.0558 90.6303 11.7478L90.1312 13.6178C89.9307 14.4187 89.4572 15.1262 88.7911 15.6207C88.1349 16.1167 87.3306 16.3813 86.5056 16.3724H78.1324L78.6869 14.3374C78.8079 13.8549 79.0916 13.4279 79.4909 13.1274C79.8949 12.8165 80.3937 12.6516 80.905 12.6599H84.2875C84.6017 12.6599 84.8051 12.504 84.8975 12.1924L85.0084 11.7799C85.0334 11.6866 85.0367 11.5888 85.0179 11.4941C84.9991 11.3994 84.9587 11.3102 84.8999 11.2333C84.8411 11.1563 84.7653 11.0938 84.6784 11.0503C84.5915 11.0068 84.4958 10.9836 84.3984 10.9824H79.2414C78.9682 10.9802 78.7029 11.0726 78.491 11.2436Z" fill="white"/>
<path d="M89.0266 22.5876L94.5995 1.82511C94.6852 1.46725 94.8953 1.1508 95.1929 0.931356C95.4916 0.703891 95.8588 0.582803 96.2354 0.587606H99.202C99.3648 0.582817 99.5263 0.616476 99.6733 0.685808C99.8204 0.75514 99.9487 0.858156 100.048 0.986356C100.151 1.10825 100.222 1.25386 100.255 1.40995C100.287 1.56604 100.279 1.72765 100.233 1.88011L96.0736 17.1976C95.8794 17.9829 95.5461 18.7278 95.0893 19.3976C94.6491 20.0439 94.106 20.6151 93.4812 21.0889C92.8547 21.56 92.1578 21.9312 91.4157 22.1889C90.6482 22.4565 89.8401 22.5914 89.0266 22.5876Z" fill="white"/>
</g>
<defs>
<clipPath id="clip0_215_3497">
<rect width="101" height="22" fill="white" transform="translate(0 0.587402)"/>
</clipPath>
</defs>
</svg>
