<svg width="46" height="47" viewBox="0 0 46 47" fill="none" xmlns="http://www.w3.org/2000/svg">
<g clip-path="url(#clip0_215_3492)">
<path d="M23.064 0.587038L18.1154 14.4618L21.4794 14.4629C23.9027 14.4636 24.9339 16.3743 24.1708 18.514L19.2502 32.3101H14.2987L19.7125 17.1298H17.1631L11.7498 32.3101H6.75556L17.8636 1.16246C7.63416 3.49613 0 12.6493 0 23.5861C0 34.3526 7.39772 43.3899 17.3871 45.8956L28.6097 14.3845H36.7374C38.4185 14.3845 40.5328 15.518 39.6192 18.0979L35.0558 30.9832C34.4729 32.6291 33.0873 32.9627 31.9835 32.9627H26.987L22.1409 46.5693C22.4262 46.5797 22.7121 46.5869 22.9998 46.5869C35.7023 46.5869 45.9998 36.2896 45.9998 23.5865C45.9998 10.9049 35.7368 0.621415 23.0633 0.586914L23.064 0.587038ZM32.6389 17.0926L27.9253 30.3243H30.4354L35.1499 17.0926H32.6389Z" fill="white"/>
</g>
<defs>
<clipPath id="clip0_215_3492">
<rect width="46" height="46" fill="white" transform="translate(0 0.587402)"/>
</clipPath>
</defs>
</svg>
