<svg width="78" height="32" viewBox="0 0 78 32" fill="none" xmlns="http://www.w3.org/2000/svg">
<path d="M77.8669 19.6021V24.2325H63.1627V1.41048H68.5097V19.6011H77.8669V19.6021ZM33.4156 0.0874023L20.3868 10.0148C19.05 5.05331 14.7063 1.4098 9.35925 1.4098H0V24.2315H9.35925C14.7063 24.2315 19.3842 20.5944 20.3868 15.6332L33.4152 25.5539L46.4504 15.6332V24.2315H61.154V19.6H51.469V1.4098H46.1179V10.0081L33.7542 19.9355L31.082 17.6198L37.0978 12.9884L43.4485 8.02787L39.7728 5.05432L27.4074 14.6395L24.7354 12.3238L37.0978 3.06095L33.4232 0.0874023H33.4167H33.4156ZM5.01213 6.04124H9.02027C9.85576 6.04124 10.6746 6.22643 11.4265 6.56753C12.1785 6.90861 12.8691 7.40783 13.4539 8.028C14.0388 8.64814 14.5157 9.38809 14.8499 10.2253C15.1841 11.0625 15.3683 11.9961 15.3683 12.9883C15.3683 13.8979 15.2045 14.785 14.8964 15.6067C14.588 16.4285 14.1375 17.1827 13.5736 17.8237C13.0097 18.4644 12.3336 18.9894 11.5662 19.3566C10.7987 19.7234 9.93918 19.9289 9.02027 19.9289H5.01213V6.04134V6.04124Z" fill="white"/>
</svg>
