<svg width="190" height="32" viewBox="0 0 190 32" fill="none" xmlns="http://www.w3.org/2000/svg">
<path d="M80.1977 14.5762V16.0002H74.8612V31.3011H73.2255V16.0002H67.885V14.5762H80.1977Z" fill="white"/>
<path d="M86.3389 31.3011V14.5762H95.9557V16.0002H87.9745V21.8152H95.0926V23.2155H87.9745V29.877H96.5824V31.3011H86.3389Z" fill="white"/>
<path d="M113.1 29.877V31.3011H103.625V14.5762H105.261V29.877H113.1Z" fill="white"/>
<path d="M118.85 31.3011V14.5762H128.467V16.0002H120.486V21.8152H127.604V23.2155H120.486V29.877H129.094V31.3011H118.85Z" fill="white"/>
<path d="M142.258 31.6646C141.186 31.6646 140.184 31.4708 139.266 31.0871C138.344 30.6994 137.544 30.1377 136.862 29.398C136.18 28.6582 135.644 27.7445 135.25 26.6606C134.856 25.5727 134.659 24.3306 134.659 22.9303C134.659 21.53 134.872 20.2879 135.297 19.2C135.723 18.1122 136.286 17.2024 136.992 16.4626C137.697 15.7229 138.513 15.1652 139.443 14.7854C140.374 14.4056 141.343 14.2197 142.352 14.2197C142.979 14.2197 143.546 14.2593 144.059 14.3424C144.571 14.4215 145.02 14.5243 145.407 14.643C145.793 14.7656 146.12 14.8843 146.392 15.0069C146.664 15.1296 146.873 15.2364 147.019 15.3313L146.491 16.7554C146.089 16.5141 145.58 16.2767 144.965 16.0433C144.346 15.8099 143.582 15.6952 142.671 15.6952C141.627 15.6952 140.72 15.8732 139.944 16.2253C139.168 16.5813 138.513 17.0797 137.985 17.7206C137.457 18.3654 137.059 19.1288 136.795 20.0149C136.531 20.901 136.397 21.882 136.397 22.958C136.397 24.0696 136.527 25.0704 136.795 25.9644C137.059 26.8584 137.449 27.6179 137.962 28.2468C138.474 28.8758 139.105 29.3584 139.849 29.6946C140.594 30.0309 141.45 30.201 142.411 30.201C143.468 30.201 144.354 30.1021 145.068 29.9003C145.781 29.6986 146.321 29.4929 146.692 29.2832L147.149 30.6836C147.034 30.7627 146.845 30.8576 146.573 30.9605C146.301 31.0633 145.955 31.1741 145.541 31.2849C145.123 31.3956 144.642 31.4906 144.098 31.5618C143.539 31.629 142.932 31.6646 142.258 31.6646Z" fill="white"/>
<path d="M167.081 22.9264C167.081 24.3584 166.872 25.6203 166.454 26.716C166.036 27.8118 165.473 28.7216 164.759 29.4534C164.046 30.1852 163.218 30.7351 162.272 31.1069C161.326 31.4748 160.325 31.6607 159.265 31.6607C158.209 31.6607 157.204 31.4748 156.258 31.1069C155.312 30.7351 154.48 30.1852 153.771 29.4534C153.058 28.7216 152.494 27.8078 152.076 26.716C151.658 25.6203 151.449 24.3584 151.449 22.9264C151.449 21.4944 151.658 20.2365 152.076 19.1486C152.494 18.0608 153.058 17.1549 153.771 16.4231C154.484 15.6913 155.312 15.1415 156.258 14.7696C157.204 14.4017 158.205 14.2158 159.265 14.2158C160.321 14.2158 161.323 14.4017 162.272 14.7696C163.218 15.1415 164.046 15.6913 164.759 16.4231C165.473 17.1549 166.036 18.0648 166.454 19.1486C166.872 20.2365 167.081 21.4944 167.081 22.9264ZM165.347 22.9264C165.347 21.799 165.201 20.7903 164.913 19.8963C164.625 19.0023 164.215 18.2428 163.687 17.6138C163.159 16.9848 162.521 16.5062 161.776 16.1779C161.031 15.8495 160.191 15.6834 159.265 15.6834C158.335 15.6834 157.499 15.8495 156.755 16.1779C156.01 16.5062 155.371 16.9848 154.843 17.6138C154.315 18.2428 153.905 19.0023 153.617 19.8963C153.329 20.7903 153.184 21.799 153.184 22.9264C153.184 24.0538 153.329 25.0625 153.617 25.9565C153.905 26.8505 154.315 27.61 154.843 28.239C155.371 28.8679 156.01 29.3505 156.755 29.6868C157.499 30.023 158.335 30.1931 159.265 30.1931C160.195 30.1931 161.031 30.023 161.776 29.6868C162.521 29.3505 163.159 28.8679 163.687 28.239C164.215 27.61 164.625 26.8505 164.913 25.9565C165.205 25.0625 165.347 24.0538 165.347 22.9264Z" fill="white"/>
<path d="M180.599 28.8881C180.438 28.4846 180.209 27.9545 179.91 27.2939C179.61 26.6333 179.279 25.9134 178.909 25.1341C178.538 24.3548 178.16 23.5478 177.774 22.7211C177.387 21.8943 177.017 21.115 176.662 20.3911C176.307 19.6672 175.992 19.0304 175.72 18.4845C175.448 17.9386 175.243 17.5509 175.117 17.3254C174.908 19.3389 174.743 21.5225 174.624 23.8762C174.502 26.2338 174.396 28.7061 174.301 31.2972H172.689C172.835 28.2552 172.997 25.3437 173.182 22.5628C173.367 19.778 173.596 17.1158 173.868 14.5762H175.31C175.791 15.3792 176.307 16.3088 176.851 17.365C177.395 18.4172 177.939 19.513 178.479 20.6483C179.015 21.7836 179.539 22.8991 180.044 24.0027C180.548 25.1064 180.994 26.0993 181.38 26.9814C181.766 26.0953 182.211 25.1024 182.716 24.0027C183.22 22.8991 183.745 21.7836 184.281 20.6483C184.817 19.513 185.361 18.4212 185.908 17.365C186.452 16.3127 186.969 15.3831 187.45 14.5762H188.821C189.093 17.1197 189.322 19.7819 189.507 22.5628C189.692 25.3477 189.854 28.2591 190 31.2972H188.34C188.246 28.7061 188.135 26.2338 188.017 23.8762C187.895 21.5185 187.733 19.3349 187.524 17.3254C187.394 17.5509 187.197 17.9386 186.925 18.4845C186.653 19.0304 186.338 19.6672 185.987 20.3911C185.637 21.115 185.266 21.8904 184.88 22.7211C184.494 23.5518 184.119 24.3548 183.749 25.1341C183.378 25.9134 183.047 26.6333 182.751 27.2939C182.456 27.9545 182.227 28.4846 182.066 28.8881H180.599Z" fill="white"/>
<path d="M54.2176 23.0721L66.0968 14.583H58.3324L50.3354 20.3109V14.583H45.1565V31.3079H50.3354V25.7185L58.3324 31.3079H66.1875L54.2176 23.0721Z" fill="#4DAEEB"/>
<path d="M26.5961 0.0144618C17.8976 -0.3376 13.0695 5.8136 11.2013 10.252C10.0386 10.4023 8.46993 10.7108 6.86975 11.3517C2.43969 13.1317 0 16.6009 0 21.1303C0 25.3076 2.20715 28.5157 6.21943 30.1652C8.91924 31.2728 11.5245 31.3045 11.8122 31.3045H18.9421V26.1066H11.824C11.1422 26.1027 5.17497 25.9128 5.17497 21.1303C5.17497 19.6469 5.53758 17.5266 8.68277 16.2212C10.8111 15.3351 13.0576 15.3114 13.0695 15.3114L15.0204 15.2995L15.5604 13.4205C15.6589 13.0724 18.1104 4.88004 26.3872 5.20837C33.9467 5.51296 36.4298 11.5297 36.9027 12.9181V14.5835H36.8988V23.7925L27.1479 15.6041C26.3478 14.9395 25.4768 14.6072 24.5348 14.6072C23.8096 14.6072 23.2539 14.809 22.8598 15.2085C22.4656 15.612 22.2686 16.1223 22.2686 16.7394V31.3045H27.4435V22.1192L37.1944 30.3076C38.0891 31.0513 39.0271 31.4192 40.0124 31.4192C41.384 31.4192 42.0698 30.6597 42.0698 29.1446V16.0748H42.0738V12.1784L41.9871 11.8501C40.9544 7.93388 36.3982 0.410037 26.5961 0.0144618Z" fill="#4DAEEB"/>
</svg>
