<svg width="72" height="20" viewBox="0 0 72 20" fill="none" xmlns="http://www.w3.org/2000/svg">
<path d="M12.9635 14.3389C12.9635 16.093 12.3151 17.4751 11.0183 18.4851C9.73059 19.495 7.93501 20 5.63159 20C3.50954 20 1.63234 19.6102 0 18.8306V15.0033C1.34215 15.588 2.47572 16 3.40072 16.2392C4.33478 16.4784 5.18723 16.598 5.95806 16.598C6.88305 16.598 7.5904 16.4252 8.08011 16.0797C8.57888 15.7342 8.82826 15.2204 8.82826 14.5382C8.82826 14.1573 8.71944 13.8206 8.50179 13.5282C8.28415 13.227 7.96221 12.9391 7.53599 12.6645C7.11884 12.3898 6.26186 11.9513 4.96505 11.3488C3.74986 10.7907 2.83847 10.2547 2.23087 9.74086C1.62328 9.22702 1.13811 8.62901 0.775364 7.94684C0.41262 7.26467 0.231249 6.46733 0.231249 5.55482C0.231249 3.8361 0.825241 2.48505 2.01323 1.50166C3.21028 0.518272 4.86076 0.0265781 6.96467 0.0265781C7.99849 0.0265781 8.98243 0.146179 9.91649 0.385382C10.8596 0.624585 11.8436 0.96124 12.8683 1.39535L11.508 4.59801C10.447 4.17276 9.56735 3.87597 8.86907 3.70764C8.17986 3.53931 7.49972 3.45515 6.82864 3.45515C6.03061 3.45515 5.41848 3.63677 4.99225 4C4.56603 4.36323 4.35292 4.83721 4.35292 5.42193C4.35292 5.78516 4.43907 6.1041 4.61137 6.37874C4.78368 6.64452 5.05573 6.90587 5.42755 7.16279C5.80843 7.41085 6.70168 7.86268 8.10731 8.51827C9.96637 9.38649 11.2405 10.2591 11.9297 11.1362C12.6189 12.0044 12.9635 13.072 12.9635 14.3389Z" fill="white"/>
<path d="M28.0219 19.7342H16.5683V0.305648H28.0219V3.68106H20.7852V7.94684H27.5186V11.3223H20.7852V16.3322H28.0219V19.7342Z" fill="white"/>
<path d="M50.2354 9.99336C50.2354 13.2093 49.4192 15.6811 47.7869 17.4086C46.1545 19.1362 43.8148 20 40.7678 20C37.7208 20 35.3811 19.1362 33.7487 17.4086C32.1164 15.6811 31.3002 13.2004 31.3002 9.96678C31.3002 6.73311 32.1164 4.26578 33.7487 2.56478C35.3901 0.854928 37.7389 0 40.795 0C43.8511 0 46.1863 0.859358 47.8005 2.57807C49.4238 4.29679 50.2354 6.76855 50.2354 9.99336ZM35.7211 9.99336C35.7211 12.1639 36.1428 13.7984 36.9862 14.897C37.8296 15.9956 39.0901 16.5449 40.7678 16.5449C44.1323 16.5449 45.8145 14.361 45.8145 9.99336C45.8145 5.61683 44.1413 3.42857 40.795 3.42857C39.1173 3.42857 37.8523 3.98228 36.9998 5.0897C36.1474 6.18826 35.7211 7.82281 35.7211 9.99336Z" fill="white"/>
<path d="M72 19.7342H66.6405L57.989 5.03654H57.8666C58.0389 7.63234 58.1251 9.48394 58.1251 10.5914V19.7342H54.3571V0.305648H59.6758L68.3136 14.8571H68.4088C68.2728 12.3322 68.2048 10.5471 68.2048 9.50166V0.305648H72V19.7342Z" fill="white"/>
</svg>
