<svg width="435" height="335" viewBox="0 0 435 335" fill="none" xmlns="http://www.w3.org/2000/svg">
<path d="M34.7129 39.5541V13.5049C34.7129 7.01049 39.9873 1.80066 46.4022 1.80066H415.612C422.098 1.80066 427.301 7.08186 427.301 13.5049V283.916C427.301 290.411 422.027 295.621 415.612 295.621H394.301" stroke="#808080" stroke-miterlimit="10" stroke-linecap="round" stroke-linejoin="round"/>
<path d="M13.4009 39.5541H382.611C389.097 39.5541 394.3 44.8353 394.3 51.2584V321.67C394.3 328.164 389.026 333.374 382.611 333.374H13.4009C6.91481 333.374 1.71165 328.093 1.71165 321.67V51.2584C1.64038 44.8353 6.91481 39.5541 13.4009 39.5541Z" stroke="#808080" stroke-miterlimit="10" stroke-linecap="round" stroke-linejoin="round"/>
<path d="M44.5487 57.9668C44.5487 59.6797 43.1231 61.107 41.4125 61.107C39.7019 61.107 38.2764 59.6797 38.2764 57.9668C38.2764 56.254 39.7019 54.8267 41.4125 54.8267C43.1944 54.8267 44.5487 56.254 44.5487 57.9668Z" stroke="#4DAEEB" stroke-width="2" stroke-miterlimit="10" stroke-linecap="round" stroke-linejoin="round"/>
<path d="M2.56738 72.5972H393.303M59.4457 57.9668C59.4457 59.6797 58.0202 61.107 56.3095 61.107C54.5989 61.107 53.1734 59.6797 53.1734 57.9668C53.1734 56.254 54.5989 54.8267 56.3095 54.8267C58.0202 54.8267 59.4457 56.254 59.4457 57.9668ZM74.2711 57.9668C74.2711 59.6797 72.8456 61.107 71.135 61.107C69.4243 61.107 67.9988 59.6797 67.9988 57.9668C67.9988 56.254 69.4243 54.8267 71.135 54.8267C72.9169 54.8267 74.2711 56.254 74.2711 57.9668Z" stroke="#808080" stroke-miterlimit="10" stroke-linecap="round" stroke-linejoin="round"/>
<path d="M33.9285 91.01H364.935V125.052H33.9285V91.01Z" stroke="#4DAEEB" stroke-width="2" stroke-miterlimit="10" stroke-linecap="round" stroke-linejoin="round"/>
<path d="M33.9285 137.899H93.0163V147.105H33.9285V137.899ZM106.701 137.899H364.293V147.176H106.701V137.899Z" stroke="#808080" stroke-miterlimit="10" stroke-linecap="round" stroke-linejoin="round"/>
<path d="M106.986 167.873H130.721V188.569H106.986V167.873Z" stroke="#4DAEEB" stroke-width="2" stroke-miterlimit="10" stroke-linecap="round" stroke-linejoin="round"/>
<path d="M192.731 167.873H216.466V188.569H192.731V167.873Z" stroke="#808080" stroke-miterlimit="10" stroke-linecap="round" stroke-linejoin="round"/>
<path d="M278.334 167.873H302.069V188.569H278.334V167.873Z" fill="#4DAEEB"/>
<path d="M106.986 195.778H130.721V216.474H106.986V195.778Z" stroke="#808080" stroke-miterlimit="10" stroke-linecap="round" stroke-linejoin="round"/>
<path d="M192.731 195.778H216.466V216.474H192.731V195.778Z" stroke="#4DAEEB" stroke-width="2" stroke-miterlimit="10" stroke-linecap="round" stroke-linejoin="round"/>
<path d="M33.9285 162.092H92.945M33.9285 169.586H92.945M278.263 195.778H301.998V216.474H278.263V195.778Z" stroke="#808080" stroke-miterlimit="10" stroke-linecap="round" stroke-linejoin="round"/>
<path d="M142.909 175.224H180.258M142.909 182.646H173.986M227.514 175.224H264.863M227.514 182.646H258.59M312.119 175.224H349.467M312.119 182.646H343.195M142.909 201.772H180.258M142.909 209.266H173.986M227.514 201.772H264.863M227.514 209.266H258.59M312.119 201.772H349.467M312.119 209.266H343.195" stroke="#808080" stroke-miterlimit="10" stroke-linecap="round" stroke-linejoin="round"/>
<path d="M106.701 234.387H364.293V243.665H106.701V234.387ZM106.987 264.362H130.721V285.058H106.987V264.362Z" stroke="#808080" stroke-miterlimit="10" stroke-linecap="round" stroke-linejoin="round"/>
<path d="M192.731 264.362H216.466V285.058H192.731V264.362Z" fill="#4DAEEB"/>
<path d="M278.334 264.362H302.069V285.058H278.334V264.362Z" stroke="#808080" stroke-miterlimit="10" stroke-linecap="round" stroke-linejoin="round"/>
<path d="M106.986 292.266H130.721V312.963H106.986V292.266Z" stroke="#4DAEEB" stroke-width="2" stroke-miterlimit="10" stroke-linecap="round" stroke-linejoin="round"/>
<path d="M192.731 292.266H216.466V312.963H192.731V292.266Z" stroke="#808080" stroke-miterlimit="10" stroke-linecap="round" stroke-linejoin="round"/>
<path d="M278.263 292.266H301.998V312.963H278.263V292.266Z" stroke="#4DAEEB" stroke-width="2" stroke-miterlimit="10" stroke-linecap="round" stroke-linejoin="round"/>
<path d="M142.909 271.713H180.258M142.909 279.206H173.986M227.514 271.713H264.863M227.514 279.206H258.59M312.119 271.713H349.467M312.119 279.206H343.195M142.909 298.261H180.258M142.909 305.755H173.986M227.514 298.261H264.863M227.514 305.755H258.59M312.119 298.261H349.467M312.119 305.755H343.195" stroke="#808080" stroke-miterlimit="10" stroke-linecap="round" stroke-linejoin="round"/>
<path d="M33.9285 177.079H92.945M33.9285 184.573H92.945M33.9285 192.067H92.945" stroke="#808080" stroke-miterlimit="10" stroke-linecap="round" stroke-linejoin="round"/>
<path d="M33.9285 199.56H92.945M33.9285 207.054H92.945" stroke="#808080" stroke-miterlimit="10" stroke-linecap="round" stroke-linejoin="round"/>
<path d="M33.9285 223.682H92.945M33.9285 231.176H92.945M33.9285 238.669H92.945M33.9285 246.163H92.945" stroke="#808080" stroke-miterlimit="10" stroke-linecap="round" stroke-linejoin="round"/>
<path d="M33.9285 253.657H92.945M33.9285 261.15H92.945" stroke="#808080" stroke-miterlimit="10" stroke-linecap="round" stroke-linejoin="round"/>
<path d="M33.9285 268.644H92.945M33.9285 285.058H59.8017M33.9285 292.552H59.8017M33.9285 300.046H59.8017M33.9285 307.539H59.8017M67.2144 285.058H93.0876M67.2144 292.552H93.0876" stroke="#808080" stroke-miterlimit="10" stroke-linecap="round" stroke-linejoin="round"/>
<path d="M67.2148 300.046H93.0881M67.2148 307.539H93.0881" stroke="#808080" stroke-miterlimit="10" stroke-linecap="round" stroke-linejoin="round"/>
<path d="M296.225 115.132C296.225 115.346 296.011 115.561 295.726 115.561H244.122C243.837 115.561 243.623 115.346 243.623 115.132V101.787C243.623 101.573 243.837 101.358 244.122 101.358H295.726C296.011 101.358 296.225 101.573 296.225 101.787V115.132ZM348.185 115.132C348.185 115.346 347.971 115.561 347.757 115.561H308.057C307.843 115.561 307.629 115.346 307.629 115.132V101.787C307.629 101.573 307.772 101.358 308.057 101.358H347.757C347.971 101.358 348.185 101.573 348.185 101.787V115.132Z" stroke="#808080" stroke-miterlimit="10" stroke-linecap="round" stroke-linejoin="round"/>
<path d="M74.1282 108.21L74.1994 107.995C74.1994 107.924 74.1994 107.853 74.1282 107.781C74.0569 107.71 73.9856 107.71 73.9143 107.71H68.141C67.9271 107.71 67.642 107.639 67.4995 107.567C67.2857 107.496 67.1431 107.353 67.0006 107.139C66.858 106.996 66.7867 106.782 66.7155 106.568C66.6442 106.354 66.6442 106.14 66.7155 105.854L67.0718 104.498H74.9122C75.4111 104.498 75.8388 104.57 76.2665 104.855C76.6941 105.069 76.9792 105.355 77.2643 105.712C77.5494 106.069 77.692 106.425 77.8345 106.925C77.9058 107.353 77.9058 107.853 77.8345 108.281L76.409 113.491C76.2664 113.99 75.9813 114.49 75.5537 114.775C75.126 115.132 74.6271 115.275 74.0569 115.275H68.2835C67.7846 115.275 67.2857 115.132 66.858 114.918C66.4303 114.704 66.074 114.419 65.7889 114.062C65.5038 113.705 65.2899 113.277 65.2187 112.777C65.0761 112.278 65.1474 111.849 65.2187 111.35L65.2899 111.064C65.3612 110.707 65.5038 110.422 65.7176 110.137C65.9314 109.851 66.1452 109.637 66.4304 109.423C66.7155 109.209 67.0006 109.066 67.2857 108.923C67.642 108.781 67.9271 108.781 68.2835 108.781H73.1303L72.7739 110.137C72.7026 110.422 72.4888 110.707 72.2037 110.922C71.9186 111.136 71.6335 111.207 71.2771 111.207H69.1388C68.925 111.207 68.7825 111.278 68.7112 111.492C68.6399 111.635 68.7112 111.707 68.7825 111.849C68.8537 111.921 68.9963 111.992 69.0676 111.992H72.5601C72.7026 111.992 72.7739 111.992 72.9165 111.921C72.9877 111.849 73.059 111.778 73.059 111.635L73.1303 111.492L74.1282 108.21ZM49.8943 104.498H53.957L53.3156 106.854C53.2443 107.21 53.0304 107.425 52.8166 107.639C52.5315 107.853 52.2464 107.924 51.89 107.924H50.0369C49.6092 107.924 49.2528 108.067 48.8964 108.281C48.5401 108.495 48.3262 108.852 48.1837 109.28C48.1124 109.637 48.1124 109.922 48.1837 110.208C48.255 110.493 48.3975 110.779 48.5401 110.993C48.6826 111.207 48.8964 111.421 49.1815 111.492C49.4666 111.635 49.7517 111.707 50.0369 111.707H51.106C51.3198 111.707 51.4624 111.778 51.6049 111.992C51.7475 112.135 51.7475 112.349 51.7475 112.563L51.0347 115.204H49.823C48.9677 115.204 48.1837 114.99 47.4709 114.633C46.7582 114.276 46.1879 113.776 45.689 113.134C45.1901 112.492 44.905 111.778 44.6911 110.993C44.5486 110.208 44.5486 109.423 44.7624 108.566L44.8337 108.281C44.9763 107.71 45.2614 107.21 45.5465 106.711C45.9028 106.211 46.2592 105.854 46.6869 105.498C47.1145 105.141 47.6135 104.927 48.1837 104.713C48.7539 104.57 49.3241 104.498 49.8943 104.498ZM51.9613 115.275L55.4538 102.072C55.5251 101.715 55.7389 101.501 56.024 101.287C56.3091 101.073 56.5942 101.001 56.9506 101.001H60.657C61.5123 101.001 62.2963 101.216 63.0091 101.572C63.7219 101.929 64.2921 102.429 64.791 103.071C65.2899 103.713 65.575 104.427 65.7889 105.212C66.0027 105.997 65.9314 106.782 65.7176 107.639L65.6463 107.924C65.5038 108.495 65.2899 108.995 64.9336 109.494C64.6484 109.994 64.2208 110.422 63.7931 110.707C63.3655 111.064 62.8665 111.35 62.2963 111.492C61.7261 111.707 61.1559 111.778 60.5857 111.778H57.3783L58.0198 109.351C58.091 108.995 58.3049 108.781 58.59 108.566C58.8751 108.352 59.1602 108.281 59.5166 108.281H60.5144C60.9421 108.281 61.2985 108.138 61.6549 107.853C62.0112 107.567 62.2251 107.282 62.2963 106.854C62.3676 106.568 62.3676 106.283 62.2963 105.997C62.2251 105.712 62.0825 105.426 61.94 105.212C61.7974 104.998 61.5836 104.784 61.2985 104.641C61.0134 104.498 60.7283 104.427 60.4432 104.427H58.4474L55.8815 114.133C55.8102 114.49 55.5964 114.704 55.3113 114.918C55.0262 115.132 54.7411 115.204 54.3847 115.204H51.9613V115.275ZM84.5345 104.498C85.3898 104.498 86.1738 104.713 86.8866 105.069C87.5993 105.426 88.1696 105.926 88.6685 106.568C89.1674 107.21 89.4525 107.924 89.6664 108.709C89.8089 109.494 89.8089 110.351 89.5951 111.136L88.6685 114.49C88.5972 114.704 88.4547 114.918 88.3121 115.061C88.0983 115.204 87.8845 115.275 87.6706 115.275H85.7462C85.5323 115.275 85.3185 115.204 85.176 114.99C85.0334 114.847 85.0334 114.633 85.1047 114.419L86.1738 110.351C86.2451 110.065 86.2451 109.78 86.1738 109.494C86.1025 109.209 85.96 108.923 85.8174 108.709C85.6749 108.495 85.4611 108.281 85.176 108.21C84.8909 108.067 84.6057 107.995 84.3206 107.995H82.3249L80.6143 114.49C80.543 114.704 80.4005 114.918 80.2579 115.061C80.0441 115.204 79.8303 115.275 79.6164 115.275H77.692C77.4781 115.275 77.3356 115.204 77.193 114.99C77.0505 114.847 77.0505 114.633 77.0505 114.419L79.6877 104.498H84.5345ZM95.0121 107.924C94.8695 108.067 94.7982 108.21 94.727 108.352L93.9429 111.421C93.8716 111.564 93.9429 111.707 94.0142 111.921C94.1567 112.063 94.2993 112.135 94.4418 112.135H101.855L101.284 114.276C101.213 114.633 100.999 114.847 100.714 115.061C100.429 115.275 100.144 115.346 99.7876 115.346H93.0876C92.5887 115.346 92.161 115.275 91.7334 115.061C91.3057 114.847 91.0206 114.561 90.7355 114.204C90.4504 113.848 90.3078 113.491 90.1653 112.991C90.094 112.563 90.094 112.063 90.2366 111.635L91.3057 107.567C91.4483 107.139 91.5908 106.711 91.8759 106.354C92.0897 105.997 92.4461 105.64 92.7312 105.426C93.0876 105.141 93.444 104.927 93.8716 104.784C94.2993 104.641 94.727 104.57 95.1546 104.57H99.9301C100.429 104.57 100.857 104.713 101.284 104.855C101.712 105.069 101.997 105.355 102.282 105.712C102.567 106.069 102.71 106.425 102.852 106.925C102.924 107.353 102.924 107.853 102.781 108.281L102.425 109.494C102.282 110.065 101.997 110.493 101.569 110.779C101.142 111.136 100.643 111.278 100.073 111.278H94.727L95.0833 109.922C95.1546 109.637 95.3684 109.351 95.5823 109.137C95.8674 108.923 96.1525 108.852 96.5089 108.852H98.7184C98.9322 108.852 99.0748 108.781 99.1461 108.566L99.2173 108.281C99.2886 108.138 99.2173 107.995 99.1461 107.924C99.0748 107.781 98.9322 107.781 98.7897 107.781H95.511C95.2972 107.71 95.1546 107.781 95.0121 107.924ZM101.783 115.275L105.347 101.787C105.418 101.572 105.561 101.358 105.703 101.216C105.917 101.073 106.131 101.001 106.345 101.001H108.269C108.483 101.001 108.697 101.073 108.84 101.287C108.982 101.43 108.982 101.644 108.982 101.858L106.345 111.778C106.202 112.278 105.989 112.777 105.703 113.205C105.418 113.634 105.062 113.99 104.634 114.276C104.207 114.561 103.779 114.847 103.28 114.99C102.852 115.132 102.353 115.275 101.783 115.275Z" fill="#808080"/>
<path d="M360.017 72.5973C360.017 74.1673 358.734 75.452 357.165 75.452C355.597 75.452 354.314 74.1673 354.314 72.5973C354.314 71.0272 355.597 69.7426 357.165 69.7426C358.734 69.7426 360.017 70.9558 360.017 72.5973Z" fill="#4DAEEB"/>
</svg>
