<svg width="696" height="549" viewBox="0 0 696 549" fill="none" xmlns="http://www.w3.org/2000/svg">
<path d="M696 465.301H0V465.579H696V465.301Z" fill="#D1E3FF"/>
<path d="M193.627 481.17H125.976V481.448H193.627V481.17Z" fill="#D1E3FF"/>
<path d="M110.943 481.309H93.125V481.587H110.943V481.309Z" fill="#D1E3FF"/>
<path d="M291.902 478.943H271.022V479.221H291.902V478.943Z" fill="#D1E3FF"/>
<path d="M385.027 478.943H299.837V479.221H385.027V478.943Z" fill="#D1E3FF"/>
<path d="M585.614 481.587H506.549V481.866H585.614V481.587Z" fill="#D1E3FF"/>
<path d="M498.754 481.587H477.874V481.866H498.754V481.587Z" fill="#D1E3FF"/>
<path d="M624.451 475.323H606.494V475.602H624.451V475.323Z" fill="#D1E3FF"/>
<path d="M329.904 403.218H61.1092C56.794 403.218 53.1748 399.598 53.1748 395.283V17.4945C53.1748 13.1793 56.794 9.56006 61.1092 9.56006H329.904C334.22 9.56006 337.839 13.1793 337.839 17.4945V395.283C337.839 399.598 334.359 403.218 329.904 403.218ZM61.1092 9.83846C56.9332 9.83846 53.4532 13.1793 53.4532 17.4945V395.283C53.4532 399.459 56.794 402.939 61.1092 402.939H329.904C334.08 402.939 337.56 399.598 337.56 395.283V17.4945C337.56 13.3185 334.22 9.83846 329.904 9.83846H61.1092Z" fill="#D1E3FF"/>
<path d="M630.993 403.218H362.198C357.883 403.218 354.264 399.598 354.264 395.283V17.4945C354.264 13.1793 357.883 9.56006 362.198 9.56006H630.993C635.308 9.56006 638.928 13.1793 638.928 17.4945V395.283C638.928 399.598 635.448 403.218 630.993 403.218ZM362.198 9.83846C358.022 9.83846 354.542 13.1793 354.542 17.4945V395.283C354.542 399.459 357.883 402.939 362.198 402.939H630.993C635.169 402.939 638.649 399.598 638.649 395.283V17.4945C638.649 13.3185 635.308 9.83846 630.993 9.83846H362.198Z" fill="#D1E3FF"/>
<path d="M696 444.699H600.091C598.003 444.699 596.193 442.89 596.193 440.802V188.571C596.193 186.762 594.801 185.37 592.992 185.37H582.83V184.674H592.992C595.08 184.674 596.889 186.483 596.889 188.571V440.802C596.889 442.611 598.281 444.003 600.091 444.003H696V444.699Z" fill="#D1E3FF"/>
<path d="M696 439.549H603.292C601.204 439.549 599.395 437.739 599.395 435.651V183.56C599.395 181.75 598.003 180.358 596.193 180.358H582.83V179.662H596.193C598.281 179.662 600.091 181.472 600.091 183.56V435.79C600.091 437.6 601.483 438.992 603.292 438.992H696V439.549Z" fill="#D1E3FF"/>
<path d="M695.999 434.538H606.633C604.545 434.538 602.735 432.728 602.735 430.64V178.41C602.735 176.6 601.343 175.208 599.534 175.208H582.969V174.512H599.534C601.622 174.512 603.431 176.322 603.431 178.41V430.64C603.431 432.45 604.823 433.842 606.633 433.842H695.999V434.538Z" fill="#D1E3FF"/>
<path d="M696 429.387H609.835C607.747 429.387 605.937 427.578 605.937 425.49V173.259C605.937 171.45 604.545 170.058 602.736 170.058H582.83V169.362H602.736C604.824 169.362 606.633 171.171 606.633 173.259V425.49C606.633 427.299 608.025 428.691 609.835 428.691H696V429.387Z" fill="#D1E3FF"/>
<path d="M695.999 424.376H613.175C611.087 424.376 609.278 422.566 609.278 420.478V168.248C609.278 166.438 607.886 165.046 606.076 165.046H582.969V164.35H606.076C608.164 164.35 609.974 166.16 609.974 168.248V420.478C609.974 422.288 611.366 423.68 613.175 423.68H695.999V424.376Z" fill="#D1E3FF"/>
<path d="M696 419.226H616.377C614.289 419.226 612.48 417.416 612.48 415.328V163.098C612.48 161.288 611.088 159.896 609.278 159.896H582.83V159.2H609.278C611.366 159.2 613.176 161.01 613.176 163.098V415.328C613.176 417.138 614.568 418.53 616.377 418.53H696V419.226Z" fill="#D1E3FF"/>
<path d="M696 414.075H619.579C617.491 414.075 615.681 412.266 615.681 410.178V158.086C615.681 156.277 614.289 154.885 612.48 154.885H582.83V154.189H612.48C614.568 154.189 616.377 155.998 616.377 158.086V410.317C616.377 412.126 617.769 413.518 619.579 413.518H696V414.075Z" fill="#D1E3FF"/>
<path d="M388.089 210.008H302.063V210.704H388.089V210.008Z" fill="#D1E3FF"/>
<path d="M388.089 204.997H302.063V205.693H388.089V204.997Z" fill="#D1E3FF"/>
<path d="M388.089 199.846H302.063V200.542H388.089V199.846Z" fill="#D1E3FF"/>
<path d="M388.089 194.696H302.063V195.392H388.089V194.696Z" fill="#D1E3FF"/>
<path d="M388.089 189.685H302.063V190.381H388.089V189.685Z" fill="#D1E3FF"/>
<path d="M388.089 184.534H302.063V185.23H388.089V184.534Z" fill="#D1E3FF"/>
<path d="M388.089 179.523H302.063V180.219H388.089V179.523Z" fill="#D1E3FF"/>
<path d="M388.089 382.616H302.063V383.312H388.089V382.616Z" fill="#D1E3FF"/>
<path d="M388.089 377.466H302.063V378.162H388.089V377.466Z" fill="#D1E3FF"/>
<path d="M388.089 372.454H302.063V373.15H388.089V372.454Z" fill="#D1E3FF"/>
<path d="M388.089 367.304H302.063V368H388.089V367.304Z" fill="#D1E3FF"/>
<path d="M388.089 362.154H302.063V362.85H388.089V362.154Z" fill="#D1E3FF"/>
<path d="M388.089 357.142H302.063V357.838H388.089V357.142Z" fill="#D1E3FF"/>
<path d="M388.089 351.992H302.063V352.688H388.089V351.992Z" fill="#D1E3FF"/>
<path d="M133.493 419.922H100.085C97.9966 419.922 96.187 418.112 96.187 416.024V163.794C96.187 161.984 94.795 160.592 92.9854 160.592H53.5918V159.896H93.1246C95.2126 159.896 97.0222 161.706 97.0222 163.794V416.024C97.0222 417.834 98.4142 419.226 100.224 419.226H133.632V419.922H133.493Z" fill="#D1E3FF"/>
<path d="M133.493 424.933H96.883C94.795 424.933 92.9854 423.123 92.9854 421.035V168.944C92.9854 167.135 91.5934 165.743 89.7838 165.743H53.5918V165.047H89.7838C91.8718 165.047 93.6814 166.856 93.6814 168.944V421.175C93.6814 422.984 95.0734 424.376 96.883 424.376H133.493V424.933Z" fill="#D1E3FF"/>
<path d="M133.493 430.083H93.6814C91.5934 430.083 89.7838 428.274 89.7838 426.186V173.955C89.7838 172.146 88.3918 170.754 86.5822 170.754H53.5918V170.058H86.5822C88.6702 170.058 90.4798 171.867 90.4798 173.955V426.186C90.4798 427.995 91.8718 429.387 93.6814 429.387H133.632V430.083H133.493Z" fill="#D1E3FF"/>
<path d="M133.493 435.095H90.3406C88.2526 435.095 86.443 433.285 86.443 431.197V179.106C86.443 177.296 85.051 175.904 83.2414 175.904H53.5918V175.208H83.2414C85.3294 175.208 87.139 177.018 87.139 179.106V431.336C87.139 433.146 88.531 434.538 90.3406 434.538H133.493V435.095Z" fill="#D1E3FF"/>
<path d="M133.493 440.245H87.139C85.051 440.245 83.2414 438.435 83.2414 436.347V184.117C83.2414 182.307 81.8494 180.915 80.0398 180.915H53.5918V180.219H80.0398C82.1278 180.219 83.9374 182.029 83.9374 184.117V436.347C83.9374 438.157 85.3294 439.549 87.139 439.549H133.632V440.245H133.493Z" fill="#D1E3FF"/>
<path d="M133.493 445.395H83.7982C81.7102 445.395 79.9006 443.586 79.9006 441.498V189.267C79.9006 187.458 78.5086 186.066 76.699 186.066H53.5918V185.37H76.8382C78.9262 185.37 80.7358 187.179 80.7358 189.267V441.498C80.7358 443.307 82.1278 444.699 83.9374 444.699H133.632V445.395H133.493Z" fill="#D1E3FF"/>
<path d="M133.493 450.406H80.5966C78.5086 450.406 76.699 448.597 76.699 446.509V194.278C76.699 192.469 75.307 191.077 73.4974 191.077H53.5918V190.381H73.4974C75.5854 190.381 77.395 192.19 77.395 194.278V446.509C77.395 448.318 78.787 449.711 80.5966 449.711H133.493V450.406Z" fill="#D1E3FF"/>
<path d="M274.781 444.282H133.493V465.301H274.781V444.282Z" fill="#E3EEFF"/>
<path d="M274.753 465.361H303.429V444.342H274.753V465.361Z" fill="#D1E3FF"/>
<path d="M274.781 74.1489H124.027V444.421H274.781V74.1489Z" fill="#EEF5FF"/>
<path d="M300.394 70.9473H136.694V74.1489H300.394V70.9473Z" fill="#E3EEFF"/>
<path d="M274.843 444.311H312.983L312.983 74.0392H274.843L274.843 444.311Z" fill="#E3EEFF"/>
<path d="M270.326 78.6033H128.481V119.11H270.326V78.6033Z" fill="#E3EEFF"/>
<path d="M270.326 399.181H128.481V439.688H270.326V399.181Z" fill="#E3EEFF"/>
<path d="M270.326 353.384H128.481V393.891H270.326V353.384Z" fill="#E3EEFF"/>
<path d="M270.326 307.587H128.481V348.094H270.326V307.587Z" fill="#E3EEFF"/>
<path d="M270.326 261.791H128.481V302.298H270.326V261.791Z" fill="#E3EEFF"/>
<path d="M270.326 215.994H128.481V256.501H270.326V215.994Z" fill="#E3EEFF"/>
<path d="M270.326 170.197H128.481V210.704H270.326V170.197Z" fill="#E3EEFF"/>
<path d="M270.326 124.4H128.481V164.907H270.326V124.4Z" fill="#E3EEFF"/>
<path opacity="0.7" d="M258.773 113.264H231.073C227.871 113.264 225.087 110.619 225.087 107.278V90.296C225.087 87.0944 227.732 84.3104 231.073 84.3104H258.773C261.975 84.3104 264.759 86.9552 264.759 90.296V107.418C264.759 110.619 262.114 113.264 258.773 113.264Z" fill="white"/>
<path d="M252.787 100.736V96.8384C252.787 95.864 253.622 95.0288 254.597 95.0288H258.494C259.469 95.0288 260.304 95.864 260.304 96.8384V100.736C260.304 101.71 259.469 102.546 258.494 102.546H254.597C253.483 102.546 252.787 101.71 252.787 100.736Z" fill="#EEF5FF"/>
<path opacity="0.7" d="M258.773 159.061H231.073C227.871 159.061 225.087 156.416 225.087 153.075V135.954C225.087 132.752 227.732 129.968 231.073 129.968H258.773C261.975 129.968 264.759 132.613 264.759 135.954V153.075C264.759 156.416 262.114 159.061 258.773 159.061Z" fill="white"/>
<path d="M252.787 146.533V142.635C252.787 141.661 253.622 140.826 254.597 140.826H258.494C259.469 140.826 260.304 141.661 260.304 142.635V146.533C260.304 147.507 259.469 148.342 258.494 148.342H254.597C253.483 148.342 252.787 147.507 252.787 146.533Z" fill="#EEF5FF"/>
<path opacity="0.7" d="M258.773 204.858H231.073C227.871 204.858 225.087 202.213 225.087 198.872V181.75C225.087 178.549 227.732 175.765 231.073 175.765H258.773C261.975 175.765 264.759 178.41 264.759 181.75V198.872C264.759 202.213 262.114 204.858 258.773 204.858Z" fill="white"/>
<path d="M252.787 192.33V188.432C252.787 187.458 253.622 186.622 254.597 186.622H258.494C259.469 186.622 260.304 187.458 260.304 188.432V192.33C260.304 193.304 259.469 194.139 258.494 194.139H254.597C253.483 194.139 252.787 193.304 252.787 192.33Z" fill="#EEF5FF"/>
<path opacity="0.7" d="M258.773 250.654H231.073C227.871 250.654 225.087 248.01 225.087 244.669V227.547C225.087 224.346 227.732 221.562 231.073 221.562H258.773C261.975 221.562 264.759 224.206 264.759 227.547V244.808C264.759 248.01 262.114 250.654 258.773 250.654Z" fill="white"/>
<path d="M252.787 238.126V234.229C252.787 233.254 253.622 232.419 254.597 232.419H258.494C259.469 232.419 260.304 233.254 260.304 234.229V238.126C260.304 239.101 259.469 239.936 258.494 239.936H254.597C253.483 239.936 252.787 239.101 252.787 238.126Z" fill="#EEF5FF"/>
<path opacity="0.7" d="M258.773 296.451H231.073C227.871 296.451 225.087 293.807 225.087 290.466V273.344C225.087 270.143 227.732 267.359 231.073 267.359H258.773C261.975 267.359 264.759 270.003 264.759 273.344V290.466C264.759 293.807 262.114 296.451 258.773 296.451Z" fill="white"/>
<path d="M252.787 283.923V280.026C252.787 279.051 253.622 278.216 254.597 278.216H258.494C259.469 278.216 260.304 279.051 260.304 280.026V283.923C260.304 284.898 259.469 285.733 258.494 285.733H254.597C253.483 285.733 252.787 284.898 252.787 283.923Z" fill="#EEF5FF"/>
<path opacity="0.7" d="M258.773 342.248H231.073C227.871 342.248 225.087 339.603 225.087 336.262V319.141C225.087 315.939 227.732 313.155 231.073 313.155H258.773C261.975 313.155 264.759 315.8 264.759 319.141V336.262C264.759 339.603 262.114 342.248 258.773 342.248Z" fill="white"/>
<path d="M252.787 329.72V325.822C252.787 324.848 253.622 324.013 254.597 324.013H258.494C259.469 324.013 260.304 324.848 260.304 325.822V329.72C260.304 330.694 259.469 331.53 258.494 331.53H254.597C253.483 331.53 252.787 330.694 252.787 329.72Z" fill="#EEF5FF"/>
<path opacity="0.7" d="M258.773 388.045H231.073C227.871 388.045 225.087 385.4 225.087 382.059V364.938C225.087 361.736 227.732 358.952 231.073 358.952H258.773C261.975 358.952 264.759 361.597 264.759 364.938V382.059C264.759 385.4 262.114 388.045 258.773 388.045Z" fill="white"/>
<path d="M252.787 375.517V371.619C252.787 370.645 253.622 369.81 254.597 369.81H258.494C259.469 369.81 260.304 370.645 260.304 371.619V375.517C260.304 376.491 259.469 377.327 258.494 377.327H254.597C253.483 377.327 252.787 376.491 252.787 375.517Z" fill="#EEF5FF"/>
<path opacity="0.7" d="M258.773 433.842H231.073C227.871 433.842 225.087 431.197 225.087 427.856V410.735C225.087 407.533 227.732 404.749 231.073 404.749H258.773C261.975 404.749 264.759 407.394 264.759 410.735V427.856C264.759 431.197 262.114 433.842 258.773 433.842Z" fill="white"/>
<path d="M252.787 421.314V417.416C252.787 416.442 253.622 415.606 254.597 415.606H258.494C259.469 415.606 260.304 416.442 260.304 417.416V421.314C260.304 422.288 259.469 423.123 258.494 423.123H254.597C253.483 423.123 252.787 422.288 252.787 421.314Z" fill="#EEF5FF"/>
<path d="M241.233 100.736V96.8384C241.233 95.864 242.069 95.0288 243.043 95.0288H246.941C247.915 95.0288 248.75 95.864 248.75 96.8384V100.736C248.75 101.71 247.915 102.546 246.941 102.546H243.043C242.069 102.546 241.233 101.71 241.233 100.736Z" fill="#EEF5FF"/>
<path d="M241.233 146.533V142.635C241.233 141.661 242.069 140.826 243.043 140.826H246.941C247.915 140.826 248.75 141.661 248.75 142.635V146.533C248.75 147.507 247.915 148.342 246.941 148.342H243.043C242.069 148.342 241.233 147.507 241.233 146.533Z" fill="#EEF5FF"/>
<path d="M241.233 192.33V188.432C241.233 187.458 242.069 186.622 243.043 186.622H246.941C247.915 186.622 248.75 187.458 248.75 188.432V192.33C248.75 193.304 247.915 194.139 246.941 194.139H243.043C242.069 194.139 241.233 193.304 241.233 192.33Z" fill="#EEF5FF"/>
<path d="M241.233 238.126V234.229C241.233 233.254 242.069 232.419 243.043 232.419H246.941C247.915 232.419 248.75 233.254 248.75 234.229V238.126C248.75 239.101 247.915 239.936 246.941 239.936H243.043C242.069 239.936 241.233 239.101 241.233 238.126Z" fill="#EEF5FF"/>
<path d="M241.233 283.923V280.026C241.233 279.051 242.069 278.216 243.043 278.216H246.941C247.915 278.216 248.75 279.051 248.75 280.026V283.923C248.75 284.898 247.915 285.733 246.941 285.733H243.043C242.069 285.733 241.233 284.898 241.233 283.923Z" fill="#EEF5FF"/>
<path d="M241.233 329.72V325.822C241.233 324.848 242.069 324.013 243.043 324.013H246.941C247.915 324.013 248.75 324.848 248.75 325.822V329.72C248.75 330.694 247.915 331.53 246.941 331.53H243.043C242.069 331.53 241.233 330.694 241.233 329.72Z" fill="#EEF5FF"/>
<path d="M241.233 375.517V371.619C241.233 370.645 242.069 369.81 243.043 369.81H246.941C247.915 369.81 248.75 370.645 248.75 371.619V375.517C248.75 376.491 247.915 377.327 246.941 377.327H243.043C242.069 377.327 241.233 376.491 241.233 375.517Z" fill="#EEF5FF"/>
<path d="M241.233 421.314V417.416C241.233 416.442 242.069 415.606 243.043 415.606H246.941C247.915 415.606 248.75 416.442 248.75 417.416V421.314C248.75 422.288 247.915 423.123 246.941 423.123H243.043C242.069 423.123 241.233 422.288 241.233 421.314Z" fill="#EEF5FF"/>
<path d="M211.028 103.52C213.642 103.52 215.761 101.401 215.761 98.7872C215.761 96.1734 213.642 94.0544 211.028 94.0544C208.414 94.0544 206.295 96.1734 206.295 98.7872C206.295 101.401 208.414 103.52 211.028 103.52Z" fill="#EEF5FF"/>
<path d="M202.397 98.7872C202.397 101.432 200.309 103.52 197.664 103.52C195.02 103.52 192.932 101.432 192.932 98.7872C192.932 96.1424 195.02 94.0544 197.664 94.0544C200.309 94.1936 202.397 96.2816 202.397 98.7872Z" fill="#EEF5FF"/>
<path d="M188.894 98.7872C188.894 101.432 186.806 103.52 184.162 103.52C181.517 103.52 179.429 101.432 179.429 98.7872C179.429 96.1424 181.517 94.0544 184.162 94.0544C186.806 94.1936 188.894 96.2816 188.894 98.7872Z" fill="#EEF5FF"/>
<path d="M170.938 103.52C173.552 103.52 175.671 101.401 175.671 98.7872C175.671 96.1734 173.552 94.0544 170.938 94.0544C168.324 94.0544 166.205 96.1734 166.205 98.7872C166.205 101.401 168.324 103.52 170.938 103.52Z" fill="#EEF5FF"/>
<path d="M211.028 149.317C213.642 149.317 215.761 147.198 215.761 144.584C215.761 141.97 213.642 139.851 211.028 139.851C208.414 139.851 206.295 141.97 206.295 144.584C206.295 147.198 208.414 149.317 211.028 149.317Z" fill="#EEF5FF"/>
<path d="M202.397 144.584C202.397 147.229 200.309 149.317 197.664 149.317C195.02 149.317 192.932 147.229 192.932 144.584C192.932 141.939 195.02 139.851 197.664 139.851C200.309 139.991 202.397 142.079 202.397 144.584Z" fill="#EEF5FF"/>
<path d="M188.894 144.584C188.894 147.229 186.806 149.317 184.162 149.317C181.517 149.317 179.429 147.229 179.429 144.584C179.429 141.939 181.517 139.851 184.162 139.851C186.806 139.991 188.894 142.079 188.894 144.584Z" fill="#EEF5FF"/>
<path d="M170.938 149.317C173.552 149.317 175.671 147.198 175.671 144.584C175.671 141.97 173.552 139.851 170.938 139.851C168.324 139.851 166.205 141.97 166.205 144.584C166.205 147.198 168.324 149.317 170.938 149.317Z" fill="#EEF5FF"/>
<path d="M215.76 190.381C215.76 193.026 213.672 195.114 211.027 195.114C208.382 195.114 206.294 193.026 206.294 190.381C206.294 187.736 208.382 185.648 211.027 185.648C213.672 185.648 215.76 187.875 215.76 190.381Z" fill="#EEF5FF"/>
<path d="M202.396 190.381C202.396 193.026 200.308 195.114 197.663 195.114C195.019 195.114 192.931 193.026 192.931 190.381C192.931 187.736 195.019 185.648 197.663 185.648C200.308 185.787 202.396 187.875 202.396 190.381Z" fill="#EEF5FF"/>
<path d="M188.894 190.381C188.894 193.026 186.806 195.114 184.162 195.114C181.517 195.114 179.429 193.026 179.429 190.381C179.429 187.736 181.517 185.648 184.162 185.648C186.806 185.787 188.894 187.875 188.894 190.381Z" fill="#EEF5FF"/>
<path d="M175.531 190.381C175.531 193.026 173.443 195.114 170.798 195.114C168.153 195.114 166.065 193.026 166.065 190.381C166.065 187.736 168.153 185.648 170.798 185.648C173.443 185.648 175.531 187.875 175.531 190.381Z" fill="#EEF5FF"/>
<path d="M215.76 236.178C215.76 238.822 213.672 240.91 211.027 240.91C208.382 240.91 206.294 238.822 206.294 236.178C206.294 233.533 208.382 231.445 211.027 231.445C213.672 231.445 215.76 233.672 215.76 236.178Z" fill="#EEF5FF"/>
<path d="M202.396 236.178C202.396 238.822 200.308 240.91 197.663 240.91C195.019 240.91 192.931 238.822 192.931 236.178C192.931 233.533 195.019 231.445 197.663 231.445C200.308 231.584 202.396 233.672 202.396 236.178Z" fill="#EEF5FF"/>
<path d="M188.894 236.178C188.894 238.822 186.806 240.91 184.162 240.91C181.517 240.91 179.429 238.822 179.429 236.178C179.429 233.533 181.517 231.445 184.162 231.445C186.806 231.584 188.894 233.672 188.894 236.178Z" fill="#EEF5FF"/>
<path d="M175.531 236.178C175.531 238.822 173.443 240.91 170.798 240.91C168.153 240.91 166.065 238.822 166.065 236.178C166.065 233.533 168.153 231.445 170.798 231.445C173.443 231.445 175.531 233.672 175.531 236.178Z" fill="#EEF5FF"/>
<path d="M215.76 281.974C215.76 284.619 213.672 286.707 211.027 286.707C208.382 286.707 206.294 284.619 206.294 281.974C206.294 279.33 208.382 277.242 211.027 277.242C213.672 277.242 215.76 279.469 215.76 281.974Z" fill="#EEF5FF"/>
<path d="M202.396 281.974C202.396 284.619 200.308 286.707 197.663 286.707C195.019 286.707 192.931 284.619 192.931 281.974C192.931 279.33 195.019 277.242 197.663 277.242C200.308 277.381 202.396 279.469 202.396 281.974Z" fill="#EEF5FF"/>
<path d="M188.894 281.974C188.894 284.619 186.806 286.707 184.162 286.707C181.517 286.707 179.429 284.619 179.429 281.974C179.429 279.33 181.517 277.242 184.162 277.242C186.806 277.381 188.894 279.469 188.894 281.974Z" fill="#EEF5FF"/>
<path d="M175.531 281.974C175.531 284.619 173.443 286.707 170.798 286.707C168.153 286.707 166.065 284.619 166.065 281.974C166.065 279.33 168.153 277.242 170.798 277.242C173.443 277.242 175.531 279.469 175.531 281.974Z" fill="#EEF5FF"/>
<path d="M215.76 327.771C215.76 330.416 213.672 332.504 211.027 332.504C208.382 332.504 206.294 330.416 206.294 327.771C206.294 325.126 208.382 323.038 211.027 323.038C213.672 323.038 215.76 325.266 215.76 327.771Z" fill="#EEF5FF"/>
<path d="M202.396 327.771C202.396 330.416 200.308 332.504 197.663 332.504C195.019 332.504 192.931 330.416 192.931 327.771C192.931 325.126 195.019 323.038 197.663 323.038C200.308 323.178 202.396 325.266 202.396 327.771Z" fill="#EEF5FF"/>
<path d="M188.894 327.771C188.894 330.416 186.806 332.504 184.162 332.504C181.517 332.504 179.429 330.416 179.429 327.771C179.429 325.126 181.517 323.038 184.162 323.038C186.806 323.178 188.894 325.266 188.894 327.771Z" fill="#EEF5FF"/>
<path d="M175.531 327.771C175.531 330.416 173.443 332.504 170.798 332.504C168.153 332.504 166.065 330.416 166.065 327.771C166.065 325.126 168.153 323.038 170.798 323.038C173.443 323.038 175.531 325.266 175.531 327.771Z" fill="#EEF5FF"/>
<path d="M211.028 378.301C213.642 378.301 215.761 376.182 215.761 373.568C215.761 370.954 213.642 368.835 211.028 368.835C208.414 368.835 206.295 370.954 206.295 373.568C206.295 376.182 208.414 378.301 211.028 378.301Z" fill="#EEF5FF"/>
<path d="M202.397 373.568C202.397 376.213 200.309 378.301 197.664 378.301C195.02 378.301 192.932 376.213 192.932 373.568C192.932 370.923 195.02 368.835 197.664 368.835C200.309 368.974 202.397 371.062 202.397 373.568Z" fill="#EEF5FF"/>
<path d="M188.894 373.568C188.894 376.213 186.806 378.301 184.162 378.301C181.517 378.301 179.429 376.213 179.429 373.568C179.429 370.923 181.517 368.835 184.162 368.835C186.806 368.974 188.894 371.062 188.894 373.568Z" fill="#EEF5FF"/>
<path d="M170.938 378.301C173.552 378.301 175.671 376.182 175.671 373.568C175.671 370.954 173.552 368.835 170.938 368.835C168.324 368.835 166.205 370.954 166.205 373.568C166.205 376.182 168.324 378.301 170.938 378.301Z" fill="#EEF5FF"/>
<path d="M211.028 424.098C213.642 424.098 215.761 421.979 215.761 419.365C215.761 416.751 213.642 414.632 211.028 414.632C208.414 414.632 206.295 416.751 206.295 419.365C206.295 421.979 208.414 424.098 211.028 424.098Z" fill="#EEF5FF"/>
<path d="M202.397 419.365C202.397 422.01 200.309 424.098 197.664 424.098C195.02 424.098 192.932 422.01 192.932 419.365C192.932 416.72 195.02 414.632 197.664 414.632C200.309 414.771 202.397 416.859 202.397 419.365Z" fill="#EEF5FF"/>
<path d="M188.894 419.365C188.894 422.01 186.806 424.098 184.162 424.098C181.517 424.098 179.429 422.01 179.429 419.365C179.429 416.72 181.517 414.632 184.162 414.632C186.806 414.771 188.894 416.859 188.894 419.365Z" fill="#EEF5FF"/>
<path d="M170.938 424.098C173.552 424.098 175.671 421.979 175.671 419.365C175.671 416.751 173.552 414.632 170.938 414.632C168.324 414.632 166.205 416.751 166.205 419.365C166.205 421.979 168.324 424.098 170.938 424.098Z" fill="#EEF5FF"/>
<path d="M146.717 108.949C152.329 108.949 156.879 104.399 156.879 98.7873C156.879 93.1752 152.329 88.6257 146.717 88.6257C141.105 88.6257 136.556 93.1752 136.556 98.7873C136.556 104.399 141.105 108.949 146.717 108.949Z" fill="#D1E3FF"/>
<path d="M146.717 154.746C152.329 154.746 156.879 150.196 156.879 144.584C156.879 138.972 152.329 134.422 146.717 134.422C141.105 134.422 136.556 138.972 136.556 144.584C136.556 150.196 141.105 154.746 146.717 154.746Z" fill="#D1E3FF"/>
<path d="M156.712 192.07C157.609 186.53 153.845 181.312 148.305 180.415C142.766 179.519 137.548 183.282 136.651 188.822C135.754 194.362 139.518 199.58 145.058 200.476C150.598 201.373 155.815 197.609 156.712 192.07Z" fill="#D1E3FF"/>
<path d="M156.712 237.864C157.609 232.324 153.845 227.106 148.306 226.21C142.766 225.313 137.548 229.077 136.651 234.616C135.754 240.156 139.518 245.374 145.058 246.271C150.598 247.167 155.815 243.404 156.712 237.864Z" fill="#D1E3FF"/>
<path d="M150.582 291.389C155.771 289.251 158.244 283.311 156.106 278.122C153.968 272.933 148.028 270.46 142.839 272.598C137.65 274.736 135.177 280.676 137.315 285.865C139.453 291.054 145.393 293.527 150.582 291.389Z" fill="#D1E3FF"/>
<path d="M150.584 337.186C155.773 335.048 158.246 329.108 156.108 323.919C153.97 318.73 148.03 316.257 142.841 318.396C137.652 320.534 135.179 326.474 137.317 331.663C139.455 336.851 145.395 339.325 150.584 337.186Z" fill="#D1E3FF"/>
<path d="M146.717 383.73C152.329 383.73 156.879 379.18 156.879 373.568C156.879 367.956 152.329 363.406 146.717 363.406C141.105 363.406 136.556 367.956 136.556 373.568C136.556 379.18 141.105 383.73 146.717 383.73Z" fill="#D1E3FF"/>
<path d="M146.717 429.526C152.329 429.526 156.879 424.977 156.879 419.365C156.879 413.753 152.329 409.203 146.717 409.203C141.105 409.203 136.556 413.753 136.556 419.365C136.556 424.977 141.105 429.526 146.717 429.526Z" fill="#D1E3FF"/>
<path d="M546.638 446.091H383.356V465.301H546.638V446.091Z" fill="#E3EEFF"/>
<path d="M546.618 465.286H573.762V446.077H546.618V465.286Z" fill="#D1E3FF"/>
<path d="M546.499 106.443H374.169V445.952H546.499V106.443Z" fill="#EEF5FF"/>
<path d="M570.859 103.659H386.279V106.582H570.859V103.659Z" fill="#E3EEFF"/>
<path d="M546.503 446.146H582.834V106.637H546.503V446.146Z" fill="#E3EEFF"/>
<path d="M378.516 147.745L542.354 147.745V110.578L378.516 110.578V147.745Z" fill="#E3EEFF"/>
<path d="M378.516 441.787H542.354V404.621H378.516V441.787Z" fill="#E3EEFF"/>
<path d="M378.516 399.821H542.354V362.655H378.516V399.821Z" fill="#E3EEFF"/>
<path d="M378.516 357.855H542.354V320.688H378.516V357.855Z" fill="#E3EEFF"/>
<path d="M378.516 315.749H542.354V278.583H378.516V315.749Z" fill="#E3EEFF"/>
<path d="M378.516 273.783H542.354V236.617L378.516 236.617V273.783Z" fill="#E3EEFF"/>
<path d="M378.516 231.816L542.354 231.816V194.65L378.516 194.65V231.816Z" fill="#E3EEFF"/>
<path d="M378.516 189.85L542.354 189.85V152.684L378.516 152.684V189.85Z" fill="#E3EEFF"/>
<path d="M389.341 142.496H468.268C471.33 142.496 473.836 139.99 473.836 136.928V121.338C473.836 118.275 471.33 115.77 468.268 115.77H389.341C386.279 115.77 383.773 118.275 383.773 121.338V136.928C383.773 139.99 386.279 142.496 389.341 142.496Z" fill="#D1E3FF"/>
<path d="M395.188 130.943V127.463C395.188 126.488 394.492 125.792 393.518 125.792H389.759C388.785 125.792 388.089 126.488 388.089 127.463V130.943C388.089 131.917 388.785 132.613 389.759 132.613H393.518C394.492 132.613 395.188 131.778 395.188 130.943Z" fill="#EEF5FF"/>
<path d="M389.341 184.535H468.268C471.33 184.535 473.836 182.029 473.836 178.967V163.376C473.836 160.314 471.33 157.808 468.268 157.808H389.341C386.279 157.808 383.773 160.314 383.773 163.376V178.967C383.773 182.029 386.279 184.535 389.341 184.535Z" fill="#D1E3FF"/>
<path d="M395.188 172.981V169.501C395.188 168.526 394.492 167.83 393.518 167.83H389.759C388.785 167.83 388.089 168.526 388.089 169.501V172.981C388.089 173.955 388.785 174.651 389.759 174.651H393.518C394.492 174.512 395.188 173.816 395.188 172.981Z" fill="#EEF5FF"/>
<path d="M389.341 226.434H468.268C471.33 226.434 473.836 223.928 473.836 220.866V205.275C473.836 202.213 471.33 199.707 468.268 199.707H389.341C386.279 199.707 383.773 202.213 383.773 205.275V220.866C383.773 223.928 386.279 226.434 389.341 226.434Z" fill="#D1E3FF"/>
<path d="M395.188 214.88V211.4C395.188 210.426 394.492 209.73 393.518 209.73H389.759C388.785 209.73 388.089 210.426 388.089 211.4V214.88C388.089 215.855 388.785 216.551 389.759 216.551H393.518C394.492 216.551 395.188 215.855 395.188 214.88Z" fill="#EEF5FF"/>
<path d="M389.341 268.472H468.268C471.33 268.472 473.836 265.967 473.836 262.904V247.314C473.836 244.251 471.33 241.746 468.268 241.746H389.341C386.279 241.746 383.773 244.251 383.773 247.314V262.904C383.773 265.967 386.279 268.472 389.341 268.472Z" fill="#D1E3FF"/>
<path d="M395.188 256.918V253.438C395.188 252.464 394.492 251.768 393.518 251.768H389.759C388.785 251.768 388.089 252.464 388.089 253.438V256.918C388.089 257.893 388.785 258.589 389.759 258.589H393.518C394.492 258.589 395.188 257.893 395.188 256.918Z" fill="#EEF5FF"/>
<path d="M389.341 310.51H468.268C471.33 310.51 473.836 308.005 473.836 304.942V289.352C473.836 286.29 471.33 283.784 468.268 283.784H389.341C386.279 283.784 383.773 286.29 383.773 289.352V304.942C383.773 308.005 386.279 310.51 389.341 310.51Z" fill="#D1E3FF"/>
<path d="M395.188 298.957V295.477C395.188 294.502 394.492 293.807 393.518 293.807H389.759C388.785 293.807 388.089 294.502 388.089 295.477V298.957C388.089 299.931 388.785 300.627 389.759 300.627H393.518C394.492 300.627 395.188 299.792 395.188 298.957Z" fill="#EEF5FF"/>
<path d="M389.341 352.549H468.268C471.33 352.549 473.836 350.043 473.836 346.981V331.391C473.836 328.328 471.33 325.823 468.268 325.823H389.341C386.279 325.823 383.773 328.328 383.773 331.391V346.981C383.773 350.043 386.279 352.549 389.341 352.549Z" fill="#D1E3FF"/>
<path d="M395.188 340.995V337.515C395.188 336.541 394.492 335.845 393.518 335.845H389.759C388.785 335.845 388.089 336.541 388.089 337.515V340.995C388.089 341.97 388.785 342.666 389.759 342.666H393.518C394.492 342.526 395.188 341.83 395.188 340.995Z" fill="#EEF5FF"/>
<path d="M389.341 394.448H468.268C471.33 394.448 473.836 391.942 473.836 388.88V373.29C473.836 370.227 471.33 367.722 468.268 367.722H389.341C386.279 367.722 383.773 370.227 383.773 373.29V388.88C383.773 391.942 386.279 394.448 389.341 394.448Z" fill="#D1E3FF"/>
<path d="M395.188 382.895V379.415C395.188 378.44 394.492 377.744 393.518 377.744H389.759C388.785 377.744 388.089 378.44 388.089 379.415V382.895C388.089 383.869 388.785 384.565 389.759 384.565H393.518C394.492 384.565 395.188 383.869 395.188 382.895Z" fill="#EEF5FF"/>
<path d="M389.341 436.486H468.268C471.33 436.486 473.836 433.981 473.836 430.918V415.328C473.836 412.266 471.33 409.76 468.268 409.76H389.341C386.279 409.76 383.773 412.266 383.773 415.328V430.918C383.773 433.981 386.279 436.486 389.341 436.486Z" fill="#D1E3FF"/>
<path d="M395.188 424.933V421.453C395.188 420.478 394.492 419.782 393.518 419.782H389.759C388.785 419.782 388.089 420.478 388.089 421.453V424.933C388.089 425.907 388.785 426.603 389.759 426.603H393.518C394.492 426.603 395.188 425.907 395.188 424.933Z" fill="#EEF5FF"/>
<path d="M406.045 130.943V127.463C406.045 126.488 405.349 125.792 404.375 125.792H400.617C399.642 125.792 398.946 126.488 398.946 127.463V130.943C398.946 131.917 399.642 132.613 400.617 132.613H404.375C405.349 132.613 406.045 131.778 406.045 130.943Z" fill="#EEF5FF"/>
<path d="M406.045 172.981V169.501C406.045 168.526 405.349 167.83 404.375 167.83H400.617C399.642 167.83 398.946 168.526 398.946 169.501V172.981C398.946 173.955 399.642 174.651 400.617 174.651H404.375C405.349 174.512 406.045 173.816 406.045 172.981Z" fill="#EEF5FF"/>
<path d="M406.045 214.88V211.4C406.045 210.426 405.349 209.73 404.375 209.73H400.617C399.642 209.73 398.946 210.426 398.946 211.4V214.88C398.946 215.855 399.642 216.551 400.617 216.551H404.375C405.349 216.551 406.045 215.855 406.045 214.88Z" fill="#EEF5FF"/>
<path d="M406.045 256.918V253.438C406.045 252.464 405.349 251.768 404.375 251.768H400.617C399.642 251.768 398.946 252.464 398.946 253.438V256.918C398.946 257.893 399.642 258.589 400.617 258.589H404.375C405.349 258.589 406.045 257.893 406.045 256.918Z" fill="#EEF5FF"/>
<path d="M406.045 298.957V295.477C406.045 294.502 405.349 293.807 404.375 293.807H400.617C399.642 293.807 398.946 294.502 398.946 295.477V298.957C398.946 299.931 399.642 300.627 400.617 300.627H404.375C405.349 300.627 406.045 299.792 406.045 298.957Z" fill="#EEF5FF"/>
<path d="M406.045 340.995V337.515C406.045 336.541 405.349 335.845 404.375 335.845H400.617C399.642 335.845 398.946 336.541 398.946 337.515V340.995C398.946 341.97 399.642 342.666 400.617 342.666H404.375C405.349 342.526 406.045 341.83 406.045 340.995Z" fill="#EEF5FF"/>
<path d="M406.045 382.895V379.415C406.045 378.44 405.349 377.744 404.375 377.744H400.617C399.642 377.744 398.946 378.44 398.946 379.415V382.895C398.946 383.869 399.642 384.565 400.617 384.565H404.375C405.349 384.565 406.045 383.869 406.045 382.895Z" fill="#EEF5FF"/>
<path d="M406.045 424.933V421.453C406.045 420.478 405.349 419.782 404.375 419.782H400.617C399.642 419.782 398.946 420.478 398.946 421.453V424.933C398.946 425.907 399.642 426.603 400.617 426.603H404.375C405.349 426.603 406.045 425.907 406.045 424.933Z" fill="#EEF5FF"/>
<path d="M416.903 130.943V127.463C416.903 126.488 416.207 125.792 415.233 125.792H411.474C410.5 125.792 409.804 126.488 409.804 127.463V130.943C409.804 131.917 410.5 132.613 411.474 132.613H415.233C416.068 132.613 416.903 131.778 416.903 130.943Z" fill="#EEF5FF"/>
<path d="M416.903 172.981V169.501C416.903 168.526 416.207 167.83 415.233 167.83H411.474C410.5 167.83 409.804 168.526 409.804 169.501V172.981C409.804 173.955 410.5 174.651 411.474 174.651H415.233C416.068 174.512 416.903 173.816 416.903 172.981Z" fill="#EEF5FF"/>
<path d="M416.903 214.88V211.4C416.903 210.426 416.207 209.73 415.233 209.73H411.474C410.5 209.73 409.804 210.426 409.804 211.4V214.88C409.804 215.855 410.5 216.551 411.474 216.551H415.233C416.068 216.551 416.903 215.855 416.903 214.88Z" fill="#EEF5FF"/>
<path d="M416.903 256.918V253.438C416.903 252.464 416.207 251.768 415.233 251.768H411.474C410.5 251.768 409.804 252.464 409.804 253.438V256.918C409.804 257.893 410.5 258.589 411.474 258.589H415.233C416.068 258.589 416.903 257.893 416.903 256.918Z" fill="#EEF5FF"/>
<path d="M416.903 298.957V295.477C416.903 294.502 416.207 293.807 415.233 293.807H411.474C410.5 293.807 409.804 294.502 409.804 295.477V298.957C409.804 299.931 410.5 300.627 411.474 300.627H415.233C416.068 300.627 416.903 299.792 416.903 298.957Z" fill="#EEF5FF"/>
<path d="M416.903 340.995V337.515C416.903 336.541 416.207 335.845 415.233 335.845H411.474C410.5 335.845 409.804 336.541 409.804 337.515V340.995C409.804 341.97 410.5 342.666 411.474 342.666H415.233C416.068 342.526 416.903 341.83 416.903 340.995Z" fill="#EEF5FF"/>
<path d="M416.903 382.895V379.415C416.903 378.44 416.207 377.744 415.233 377.744H411.474C410.5 377.744 409.804 378.44 409.804 379.415V382.895C409.804 383.869 410.5 384.565 411.474 384.565H415.233C416.068 384.565 416.903 383.869 416.903 382.895Z" fill="#EEF5FF"/>
<path d="M416.903 424.933V421.453C416.903 420.478 416.207 419.782 415.233 419.782H411.474C410.5 419.782 409.804 420.478 409.804 421.453V424.933C409.804 425.907 410.5 426.603 411.474 426.603H415.233C416.068 426.603 416.903 425.907 416.903 424.933Z" fill="#EEF5FF"/>
<path d="M427.761 130.943V127.463C427.761 126.488 427.065 125.792 426.091 125.792H422.332C421.358 125.792 420.662 126.488 420.662 127.463V130.943C420.662 131.917 421.358 132.613 422.332 132.613H426.091C426.926 132.613 427.761 131.778 427.761 130.943Z" fill="#EEF5FF"/>
<path d="M427.761 172.981V169.501C427.761 168.526 427.065 167.83 426.091 167.83H422.332C421.358 167.83 420.662 168.526 420.662 169.501V172.981C420.662 173.955 421.358 174.651 422.332 174.651H426.091C426.926 174.512 427.761 173.816 427.761 172.981Z" fill="#EEF5FF"/>
<path d="M427.761 214.88V211.4C427.761 210.426 427.065 209.73 426.091 209.73H422.332C421.358 209.73 420.662 210.426 420.662 211.4V214.88C420.662 215.855 421.358 216.551 422.332 216.551H426.091C426.926 216.551 427.761 215.855 427.761 214.88Z" fill="#EEF5FF"/>
<path d="M427.761 256.918V253.438C427.761 252.464 427.065 251.768 426.091 251.768H422.332C421.358 251.768 420.662 252.464 420.662 253.438V256.918C420.662 257.893 421.358 258.589 422.332 258.589H426.091C426.926 258.589 427.761 257.893 427.761 256.918Z" fill="#EEF5FF"/>
<path d="M427.761 298.957V295.477C427.761 294.502 427.065 293.807 426.091 293.807H422.332C421.358 293.807 420.662 294.502 420.662 295.477V298.957C420.662 299.931 421.358 300.627 422.332 300.627H426.091C426.926 300.627 427.761 299.792 427.761 298.957Z" fill="#EEF5FF"/>
<path d="M427.761 340.995V337.515C427.761 336.541 427.065 335.845 426.091 335.845H422.332C421.358 335.845 420.662 336.541 420.662 337.515V340.995C420.662 341.97 421.358 342.666 422.332 342.666H426.091C426.926 342.526 427.761 341.83 427.761 340.995Z" fill="#EEF5FF"/>
<path d="M427.761 382.895V379.415C427.761 378.44 427.065 377.744 426.091 377.744H422.332C421.358 377.744 420.662 378.44 420.662 379.415V382.895C420.662 383.869 421.358 384.565 422.332 384.565H426.091C426.926 384.565 427.761 383.869 427.761 382.895Z" fill="#EEF5FF"/>
<path d="M427.761 424.933V421.453C427.761 420.478 427.065 419.782 426.091 419.782H422.332C421.358 419.782 420.662 420.478 420.662 421.453V424.933C420.662 425.907 421.358 426.603 422.332 426.603H426.091C426.926 426.603 427.761 425.907 427.761 424.933Z" fill="#EEF5FF"/>
<path d="M482.745 129.133C482.745 131.499 484.694 133.448 487.2 133.448C489.705 133.448 491.654 131.499 491.654 129.133C491.654 126.767 489.705 124.818 487.2 124.818C484.694 124.957 482.745 126.767 482.745 129.133Z" fill="#EEF5FF"/>
<path d="M495.412 129.133C495.412 131.499 497.361 133.448 499.867 133.448C502.372 133.448 504.321 131.499 504.321 129.133C504.321 126.767 502.372 124.818 499.867 124.818C497.5 124.957 495.412 126.767 495.412 129.133Z" fill="#EEF5FF"/>
<path d="M508.219 129.133C508.219 131.499 510.168 133.448 512.673 133.448C515.179 133.448 517.128 131.499 517.128 129.133C517.128 126.767 515.179 124.818 512.673 124.818C510.168 124.957 508.219 126.767 508.219 129.133Z" fill="#EEF5FF"/>
<path d="M520.886 129.133C520.886 131.499 522.835 133.448 525.34 133.448C527.846 133.448 529.795 131.499 529.795 129.133C529.795 126.767 527.846 124.818 525.34 124.818C522.835 124.957 520.886 126.767 520.886 129.133Z" fill="#EEF5FF"/>
<path d="M482.745 171.171C482.745 173.538 484.694 175.486 487.2 175.486C489.705 175.486 491.654 173.538 491.654 171.171C491.654 168.805 489.705 166.856 487.2 166.856C484.694 166.856 482.745 168.805 482.745 171.171Z" fill="#EEF5FF"/>
<path d="M495.412 171.171C495.412 173.538 497.361 175.486 499.867 175.486C502.372 175.486 504.321 173.538 504.321 171.171C504.321 168.805 502.372 166.856 499.867 166.856C497.5 166.856 495.412 168.805 495.412 171.171Z" fill="#EEF5FF"/>
<path d="M508.219 171.171C508.219 173.538 510.168 175.486 512.673 175.486C515.179 175.486 517.128 173.538 517.128 171.171C517.128 168.805 515.179 166.856 512.673 166.856C510.168 166.856 508.219 168.805 508.219 171.171Z" fill="#EEF5FF"/>
<path d="M520.886 171.171C520.886 173.538 522.835 175.486 525.34 175.486C527.846 175.486 529.795 173.538 529.795 171.171C529.795 168.805 527.846 166.856 525.34 166.856C522.835 166.856 520.886 168.805 520.886 171.171Z" fill="#EEF5FF"/>
<path d="M482.745 213.21C482.745 215.576 484.694 217.525 487.2 217.525C489.705 217.525 491.654 215.576 491.654 213.21C491.654 210.843 489.705 208.895 487.2 208.895C484.694 208.895 482.745 210.843 482.745 213.21Z" fill="#EEF5FF"/>
<path d="M495.412 213.21C495.412 215.576 497.361 217.525 499.867 217.525C502.372 217.525 504.321 215.576 504.321 213.21C504.321 210.843 502.372 208.895 499.867 208.895C497.5 208.895 495.412 210.843 495.412 213.21Z" fill="#EEF5FF"/>
<path d="M508.219 213.21C508.219 215.576 510.168 217.525 512.673 217.525C515.179 217.525 517.128 215.576 517.128 213.21C517.128 210.843 515.179 208.895 512.673 208.895C510.168 208.895 508.219 210.843 508.219 213.21Z" fill="#EEF5FF"/>
<path d="M520.886 213.21C520.886 215.576 522.835 217.525 525.34 217.525C527.846 217.525 529.795 215.576 529.795 213.21C529.795 210.843 527.846 208.895 525.34 208.895C522.835 208.895 520.886 210.843 520.886 213.21Z" fill="#EEF5FF"/>
<path d="M482.745 255.248C482.745 257.614 484.694 259.563 487.2 259.563C489.705 259.563 491.654 257.614 491.654 255.248C491.654 252.882 489.705 250.933 487.2 250.933C484.694 250.933 482.745 252.882 482.745 255.248Z" fill="#EEF5FF"/>
<path d="M495.412 255.248C495.412 257.614 497.361 259.563 499.867 259.563C502.372 259.563 504.321 257.614 504.321 255.248C504.321 252.882 502.372 250.933 499.867 250.933C497.5 250.933 495.412 252.882 495.412 255.248Z" fill="#EEF5FF"/>
<path d="M508.219 255.248C508.219 257.614 510.168 259.563 512.673 259.563C515.179 259.563 517.128 257.614 517.128 255.248C517.128 252.882 515.179 250.933 512.673 250.933C510.168 250.933 508.219 252.882 508.219 255.248Z" fill="#EEF5FF"/>
<path d="M520.886 255.248C520.886 257.614 522.835 259.563 525.34 259.563C527.846 259.563 529.795 257.614 529.795 255.248C529.795 252.882 527.846 250.933 525.34 250.933C522.835 250.933 520.886 252.882 520.886 255.248Z" fill="#EEF5FF"/>
<path d="M482.745 297.147C482.745 299.514 484.694 301.462 487.2 301.462C489.705 301.462 491.654 299.514 491.654 297.147C491.654 294.781 489.705 292.832 487.2 292.832C484.694 292.832 482.745 294.781 482.745 297.147Z" fill="#EEF5FF"/>
<path d="M495.412 297.147C495.412 299.514 497.361 301.462 499.867 301.462C502.372 301.462 504.321 299.514 504.321 297.147C504.321 294.781 502.372 292.832 499.867 292.832C497.5 292.832 495.412 294.781 495.412 297.147Z" fill="#EEF5FF"/>
<path d="M508.219 297.147C508.219 299.514 510.168 301.462 512.673 301.462C515.179 301.462 517.128 299.514 517.128 297.147C517.128 294.781 515.179 292.832 512.673 292.832C510.168 292.832 508.219 294.781 508.219 297.147Z" fill="#EEF5FF"/>
<path d="M520.886 297.147C520.886 299.514 522.835 301.462 525.34 301.462C527.846 301.462 529.795 299.514 529.795 297.147C529.795 294.781 527.846 292.832 525.34 292.832C522.835 292.832 520.886 294.781 520.886 297.147Z" fill="#EEF5FF"/>
<path d="M482.745 339.186C482.745 341.552 484.694 343.501 487.2 343.501C489.705 343.501 491.654 341.552 491.654 339.186C491.654 336.819 489.705 334.87 487.2 334.87C484.694 334.87 482.745 336.819 482.745 339.186Z" fill="#EEF5FF"/>
<path d="M495.412 339.186C495.412 341.552 497.361 343.501 499.867 343.501C502.372 343.501 504.321 341.552 504.321 339.186C504.321 336.819 502.372 334.87 499.867 334.87C497.5 334.87 495.412 336.819 495.412 339.186Z" fill="#EEF5FF"/>
<path d="M508.219 339.186C508.219 341.552 510.168 343.501 512.673 343.501C515.179 343.501 517.128 341.552 517.128 339.186C517.128 336.819 515.179 334.87 512.673 334.87C510.168 334.87 508.219 336.819 508.219 339.186Z" fill="#EEF5FF"/>
<path d="M520.886 339.186C520.886 341.552 522.835 343.501 525.34 343.501C527.846 343.501 529.795 341.552 529.795 339.186C529.795 336.819 527.846 334.87 525.34 334.87C522.835 334.87 520.886 336.819 520.886 339.186Z" fill="#EEF5FF"/>
<path d="M482.745 381.224C482.745 383.591 484.694 385.539 487.2 385.539C489.705 385.539 491.654 383.591 491.654 381.224C491.654 378.858 489.705 376.909 487.2 376.909C484.694 376.909 482.745 378.858 482.745 381.224Z" fill="#EEF5FF"/>
<path d="M495.412 381.224C495.412 383.591 497.361 385.539 499.867 385.539C502.372 385.539 504.321 383.591 504.321 381.224C504.321 378.858 502.372 376.909 499.867 376.909C497.5 376.909 495.412 378.858 495.412 381.224Z" fill="#EEF5FF"/>
<path d="M508.219 381.224C508.219 383.591 510.168 385.539 512.673 385.539C515.179 385.539 517.128 383.591 517.128 381.224C517.128 378.858 515.179 376.909 512.673 376.909C510.168 376.909 508.219 378.858 508.219 381.224Z" fill="#EEF5FF"/>
<path d="M520.886 381.224C520.886 383.591 522.835 385.539 525.34 385.539C527.846 385.539 529.795 383.591 529.795 381.224C529.795 378.858 527.846 376.909 525.34 376.909C522.835 376.909 520.886 378.858 520.886 381.224Z" fill="#EEF5FF"/>
<path d="M482.745 423.262C482.745 425.629 484.694 427.578 487.2 427.578C489.705 427.578 491.654 425.629 491.654 423.262C491.654 420.896 489.705 418.947 487.2 418.947C484.694 418.947 482.745 420.896 482.745 423.262Z" fill="#EEF5FF"/>
<path d="M495.412 423.262C495.412 425.629 497.361 427.578 499.867 427.578C502.372 427.578 504.321 425.629 504.321 423.262C504.321 420.896 502.372 418.947 499.867 418.947C497.5 418.947 495.412 420.896 495.412 423.262Z" fill="#EEF5FF"/>
<path d="M508.219 423.262C508.219 425.629 510.168 427.578 512.673 427.578C515.179 427.578 517.128 425.629 517.128 423.262C517.128 420.896 515.179 418.947 512.673 418.947C510.168 418.947 508.219 420.896 508.219 423.262Z" fill="#EEF5FF"/>
<path d="M520.886 423.262C520.886 425.629 522.835 427.578 525.34 427.578C527.846 427.578 529.795 425.629 529.795 423.262C529.795 420.896 527.846 418.947 525.34 418.947C522.835 418.947 520.886 420.896 520.886 423.262Z" fill="#EEF5FF"/>
<path opacity="0.4" d="M457.829 307.448C528.682 278.634 601.483 326.936 625.008 227.269C639.067 167.691 611.784 110.898 560.002 69.4161C499.867 20.9745 446.971 8.16806 379.598 50.0673C311.53 92.3841 294.826 99.2049 216.874 91.6881C94.656 79.8561 -4.31524 229.357 110.525 315.243C166.344 357.003 250.838 396.118 320.717 396.954C344.52 397.232 376.675 394.726 396.998 380.25C425.395 360.344 420.245 322.621 457.829 307.448Z" fill="#D4E8FF"/>
<path d="M348.001 528.08C497.067 528.08 617.909 521.038 617.909 512.35C617.909 503.663 497.067 496.621 348.001 496.621C198.934 496.621 78.0918 503.663 78.0918 512.35C78.0918 521.038 198.934 528.08 348.001 528.08Z" fill="#197BDD" fill-opacity="0.3"/>
<path d="M328.234 495.09H165.509V513.603H328.234V495.09Z" fill="#0053CC"/>
<g opacity="0.2">
<path d="M173.722 497.735H169.686V510.959H173.722V497.735Z" fill="#0F264C"/>
<path d="M180.961 497.735H176.924V510.959H180.961V497.735Z" fill="#0F264C"/>
<path d="M188.06 497.735H184.023V510.959H188.06V497.735Z" fill="#0F264C"/>
<path d="M195.159 497.735H191.122V510.959H195.159V497.735Z" fill="#0F264C"/>
<path d="M202.397 497.735H198.36V510.959H202.397V497.735Z" fill="#0F264C"/>
<path d="M209.497 497.735H205.46V510.959H209.497V497.735Z" fill="#0F264C"/>
<path d="M216.735 497.735H212.698V510.959H216.735V497.735Z" fill="#0F264C"/>
<path d="M223.835 497.735H219.798V510.959H223.835V497.735Z" fill="#0F264C"/>
<path d="M231.073 497.735H227.036V510.959H231.073V497.735Z" fill="#0F264C"/>
<path d="M238.172 497.735H234.135V510.959H238.172V497.735Z" fill="#0F264C"/>
<path d="M245.271 497.735H241.234V510.959H245.271V497.735Z" fill="#0F264C"/>
<path d="M252.509 497.735H248.473V510.959H252.509V497.735Z" fill="#0F264C"/>
<path d="M259.609 497.735H255.572V510.959H259.609V497.735Z" fill="#0F264C"/>
<path d="M266.847 497.735H262.811V510.959H266.847V497.735Z" fill="#0F264C"/>
<path d="M273.946 497.735H269.909V510.959H273.946V497.735Z" fill="#0F264C"/>
<path d="M281.185 497.735H277.148V510.959H281.185V497.735Z" fill="#0F264C"/>
<path d="M288.284 497.735H284.247V510.959H288.284V497.735Z" fill="#0F264C"/>
<path d="M295.383 497.735H291.347V510.959H295.383V497.735Z" fill="#0F264C"/>
<path d="M302.622 497.735H298.585V510.959H302.622V497.735Z" fill="#0F264C"/>
<path d="M309.72 497.735H305.684V510.959H309.72V497.735Z" fill="#0F264C"/>
<path d="M316.959 497.735H312.922V510.959H316.959V497.735Z" fill="#0F264C"/>
<path d="M324.058 497.735H320.021V510.959H324.058V497.735Z" fill="#0F264C"/>
</g>
<path d="M328.331 513.668H353.665V495.154H328.331V513.668Z" fill="#0050AF"/>
<path d="M328.235 166.856H157.019V495.09H328.235V166.856Z" fill="#4EA4F9"/>
<path d="M350.923 164.072H168.293V166.856H350.923V164.072Z" fill="#0D6AB7"/>
<path d="M151.589 319.837H150.197V333.618H151.589V319.837Z" fill="#197BDD"/>
<path d="M151.589 338.351H150.197V374.264H151.589V338.351Z" fill="#197BDD"/>
<path d="M328.309 495.16H362.135L362.135 166.927H328.309L328.309 495.16Z" fill="#197BDD"/>
<path opacity="0.6" d="M319.742 286.29H165.509C163.003 286.29 160.915 284.202 160.915 281.696V258.171C160.915 255.666 163.003 253.578 165.509 253.578H319.742C322.248 253.578 324.336 255.666 324.336 258.171V281.696C324.336 284.202 322.248 286.29 319.742 286.29Z" fill="#0D6AB7"/>
<path d="M310.555 265.688L304.013 252.047V287.96H310.834H312.643H324.336V270.003H317.515C314.592 270.003 311.808 268.333 310.555 265.688Z" fill="#197BDD"/>
<path d="M324.336 170.893H161.055V206.807H324.336V170.893Z" fill="#2B97EF"/>
<path d="M324.336 455H161.055V490.914H324.336V455Z" fill="#2B97EF"/>
<path d="M324.336 414.354H161.055V450.267H324.336V414.354Z" fill="#2B97EF"/>
<path d="M324.336 373.847H161.055V409.76H324.336V373.847Z" fill="#2B97EF"/>
<path d="M324.336 333.2H161.055V369.114H324.336V333.2Z" fill="#2B97EF"/>
<path d="M324.336 292.693H161.055V328.607H324.336V292.693Z" fill="#2B97EF"/>
<path d="M304.013 252.047H140.731V287.96H304.013V252.047Z" fill="#2B97EF"/>
<path d="M324.336 211.4H161.055V247.314H324.336V211.4Z" fill="#2B97EF"/>
<path d="M314.175 201.656H252.091C249.168 201.656 246.802 199.29 246.802 196.367V181.194C246.802 178.271 249.168 175.904 252.091 175.904H314.175C317.098 175.904 319.464 178.271 319.464 181.194V196.367C319.325 199.29 316.959 201.656 314.175 201.656Z" fill="#197BDD"/>
<path opacity="0.2" d="M285.221 189.824V187.736C285.221 186.483 286.195 185.509 287.448 185.509H307.632C308.885 185.509 309.859 186.483 309.859 187.736V189.824C309.859 191.077 308.885 192.051 307.632 192.051H287.448C286.195 192.051 285.221 191.077 285.221 189.824Z" fill="white"/>
<path d="M314.175 242.303H252.091C249.168 242.303 246.802 239.936 246.802 237.013V221.84C246.802 218.917 249.168 216.551 252.091 216.551H314.175C317.098 216.551 319.464 218.917 319.464 221.84V237.013C319.325 239.936 316.959 242.303 314.175 242.303Z" fill="#197BDD"/>
<path opacity="0.2" d="M285.221 230.471V228.383C285.221 227.13 286.195 226.155 287.448 226.155H307.632C308.885 226.155 309.859 227.13 309.859 228.383V230.471C309.859 231.723 308.885 232.698 307.632 232.698H287.448C286.195 232.698 285.221 231.723 285.221 230.471Z" fill="white"/>
<path d="M293.851 282.81H231.768C228.845 282.81 226.479 280.443 226.479 277.52V262.347C226.479 259.424 228.845 257.058 231.768 257.058H293.851C296.775 257.058 299.141 259.424 299.141 262.347V277.52C299.002 280.443 296.635 282.81 293.851 282.81Z" fill="#197BDD"/>
<path opacity="0.2" d="M264.897 271.117V269.029C264.897 267.776 265.872 266.802 267.125 266.802H287.309C288.561 266.802 289.536 267.776 289.536 269.029V271.117C289.536 272.37 288.561 273.344 287.309 273.344H267.125C265.872 273.344 264.897 272.37 264.897 271.117Z" fill="white"/>
<path d="M314.175 323.456H252.091C249.168 323.456 246.802 321.09 246.802 318.167V302.994C246.802 300.07 249.168 297.704 252.091 297.704H314.175C317.098 297.704 319.464 300.07 319.464 302.994V318.167C319.325 321.09 316.959 323.456 314.175 323.456Z" fill="#197BDD"/>
<path opacity="0.2" d="M285.221 311.624V309.536C285.221 308.283 286.195 307.309 287.448 307.309H307.632C308.885 307.309 309.859 308.283 309.859 309.536V311.624C309.859 312.877 308.885 313.851 307.632 313.851H287.448C286.195 313.851 285.221 312.877 285.221 311.624Z" fill="white"/>
<path d="M314.175 364.103H252.091C249.168 364.103 246.802 361.736 246.802 358.813V343.64C246.802 340.717 249.168 338.351 252.091 338.351H314.175C317.098 338.351 319.464 340.717 319.464 343.64V358.813C319.325 361.736 316.959 364.103 314.175 364.103Z" fill="#197BDD"/>
<path opacity="0.2" d="M285.221 352.271V350.183C285.221 348.93 286.195 347.955 287.448 347.955H307.632C308.885 347.955 309.859 348.93 309.859 350.183V352.271C309.859 353.523 308.885 354.498 307.632 354.498H287.448C286.195 354.498 285.221 353.523 285.221 352.271Z" fill="white"/>
<path d="M314.175 404.61H252.091C249.168 404.61 246.802 402.243 246.802 399.32V384.147C246.802 381.224 249.168 378.858 252.091 378.858H314.175C317.098 378.858 319.464 381.224 319.464 384.147V399.32C319.325 402.243 316.959 404.61 314.175 404.61Z" fill="#197BDD"/>
<path opacity="0.2" d="M285.221 392.917V390.829C285.221 389.576 286.195 388.602 287.448 388.602H307.632C308.885 388.602 309.859 389.576 309.859 390.829V392.917C309.859 394.17 308.885 395.144 307.632 395.144H287.448C286.195 395.144 285.221 394.03 285.221 392.917Z" fill="white"/>
<path d="M314.175 445.256H252.091C249.168 445.256 246.802 442.89 246.802 439.967V424.794C246.802 421.871 249.168 419.504 252.091 419.504H314.175C317.098 419.504 319.464 421.871 319.464 424.794V439.967C319.325 442.89 316.959 445.256 314.175 445.256Z" fill="#197BDD"/>
<path opacity="0.2" d="M285.221 433.424V431.336C285.221 430.083 286.195 429.109 287.448 429.109H307.632C308.885 429.109 309.859 430.083 309.859 431.336V433.424C309.859 434.677 308.885 435.651 307.632 435.651H287.448C286.195 435.651 285.221 434.677 285.221 433.424Z" fill="white"/>
<path d="M314.175 485.763H252.091C249.168 485.763 246.802 483.397 246.802 480.474V465.301C246.802 462.378 249.168 460.011 252.091 460.011H314.175C317.098 460.011 319.464 462.378 319.464 465.301V480.474C319.325 483.397 316.959 485.763 314.175 485.763Z" fill="#197BDD"/>
<path opacity="0.2" d="M285.221 474.071V471.983C285.221 470.73 286.195 469.755 287.448 469.755H307.632C308.885 469.755 309.859 470.73 309.859 471.983V474.071C309.859 475.323 308.885 476.298 307.632 476.298H287.448C286.195 476.298 285.221 475.323 285.221 474.071Z" fill="white"/>
<path d="M234.134 193.026C236.44 193.026 238.31 191.156 238.31 188.85C238.31 186.543 236.44 184.674 234.134 184.674C231.828 184.674 229.958 186.543 229.958 188.85C229.958 191.156 231.828 193.026 234.134 193.026Z" fill="#197BDD"/>
<path d="M222.302 193.026C224.608 193.026 226.478 191.156 226.478 188.85C226.478 186.543 224.608 184.674 222.302 184.674C219.996 184.674 218.126 186.543 218.126 188.85C218.126 191.156 219.996 193.026 222.302 193.026Z" fill="#197BDD"/>
<path d="M210.47 193.026C212.776 193.026 214.646 191.156 214.646 188.85C214.646 186.543 212.776 184.674 210.47 184.674C208.164 184.674 206.294 186.543 206.294 188.85C206.294 191.156 208.164 193.026 210.47 193.026Z" fill="#64B9FF"/>
<path d="M202.675 188.85C202.675 191.077 200.866 193.026 198.499 193.026C196.272 193.026 194.323 191.216 194.323 188.85C194.323 186.623 196.133 184.674 198.499 184.674C200.866 184.674 202.675 186.483 202.675 188.85Z" fill="#197BDD"/>
<path d="M234.134 233.672C236.44 233.672 238.31 231.803 238.31 229.496C238.31 227.19 236.44 225.32 234.134 225.32C231.828 225.32 229.958 227.19 229.958 229.496C229.958 231.803 231.828 233.672 234.134 233.672Z" fill="#197BDD"/>
<path d="M222.302 233.672C224.608 233.672 226.478 231.803 226.478 229.496C226.478 227.19 224.608 225.32 222.302 225.32C219.996 225.32 218.126 227.19 218.126 229.496C218.126 231.803 219.996 233.672 222.302 233.672Z" fill="#197BDD"/>
<path d="M210.47 233.672C212.776 233.672 214.646 231.803 214.646 229.496C214.646 227.19 212.776 225.32 210.47 225.32C208.164 225.32 206.294 227.19 206.294 229.496C206.294 231.803 208.164 233.672 210.47 233.672Z" fill="#197BDD"/>
<path d="M202.675 229.496C202.675 231.723 200.866 233.672 198.499 233.672C196.272 233.672 194.323 231.863 194.323 229.496C194.323 227.269 196.133 225.32 198.499 225.32C200.866 225.32 202.675 227.13 202.675 229.496Z" fill="#64B9FF"/>
<path d="M213.812 274.179C216.118 274.179 217.988 272.31 217.988 270.003C217.988 267.697 216.118 265.827 213.812 265.827C211.505 265.827 209.636 267.697 209.636 270.003C209.636 272.31 211.505 274.179 213.812 274.179Z" fill="#64B9FF"/>
<path d="M201.98 274.179C204.286 274.179 206.156 272.31 206.156 270.003C206.156 267.697 204.286 265.827 201.98 265.827C199.673 265.827 197.804 267.697 197.804 270.003C197.804 272.31 199.673 274.179 201.98 274.179Z" fill="#197BDD"/>
<path d="M190.148 274.179C192.454 274.179 194.324 272.31 194.324 270.003C194.324 267.697 192.454 265.827 190.148 265.827C187.841 265.827 185.972 267.697 185.972 270.003C185.972 272.31 187.841 274.179 190.148 274.179Z" fill="#64B9FF"/>
<path d="M178.316 274.179C180.622 274.179 182.492 272.31 182.492 270.003C182.492 267.697 180.622 265.827 178.316 265.827C176.009 265.827 174.14 267.697 174.14 270.003C174.14 272.31 176.009 274.179 178.316 274.179Z" fill="#197BDD"/>
<path d="M234.134 314.826C236.44 314.826 238.31 312.956 238.31 310.65C238.31 308.343 236.44 306.474 234.134 306.474C231.828 306.474 229.958 308.343 229.958 310.65C229.958 312.956 231.828 314.826 234.134 314.826Z" fill="#64B9FF"/>
<path d="M222.302 314.826C224.608 314.826 226.478 312.956 226.478 310.65C226.478 308.343 224.608 306.474 222.302 306.474C219.996 306.474 218.126 308.343 218.126 310.65C218.126 312.956 219.996 314.826 222.302 314.826Z" fill="#64B9FF"/>
<path d="M210.47 314.826C212.776 314.826 214.646 312.956 214.646 310.65C214.646 308.343 212.776 306.474 210.47 306.474C208.164 306.474 206.294 308.343 206.294 310.65C206.294 312.956 208.164 314.826 210.47 314.826Z" fill="#197BDD"/>
<path d="M202.675 310.65C202.675 312.877 200.866 314.826 198.499 314.826C196.272 314.826 194.323 313.016 194.323 310.65C194.323 308.283 196.133 306.474 198.499 306.474C200.866 306.474 202.675 308.283 202.675 310.65Z" fill="#197BDD"/>
<path d="M234.134 355.333C236.44 355.333 238.31 353.463 238.31 351.157C238.31 348.851 236.44 346.981 234.134 346.981C231.828 346.981 229.958 348.851 229.958 351.157C229.958 353.463 231.828 355.333 234.134 355.333Z" fill="#197BDD"/>
<path d="M222.302 355.333C224.608 355.333 226.478 353.463 226.478 351.157C226.478 348.851 224.608 346.981 222.302 346.981C219.996 346.981 218.126 348.851 218.126 351.157C218.126 353.463 219.996 355.333 222.302 355.333Z" fill="#64B9FF"/>
<path d="M210.47 355.333C212.776 355.333 214.646 353.463 214.646 351.157C214.646 348.851 212.776 346.981 210.47 346.981C208.164 346.981 206.294 348.851 206.294 351.157C206.294 353.463 208.164 355.333 210.47 355.333Z" fill="#197BDD"/>
<path d="M202.675 351.157C202.675 353.384 200.866 355.333 198.499 355.333C196.272 355.333 194.323 353.523 194.323 351.157C194.323 348.93 196.133 346.981 198.499 346.981C200.866 347.12 202.675 348.93 202.675 351.157Z" fill="#197BDD"/>
<path d="M234.134 395.979C236.44 395.979 238.31 394.11 238.31 391.803C238.31 389.497 236.44 387.627 234.134 387.627C231.828 387.627 229.958 389.497 229.958 391.803C229.958 394.11 231.828 395.979 234.134 395.979Z" fill="#197BDD"/>
<path d="M222.302 395.979C224.608 395.979 226.478 394.11 226.478 391.803C226.478 389.497 224.608 387.627 222.302 387.627C219.996 387.627 218.126 389.497 218.126 391.803C218.126 394.11 219.996 395.979 222.302 395.979Z" fill="#197BDD"/>
<path d="M210.47 395.979C212.776 395.979 214.646 394.11 214.646 391.803C214.646 389.497 212.776 387.627 210.47 387.627C208.164 387.627 206.294 389.497 206.294 391.803C206.294 394.11 208.164 395.979 210.47 395.979Z" fill="#64B9FF"/>
<path d="M202.675 391.803C202.675 394.031 200.866 395.979 198.499 395.979C196.272 395.979 194.323 394.17 194.323 391.803C194.323 389.437 196.133 387.627 198.499 387.627C200.866 387.627 202.675 389.437 202.675 391.803Z" fill="#64B9FF"/>
<path d="M238.31 432.45C238.31 434.677 236.5 436.626 234.134 436.626C231.768 436.626 229.958 434.816 229.958 432.45C229.958 430.222 231.768 428.274 234.134 428.274C236.5 428.274 238.31 430.083 238.31 432.45Z" fill="#64B9FF"/>
<path d="M226.478 432.45C226.478 434.677 224.668 436.626 222.302 436.626C220.075 436.626 218.126 434.816 218.126 432.45C218.126 430.222 219.936 428.274 222.302 428.274C224.668 428.274 226.478 430.083 226.478 432.45Z" fill="#197BDD"/>
<path d="M214.646 432.45C214.646 434.677 212.836 436.626 210.47 436.626C208.243 436.626 206.294 434.816 206.294 432.45C206.294 430.222 208.104 428.274 210.47 428.274C212.697 428.274 214.646 430.083 214.646 432.45Z" fill="#197BDD"/>
<path d="M202.675 432.45C202.675 434.677 200.866 436.626 198.499 436.626C196.272 436.626 194.323 434.816 194.323 432.45C194.323 430.222 196.133 428.274 198.499 428.274C200.866 428.274 202.675 430.083 202.675 432.45Z" fill="#197BDD"/>
<path d="M234.134 477.133C236.44 477.133 238.31 475.263 238.31 472.957C238.31 470.651 236.44 468.781 234.134 468.781C231.828 468.781 229.958 470.651 229.958 472.957C229.958 475.263 231.828 477.133 234.134 477.133Z" fill="#197BDD"/>
<path d="M222.302 477.133C224.608 477.133 226.478 475.263 226.478 472.957C226.478 470.651 224.608 468.781 222.302 468.781C219.996 468.781 218.126 470.651 218.126 472.957C218.126 475.263 219.996 477.133 222.302 477.133Z" fill="#197BDD"/>
<path d="M210.47 477.133C212.776 477.133 214.646 475.263 214.646 472.957C214.646 470.651 212.776 468.781 210.47 468.781C208.164 468.781 206.294 470.651 206.294 472.957C206.294 475.263 208.164 477.133 210.47 477.133Z" fill="#64B9FF"/>
<path d="M202.675 472.957C202.675 475.184 200.866 477.133 198.499 477.133C196.272 477.133 194.323 475.323 194.323 472.957C194.323 470.59 196.133 468.781 198.499 468.781C200.866 468.781 202.675 470.73 202.675 472.957Z" fill="#197BDD"/>
<path opacity="0.2" d="M186.111 188.85C186.111 193.861 182.074 197.898 177.063 197.898C172.051 197.898 168.015 193.861 168.015 188.85C168.015 183.839 172.051 179.802 177.063 179.802C182.213 179.802 186.111 183.839 186.111 188.85Z" fill="white"/>
<path opacity="0.2" d="M186.111 229.496C186.111 234.507 182.074 238.544 177.063 238.544C172.051 238.544 168.015 234.507 168.015 229.496C168.015 224.485 172.051 220.448 177.063 220.448C182.213 220.448 186.111 224.485 186.111 229.496Z" fill="white"/>
<path opacity="0.2" d="M165.787 270.003C165.787 275.015 161.751 279.051 156.739 279.051C151.728 279.051 147.691 275.015 147.691 270.003C147.691 264.992 151.728 260.955 156.739 260.955C161.89 261.095 165.787 264.992 165.787 270.003Z" fill="white"/>
<path opacity="0.2" d="M186.111 310.65C186.111 315.661 182.074 319.698 177.063 319.698C172.051 319.698 168.015 315.661 168.015 310.65C168.015 305.638 172.051 301.602 177.063 301.602C182.213 301.602 186.111 305.638 186.111 310.65Z" fill="white"/>
<path opacity="0.2" d="M186.111 351.157C186.111 356.168 182.074 360.205 177.063 360.205C172.051 360.205 168.015 356.168 168.015 351.157C168.015 346.146 172.051 342.109 177.063 342.109C182.213 342.248 186.111 346.285 186.111 351.157Z" fill="white"/>
<path opacity="0.2" d="M186.111 391.803C186.111 396.815 182.074 400.851 177.063 400.851C172.051 400.851 168.015 396.815 168.015 391.803C168.015 386.792 172.051 382.755 177.063 382.755C182.213 382.755 186.111 386.792 186.111 391.803Z" fill="white"/>
<path opacity="0.2" d="M186.111 432.45C186.111 437.461 182.074 441.498 177.063 441.498C172.051 441.498 168.015 437.461 168.015 432.45C168.015 427.439 172.051 423.402 177.063 423.402C182.213 423.402 186.111 427.439 186.111 432.45Z" fill="white"/>
<path opacity="0.2" d="M186.111 472.957C186.111 477.968 182.074 482.005 177.063 482.005C172.051 482.005 168.015 477.968 168.015 472.957C168.015 467.946 172.051 463.909 177.063 463.909C182.213 464.048 186.111 467.946 186.111 472.957Z" fill="white"/>
<path d="M309.86 135.536C308.607 128.576 304.292 122.73 298.445 119.389C298.445 119.25 298.445 118.971 298.445 118.832C298.445 106.026 288.005 95.5857 275.199 95.5857H266.29V97.3953C260.305 99.9009 255.711 104.773 253.484 110.758C252.788 110.619 251.953 110.619 251.117 110.619C245.271 110.619 240.26 114.238 238.172 119.389C235.249 118.693 232.047 118.693 228.567 120.085C222.303 122.59 217.988 128.437 217.849 135.258C217.709 144.584 225.226 152.24 234.413 152.24H267.265H297.332C304.153 152.24 309.999 146.811 310.138 139.851V139.712C310.138 138.181 309.999 136.789 309.86 135.536Z" fill="#197BDD"/>
<path d="M300.951 135.536C299.698 128.576 295.383 122.73 289.536 119.389C289.536 119.25 289.536 118.971 289.536 118.832C289.536 106.026 279.096 95.5857 266.29 95.5857C256.267 95.5857 247.776 101.85 244.575 110.758C243.879 110.619 243.043 110.619 242.208 110.619C236.362 110.619 231.351 114.238 229.263 119.389C226.339 118.693 223.138 118.693 219.658 120.085C213.394 122.59 209.079 128.437 208.939 135.258C208.8 144.584 216.317 152.24 225.504 152.24H258.355H288.423C295.243 152.24 301.09 146.811 301.229 139.851V139.712C301.229 138.181 301.09 136.789 300.951 135.536Z" fill="#4EA4F9"/>
<path d="M267.96 80.9697H266.847V84.4497H267.96V80.9697Z" fill="#0053CC"/>
<path d="M491.933 160.314H490.819V153.354H491.933V160.314ZM491.933 146.533H490.819V139.573H491.933V146.533ZM491.933 132.613H490.819V125.653H491.933V132.613ZM491.933 118.693H490.819V111.733H491.933V118.693ZM491.933 104.773H490.819V97.8129H491.933V104.773ZM491.933 90.8529H490.819V83.8929H491.933V90.8529ZM491.933 76.9329H490.819V69.9729H491.933V76.9329ZM267.96 74.0097H266.847V69.2769C266.847 68.5809 266.847 67.7457 266.986 67.0497L268.099 67.1889C267.96 67.8849 267.96 68.5809 267.96 69.2769V74.0097ZM489.706 63.2913C489.01 61.2033 487.757 59.2545 486.365 57.5841L487.2 56.8881C488.731 58.6977 489.984 60.7857 490.819 63.0129L489.706 63.2913ZM270.187 60.7857L269.213 60.2289C270.327 58.1409 271.858 56.3313 273.807 54.8001L274.503 55.6353C272.693 57.0273 271.162 58.8369 270.187 60.7857ZM481.075 53.5473C479.127 52.5729 476.899 51.8769 474.672 51.7377L474.811 50.6241C477.178 50.7633 479.544 51.4593 481.632 52.5729L481.075 53.5473ZM280.21 52.4337L279.792 51.3201C281.602 50.7633 283.551 50.4849 285.499 50.4849H286.891V51.5985H285.499C283.829 51.5985 282.019 51.8769 280.21 52.4337ZM467.712 51.5985H460.752V50.4849H467.712V51.5985ZM453.792 51.5985H446.832V50.4849H453.792V51.5985ZM439.872 51.5985H432.912V50.4849H439.872V51.5985ZM425.952 51.5985H418.992V50.4849H425.952V51.5985ZM412.032 51.5985H405.072V50.4849H412.032V51.5985ZM398.112 51.5985H391.152V50.4849H398.112V51.5985ZM384.331 51.5985H377.371V50.4849H384.331V51.5985ZM370.411 51.5985H363.451V50.4849H370.411V51.5985ZM356.491 51.5985H349.531V50.4849H356.491V51.5985ZM342.571 51.5985H335.611V50.4849H342.571V51.5985ZM328.651 51.5985H321.691V50.4849H328.651V51.5985ZM314.731 51.5985H307.771V50.4849H314.731V51.5985ZM300.811 51.5985H293.851V50.4849H300.811V51.5985Z" fill="#0053CC"/>
<path d="M491.794 167.413H490.681V170.893H491.794V167.413Z" fill="#0053CC"/>
<path d="M398.391 503.163H408.552L409.666 479.499H399.504L398.391 503.163Z" fill="#FFDBBA"/>
<path d="M408.97 502.05H397.834C397.416 502.05 396.999 502.328 396.999 502.746L395.328 511.794C395.189 512.768 395.885 513.603 396.859 513.603C400.896 513.603 406.743 513.325 411.754 513.325C417.739 513.325 418.575 513.603 425.395 513.603C429.571 513.603 430.546 509.427 428.875 509.01C420.802 507.2 418.575 507.061 411.475 502.746C410.64 502.328 409.805 502.05 408.97 502.05Z" fill="#14365B"/>
<path d="M409.666 479.499L409.109 491.749H398.947L399.504 479.499H409.666Z" fill="#EA7063"/>
<path d="M466.877 162.819C466.738 166.021 466.459 169.501 466.32 172.981C466.181 176.322 466.181 179.802 466.181 183.143C466.181 186.483 466.32 189.824 466.598 193.026C466.877 196.227 467.294 199.29 468.13 201.935C468.408 203.327 468.965 204.44 469.382 205.136C469.382 205.275 469.661 205.693 469.939 205.971L470.635 206.946C471.053 207.642 471.47 208.338 472.027 209.034C473.837 211.818 475.925 214.463 478.013 217.107C482.189 222.536 486.782 227.826 491.237 233.115L485.947 239.379C479.683 235.343 473.976 230.888 468.547 225.877C465.763 223.371 463.258 220.727 460.752 217.803C460.195 217.107 459.499 216.411 458.942 215.576L458.107 214.463C457.829 214.045 457.55 213.767 457.133 213.21C455.602 210.983 454.766 208.755 453.931 206.807C452.4 202.631 451.704 198.733 451.147 194.975C450.59 191.077 450.312 187.319 450.173 183.699C450.034 179.941 450.034 176.322 450.173 172.563C450.312 168.805 450.451 165.325 450.869 161.427L466.877 162.819Z" fill="#FFDBBA"/>
<path d="M470.497 183.839L466.182 185.509L458.943 188.432L445.998 193.583C445.998 193.583 440.151 162.819 443.214 153.493C446.694 143.192 459.082 143.471 465.764 155.163C472.306 166.578 470.497 183.839 470.497 183.839Z" fill="#9FC6FF"/>
<path d="M465.624 185.787L458.943 188.432C457.829 183.56 456.855 175.486 460.056 169.501C464.511 173.259 465.207 180.915 465.624 185.787Z" fill="#77B3FC"/>
<path d="M458.943 228.522H402.985C402.567 223.511 403.82 209.869 402.985 191.355C402.846 187.04 402.428 182.586 402.01 177.853C401.036 167.97 399.366 157.112 396.721 145.837C396.721 145.837 406.325 143.888 415.373 143.471C422.473 143.192 432.913 142.914 439.177 143.471C447.529 144.167 455.463 146.394 455.463 146.394C455.463 146.394 468.548 169.779 458.943 228.522Z" fill="#9FC6FF"/>
<path d="M402.984 191.355C402.845 187.04 402.427 182.586 402.01 177.853C403.819 176.739 406.186 176.6 406.603 183.282C407.16 189.407 405.072 191.077 402.984 191.355Z" fill="#77B3FC"/>
<path d="M506.967 240.771L498.893 245.782L488.871 243.694L496.805 233.811L506.967 240.771Z" fill="#FFDBBA"/>
<path d="M487.478 232.28L496.805 233.811L488.87 243.695C488.87 243.695 483.859 243.138 482.606 236.456L487.478 232.28Z" fill="#FFDBBA"/>
<path d="M416.765 116.605C418.575 124.261 420.523 138.32 415.373 143.331C415.373 143.331 418.018 148.482 432.216 148.482C445.162 148.482 439.176 143.331 439.176 143.331C430.546 141.243 430.546 134.979 431.799 128.994L416.765 116.605Z" fill="#FFDBBA"/>
<path d="M422.889 121.755L431.798 129.133C431.52 130.525 431.241 131.917 431.241 133.309C428.597 135.954 423.307 129.272 422.889 125.792C422.611 124.122 422.611 122.591 422.889 121.755Z" fill="#F9C199"/>
<path d="M447.111 97.2561C450.73 101.711 446.554 115.631 439.176 115.213C431.799 114.795 440.429 88.7649 447.111 97.2561Z" fill="#0F264C"/>
<path d="M418.296 103.938C417.461 114.239 416.486 120.224 420.941 126.349C427.622 135.536 440.985 133.17 444.883 123.426C448.363 114.656 449.059 99.2049 439.593 93.3585C430.267 87.6513 419.131 93.6369 418.296 103.938Z" fill="#FFDBBA"/>
<path d="M414.538 90.9921L425.674 94.8897C420.802 101.432 427.901 116.883 419.27 113.96C415.373 112.568 402.427 98.3697 414.538 90.9921Z" fill="#0F264C"/>
<path d="M419.967 93.6369C424.143 96.6993 441.264 100.458 451.008 94.8897C448.503 94.3329 445.162 92.6625 445.162 92.6625C445.162 92.6625 452.539 92.3841 455.741 86.9553C448.781 88.0689 444.048 85.9809 442.239 85.2849C445.44 84.5889 448.781 81.2481 449.755 78.8817C436.253 79.0209 407.16 81.8049 412.171 91.2705C417.461 100.875 419.967 93.6369 419.967 93.6369Z" fill="#0F264C"/>
<path d="M414.12 92.3841C414.12 92.3841 410.78 90.8529 408.552 88.4865C407.996 90.0177 407.996 94.3329 414.12 92.3841Z" fill="#0F264C"/>
<path d="M412.032 114.378C413.146 117.022 415.373 118.832 417.461 119.806C420.663 121.059 422.611 118.414 421.915 115.074C421.359 112.15 418.853 107.974 415.512 107.974C412.311 108.114 410.779 111.454 412.032 114.378Z" fill="#FFDBBA"/>
<path d="M429.711 503.163H440.012L442.1 479.499H431.938L429.711 503.163Z" fill="#FFDBBA"/>
<path d="M440.429 502.05H429.293C428.875 502.05 428.458 502.328 428.458 502.746L426.787 511.794C426.648 512.768 427.344 513.603 428.318 513.603C432.355 513.603 438.202 513.325 443.213 513.325C449.198 513.325 454.21 513.603 461.17 513.603C465.346 513.603 466.32 509.427 464.65 509.01C456.576 507.2 450.034 507.061 442.934 502.746C442.238 502.328 441.403 502.05 440.429 502.05Z" fill="#14365B"/>
<path d="M442.099 479.499L440.986 491.749H430.824L431.938 479.499H442.099Z" fill="#EA7063"/>
<path d="M444.744 503.581C445.579 503.72 446.275 503.72 446.832 503.302C447.25 503.024 447.528 502.606 447.528 502.05C447.528 501.632 447.389 501.354 447.25 501.354C446.136 500.658 442.517 502.05 442.099 502.328C441.96 502.328 441.96 502.467 441.96 502.606C441.96 502.746 441.96 502.746 442.099 502.885C442.795 503.163 443.77 503.442 444.744 503.581ZM446.554 501.771C446.693 501.771 446.832 501.771 446.832 501.91C446.832 501.91 446.971 502.05 446.971 502.189C446.971 502.606 446.832 502.885 446.554 503.024C445.997 503.442 444.605 503.302 442.795 502.606C444.048 502.05 445.718 501.632 446.554 501.771Z" fill="#407BFF"/>
<path d="M442.1 502.885C443.353 502.467 445.719 500.519 445.58 499.405C445.58 499.127 445.441 498.848 444.884 498.709C444.466 498.57 444.188 498.709 443.77 498.848C442.378 499.683 441.821 502.606 441.821 502.746C441.96 502.606 441.961 502.746 442.1 502.885ZM444.744 498.987C445.162 499.127 445.162 499.266 445.162 499.266C445.162 499.962 443.631 501.493 442.517 502.05C442.796 501.214 443.353 499.544 444.188 498.987C444.327 498.987 444.466 498.987 444.744 498.987Z" fill="#407BFF"/>
<path d="M426.927 488.826H443.631C443.631 488.826 469.243 390.968 468.826 357.699C468.408 325.823 459.082 228.522 459.082 228.522H422.333C422.333 228.522 425.256 250.098 428.458 276.824C431.381 300.349 434.583 327.911 436.392 347.955C436.949 353.941 437.367 359.231 437.645 363.546C439.315 396.258 426.927 488.826 426.927 488.826Z" fill="#0053CC"/>
<path d="M428.318 276.824C431.242 300.349 434.443 327.91 436.253 347.955C440.15 330.416 449.616 279.608 435.418 253.856C431.798 259.006 429.571 267.776 428.318 276.824Z" fill="#004DAA"/>
<path d="M439.037 228.522C439.037 228.522 437.645 322.343 432.216 352.271C426.231 385.122 414.399 488.826 414.399 488.826H395.328C395.328 488.826 398.112 387.767 401.035 355.333C404.237 320.115 402.984 228.661 402.984 228.661H439.037V228.522Z" fill="#0053CC"/>
<path d="M394.493 489.243H415.234L416.765 481.448L393.797 480.752L394.493 489.243Z" fill="#0F264C"/>
<path d="M425.952 489.243H446.693L448.224 481.448L425.396 481.866L425.952 489.243Z" fill="#0F264C"/>
<path d="M402.567 477.551C402.428 477.551 402.428 477.411 402.428 477.411C402.567 476.437 403.959 385.678 406.604 356.586C409.388 324.848 407.717 240.911 407.717 240.215C407.717 240.075 407.857 240.075 407.857 240.075C407.996 240.075 407.996 240.215 407.996 240.215C407.996 240.911 409.666 324.987 406.882 356.586C404.237 385.818 402.845 476.437 402.706 477.411C402.706 477.411 402.706 477.551 402.567 477.551Z" fill="#9FC6FF"/>
<path d="M433.469 109.645C433.33 110.48 433.748 111.176 434.305 111.315C434.861 111.455 435.418 110.759 435.557 109.923C435.697 109.088 435.279 108.392 434.722 108.253C434.165 108.253 433.609 108.81 433.469 109.645Z" fill="#0F264C"/>
<path d="M443.074 110.758C442.935 111.594 443.352 112.29 443.909 112.429C444.466 112.568 445.023 111.872 445.162 111.037C445.301 110.202 444.883 109.506 444.327 109.366C443.77 109.366 443.213 109.923 443.074 110.758Z" fill="#0F264C"/>
<path d="M439.872 111.037C439.872 111.037 441.125 116.187 442.934 118.832C441.264 119.946 438.897 118.832 438.897 118.832L439.872 111.037Z" fill="#F9C199"/>
<path d="M437.089 122.312C437.228 122.312 437.367 122.173 437.367 122.034C437.367 121.894 437.228 121.755 437.089 121.755C433.33 121.198 431.938 118.414 431.938 118.414C431.938 118.275 431.66 118.275 431.66 118.275C431.521 118.275 431.521 118.414 431.521 118.554C431.521 118.832 433.052 121.755 437.089 122.312Z" fill="#0F264C"/>
<path d="M430.964 103.659C431.103 103.659 431.242 103.659 431.381 103.52C433.052 102.128 434.861 102.685 434.861 102.685C435.14 102.824 435.418 102.685 435.418 102.406C435.557 102.128 435.418 101.85 435.14 101.71C435.001 101.71 432.913 101.014 430.685 102.685C430.407 102.824 430.407 103.102 430.685 103.381C430.685 103.52 430.825 103.52 430.964 103.659Z" fill="#0F264C"/>
<path d="M404.933 143.888L407.578 143.61C407.856 143.61 408.135 143.749 408.135 144.027C416.904 183.56 414.26 225.459 414.26 225.459H411.336C412.172 182.029 405.49 149.039 404.516 144.445C404.516 144.167 404.655 143.888 404.933 143.888Z" fill="#318FFF"/>
<path d="M411.893 226.434H413.842C414.399 226.434 414.817 226.016 414.817 225.459C414.817 224.903 414.399 224.485 413.842 224.485H411.893C411.337 224.485 410.919 224.903 410.919 225.459C410.919 226.016 411.476 226.434 411.893 226.434Z" fill="#0F264C"/>
<path d="M414.26 228.939L414.121 226.295C414.121 225.599 413.564 225.042 412.868 225.042C412.172 225.042 411.615 225.599 411.615 226.295L411.754 228.939C411.754 229.635 412.311 230.192 413.007 230.192C413.703 230.192 414.26 229.635 414.26 228.939Z" fill="#0F264C"/>
<path d="M447.528 105.747C447.667 105.747 447.667 105.747 447.807 105.747C448.085 105.608 448.224 105.33 448.085 105.19C447.25 102.546 445.023 101.85 445.023 101.85C444.744 101.71 444.466 101.85 444.466 102.128C444.326 102.406 444.605 102.685 444.744 102.685C444.883 102.685 446.554 103.242 447.111 105.33C447.111 105.608 447.25 105.747 447.528 105.747Z" fill="#0F264C"/>
<path d="M402.985 162.402C401.453 168.944 399.783 175.765 398.391 182.447C397.695 185.787 396.999 189.128 396.581 192.33C396.164 195.531 395.607 198.872 395.746 201.378C395.885 206.667 397.834 212.096 401.453 216.829C403.263 219.195 405.49 221.562 407.857 223.65C409.109 224.763 410.362 225.738 411.615 226.712C412.311 227.13 412.868 227.687 413.564 228.104C414.26 228.522 414.956 229.079 415.513 229.357L412.45 237.013C411.337 236.735 410.501 236.456 409.527 236.039C408.692 235.621 407.717 235.343 406.882 234.925C405.073 234.09 403.402 233.255 401.732 232.28C398.391 230.331 395.189 227.965 392.266 225.042C389.343 222.119 386.837 218.778 384.749 215.019C382.801 211.122 381.409 206.946 380.991 202.491C380.573 198.037 380.713 194.279 380.991 190.381C381.269 186.623 381.826 183.003 382.383 179.384C383.497 172.146 385.167 165.186 387.116 158.087L402.985 162.402Z" fill="#FFDBBA"/>
<path d="M396.72 145.837C385.584 147.786 379.32 177.435 379.32 177.435L406.743 187.179C406.743 187.179 408.831 177.435 406.743 164.629C404.794 152.101 407.16 143.888 396.72 145.837Z" fill="#9FC6FF"/>
<path d="M449.338 144.445L451.983 145.002C452.261 145.002 452.401 145.28 452.401 145.419C459.361 184.952 454.767 225.599 454.767 225.599H451.844C454.628 182.586 449.617 150.152 448.781 145.141C448.642 144.723 448.921 144.445 449.338 144.445Z" fill="#318FFF"/>
<path d="M452.261 226.434H454.21C454.767 226.434 455.185 226.016 455.185 225.459C455.185 224.903 454.767 224.485 454.21 224.485H452.261C451.705 224.485 451.287 224.903 451.287 225.459C451.287 226.016 451.705 226.434 452.261 226.434Z" fill="#0F264C"/>
<path d="M454.489 228.939V226.295C454.489 225.599 453.932 225.042 453.236 225.042C452.54 225.042 451.983 225.599 451.983 226.295V228.939C451.983 229.635 452.54 230.192 453.236 230.192C453.932 230.192 454.489 229.635 454.489 228.939Z" fill="#0F264C"/>
<path d="M413.285 503.581C414.12 503.72 414.816 503.72 415.373 503.302C415.791 503.024 416.069 502.606 416.069 502.05C416.069 501.632 415.93 501.354 415.791 501.354C414.677 500.658 411.058 502.05 410.64 502.328C410.501 502.328 410.501 502.467 410.501 502.606C410.501 502.746 410.501 502.746 410.64 502.885C411.336 503.163 412.311 503.442 413.285 503.581ZM415.095 501.771C415.234 501.771 415.373 501.771 415.373 501.91C415.373 501.91 415.512 502.05 415.512 502.189C415.512 502.606 415.373 502.885 415.095 503.024C414.538 503.442 413.146 503.302 411.336 502.606C412.589 502.05 414.259 501.632 415.095 501.771Z" fill="#407BFF"/>
<path d="M410.641 502.885C411.894 502.467 414.26 500.519 414.121 499.405C414.121 499.127 413.982 498.848 413.425 498.709C413.007 498.57 412.729 498.709 412.311 498.848C410.919 499.683 410.362 502.606 410.362 502.746C410.362 502.606 410.502 502.746 410.641 502.885ZM413.286 498.987C413.703 499.127 413.703 499.266 413.703 499.266C413.703 499.962 412.172 501.493 411.058 502.05C411.337 501.214 411.894 499.544 412.729 498.987C412.868 498.987 413.007 498.987 413.286 498.987Z" fill="#407BFF"/>
<path d="M407.021 235.064L410.223 229.218L418.993 229.496L425.813 232.28L430.407 239.101L418.436 238.405C418.575 238.405 411.337 240.493 407.021 235.064Z" fill="#FFDBBA"/>
<path d="M431.381 148.621L429.293 147.09L424.978 151.266L431.381 148.621Z" fill="#77B3FC"/>
<path d="M429.293 147.09C429.293 147.09 425.813 152.101 425.256 155.72C420.941 153.911 412.589 149.456 411.336 143.192C413.006 142.914 415.651 141.104 415.651 141.104C415.651 141.104 420.106 144.863 429.293 147.09Z" fill="#318FFF"/>
<path d="M431.381 148.621L432.077 146.811L437.923 151.266L431.381 148.621Z" fill="#77B3FC"/>
<path d="M432.077 146.811C432.077 146.811 435.836 150.013 436.532 154.885C440.708 153.075 442.239 147.229 440.986 143.47C438.62 142.357 435.836 141.8 435.836 141.8C435.836 141.8 436.392 145.558 432.077 146.811Z" fill="#318FFF"/>
<path d="M532.301 188.293L444.744 185.23L432.077 236.456L519.634 239.518L532.301 188.293Z" fill="#318FFF"/>
<path d="M535.085 188.432L447.389 185.37L434.722 236.595L522.418 239.658L535.085 188.432Z" fill="#0F264C"/>
<path d="M522.418 239.658L522 242.581L434.443 239.379L434.722 236.595L522.418 239.658Z" fill="#0F264C"/>
<path d="M434.722 236.595L434.444 239.379L399.922 238.266L400.34 235.342L434.722 236.595Z" fill="#318FFF"/>
</svg>
