<svg width="235" height="39" viewBox="0 0 235 39" fill="none" xmlns="http://www.w3.org/2000/svg">
<path d="M98.7762 17.9521V19.7061H92.2034V38.5516H90.1888V19.7061H83.6111V17.9521H98.7762Z" fill="black"/>
<path d="M106.34 38.5516V17.9521H118.185V19.7061H108.355V26.8682H117.122V28.5929H108.355V36.7977H118.957V38.5516H106.34Z" fill="black"/>
<path d="M139.301 36.7977V38.5516H127.631V17.9521H129.646V36.7977H139.301Z" fill="black"/>
<path d="M146.384 38.5516V17.9521H158.229V19.7061H148.398V26.8682H157.165V28.5929H148.398V36.7977H159V38.5516H146.384Z" fill="black"/>
<path d="M175.213 38.9999C173.892 38.9999 172.659 38.7612 171.528 38.2886C170.392 37.8111 169.407 37.1192 168.567 36.2081C167.727 35.2971 167.067 34.1716 166.582 32.8366C166.096 31.4968 165.854 29.9669 165.854 28.2422C165.854 26.5174 166.116 24.9876 166.64 23.6477C167.164 22.3079 167.858 21.1873 168.727 20.2762C169.596 19.3651 170.601 18.6781 171.747 18.2104C172.892 17.7427 174.087 17.5137 175.329 17.5137C176.101 17.5137 176.8 17.5624 177.431 17.6647C178.062 17.7622 178.616 17.8888 179.091 18.035C179.567 18.186 179.97 18.3322 180.305 18.4832C180.64 18.6343 180.897 18.7658 181.077 18.8828L180.426 20.6367C179.931 20.3395 179.305 20.0472 178.548 19.7597C177.786 19.4723 176.844 19.331 175.723 19.331C174.436 19.331 173.32 19.5502 172.363 19.9839C171.407 20.4224 170.601 21.0362 169.951 21.8255C169.3 22.6197 168.81 23.56 168.485 24.6514C168.159 25.7427 167.994 26.951 167.994 28.2763C167.994 29.6453 168.154 30.878 168.485 31.9791C168.81 33.0802 169.29 34.0157 169.921 34.7903C170.553 35.565 171.329 36.1594 172.247 36.5736C173.164 36.9877 174.218 37.1972 175.402 37.1972C176.703 37.1972 177.795 37.0754 178.674 36.8269C179.553 36.5784 180.218 36.3251 180.674 36.0669L181.237 37.7916C181.096 37.889 180.863 38.006 180.528 38.1326C180.193 38.2593 179.766 38.3957 179.257 38.5322C178.742 38.6686 178.15 38.7855 177.48 38.8732C176.79 38.956 176.043 38.9999 175.213 38.9999Z" fill="black"/>
<path d="M205.787 28.2373C205.787 30.001 205.53 31.5552 205.015 32.9048C204.5 34.2544 203.806 35.375 202.928 36.2763C202.049 37.1777 201.03 37.8549 199.864 38.3129C198.699 38.766 197.466 38.995 196.161 38.995C194.86 38.995 193.622 38.766 192.457 38.3129C191.292 37.8549 190.267 37.1777 189.394 36.2763C188.515 35.375 187.821 34.2495 187.306 32.9048C186.792 31.5552 186.534 30.001 186.534 28.2373C186.534 26.4736 186.792 24.9242 187.306 23.5844C187.821 22.2445 188.515 21.1288 189.394 20.2275C190.272 19.3261 191.292 18.6489 192.457 18.1909C193.622 17.7378 194.855 17.5088 196.161 17.5088C197.462 17.5088 198.695 17.7378 199.864 18.1909C201.03 18.6489 202.049 19.3261 202.928 20.2275C203.806 21.1288 204.5 22.2494 205.015 23.5844C205.53 24.9242 205.787 26.4736 205.787 28.2373ZM203.651 28.2373C203.651 26.8487 203.471 25.6063 203.117 24.5052C202.763 23.4041 202.258 22.4686 201.607 21.694C200.957 20.9193 200.17 20.3298 199.253 19.9254C198.335 19.521 197.301 19.3164 196.161 19.3164C195.015 19.3164 193.986 19.521 193.068 19.9254C192.151 20.3298 191.364 20.9193 190.714 21.694C190.063 22.4686 189.559 23.4041 189.204 24.5052C188.85 25.6063 188.67 26.8487 188.67 28.2373C188.67 29.6258 188.85 30.8682 189.204 31.9694C189.559 33.0705 190.063 34.0059 190.714 34.7806C191.364 35.5553 192.151 36.1497 193.068 36.5638C193.986 36.9779 195.015 37.1874 196.161 37.1874C197.306 37.1874 198.335 36.9779 199.253 36.5638C200.17 36.1497 200.957 35.5553 201.607 34.7806C202.258 34.0059 202.763 33.0705 203.117 31.9694C203.476 30.8682 203.651 29.6258 203.651 28.2373Z" fill="black"/>
<path d="M222.437 35.5796C222.238 35.0827 221.956 34.4298 221.587 33.6161C221.218 32.8025 220.811 31.9158 220.354 30.9559C219.898 29.9961 219.432 29.0022 218.956 27.9839C218.48 26.9656 218.024 26.0058 217.587 25.1142C217.15 24.2226 216.762 23.4382 216.427 22.7658C216.092 22.0935 215.84 21.616 215.684 21.3383C215.427 23.8182 215.223 26.5077 215.077 29.4066C214.927 32.3104 214.796 35.3555 214.679 38.5468H212.694C212.874 34.8001 213.073 31.2142 213.301 27.789C213.529 24.359 213.81 21.0801 214.145 17.9521H215.922C216.514 18.9412 217.15 20.0862 217.82 21.387C218.49 22.683 219.16 24.0326 219.825 25.4309C220.485 26.8292 221.131 28.2032 221.752 29.5625C222.374 30.9218 222.922 32.1447 223.398 33.2312C223.874 32.1399 224.422 30.917 225.044 29.5625C225.665 28.2032 226.311 26.8292 226.971 25.4309C227.631 24.0326 228.301 22.6879 228.976 21.387C229.646 20.091 230.281 18.9461 230.874 17.9521H232.563C232.898 21.0849 233.18 24.3639 233.408 27.789C233.636 31.219 233.835 34.8049 234.014 38.5468H231.971C231.854 35.3555 231.718 32.3104 231.573 29.4066C231.422 26.5028 231.223 23.8134 230.966 21.3383C230.806 21.616 230.563 22.0935 230.228 22.7658C229.893 23.4382 229.505 24.2226 229.073 25.1142C228.641 26.0058 228.184 26.9608 227.709 27.9839C227.233 29.0071 226.772 29.9961 226.315 30.9559C225.859 31.9158 225.451 32.8025 225.087 33.6161C224.723 34.4298 224.442 35.0827 224.243 35.5796H222.437Z" fill="black"/>
<path d="M66.7776 28.4176L81.4087 17.9619H71.8456L61.996 25.0168V17.9619H55.6173V38.5614H61.996V31.677L71.8456 38.5614H81.5204L66.7776 28.4176Z" fill="#4DAEEB"/>
<path d="M32.7575 0.017812C22.0438 -0.41581 16.0972 7.1604 13.7962 12.627C12.3642 12.8121 10.4321 13.1921 8.46122 13.9814C3.00488 16.1739 0 20.4468 0 26.0254C0 31.1704 2.71846 35.1217 7.66024 37.1534C10.9855 38.5176 14.1943 38.5566 14.5486 38.5566H23.3302V32.1546H14.5632C13.7234 32.1497 6.37383 31.9158 6.37383 26.0254C6.37383 24.1983 6.82043 21.5869 10.6942 19.979C13.3156 18.8877 16.0826 18.8584 16.0972 18.8584L18.5001 18.8438L19.1652 16.5296C19.2865 16.1008 22.306 6.01057 32.5002 6.41496C41.8109 6.79011 44.8692 14.2007 45.4517 15.9108V17.962H45.4469V29.3044L33.4371 19.219C32.4517 18.4005 31.3788 17.9912 30.2186 17.9912C29.3254 17.9912 28.641 18.2397 28.1555 18.7318C27.6701 19.2287 27.4274 19.8572 27.4274 20.6173V38.5566H33.8012V27.2434L45.811 37.3288C46.9129 38.2448 48.0683 38.6979 49.2819 38.6979C50.9712 38.6979 51.8159 37.7624 51.8159 35.8964V19.7988H51.8207V14.9997L51.7139 14.5953C50.4421 9.77187 44.8304 0.505028 32.7575 0.017812Z" fill="#4DAEEB"/>
</svg>
