<svg width="172" height="40" viewBox="0 0 172 40" fill="none" xmlns="http://www.w3.org/2000/svg">
<path d="M102.637 19.1113V20.8546H96.0152V39.5875H93.9869V20.8546H87.3652V19.1113H102.637Z" fill="#0E0C04"/>
<path d="M113.161 39.5875V19.1113H125.092V20.8546H115.19V27.9755H124.019V29.6892H115.19V37.8442H125.868V39.5875H113.161Z" fill="#0E0C04"/>
<path d="M148.766 37.8442V39.5875H137.014V19.1113H139.042V37.8442H148.766Z" fill="#0E0C04"/>
<path d="M159.294 39.5875V19.1113H171.224V20.8546H161.322V27.9755H170.151V29.6892H161.322V37.8442H172V39.5875H159.294Z" fill="#0E0C04"/>
<path d="M54.9401 36.8235C54.9401 38.6661 54.0779 39.5875 52.3535 39.5875C51.1135 39.5875 49.9316 39.1362 48.8078 38.2337L36.5433 28.2776V39.4465H30.0332V21.7343C30.0332 20.9822 30.2754 20.3617 30.7598 19.8728C31.2635 19.384 31.9707 19.1395 32.8814 19.1395C34.0633 19.1395 35.158 19.5438 36.1655 20.3523L48.43 30.3083V19.1113H54.9401V36.8235Z" fill="#4DAEEB"/>
<path d="M83.2712 39.4465H73.3898L63.3341 32.6493V39.4465H56.824V19.1113H63.3341V26.0777L73.3898 19.1113H83.1549L68.2166 29.434L83.2712 39.4465Z" fill="#4DAEEB"/>
<path fill-rule="evenodd" clip-rule="evenodd" d="M17.4133 7.61041C20.1287 3.76145 24.9318 0 32.8452 0C39.8115 0 45.0499 2.3685 48.6422 5.39818C52.1071 8.3203 54.1875 12.002 54.5732 14.8253L54.6031 15.0437V20.4415H48.2286V15.5379C48.0196 14.5825 46.9918 12.3865 44.553 10.3297C42.0887 8.25139 38.2922 6.42868 32.8452 6.42868C27.2883 6.42868 24.3079 8.92674 22.6073 11.3373C21.7197 12.5955 21.1602 13.8712 20.8247 14.8385C20.6585 15.3177 20.5518 15.7081 20.4892 15.9645C20.4579 16.0923 20.4379 16.1856 20.4272 16.2385C20.4226 16.2613 20.4197 16.2764 20.4183 16.2836L19.9569 19.0387L17.1822 18.9462L17.1804 18.9462L17.1721 18.946C17.159 18.9457 17.1336 18.9453 17.0965 18.945C17.0223 18.9445 16.9023 18.9446 16.7429 18.9481C16.4233 18.9553 15.9514 18.9759 15.3794 19.031C14.2178 19.1429 12.7307 19.3886 11.2924 19.9C9.84261 20.4154 8.61559 21.1389 7.76982 22.0973C6.98246 22.9896 6.37444 24.2487 6.37444 26.2222C6.37444 27.8294 6.45196 29.2419 7.06915 30.4126C7.55106 31.3267 8.60552 32.536 11.5916 33.1585L24.7385 33.1585V39.5872L10.9858 39.5872L10.6951 39.5323C5.94814 38.636 3.00518 36.3979 1.44078 33.4305C-1.69277e-05 30.6975 -5.73609e-06 27.791 2.30943e-08 26.2317V26.2222C2.30943e-08 22.7167 1.15335 19.9252 3.00802 17.8235C4.80429 15.7879 7.09999 14.574 9.17297 13.837C11.2573 13.0959 13.293 12.774 14.7734 12.6315C14.7955 12.6293 14.8175 12.6272 14.8394 12.6252C15.3217 11.2553 16.1217 9.44122 17.4133 7.61041Z" fill="#4DAEEB"/>
</svg>
