<svg width="88" height="31" viewBox="0 0 88 31" fill="none" xmlns="http://www.w3.org/2000/svg">
<mask id="mask0_502_3425" style="mask-type:luminance" maskUnits="userSpaceOnUse" x="0" y="0" width="88" height="31">
<path d="M0.549805 0.934082H87.0898V30.9341H0.549805V0.934082Z" fill="white"/>
</mask>
<g mask="url(#mask0_502_3425)">
<path d="M32.799 9.13408H28.029C27.699 9.13408 27.429 9.36408 27.369 9.69408L25.439 21.9241C25.4303 21.9814 25.4341 22.0399 25.4503 22.0956C25.4665 22.1513 25.4946 22.2028 25.5326 22.2466C25.5707 22.2903 25.6178 22.3253 25.6707 22.349C25.7236 22.3728 25.781 22.3847 25.839 22.3841H28.109C28.439 22.3841 28.709 22.1541 28.769 21.8241L29.289 18.5241C29.3131 18.3669 29.3931 18.2237 29.5144 18.1208C29.6356 18.0179 29.79 17.9622 29.949 17.9641H31.449C34.599 17.9641 36.409 16.4441 36.889 13.4341C37.099 12.1141 36.889 11.0741 36.279 10.3441C35.599 9.54408 34.399 9.13408 32.799 9.13408ZM33.349 13.6041C33.089 15.3041 31.779 15.3041 30.519 15.3041H29.799L30.299 12.1141C30.3134 12.0187 30.3619 11.9318 30.4354 11.8693C30.5089 11.8068 30.6025 11.773 30.699 11.7741H31.019C31.889 11.7741 32.699 11.7741 33.119 12.2741C33.369 12.5641 33.449 12.9941 33.349 13.6041ZM47.069 13.5441H44.779C44.6842 13.5454 44.593 13.5803 44.5216 13.6425C44.4502 13.7048 44.4032 13.7904 44.389 13.8841L44.289 14.5241L44.129 14.2841C43.629 13.5741 42.529 13.3341 41.429 13.3341C40.1688 13.3625 38.9606 13.8426 38.0246 14.6868C37.0886 15.5311 36.4868 16.6835 36.329 17.9341C36.109 19.2641 36.419 20.5441 37.179 21.4341C37.879 22.2541 38.879 22.6041 40.059 22.6041C42.089 22.6041 43.219 21.2941 43.219 21.2941L43.119 21.9241C43.1104 21.9806 43.114 22.0383 43.1296 22.0932C43.1452 22.1482 43.1724 22.1992 43.2093 22.2428C43.2463 22.2864 43.2922 22.3215 43.3438 22.3459C43.3955 22.3703 43.4518 22.3833 43.509 22.3841H45.569C45.899 22.3841 46.169 22.1541 46.219 21.8241L47.459 14.0041C47.4677 13.9468 47.4638 13.8882 47.4477 13.8325C47.4315 13.7768 47.4034 13.7253 47.3654 13.6816C47.3273 13.6378 47.2802 13.6029 47.2273 13.5791C47.1744 13.5554 47.117 13.5434 47.059 13.5441H47.069ZM43.879 17.9941C43.7889 18.6096 43.4769 19.171 43.0017 19.5725C42.5265 19.974 41.9209 20.188 41.299 20.1741C40.639 20.1741 40.099 19.9641 39.769 19.5641C39.429 19.1641 39.299 18.5841 39.409 17.9541C39.609 16.6541 40.669 15.7541 41.969 15.7541C42.619 15.7541 43.149 15.9741 43.499 16.3741C43.839 16.7841 43.979 17.3641 43.879 17.9941ZM59.239 13.5441H56.939C56.719 13.5441 56.519 13.6541 56.389 13.8441L53.229 18.5041L51.879 14.0141C51.8369 13.8794 51.7533 13.7614 51.6401 13.677C51.527 13.5926 51.3901 13.5461 51.249 13.5441H48.989C48.9251 13.5438 48.8622 13.5588 48.8053 13.5879C48.7485 13.6169 48.6994 13.6591 48.6622 13.711C48.625 13.7629 48.6007 13.8229 48.5915 13.8861C48.5822 13.9492 48.5882 14.0137 48.609 14.0741L51.139 21.4941L48.759 24.8541C48.7167 24.9142 48.6919 24.9848 48.6871 25.0581C48.6823 25.1314 48.6978 25.2046 48.7319 25.2697C48.766 25.3348 48.8173 25.3892 48.8803 25.427C48.9433 25.4648 49.0155 25.4846 49.089 25.4841H51.389C51.599 25.4841 51.799 25.3841 51.929 25.1941L59.569 14.1741C59.6112 14.114 59.6361 14.0434 59.6409 13.9701C59.6457 13.8968 59.6301 13.8236 59.5961 13.7585C59.562 13.6934 59.5106 13.639 59.4476 13.6011C59.3846 13.5633 59.3125 13.5436 59.239 13.5441ZM66.839 9.13408H62.069C61.749 9.13408 61.469 9.36408 61.419 9.69408L59.489 21.9241C59.4804 21.9806 59.484 22.0383 59.4996 22.0932C59.5152 22.1482 59.5424 22.1992 59.5793 22.2428C59.6163 22.2864 59.6622 22.3215 59.7139 22.3459C59.7655 22.3703 59.8218 22.3833 59.879 22.3841H62.329C62.559 22.3841 62.749 22.2241 62.789 21.9941L63.329 18.5241C63.3531 18.3669 63.4331 18.2237 63.5544 18.1208C63.6756 18.0179 63.83 17.9622 63.989 17.9641H65.489C68.639 17.9641 70.459 16.4441 70.929 13.4341C71.149 12.1141 70.939 11.0741 70.329 10.3441C69.639 9.54408 68.439 9.13408 66.839 9.13408ZM67.399 13.6041C67.139 15.3041 65.829 15.3041 64.559 15.3041H63.839L64.339 12.1141C64.3534 12.0187 64.4019 11.9318 64.4754 11.8693C64.5489 11.8068 64.6425 11.773 64.739 11.7741H65.069C65.929 11.7741 66.739 11.7741 67.169 12.2741C67.419 12.5641 67.489 12.9941 67.399 13.6041ZM81.109 13.5441H78.829C78.7325 13.543 78.6389 13.5768 78.5654 13.6393C78.4919 13.7018 78.4434 13.7887 78.429 13.8841L78.329 14.5241L78.169 14.2841C77.669 13.5741 76.569 13.3341 75.469 13.3341C74.2088 13.3625 73.0006 13.8426 72.0646 14.6868C71.1285 15.5311 70.5268 16.6835 70.369 17.9341C70.149 19.2641 70.469 20.5441 71.219 21.4341C71.919 22.2541 72.919 22.6041 74.099 22.6041C76.139 22.6041 77.269 21.2941 77.269 21.2941L77.169 21.9241C77.1604 21.9806 77.164 22.0383 77.1796 22.0932C77.1952 22.1482 77.2224 22.1992 77.2593 22.2428C77.2963 22.2864 77.3422 22.3215 77.3938 22.3459C77.4455 22.3703 77.5018 22.3833 77.559 22.3841H79.609C79.939 22.3841 80.209 22.1541 80.269 21.8241L81.509 14.0041C81.5177 13.9468 81.5138 13.8882 81.4976 13.8325C81.4815 13.7768 81.4534 13.7253 81.4154 13.6816C81.3773 13.6378 81.3302 13.6029 81.2773 13.5791C81.2244 13.5554 81.167 13.5434 81.109 13.5441ZM77.929 17.9941C77.8389 18.6096 77.5268 19.171 77.0517 19.5725C76.5765 19.974 75.9709 20.188 75.349 20.1741C74.679 20.1741 74.149 19.9641 73.809 19.5641C73.469 19.1641 73.349 18.5841 73.449 17.9541C73.659 16.6541 74.709 15.7541 76.009 15.7541C76.659 15.7541 77.189 15.9741 77.539 16.3741C77.889 16.7841 78.029 17.3641 77.929 17.9941ZM83.809 9.46408L81.849 21.9341C81.8404 21.9906 81.844 22.0483 81.8596 22.1032C81.8752 22.1582 81.9024 22.2092 81.9393 22.2528C81.9763 22.2964 82.0222 22.3315 82.0738 22.3559C82.1255 22.3803 82.1818 22.3933 82.239 22.3941H84.209C84.539 22.3941 84.809 22.1641 84.859 21.8341L86.799 9.58408C86.8061 9.52751 86.8011 9.47007 86.7842 9.41561C86.7673 9.36116 86.739 9.31094 86.7011 9.26832C86.6632 9.22571 86.6166 9.19168 86.5645 9.16853C86.5124 9.14538 86.456 9.13363 86.399 9.13408H84.199C84.104 9.13262 84.0116 9.16502 83.9383 9.22548C83.865 9.28595 83.8156 9.37053 83.799 9.46408H83.809ZM16.639 9.77408L16.569 10.1541C15.709 14.5841 12.749 16.1141 8.97898 16.1141H7.05898C6.835 16.1143 6.61862 16.1953 6.4496 16.3423C6.28059 16.4893 6.17029 16.6923 6.13898 16.9141L5.14898 23.1441L4.87898 24.9141C4.8691 24.9837 4.87402 25.0546 4.89342 25.1222C4.91283 25.1898 4.94627 25.2526 4.99157 25.3064C5.03687 25.3602 5.09301 25.4038 5.15632 25.4344C5.21963 25.465 5.28868 25.482 5.35898 25.4841H8.75898C9.16898 25.4841 9.50898 25.1841 9.57898 24.7841L9.60898 24.6141L10.249 20.5441L10.289 20.3241C10.359 19.9241 10.689 19.6241 11.099 19.6241H11.609C14.909 19.6241 17.499 18.2941 18.249 14.4141C18.569 12.7941 18.399 11.4441 17.569 10.4841C17.3043 10.1933 16.9893 9.95272 16.639 9.77408Z" fill="white"/>
<path d="M15.7296 9.41405C15.4539 9.33309 15.1734 9.26963 14.8896 9.22405C14.3796 9.14405 13.8096 9.10405 13.1996 9.10405H8.06965C7.87408 9.1019 7.68434 9.17057 7.53546 9.2974C7.38658 9.42422 7.28861 9.60063 7.25965 9.79405L6.15965 16.7041L6.13965 16.9041C6.17314 16.6841 6.28438 16.4834 6.45318 16.3385C6.62198 16.1935 6.83716 16.1139 7.05965 16.1141H8.97965C12.7496 16.1141 15.7096 14.5841 16.5696 10.1541L16.6396 9.77405C16.3532 9.62269 16.0515 9.50202 15.7396 9.41405H15.7296Z" fill="white" fill-opacity="0.1"/>
<path d="M7.25942 9.79407C7.2879 9.60139 7.38405 9.42515 7.53063 9.29689C7.67721 9.16863 7.86466 9.09673 8.05942 9.09407H13.1994C14.0525 9.09922 14.9019 9.20665 15.7294 9.41407L15.9294 9.47407C16.1794 9.55407 16.4194 9.65407 16.6294 9.77407C16.8894 8.13407 16.6294 7.01407 15.7494 6.00407C14.7694 4.90407 13.0094 4.42407 10.7494 4.42407H4.21942C3.99576 4.42359 3.77926 4.50286 3.60881 4.64766C3.43835 4.79246 3.32511 4.99329 3.28942 5.21407L0.559419 22.4941C0.499419 22.8341 0.759419 23.1441 1.10942 23.1441H5.14942L6.16942 16.7041L7.25942 9.79407Z" fill="white"/>
</g>
</svg>
