<svg width="61" height="25" viewBox="0 0 61 25" fill="none" xmlns="http://www.w3.org/2000/svg">
<path d="M26.1 21.1341H21.68L24.45 4.77413H28.88L26.11 21.1341H26.1ZM52.82 21.1341H56.89L53.34 4.77413H49.77C48.13 4.77413 47.73 5.99413 47.73 5.99413L41.1 21.1341H45.72L46.65 18.7041H52.29L52.81 21.1341H52.82ZM47.94 15.3441L50.27 9.22413L51.57 15.3441H47.94ZM41.46 8.70413L42.09 5.19413C42.09 5.19413 40.14 4.48413 38.11 4.48413C35.91 4.48413 30.68 5.40413 30.68 9.89413C30.68 14.1241 36.81 14.1741 36.81 16.3941C36.81 18.6141 31.31 18.2141 29.5 16.8141L28.84 20.4841C28.84 20.4841 30.82 21.4141 33.84 21.4141C36.87 21.4141 41.44 19.9141 41.44 15.8141C41.44 11.5641 35.24 11.1641 35.24 9.31413C35.24 7.46413 39.56 7.70413 41.46 8.71413V8.70413ZM17.95 4.77413L13.72 16.0241L13.22 13.6041L13.21 13.5441C12.93 12.8441 11.79 10.3341 9.10996 8.24413C8.50996 7.78413 7.86996 7.34413 7.20996 6.96413L11.05 21.1341H15.66L22.72 4.77413H17.95Z" fill="white"/>
<path d="M13.2796 13.7341L11.7596 6.21411C11.7596 6.21411 11.5696 4.71411 9.60965 4.71411H2.46965L2.38965 4.98411C2.38965 4.98411 5.81965 5.66411 9.10965 8.23411C10.9695 9.65857 12.4102 11.5588 13.2796 13.7341Z" fill="white"/>
</svg>
