<svg width="51" height="31" viewBox="0 0 51 31" fill="none" xmlns="http://www.w3.org/2000/svg">
<g clip-path="url(#clip0_502_3419)">
<g opacity="0.55">
<path opacity="0.55" d="M45.4101 15.1541C44.6801 15.1541 44.1501 16.0141 44.1501 17.2341C44.1501 18.0341 44.4301 18.4541 44.9801 18.4541C45.7401 18.4541 46.2801 17.5941 46.2801 16.3641C46.2801 15.5841 45.9801 15.1541 45.4101 15.1541ZM35.8401 18.0341C35.8401 18.4241 36.0701 18.6741 36.4201 18.6741C37.0801 18.6741 37.5601 18.0341 37.5901 17.1241C37.4709 17.1061 37.3506 17.0961 37.2301 17.0941C36.3001 17.0941 35.8301 17.4141 35.8301 18.0341H35.8401Z" fill="white" fill-opacity="0.6"/>
<path opacity="0.55" d="M35.11 0.934095C32.8966 0.931201 30.7102 1.42048 28.7091 2.36653C26.7081 3.31257 24.9424 4.69171 23.54 6.40409H26.56C26.98 6.90409 27.36 7.43409 27.71 7.99409H22.39C22.08 8.5041 21.79 9.03409 21.53 9.58409H28.57C28.81 10.0941 29.02 10.6241 29.21 11.1741H20.9C20.72 11.6941 20.58 12.2141 20.46 12.7541H29.64L29.8 13.6541C29.84 13.9341 29.88 14.2141 29.9 14.4941C30.49 13.0141 31.67 12.0941 33.18 12.0941C33.88 12.0941 34.73 12.3941 34.97 12.4841L34.7 14.1341C34.12 13.8341 33.7 13.7241 33.24 13.7241C32.04 13.7241 31.18 14.8941 31.18 16.5741C31.18 17.7241 31.75 18.4241 32.7 18.4241C33.1 18.4241 33.54 18.3041 34.08 18.0241L33.79 19.7641C33.19 19.9341 32.81 19.9941 32.35 19.9941C31.798 20.0195 31.2522 19.8685 30.7919 19.5628C30.3316 19.2571 29.9807 18.8127 29.79 18.2941C29.66 19.1241 29.46 19.9241 29.21 20.6941H20.9C21.08 21.2441 21.29 21.7741 21.53 22.2941H28.57C28.31 22.8341 28.03 23.3641 27.71 23.8741H22.4C22.74 24.4341 23.12 24.9641 23.54 25.4741H26.56C26.0989 26.0364 25.5976 26.5645 25.06 27.0541C26.8658 28.6833 29.041 29.8486 31.3978 30.4494C33.7546 31.0503 36.2221 31.0687 38.5876 30.503C40.9531 29.9373 43.1453 28.8045 44.9753 27.2024C46.8052 25.6003 48.2178 23.5769 49.0912 21.307C49.9646 19.037 50.2725 16.5887 49.9884 14.1732C49.7043 11.7576 48.8367 9.44754 47.4605 7.44218C46.0843 5.43682 44.2408 3.79645 42.0891 2.66261C39.9374 1.52878 37.5421 0.935543 35.11 0.934095ZM38.77 19.8741H37.43L37.46 19.2341C37.05 19.7341 36.5 19.9841 35.76 19.9841C34.86 19.9841 34.26 19.2941 34.26 18.2941C34.26 16.7941 35.32 15.9141 37.12 15.9141C37.3 15.9141 37.54 15.9241 37.78 15.9541C37.83 15.7541 37.85 15.6641 37.85 15.5541C37.85 15.1541 37.56 14.9941 36.8 14.9941C36.22 14.9941 35.64 15.0941 35.08 15.2741L35.31 13.8741C35.9398 13.6684 36.5974 13.5604 37.26 13.5541C38.66 13.5541 39.39 14.1741 39.39 15.3641C39.39 15.6841 39.34 16.0741 39.26 16.5941C39.12 17.4941 38.82 19.4141 38.78 19.8741H38.77ZM40.94 19.8741H39.32L39.39 19.4641C39.67 17.5441 40.03 15.6041 40.24 13.6941H41.74C41.74 14.0041 41.68 14.3141 41.64 14.6241C42.14 13.8941 42.51 13.5141 43.19 13.6541C42.8938 14.2185 42.688 14.8259 42.58 15.4541C41.66 15.3541 41.52 16.0941 40.94 19.8741ZM45.84 19.8741L45.92 19.3041C45.47 19.7741 45.02 19.9841 44.42 19.9841C43.24 19.9841 42.46 18.9641 42.46 17.4141C42.46 15.3641 43.67 13.6241 45.1 13.6241C45.74 13.6241 46.21 13.8841 46.66 14.4641L47.02 12.2641H48.62L47.39 19.8741H45.84Z" fill="white" fill-opacity="0.8"/>
</g>
<path d="M23.67 14.9641C23.15 14.9641 22.79 15.3641 22.64 16.0641H24.42C24.43 15.9341 24.59 14.9641 23.67 14.9641ZM10.21 18.0341C10.21 18.4241 10.43 18.6741 10.79 18.6741C11.45 18.6741 11.93 18.0341 11.96 17.1241C11.8375 17.1056 11.7138 17.0956 11.59 17.0941C10.67 17.0941 10.21 17.4141 10.21 18.0341Z" fill="white"/>
<path d="M29.5095 16.7041C29.5095 15.8741 29.6495 15.1341 29.9095 14.4941L29.8895 14.3441L29.8695 14.1441L29.7995 13.6541C29.5995 13.9941 29.3295 14.6741 29.1795 15.4541C28.2795 15.3541 28.1295 16.0941 27.5495 19.8741H25.9195L25.9995 19.4641C26.2795 17.5441 26.6395 15.6041 26.8495 13.6941H28.3395C28.3495 14.0041 28.2795 14.3141 28.2395 14.6241C28.7395 13.8941 29.1195 13.5141 29.7995 13.6541L29.7895 13.5741L29.7495 13.3441L29.6495 12.8141L29.6395 12.7541H20.4595C20.5795 12.2141 20.7195 11.6841 20.8895 11.1641H29.1895C29.0303 10.6883 28.8467 10.221 28.6395 9.76405L28.5695 9.58405H21.5295C21.7895 9.03405 22.0795 8.50405 22.3895 7.99405H27.6995L27.4295 7.57405L27.3495 7.45405C27.0995 7.09405 26.8395 6.74405 26.5595 6.40405H23.5395C23.9995 5.84405 24.5095 5.30405 25.0395 4.81405C22.8878 2.86202 20.2156 1.57684 17.3474 1.11464C14.4791 0.652439 11.5384 1.0331 8.88245 2.21039C6.22646 3.38768 3.96951 5.31092 2.38576 7.74649C0.802016 10.1821 -0.040369 13.0251 -0.039061 15.9303C-0.0377529 18.8356 0.807192 21.6779 2.39313 24.112C3.97907 26.5462 6.23775 28.4674 8.8948 29.6423C11.5518 30.8172 14.4929 31.1952 17.3607 30.7304C20.2285 30.2656 22.8996 28.978 25.0495 27.0241L25.0895 27.0041L25.5295 26.5841L25.6795 26.4341L25.9795 26.1141L26.1395 25.9441L26.4695 25.5641L26.5695 25.4641H23.5295C23.1295 24.9541 22.7395 24.4241 22.3895 23.8641H27.6995L27.7695 23.7641L28.1695 23.0741L28.4695 22.4741L28.5195 22.3941L28.5695 22.2841H21.5295C21.2895 21.7641 21.0795 21.2341 20.8995 20.6841H29.1995L29.2695 20.4841L29.3295 20.2941L29.4795 19.7941L29.5195 19.6341C29.6324 19.1889 29.7225 18.7383 29.7895 18.2841C29.5895 17.7841 29.4995 17.2441 29.5095 16.7041ZM6.31953 19.8741L7.25953 14.0341L5.17953 19.8741H4.06953L3.92953 14.0641L2.94953 19.8741H1.42953L2.69953 12.2741H5.03953L5.09953 16.9741L6.67953 12.2741H9.20953L7.94953 19.8741H6.31953ZM11.7895 19.8741L11.8195 19.2341C11.4195 19.7441 10.8595 19.9841 10.1195 19.9841C9.23953 19.9841 8.62953 19.2941 8.62953 18.2941C8.62953 16.7941 9.67953 15.9141 11.4895 15.9141C11.6695 15.9141 11.9095 15.9241 12.1495 15.9641C12.1995 15.7541 12.2095 15.6641 12.2095 15.5641C12.2095 15.1441 11.9295 14.9941 11.1695 14.9941C10.5795 14.9941 9.99953 15.0941 9.44953 15.2741L9.67953 13.8741C10.3062 13.6693 10.9604 13.5614 11.6195 13.5541C13.0195 13.5541 13.7595 14.1841 13.7595 15.3641C13.7595 15.6841 13.7095 16.0741 13.6295 16.5941C13.4895 17.4941 13.1795 19.4141 13.1395 19.8741H11.7995H11.7895ZM16.5495 16.1941C17.3695 16.5741 17.6995 17.0641 17.6995 17.9141C17.6995 19.3341 16.9095 19.9841 15.1995 19.9841C14.1995 19.9541 13.8695 19.8841 13.4995 19.8041L13.7195 18.3741C14.2395 18.5441 14.6995 18.6141 15.1795 18.6141C15.8295 18.6141 16.1195 18.4441 16.1195 18.0641C16.1195 17.7741 16.0195 17.6841 15.3595 17.3741C14.4995 16.9741 14.1195 16.4341 14.1195 15.6541C14.1195 14.5041 14.7395 13.5541 16.5595 13.5541C16.9295 13.5541 17.5695 13.6141 17.9895 13.6741L17.7595 15.1141C17.3721 15.0557 16.9813 15.0223 16.5895 15.0141C16.0695 15.0141 15.7895 15.1941 15.7895 15.5241C15.7895 15.8141 15.8795 15.8841 16.5595 16.1941H16.5495ZM20.8795 15.1741H20.0495C19.8595 16.3541 19.5895 17.8241 19.5895 18.0141C19.5895 18.3341 19.7595 18.4741 20.1495 18.4741C20.3295 18.4741 20.4795 18.4541 20.5895 18.4141L20.3695 19.7841C19.9195 19.9241 19.5695 19.9841 19.1995 19.9841C18.3695 19.9841 17.9095 19.5041 17.9095 18.6241C17.9095 18.3541 18.0395 17.6241 18.1395 16.9741L18.8395 12.7541H20.4595L20.2695 13.6941H21.0995L20.8795 15.1841V15.1741ZM23.9195 18.5841C24.4995 18.5841 25.0195 18.4641 25.5995 18.1941L25.3295 19.7341C24.7795 19.9041 24.2395 19.9841 23.6695 19.9841C21.8695 19.9841 20.9195 19.0341 20.9195 17.2241C20.9195 15.1141 22.1195 13.5541 23.7495 13.5541C25.0795 13.5541 25.9295 14.4241 25.9295 15.7941C25.9295 16.2441 25.8695 16.6941 25.7295 17.3141H22.5095C22.4095 18.2141 22.9795 18.5841 23.9095 18.5841H23.9195Z" fill="white"/>
</g>
<defs>
<clipPath id="clip0_502_3419">
<rect width="51" height="30" fill="white" transform="translate(0 0.934082)"/>
</clipPath>
</defs>
</svg>
