<svg width="61" height="22" viewBox="0 0 61 22" fill="none" xmlns="http://www.w3.org/2000/svg">
<path fill-rule="evenodd" clip-rule="evenodd" d="M12.7396 7.46355L13.1536 9.04883H15.6498L12.8579 0.566406H9.81745L7.06096 9.04883H9.56901L9.99491 7.46355H12.7396ZM11.734 3.57134C11.805 3.84738 11.8602 4.06033 11.8996 4.21018L12.2664 5.59434H10.4681L10.8349 4.21018C10.8822 4.0209 10.9374 3.78823 11.0005 3.51219C11.0715 3.23614 11.1385 2.95616 11.2016 2.67222C11.2726 2.38829 11.3239 2.15168 11.3554 1.9624C11.3948 2.15168 11.4501 2.39618 11.521 2.69589C11.592 2.99559 11.663 3.28741 11.734 3.57134Z" fill="white"/>
<path fill-rule="evenodd" clip-rule="evenodd" d="M4.90985 0.850337C4.41297 0.68471 3.75835 0.601897 2.94599 0.601897H0.000212149V9.04883H3.28908C3.95158 9.04883 4.52338 8.95025 5.00449 8.75307C5.48559 8.5559 5.85628 8.27197 6.11655 7.90128C6.37682 7.53059 6.50695 7.08892 6.50695 6.57627C6.50695 6.12671 6.42809 5.7718 6.27035 5.51153C6.12049 5.24337 5.9312 5.04226 5.70248 4.90818C5.47376 4.7741 5.24504 4.67946 5.01632 4.62425V4.5651C5.22927 4.50989 5.43433 4.40736 5.6315 4.2575C5.83656 4.10765 6.00613 3.90653 6.14021 3.65415C6.27429 3.39388 6.34133 3.0784 6.34133 2.70772C6.34133 2.25027 6.22697 1.86775 5.99824 1.56016C5.76952 1.24468 5.40672 1.00808 4.90985 0.850337ZM3.76229 3.60683C3.61244 3.76457 3.34823 3.84344 2.96965 3.84344H2.28349V2.32914H2.92233C3.29302 2.32914 3.56512 2.39224 3.73863 2.51843C3.91214 2.63673 3.9989 2.81025 3.9989 3.03897C3.9989 3.2598 3.92003 3.44909 3.76229 3.60683ZM2.28349 7.2861V5.51153H3.04063C3.32456 5.51153 3.5454 5.55491 3.70314 5.64167C3.86877 5.72054 3.98312 5.82701 4.04622 5.96109C4.1172 6.09517 4.15269 6.23713 4.15269 6.38698C4.15269 6.64725 4.07383 6.86415 3.91609 7.03766C3.75835 7.20328 3.4823 7.2861 3.08796 7.2861H2.28349Z" fill="white"/>
<path d="M24.6006 9.04883H21.6075L18.5197 3.09812H18.4724C18.4882 3.2322 18.5 3.38994 18.5079 3.57134C18.5237 3.75274 18.5355 3.94203 18.5434 4.1392C18.5513 4.33637 18.5592 4.5296 18.5671 4.71889C18.575 4.90818 18.5789 5.08169 18.5789 5.23943V9.04883H16.5559V0.601897H19.5372L22.6131 6.4698H22.6486C22.6407 6.33572 22.6289 6.18192 22.6131 6.00841L22.5894 5.46421C22.5815 5.27492 22.5736 5.08958 22.5658 4.90818V0.601897H24.6006V9.04883Z" fill="white"/>
<path d="M31.0598 9.04883H33.6389L31.0243 4.38764L33.6862 0.601897H31.19L29.4154 3.19276C29.2971 3.35839 29.1748 3.53585 29.0487 3.72513C28.9225 3.90653 28.812 4.08793 28.7174 4.26933V0.601897H26.4223V9.04883H28.7174V6.22136L29.3917 5.81912L31.0598 9.04883Z" fill="white"/>
<path d="M4.34177 21.1836H2.0585V14.6058H0V12.7366H6.40027V14.6058H4.34177V21.1836Z" fill="white"/>
<path fill-rule="evenodd" clip-rule="evenodd" d="M12.2779 13.0206C11.7731 12.8313 11.1382 12.7366 10.3732 12.7366H7.60485V21.1836H9.88812V18.1076H10.4678L12.2542 21.1836H17.2083L17.6342 19.5983H20.3789L20.7929 21.1836H23.2892L20.4972 12.7011H17.4567L14.7476 21.0378L12.3843 17.5043C12.6841 17.3387 12.9404 17.1454 13.1533 16.9246C13.3663 16.7038 13.528 16.4514 13.6384 16.1675C13.7567 15.8835 13.8158 15.572 13.8158 15.2328C13.8158 14.6808 13.6857 14.2233 13.4254 13.8605C13.173 13.4898 12.7905 13.2098 12.2779 13.0206ZM9.88812 14.4639H10.3377C10.6137 14.4639 10.8385 14.4994 11.012 14.5703C11.1855 14.6413 11.3117 14.7439 11.3906 14.8779C11.4695 15.0041 11.5089 15.1579 11.5089 15.3393C11.5089 15.5996 11.4576 15.8086 11.3551 15.9663C11.2526 16.1162 11.1106 16.2266 10.9292 16.2976C10.7557 16.3607 10.5506 16.3922 10.314 16.3922H9.88812V14.4639ZM19.5389 16.3449C19.4995 16.1951 19.4443 15.9821 19.3733 15.7061C19.3023 15.4221 19.2313 15.1303 19.1603 14.8306C19.0893 14.5309 19.0341 14.2864 18.9947 14.0971C18.9632 14.2864 18.9119 14.523 18.8409 14.807C18.7778 15.0909 18.7108 15.3709 18.6398 15.6469C18.5767 15.923 18.5215 16.1556 18.4742 16.3449L18.1074 17.7291H19.9056L19.5389 16.3449Z" fill="white"/>
<path d="M29.2468 21.1836H32.2399V12.7366H30.2051V17.0429C30.213 17.2243 30.2208 17.4096 30.2287 17.5989L30.2524 18.1431C30.2682 18.3167 30.28 18.4704 30.2879 18.6045H30.2524L27.1765 12.7366H24.1952V21.1836H26.2182V17.3742C26.2182 17.2164 26.2143 17.0429 26.2064 16.8536C26.1985 16.6643 26.1906 16.4711 26.1827 16.2739C26.1748 16.0768 26.163 15.8875 26.1472 15.7061C26.1393 15.5247 26.1275 15.3669 26.1117 15.2328H26.1591L29.2468 21.1836Z" fill="white"/>
<path d="M39.5864 18.6164C39.5864 19.0738 39.4681 19.5076 39.2315 19.9177C39.0028 20.3278 38.6439 20.663 38.1549 20.9233C37.6738 21.1757 37.0468 21.3019 36.2739 21.3019C35.8874 21.3019 35.5483 21.2821 35.2565 21.2427C34.9725 21.2112 34.7044 21.156 34.452 21.0771C34.1996 20.9982 33.9394 20.8957 33.6712 20.7695V18.7347C34.1286 18.9634 34.59 19.1408 35.0554 19.267C35.5207 19.3853 35.9426 19.4445 36.3212 19.4445C36.5499 19.4445 36.7353 19.4169 36.8773 19.3617C37.0192 19.3065 37.1257 19.2315 37.1967 19.1369C37.2677 19.0422 37.3031 18.9358 37.3031 18.8175C37.3031 18.6676 37.2519 18.5414 37.1494 18.4389C37.0468 18.3364 36.8851 18.2299 36.6643 18.1195C36.4435 18.0091 36.1477 17.871 35.777 17.7054C35.4615 17.5634 35.1776 17.4136 34.9252 17.2559C34.6728 17.0981 34.456 16.9207 34.2746 16.7235C34.101 16.5263 33.967 16.2976 33.8723 16.0373C33.7777 15.7692 33.7304 15.4537 33.7304 15.0909C33.7304 14.5467 33.8644 14.0932 34.1326 13.7304C34.4007 13.3597 34.7714 13.0837 35.2446 12.9023C35.7258 12.713 36.2818 12.6183 36.9127 12.6183C37.4648 12.6183 37.9617 12.6814 38.4034 12.8076C38.845 12.9259 39.2394 13.0639 39.5864 13.2217L38.8884 14.9844C38.5256 14.8188 38.1668 14.6886 37.8119 14.594C37.4648 14.4915 37.1415 14.4402 36.8418 14.4402C36.6446 14.4402 36.4829 14.4639 36.3567 14.5112C36.2305 14.5585 36.1359 14.6256 36.0728 14.7123C36.0176 14.7912 35.99 14.8819 35.99 14.9844C35.99 15.1185 36.0412 15.2368 36.1438 15.3393C36.2463 15.4419 36.4159 15.5562 36.6525 15.6824C36.897 15.8007 37.2282 15.9545 37.6462 16.1438C38.0564 16.3252 38.4034 16.5263 38.6873 16.7471C38.9791 16.9601 39.2 17.2164 39.3498 17.5161C39.5076 17.8079 39.5864 18.1747 39.5864 18.6164Z" fill="white"/>
<path d="M40.8895 21.1836H43.1373V18.013H45.669V16.1793H43.1373V14.5703H45.882V12.7366H40.8895V21.1836Z" fill="white"/>
<path d="M52.283 21.1836H47.2669V12.7366H52.283V14.5703H49.5501V15.8954H52.0819V17.7291H49.5501V19.3262H52.283V21.1836Z" fill="white"/>
<path fill-rule="evenodd" clip-rule="evenodd" d="M58.4328 13.0206C57.928 12.8313 57.2931 12.7366 56.5281 12.7366H53.7598V21.1836H56.043V18.1076H56.6227L58.4091 21.1836H61L58.5393 17.5043C58.839 17.3387 59.0953 17.1454 59.3082 16.9246C59.5212 16.7038 59.6829 16.4514 59.7933 16.1675C59.9116 15.8835 59.9707 15.572 59.9707 15.2328C59.9707 14.6808 59.8406 14.2233 59.5803 13.8605C59.3279 13.4898 58.9454 13.2098 58.4328 13.0206ZM56.043 14.4639H56.4926C56.7686 14.4639 56.9934 14.4994 57.1669 14.5703C57.3404 14.6413 57.4666 14.7439 57.5455 14.8779C57.6244 15.0041 57.6638 15.1579 57.6638 15.3393C57.6638 15.5996 57.6125 15.8086 57.51 15.9663C57.4075 16.1162 57.2655 16.2266 57.0841 16.2976C56.9106 16.3607 56.7055 16.3922 56.4689 16.3922H56.043V14.4639Z" fill="white"/>
<path d="M60.8423 0.566406H36.3364V2.25647H60.8423V0.566406Z" fill="white"/>
<path d="M36.3364 3.94653H60.8423V5.6366H36.3364V3.94653Z" fill="white"/>
<path d="M60.8423 7.32666H36.3364V9.01672H60.8423V7.32666Z" fill="white"/>
</svg>
