<svg width="120" height="38" viewBox="0 0 120 38" fill="none" xmlns="http://www.w3.org/2000/svg">
<path d="M22.7806 19.1395L19.5097 3.32665C19.2801 2.40439 18.7193 1.59883 17.934 1.06343C17.1488 0.528038 16.194 0.300234 15.2516 0.42342H0.116129L0 1.17826C11.7677 4.00406 19.5484 10.8557 22.7806 19.1395ZM33.7742 0.771808L24.2129 25.1783L23.2258 21.5008C20.1103 15.4407 15.4331 10.3225 9.67742 6.67503L18.4065 36.5008H28.7226L44.0903 0.771808H33.7742ZM48.0581 0.771808L41.9613 36.5783H51.6387L57.7548 0.771808H48.0581ZM112.103 0.771808H104.516C103.455 0.633485 102.377 0.851022 101.453 1.39037C100.528 1.92972 99.8085 2.76042 99.4064 3.75245L84.9871 36.5395H95.2258C95.2258 36.5395 96.8903 32.1266 97.2774 31.1589H109.761C110.052 32.3976 110.942 36.5008 110.942 36.5008H120L112.103 0.771808ZM100.084 23.8428C100.897 21.7912 103.955 13.8363 103.955 13.8363C103.955 13.8363 104.768 11.7847 105.252 10.4299L105.929 13.5073L108.174 23.8428H100.084ZM77.4193 15.1137C74.0323 13.4686 71.9419 12.346 71.9613 10.6815C71.9806 9.01697 73.7226 7.60406 77.5355 7.60406C80.0379 7.53723 82.5256 8.00575 84.8323 8.97826L85.7226 9.38471L87.0387 1.64277C84.2412 0.629453 81.2849 0.124728 78.3097 0.15245C68.6323 0.15245 61.8774 4.99116 61.8194 11.9589C61.8194 17.0879 66.6581 19.9718 70.3548 21.6363C74.0516 23.3008 75.4839 24.5202 75.4839 26.0879C75.4839 28.4879 72.4452 29.5912 69.6774 29.5912C66.5108 29.6642 63.3704 29.0017 60.5032 27.6557L59.2452 27.075L57.871 35.0879C61.35 36.3852 65.0354 37.041 68.7484 37.0234C78.9871 37.0234 85.6452 32.2234 85.7226 24.7912C85.7032 20.7654 83.1097 17.6686 77.4193 15.1137Z" fill="#273991"/>
<path d="M19.5097 3.32651C19.2801 2.40426 18.7193 1.5987 17.934 1.0633C17.1488 0.527907 16.194 0.300103 15.2516 0.423289H0.116129L0 1.17813C11.7677 4.02329 19.5484 10.8555 22.7806 19.1588L19.5097 3.32651Z" fill="#F99F1B"/>
</svg>
