<svg width="98" height="63" viewBox="0 0 98 63" fill="none" xmlns="http://www.w3.org/2000/svg">
<path d="M91.3004 0.587402H6.69966C3.42913 0.587402 0.777832 3.25334 0.777832 6.54195V56.6329C0.777832 59.9215 3.42913 62.5874 6.69966 62.5874H91.3004C94.571 62.5874 97.2223 59.9215 97.2223 56.6329V6.54195C97.2223 3.25334 94.571 0.587402 91.3004 0.587402Z" fill="url(#paint0_linear_284_6380)"/>
<path fill-rule="evenodd" clip-rule="evenodd" d="M26.4993 30.9967L26.9288 29.2921C28.5788 28.7921 31.9465 28.5648 32.5794 30.3603C32.941 31.4058 31.9013 35.7467 31.6979 37.0194L30.0931 37.0421C29.7315 36.5876 30.0253 37.4285 29.7767 36.3148C28.2397 37.7012 24.9624 37.4739 25.211 34.6785C25.4596 31.9058 27.8555 32.2694 30.4548 31.8603C30.4096 30.0876 28.1945 30.5648 26.4767 30.9739L26.4993 30.9967ZM38.5916 30.7239C37.1225 30.7239 36.8964 30.4058 35.6081 30.9739C35.7663 32.5876 36.6026 31.9512 37.7553 32.7239C39.9478 34.1785 37.5971 38.6785 32.376 36.7467L32.6698 35.1103C34.139 35.4058 34.8848 35.7012 36.015 35.0648C36.2862 32.7694 32.2404 34.2694 33.3705 30.5876C33.9807 28.5876 36.6704 28.8603 38.8855 29.0648L38.569 30.7239H38.5916ZM16.0796 27.2467L19.5378 27.3603L19.8994 32.8148L21.7754 28.4512C22.4083 26.883 21.9789 27.2239 25.9569 27.2694L24.1713 37.0194L22.2275 36.9967L23.2898 29.9967L20.4193 37.0421L18.0913 36.9739C18.0234 35.6103 17.9104 30.8148 17.5488 29.9058L16.3735 36.9967L14.3393 36.9739L16.0796 27.2467ZM49.0565 47.9512L50.0058 46.8148C48.1072 46.5648 47.7682 47.1103 46.9093 45.5648L51.2716 45.5194C51.5428 45.0648 51.9949 44.633 52.2209 44.1103C47.2483 43.7694 45.847 45.0421 45.0559 42.8603H53.0346L53.9161 41.4739L44.0614 41.4285L43.6094 40.2694L54.2325 40.2239C54.8428 39.883 54.8428 39.4967 55.001 38.7921L44.9429 38.7694C43.1347 38.7921 43.0217 39.2012 42.6827 37.5421H55.34L55.7468 36.133L52.0401 36.0876L51.8592 37.0421L49.7346 36.9512L51.0682 29.0194L53.0798 29.2921C53.0798 29.3376 53.125 29.4967 53.125 29.5648C53.125 29.6103 53.1476 29.6785 53.1476 29.7012L53.2606 30.1103C53.8256 29.4285 54.1873 28.9285 55.4982 28.9739L54.8202 30.8148C54.4359 31.3148 53.3058 30.7467 52.8311 32.1103L55.0462 32.2012C55.2948 30.7694 55.566 30.3376 55.9729 29.1785L55.9955 28.4967L42.1402 28.5194L42.095 29.0194C42.8409 29.0194 42.8183 28.883 43.2477 29.2467L43.0443 30.5876C41.643 30.9285 41.6882 30.0876 41.5525 31.9285C41.756 32.2694 41.5073 32.0876 41.9368 32.2012L42.8183 32.2239C44.2422 27.5648 48.4915 28.5876 49.4634 30.0421C49.9832 30.8148 50.5031 33.3603 49.2148 33.5648L44.8977 33.6103C45.1011 35.9058 47.723 35.4285 49.4182 34.8603C49.3504 35.8148 49.4182 36.5876 48.5367 36.9058C47.836 37.1558 46.3669 37.0876 45.5984 36.9058C43.6998 36.4739 42.8861 35.5194 42.7505 33.4512L41.9368 33.4285C41.1909 33.0876 41.7786 33.4285 41.3943 32.4967C41.0779 34.4058 40.219 35.633 42.5697 35.3603C42.434 36.4967 42.5923 36.883 41.3491 37.0194C37.7327 37.4512 38.9081 35.0194 39.4957 31.7694C40.4224 26.5876 39.6991 27.2239 42.321 27.2694L55.7921 27.2921L55.5208 25.883L42.5018 25.8376L42.7505 24.7012L55.0688 24.633C54.7523 22.7012 54.6845 23.1785 50.2093 23.1785H43.3833C43.858 21.5194 43.6094 21.9739 48.0394 21.9739H54.0291L53.3962 20.5421L44.7169 20.5194L45.3045 19.3376L52.5599 19.2921C51.6332 17.383 51.6784 17.9285 46.5477 17.8376C47.2031 16.2012 48.3559 16.6103 50.3675 16.6103C49.8024 15.7012 49.3956 15.7694 49.0565 14.9967C48.2202 14.5649 47.4744 13.7921 46.6381 13.2012C40.2416 8.65576 31.5623 8.17849 24.6007 11.5876C18.3399 14.633 12.192 21.6785 12.2598 31.4285C12.3502 45.3603 24.5103 55.5194 38.2752 53.1558C44.7395 52.0421 46.3669 49.4058 49.0339 47.9285L49.0565 47.9512Z" fill="#E41D2C"/>
<path fill-rule="evenodd" clip-rule="evenodd" d="M63.8157 29.2239C70.8224 27.7921 69.6697 31.2693 69.1047 34.0875C68.9238 34.9284 68.9238 36.5875 68.2684 37.0421C68.1102 37.0421 67.1835 37.0648 67.093 37.0193C66.4602 36.7693 66.754 37.5193 66.6636 36.3602C64.765 37.4512 61.7589 37.7012 62.1205 34.6557C62.4143 32.2239 64.8554 31.8375 67.3417 31.9512C67.2513 30.1557 65.6239 30.4512 63.3636 31.0193L63.8383 29.2239H63.8157ZM70.732 29.0193L72.608 29.0421C72.6306 29.0875 72.6532 29.1557 72.6532 29.2012L72.9471 30.0421C73.2861 29.5193 73.919 29.0648 74.9135 29.0421L74.6422 30.6557L73.7155 31.0193C71.8622 31.633 71.9752 33.9739 71.4779 37.0421H69.3759L70.732 29.0193ZM80.6997 27.2921H82.6209L80.9709 37.0648C78.8237 37.0875 79.3435 37.2012 78.6655 36.383C77.2641 38.4739 73.0601 36.5421 74.3484 32.2239C75.2977 28.9966 78.5073 28.133 80.0894 30.0421L80.7223 27.2693L80.6997 27.2921ZM49.0789 15.0193C49.418 15.7921 49.8474 15.7239 50.3899 16.633C48.3783 16.633 47.2255 16.2012 46.5701 17.8602C51.7008 17.9512 51.6556 17.4057 52.5823 19.3148L45.3269 19.3602L44.7393 20.5421L53.4186 20.5648L54.0515 21.9966H48.0618C43.6544 21.9966 43.8804 21.5648 43.4057 23.2012H50.2317C54.7069 23.2012 54.7747 22.7239 55.0912 24.6557L42.7729 24.7239L42.5242 25.8602L55.5432 25.9057L55.8144 27.3148L42.3434 27.2921L42.1626 28.5648L56.0179 28.5421L55.9953 29.2239C57.035 28.2239 56.8542 27.7012 58.798 27.133C60.4027 26.6784 61.4198 27.0193 63.002 27.3602L62.663 29.4512C59.9507 28.633 58.1877 28.8375 57.5548 31.6557C56.8542 34.6784 59.2274 35.8148 61.7363 34.6102C61.5103 36.8148 61.1486 37.3602 58.5719 37.0193C56.7864 36.7921 56.2439 35.9284 55.4528 34.8602H52.2207L52.0398 36.1102L55.7466 36.1557L55.3398 37.5648H42.6825C43.0215 39.2239 43.1345 38.8148 44.9427 38.7921L55.0008 38.8148C54.8199 39.4966 54.8425 39.9057 54.2323 40.2466L43.6092 40.2921L44.0612 41.4512L53.9158 41.4966L53.0344 42.883H45.0557C45.8468 45.0421 47.2481 43.7921 52.2207 44.133C51.9946 44.6557 51.5426 45.0875 51.2714 45.5421L46.9091 45.5875C47.7454 47.1102 48.107 46.5875 50.0056 46.8375L49.0563 47.9739C52.2885 50.3602 54.7973 52.3602 60.0185 53.2693C64.765 54.0875 69.7149 53.1784 73.5347 51.2921C90.0797 43.0875 89.6276 19.4512 73.3991 11.633C67.5677 8.83752 59.8377 8.58752 53.8028 11.7693C50.8871 13.2921 50.1865 14.383 49.1015 15.0421L49.0789 15.0193Z" fill="#F8B02B"/>
<path fill-rule="evenodd" clip-rule="evenodd" d="M14.3394 36.9963L16.3736 37.019L17.5489 29.9281C17.9105 30.8372 18.0235 35.6327 18.0914 36.9963L20.4194 37.0645L23.2899 30.019L22.2276 37.019L24.1714 37.0418L25.957 27.2918C21.979 27.2463 22.4084 26.9054 21.7755 28.4736L19.8995 32.8372L19.5379 27.3827L16.0797 27.269L14.3394 36.9963ZM77.3096 35.2009C75.6145 33.4509 77.061 30.5418 78.6432 30.9281C80.2028 31.3145 79.9089 35.1554 77.3096 35.2009ZM80.0671 30.0418C78.485 28.1327 75.298 28.9963 74.3261 32.2236C73.0378 36.519 77.2418 38.4736 78.6432 36.3827C79.3213 37.2009 78.8014 37.0645 80.9486 37.0645L82.5986 27.2918H80.6774L80.0445 30.0645L80.0671 30.0418ZM64.5393 35.2236C64.2229 33.7009 65.6242 33.1099 66.9577 33.3827C67.0256 34.9281 65.9406 35.769 64.5393 35.2236ZM63.816 29.2463L63.3414 31.0418C65.6016 30.4963 67.2516 30.2009 67.3194 31.9736C64.8331 31.8599 62.3921 32.2463 62.0982 34.6781C61.714 37.7236 64.7427 37.4736 66.6413 36.3827C66.7317 37.5418 66.4379 36.7918 67.0708 37.0418C67.1612 37.0872 68.0879 37.0645 68.2461 37.0645C68.9242 36.6327 68.9242 34.9509 69.0824 34.1099C69.67 31.269 70.8002 27.8145 63.7934 29.2463H63.816ZM30.0932 33.3145C30.1384 34.0872 30.0028 34.6781 29.5056 35.0645C29.1665 35.3145 28.1494 35.6099 27.7426 35.2236C26.4768 34.0645 28.8501 33.2918 30.0706 33.3145H30.0932ZM26.4994 30.9963C28.2172 30.5872 30.4323 30.1099 30.4775 31.8827C27.8782 32.2918 25.4823 31.9281 25.2337 34.7009C24.9625 37.4963 28.2398 37.7236 29.7994 36.3372C30.048 37.4509 29.7542 36.6099 30.1158 37.0645L31.7206 37.0418C31.924 35.7463 32.9637 31.4281 32.6021 30.3827C31.9692 28.5645 28.6241 28.7918 26.9515 29.3145L26.522 31.019L26.4994 30.9963ZM45.2368 32.1327C45.5307 30.9736 46.0279 30.4963 47.3615 30.6781C47.8361 31.3599 47.8361 31.1554 47.9265 32.1327H45.2368ZM42.841 32.2463L42.7506 33.4736C42.8862 35.5418 43.7225 36.4736 45.5985 36.9281C46.367 37.1099 47.8361 37.1781 48.5368 36.9281C49.4183 36.6327 49.3505 35.8372 49.4183 34.8827C47.7231 35.4509 45.1012 35.9281 44.8978 33.6327L49.2149 33.5872C50.5032 33.3827 49.9833 30.8599 49.4635 30.0645C48.4916 28.6099 44.2423 27.5872 42.8184 32.2463H42.841ZM55.9956 29.2236C55.5887 30.3827 55.3175 30.8145 55.0689 32.2463V33.4963L55.4531 34.8827C56.2442 35.9509 56.7867 36.8145 58.5723 37.0418C61.1489 37.3827 61.5106 36.8372 61.7366 34.6327C59.2051 35.8372 56.8545 34.7009 57.5551 31.6781C58.2106 28.8372 59.9736 28.6554 62.6633 29.4736L63.0023 27.3827C61.4202 27.0645 60.403 26.7236 58.7983 27.1554C56.8545 27.7009 57.0353 28.2463 55.9956 29.2463V29.2236ZM38.8856 29.0645C36.6705 28.8827 33.9808 28.5872 33.3706 30.5872C32.2405 34.269 36.2637 32.769 36.0151 35.0645C34.8623 35.7009 34.1391 35.4054 32.6699 35.1099L32.3761 36.7463C37.5972 38.6781 39.9253 34.2009 37.7554 32.7236C36.6027 31.9509 35.7664 32.6099 35.6082 30.9736C36.8966 30.3827 37.1 30.7236 38.5917 30.7236L38.9082 29.0645H38.8856Z" fill="#FEFEFE"/>
<path fill-rule="evenodd" clip-rule="evenodd" d="M41.4165 32.519L41.5747 31.9735C41.7103 30.1326 41.6651 30.9735 43.0665 30.6326L43.2699 29.2917C42.8404 28.9281 42.863 29.0644 42.1172 29.0644L42.1624 28.5644L42.3432 27.2917C39.7213 27.2463 40.4446 26.6099 39.5179 31.7917C38.9302 35.0417 37.7549 37.4735 41.3713 37.0417C42.5918 36.9054 42.4562 36.519 42.5918 35.3826C40.2638 35.6554 41.1226 34.4281 41.4165 32.519ZM52.0396 36.1326L52.2204 34.8826L52.4464 33.519L52.8533 32.1554C53.3505 30.7917 54.4807 31.3599 54.8423 30.8599L55.5204 29.019C54.1868 28.9735 53.8252 29.4735 53.2827 30.1554L53.1697 29.7463C53.1697 29.7235 53.1471 29.6554 53.1471 29.6099C53.1471 29.5644 53.1019 29.3826 53.1019 29.3372L51.0903 29.0644L49.7568 36.9963L51.8814 37.0872L52.0622 36.1326H52.0396ZM69.3756 37.0417H71.4777C71.9749 33.9735 71.8619 31.6326 73.7153 31.019L74.642 30.6554L74.9132 29.0417C73.9187 29.0644 73.2859 29.519 72.9468 30.0417L72.653 29.2008C72.6304 29.1554 72.6304 29.0872 72.6078 29.0417L70.7318 29.019L69.3756 37.0417Z" fill="#FEFEFE"/>
<path fill-rule="evenodd" clip-rule="evenodd" d="M77.3089 35.2012C79.9308 35.1558 80.2246 31.3148 78.6425 30.9285C77.0377 30.5421 75.6137 33.4512 77.3089 35.2012Z" fill="#F8B02B"/>
<path fill-rule="evenodd" clip-rule="evenodd" d="M30.093 33.3145C28.8724 33.2917 26.4992 34.0645 27.7649 35.2235C28.1717 35.5872 29.1889 35.2917 29.5279 35.0645C30.0251 34.7008 30.1382 34.0872 30.1156 33.3145H30.093ZM52.2207 34.8599L55.4528 34.8826L55.0686 33.4963H52.4467L52.2207 34.8599Z" fill="#E41D2C"/>
<path fill-rule="evenodd" clip-rule="evenodd" d="M64.5395 35.2237C65.9635 35.7464 67.0258 34.9283 66.958 33.3828C65.6019 33.1328 64.2231 33.7237 64.5395 35.2237ZM52.4473 33.4964H55.0691V32.2464L52.8541 32.1328L52.4473 33.4964Z" fill="#F8B02B"/>
<path fill-rule="evenodd" clip-rule="evenodd" d="M45.2368 32.1327H47.9265C47.8587 31.1782 47.8361 31.36 47.3614 30.6782C46.0279 30.4964 45.5306 30.9736 45.2368 32.1327Z" fill="#E41D2C"/>
<path fill-rule="evenodd" clip-rule="evenodd" d="M41.4165 32.5194C41.8007 33.4512 41.2131 33.1103 41.959 33.4512L42.7726 33.4739L42.8631 32.2466L41.9816 32.2239C41.5295 32.133 41.7781 32.2921 41.5973 31.9512L41.4391 32.4966L41.4165 32.5194Z" fill="#F8B02B"/>
<defs>
<linearGradient id="paint0_linear_284_6380" x1="48.9991" y1="0.596039" x2="48.9991" y2="62.6008" gradientUnits="userSpaceOnUse">
<stop stop-color="#1D4C80"/>
<stop offset="1" stop-color="#173A63"/>
</linearGradient>
</defs>
</svg>
