<svg width="140" height="49" viewBox="0 0 140 49" fill="none" xmlns="http://www.w3.org/2000/svg">
<path fill-rule="evenodd" clip-rule="evenodd" d="M29.2384 16.6773L30.1887 20.2905H35.9177L29.5099 0.957031H22.5319L16.2055 20.2905H21.9617L22.9391 16.6773H29.2384ZM26.9305 7.806C27.0934 8.43517 27.2201 8.92053 27.3106 9.26208L28.1523 12.4169H24.0252L24.8669 9.26208C24.9755 8.83065 25.1022 8.30035 25.247 7.67118C25.41 7.04201 25.5638 6.40385 25.7086 5.7567C25.8715 5.10956 25.9892 4.57027 26.0616 4.13884C26.1521 4.57027 26.2788 5.12753 26.4417 5.81063C26.6046 6.49373 26.7676 7.15886 26.9305 7.806Z" fill="#4DAEEB"/>
<path fill-rule="evenodd" clip-rule="evenodd" d="M11.2685 1.60418C10.1281 1.22668 8.62572 1.03792 6.76129 1.03792H0.0004869V20.2905H7.5487C9.0692 20.2905 10.3815 20.0658 11.4857 19.6164C12.5899 19.167 13.4407 18.5199 14.038 17.675C14.6353 16.8301 14.934 15.8234 14.934 14.655C14.934 13.6303 14.753 12.8214 14.391 12.2282C14.047 11.617 13.6126 11.1586 13.0877 10.853C12.5627 10.5474 12.0378 10.3317 11.5129 10.2058V10.071C12.0016 9.94518 12.4722 9.71149 12.9248 9.36994C13.3954 9.02839 13.7846 8.56999 14.0923 7.99475C14.4 7.40153 14.5539 6.68248 14.5539 5.8376C14.5539 4.79497 14.2914 3.92312 13.7665 3.22204C13.2415 2.50299 12.4089 1.9637 11.2685 1.60418ZM8.63477 7.88689C8.29085 8.24642 7.68446 8.42618 6.8156 8.42618H5.24079V4.97473H6.70699C7.55775 4.97473 8.18224 5.11854 8.58047 5.40616C8.97869 5.67581 9.1778 6.07129 9.1778 6.5926C9.1778 7.09594 8.99679 7.52737 8.63477 7.88689ZM5.24079 16.2728V12.2282H6.97851C7.63015 12.2282 8.13699 12.327 8.49901 12.5248C8.87914 12.7045 9.1416 12.9472 9.28641 13.2528C9.44932 13.5584 9.53078 13.882 9.53078 14.2235C9.53078 14.8168 9.34977 15.3111 8.98774 15.7066C8.62572 16.0841 7.99217 16.2728 7.08711 16.2728H5.24079Z" fill="#4DAEEB"/>
<path d="M56.4604 20.2905H49.591L42.5044 6.72742H42.3957C42.4319 7.03302 42.4591 7.39255 42.4772 7.806C42.5134 8.21946 42.5406 8.65089 42.5587 9.1003C42.5768 9.5497 42.5949 9.99012 42.613 10.4216C42.6311 10.853 42.6401 11.2485 42.6401 11.608V20.2905H37.9971V1.03792H44.8394L51.8989 14.4123H51.9803C51.9622 14.1067 51.9351 13.7562 51.8989 13.3607L51.8446 12.1203C51.8265 11.6889 51.8084 11.2664 51.7903 10.853V1.03792H56.4604V20.2905Z" fill="#4DAEEB"/>
<path d="M71.2849 20.2905H77.204L71.2034 9.66655L77.3126 1.03792H71.5836L67.5108 6.94314C67.2393 7.32064 66.9587 7.72511 66.6691 8.15654C66.3794 8.56999 66.126 8.98345 65.9088 9.3969V1.03792H60.6414V20.2905H65.9088V13.846L67.4565 12.9292L71.2849 20.2905Z" fill="#4DAEEB"/>
<path d="M9.96473 47.9485H4.72442V32.9563H0V28.6959H14.6891V32.9563H9.96473V47.9485Z" fill="#4DAEEB"/>
<path fill-rule="evenodd" clip-rule="evenodd" d="M28.1787 29.3431C27.0203 28.9116 25.5631 28.6959 23.8073 28.6959H17.4538V47.9485H22.6941V40.9378H24.0245L28.1244 47.9485H39.4945L40.4719 44.3353H46.7712L47.7215 47.9485H53.4505L47.0427 28.615H40.0647L33.847 47.6164L28.4231 39.5626C29.1109 39.1851 29.6992 38.7447 30.188 38.2413C30.6767 37.738 31.0478 37.1628 31.3012 36.5156C31.5727 35.8685 31.7085 35.1584 31.7085 34.3854C31.7085 33.1271 31.4098 32.0844 30.8125 31.2575C30.2332 30.4127 29.3553 29.7745 28.1787 29.3431ZM22.6941 32.6327H23.7258C24.3594 32.6327 24.8753 32.7136 25.2735 32.8754C25.6717 33.0372 25.9613 33.2709 26.1423 33.5765C26.3234 33.8641 26.4139 34.2146 26.4139 34.6281C26.4139 35.2213 26.2962 35.6977 26.0609 36.0572C25.8256 36.3988 25.4998 36.6504 25.0834 36.8122C24.6852 36.956 24.2146 37.0279 23.6715 37.0279H22.6941V32.6327ZM44.8434 36.9201C44.7529 36.5785 44.6262 36.0932 44.4633 35.464C44.3004 34.8168 44.1374 34.1517 43.9745 33.4686C43.8116 32.7855 43.6849 32.2283 43.5944 31.7968C43.522 32.2283 43.4043 32.7675 43.2414 33.4147C43.0966 34.0618 42.9428 34.7 42.7799 35.3292C42.635 35.9583 42.5083 36.4886 42.3997 36.9201L41.558 40.0749H45.6851L44.8434 36.9201Z" fill="#4DAEEB"/>
<path d="M67.1238 47.9485H73.9932V28.6959H69.3231V38.511C69.3412 38.9244 69.3593 39.3469 69.3774 39.7783L69.4317 41.0187C69.4679 41.4141 69.4951 41.7647 69.5132 42.0703H69.4317L62.3722 28.6959H55.53V47.9485H60.1729V39.266C60.1729 38.9065 60.1639 38.511 60.1458 38.0795C60.1277 37.6481 60.1096 37.2077 60.0915 36.7583C60.0734 36.3089 60.0462 35.8774 60.01 35.464C59.9919 35.0505 59.9648 34.691 59.9286 34.3854H60.0372L67.1238 47.9485Z" fill="#4DAEEB"/>
<path d="M90.8541 42.0972C90.8541 43.1399 90.5826 44.1286 90.0396 45.0633C89.5146 45.9981 88.691 46.7621 87.5687 47.3553C86.4646 47.9306 85.0255 48.2182 83.2516 48.2182C82.3646 48.2182 81.5863 48.1732 80.9165 48.0834C80.2649 48.0114 79.6494 47.8856 79.0702 47.7059C78.491 47.5261 77.8936 47.2924 77.2782 47.0048V42.3669C78.3281 42.8882 79.387 43.2927 80.455 43.5803C81.5229 43.8499 82.4913 43.9848 83.3602 43.9848C83.8851 43.9848 84.3105 43.9218 84.6363 43.796C84.9622 43.6702 85.2065 43.4994 85.3694 43.2837C85.5324 43.068 85.6138 42.8253 85.6138 42.5556C85.6138 42.2141 85.4962 41.9265 85.2608 41.6928C85.0255 41.4591 84.6544 41.2164 84.1476 40.9647C83.6408 40.7131 82.962 40.3985 82.1112 40.021C81.3872 39.6974 80.7355 39.3559 80.1563 38.9963C79.577 38.6368 79.0793 38.2323 78.6629 37.7829C78.2647 37.3335 77.957 36.8122 77.7398 36.219C77.5226 35.6078 77.414 34.8888 77.414 34.0618C77.414 32.8215 77.7217 31.7878 78.3371 30.9609C78.9525 30.116 79.8033 29.4869 80.8894 29.0734C81.9936 28.642 83.2697 28.4263 84.7178 28.4263C85.9849 28.4263 87.1253 28.5701 88.1389 28.8577C89.1526 29.1273 90.0577 29.4419 90.8541 29.8015L89.2522 33.8192C88.4195 33.4417 87.5959 33.145 86.7813 32.9293C85.9849 32.6956 85.2427 32.5788 84.5549 32.5788C84.1024 32.5788 83.7313 32.6327 83.4417 32.7406C83.152 32.8484 82.9348 33.0012 82.79 33.199C82.6633 33.3787 82.6 33.5855 82.6 33.8192C82.6 34.1248 82.7176 34.3944 82.9529 34.6281C83.1882 34.8618 83.5774 35.1224 84.1205 35.4101C84.6816 35.6797 85.4418 36.0302 86.4012 36.4617C87.3425 36.8751 88.1389 37.3335 88.7906 37.8369C89.4603 38.3222 89.9672 38.9065 90.3111 39.5896C90.6731 40.2547 90.8541 41.0906 90.8541 42.0972Z" fill="#4DAEEB"/>
<path d="M93.8448 47.9485H99.0037V40.7221H104.814V36.5426H99.0037V32.8754H105.303V28.6959H93.8448V47.9485Z" fill="#4DAEEB"/>
<path d="M119.994 47.9485H108.481V28.6959H119.994V32.8754H113.722V35.8954H119.532V40.0749H113.722V43.7151H119.994V47.9485Z" fill="#4DAEEB"/>
<path fill-rule="evenodd" clip-rule="evenodd" d="M134.108 29.3431C132.95 28.9116 131.492 28.6959 129.737 28.6959H123.383V47.9485H128.623V40.9378H129.954L134.054 47.9485H140L134.352 39.5626C135.04 39.1851 135.629 38.7447 136.117 38.2413C136.606 37.738 136.977 37.1628 137.231 36.5156C137.502 35.8685 137.638 35.1584 137.638 34.3854C137.638 33.1271 137.339 32.0844 136.742 31.2575C136.163 30.4127 135.285 29.7745 134.108 29.3431ZM128.623 32.6327H129.655C130.289 32.6327 130.805 32.7136 131.203 32.8754C131.601 33.0372 131.891 33.2709 132.072 33.5765C132.253 33.8641 132.343 34.2146 132.343 34.6281C132.343 35.2213 132.226 35.6977 131.99 36.0572C131.755 36.3988 131.429 36.6504 131.013 36.8122C130.615 36.956 130.144 37.0279 129.601 37.0279H128.623V32.6327Z" fill="#4DAEEB"/>
<path d="M139.638 0.957031H83.395V4.8091H139.638V0.957031Z" fill="#78C468"/>
<path d="M83.395 8.66116H139.638V12.5132H83.395V8.66116Z" fill="#78C468"/>
<path d="M139.638 16.3653H83.395V20.2174H139.638V16.3653Z" fill="#78C468"/>
</svg>
