<svg width="140" height="37" viewBox="0 0 140 37" fill="none" xmlns="http://www.w3.org/2000/svg">
<path d="M108.223 10.0322H100.667C100.223 10.0322 99.7781 10.4767 99.5559 10.9211L96.4448 30.4765C96.4448 30.921 96.667 31.1432 97.1115 31.1432H101.111C101.556 31.1432 101.778 30.921 101.778 30.4765L102.667 24.921C102.667 24.4766 103.111 24.0321 103.778 24.0321H106.223C111.334 24.0321 114.222 21.5877 114.889 16.6989C115.334 14.6989 114.889 12.9211 114 11.81C112.667 10.6989 110.667 10.0322 108.223 10.0322ZM109.111 17.3655C108.667 20.0322 106.667 20.0322 104.667 20.0322H103.334L104.223 14.9211C104.223 14.6989 104.445 14.4766 104.889 14.4766H105.334C106.667 14.4766 108 14.4766 108.667 15.3655C109.111 15.5877 109.111 16.2544 109.111 17.3655Z" fill="#139AD6"/>
<path d="M53.7782 10.0322H46.2227C45.7782 10.0322 45.3338 10.4767 45.1116 10.9211L42.0005 30.4765C42.0005 30.921 42.2227 31.1432 42.6672 31.1432H46.2227C46.6671 31.1432 47.1116 30.6988 47.3338 30.2543L48.2227 24.921C48.2227 24.4766 48.6671 24.0321 49.3338 24.0321H51.7782C56.8893 24.0321 59.7782 21.5877 60.4448 16.6989C60.8893 14.6989 60.4448 12.9211 59.5559 11.81C58.2226 10.6989 56.4448 10.0322 53.7782 10.0322ZM54.6671 17.3655C54.2226 20.0322 52.2226 20.0322 50.2227 20.0322H49.1116L50.0004 14.9211C50.0004 14.6989 50.2227 14.4766 50.6671 14.4766H51.1115C52.4449 14.4766 53.7782 14.4766 54.4449 15.3655C54.6671 15.5877 54.8893 16.2544 54.6671 17.3655ZM76.6669 17.1433H73.1114C72.8892 17.1433 72.4447 17.3655 72.4447 17.5877L72.2225 18.6988L72.0003 18.2544C71.1114 17.1433 69.5559 16.6989 67.7781 16.6989C63.7781 16.6989 60.2226 19.8099 59.5559 24.0321C59.1115 26.2543 59.7782 28.2543 60.8893 29.5877C62.0004 30.921 63.5559 31.3654 65.5559 31.3654C68.8892 31.3654 70.667 29.3654 70.667 29.3654L70.4448 30.4765C70.4448 30.921 70.667 31.1432 71.1114 31.1432H74.4447C74.8892 31.1432 75.3336 30.6988 75.5558 30.2543L77.5558 17.81C77.3336 17.5877 76.8892 17.1433 76.6669 17.1433ZM71.5559 24.2544C71.1114 26.2543 69.5559 27.8099 67.3337 27.8099C66.2226 27.8099 65.3337 27.3654 64.8892 26.921C64.4448 26.2543 64.2226 25.3655 64.2226 24.2544C64.4448 22.2544 66.2226 20.6988 68.2226 20.6988C69.3337 20.6988 70.0003 21.1433 70.667 21.5877C71.3336 22.2544 71.5559 23.3655 71.5559 24.2544Z" fill="#263B80"/>
<path d="M130.889 17.1432H127.333C127.111 17.1432 126.667 17.3654 126.667 17.5876L126.444 18.6987L126.222 18.2543C125.333 17.1432 123.778 16.6987 122 16.6987C118 16.6987 114.445 19.8098 113.778 24.032C113.333 26.2542 114 28.2542 115.111 29.5875C116.222 30.9209 117.778 31.3653 119.778 31.3653C123.111 31.3653 124.889 29.3653 124.889 29.3653L124.667 30.4764C124.667 30.9209 124.889 31.1431 125.333 31.1431H128.667C129.111 31.1431 129.556 30.6986 129.778 30.2542L131.778 17.8098C131.556 17.5876 131.333 17.1432 130.889 17.1432ZM125.778 24.2542C125.333 26.2542 123.778 27.8098 121.556 27.8098C120.445 27.8098 119.556 27.3653 119.111 26.9209C118.667 26.2542 118.445 25.3653 118.445 24.2542C118.667 22.2542 120.445 20.6987 122.444 20.6987C123.556 20.6987 124.222 21.1431 124.889 21.5876C125.778 22.2543 126 23.3654 125.778 24.2542Z" fill="#139AD6"/>
<path d="M95.9992 17.1431H92.2214C91.777 17.1431 91.5548 17.3653 91.3325 17.5875L86.4437 25.143L84.2215 18.0319C83.9993 17.5875 83.777 17.3653 83.1104 17.3653H79.5548C79.1104 17.3653 78.8882 17.8097 78.8882 18.2542L82.8882 30.0319L79.1104 35.3652C78.8882 35.8096 79.1104 36.4763 79.5548 36.4763H83.1104C83.5548 36.4763 83.777 36.2541 83.9993 36.0318L96.2214 18.4764C96.8881 17.8097 96.4436 17.1431 95.9992 17.1431Z" fill="#263B80"/>
<path d="M135.111 10.6986L132 30.6985C132 31.1429 132.222 31.3652 132.667 31.3652H135.778C136.222 31.3652 136.667 30.9207 136.889 30.4763L140 10.9208C140 10.4764 139.778 10.2542 139.333 10.2542H135.778C135.556 10.0319 135.333 10.2542 135.111 10.6986Z" fill="#139AD6"/>
<path d="M25.5554 3.36538C23.9999 1.58762 21.111 0.69873 17.111 0.69873H5.99996C5.3333 0.69873 4.66664 1.36539 4.44442 2.03206L0 31.143C0 31.8097 0.444442 32.2541 0.888883 32.2541H7.77773L9.5555 21.3653V21.8097C9.77772 21.143 10.4444 20.4764 11.111 20.4764H14.4444C20.8888 20.4764 25.7776 17.8097 27.3332 10.4764V9.80979C27.1109 9.80979 27.1109 9.80979 27.3332 9.80979C27.5554 6.92092 27.1109 5.14315 25.5554 3.36538Z" fill="#263B80"/>
<path d="M27.1112 9.80957V10.4762C25.5557 18.0317 20.6668 20.4762 14.2224 20.4762H10.8891C10.2224 20.4762 9.55576 21.1428 9.33354 21.8095L7.11133 35.365C7.11133 35.8094 7.33355 36.2538 8.00021 36.2538H13.778C14.4446 36.2538 15.1113 35.8094 15.1113 35.1427V34.9205L16.2224 28.0317V27.5872C16.2224 26.9206 16.889 26.4761 17.5557 26.4761H18.4446C24.0001 26.4761 28.4445 24.2539 29.5556 17.5873C30.0001 14.9206 29.7779 12.4762 28.4445 10.9207C28.2223 10.4762 27.7779 10.0318 27.1112 9.80957Z" fill="#139AD6"/>
<path d="M25.5551 9.14322C25.3329 9.14322 25.1106 8.92101 24.8884 8.92101C24.6662 8.92101 24.444 8.92101 24.2218 8.69878C23.3329 8.47656 22.444 8.47656 21.3329 8.47656H12.6663C12.444 8.47656 12.2218 8.47656 11.9996 8.69878C11.5552 8.92101 11.3329 9.36545 11.3329 9.80989L9.55518 21.3654V21.8098C9.7774 21.1431 10.4441 20.4765 11.1107 20.4765H14.444C20.8884 20.4765 25.7773 17.8098 27.3328 10.4765C27.3328 10.2543 27.3328 10.0321 27.5551 9.80989C27.1106 9.58767 26.8884 9.36544 26.444 9.36544C25.7773 9.14322 25.7773 9.14322 25.5551 9.14322Z" fill="#232C65"/>
</svg>
