<svg width="25" height="25" viewBox="0 0 25 25" fill="none" xmlns="http://www.w3.org/2000/svg">
<g clip-path="url(#clip0_270_4970)">
<path d="M0.5 4.5H24.5V20.5002H0.5V4.5Z" fill="#F0F0F0"/>
<path d="M0.5 6.49976H24.5V8.49958H0.5V6.49976ZM0.5 10.4999H24.5V12.4998H0.5V10.4999ZM0.5 14.4996H24.5V16.4994H0.5V14.4996ZM0.5 18.4998H24.5V20.4996H0.5V18.4998Z" fill="#D80027"/>
<path d="M0.5 4.5H12.5V13.1155H0.5V4.5Z" fill="#2E52B2"/>
<path d="M5.17911 8.0292L4.98584 8.62376H4.36072L4.86655 8.99103L4.67328 9.58554L5.17911 9.21828L5.68461 9.58554L5.49139 8.99103L5.99722 8.62376H5.37205L5.17911 8.0292ZM5.37205 10.7693L5.17911 10.1748L4.98584 10.7693H4.36072L4.86655 11.1366L4.67328 11.7312L5.17911 11.3638L5.68461 11.7312L5.49139 11.1366L5.99722 10.7693H5.37205ZM2.73012 10.7693L2.53714 10.1748L2.34388 10.7693H1.71875L2.22458 11.1366L2.03131 11.7312L2.53714 11.3638L3.04269 11.7312L2.84947 11.1366L3.3552 10.7693H2.73012ZM2.53714 8.0292L2.34388 8.62376H1.71875L2.22458 8.99103L2.03131 9.58554L2.53714 9.21828L3.04269 9.58554L2.84947 8.99103L3.3552 8.62376H2.73012L2.53714 8.0292ZM5.17911 5.88354L4.98584 6.47815H4.36072L4.86655 6.84547L4.67328 7.43998L5.17911 7.07267L5.68461 7.43998L5.49139 6.84547L5.99722 6.47815H5.37205L5.17911 5.88354ZM2.53714 5.88354L2.34388 6.47815H1.71875L2.22458 6.84547L2.03131 7.43998L2.53714 7.07267L3.04269 7.43998L2.84947 6.84547L3.3552 6.47815H2.73012L2.53714 5.88354ZM7.82103 8.0292L7.62781 8.62376H7.00269L7.50847 8.99103L7.3153 9.58554L7.82103 9.21828L8.32662 9.58554L8.13336 8.99103L8.63919 8.62376H8.01406L7.82103 8.0292ZM8.01406 10.7693L7.82103 10.1748L7.62781 10.7693H7.00269L7.50847 11.1366L7.3153 11.7312L7.82103 11.3638L8.32662 11.7312L8.13336 11.1366L8.63919 10.7693H8.01406ZM10.656 10.7693L10.463 10.1748L10.2698 10.7693H9.6447L10.1504 11.1366L9.95722 11.7312L10.463 11.3638L10.9686 11.7312L10.7753 11.1366L11.2812 10.7693H10.656ZM10.463 8.0292L10.2698 8.62376H9.6447L10.1504 8.99103L9.95722 9.58554L10.463 9.21828L10.9686 9.58554L10.7753 8.99103L11.2812 8.62376H10.656L10.463 8.0292ZM7.82103 5.88354L7.62781 6.47815H7.00269L7.50847 6.84547L7.3153 7.43998L7.82103 7.07267L8.32662 7.43998L8.13336 6.84547L8.63919 6.47815H8.01406L7.82103 5.88354ZM10.463 5.88354L10.2698 6.47815H9.6447L10.1504 6.84547L9.95722 7.43998L10.463 7.07267L10.9686 7.43998L10.7753 6.84547L11.2812 6.47815H10.656L10.463 5.88354Z" fill="#F0F0F0"/>
</g>
<defs>
<clipPath id="clip0_270_4970">
<rect width="24" height="24" fill="white" transform="translate(0.5 0.5)"/>
</clipPath>
</defs>
</svg>
