<svg width="673" height="323" viewBox="0 0 673 323" fill="none" xmlns="http://www.w3.org/2000/svg">
<path d="M588.503 0.587402H515.343V95.9948L588.503 97.8131V0.587402Z" fill="#E0E0E0"/>
<path d="M583.69 4.01025H519.729V90.54L583.69 92.6792V4.01025Z" fill="#FAFAFA"/>
<path d="M572.459 19.7333L529.996 18.1289V78.5607H572.459V19.7333Z" fill="#E0E0E0"/>
<path d="M529.996 78.5607L572.459 47.5426L529.996 18.1289V78.5607Z" fill="#EBEBEB"/>
<path d="M110.396 44.3335H19.6953V322.106H110.396V44.3335Z" fill="#EBEBEB"/>
<path d="M181.738 45.2959H110.075V322.106H181.738V45.2959Z" fill="#F5F5F5"/>
<path d="M101.411 88.8286H24.5078V110.434H101.411V88.8286Z" fill="#E0E0E0"/>
<path d="M30.9258 91.5024H26.6475V108.081H30.9258V91.5024Z" fill="#F5F5F5"/>
<path d="M36.0593 95.0321C36.0593 95.7808 35.4175 96.4225 34.6688 96.4225C33.9201 96.4225 33.2783 95.7808 33.2783 95.0321C33.2783 94.2834 33.9201 93.6416 34.6688 93.6416C35.4175 93.6416 36.0593 94.2834 36.0593 95.0321Z" fill="#FAFAFA"/>
<path d="M36.0593 100.915C36.0593 101.664 35.4175 102.305 34.6688 102.305C33.9201 102.305 33.2783 101.664 33.2783 100.915C33.2783 100.166 33.9201 99.5244 34.6688 99.5244C35.4175 99.5244 36.0593 100.059 36.0593 100.915Z" fill="#FAFAFA"/>
<path d="M45.793 93.6416H41.5146V106.37H45.793V93.6416Z" fill="#F5F5F5"/>
<path d="M51.8897 93.6416H47.6113V106.37H51.8897V93.6416Z" fill="#F5F5F5"/>
<path d="M57.9864 93.6416H53.708V106.37H57.9864V93.6416Z" fill="#F5F5F5"/>
<path d="M64.1895 93.6416H59.9111V106.37H64.1895V93.6416Z" fill="#F5F5F5"/>
<path d="M70.2862 93.6416H66.0078V106.37H70.2862V93.6416Z" fill="#F5F5F5"/>
<path d="M76.3829 93.6416H72.1045V106.37H76.3829V93.6416Z" fill="#F5F5F5"/>
<path d="M82.4795 93.6416H78.2012V106.37H82.4795V93.6416Z" fill="#F5F5F5"/>
<path d="M88.5762 93.6416H84.2979V106.37H88.5762V93.6416Z" fill="#F5F5F5"/>
<path d="M94.6729 93.6416H90.3945V106.37H94.6729V93.6416Z" fill="#F5F5F5"/>
<path d="M100.876 93.6416H96.5977V106.37H100.876V93.6416Z" fill="#F5F5F5"/>
<path d="M101.411 123.483H24.5078V145.089H101.411V123.483Z" fill="#E0E0E0"/>
<path d="M30.9258 126.157H26.6475V142.735H30.9258V126.157Z" fill="#F5F5F5"/>
<path d="M36.0593 129.686C36.0593 130.435 35.4175 131.077 34.6688 131.077C33.9201 131.077 33.2783 130.435 33.2783 129.686C33.2783 128.938 33.9201 128.296 34.6688 128.296C35.4175 128.296 36.0593 128.938 36.0593 129.686Z" fill="#FAFAFA"/>
<path d="M36.0593 135.569C36.0593 136.318 35.4175 136.96 34.6688 136.96C33.9201 136.96 33.2783 136.318 33.2783 135.569C33.2783 134.82 33.9201 134.179 34.6688 134.179C35.4175 134.179 36.0593 134.82 36.0593 135.569Z" fill="#FAFAFA"/>
<path d="M45.793 128.296H41.5146V141.024H45.793V128.296Z" fill="#F5F5F5"/>
<path d="M51.8897 128.296H47.6113V141.024H51.8897V128.296Z" fill="#F5F5F5"/>
<path d="M57.9864 128.296H53.708V141.024H57.9864V128.296Z" fill="#F5F5F5"/>
<path d="M64.1895 128.296H59.9111V141.024H64.1895V128.296Z" fill="#F5F5F5"/>
<path d="M70.2862 128.296H66.0078V141.024H70.2862V128.296Z" fill="#F5F5F5"/>
<path d="M76.3829 128.296H72.1045V141.024H76.3829V128.296Z" fill="#F5F5F5"/>
<path d="M82.4795 128.296H78.2012V141.024H82.4795V128.296Z" fill="#F5F5F5"/>
<path d="M88.5762 128.296H84.2979V141.024H88.5762V128.296Z" fill="#F5F5F5"/>
<path d="M94.6729 128.296H90.3945V141.024H94.6729V128.296Z" fill="#F5F5F5"/>
<path d="M100.876 128.296H96.5977V141.024H100.876V128.296Z" fill="#F5F5F5"/>
<path d="M101.411 158.138H24.5078V179.743H101.411V158.138Z" fill="#E0E0E0"/>
<path d="M30.9258 160.918H26.6475V177.497H30.9258V160.918Z" fill="#F5F5F5"/>
<path d="M36.0593 164.341C36.0593 165.09 35.4175 165.732 34.6688 165.732C33.9201 165.732 33.2783 165.09 33.2783 164.341C33.2783 163.592 33.9201 162.951 34.6688 162.951C35.4175 162.951 36.0593 163.592 36.0593 164.341Z" fill="#FAFAFA"/>
<path d="M36.0593 170.224C36.0593 170.973 35.4175 171.614 34.6688 171.614C33.9201 171.614 33.2783 170.973 33.2783 170.224C33.2783 169.475 33.9201 168.833 34.6688 168.833C35.4175 168.833 36.0593 169.475 36.0593 170.224Z" fill="#FAFAFA"/>
<path d="M45.793 162.951H41.5146V175.679H45.793V162.951Z" fill="#F5F5F5"/>
<path d="M51.8897 162.951H47.6113V175.679H51.8897V162.951Z" fill="#F5F5F5"/>
<path d="M57.9864 162.951H53.708V175.679H57.9864V162.951Z" fill="#F5F5F5"/>
<path d="M64.1895 162.951H59.9111V175.679H64.1895V162.951Z" fill="#F5F5F5"/>
<path d="M70.2862 162.951H66.0078V175.679H70.2862V162.951Z" fill="#F5F5F5"/>
<path d="M76.3829 162.951H72.1045V175.679H76.3829V162.951Z" fill="#F5F5F5"/>
<path d="M82.4795 162.951H78.2012V175.679H82.4795V162.951Z" fill="#F5F5F5"/>
<path d="M88.5762 162.951H84.2979V175.679H88.5762V162.951Z" fill="#F5F5F5"/>
<path d="M94.6729 162.951H90.3945V175.679H94.6729V162.951Z" fill="#F5F5F5"/>
<path d="M100.876 162.951H96.5977V175.679H100.876V162.951Z" fill="#F5F5F5"/>
<path d="M101.411 192.792H24.5078V214.398H101.411V192.792Z" fill="#E0E0E0"/>
<path d="M30.9258 195.573H26.6475V212.152H30.9258V195.573Z" fill="#F5F5F5"/>
<path d="M36.0593 199.103C36.0593 199.852 35.4175 200.493 34.6688 200.493C33.9201 200.493 33.2783 199.852 33.2783 199.103C33.2783 198.354 33.9201 197.712 34.6688 197.712C35.4175 197.712 36.0593 198.247 36.0593 199.103Z" fill="#FAFAFA"/>
<path d="M36.0593 204.879C36.0593 205.627 35.4175 206.269 34.6688 206.269C33.9201 206.269 33.2783 205.627 33.2783 204.879C33.2783 204.13 33.9201 203.488 34.6688 203.488C35.4175 203.488 36.0593 204.13 36.0593 204.879Z" fill="#FAFAFA"/>
<path d="M45.793 197.712H41.5146V210.441H45.793V197.712Z" fill="#F5F5F5"/>
<path d="M51.8897 197.712H47.6113V210.441H51.8897V197.712Z" fill="#F5F5F5"/>
<path d="M57.9864 197.712H53.708V210.441H57.9864V197.712Z" fill="#F5F5F5"/>
<path d="M64.1895 197.712H59.9111V210.441H64.1895V197.712Z" fill="#F5F5F5"/>
<path d="M70.2862 197.712H66.0078V210.441H70.2862V197.712Z" fill="#F5F5F5"/>
<path d="M76.3829 197.712H72.1045V210.441H76.3829V197.712Z" fill="#F5F5F5"/>
<path d="M82.4795 197.712H78.2012V210.441H82.4795V197.712Z" fill="#F5F5F5"/>
<path d="M88.5762 197.712H84.2979V210.441H88.5762V197.712Z" fill="#F5F5F5"/>
<path d="M94.6729 197.712H90.3945V210.441H94.6729V197.712Z" fill="#F5F5F5"/>
<path d="M100.876 197.712H96.5977V210.441H100.876V197.712Z" fill="#F5F5F5"/>
<path d="M101.411 227.554H24.5078V249.16H101.411V227.554Z" fill="#E0E0E0"/>
<path d="M30.9258 230.228H26.6475V246.807H30.9258V230.228Z" fill="#F5F5F5"/>
<path d="M36.0593 233.758C36.0593 234.506 35.4175 235.148 34.6688 235.148C33.9201 235.148 33.2783 234.506 33.2783 233.758C33.2783 233.009 33.9201 232.367 34.6688 232.367C35.4175 232.367 36.0593 233.009 36.0593 233.758Z" fill="#FAFAFA"/>
<path d="M36.0593 239.534C36.0593 240.282 35.4175 240.924 34.6688 240.924C33.9201 240.924 33.2783 240.282 33.2783 239.534C33.2783 238.785 33.9201 238.143 34.6688 238.143C35.4175 238.25 36.0593 238.785 36.0593 239.534Z" fill="#FAFAFA"/>
<path d="M45.793 232.367H41.5146V245.095H45.793V232.367Z" fill="#F5F5F5"/>
<path d="M51.8897 232.367H47.6113V245.095H51.8897V232.367Z" fill="#F5F5F5"/>
<path d="M57.9864 232.367H53.708V245.095H57.9864V232.367Z" fill="#F5F5F5"/>
<path d="M64.1895 232.367H59.9111V245.095H64.1895V232.367Z" fill="#F5F5F5"/>
<path d="M70.2862 232.367H66.0078V245.095H70.2862V232.367Z" fill="#F5F5F5"/>
<path d="M76.3829 232.367H72.1045V245.095H76.3829V232.367Z" fill="#F5F5F5"/>
<path d="M82.4795 232.367H78.2012V245.095H82.4795V232.367Z" fill="#F5F5F5"/>
<path d="M88.5762 232.367H84.2979V245.095H88.5762V232.367Z" fill="#F5F5F5"/>
<path d="M94.6729 232.367H90.3945V245.095H94.6729V232.367Z" fill="#F5F5F5"/>
<path d="M100.876 232.367H96.5977V245.095H100.876V232.367Z" fill="#F5F5F5"/>
<path d="M101.411 262.209H24.5078V283.815H101.411V262.209Z" fill="#E0E0E0"/>
<path d="M30.9258 264.883H26.6475V281.461H30.9258V264.883Z" fill="#F5F5F5"/>
<path d="M36.0593 268.412C36.0593 269.161 35.4175 269.803 34.6688 269.803C33.9201 269.803 33.2783 269.161 33.2783 268.412C33.2783 267.664 33.9201 267.022 34.6688 267.022C35.4175 267.022 36.0593 267.664 36.0593 268.412Z" fill="#FAFAFA"/>
<path d="M36.0593 274.295C36.0593 275.044 35.4175 275.686 34.6688 275.686C33.9201 275.686 33.2783 275.044 33.2783 274.295C33.2783 273.547 33.9201 272.905 34.6688 272.905C35.4175 272.905 36.0593 273.547 36.0593 274.295Z" fill="#FAFAFA"/>
<path d="M45.793 267.022H41.5146V279.75H45.793V267.022Z" fill="#F5F5F5"/>
<path d="M51.8897 267.022H47.6113V279.75H51.8897V267.022Z" fill="#F5F5F5"/>
<path d="M57.9864 267.022H53.708V279.75H57.9864V267.022Z" fill="#F5F5F5"/>
<path d="M64.1895 267.022H59.9111V279.75H64.1895V267.022Z" fill="#F5F5F5"/>
<path d="M70.2862 267.022H66.0078V279.75H70.2862V267.022Z" fill="#F5F5F5"/>
<path d="M76.3829 267.022H72.1045V279.75H76.3829V267.022Z" fill="#F5F5F5"/>
<path d="M82.4795 267.022H78.2012V279.75H82.4795V267.022Z" fill="#F5F5F5"/>
<path d="M88.5762 267.022H84.2979V279.75H88.5762V267.022Z" fill="#F5F5F5"/>
<path d="M94.6729 267.022H90.3945V279.75H94.6729V267.022Z" fill="#F5F5F5"/>
<path d="M100.876 267.022H96.5977V279.75H100.876V267.022Z" fill="#F5F5F5"/>
<path d="M101.411 296.863H24.5078V318.469H101.411V296.863Z" fill="#E0E0E0"/>
<path d="M30.9258 299.644H26.6475V316.223H30.9258V299.644Z" fill="#F5F5F5"/>
<path d="M36.0593 303.067C36.0593 303.815 35.4175 304.457 34.6688 304.457C33.9201 304.457 33.2783 303.815 33.2783 303.067C33.2783 302.318 33.9201 301.676 34.6688 301.676C35.4175 301.676 36.0593 302.318 36.0593 303.067Z" fill="#FAFAFA"/>
<path d="M36.0593 308.95C36.0593 309.698 35.4175 310.34 34.6688 310.34C33.9201 310.34 33.2783 309.698 33.2783 308.95C33.2783 308.201 33.9201 307.559 34.6688 307.559C35.4175 307.559 36.0593 308.201 36.0593 308.95Z" fill="#FAFAFA"/>
<path d="M45.793 301.676H41.5146V314.404H45.793V301.676Z" fill="#F5F5F5"/>
<path d="M51.8897 301.676H47.6113V314.404H51.8897V301.676Z" fill="#F5F5F5"/>
<path d="M57.9864 301.676H53.708V314.404H57.9864V301.676Z" fill="#F5F5F5"/>
<path d="M64.1895 301.676H59.9111V314.404H64.1895V301.676Z" fill="#F5F5F5"/>
<path d="M70.2862 301.676H66.0078V314.404H70.2862V301.676Z" fill="#F5F5F5"/>
<path d="M76.3829 301.676H72.1045V314.404H76.3829V301.676Z" fill="#F5F5F5"/>
<path d="M82.4795 301.676H78.2012V314.404H82.4795V301.676Z" fill="#F5F5F5"/>
<path d="M88.5762 301.676H84.2979V314.404H88.5762V301.676Z" fill="#F5F5F5"/>
<path d="M94.6729 301.676H90.3945V314.404H94.6729V301.676Z" fill="#F5F5F5"/>
<path d="M100.876 301.676H96.5977V314.404H100.876V301.676Z" fill="#F5F5F5"/>
<path d="M72.1052 88.8286C72.1052 88.8286 72.1052 88.6147 71.9983 88.1869C71.9983 87.759 71.8913 87.1173 71.8913 86.2616C71.8913 85.4059 71.8913 84.4433 71.7844 83.2667C71.6774 82.0902 71.6774 80.6997 71.2496 79.3093C70.8217 77.9188 70.18 76.4214 69.2173 75.0309C68.2547 73.6404 66.7573 72.3569 65.0459 71.6082C63.2276 70.8595 61.1954 70.5386 59.0562 70.4317C56.9171 70.2178 54.6709 70.0038 52.4248 69.8969C43.3333 69.1482 35.0974 68.6134 29.1077 68.5064C26.1129 68.3995 23.7598 68.5064 22.0485 68.5064C21.2997 68.5064 20.658 68.5064 20.1232 68.5064C19.6954 68.5064 19.4814 68.5064 19.4814 68.5064C19.4814 68.5064 19.6954 68.5064 20.1232 68.3995C20.658 68.3995 21.2997 68.2925 22.0485 68.2925C23.7598 68.1855 26.1129 68.1855 29.1077 68.1855C35.0974 68.1855 43.3333 68.6134 52.4248 69.4691C54.6709 69.683 56.9171 69.8969 59.0562 70.0038C61.1954 70.2178 63.3346 70.5386 65.1529 71.2873C67.0782 72.0361 68.5756 73.4265 69.5382 74.9239C70.6078 76.4214 71.2496 77.9188 71.5704 79.4162C71.8913 80.9137 71.9983 82.3041 71.9983 83.4807C71.9983 84.6572 71.9983 85.7268 71.9983 86.4755C71.9983 87.2242 71.9983 87.866 71.9983 88.4008C72.1052 88.6147 72.1052 88.8286 72.1052 88.8286Z" fill="#E0E0E0"/>
<path d="M48.7878 88.8285C48.7878 88.8285 48.7878 88.6145 48.7878 88.1867C48.7878 87.7589 48.7878 87.1171 48.7878 86.3684C48.7878 85.6197 48.7878 84.6571 48.6808 83.4805C48.5739 82.4109 48.3599 81.1274 47.7182 79.9509C47.0764 78.7743 45.7929 77.9187 44.2955 77.2769C42.7981 76.7421 40.9798 76.4212 39.2684 76.7421C38.4128 76.8491 37.4501 77.1699 36.7014 77.5978C35.8458 78.0256 35.097 78.6674 34.6692 79.523C34.2414 80.3787 34.2414 81.3413 34.6692 82.197C35.097 83.0527 35.9527 83.6944 36.9153 83.9083C37.878 84.1223 38.8406 83.8014 39.5893 83.1596C40.338 82.5179 40.7659 81.5552 40.7659 80.5926C40.8728 79.63 40.5519 78.7743 40.0171 78.0256C39.4824 77.2769 38.7336 76.6351 37.9849 76.2073C37.2362 75.7795 36.3805 75.6725 35.4179 75.5656C34.5622 75.4586 33.7066 75.3516 32.8509 75.2447C31.2465 75.0308 29.6421 74.9238 28.2517 74.9238C25.4707 74.8168 23.2246 74.8168 21.6202 74.8168C20.8715 74.8168 20.3367 74.8168 19.8019 74.8168C19.3741 74.8168 19.1602 74.8168 19.1602 74.8168C19.1602 74.8168 19.3741 74.8168 19.8019 74.7099C20.2297 74.7099 20.8715 74.6029 21.6202 74.6029C23.2246 74.496 25.4707 74.389 28.2517 74.496C29.6421 74.496 31.2465 74.6029 32.8509 74.8168C33.7066 74.9238 34.5622 75.0308 35.4179 75.1377C35.8458 75.2447 36.2736 75.2447 36.7014 75.3516C37.1293 75.4586 37.6641 75.5655 38.0919 75.7795C38.9476 76.2073 39.6963 76.8491 40.338 77.7047C40.9798 78.5604 41.3007 79.523 41.1937 80.6996C41.0867 81.7692 40.6589 82.8388 39.8032 83.5875C39.0545 84.3362 37.771 84.764 36.5945 84.5501C35.4179 84.3362 34.4553 83.5875 33.9205 82.5179C33.3857 81.5553 33.3857 80.2717 33.9205 79.3091C34.4553 78.3465 35.311 77.7047 36.1666 77.1699C37.0223 76.7421 37.9849 76.4212 38.9476 76.2073C40.8728 75.8864 42.6911 76.2073 44.2955 76.7421C45.7929 77.3839 47.1834 78.3465 47.9321 79.63C48.6808 80.9135 48.7878 82.197 48.8947 83.3736C49.0017 84.5501 48.8947 85.5127 48.8947 86.2614C48.8947 87.0102 48.7878 87.5449 48.7878 88.0797C48.7878 88.6145 48.7878 88.8285 48.7878 88.8285Z" fill="#E0E0E0"/>
<path d="M78.4158 88.8282C78.4158 88.8282 78.3089 88.6143 78.2019 88.0795C78.0949 87.6517 77.988 86.903 77.7741 86.0473C77.3462 84.229 76.8114 81.662 75.5279 78.6671C74.2444 75.6723 72.3192 72.2496 68.7895 69.6826C67.0782 68.3991 64.939 67.6504 62.6929 67.3295C60.4467 67.0086 57.9867 67.0086 55.5266 66.9016C45.5794 66.6877 36.5949 66.7947 30.0704 66.4738C26.8616 66.3668 24.1876 66.1529 22.3693 66.046C21.5137 65.939 20.7649 65.939 20.2302 65.832C19.8023 65.832 19.4814 65.7251 19.4814 65.7251C19.4814 65.7251 19.6954 65.7251 20.2302 65.7251C20.7649 65.7251 21.5137 65.7251 22.3693 65.832C24.1876 65.939 26.8616 66.046 30.0704 66.046C36.5949 66.1529 45.5794 66.1529 55.5266 66.2599C57.9867 66.3669 60.4467 66.3668 62.7998 66.6877C65.1529 67.0086 67.399 67.7573 69.1104 69.1478C70.8217 70.5382 72.3192 72.0357 73.3887 73.6401C74.4583 75.2444 75.314 76.8488 75.8488 78.3463C77.1323 81.3411 77.6671 84.0151 77.988 85.8334C78.0949 86.6891 78.2019 87.4378 78.3088 87.8656C78.4158 88.5073 78.4158 88.8282 78.4158 88.8282Z" fill="#E0E0E0"/>
<path d="M100.342 47.7563H25.5781V58.6662H100.342V47.7563Z" fill="#E0E0E0"/>
<path d="M82.8012 53.2109H42.0498V58.6658H82.8012V53.2109Z" fill="#F5F5F5"/>
<path d="M673 321.251C673 321.251 672.465 321.251 671.289 321.251C670.112 321.251 668.401 321.251 666.155 321.251C661.662 321.251 655.031 321.357 646.581 321.357C629.575 321.464 604.974 321.571 574.491 321.678C513.631 321.892 429.562 322.106 336.721 322.427C243.881 322.641 159.811 322.641 98.9515 322.427C68.5752 322.32 43.8677 322.213 26.8612 321.999C18.3045 321.892 11.78 321.785 7.28776 321.571C2.79548 321.464 0.442383 321.251 0.442383 321.144C0.442383 321.144 0.549343 321.251 0.87022 321.251C1.1911 321.251 1.61893 321.357 2.15373 321.357C3.33028 321.464 5.04162 321.464 7.28776 321.571C11.78 321.678 18.4115 321.785 26.8612 321.892C43.8677 321.999 68.4683 322.106 98.9515 322.213C159.811 322.32 243.881 322.213 336.721 321.999C429.562 321.785 513.631 321.571 574.491 321.464C604.867 321.357 629.575 321.357 646.581 321.251C655.138 321.251 661.662 321.251 666.155 321.251C668.401 321.251 670.112 321.251 671.289 321.251C672.465 321.144 673 321.251 673 321.251Z" fill="#263238"/>
<path d="M514.38 82.197C513.632 79.6299 510.744 77.9186 508.177 78.5604C507.214 78.7743 506.252 79.3091 505.289 79.3091C504.433 79.3091 503.578 78.7743 502.829 78.4534C498.978 76.849 494.058 78.9882 492.668 82.9457C490.208 81.5552 486.892 81.7691 484.646 83.5874C482.4 85.4057 481.33 88.5075 482.079 91.2885C479.405 91.8233 477.159 94.1764 476.945 96.9573C476.624 99.6313 478.335 102.519 480.902 103.482C479.726 105.514 479.726 108.081 480.795 110.22C481.865 112.359 484.004 113.857 486.25 114.178C485.929 116.745 487.106 119.419 489.245 120.702C491.384 121.986 494.379 121.986 496.411 120.488C496.946 122.948 499.085 124.874 501.545 125.408C504.005 125.836 506.679 124.767 508.07 122.627C510.316 124.874 514.274 124.553 516.627 122.414C518.98 120.274 519.728 116.852 519.408 113.75C522.081 114.606 525.29 113.429 526.895 111.076C528.499 108.723 528.392 105.407 526.681 103.161C529.034 103.054 531.066 101.236 531.815 98.9895C532.564 96.7434 531.922 94.2833 530.531 92.3581C529.141 90.5398 527.002 89.2562 524.649 88.8284C524.328 86.6892 522.937 84.764 521.119 83.6944C519.301 82.5178 517.054 82.197 514.915 82.8387" fill="#263238"/>
<path d="M505.824 233.651L503.257 318.148H499.192L499.941 233.865L505.824 233.651Z" fill="#455A64"/>
<path d="M520.37 232.581L540.264 321.785L544.543 321.571L528.178 232.581H520.37Z" fill="#455A64"/>
<path d="M483.683 233.65L460.58 321.785L455.446 321.571L477.159 233.223L483.683 233.65Z" fill="#455A64"/>
<path d="M539.944 146.158C539.944 146.158 561.549 144.875 559.41 169.903C557.271 194.932 555.987 220.174 547.965 228.838C539.944 237.501 459.083 237.822 452.344 230.656C445.606 223.597 465.286 223.918 469.03 223.918C472.773 223.918 495.556 226.057 502.936 206.59C510.423 187.124 508.498 144.875 539.944 146.158Z" fill="#455A64"/>
<path d="M541.334 146.159C541.334 146.159 557.805 149.581 556.308 166.802C554.811 184.129 550.425 214.292 542.403 221.993C534.381 229.694 502.936 231.405 485.929 230.335C466.142 229.052 453.734 225.308 453.734 225.308C453.734 225.308 450.098 227.661 451.274 229.159C452.344 230.656 461.97 236.646 508.711 235.683C555.345 234.721 552.137 227.768 554.062 220.281C555.987 212.794 560.052 172.685 559.517 163.807C558.875 155.036 554.49 147.656 541.334 146.159Z" fill="#455A64"/>
<path d="M441.969 316.437L441.862 306.597L460.259 306.383L460.473 320.822L459.296 320.929C454.269 321.25 433.412 322.32 429.99 321.357C426.353 320.181 441.969 316.437 441.969 316.437Z" fill="#4DAEEB"/>
<g opacity="0.4">
<path d="M453.842 320.715C454.056 319.218 454.911 317.721 456.195 316.758C457.371 315.795 458.976 315.261 460.473 315.368L460.58 320.502L453.842 320.715Z" fill="black"/>
</g>
<path opacity="0.4" d="M434.268 318.576C434.268 318.576 428.813 320.181 429.455 321.143C430.097 321.999 451.167 321.785 460.473 320.822V320.394L435.979 320.929C435.979 320.929 435.338 318.576 434.268 318.576Z" fill="black"/>
<path d="M460.794 320.395C460.794 320.395 460.687 320.395 460.473 320.395C460.152 320.395 459.938 320.395 459.617 320.501C458.655 320.501 457.585 320.608 456.302 320.715C453.521 320.822 449.563 321.036 445.285 321.036C441.007 321.143 437.049 321.036 434.268 321.036C432.985 321.036 431.808 320.929 430.952 320.929C430.632 320.929 430.311 320.929 429.99 320.929C430.311 320.929 430.525 320.929 430.952 320.929C431.915 320.929 432.985 320.929 434.268 320.929C437.049 320.929 441.007 320.929 445.285 320.929C449.563 320.822 453.521 320.715 456.302 320.608C457.585 320.608 458.762 320.501 459.617 320.501C459.938 320.501 460.259 320.501 460.58 320.501C460.687 320.395 460.794 320.395 460.794 320.395Z" fill="#263238"/>
<path d="M435.979 321.143C435.872 321.143 435.872 320.395 435.338 319.539C434.803 318.683 434.161 318.362 434.161 318.255C434.161 318.148 435.017 318.576 435.552 319.432C436.086 320.288 435.979 321.25 435.979 321.143Z" fill="#263238"/>
<path d="M441.327 318.362C441.327 318.362 441.007 318.041 440.686 317.613C440.365 317.186 440.258 316.865 440.258 316.758C440.258 316.758 440.579 317.079 440.9 317.507C441.22 317.934 441.434 318.362 441.327 318.362Z" fill="#263238"/>
<path d="M442.825 317.507C442.825 317.507 442.504 317.4 442.183 317.079C441.862 316.758 441.648 316.544 441.648 316.437C441.648 316.437 441.969 316.544 442.29 316.865C442.611 317.186 442.932 317.507 442.825 317.507Z" fill="#263238"/>
<path d="M443.788 315.795C443.788 315.902 443.36 315.902 442.825 315.902C442.29 315.902 441.862 315.902 441.862 315.795C441.862 315.688 442.29 315.688 442.825 315.688C443.36 315.688 443.788 315.688 443.788 315.795Z" fill="#263238"/>
<path d="M444.108 314.619C444.108 314.725 443.68 314.939 443.038 314.939C442.397 315.046 441.969 314.832 441.969 314.832C441.969 314.725 442.504 314.832 443.038 314.725C443.573 314.619 444.001 314.512 444.108 314.619Z" fill="#263238"/>
<path d="M440.686 316.758C440.686 316.758 440.258 316.865 439.509 316.758C439.188 316.758 438.761 316.651 438.226 316.544C438.012 316.437 437.798 316.437 437.477 316.223C437.37 316.116 437.263 316.009 437.156 315.902C437.156 315.688 437.156 315.474 437.37 315.474C438.547 314.833 439.616 315.474 440.044 316.116C440.258 316.437 440.365 316.651 440.472 316.865C440.472 317.079 440.472 317.186 440.472 317.186C440.472 317.186 440.365 316.758 439.937 316.223C439.723 316.009 439.402 315.688 438.868 315.581C438.44 315.474 437.905 315.474 437.477 315.688C437.263 315.795 437.37 316.009 437.584 316.223C437.798 316.33 438.012 316.437 438.226 316.544C438.654 316.651 439.082 316.758 439.402 316.865C440.258 316.758 440.686 316.758 440.686 316.758Z" fill="#263238"/>
<path d="M440.364 316.865C440.364 316.865 440.151 316.544 440.257 316.009C440.257 315.795 440.364 315.474 440.578 315.153C440.792 314.94 441.006 314.512 441.541 314.512C441.862 314.512 441.969 314.833 441.862 315.047C441.862 315.26 441.755 315.474 441.648 315.581C441.434 315.902 441.327 316.116 441.113 316.33C440.792 316.651 440.471 316.865 440.364 316.865C440.471 316.865 440.685 316.651 441.006 316.223C441.113 316.009 441.327 315.795 441.541 315.474C441.648 315.26 441.755 314.726 441.541 314.726C441.22 314.726 440.899 315.047 440.792 315.26C440.578 315.474 440.471 315.795 440.471 316.009C440.364 316.544 440.471 316.865 440.364 316.865Z" fill="#263238"/>
<path d="M460.366 315.367C460.366 315.367 459.831 315.367 458.976 315.474C458.12 315.581 457.051 315.902 455.981 316.758C455.018 317.613 454.377 318.576 454.163 319.432C453.842 320.18 453.842 320.715 453.842 320.715C453.842 320.715 453.842 320.608 453.842 320.394C453.842 320.18 453.949 319.86 454.056 319.432C454.27 318.576 454.911 317.506 455.874 316.651C456.944 315.795 458.12 315.474 458.976 315.367C459.404 315.367 459.725 315.367 459.938 315.367C460.259 315.26 460.366 315.26 460.366 315.367Z" fill="#263238"/>
<path d="M458.334 307.667C458.441 307.667 458.441 309.378 458.548 311.41C458.548 313.549 458.548 315.154 458.548 315.154C458.441 315.154 458.441 313.442 458.334 311.41C458.227 309.378 458.227 307.667 458.334 307.667Z" fill="#263238"/>
<path d="M451.489 319.004C451.489 319.111 450.312 319.325 448.815 319.325C447.317 319.325 446.141 319.218 446.141 319.111C446.141 319.004 447.317 319.111 448.815 319.111C450.312 319.004 451.489 318.897 451.489 319.004Z" fill="#263238"/>
<path d="M455.125 318.897C455.125 318.897 455.018 319.111 454.911 319.432C454.804 319.753 454.697 319.967 454.697 319.967C454.59 319.967 454.59 319.646 454.697 319.325C454.804 319.004 455.018 318.897 455.125 318.897Z" fill="#263238"/>
<path d="M456.408 317.186C456.408 317.186 456.301 317.399 456.194 317.613C455.981 317.827 455.767 317.934 455.767 317.934C455.767 317.934 455.874 317.72 455.981 317.506C456.194 317.293 456.408 317.186 456.408 317.186Z" fill="#263238"/>
<path d="M458.333 316.437C458.333 316.544 458.119 316.544 457.798 316.651C457.478 316.758 457.371 316.865 457.264 316.865C457.264 316.865 457.371 316.544 457.692 316.437C458.119 316.223 458.44 316.33 458.333 316.437Z" fill="#263238"/>
<path d="M459.724 316.009C459.724 316.116 459.617 316.116 459.51 316.223C459.403 316.33 459.189 316.33 459.189 316.223C459.189 316.116 459.296 316.116 459.403 316.009C459.617 316.009 459.724 316.009 459.724 316.009Z" fill="#263238"/>
<path d="M483.79 316.437L483.683 306.597L502.08 306.383L502.294 320.822L501.118 320.929C496.091 321.25 475.234 322.32 471.811 321.357C468.174 320.181 483.79 316.437 483.79 316.437Z" fill="#4DAEEB"/>
<g opacity="0.4">
<path d="M495.663 320.715C495.877 319.218 496.733 317.721 498.016 316.758C499.193 315.795 500.797 315.261 502.295 315.368L502.402 320.502L495.663 320.715Z" fill="black"/>
</g>
<path opacity="0.4" d="M476.196 318.576C476.196 318.576 470.741 320.181 471.383 321.143C472.024 321.999 493.095 321.785 502.401 320.822V320.394L477.907 320.929C477.8 320.929 477.265 318.576 476.196 318.576Z" fill="black"/>
<path d="M502.615 320.395C502.615 320.395 502.508 320.395 502.294 320.395C501.974 320.395 501.76 320.395 501.439 320.501C500.476 320.501 499.407 320.608 498.123 320.715C495.342 320.822 491.385 321.036 487.106 321.036C482.828 321.143 478.87 321.036 476.089 321.036C474.806 321.036 473.629 320.929 472.774 320.929C472.453 320.929 472.132 320.929 471.811 320.929C472.132 320.929 472.346 320.929 472.774 320.929C473.736 320.929 474.806 320.929 476.089 320.929C478.87 320.929 482.828 320.929 487.106 320.929C491.385 320.822 495.342 320.715 498.123 320.608C499.407 320.608 500.583 320.501 501.439 320.501C501.76 320.501 502.081 320.501 502.401 320.501C502.508 320.395 502.615 320.395 502.615 320.395Z" fill="#263238"/>
<path d="M477.801 321.143C477.694 321.143 477.694 320.395 477.159 319.539C476.624 318.683 475.982 318.362 475.982 318.255C475.982 318.148 476.838 318.576 477.373 319.432C477.908 320.288 477.908 321.25 477.801 321.143Z" fill="#263238"/>
<path d="M483.255 318.362C483.255 318.362 482.934 318.041 482.613 317.613C482.292 317.186 482.186 316.865 482.186 316.758C482.186 316.758 482.506 317.079 482.827 317.507C483.041 317.934 483.255 318.362 483.255 318.362Z" fill="#263238"/>
<path d="M484.753 317.507C484.753 317.507 484.432 317.4 484.111 317.079C483.79 316.758 483.576 316.544 483.576 316.437C483.576 316.437 483.897 316.544 484.218 316.865C484.539 317.186 484.753 317.507 484.753 317.507Z" fill="#263238"/>
<path d="M485.609 315.795C485.609 315.902 485.181 315.902 484.646 315.902C484.111 315.902 483.684 315.902 483.684 315.795C483.684 315.688 484.111 315.688 484.646 315.688C485.181 315.688 485.609 315.688 485.609 315.795Z" fill="#263238"/>
<path d="M485.929 314.619C485.929 314.725 485.501 314.939 484.86 314.939C484.218 315.046 483.79 314.832 483.79 314.832C483.79 314.725 484.325 314.832 484.86 314.725C485.394 314.619 485.929 314.512 485.929 314.619Z" fill="#263238"/>
<path d="M482.614 316.758C482.614 316.758 482.186 316.865 481.437 316.758C481.116 316.758 480.688 316.651 480.154 316.544C479.94 316.437 479.726 316.437 479.405 316.223C479.298 316.116 479.191 316.009 479.084 315.902C479.084 315.688 479.084 315.474 479.298 315.474C480.474 314.833 481.544 315.474 481.972 316.116C482.186 316.437 482.293 316.651 482.4 316.865C482.4 317.079 482.4 317.186 482.4 317.186C482.4 317.186 482.293 316.758 481.865 316.223C481.651 316.009 481.33 315.688 480.795 315.581C480.367 315.474 479.833 315.474 479.405 315.688C479.191 315.795 479.298 316.009 479.512 316.223C479.726 316.33 479.94 316.437 480.154 316.544C480.581 316.651 481.009 316.758 481.33 316.865C482.079 316.758 482.614 316.758 482.614 316.758Z" fill="#263238"/>
<path d="M482.293 316.865C482.293 316.865 482.079 316.544 482.186 316.009C482.186 315.795 482.293 315.474 482.507 315.153C482.721 314.94 482.935 314.512 483.47 314.512C483.791 314.512 483.898 314.833 483.791 315.047C483.791 315.26 483.684 315.474 483.577 315.581C483.363 315.902 483.256 316.116 483.042 316.33C482.721 316.651 482.4 316.865 482.293 316.865C482.4 316.865 482.614 316.651 482.935 316.223C483.042 316.009 483.256 315.795 483.47 315.474C483.577 315.26 483.684 314.726 483.47 314.726C483.149 314.726 482.828 315.047 482.721 315.26C482.507 315.474 482.4 315.795 482.4 316.009C482.186 316.544 482.293 316.865 482.293 316.865Z" fill="#263238"/>
<path d="M502.188 315.367C502.188 315.367 501.653 315.367 500.797 315.474C499.941 315.581 498.872 315.902 497.802 316.758C496.84 317.613 496.198 318.576 495.984 319.432C495.663 320.18 495.663 320.715 495.663 320.715C495.663 320.715 495.663 320.608 495.663 320.394C495.663 320.18 495.77 319.86 495.877 319.432C496.091 318.576 496.733 317.506 497.695 316.651C498.765 315.795 499.941 315.474 500.797 315.367C501.225 315.367 501.546 315.367 501.76 315.367C502.081 315.26 502.188 315.26 502.188 315.367Z" fill="#263238"/>
<path d="M500.155 307.667C500.262 307.667 500.262 309.378 500.369 311.41C500.369 313.549 500.369 315.154 500.369 315.154C500.262 315.154 500.262 313.442 500.155 311.41C500.155 309.378 500.155 307.667 500.155 307.667Z" fill="#263238"/>
<path d="M493.31 319.004C493.31 319.111 492.133 319.325 490.636 319.325C489.138 319.325 487.962 319.218 487.962 319.111C487.962 319.004 489.138 319.111 490.636 319.111C492.133 319.004 493.31 318.897 493.31 319.004Z" fill="#263238"/>
<path d="M496.946 318.897C496.946 318.897 496.84 319.111 496.733 319.432C496.626 319.753 496.519 319.967 496.519 319.967C496.412 319.967 496.412 319.646 496.519 319.325C496.733 319.004 496.946 318.897 496.946 318.897Z" fill="#263238"/>
<path d="M498.337 317.186C498.337 317.186 498.23 317.399 498.123 317.613C497.909 317.827 497.695 317.934 497.695 317.934C497.695 317.934 497.802 317.72 497.909 317.506C498.123 317.293 498.23 317.186 498.337 317.186Z" fill="#263238"/>
<path d="M500.262 316.437C500.262 316.544 500.048 316.544 499.727 316.651C499.406 316.758 499.299 316.865 499.192 316.865C499.192 316.865 499.299 316.544 499.62 316.437C499.941 316.223 500.262 316.33 500.262 316.437Z" fill="#263238"/>
<path d="M501.652 316.009C501.652 316.116 501.545 316.116 501.438 316.223C501.331 316.33 501.117 316.33 501.117 316.223C501.117 316.116 501.224 316.116 501.331 316.009C501.438 316.009 501.545 316.009 501.652 316.009Z" fill="#263238"/>
<path d="M448.173 114.177C446.889 127.013 443.466 165.946 461.328 164.555C482.292 162.951 487.106 146.372 487.106 146.372L483.041 131.398C483.041 131.398 462.291 149.367 461.756 147.228C458.868 135.355 459.617 118.991 460.045 113.108" fill="#FFBE9D"/>
<path d="M541.013 160.063L537.376 142.094C534.702 127.334 514.059 126.371 514.059 126.371L497.801 126.157C497.801 126.157 486.999 125.836 478.335 132.895C469.671 140.062 463.896 145.41 463.896 145.41L477.479 161.133L485.501 155.785C485.501 155.785 482.613 161.026 483.041 165.411C483.469 169.689 487.961 173.005 487.961 173.005L489.031 200.6L537.162 201.135L530.638 160.17H541.013V160.063Z" fill="#4DAEEB"/>
<path d="M518.338 140.917C518.338 140.917 518.445 141.345 518.659 142.094C518.873 142.95 519.087 144.019 519.301 145.303C519.835 148.084 520.584 151.72 521.333 155.785C522.081 159.849 522.723 163.593 523.151 166.267C523.365 167.657 523.472 168.727 523.579 169.475C523.686 170.224 523.686 170.652 523.686 170.652C523.686 170.652 523.579 170.224 523.365 169.475C523.151 168.62 522.937 167.55 522.723 166.267C522.188 163.486 521.44 159.849 520.691 155.785C519.942 151.72 519.301 147.977 518.873 145.303C518.659 143.912 518.552 142.843 518.445 142.094C518.338 141.345 518.338 140.917 518.338 140.917Z" fill="#263238"/>
<path d="M541.334 160.277C541.334 160.384 536.948 160.598 531.493 160.598C526.039 160.598 521.653 160.491 521.653 160.384C521.653 160.277 526.039 160.063 531.493 160.063C536.948 159.956 541.334 160.063 541.334 160.277Z" fill="#263238"/>
<path d="M477.586 161.026C477.479 161.133 474.484 157.603 470.848 153.218C467.211 148.832 464.43 145.196 464.537 145.089C464.644 144.982 467.639 148.511 471.276 152.897C474.805 157.282 477.693 160.919 477.586 161.026Z" fill="#263238"/>
<path d="M483.255 160.384C483.148 160.384 483.576 159.528 484.217 158.245C484.538 157.496 484.966 156.747 485.394 155.999C485.822 155.143 486.463 154.287 486.143 153.218C485.715 151.079 485.394 149.046 485.18 147.656C484.966 146.158 484.859 145.303 484.966 145.303C485.073 145.303 485.287 146.158 485.608 147.549C485.929 148.939 486.356 150.972 486.784 153.111C486.891 153.646 486.891 154.287 486.57 154.822C486.356 155.357 486.143 155.785 485.822 156.213C485.394 156.961 484.966 157.71 484.538 158.459C483.896 159.635 483.362 160.384 483.255 160.384Z" fill="#263238"/>
<path opacity="0.2" d="M489.03 196.964L488.389 186.696H534.809L536.52 195.573L489.03 196.964Z" fill="black"/>
<path opacity="0.2" d="M518.766 142.522C518.98 148.833 519.194 155.036 519.408 161.347C519.515 163.379 519.515 165.518 518.552 167.336C516.948 170.438 513.097 171.401 509.674 172.15C502.829 173.54 495.877 175.037 489.031 176.428L527.323 174.61L518.766 142.522Z" fill="black"/>
<path d="M543.259 174.502C542.189 165.839 541.012 160.277 541.012 160.277L522.188 160.598C522.188 160.598 523.899 170.117 523.364 172.684C522.936 174.93 486.57 176.321 477.051 176.535C476.516 176.107 475.661 176.855 474.912 176.214C474.27 175.679 473.735 174.93 473.308 174.182C472.773 173.219 472.131 172.042 472.024 171.294C471.81 170.331 470.634 170.117 470.206 170.866C469.778 171.721 470.206 174.395 472.024 176.962C473.842 179.529 469.136 178.246 467.425 177.711C465.713 177.283 460.259 176.107 459.724 176.535C458.868 177.176 459.403 178.139 461.114 178.567C462.826 178.995 467.96 180.599 467.639 181.562C467.318 182.524 458.547 179.957 458.547 179.957C458.547 179.957 456.729 179.102 456.408 180.171C455.766 182.096 465.286 184.022 466.141 184.129C466.783 184.236 466.462 185.305 465.82 185.091C465.179 184.877 457.157 182.417 456.408 184.343C455.873 185.84 464.216 186.054 465.606 187.444C466.997 188.942 459.296 186.696 458.868 188.086C458.654 188.621 461.863 188.835 466.462 189.477C470.74 190.118 478.762 190.011 480.688 190.011C491.384 190.546 528.926 191.402 537.055 190.76C546.574 190.225 543.579 177.497 543.259 174.502Z" fill="#FFBE9D"/>
<path d="M542.938 150.33C542.938 150.33 543.045 150.33 543.259 150.33C543.473 150.33 543.687 150.437 544.115 150.544C544.863 150.757 545.826 151.185 547.002 151.934C548.179 152.683 549.569 153.752 551.067 155.036C551.816 155.678 552.564 156.533 553.313 157.389C554.062 158.245 554.81 159.207 555.452 160.277C555.666 160.598 555.773 160.812 555.88 161.132C555.987 161.453 555.987 161.774 556.094 162.095C556.201 162.737 556.415 163.379 556.522 164.02C556.736 165.411 557.057 166.801 557.27 168.192C557.591 171.08 557.805 174.288 557.698 177.604C557.484 184.236 556.094 191.509 554.062 198.889C553.099 202.632 552.136 206.162 550.639 209.585C549.249 212.901 547.537 216.002 545.398 218.676C544.328 219.96 543.259 221.243 542.082 222.206C540.799 223.169 539.515 223.917 538.125 224.559C535.451 225.736 532.777 226.591 530.317 227.233C525.504 228.517 521.439 229.265 518.765 229.8C517.375 230.121 516.412 230.335 515.556 230.442C515.236 230.549 514.915 230.549 514.701 230.656C514.487 230.656 514.38 230.656 514.38 230.656C514.38 230.656 514.487 230.656 514.701 230.549C514.915 230.442 515.129 230.442 515.556 230.335C516.305 230.121 517.375 229.907 518.658 229.586C521.332 228.944 525.397 228.089 530.21 226.805C532.67 226.163 535.237 225.308 537.911 224.131C539.194 223.489 540.585 222.741 541.761 221.778C542.938 220.816 544.008 219.532 545.077 218.248C547.109 215.681 548.821 212.58 550.211 209.264C551.602 205.948 552.564 202.312 553.527 198.675C555.452 191.295 556.843 184.129 557.163 177.497C557.27 174.181 557.163 171.08 556.843 168.192C556.736 166.694 556.415 165.304 556.201 164.02C556.094 163.379 555.88 162.737 555.773 162.095C555.666 161.774 555.666 161.453 555.559 161.132C555.452 160.812 555.345 160.598 555.131 160.277C554.49 159.207 553.741 158.245 552.992 157.389C552.243 156.533 551.495 155.784 550.853 155.036C549.462 153.645 548.072 152.576 546.895 151.827C545.719 151.078 544.756 150.65 544.008 150.33C543.366 150.437 542.938 150.33 542.938 150.33Z" fill="#263238"/>
<path d="M459.403 116.21C459.403 116.21 459.724 114.82 460.152 110.862L464.537 102.198C464.537 102.198 463.575 100.38 461.328 104.231C460.259 105.942 456.836 105.193 457.371 102.519C457.906 99.7383 461.542 98.5618 463.682 101.236C463.682 101.236 465.072 101.343 465.286 100.273C465.5 99.2036 462.291 96.4226 459.51 97.2783C457.799 97.8131 456.515 98.9896 456.515 98.9896C456.515 98.9896 457.157 89.8981 456.408 89.7912C455.66 89.6842 454.697 90.219 454.055 100.273C454.055 100.273 453.734 92.4651 453.627 91.3956C453.52 90.4329 452.13 89.6842 451.916 92.2512C451.916 92.5721 451.381 100.273 451.381 100.273C451.381 100.273 450.526 95.1391 450.419 94.7113C450.205 93.6417 449.135 93.7486 449.028 95.1391C448.921 96.2087 448.6 100.808 448.6 100.808L447.959 115.033H447.852" fill="#FFBE9D"/>
<path d="M496.518 130.756C496.411 126.157 496.197 121.237 496.197 121.237C496.197 121.237 489.352 120.381 489.031 113.429C488.71 106.476 489.459 90.3257 489.459 90.3257L502.08 84.229L513.097 96.7432L513.311 130.435C513.311 135.034 509.567 138.885 504.968 138.885C500.369 138.885 496.625 135.248 496.518 130.756Z" fill="#FFBE9D"/>
<path d="M491.277 102.092C491.277 102.626 491.705 102.947 492.133 102.947C492.561 102.947 492.989 102.519 492.989 102.092C492.989 101.557 492.561 101.236 492.133 101.129C491.598 101.129 491.277 101.557 491.277 102.092Z" fill="#263238"/>
<path d="M489.78 101.022C489.887 101.129 490.529 100.594 491.492 100.594C492.454 100.594 493.096 101.022 493.203 100.915C493.203 100.808 493.096 100.594 492.882 100.38C492.561 100.166 492.026 99.9521 491.492 99.9521C490.957 99.9521 490.422 100.273 490.101 100.487C489.887 100.808 489.78 101.022 489.78 101.022Z" fill="#263238"/>
<path d="M501.438 102.091C501.438 102.626 501.866 102.947 502.294 102.947C502.722 102.947 503.15 102.519 503.15 102.091C503.15 101.556 502.722 101.235 502.294 101.128C501.866 101.128 501.438 101.556 501.438 102.091Z" fill="#263238"/>
<path d="M500.155 101.236C500.262 101.343 500.904 100.808 501.867 100.808C502.829 100.808 503.471 101.236 503.578 101.129C503.578 101.022 503.471 100.808 503.257 100.594C502.936 100.38 502.401 100.166 501.867 100.166C501.332 100.166 500.797 100.487 500.476 100.701C500.262 101.022 500.155 101.236 500.155 101.236Z" fill="#263238"/>
<path d="M496.732 109.364C496.732 109.257 496.197 109.257 495.234 109.15C495.021 109.15 494.807 109.043 494.7 108.936C494.593 108.723 494.7 108.509 494.807 108.188C495.021 107.546 495.235 106.904 495.448 106.156C496.411 103.375 497.053 101.021 496.946 101.021C496.839 101.021 495.983 103.268 495.021 106.049C494.807 106.797 494.593 107.439 494.379 108.081C494.272 108.402 494.165 108.723 494.272 109.043C494.379 109.257 494.486 109.364 494.7 109.364C494.807 109.364 495.021 109.364 495.127 109.364C496.09 109.364 496.732 109.364 496.732 109.364Z" fill="#263238"/>
<path d="M496.197 121.237C496.197 121.237 500.796 121.344 505.289 118.242C505.289 118.242 503.15 123.376 496.304 122.948L496.197 121.237Z" fill="#EB996E"/>
<path d="M497.053 111.825C497.16 111.183 497.588 110.755 498.123 110.434C498.551 110.327 498.978 110.22 499.299 110.434C499.62 110.648 499.941 111.076 499.834 111.504C499.727 111.931 499.299 112.252 498.871 112.359C498.444 112.466 497.909 112.359 497.481 112.252C497.374 112.252 497.267 112.145 497.16 112.145C497.053 112.145 496.946 111.931 497.053 111.825Z" fill="#EB996E"/>
<path d="M499.3 109.257C499.406 109.257 499.513 109.471 499.406 110.006C499.406 110.434 499.193 111.076 498.658 111.61C498.123 112.145 497.481 112.252 497.053 112.252C496.626 112.252 496.305 112.145 496.305 112.038C496.305 111.931 497.374 111.931 498.23 111.183C499.193 110.327 499.193 109.257 499.3 109.257Z" fill="#263238"/>
<path d="M479.191 142.415C479.084 142.308 479.405 141.024 480.047 139.527C480.689 138.029 481.33 136.746 481.437 136.853C481.544 136.96 481.223 138.243 480.582 139.741C479.94 141.238 479.405 142.415 479.191 142.415Z" fill="#263238"/>
<path d="M495.235 144.768C495.128 144.875 493.738 144.34 492.133 143.27C490.529 142.201 489.566 141.024 489.673 140.917C489.78 140.81 490.957 141.773 492.454 142.843C493.951 143.805 495.235 144.554 495.235 144.768Z" fill="#263238"/>
<path d="M493.202 130.863C493.202 130.97 492.239 131.505 490.849 131.933C489.565 132.361 488.389 132.681 488.389 132.468C488.389 132.361 489.351 131.826 490.742 131.398C492.025 130.97 493.202 130.756 493.202 130.863Z" fill="#263238"/>
<path d="M492.133 158.994C492.026 158.887 492.882 157.496 494.058 155.785C495.235 154.073 496.304 152.79 496.411 152.897C496.518 153.004 495.663 154.394 494.486 156.106C493.31 157.817 492.24 159.1 492.133 158.994Z" fill="#263238"/>
<path d="M493.095 170.438C492.988 170.545 491.598 169.582 489.993 168.192C488.389 166.801 487.212 165.625 487.319 165.518C487.426 165.411 488.817 166.374 490.421 167.764C491.919 169.154 493.095 170.331 493.095 170.438Z" fill="#263238"/>
<path d="M501.117 169.368C500.903 169.368 500.689 167.764 500.155 165.839C499.62 163.913 498.978 162.416 499.085 162.416C499.192 162.309 500.048 163.806 500.689 165.732C501.224 167.764 501.224 169.368 501.117 169.368Z" fill="#263238"/>
<path d="M515.984 169.583C515.984 169.689 514.701 170.331 512.883 170.866C511.171 171.401 509.674 171.722 509.674 171.615C509.674 171.508 510.957 170.866 512.776 170.331C514.487 169.796 515.877 169.476 515.984 169.583Z" fill="#263238"/>
<path d="M516.626 157.817C516.733 157.924 515.236 158.887 513.417 159.849C511.599 160.812 510.102 161.561 509.995 161.347C509.888 161.24 511.385 160.277 513.203 159.314C515.022 158.352 516.626 157.603 516.626 157.817Z" fill="#263238"/>
<path d="M508.819 153.111C508.712 153.218 507.749 152.041 506.68 150.544C505.61 149.046 504.861 147.656 504.968 147.656C505.075 147.549 506.038 148.725 507.107 150.223C508.177 151.72 508.926 153.004 508.819 153.111Z" fill="#263238"/>
<path d="M514.701 140.596C514.701 140.596 514.594 140.596 514.38 140.489L514.594 140.382C514.594 140.917 514.487 142.201 514.166 143.698C513.738 145.623 513.096 147.121 512.989 147.121C512.883 147.121 513.203 145.516 513.631 143.591C513.952 142.201 514.166 140.917 514.38 140.382L514.487 140.168L514.594 140.275C514.594 140.489 514.701 140.596 514.701 140.596Z" fill="#263238"/>
<path d="M527.429 132.254C527.429 132.361 525.718 132.147 523.579 131.719C521.546 131.291 519.835 130.863 519.835 130.649C519.835 130.542 521.546 130.756 523.685 131.184C525.718 131.612 527.429 132.147 527.429 132.254Z" fill="#263238"/>
<path d="M524.327 144.34C524.22 144.34 524.22 143.057 524.434 141.452C524.648 139.848 524.862 138.564 525.076 138.671C525.183 138.671 525.183 139.955 524.969 141.559C524.755 143.164 524.541 144.34 524.327 144.34Z" fill="#263238"/>
<path d="M531.065 147.977C530.958 147.87 531.279 146.8 531.814 145.41C532.349 144.126 532.884 143.057 533.098 143.057C533.205 143.164 532.884 144.233 532.349 145.624C531.814 146.907 531.279 147.977 531.065 147.977Z" fill="#263238"/>
<path d="M531.173 154.715C531.066 154.822 529.569 153.86 527.75 152.576C525.932 151.293 524.648 150.116 524.648 150.009C524.755 149.902 526.253 150.865 528.071 152.148C529.889 153.432 531.28 154.608 531.173 154.715Z" fill="#263238"/>
<path d="M498.764 197.713C498.657 197.82 497.48 197.178 496.09 196.215C494.7 195.253 493.63 194.397 493.737 194.29C493.844 194.183 495.02 194.825 496.411 195.787C497.801 196.75 498.871 197.606 498.764 197.713Z" fill="#263238"/>
<path d="M510.958 193.434C511.065 193.541 510.102 194.932 508.711 196.643C507.321 198.355 506.144 199.531 506.037 199.531C505.93 199.424 506.893 198.034 508.284 196.322C509.674 194.611 510.851 193.327 510.958 193.434Z" fill="#263238"/>
<path d="M523.685 199.317C523.578 199.21 524.006 198.034 524.755 196.643C525.504 195.253 526.252 194.183 526.359 194.29C526.466 194.397 526.038 195.574 525.29 196.964C524.541 198.355 523.792 199.317 523.685 199.317Z" fill="#263238"/>
<path d="M520.263 199.959C520.156 200.066 519.407 198.996 518.551 197.606C517.803 196.215 517.161 195.039 517.375 194.932C517.482 194.825 518.23 195.894 519.086 197.285C519.835 198.782 520.37 199.959 520.263 199.959Z" fill="#263238"/>
<path d="M489.031 88.6143C487.32 89.5769 486.464 91.7161 486.892 93.6414C487.32 95.5666 489.138 96.9571 491.171 97.0641C493.096 97.0641 495.021 95.7806 495.556 93.8553C494.807 95.2458 495.235 97.278 496.412 98.3476C497.588 99.4172 499.513 99.6311 501.011 98.9893C502.508 98.3476 503.685 96.9571 504.113 95.3527C504.113 96.8501 504.968 98.4545 506.145 99.3102C507.321 100.166 509.033 100.487 510.53 100.059C509.033 101.022 508.07 102.84 508.284 104.658C508.498 106.476 509.674 108.081 511.386 108.723C509.567 109.899 508.819 112.359 509.781 114.284C510.637 116.21 513.097 117.279 515.129 116.638C517.269 115.996 518.552 113.857 519.408 111.824C521.654 106.263 521.761 99.845 519.301 94.2831C516.948 88.8282 511.921 84.3359 506.145 82.9455C500.262 81.555 493.738 83.3733 489.673 87.7586" fill="#263238"/>
<path d="M524.542 89.2562C524.542 89.2562 524.542 89.3632 524.542 89.4701C524.542 89.5771 524.542 89.898 524.542 90.1119C524.435 90.6467 524.221 91.6093 523.472 92.465C522.723 93.3206 521.333 94.0693 519.729 93.7485C518.231 93.4276 516.627 92.1441 516.306 90.1119H516.841C516.627 91.5023 515.771 92.7858 514.488 93.6415C513.204 94.4972 511.493 94.6041 509.995 93.9624C508.605 93.3206 507.535 92.1441 507.214 90.6467C507.001 90.0049 507 89.1492 507.428 88.5075C507.642 88.1866 507.963 87.9727 508.284 87.8657C508.605 87.7588 509.14 87.7588 509.461 88.0796C510.102 88.6144 510.102 89.4701 509.888 90.0049C509.568 90.6467 509.14 91.0745 508.712 91.3954C507.749 92.0371 506.68 92.2511 505.61 92.2511C504.647 92.1441 503.792 91.8232 503.15 91.3954C502.508 90.9675 502.08 90.4327 501.866 89.8979C501.653 89.4701 501.439 89.0423 501.439 88.7214C501.332 88.4005 501.332 88.2936 501.439 88.2936C501.546 88.2936 501.546 88.9353 502.08 89.791C502.615 90.6467 503.792 91.8232 505.61 91.9302C506.466 91.9302 507.535 91.7162 508.391 91.0745C508.819 90.7536 509.247 90.3258 509.461 89.8979C509.674 89.4701 509.567 88.8284 509.247 88.5075C508.926 88.1866 508.284 88.4005 507.963 88.8284C507.642 89.2562 507.642 89.8979 507.856 90.5397C508.177 91.8232 509.14 92.8928 510.316 93.4276C511.6 94.0693 513.204 93.8554 514.274 93.2137C515.45 92.465 516.199 91.2884 516.413 90.1119L516.734 88.2936L516.948 90.1119C517.162 91.8232 518.552 93.1067 519.942 93.3206C521.333 93.6415 522.616 92.9998 523.365 92.2511C524.114 91.5023 524.435 90.6467 524.542 90.1119C524.542 89.5771 524.435 89.2562 524.542 89.2562Z" fill="#455A64"/>
<path d="M530.103 96.5294C530.103 96.5294 530.21 96.8502 529.996 97.385C529.889 97.9198 529.461 98.7755 528.713 99.5242C527.964 100.273 526.68 100.915 525.29 100.808C523.899 100.701 522.295 99.8451 521.546 98.4546C521.439 98.3476 521.332 98.1337 521.332 97.9198H521.867C521.546 98.6685 521.011 99.3103 520.263 99.6312C519.621 99.952 518.872 100.166 518.231 100.166C516.84 100.166 515.771 99.4173 515.022 98.6685C514.273 97.9198 513.952 97.2781 513.738 96.7433C513.524 96.2085 513.417 95.9946 513.524 95.8876C513.631 95.7806 514.059 97.0642 515.343 98.3477C515.984 98.9894 517.054 99.6312 518.231 99.6312C519.407 99.6312 520.905 98.9894 521.332 97.7059L521.546 97.0642L521.867 97.5989C521.974 97.7059 521.974 97.9198 522.081 98.0268C522.83 99.3103 524.22 100.059 525.397 100.166C526.68 100.273 527.75 99.7381 528.499 99.0964C529.247 98.4546 529.675 97.7059 529.782 97.1711C530.103 96.8502 530.103 96.5294 530.103 96.5294Z" fill="#455A64"/>
<path d="M523.043 109.793C523.043 109.793 522.295 110.327 520.904 110.22C520.263 110.113 519.407 109.793 518.765 109.151C518.123 108.509 517.589 107.439 517.696 106.37L518.123 106.584L518.016 106.691C517.054 107.226 515.877 107.226 515.022 106.905C514.059 106.584 513.417 106.049 512.989 105.407C512.241 104.231 512.348 103.268 512.455 103.268C512.561 103.268 512.561 104.124 513.31 105.193C513.738 105.728 514.273 106.156 515.129 106.37C515.877 106.584 516.947 106.584 517.802 106.156C517.802 106.156 517.909 106.156 517.909 106.049L518.337 105.835V106.263C518.337 107.226 518.765 108.081 519.3 108.723C519.835 109.365 520.583 109.686 521.118 109.793C522.295 110.113 523.043 109.686 523.043 109.793Z" fill="#455A64"/>
<path d="M483.683 92.8931C483.79 92.7861 484.538 93.9627 486.464 94.4975C487.426 94.7114 488.603 94.8184 489.779 94.2836C490.956 93.7488 492.025 92.7861 492.56 91.3957C492.667 91.0748 492.774 90.7539 492.774 90.433L492.988 89.5774L493.309 90.3261C493.523 90.8609 494.165 91.0748 494.806 90.9678C495.341 90.8609 495.876 90.54 496.304 90.1122C497.159 89.2565 497.587 88.2939 497.801 87.4382C498.229 85.7269 497.801 84.6573 497.908 84.5503C497.908 84.5503 498.122 84.7642 498.229 85.299C498.336 85.8338 498.443 86.5825 498.229 87.4382C498.015 88.4008 497.587 89.4704 496.732 90.3261C496.304 90.7539 495.769 91.1818 495.02 91.3957C494.272 91.5026 493.416 91.2887 492.988 90.433L493.523 90.3261C493.416 90.647 493.416 90.9678 493.202 91.3957C492.56 92.8931 491.384 94.0696 490.1 94.6044C488.817 95.1392 487.426 95.0323 486.464 94.7114C485.501 94.3905 484.752 93.8557 484.324 93.4279C483.897 93.107 483.683 92.8931 483.683 92.8931Z" fill="#455A64"/>
<path d="M486.785 101.664C486.892 101.664 486.892 102.198 486.357 102.733C485.822 103.268 484.752 103.696 483.683 103.482C482.613 103.268 481.758 102.519 481.33 102.091C480.795 101.557 480.581 101.236 480.581 101.236C480.581 101.129 481.009 101.45 481.544 101.771C482.078 102.198 482.827 102.733 483.79 102.947C484.752 103.161 485.608 102.947 486.143 102.519C486.571 101.985 486.785 101.557 486.785 101.664Z" fill="#455A64"/>
<path d="M495.449 103.054C495.449 103.054 495.449 102.733 495.235 102.091C495.021 101.45 494.593 100.594 493.737 99.9521C492.882 99.3103 491.384 98.8825 489.994 99.4173C488.603 99.9521 487.427 101.343 487.427 103.161C487.427 104.872 488.603 106.37 489.994 106.904C491.384 107.439 492.882 107.011 493.737 106.37C494.7 105.728 495.128 104.765 495.235 104.23C495.449 103.375 495.449 103.054 495.449 103.054C495.449 103.054 495.556 103.482 495.449 104.123C495.342 104.765 494.914 105.728 493.951 106.584C492.989 107.332 491.384 107.867 489.78 107.225C488.176 106.691 486.785 104.979 486.785 103.054C486.785 101.022 488.176 99.4173 489.78 98.8825C491.384 98.3477 492.989 98.7755 493.951 99.5243C494.914 100.273 495.342 101.343 495.449 101.984C495.556 102.626 495.449 103.054 495.449 103.054Z" fill="#455A64"/>
<path d="M507.321 103.054C507.321 103.054 507.321 102.733 507.107 102.091C506.893 101.45 506.465 100.594 505.61 99.9521C504.754 99.3103 503.256 98.8825 501.866 99.4173C500.476 99.9521 499.299 101.343 499.299 103.161C499.299 104.872 500.476 106.37 501.866 106.904C503.256 107.439 504.754 107.011 505.61 106.37C506.572 105.728 507 104.765 507.107 104.23C507.321 103.375 507.321 103.054 507.321 103.054C507.321 103.054 507.428 103.482 507.321 104.123C507.214 104.765 506.786 105.728 505.823 106.584C504.861 107.332 503.256 107.867 501.652 107.225C500.048 106.691 498.657 104.979 498.657 103.054C498.657 101.022 500.048 99.4173 501.652 98.8825C503.256 98.3477 504.861 98.7755 505.823 99.5243C506.786 100.273 507.214 101.343 507.321 101.984C507.428 102.626 507.428 103.054 507.321 103.054Z" fill="#455A64"/>
<path d="M499.192 102.84C499.192 102.947 498.337 103.161 497.267 103.161C496.197 103.161 495.342 103.054 495.342 102.84C495.342 102.626 496.197 102.519 497.267 102.519C498.337 102.519 499.192 102.626 499.192 102.84Z" fill="#455A64"/>
<path d="M457.264 199.958C484.539 197.284 506.038 199.317 506.038 199.317L485.394 228.944L466.784 229.051L462.826 314.083H438.226L440.579 218.569C440.793 209.05 447.852 201.135 457.264 199.958Z" fill="#263238"/>
<path d="M502.615 231.297C502.615 231.297 539.516 233.757 538.553 200.707C538.553 200.707 479.512 190.76 475.661 207.873C474.378 213.435 477.8 314.725 477.8 314.725H503.577" fill="#263238"/>
<path d="M502.936 223.917C503.043 223.917 503.15 225.842 502.936 228.195C502.829 230.548 502.615 232.367 502.401 232.367C502.294 232.367 502.187 230.441 502.401 228.088C502.508 225.842 502.829 223.917 502.936 223.917Z" fill="#455A64"/>
<path d="M501.759 197.605C501.759 197.605 501.545 197.712 501.224 197.819C500.903 197.926 500.369 198.14 499.727 198.354C498.443 198.782 496.411 199.103 494.058 199.531C491.598 199.959 488.71 200.279 485.715 201.349C484.218 201.884 482.613 202.526 481.223 203.488C479.832 204.451 478.549 205.734 477.586 207.339C475.554 210.441 474.912 214.077 474.912 217.179C475.126 220.388 475.233 223.276 475.34 225.736C475.447 228.089 475.554 230.121 475.661 231.511C475.661 232.153 475.661 232.688 475.661 233.116C475.661 233.437 475.661 233.651 475.661 233.651C475.661 233.651 475.661 233.437 475.554 233.116C475.554 232.688 475.447 232.153 475.447 231.511C475.34 230.014 475.233 228.089 475.019 225.736C474.805 223.276 474.591 220.388 474.485 217.179C474.378 213.97 475.126 210.227 477.159 207.018C478.121 205.413 479.512 204.023 481.009 203.06C482.506 202.098 484.111 201.349 485.608 200.814C488.71 199.745 491.705 199.424 494.058 199.103C496.518 198.782 498.443 198.461 499.727 198.14C501.01 197.819 501.759 197.605 501.759 197.605Z" fill="#455A64"/>
<path d="M423.465 138.885L437.476 182.631L514.808 184.022L514.38 181.669L486.036 180.813L473.094 138.885H423.465Z" fill="#455A64"/>
<path d="M454.911 160.705C455.339 162.523 454.59 164.341 453.093 164.769C451.702 165.197 450.098 163.913 449.67 162.095C449.242 160.277 449.991 158.459 451.488 158.031C452.879 157.71 454.376 158.886 454.911 160.705Z" fill="white"/>
<path d="M595.776 170.117C594.385 168.941 592.567 168.834 591.39 168.834C591.39 167.978 591.39 167.443 591.39 167.443H567.752C567.752 167.443 567.004 183.059 578.983 183.594C584.331 183.808 587.433 181.455 589.144 178.46C589.679 178.567 590.749 178.781 591.818 178.781C593.102 178.781 594.492 178.567 595.562 177.711C596.417 177.07 597.38 175.893 597.38 173.754C597.273 171.829 596.417 170.652 595.776 170.117ZM594.171 175.893C593.209 176.642 591.39 176.535 590.214 176.321C590.856 174.503 591.176 172.684 591.39 171.187C592.246 171.187 593.53 171.187 594.385 171.829C594.92 172.257 595.134 172.898 595.134 173.754C594.92 174.717 594.706 175.465 594.171 175.893Z" fill="#4DAEEB"/>
<path d="M587.86 162.416C587.86 162.416 587.646 162.309 587.433 161.881C587.219 161.453 586.791 160.919 586.684 160.063C586.47 159.207 586.47 158.031 587.005 156.854C587.432 155.678 588.609 154.715 589.679 153.645C590.748 152.576 591.711 151.185 592.032 149.367C592.353 147.656 592.139 145.624 590.962 143.912C590.427 143.057 589.679 142.308 588.823 141.773C587.967 141.131 586.898 140.81 585.935 140.49C584.865 140.169 583.796 139.741 582.833 138.885C582.405 138.457 581.978 138.029 581.764 137.388C581.55 136.853 581.336 136.211 581.55 135.569C581.55 135.462 581.55 135.355 581.657 135.355L581.978 135.676C580.908 135.997 580.373 137.174 580.266 138.243C580.159 139.313 580.48 140.383 581.015 141.345C581.443 142.308 582.085 143.27 582.512 144.233C582.94 145.196 583.261 146.265 583.154 147.335C583.047 148.404 582.405 149.367 581.764 150.009C581.015 150.651 580.266 151.185 579.411 151.613C577.699 152.362 576.095 152.79 574.811 153.645C573.528 154.394 572.565 155.464 572.137 156.64C571.603 157.71 571.496 158.779 571.496 159.635C571.496 161.346 572.03 162.202 572.03 162.202C572.03 162.202 572.03 162.202 571.923 162.095C571.923 161.988 571.816 161.881 571.71 161.667C571.496 161.24 571.389 160.598 571.389 159.742C571.389 158.886 571.496 157.817 571.923 156.64C572.351 155.464 573.314 154.287 574.704 153.538C576.095 152.683 577.699 152.255 579.304 151.506C580.052 151.078 580.908 150.651 581.55 150.009C582.192 149.367 582.726 148.511 582.833 147.549C582.94 146.586 582.619 145.624 582.298 144.661C581.871 143.698 581.336 142.736 580.801 141.773C580.373 140.81 579.945 139.634 580.052 138.35C580.159 137.709 580.266 137.174 580.587 136.639C580.908 136.104 581.443 135.676 581.978 135.462L582.405 135.355L582.298 135.783C582.298 135.89 582.298 135.89 582.191 135.997C581.978 137.067 582.619 138.136 583.368 138.885C584.224 139.634 585.293 139.955 586.363 140.383C587.433 140.703 588.502 141.131 589.358 141.773C590.213 142.415 590.962 143.163 591.604 144.126C592.78 145.944 592.994 148.084 592.673 149.902C592.353 151.72 591.283 153.218 590.106 154.287C588.93 155.357 587.967 156.319 587.433 157.389C586.898 158.459 586.898 159.635 587.112 160.384C587.219 161.774 587.967 162.416 587.86 162.416Z" fill="#263238"/>
<path d="M616.74 182.845H374.05V190.225H386.992L380.04 321.571H383.783L390.735 190.225L603.477 189.049L608.397 321.25L612.461 321.464L607.22 190.225H616.74V182.845Z" fill="#263238"/>
<path d="M241.956 5.50781H138.634V321.999H241.956V5.50781Z" fill="#EBEBEB"/>
<path d="M323.566 6.57764H241.85V322.106H323.566V6.57764Z" fill="#E0E0E0"/>
<path d="M232.009 56.2065H144.303V80.9141H232.009V56.2065Z" fill="#263238"/>
<path d="M151.683 59.3086H146.763V78.2403H151.683V59.3086Z" fill="#4DAEEB"/>
<path d="M157.459 63.266C157.459 64.1217 156.71 64.8704 155.854 64.8704C154.999 64.8704 154.25 64.1217 154.25 63.266C154.25 62.4103 154.999 61.6616 155.854 61.6616C156.817 61.6616 157.459 62.4103 157.459 63.266Z" fill="white"/>
<path d="M157.459 69.8974C157.459 70.753 156.71 71.5017 155.854 71.5017C154.999 71.5017 154.25 70.753 154.25 69.8974C154.25 69.0417 154.999 68.293 155.854 68.293C156.817 68.3999 157.459 69.0417 157.459 69.8974Z" fill="white"/>
<path d="M168.475 61.6616H163.662V76.208H168.475V61.6616Z" fill="#455A64"/>
<path d="M175.535 61.6616H170.722V76.208H175.535V61.6616Z" fill="#455A64"/>
<path d="M182.487 61.6616H177.674V76.208H182.487V61.6616Z" fill="#455A64"/>
<path d="M189.439 61.6616H184.626V76.208H189.439V61.6616Z" fill="#455A64"/>
<path d="M196.391 61.6616H191.578V76.208H196.391V61.6616Z" fill="#455A64"/>
<path d="M203.344 61.6616H198.531V76.208H203.344V61.6616Z" fill="#455A64"/>
<path d="M210.297 61.6616H205.483V76.208H210.297V61.6616Z" fill="#455A64"/>
<path d="M217.249 61.6616H212.436V76.208H217.249V61.6616Z" fill="#455A64"/>
<path d="M224.308 61.6616H219.495V76.208H224.308V61.6616Z" fill="#455A64"/>
<path d="M231.26 61.6616H226.447V76.208H231.26V61.6616Z" fill="#455A64"/>
<path d="M232.009 91.6099H144.303V116.317H232.009V91.6099Z" fill="#263238"/>
<path d="M151.683 94.7114H146.763V113.643H151.683V94.7114Z" fill="#4DAEEB"/>
<path d="M157.459 98.6693C157.459 99.525 156.71 100.274 155.854 100.274C154.999 100.274 154.25 99.525 154.25 98.6693C154.25 97.8137 154.999 97.0649 155.854 97.0649C156.817 97.1719 157.459 97.8137 157.459 98.6693Z" fill="white"/>
<path d="M157.459 105.408C157.459 106.263 156.71 107.012 155.854 107.012C154.999 107.012 154.25 106.263 154.25 105.408C154.25 104.552 154.999 103.803 155.854 103.803C156.817 103.803 157.459 104.552 157.459 105.408Z" fill="white"/>
<path d="M168.475 97.1719H163.662V111.718H168.475V97.1719Z" fill="#455A64"/>
<path d="M175.535 97.1719H170.722V111.718H175.535V97.1719Z" fill="#455A64"/>
<path d="M182.487 97.1719H177.674V111.718H182.487V97.1719Z" fill="#455A64"/>
<path d="M189.439 97.1719H184.626V111.718H189.439V97.1719Z" fill="#455A64"/>
<path d="M196.391 97.1719H191.578V111.718H196.391V97.1719Z" fill="#455A64"/>
<path d="M203.344 97.1719H198.531V111.718H203.344V97.1719Z" fill="#455A64"/>
<path d="M210.297 97.1719H205.483V111.718H210.297V97.1719Z" fill="#455A64"/>
<path d="M217.249 97.1719H212.436V111.718H217.249V97.1719Z" fill="#455A64"/>
<path d="M224.308 97.1719H219.495V111.718H224.308V97.1719Z" fill="#455A64"/>
<path d="M231.26 97.1719H226.447V111.718H231.26V97.1719Z" fill="#455A64"/>
<path d="M232.009 127.334H144.303V152.042H232.009V127.334Z" fill="#263238"/>
<path d="M151.683 130.436H146.763V149.368H151.683V130.436Z" fill="#4DAEEB"/>
<path d="M157.459 134.5C157.459 135.356 156.71 136.105 155.854 136.105C154.999 136.105 154.25 135.356 154.25 134.5C154.25 133.645 154.999 132.896 155.854 132.896C156.817 132.896 157.459 133.645 157.459 134.5Z" fill="white"/>
<path d="M157.459 141.132C157.459 141.987 156.71 142.736 155.854 142.736C154.999 142.736 154.25 141.987 154.25 141.132C154.25 140.276 154.999 139.527 155.854 139.527C156.817 139.527 157.459 140.276 157.459 141.132Z" fill="white"/>
<path d="M168.475 132.896H163.662V147.442H168.475V132.896Z" fill="#455A64"/>
<path d="M175.535 132.896H170.722V147.442H175.535V132.896Z" fill="#455A64"/>
<path d="M182.487 132.896H177.674V147.442H182.487V132.896Z" fill="#455A64"/>
<path d="M189.439 132.896H184.626V147.442H189.439V132.896Z" fill="#455A64"/>
<path d="M196.391 132.896H191.578V147.442H196.391V132.896Z" fill="#455A64"/>
<path d="M203.344 132.896H198.531V147.442H203.344V132.896Z" fill="#455A64"/>
<path d="M210.297 132.896H205.483V147.442H210.297V132.896Z" fill="#455A64"/>
<path d="M217.249 132.896H212.436V147.442H217.249V132.896Z" fill="#455A64"/>
<path d="M224.308 132.896H219.495V147.442H224.308V132.896Z" fill="#455A64"/>
<path d="M231.26 132.896H226.447V147.442H231.26V132.896Z" fill="#455A64"/>
<path d="M232.009 163.593H144.303V188.301H232.009V163.593Z" fill="#263238"/>
<path d="M151.683 166.695H146.763V185.627H151.683V166.695Z" fill="#4DAEEB"/>
<path d="M157.459 170.653C157.459 171.508 156.71 172.257 155.854 172.257C154.999 172.257 154.25 171.508 154.25 170.653C154.25 169.797 154.999 169.048 155.854 169.048C156.817 169.155 157.459 169.797 157.459 170.653Z" fill="white"/>
<path d="M157.459 177.391C157.459 178.247 156.71 178.995 155.854 178.995C154.999 178.995 154.25 178.247 154.25 177.391C154.25 176.535 154.999 175.787 155.854 175.787C156.817 175.787 157.459 176.535 157.459 177.391Z" fill="white"/>
<path d="M168.475 169.155H163.662V183.702H168.475V169.155Z" fill="#455A64"/>
<path d="M175.535 169.155H170.722V183.702H175.535V169.155Z" fill="#455A64"/>
<path d="M182.487 169.155H177.674V183.702H182.487V169.155Z" fill="#455A64"/>
<path d="M189.439 169.155H184.626V183.702H189.439V169.155Z" fill="#455A64"/>
<path d="M196.391 169.155H191.578V183.702H196.391V169.155Z" fill="#455A64"/>
<path d="M203.344 169.155H198.531V183.702H203.344V169.155Z" fill="#455A64"/>
<path d="M210.297 169.155H205.483V183.702H210.297V169.155Z" fill="#455A64"/>
<path d="M217.249 169.155H212.436V183.702H217.249V169.155Z" fill="#455A64"/>
<path d="M224.308 169.155H219.495V183.702H224.308V169.155Z" fill="#455A64"/>
<path d="M231.26 169.155H226.447V183.702H231.26V169.155Z" fill="#455A64"/>
<path d="M232.009 204.986H144.303V229.694H232.009V204.986Z" fill="#263238"/>
<path d="M151.683 208.088H146.763V227.02H151.683V208.088Z" fill="#4DAEEB"/>
<path d="M157.459 212.046C157.459 212.901 156.71 213.65 155.854 213.65C154.999 213.65 154.25 212.901 154.25 212.046C154.25 211.19 154.999 210.441 155.854 210.441C156.817 210.441 157.459 211.19 157.459 212.046Z" fill="white"/>
<path d="M157.459 218.677C157.459 219.533 156.71 220.282 155.854 220.282C154.999 220.282 154.25 219.533 154.25 218.677C154.25 217.821 154.999 217.073 155.854 217.073C156.817 217.18 157.459 217.821 157.459 218.677Z" fill="white"/>
<path d="M168.475 210.441H163.662V224.988H168.475V210.441Z" fill="#455A64"/>
<path d="M175.535 210.441H170.722V224.988H175.535V210.441Z" fill="#455A64"/>
<path d="M182.487 210.441H177.674V224.988H182.487V210.441Z" fill="#455A64"/>
<path d="M189.439 210.441H184.626V224.988H189.439V210.441Z" fill="#455A64"/>
<path d="M196.391 210.441H191.578V224.988H196.391V210.441Z" fill="#455A64"/>
<path d="M203.344 210.441H198.531V224.988H203.344V210.441Z" fill="#455A64"/>
<path d="M210.297 210.441H205.483V224.988H210.297V210.441Z" fill="#455A64"/>
<path d="M217.249 210.441H212.436V224.988H217.249V210.441Z" fill="#455A64"/>
<path d="M224.308 210.441H219.495V224.988H224.308V210.441Z" fill="#455A64"/>
<path d="M231.26 210.441H226.447V224.988H231.26V210.441Z" fill="#455A64"/>
<path d="M232.009 282.531H144.303V307.239H232.009V282.531Z" fill="#263238"/>
<path d="M151.683 285.633H146.763V304.565H151.683V285.633Z" fill="#4DAEEB"/>
<path d="M157.459 289.591C157.459 290.446 156.71 291.195 155.854 291.195C154.999 291.195 154.25 290.446 154.25 289.591C154.25 288.735 154.999 287.986 155.854 287.986C156.817 288.093 157.459 288.735 157.459 289.591Z" fill="white"/>
<path d="M157.459 296.329C157.459 297.185 156.71 297.933 155.854 297.933C154.999 297.933 154.25 297.185 154.25 296.329C154.25 295.473 154.999 294.725 155.854 294.725C156.817 294.725 157.459 295.473 157.459 296.329Z" fill="white"/>
<path d="M168.475 288.093H163.662V302.64H168.475V288.093Z" fill="#455A64"/>
<path d="M175.535 288.093H170.722V302.64H175.535V288.093Z" fill="#455A64"/>
<path d="M182.487 288.093H177.674V302.64H182.487V288.093Z" fill="#455A64"/>
<path d="M189.439 288.093H184.626V302.64H189.439V288.093Z" fill="#455A64"/>
<path d="M196.391 288.093H191.578V302.64H196.391V288.093Z" fill="#455A64"/>
<path d="M203.344 288.093H198.531V302.64H203.344V288.093Z" fill="#455A64"/>
<path d="M210.297 288.093H205.483V302.64H210.297V288.093Z" fill="#455A64"/>
<path d="M217.249 288.093H212.436V302.64H217.249V288.093Z" fill="#455A64"/>
<path d="M224.308 288.093H219.495V302.64H224.308V288.093Z" fill="#455A64"/>
<path d="M231.26 288.093H226.447V302.64H231.26V288.093Z" fill="#455A64"/>
<path d="M232.009 243.812H144.303V268.52H232.009V243.812Z" fill="#263238"/>
<path d="M151.683 246.915H146.763V265.846H151.683V246.915Z" fill="#4DAEEB"/>
<path d="M157.459 250.872C157.459 251.728 156.71 252.476 155.854 252.476C154.999 252.476 154.25 251.728 154.25 250.872C154.25 250.016 154.999 249.268 155.854 249.268C156.817 249.268 157.459 250.016 157.459 250.872Z" fill="white"/>
<path d="M157.459 257.503C157.459 258.359 156.71 259.108 155.854 259.108C154.999 259.108 154.25 258.359 154.25 257.503C154.25 256.648 154.999 255.899 155.854 255.899C156.817 256.006 157.459 256.648 157.459 257.503Z" fill="white"/>
<path d="M168.475 249.268H163.662V263.814H168.475V249.268Z" fill="#455A64"/>
<path d="M175.535 249.268H170.722V263.814H175.535V249.268Z" fill="#455A64"/>
<path d="M182.487 249.268H177.674V263.814H182.487V249.268Z" fill="#455A64"/>
<path d="M189.439 249.268H184.626V263.814H189.439V249.268Z" fill="#455A64"/>
<path d="M196.391 249.268H191.578V263.814H196.391V249.268Z" fill="#455A64"/>
<path d="M203.344 249.268H198.531V263.814H203.344V249.268Z" fill="#455A64"/>
<path d="M210.297 249.268H205.483V263.814H210.297V249.268Z" fill="#455A64"/>
<path d="M217.249 249.268H212.436V263.814H217.249V249.268Z" fill="#455A64"/>
<path d="M224.308 249.268H219.495V263.814H224.308V249.268Z" fill="#455A64"/>
<path d="M231.26 249.268H226.447V263.814H231.26V249.268Z" fill="#455A64"/>
<path d="M198.531 56.2063C198.531 56.2063 198.531 55.9923 198.424 55.4575C198.424 54.9228 198.317 54.174 198.317 53.3184C198.317 52.3557 198.317 51.1792 198.21 49.8957C198.103 48.5052 197.996 47.0078 197.569 45.4034C197.141 43.799 196.392 42.0877 195.216 40.4833C194.039 38.8789 192.435 37.4885 190.402 36.6328C188.37 35.7771 186.017 35.4562 183.557 35.2423C181.097 35.0284 178.637 34.8145 175.963 34.6006C165.588 33.7449 156.283 33.1031 149.437 32.9962C146.014 32.8892 143.234 32.9962 141.415 32.9962C140.56 32.9962 139.811 32.9962 139.276 32.9962C138.741 32.9962 138.527 32.9962 138.527 32.9962C138.527 32.9962 138.741 32.9962 139.276 32.8892C139.811 32.8892 140.56 32.7823 141.415 32.7823C143.34 32.6753 146.121 32.6753 149.437 32.6753C156.283 32.6753 165.695 33.2101 175.963 34.0658C178.53 34.2797 181.097 34.4936 183.557 34.7075C186.017 34.9214 188.37 35.2423 190.509 36.2049C192.649 37.0606 194.36 38.558 195.536 40.2694C196.713 41.9807 197.462 43.6921 197.89 45.4034C198.317 47.1148 198.317 48.6122 198.424 50.0026C198.424 51.3931 198.424 52.5697 198.424 53.4253C198.424 54.281 198.424 55.0297 198.424 55.5645C198.531 55.8854 198.531 56.2063 198.531 56.2063Z" fill="#263238"/>
<path d="M172.005 56.2064C172.005 56.2064 172.005 55.9925 172.005 55.4577C172.005 54.9229 172.005 54.2811 172.005 53.4254C172.005 52.5698 172.005 51.3932 171.898 50.2167C171.791 48.9332 171.577 47.5427 170.829 46.1522C170.08 44.7618 168.582 43.7991 166.871 43.0504C165.16 42.4087 163.127 42.0878 161.095 42.5156C160.133 42.7296 159.063 43.0504 158.1 43.4783C157.138 44.0131 156.282 44.7618 155.747 45.6174C155.213 46.5801 155.213 47.7566 155.747 48.7192C156.282 49.6819 157.245 50.4306 158.421 50.6445C159.491 50.9654 160.667 50.5375 161.523 49.7888C162.379 49.0401 162.807 47.9705 162.914 46.9009C163.021 45.8314 162.593 44.7618 161.951 43.9061C161.309 43.0504 160.56 42.3017 159.598 41.8739C158.742 41.3391 157.673 41.3391 156.71 41.1252C155.747 41.0182 154.785 40.8043 153.822 40.6973C152.004 40.4834 150.185 40.3765 148.581 40.2695C145.372 40.1625 142.805 40.1625 140.987 40.1625C140.131 40.1625 139.49 40.1625 138.955 40.1625C138.527 40.1625 138.206 40.1625 138.206 40.1625C138.206 40.1625 138.42 40.1625 138.955 40.0556C139.49 40.0556 140.131 39.9486 140.987 39.9486C142.805 39.8417 145.372 39.7347 148.581 39.8417C150.185 39.8417 151.897 39.9486 153.822 40.1625C154.785 40.2695 155.747 40.3765 156.71 40.4834C157.245 40.5904 157.673 40.5904 158.207 40.6973C158.742 40.8043 159.277 41.0182 159.705 41.2321C160.667 41.7669 161.523 42.5156 162.272 43.4783C162.914 44.4409 163.448 45.6175 163.341 46.794C163.234 47.9705 162.7 49.254 161.844 50.1097C160.988 50.9654 159.598 51.5002 158.314 51.1793C157.031 50.8584 155.961 50.0028 155.319 48.9332C154.678 47.8636 154.678 46.3662 155.319 45.2966C155.854 44.227 156.817 43.4783 157.887 42.9435C158.849 42.4087 159.919 42.0878 160.988 41.8739C163.127 41.553 165.267 41.8739 166.978 42.5156C168.689 43.2644 170.294 44.3339 171.149 45.8314C171.898 47.3288 172.112 48.8262 172.219 50.1097C172.326 51.3932 172.219 52.4628 172.219 53.4254C172.219 54.2811 172.112 54.9229 172.112 55.4577C172.005 55.9925 172.005 56.2064 172.005 56.2064Z" fill="#263238"/>
<path d="M205.698 56.2064C205.698 56.2064 205.591 55.8855 205.484 55.3507C205.377 54.8159 205.27 54.0672 205.056 52.9976C204.628 50.9654 203.879 48.0775 202.489 44.6548C201.098 41.2321 198.745 37.3816 194.895 34.3868C192.969 32.8893 190.509 32.0337 187.942 31.7128C185.375 31.2849 182.594 31.3919 179.706 31.285C168.369 31.071 158.101 31.071 150.721 30.8571C146.977 30.7501 143.982 30.5362 141.95 30.4293C140.987 30.3223 140.132 30.3223 139.597 30.2154C139.062 30.2154 138.741 30.1084 138.741 30.1084C138.741 30.1084 139.062 30.1084 139.597 30.1084C140.239 30.1084 140.987 30.2154 141.95 30.2154C143.982 30.3223 146.977 30.4293 150.721 30.5362C158.101 30.7501 168.369 30.6432 179.706 30.8571C182.487 30.9641 185.268 30.9641 187.942 31.285C190.616 31.6058 193.183 32.4615 195.216 34.0659C197.141 35.5633 198.852 37.3816 200.029 39.1999C201.312 41.0182 202.168 42.8365 202.917 44.5479C204.307 47.9705 204.949 50.9654 205.377 52.9976C205.591 54.0672 205.698 54.8159 205.698 55.3507C205.698 55.8855 205.698 56.2064 205.698 56.2064Z" fill="#263238"/>
<path d="M230.832 9.46533H145.586V21.8726H230.832V9.46533Z" fill="#263238"/>
<path d="M210.724 15.6689H164.304V21.8726H210.724V15.6689Z" fill="#455A64"/>
<path d="M265.595 266.167C265.595 266.273 264.632 266.273 263.028 266.808C261.423 267.343 259.07 268.199 256.61 269.91C255.327 270.766 254.15 271.835 252.974 273.226C252.439 273.868 251.904 274.723 251.476 275.472C251.048 276.328 250.834 277.29 250.514 278.253C249.551 282.21 249.872 286.596 249.979 291.302C250.193 296.008 249.872 300.607 248.053 304.351C247.198 306.169 245.914 307.774 244.524 308.95C243.133 310.127 241.636 310.982 240.245 311.624C238.855 312.266 237.465 312.587 236.288 312.801C235.111 313.015 234.042 313.015 233.186 312.908C232.331 312.801 231.689 312.694 231.261 312.587C230.833 312.48 230.619 312.373 230.619 312.373C230.619 312.266 231.582 312.587 233.293 312.694C234.149 312.694 235.218 312.694 236.395 312.48C237.571 312.266 238.855 311.838 240.245 311.196C241.636 310.554 243.026 309.699 244.417 308.522C245.7 307.346 246.877 305.848 247.733 304.03C249.444 300.393 249.765 295.901 249.551 291.195C249.337 286.596 249.123 281.996 250.086 278.039C250.3 277.076 250.62 276.114 251.048 275.151C251.476 274.295 252.011 273.44 252.653 272.798C253.829 271.408 255.113 270.231 256.396 269.375C258.963 267.664 261.316 266.808 263.028 266.38C263.883 266.167 264.525 266.06 264.953 266.06C265.381 266.167 265.595 266.06 265.595 266.167Z" fill="#263238"/>
<path d="M233.186 308.736H226.233V317.293H233.186V308.736Z" fill="#263238"/>
<path d="M304.849 244.668H265.595V287.665H304.849V244.668Z" fill="#455A64"/>
<path d="M294.311 275.446C299.365 270.392 299.365 262.197 294.311 257.143C289.257 252.089 281.063 252.089 276.009 257.143C270.955 262.197 270.955 270.392 276.009 275.446C281.063 280.5 289.257 280.5 294.311 275.446Z" fill="#263238"/>
<path d="M291.692 266.273C291.692 269.803 288.805 272.691 285.275 272.691C281.745 272.691 278.857 269.803 278.857 266.273C278.857 262.744 281.745 259.856 285.275 259.856C288.805 259.856 291.692 262.744 291.692 266.273Z" fill="#455A64"/>
<path d="M270.836 252.476C271.486 252.476 272.012 251.949 272.012 251.3C272.012 250.65 271.486 250.123 270.836 250.123C270.186 250.123 269.659 250.65 269.659 251.3C269.659 251.949 270.186 252.476 270.836 252.476Z" fill="#263238"/>
<path d="M298.859 252.476C299.509 252.476 300.036 251.949 300.036 251.3C300.036 250.65 299.509 250.123 298.859 250.123C298.209 250.123 297.683 250.65 297.683 251.3C297.683 251.949 298.209 252.476 298.859 252.476Z" fill="#263238"/>
<path d="M299.073 284.243C299.723 284.243 300.25 283.716 300.25 283.066C300.25 282.416 299.723 281.89 299.073 281.89C298.423 281.89 297.896 282.416 297.896 283.066C297.896 283.716 298.423 284.243 299.073 284.243Z" fill="#263238"/>
<path d="M270.836 284.67C271.486 284.67 272.012 284.144 272.012 283.494C272.012 282.844 271.486 282.317 270.836 282.317C270.186 282.317 269.659 282.844 269.659 283.494C269.659 284.144 270.186 284.67 270.836 284.67Z" fill="#263238"/>
<path d="M308.057 244.668H304.849V287.665H308.057V244.668Z" fill="#263238"/>
<path d="M338.112 82.8385C338.112 82.9454 326.881 83.1593 312.976 83.1593C299.072 83.1593 287.841 83.0524 287.841 82.8385C287.841 82.7315 299.072 82.5176 312.976 82.5176C326.881 82.5176 338.112 82.6245 338.112 82.8385Z" fill="#263238"/>
<path d="M442.396 88.1867C442.396 88.1867 442.182 88.1867 441.861 88.1867C441.541 88.1867 441.006 88.1867 440.364 88.1867C439.081 88.1867 437.155 88.1867 434.588 88.1867C429.561 88.1867 422.288 88.1867 413.09 88.2936C394.693 88.2936 368.809 88.4006 338.753 88.4006H338.539L338.432 88.1867C336.935 82.9457 337.79 76.7421 341.32 72.0359C344.743 67.3297 350.626 64.3348 356.722 64.5488L356.401 64.8696C355.973 63.3722 355.76 61.5539 355.867 59.8426C356.08 54.0668 359.396 48.5049 364.423 45.9379C369.343 43.3709 375.44 43.3709 380.146 46.0449L379.718 46.1518C382.392 39.6273 388.061 34.9211 394.158 32.675C400.254 30.4289 407.1 30.7497 412.448 33.5307C417.796 36.3116 421.646 41.0178 423.785 45.9379C425.925 50.858 426.245 56.206 425.176 60.8052L424.962 60.5913C428.064 60.2704 431.059 60.8052 433.519 61.8748C436.086 62.9444 438.225 64.4418 439.936 66.2601C440.792 67.1158 441.434 68.0784 441.968 69.148C442.396 70.2176 442.824 71.1802 443.038 72.2498C443.573 74.282 443.68 76.1003 443.787 77.8117C443.894 81.2344 443.466 83.8014 443.145 85.5127C442.931 86.3684 442.824 87.0101 442.61 87.438C442.503 87.9728 442.396 88.1867 442.396 88.1867C442.396 88.1867 442.503 87.9728 442.61 87.5449C442.717 87.1171 442.931 86.4753 443.038 85.6197C443.359 83.9083 443.787 81.3413 443.573 77.9186C443.466 76.2073 443.252 74.389 442.824 72.3568C442.289 70.3245 441.434 68.2923 439.722 66.581C438.118 64.8696 435.979 63.3722 433.412 62.3026C430.952 61.34 427.957 60.8052 424.962 61.1261H424.641L424.748 60.9122C425.818 56.4199 425.497 51.1789 423.358 46.3657C421.218 41.5526 417.475 36.9534 412.234 34.2794C406.993 31.6054 400.361 31.2845 394.372 33.4237C388.382 35.5629 382.927 40.2691 380.253 46.5797L380.146 46.9005L379.825 46.7936C375.333 44.3335 369.343 44.2266 364.637 46.6866C359.824 49.1467 356.615 54.4946 356.401 60.0565C356.294 61.7678 356.508 63.3722 356.936 64.8696L357.043 65.1905H356.615C350.732 65.0836 345.064 67.9715 341.748 72.4637C338.432 77.063 337.47 83.0527 338.967 88.0797L338.753 87.8658C368.702 87.8658 394.479 87.9728 412.876 87.9728C422.074 87.9728 429.347 88.0797 434.481 88.0797C436.941 88.0797 438.974 88.0797 440.257 88.0797C440.899 88.0797 441.434 88.0797 441.755 88.0797C442.182 88.1867 442.396 88.1867 442.396 88.1867Z" fill="#263238"/>
<path d="M427.957 151.292C427.957 151.292 427.743 151.292 427.315 151.292C426.78 151.292 426.138 151.292 425.39 151.292C423.678 151.292 421.111 151.292 418.009 151.399C411.699 151.399 402.928 151.506 392.66 151.506H392.446V151.185C392.446 146.907 392.446 142.201 392.446 137.494C392.446 124.018 392.553 111.717 392.553 102.84C392.553 98.4545 392.66 94.8179 392.66 92.3578C392.66 91.1813 392.66 90.2187 392.66 89.4699C392.66 89.1491 392.66 88.9352 392.66 88.7212C392.66 88.5073 392.66 88.5073 392.66 88.5073C392.66 88.5073 392.66 88.6143 392.66 88.7212C392.66 88.9352 392.66 89.1491 392.66 89.4699C392.66 90.2187 392.66 91.0743 392.66 92.3578C392.66 94.9248 392.66 98.4545 392.767 102.84C392.767 111.717 392.767 124.018 392.874 137.494C392.874 142.308 392.874 146.907 392.874 151.185L392.66 150.971C402.821 150.971 411.699 151.078 418.009 151.078C421.111 151.078 423.571 151.185 425.39 151.185C426.245 151.185 426.887 151.185 427.315 151.185C427.743 151.292 427.957 151.292 427.957 151.292Z" fill="#263238"/>
<path d="M418.118 14.3848L394.266 5.82812L370.628 14.2779C367.633 15.6683 364.959 16.524 364.959 19.4119V33.4235C364.959 43.1568 367.526 52.7831 372.767 61.3398C377.152 68.506 383.998 75.8862 394.48 80.5924C404.106 77.4906 411.379 69.0408 415.764 61.8746C421.005 53.3179 423.572 43.6916 423.572 33.9583V21.3372C423.572 17.3797 421.433 15.3475 418.118 14.3848Z" fill="#4DAEEB"/>
<g opacity="0.3">
<path d="M394.479 72.3566C386.136 68.613 380.788 62.7303 377.259 57.0614C373.087 50.323 371.055 42.729 371.055 35.0279V25.1877C371.055 22.9415 372.446 20.9093 375.013 19.6258L394.158 12.4596V5.82812L370.52 14.2779C368.06 15.3475 364.852 16.524 364.852 19.4119V33.4235C364.852 43.1568 367.419 52.7831 372.66 61.3398C377.045 68.506 383.89 75.8862 394.372 80.5924V72.3566H394.479Z" fill="black"/>
</g>
<g opacity="0.4">
<path d="M394.479 80.4855C396.19 79.9507 397.688 79.3089 399.185 78.4532C403.143 76.314 406.565 73.3192 409.132 70.6452C412.02 67.6504 414.159 64.4416 416.085 61.3398C421.326 52.7831 423.893 43.1568 423.679 33.2096V21.658C423.679 15.8823 420.684 15.4544 418.224 14.3848L394.372 5.82812V12.4596L413.732 19.7328C416.406 21.0163 417.689 23.0485 417.689 25.2946V35.1349C417.689 42.8359 415.657 50.43 411.485 57.1684C407.956 62.8372 402.822 68.72 394.479 72.3566V80.4855Z" fill="black"/>
</g>
<path opacity="0.5" d="M400.576 34.3862V32.4609C400.576 29.0383 397.795 26.2573 394.372 26.2573C390.95 26.2573 388.169 29.0383 388.169 32.4609V34.3862C386.457 34.6001 385.174 36.0975 385.174 37.8089V48.9326C385.174 50.8579 386.778 52.3553 388.597 52.3553H400.148C402.073 52.3553 403.571 50.7509 403.571 48.9326V37.8089C403.785 35.9906 402.394 34.4932 400.576 34.3862ZM396.084 46.1517H393.089L393.517 44.0125C392.982 43.6916 392.661 43.1568 392.661 42.4081C392.661 41.3385 393.517 40.5898 394.479 40.5898C395.549 40.5898 396.298 41.4455 396.298 42.4081C396.298 43.0499 395.977 43.5847 395.442 43.9055C395.763 44.7612 396.084 46.1517 396.084 46.1517ZM399.292 34.2792H389.559V32.354C389.559 29.68 391.698 27.5408 394.372 27.5408C397.046 27.5408 399.185 29.68 399.185 32.354L399.292 34.2792Z" fill="white"/>
<path d="M375.012 34.1724C375.012 34.1724 374.798 33.4237 374.691 32.2471C374.585 31.0706 374.478 29.3592 374.478 27.5409C374.478 26.5783 374.585 25.7226 374.691 24.9739C374.798 24.2252 374.905 23.3695 375.226 22.8347C375.547 22.2999 375.975 21.9791 376.296 21.7652C376.617 21.6582 376.831 21.6582 376.831 21.6582C376.831 21.6582 375.975 21.8721 375.547 22.9417C375.333 23.4765 375.226 24.1182 375.119 24.9739C375.012 25.7226 375.012 26.6853 375.012 27.5409C374.905 29.3592 375.012 31.0706 375.119 32.2471C375.012 33.4237 375.012 34.1724 375.012 34.1724Z" fill="white"/>
<path d="M375.333 40.2687C375.226 40.2687 375.119 39.7339 375.119 38.9852C375.119 38.2365 375.226 37.7017 375.333 37.7017C375.44 37.7017 375.547 38.2365 375.547 38.9852C375.547 39.7339 375.44 40.2687 375.333 40.2687Z" fill="white"/>
</svg>
