<svg width="64" height="64" viewBox="0 0 64 64" fill="none" xmlns="http://www.w3.org/2000/svg">
<path fill-rule="evenodd" clip-rule="evenodd" d="M61.537 24.2989C61.537 22.9644 60.4534 21.8808 59.1189 21.8808H18.6691C17.3345 21.8808 16.251 22.9644 16.251 24.2989V55.5174C16.251 56.8519 17.3345 57.9355 18.6691 57.9355H59.1189C60.4534 57.9355 61.537 56.8519 61.537 55.5174V24.2989Z" fill="#CCE6FF" fill-opacity="0.161"/>
<path fill-rule="evenodd" clip-rule="evenodd" d="M58.059 20.0535C58.059 18.7189 56.9754 17.6354 55.6409 17.6354H15.6701C14.3354 17.6354 13.252 18.7189 13.252 20.0535V50.8799C13.252 52.2146 14.3354 53.298 15.6701 53.298H55.6409C56.9754 53.298 58.059 52.2146 58.059 50.8799V20.0535Z" fill="url(#paint0_linear_290_6589)"/>
<path fill-rule="evenodd" clip-rule="evenodd" d="M15.376 24.4799H55.4453V49.6857C55.4453 50.0553 55.2985 50.4097 55.0372 50.671C54.7758 50.9324 54.4214 51.0792 54.0518 51.0792H17.2919C16.2338 51.0792 15.376 50.2214 15.376 49.1632V24.4799Z" fill="white"/>
<path d="M20.6687 22.0551C21.2985 22.0551 21.8091 21.5445 21.8091 20.9147C21.8091 20.2849 21.2985 19.7743 20.6687 19.7743C20.0389 19.7743 19.5283 20.2849 19.5283 20.9147C19.5283 21.5445 20.0389 22.0551 20.6687 22.0551Z" fill="#0084FF"/>
<path d="M17.3865 22.0551C18.0163 22.0551 18.5269 21.5445 18.5269 20.9147C18.5269 20.2849 18.0163 19.7743 17.3865 19.7743C16.7567 19.7743 16.2461 20.2849 16.2461 20.9147C16.2461 21.5445 16.7567 22.0551 17.3865 22.0551Z" fill="#55D7FF"/>
<path d="M23.9451 22.0551C24.5749 22.0551 25.0855 21.5445 25.0855 20.9147C25.0855 20.2849 24.5749 19.7743 23.9451 19.7743C23.3153 19.7743 22.8047 20.2849 22.8047 20.9147C22.8047 21.5445 23.3153 22.0551 23.9451 22.0551Z" fill="#0BBC00"/>
<path fill-rule="evenodd" clip-rule="evenodd" d="M48.4744 20.8386C48.4744 20.2604 48.0048 19.7908 47.4265 19.7908H36.459C36.1811 19.7909 35.9147 19.9013 35.7182 20.0978C35.5217 20.2943 35.4113 20.5607 35.4111 20.8386V21.0072C35.4111 21.5855 35.8806 22.0551 36.459 22.0551H47.4265C48.0048 22.0551 48.4744 21.5855 48.4744 21.0072V20.8386ZM55.7299 20.8299C55.7298 20.55 55.6186 20.2817 55.4207 20.0837C55.2227 19.8858 54.9544 19.7746 54.6745 19.7745H53.2201C52.9402 19.7746 52.6718 19.8858 52.4739 20.0837C52.276 20.2817 52.1648 20.55 52.1646 20.8299V20.9997C52.1648 21.2795 52.276 21.5479 52.4739 21.7458C52.6718 21.9437 52.9402 22.055 53.2201 22.0551H54.6745C54.9544 22.055 55.2227 21.9437 55.4207 21.7458C55.6186 21.5479 55.7298 21.2795 55.7299 20.9997V20.8299Z" fill="#E5F1FF"/>
<path fill-rule="evenodd" clip-rule="evenodd" d="M55.6151 16.461C55.6151 15.1265 54.5315 14.0428 53.197 14.0428H12.7472C11.4126 14.0428 10.3291 15.1265 10.3291 16.461V47.6794C10.3291 49.0141 11.4126 50.0976 12.7472 50.0976H53.197C54.5315 50.0976 55.6151 49.0141 55.6151 47.6794V16.461Z" fill="#CCE6FF" fill-opacity="0.161"/>
<path fill-rule="evenodd" clip-rule="evenodd" d="M53.3569 14.3056C53.3569 12.9709 52.2733 11.8875 50.9388 11.8875H10.9679C9.63329 11.8875 8.5498 12.9709 8.5498 14.3056V45.132C8.5498 46.4666 9.63329 47.5501 10.9679 47.5501H50.9388C52.2733 47.5501 53.3569 46.4666 53.3569 45.132V14.3056Z" fill="url(#paint1_linear_290_6589)"/>
<path fill-rule="evenodd" clip-rule="evenodd" d="M10.6738 18.7319H50.743V43.9379C50.7429 44.3075 50.5961 44.6619 50.3348 44.9232C50.0735 45.1845 49.719 45.3313 49.3495 45.3313H12.5896C11.5316 45.3313 10.6738 44.4735 10.6738 43.4153V18.7319Z" fill="white"/>
<mask id="mask0_290_6589" style="mask-type:luminance" maskUnits="userSpaceOnUse" x="10" y="18" width="41" height="28">
<path d="M10.6738 18.7319H50.743V43.9379C50.7429 44.3075 50.5961 44.6619 50.3348 44.9232C50.0735 45.1845 49.719 45.3313 49.3495 45.3313H12.5896C11.5316 45.3313 10.6738 44.4735 10.6738 43.4153V18.7319Z" fill="white"/>
</mask>
<g mask="url(#mask0_290_6589)">
<path fill-rule="evenodd" clip-rule="evenodd" d="M13.9873 20.6616H46.1883V27.3402H13.9873V20.6616ZM14.2431 28.7227H24.5359V34.2801H14.2431V28.7227ZM14.2431 36.5335H35.9554V43.3046H14.2431V36.5335ZM37.2617 36.5335H46.1066V43.3046H37.2617V36.5335ZM26.0219 28.7609H34.9485V30.7531H26.0219V28.7609ZM25.9456 32.1737H46.2101V34.3073H25.9456V32.1737Z" fill="#E5F1FF"/>
</g>
<path d="M15.9656 16.3073C16.5954 16.3073 17.106 15.7968 17.106 15.1669C17.106 14.5371 16.5954 14.0266 15.9656 14.0266C15.3358 14.0266 14.8252 14.5371 14.8252 15.1669C14.8252 15.7968 15.3358 16.3073 15.9656 16.3073Z" fill="#0084FF"/>
<path d="M12.6834 16.3073C13.3132 16.3073 13.8238 15.7968 13.8238 15.1669C13.8238 14.5371 13.3132 14.0266 12.6834 14.0266C12.0535 14.0266 11.543 14.5371 11.543 15.1669C11.543 15.7968 12.0535 16.3073 12.6834 16.3073Z" fill="#55D7FF"/>
<path d="M19.242 16.3073C19.8718 16.3073 20.3823 15.7968 20.3823 15.1669C20.3823 14.5371 19.8718 14.0266 19.242 14.0266C18.6121 14.0266 18.1016 14.5371 18.1016 15.1669C18.1016 15.7968 18.6121 16.3073 19.242 16.3073Z" fill="#0BBC00"/>
<path fill-rule="evenodd" clip-rule="evenodd" d="M43.7713 15.0907C43.7713 14.5124 43.3017 14.0428 42.7234 14.0428H31.7559C31.478 14.043 31.2115 14.1534 31.0151 14.3499C30.8186 14.5464 30.7081 14.8128 30.708 15.0907V15.2593C30.708 15.8377 31.1774 16.3072 31.7559 16.3072H42.7234C43.3017 16.3072 43.7713 15.8377 43.7713 15.2593V15.0907ZM51.0268 15.082C51.0267 14.8021 50.9154 14.5337 50.7175 14.3358C50.5196 14.1379 50.2512 14.0267 49.9714 14.0266H48.5169C48.2371 14.0267 47.9687 14.138 47.7709 14.3359C47.573 14.5338 47.4618 14.8021 47.4617 15.082V15.2517C47.4618 15.5316 47.573 15.7999 47.7709 15.9978C47.9687 16.1957 48.2371 16.307 48.5169 16.3072H49.9714C50.2512 16.307 50.5196 16.1958 50.7175 15.9979C50.9154 15.8 51.0267 15.5316 51.0268 15.2517V15.082Z" fill="#E5F1FF"/>
<path fill-rule="evenodd" clip-rule="evenodd" d="M49.6933 11.5841C49.6933 10.2494 48.6096 9.16595 47.2751 9.16595H6.82536C5.49071 9.16595 4.40723 10.2494 4.40723 11.5841V42.8024C4.40723 44.137 5.49071 45.2205 6.82536 45.2205H47.2751C48.6096 45.2205 49.6933 44.137 49.6933 42.8024V11.5841Z" fill="#CCE6FF" fill-opacity="0.161"/>
<path fill-rule="evenodd" clip-rule="evenodd" d="M47.434 9.42869C47.434 8.09405 46.3504 7.01056 45.0159 7.01056H5.04509C3.71044 7.01056 2.62695 8.09405 2.62695 9.42869V40.2551C2.62695 41.5897 3.71044 42.6732 5.04509 42.6732H45.0159C46.3504 42.6732 47.434 41.5897 47.434 40.2551V9.42869Z" fill="url(#paint2_linear_290_6589)"/>
<path fill-rule="evenodd" clip-rule="evenodd" d="M4.75195 13.855H44.8211V39.0609C44.8211 39.4305 44.6743 39.7849 44.413 40.0462C44.1516 40.3076 43.7972 40.4544 43.4276 40.4544H6.66776C5.60975 40.4544 4.75195 39.5966 4.75195 38.5384V13.855Z" fill="white"/>
<path d="M10.0437 11.4303C10.6735 11.4303 11.1841 10.9197 11.1841 10.2899C11.1841 9.66005 10.6735 9.14948 10.0437 9.14948C9.41389 9.14948 8.90332 9.66005 8.90332 10.2899C8.90332 10.9197 9.41389 11.4303 10.0437 11.4303Z" fill="#0084FF"/>
<path d="M6.76149 11.4303C7.39131 11.4303 7.90188 10.9197 7.90188 10.2899C7.90188 9.66005 7.39131 9.14948 6.76149 9.14948C6.13167 9.14948 5.62109 9.66005 5.62109 10.2899C5.62109 10.9197 6.13167 11.4303 6.76149 11.4303Z" fill="#55D7FF"/>
<path d="M13.3201 11.4303C13.9499 11.4303 14.4605 10.9197 14.4605 10.2899C14.4605 9.66005 13.9499 9.14948 13.3201 9.14948C12.6903 9.14948 12.1797 9.66005 12.1797 10.2899C12.1797 10.9197 12.6903 11.4303 13.3201 11.4303Z" fill="#0BBC00"/>
<path fill-rule="evenodd" clip-rule="evenodd" d="M37.8494 10.2138C37.8494 9.63554 37.3798 9.16594 36.8015 9.16594H25.834C25.5561 9.16607 25.2897 9.27651 25.0932 9.47299C24.8967 9.66948 24.7863 9.93593 24.7861 10.2138V10.3824C24.7861 10.9607 25.2556 11.4303 25.834 11.4303H36.8015C37.3798 11.4303 37.8494 10.9607 37.8494 10.3824V10.2138ZM45.1049 10.2053C45.1048 9.9253 44.9935 9.65686 44.7955 9.45892C44.5976 9.26098 44.3291 9.14974 44.0492 9.14966H42.5954C42.3155 9.14979 42.047 9.26104 41.8491 9.45898C41.6512 9.65691 41.5399 9.92533 41.5398 10.2053V10.3745C41.5399 10.6545 41.6512 10.9229 41.8491 11.1209C42.047 11.3188 42.3154 11.4301 42.5954 11.4303H44.0492C44.3291 11.4302 44.5976 11.3189 44.7956 11.1209C44.9935 10.923 45.1048 10.6545 45.1049 10.3745V10.2053Z" fill="#E5F1FF"/>
<path fill-rule="evenodd" clip-rule="evenodd" d="M29.5367 39.4879C29.1143 39.4879 28.7079 39.6861 28.5485 39.9688C28.4413 40.1595 28.4589 40.3738 28.6022 40.6235C29.1371 41.5535 29.5707 42.5911 30.0302 43.6895C30.547 44.9254 31.0811 46.2036 31.828 47.5126C32.7693 49.1636 33.2429 50.0849 33.4676 50.5485L40.2871 50.5472C40.4936 50.1698 40.8836 49.4847 41.6334 48.185C43.1484 45.5581 43.0865 42.8756 43.0857 42.8488L43.0797 40.2719C43.0797 40.2524 43.0807 40.2339 43.0823 40.2148C43.086 40.1641 43.1716 38.9037 42.2877 38.7033C42.2218 38.6878 42.1544 38.6796 42.0867 38.6788C41.9853 38.6788 41.6795 38.6788 41.5153 39.3285C41.4855 39.5415 41.4536 39.6748 41.4536 39.6748C41.3754 39.9967 41.0664 40.2034 40.7469 40.1523C40.4249 40.0991 40.1973 39.8057 40.2228 39.476C40.2249 39.4468 40.2381 39.298 40.285 39.0931C40.3606 38.4773 40.2797 37.9528 40.0666 37.6869C39.9831 37.5821 39.8285 37.4414 39.453 37.4143C38.9508 37.3797 38.6076 37.4688 38.5399 38.1172L38.5644 38.7317C38.5778 39.0635 38.3378 39.3504 38.0128 39.3885C37.6892 39.4338 37.3894 39.2063 37.3267 38.8797C37.3191 38.8417 37.2577 38.5065 37.2872 38.0872L37.2714 37.6895C37.2691 37.6283 37.2754 37.5671 37.2901 37.5077C37.2901 37.5077 37.3931 37.0224 37.1725 36.7355C36.9876 36.4962 36.5901 36.4422 36.2889 36.4388H36.2885C35.8898 36.4388 35.5221 36.5386 35.3992 37.2457L35.4336 38.5073C35.4428 38.8365 35.204 39.118 34.8829 39.157C34.5601 39.2013 34.2643 38.979 34.1971 38.6569C34.1911 38.6261 34.0467 37.9178 34.1463 37.1662L34.0243 32.6793C34.0234 32.6592 34.0237 32.6392 34.0251 32.6191C34.0333 32.4623 34.0038 31.9887 33.7683 31.7315C33.6462 31.5989 33.4676 31.5321 33.2216 31.5291C32.3324 31.5291 32.2808 32.5605 32.2774 32.6783L32.187 40.4168C32.1831 40.7217 31.9676 40.9811 31.6727 41.0357C31.529 41.0608 31.381 41.0349 31.2542 40.9625C31.1275 40.8902 31.03 40.7759 30.9786 40.6393C30.5839 39.6003 29.8388 39.4879 29.5367 39.4879Z" fill="#70D1FF" fill-opacity="0.529"/>
<path fill-rule="evenodd" clip-rule="evenodd" d="M29.3001 38.1971C28.9417 38.1971 28.5972 38.3646 28.4618 38.6035C28.371 38.7646 28.3857 38.9456 28.5073 39.1566C28.9611 39.9422 29.3289 40.8187 29.7186 41.7468C30.1569 42.7909 30.6101 43.8707 31.2436 44.9764C32.0421 46.3712 32.4437 47.1497 32.6344 47.5413L38.4187 47.5403C38.5938 47.2214 38.9246 46.6425 39.5607 45.5445C40.8456 43.3253 40.7932 41.0591 40.7924 41.0365L40.7875 38.8595C40.7875 38.8431 40.7882 38.8274 40.7896 38.8113C40.7928 38.7684 40.8654 37.7037 40.1156 37.5344C40.0597 37.5213 40.0025 37.5143 39.9451 37.5138C39.8591 37.5138 39.5997 37.5138 39.4606 38.0625C39.4353 38.2426 39.4081 38.3549 39.4081 38.3549C39.3418 38.6271 39.0797 38.8017 38.8087 38.7584C38.5356 38.7135 38.3426 38.4657 38.3641 38.1871C38.3658 38.1626 38.3771 38.0369 38.4169 37.8637C38.4811 37.3434 38.4124 36.9002 38.2316 36.6758C38.1608 36.5871 38.0297 36.4682 37.7112 36.4454C37.2853 36.4161 36.9941 36.4915 36.9367 37.0392L36.9575 37.5584C36.9688 37.8388 36.7652 38.081 36.4897 38.1133C36.2152 38.1515 35.9608 37.9593 35.9076 37.6833C35.9011 37.6513 35.849 37.368 35.874 37.0138L35.8607 36.6779C35.8587 36.6262 35.8641 36.5745 35.8766 36.5243C35.8766 36.5243 35.964 36.1145 35.7768 35.872C35.6201 35.6698 35.2829 35.6242 35.0274 35.6213H35.027C34.6888 35.6213 34.377 35.7056 34.2727 36.3029L34.3019 37.3688C34.3097 37.6469 34.1072 37.8847 33.8347 37.9176C33.561 37.9551 33.31 37.7673 33.2531 37.4952C33.2481 37.4691 33.1254 36.8707 33.2101 36.2358L33.1064 32.4452C33.1058 32.4283 33.106 32.4113 33.1072 32.3944C33.1141 32.2619 33.0892 31.8618 32.8894 31.6446C32.7858 31.5324 32.6344 31.476 32.4258 31.4736C31.6713 31.4736 31.6276 32.3449 31.6249 32.4444L31.548 38.982C31.5449 39.2395 31.362 39.4587 31.1118 39.5048C30.99 39.5261 30.8646 39.5043 30.7572 39.4432C30.6497 39.3821 30.5669 39.2854 30.523 39.1699C30.1884 38.2922 29.5563 38.1971 29.3001 38.1971Z" fill="white"/>
<path fill-rule="evenodd" clip-rule="evenodd" d="M32.2975 48.6158C32.1918 48.6155 32.0887 48.5836 32.0013 48.5242C31.9139 48.4648 31.8463 48.3807 31.8071 48.2825C31.8011 48.2684 31.5269 47.6139 30.3262 45.516C29.6599 44.3528 29.1723 43.1916 28.7423 42.1674C28.3664 41.2716 28.0116 40.4257 27.5916 39.6995C27.2794 39.1588 27.2615 38.5647 27.5417 38.069C27.8668 37.4941 28.5566 37.1227 29.2998 37.1227C29.742 37.1227 30.1518 37.247 30.5048 37.4767L30.5647 32.4241C30.583 31.7185 30.9917 30.3985 32.4086 30.3985C32.9426 30.4062 33.3679 30.5863 33.6707 30.919C34.1744 31.4728 34.1741 32.2551 34.1667 32.4365L34.2284 34.6997C34.4577 34.5986 34.7198 34.5466 35.011 34.5466C35.754 34.5548 36.286 34.7808 36.619 35.2199C36.691 35.3144 36.7518 35.4169 36.8004 35.5253C37.0764 35.3995 37.3949 35.3446 37.7849 35.3736C38.3169 35.4113 38.7552 35.6267 39.053 35.9962C39.1911 36.1687 39.2898 36.3615 39.3584 36.5612C39.6457 36.4319 39.9836 36.4037 40.3457 36.4854C41.6557 36.7811 41.9007 38.1651 41.8473 38.8792L41.852 41.0191C41.8548 41.1087 41.913 43.6051 40.475 46.0882C39.4942 47.7823 39.2785 48.1808 39.2316 48.2716C39.2116 48.3248 39.1822 48.3754 39.145 48.4212C39.0378 48.5514 38.8708 48.6269 38.7049 48.6148L32.2975 48.6158ZM29.2998 38.1971C28.9414 38.1971 28.5969 38.3646 28.4615 38.6036C28.3708 38.7646 28.3854 38.9456 28.507 39.1567C28.9608 39.9422 29.3287 40.8187 29.7183 41.7468C30.1566 42.791 30.6098 43.8707 31.2433 44.9765C32.0418 46.3713 32.4434 47.1497 32.6341 47.5413L38.4184 47.5403C38.5935 47.2215 38.9243 46.6426 39.5604 45.5446C40.8453 43.3254 40.7929 41.0591 40.7921 41.0365L40.7872 38.8596C40.7872 38.8431 40.7879 38.8275 40.7893 38.8114C40.7926 38.7685 40.8651 37.7037 40.1153 37.5344C40.0594 37.5213 40.0022 37.5144 39.9448 37.5138C39.8588 37.5138 39.5995 37.5138 39.4603 38.0625C39.435 38.2426 39.4078 38.355 39.4078 38.355C39.3415 38.6271 39.0794 38.8017 38.8084 38.7585C38.5353 38.7135 38.3423 38.4657 38.3638 38.1872C38.3656 38.1626 38.3768 38.0369 38.4167 37.8638C38.4808 37.3434 38.4121 36.9002 38.2313 36.6758C38.1605 36.5872 38.0294 36.4682 37.7109 36.4454C37.285 36.4161 36.9938 36.4916 36.9364 37.0392L36.9572 37.5584C36.9685 37.8388 36.7649 38.0811 36.4894 38.1133C36.2149 38.1515 35.9605 37.9594 35.9073 37.6834C35.9008 37.6513 35.8488 37.368 35.8737 37.0139L35.8604 36.6779C35.8584 36.6262 35.8638 36.5745 35.8763 36.5243C35.8763 36.5243 35.9637 36.1145 35.7765 35.872C35.6198 35.6699 35.2826 35.6243 35.0271 35.6213H35.0268C34.6885 35.6213 34.3768 35.7057 34.2725 36.3029L34.3016 37.3689C34.3094 37.6469 34.1069 37.8847 33.8345 37.9176C33.5607 37.9552 33.3097 37.7674 33.2528 37.4952C33.2478 37.4691 33.1251 36.8707 33.2098 36.2359L33.1061 32.4452C33.1055 32.4283 33.1058 32.4113 33.1069 32.3944C33.1138 32.2619 33.0889 31.8618 32.8891 31.6446C32.7855 31.5324 32.6341 31.476 32.4255 31.4736C31.671 31.4736 31.6273 32.3449 31.6246 32.4444L31.5477 38.9821C31.5446 39.2395 31.3617 39.4588 31.1115 39.5049C30.9897 39.5262 30.8643 39.5044 30.7569 39.4432C30.6494 39.3821 30.5666 39.2854 30.5227 39.1699C30.1881 38.2923 29.556 38.1971 29.2998 38.1971Z" fill="#0084FF"/>
<defs>
<linearGradient id="paint0_linear_290_6589" x1="57.0739" y1="31.6238" x2="57.0739" y2="70.8461" gradientUnits="userSpaceOnUse">
<stop stop-color="#EFF6FF"/>
<stop offset="1" stop-color="#C3DAF6"/>
</linearGradient>
<linearGradient id="paint1_linear_290_6589" x1="52.3969" y1="20.4152" x2="52.3969" y2="62.1376" gradientUnits="userSpaceOnUse">
<stop stop-color="#DFEFFF"/>
<stop offset="1" stop-color="#8CC3FC"/>
</linearGradient>
<linearGradient id="paint2_linear_290_6589" x1="40.4887" y1="27.1149" x2="40.4887" y2="58.3616" gradientUnits="userSpaceOnUse">
<stop stop-color="#CCE6FF"/>
<stop offset="1" stop-color="#1D98FF"/>
</linearGradient>
</defs>
</svg>
