<svg width="64" height="64" viewBox="0 0 64 64" fill="none" xmlns="http://www.w3.org/2000/svg">
<path fill-rule="evenodd" clip-rule="evenodd" d="M18.7685 12.6808H41.3533C41.9004 12.6808 42.4219 12.7493 42.5195 12.8352L48.4296 18.0329C48.6403 18.2184 48.1468 18.3717 47.3228 18.3717H13.3064C12.4824 18.3717 11.9751 18.2184 12.1693 18.0329L17.6161 12.8352C17.7062 12.7493 18.2215 12.6808 18.7685 12.6808Z" fill="#F1F7FF"/>
<path fill-rule="evenodd" clip-rule="evenodd" d="M48.8136 19.0002C48.8136 18.2439 48.193 17.6298 47.4284 17.6298H13.1392C12.3747 17.6298 11.7539 18.2439 11.7539 19.0002V52.9393C11.7539 53.6956 12.3747 54.3097 13.1392 54.3097H47.4284C48.193 54.3097 48.8136 53.6956 48.8136 52.9393V19.0002Z" fill="url(#paint0_linear_290_6553)"/>
<path fill-rule="evenodd" clip-rule="evenodd" d="M54.8493 28.3841C54.8493 27.6276 54.2286 27.0136 53.464 27.0136H6.41946C5.65492 27.0136 5.03418 27.6276 5.03418 28.3841V41.6806C5.03418 42.4369 5.65492 43.051 6.41946 43.051H53.464C54.2286 43.051 54.8493 42.4369 54.8493 41.6806V28.3841Z" fill="url(#paint1_linear_290_6553)"/>
<path d="M13.7039 38.0131C13.7039 37.2737 13.0754 36.652 12.328 36.652C11.5807 36.652 10.9521 37.2737 10.9521 38.0131C10.9521 38.7525 11.5807 39.3742 12.328 39.3742C13.0754 39.3742 13.7039 38.7525 13.7039 38.0131ZM22.8423 37.8955C22.8423 37.3409 22.3328 36.9713 21.8061 36.9713C21.6025 36.9713 21.4155 37.0217 21.2287 37.1393C20.855 37.3746 20.4474 37.4922 20.0057 37.4922C18.6978 37.4922 17.7805 36.5342 17.7805 35.1227C17.7805 33.7113 18.6978 32.7703 20.0057 32.7703C20.4304 32.7703 20.855 32.8879 21.2117 33.1063C21.3986 33.2239 21.6023 33.2744 21.8062 33.2744C22.2818 33.2744 22.8254 32.9383 22.8254 32.367C22.8254 32.2325 22.7913 32.0981 22.7234 31.9805C22.3667 31.325 21.1777 30.8714 19.9038 30.8714C17.3729 30.8714 15.5554 32.6359 15.5554 35.1228C15.5554 37.6266 17.3729 39.3911 19.9038 39.3911C21.0587 39.3911 21.9081 39.0549 22.5026 38.5844C22.7234 38.4164 22.8423 38.1475 22.8423 37.8955ZM33.2208 35.1228C33.2208 32.8206 31.5901 30.8714 28.8724 30.8714C26.1715 30.8714 24.5409 32.8206 24.5409 35.1228C24.5409 37.4418 26.1715 39.3911 28.8723 39.3911C31.5902 39.3911 33.2208 37.4418 33.2208 35.1228ZM30.9786 35.1228C30.9786 36.3999 30.2142 37.4922 28.8723 37.4922C27.5305 37.4922 26.783 36.3999 26.783 35.1227C26.783 33.8626 27.5305 32.7703 28.8723 32.7703C30.2142 32.7703 30.9786 33.8626 30.9786 35.1228ZM47.6757 38.2314V33.3247C47.6757 31.6609 46.7752 30.8713 45.2636 30.8713C44.0066 30.8713 42.9196 31.6106 42.444 32.35C42.1382 31.4258 41.3739 30.8713 40.1679 30.8713C38.9109 30.8713 37.8238 31.6442 37.484 32.1315V32.014C37.484 31.4425 37.0085 30.972 36.4309 30.972C35.8024 30.972 35.3269 31.4426 35.3269 32.014V38.2314C35.3263 38.3706 35.3536 38.5085 35.4071 38.6372C35.4607 38.7659 35.5395 38.8829 35.639 38.9813C35.7385 39.0797 35.8567 39.1577 35.9868 39.2107C36.1169 39.2637 36.2563 39.2907 36.397 39.2901C37.0085 39.2901 37.484 38.8196 37.484 38.2314V33.7281C37.8068 33.2744 38.4353 32.7702 39.1827 32.7702C40.0659 32.7702 40.4056 33.3079 40.4056 34.0641V38.2317C40.405 38.3709 40.4323 38.5088 40.4859 38.6375C40.5395 38.7662 40.6183 38.8831 40.7178 38.9815C40.8172 39.0799 40.9354 39.1578 41.0655 39.2108C41.1956 39.2638 41.335 39.2908 41.4757 39.2902C42.1042 39.2902 42.5798 38.8197 42.5798 38.2316V33.7113C42.8857 33.2744 43.514 32.7703 44.2784 32.7703C45.1617 32.7703 45.5015 33.3079 45.5015 34.0641V38.2317C45.5009 38.3709 45.5282 38.5088 45.5818 38.6375C45.6354 38.7662 45.7142 38.8831 45.8137 38.9815C45.9131 39.0799 46.0313 39.1578 46.1614 39.2108C46.2915 39.2638 46.4309 39.2908 46.5716 39.2902C47.2 39.2902 47.6757 38.8197 47.6757 38.2316V38.2314Z" fill="white"/>
<path d="M25.7555 27.6639C25.9562 27.7205 25.9881 28.0468 25.7173 28.0716C19.678 28.0716 13.6386 28.0302 7.59946 28.0717C6.80971 28.0858 6.10834 28.7683 6.10321 29.5726V31.5321C6.08257 31.7515 5.71173 31.7891 5.68763 31.5321C5.68763 30.6236 5.54467 29.6184 5.80482 28.9148C6.07412 28.187 6.81594 27.6659 7.6183 27.6605H25.7173L25.7555 27.6639ZM5.90664 32.4376C5.95724 32.4419 6.00468 32.4637 6.0406 32.4992C6.07651 32.5348 6.09859 32.5817 6.10294 32.6318C6.11693 33.1471 6.10321 33.6628 6.10321 34.1783C6.09753 34.3862 5.7109 34.469 5.68791 34.1894C5.67378 33.6741 5.68763 33.1584 5.68763 32.6429C5.69082 32.5269 5.76424 32.4337 5.90664 32.4376Z" fill="white" fill-opacity="0.384"/>
<path d="M54.0367 38.3592C54.1417 38.3721 54.2229 38.4592 54.2273 38.5639C54.2273 39.7292 54.441 41.0305 53.7256 41.8094C53.3617 42.2056 52.8236 42.4763 52.2799 42.4352C52.2397 42.4321 52.2012 42.4174 52.1692 42.3931C52.0236 42.2825 52.0946 42.0316 52.3546 42.0235C53.1278 41.9898 53.8066 41.3268 53.8118 40.5235V38.5639C53.8129 38.5359 53.8196 38.5083 53.8316 38.4828C53.8435 38.4573 53.8604 38.4344 53.8813 38.4154C53.9022 38.3963 53.9267 38.3816 53.9533 38.372C53.98 38.3623 54.0084 38.358 54.0367 38.3592ZM54.0446 29.4015C54.189 29.4277 54.2206 29.494 54.2273 29.6056V37.4533C54.214 37.6715 53.8299 37.7502 53.8118 37.4533V29.6056C53.819 29.4873 53.9141 29.3937 54.0446 29.4015Z" fill="#004CAE" fill-opacity="0.294"/>
<path fill-rule="evenodd" clip-rule="evenodd" d="M28.2955 13.8324C25.422 15.3829 19.9586 18.0919 18.252 17.2733C15.6589 13.9088 16.599 5.48072 19.742 3.25607C21.9432 2.37226 26.5698 6.16142 28.9285 8.29302H28.7774C28.0129 8.29302 27.3921 8.90712 27.3921 9.66347V12.5472C27.3921 13.1361 27.7682 13.6386 28.2955 13.8324ZM31.7008 8.29302C33.9661 6.19513 38.4866 2.40063 40.6889 3.28567C43.8145 5.49977 44.9806 13.8342 42.4018 17.1826C40.6976 18.0006 35.225 15.2801 32.3765 13.7408C32.5903 13.6215 32.7683 13.4481 32.8921 13.2383C33.0159 13.0286 33.0812 12.7901 33.0812 12.5472V9.66347C33.0812 8.90876 32.4631 8.29562 31.7008 8.29302Z" fill="url(#paint2_linear_290_6553)"/>
<path fill-rule="evenodd" clip-rule="evenodd" d="M32.1799 15.5238C33.2926 16.125 34.856 16.9292 36.3872 17.5796C36.6091 20.5977 41.5702 24.8942 41.5702 24.8942C41.5702 24.8942 39.3421 26.6144 36.8831 26.3801C33.5234 24.8217 31.5139 20.1466 30.6049 17.4527C29.6943 20.1444 27.6854 24.805 24.3287 26.3595C21.8697 26.5934 19.6416 24.8761 19.6416 24.8761C19.6416 24.8761 24.7292 20.4771 24.8309 17.4594L24.8313 17.4493C26.1999 16.8437 27.5549 16.1451 28.556 15.605L28.561 15.607C28.6929 15.6547 28.8353 15.6808 28.9838 15.6808H31.5755C31.7873 15.6812 31.9956 15.627 32.1799 15.5238ZM28.5257 15.5934L28.5271 15.5939L28.5264 15.5938L28.5257 15.5934ZM28.4966 15.5815L28.4984 15.5822L28.4973 15.5817L28.4966 15.5815ZM28.4682 15.5689L28.4697 15.5695L28.4686 15.569L28.4682 15.5689ZM28.4575 15.5639L28.4599 15.565L28.4591 15.5646L28.4575 15.5639ZM28.4293 15.5502L28.4323 15.5517L28.4308 15.551L28.4293 15.5502ZM28.4017 15.536L28.4052 15.5378L28.403 15.5367L28.4017 15.536ZM28.3913 15.5304L28.3945 15.5321L28.3938 15.5317L28.3913 15.5304ZM28.3748 15.5212L28.3783 15.5232L28.3757 15.5216L28.3748 15.5212ZM28.364 15.515L28.368 15.5173L28.3665 15.5165L28.364 15.515ZM32.206 15.5088L32.2057 15.509L32.2064 15.5086L32.206 15.5088ZM28.3484 15.5058L28.3517 15.5077L28.3486 15.506L28.3484 15.5058ZM28.3376 15.4992L28.342 15.502L28.3398 15.5006L28.3376 15.4992ZM28.3266 15.4925L28.3313 15.4954L28.3309 15.4951L28.3266 15.4925ZM32.2316 15.4932L32.231 15.4936L32.2324 15.4927L32.2316 15.4932ZM28.3118 15.4831L28.3164 15.4859L28.3133 15.484L28.3118 15.4831ZM28.301 15.4759L28.3058 15.4791L28.3047 15.4784L28.301 15.4759ZM32.2568 15.477L32.256 15.4776L32.2578 15.4764L32.2568 15.477ZM28.2865 15.4662L28.2916 15.4698L28.2874 15.4669L28.2865 15.4662ZM28.2759 15.459L28.2808 15.4624L28.279 15.461L28.2759 15.459ZM32.2816 15.4602L32.2805 15.461L32.2827 15.4595L32.2816 15.4602ZM28.2513 15.4413L28.2564 15.445L28.2536 15.4431L28.2513 15.4413ZM32.306 15.4428L32.3045 15.4439L32.3072 15.442L32.306 15.4428ZM28.2394 15.4325L28.246 15.4374L28.2453 15.4369L28.2394 15.4325ZM28.2272 15.423L28.2326 15.4273L28.2288 15.4244L28.2272 15.423ZM32.3299 15.4248L32.3281 15.4263L32.3311 15.424L32.3299 15.4248ZM28.2165 15.4148L28.2222 15.4192L28.2206 15.418L28.2165 15.4148ZM32.3378 15.4188L32.3374 15.4191L32.3399 15.417L32.3378 15.4188ZM28.2035 15.4043L28.2098 15.4095L28.2044 15.4051L28.2035 15.4043ZM32.3534 15.4063L32.3511 15.4081L32.3545 15.4055L32.3534 15.4063ZM32.3611 15.4L32.3604 15.4006L32.3639 15.3978L32.3611 15.4ZM28.1934 15.396L28.1988 15.4004L28.1965 15.3987L28.1934 15.396ZM28.1803 15.3851L28.1889 15.3923C28.1861 15.3899 28.1832 15.3875 28.1803 15.3851ZM32.3764 15.3873L32.3737 15.3895L32.3775 15.3863L32.3764 15.3873ZM32.384 15.3808L32.383 15.3817L32.3869 15.3782L32.384 15.3808ZM28.1706 15.3766L28.1759 15.3812L28.1729 15.3786L28.1706 15.3766ZM28.1593 15.3666L28.1661 15.3727L28.1651 15.3718L28.1593 15.3666ZM32.3988 15.3677L32.3957 15.3704L32.3999 15.3669L32.3988 15.3677ZM32.4063 15.3611L32.4052 15.3621L32.4093 15.3582L32.4063 15.3611ZM28.1482 15.3566L28.1539 15.3618L28.1497 15.3581L28.1482 15.3566ZM28.1382 15.3474L28.1439 15.3526L28.1422 15.3511L28.1382 15.3474ZM32.4208 15.3477L32.4172 15.351L32.4218 15.3467L32.4208 15.3477ZM28.1263 15.336L28.1335 15.3429L28.1271 15.3368L28.1263 15.336ZM32.428 15.3408L32.4266 15.3421L32.4312 15.3378L32.428 15.3408ZM28.1169 15.3268L28.1222 15.332L28.1198 15.3297L28.1169 15.3268ZM32.4424 15.327L32.438 15.3312L32.4433 15.3262L32.4424 15.327ZM32.4495 15.32L32.4478 15.3216L32.4524 15.317L32.4495 15.32ZM32.4634 15.3059L32.4579 15.3114L32.4642 15.305L32.4634 15.3059ZM28.0958 15.3057L28.1011 15.3109L28.0979 15.3078L28.0958 15.3057ZM28.0857 15.295L28.0918 15.3015L28.0908 15.3004L28.0857 15.295ZM32.4703 15.2987L32.4683 15.3007L32.473 15.2957L32.4703 15.2987ZM28.0753 15.2839L28.0807 15.2898L28.0767 15.2855L28.0753 15.2839ZM28.0663 15.2741L28.0713 15.2797L28.0697 15.2778L28.0663 15.2741ZM32.4905 15.2768L32.4884 15.2793L32.4933 15.2739L32.4905 15.2768ZM28.0552 15.2616L28.0626 15.27L28.0559 15.2624L28.0552 15.2616ZM32.5103 15.2546L32.508 15.2574L32.5128 15.2516L32.5103 15.2546ZM28.0467 15.2519L28.0514 15.2574L28.0492 15.2548L28.0467 15.2519ZM32.5296 15.2319L32.5268 15.235L32.5319 15.229L32.5296 15.2319ZM28.0275 15.229L28.0321 15.2346L28.0292 15.231L28.0275 15.229ZM32.5423 15.216C32.54 15.219 32.5376 15.222 32.5351 15.225L32.5423 15.216ZM28.0188 15.2182L28.0238 15.2243L28.0227 15.2231L28.0188 15.2182ZM32.5483 15.2086L32.5452 15.2124L32.5503 15.2058L32.5483 15.2086ZM28.0088 15.2057L28.0136 15.2116L28.0099 15.2069L28.0088 15.2057ZM28.0009 15.1953L28.0051 15.2008L28.0036 15.1988L28.0009 15.1953ZM27.9907 15.1817L27.9972 15.1905L27.9911 15.1824L27.9907 15.1817ZM32.5663 15.1849L32.5631 15.1892L32.5682 15.1823L32.5663 15.1849ZM27.9832 15.1714L27.987 15.1766L27.985 15.174L27.9832 15.1714ZM27.9742 15.159L27.9795 15.1662L27.9791 15.1657L27.9742 15.159ZM32.5839 15.1607L32.5803 15.1658L32.5857 15.1583L32.5839 15.1607ZM32.5895 15.1527L32.5883 15.1544L32.5948 15.145L32.5895 15.1527ZM27.9659 15.147L27.9695 15.1522L27.9671 15.1488L27.9659 15.147ZM32.6008 15.1362L32.5969 15.1421L32.6024 15.1339L32.6008 15.1362ZM27.9587 15.1362L27.9622 15.1414L27.9613 15.1403L27.9587 15.1362ZM32.6063 15.128L32.6049 15.13L32.6109 15.1209L32.6063 15.128ZM27.9493 15.1221L27.9526 15.1273L27.95 15.1231L27.9493 15.1221ZM32.6171 15.1113L32.6127 15.1181L32.6185 15.1089L32.6171 15.1113ZM27.9425 15.1115L27.9455 15.1162L27.9443 15.1144L27.9425 15.1115ZM32.6224 15.1028L32.6209 15.1052L32.6265 15.0963L32.6224 15.1028ZM27.9332 15.0967L27.9367 15.1022L27.9333 15.0969L27.9332 15.0967ZM32.6329 15.0859L32.6279 15.094L32.6342 15.0837L32.6329 15.0859ZM27.9267 15.0861L27.9293 15.0904L27.9279 15.0881L27.9267 15.0861ZM32.638 15.0773L32.6362 15.0802L32.6415 15.0713L32.638 15.0773ZM27.9206 15.0758L27.9228 15.0796L27.9225 15.0792L27.9206 15.0758ZM27.9115 15.0601L27.9137 15.064L27.9121 15.0614L27.9115 15.0601ZM32.6529 15.0514L32.6511 15.0545L32.656 15.0456L32.6529 15.0514ZM27.9056 15.0497L27.9076 15.0533L27.907 15.0523L27.9056 15.0497ZM32.6634 15.0321C32.6615 15.0358 32.6595 15.0394 32.6574 15.043L32.6634 15.0321ZM27.8969 15.0337L27.8983 15.0364L27.897 15.0341L27.8969 15.0337ZM32.6671 15.0251L32.6652 15.0286L32.67 15.0197L32.6671 15.0251ZM27.8912 15.023L27.8929 15.0264L27.8922 15.0251L27.8912 15.023ZM32.6771 15.0057C32.6753 15.0095 32.6734 15.0132 32.6714 15.0168L32.6771 15.0057ZM32.6808 14.9983L32.6788 15.0025L32.6833 14.9933L32.6808 14.9983ZM27.8775 14.9962L27.8789 14.9989L27.8781 14.9972L27.8775 14.9962ZM32.6939 14.9712L32.6916 14.9759L32.6959 14.9665L32.6939 14.9712ZM27.8644 14.9687L27.8652 14.9704L27.8646 14.9692L27.8644 14.9687ZM27.8599 14.9587L27.8605 14.9601L27.8603 14.9597L27.8599 14.9587ZM32.7062 14.9438L32.704 14.949L32.7081 14.9394L32.7062 14.9438ZM32.7144 14.9243C32.7128 14.9283 32.7112 14.9323 32.7094 14.9361L32.7144 14.9243ZM27.8476 14.9304L27.848 14.9316L27.8477 14.9311L27.8476 14.9304ZM32.7178 14.916L32.7155 14.9217L32.7195 14.9119L32.7178 14.916ZM32.7288 14.8879L32.7264 14.8943L32.7303 14.884L32.7288 14.8879ZM32.7392 14.8594L32.7365 14.8666L32.7404 14.8558L32.7392 14.8594ZM32.7487 14.8306L32.7461 14.8388L32.7498 14.8273L32.7487 14.8306ZM32.7518 14.821L32.7508 14.8239L32.7547 14.8113L32.7518 14.821ZM32.7576 14.8015L32.7548 14.811L32.7586 14.7985L32.7576 14.8015ZM32.7605 14.7918L32.7595 14.7951L32.7628 14.7832L32.7605 14.7918ZM32.7684 14.7622L32.7674 14.7659L32.7703 14.7544L32.7684 14.7622ZM32.7756 14.7325L32.7746 14.7366L32.7771 14.7253L32.7756 14.7325ZM32.782 14.7025L32.7811 14.707L32.7833 14.6959L32.782 14.7025ZM32.7878 14.672L32.7868 14.6771L32.7888 14.666L32.7878 14.672ZM32.7926 14.6415L32.7918 14.6471L32.7935 14.6359L32.7926 14.6415ZM32.7957 14.6196C32.7952 14.624 32.7946 14.6284 32.7939 14.6328L32.7957 14.6196ZM32.7968 14.6106L32.7961 14.6168L32.7975 14.6054L32.7968 14.6106ZM32.7993 14.5889C32.7988 14.5933 32.7983 14.5978 32.7978 14.6023L32.7993 14.5889ZM32.8003 14.5797L32.7996 14.5864L32.8007 14.5749L32.8003 14.5797ZM32.8027 14.5483L32.8022 14.5558L32.803 14.5439L32.8027 14.5483ZM32.8045 14.5168L32.8041 14.5251L32.8047 14.5128L32.8045 14.5168ZM32.8055 14.4851L32.8052 14.4944L32.8055 14.4814V14.4851Z" fill="#2684FB" fill-opacity="0.231"/>
<path fill-rule="evenodd" clip-rule="evenodd" d="M32.3763 13.7408C33.6293 14.4178 35.3899 15.3234 37.1141 16.0559C37.364 19.4547 42.9507 24.293 42.9507 24.293C42.9507 24.293 40.4417 26.23 37.6727 25.9662C33.8892 24.2114 31.6263 18.9465 30.6027 15.913C29.5772 18.9442 27.3149 24.1926 23.5349 25.9431C20.7659 26.2065 18.2568 24.2726 18.2568 24.2726C18.2568 24.2726 23.9861 19.3188 24.1005 15.9205L24.1009 15.9092C25.6422 15.2272 27.1681 14.4406 28.2953 13.8324L28.3011 13.8344C28.4536 13.8897 28.6148 13.9178 28.7772 13.9176H31.6957C31.9342 13.918 32.1688 13.8571 32.3763 13.7408ZM28.2613 13.8194L28.2627 13.8199L28.2622 13.8196L28.2613 13.8194ZM28.2285 13.8058L28.2304 13.8066L28.2293 13.8061L28.2285 13.8058ZM28.1965 13.7915L28.1983 13.7924L28.1969 13.7918L28.1965 13.7915ZM28.1845 13.7861L28.1871 13.7873L28.1863 13.7869L28.1845 13.7861ZM28.1526 13.7706L28.1561 13.7724L28.1544 13.7715L28.1526 13.7706ZM28.1217 13.7545L28.1256 13.7566L28.1231 13.7554L28.1217 13.7545ZM28.1099 13.7482L28.1135 13.7502L28.1127 13.7498L28.1099 13.7482ZM28.0914 13.738L28.0954 13.7402L28.0922 13.7385L28.0914 13.738ZM28.0792 13.731L28.0836 13.7336L28.0821 13.7326L28.0792 13.731ZM32.4057 13.724L32.4053 13.7241L32.4062 13.7237L32.4057 13.724ZM28.0616 13.7207L28.0653 13.7229L28.0619 13.7208L28.0616 13.7207ZM28.0495 13.7133L28.0544 13.7163L28.0519 13.7148L28.0495 13.7133ZM28.0372 13.7056L28.0423 13.7089L28.0419 13.7086L28.0372 13.7056ZM32.4345 13.7064L32.4339 13.7069L32.4353 13.7059L32.4345 13.7064ZM28.0204 13.6949L28.0256 13.6984L28.0221 13.6962L28.0204 13.6949ZM28.0082 13.687L28.0137 13.6905L28.0124 13.6897L28.0082 13.687ZM32.4629 13.6882L32.4619 13.6888L32.464 13.6874L32.4629 13.6882ZM27.9919 13.676L27.9977 13.68L27.993 13.6768L27.9919 13.676ZM27.98 13.6678L27.9855 13.6716L27.9833 13.6701L27.98 13.6678ZM32.4909 13.6693L32.4895 13.6701L32.4921 13.6683L32.4909 13.6693ZM27.9523 13.6479L27.958 13.6522L27.9549 13.6498L27.9523 13.6479ZM32.5183 13.6497L32.5166 13.6509L32.5196 13.6487L32.5183 13.6497ZM27.9388 13.6381L27.9463 13.6437L27.9455 13.643L27.9388 13.6381ZM27.9251 13.6275L27.9311 13.6322L27.9269 13.6289L27.9251 13.6275ZM32.5452 13.6294L32.5431 13.6311L32.5466 13.6285L32.5452 13.6294ZM27.9131 13.6182L27.9195 13.6231L27.9178 13.6217L27.9131 13.6182ZM32.554 13.6226L32.5538 13.6228L32.5565 13.6207L32.554 13.6226ZM27.8984 13.6064L27.9056 13.6122L27.8996 13.6072L27.8984 13.6064ZM32.5716 13.6086L32.5691 13.6106L32.5729 13.6076L32.5716 13.6086ZM32.5804 13.6016L32.5797 13.6022L32.5834 13.599L32.5804 13.6016ZM27.887 13.5969L27.8931 13.602L27.8906 13.6L27.887 13.5969ZM32.5975 13.5872L32.5946 13.5897L32.5988 13.5861L32.5975 13.5872ZM32.606 13.58L32.605 13.5808L32.6095 13.5769L32.606 13.58ZM27.8614 13.5752L27.8674 13.5804L27.8639 13.5773L27.8614 13.5752ZM27.8487 13.5638L27.8563 13.5708L27.8552 13.5697L27.8487 13.5638ZM32.6229 13.5652L32.6194 13.5682L32.624 13.5641L32.6229 13.5652ZM32.6312 13.5576L32.63 13.5588L32.6347 13.5545L32.6312 13.5576ZM27.8362 13.5525L27.8426 13.5584L27.838 13.5542L27.8362 13.5525ZM27.825 13.5421L27.8313 13.548L27.8294 13.5464L27.825 13.5421ZM32.6477 13.5425L32.6435 13.5462L32.6487 13.5414L32.6477 13.5425ZM27.8115 13.5294L27.8196 13.5371L27.8125 13.5303L27.8115 13.5294ZM32.6557 13.5349L32.6542 13.5362L32.6592 13.5314L32.6557 13.5349ZM27.8009 13.5191L27.8068 13.5249L27.8042 13.5223L27.8009 13.5191ZM32.6718 13.5192L32.6669 13.524L32.6728 13.5183L32.6718 13.5192ZM27.7874 13.5057L27.7964 13.5147C27.7934 13.5117 27.7904 13.5087 27.7874 13.5057ZM32.6798 13.5114L32.6779 13.5132L32.6832 13.508L32.6798 13.5114ZM32.6955 13.4954L32.6894 13.5017L32.6963 13.4946L32.6955 13.4954ZM27.7772 13.4953L27.7831 13.5013L27.7795 13.4977L27.7772 13.4953ZM27.7658 13.4833L27.7727 13.4906L27.7715 13.4894L27.7658 13.4833ZM32.7032 13.4873L32.7012 13.4896L32.7064 13.484L32.7032 13.4873ZM27.754 13.4707L27.7603 13.4774L27.7556 13.4724L27.754 13.4707ZM27.7439 13.4596L27.7496 13.4659L27.7478 13.4639L27.7439 13.4596ZM32.7261 13.4628L32.7236 13.4655L32.7291 13.4595L32.7261 13.4628ZM27.7315 13.4456L27.7398 13.455L27.7323 13.4466L27.7315 13.4456ZM32.7484 13.4377L32.7456 13.4408L32.7512 13.4344L32.7484 13.4377ZM27.7219 13.4347L27.7272 13.4407L27.7247 13.4378L27.7219 13.4347ZM32.77 13.4121L32.767 13.4158L32.7726 13.4089L32.77 13.4121ZM27.7003 13.4089L27.7054 13.4152L27.7022 13.4112L27.7003 13.4089ZM27.6905 13.3967L27.696 13.4037L27.6949 13.4022L27.6905 13.3967ZM32.7911 13.3859L32.7877 13.3901L32.7934 13.3827L32.7911 13.3859ZM27.6792 13.3826L27.6846 13.3893L27.6805 13.3841L27.6792 13.3826ZM27.6702 13.371L27.6749 13.3771L27.6733 13.3749L27.6702 13.371ZM27.6589 13.3557L27.6662 13.3655L27.6593 13.3563L27.6589 13.3557ZM32.8114 13.3593L32.8077 13.3641L32.8137 13.3563L32.8114 13.3593ZM27.6503 13.3441L27.6546 13.35L27.6525 13.347L27.6503 13.3441ZM27.6403 13.33L27.6461 13.3382L27.6457 13.3375L27.6403 13.33ZM32.8311 13.332L32.8271 13.3378L32.8332 13.3292L32.8311 13.332ZM32.8376 13.323L32.8362 13.3249L32.8436 13.3142L32.8376 13.323ZM27.6309 13.3166L27.6349 13.3224L27.6323 13.3186L27.6309 13.3166ZM32.8502 13.3045L32.8458 13.3109L32.852 13.3017L32.8502 13.3045ZM27.6227 13.3045L27.6267 13.3104L27.6258 13.309L27.6227 13.3045ZM32.8565 13.2952L32.8549 13.2975L32.8616 13.2872L32.8565 13.2952ZM27.6122 13.2885L27.6159 13.2943L27.6129 13.2896L27.6122 13.2885ZM32.8686 13.2763L32.8637 13.2839L32.8703 13.2738L32.8686 13.2763ZM27.6044 13.2765L27.6079 13.2819L27.6065 13.2798L27.6044 13.2765ZM32.8746 13.2668L32.8729 13.2695L32.8792 13.2595L32.8746 13.2668ZM27.594 13.26L27.5979 13.2661L27.5942 13.2601L27.594 13.26ZM32.8864 13.2478L32.8808 13.2568L32.8878 13.2453L32.8864 13.2478ZM27.5867 13.2479L27.5898 13.2528L27.5881 13.2502L27.5867 13.2479ZM32.8922 13.238L32.8903 13.2412L32.8961 13.2312L32.8922 13.238ZM27.5798 13.2364L27.5824 13.2408L27.5821 13.2402L27.5798 13.2364ZM32.9047 13.2165C32.9023 13.2205 32.9 13.2245 32.8977 13.2286L32.9047 13.2165ZM27.5695 13.2187L27.5722 13.2231L27.5704 13.2201L27.5695 13.2187ZM32.909 13.2088L32.9069 13.2125L32.9124 13.2024L32.909 13.2088ZM27.563 13.2069L27.5652 13.211L27.5647 13.2099L27.563 13.2069ZM27.5532 13.189L27.5548 13.1921L27.5533 13.1895L27.5532 13.189ZM32.925 13.1792L32.9228 13.1833L32.9282 13.1732L32.925 13.1792ZM27.5468 13.177L27.5487 13.1807L27.5479 13.1792L27.5468 13.177ZM32.9404 13.1491L32.938 13.1537L32.9432 13.1435L32.9404 13.1491ZM27.5313 13.1466L27.5328 13.1498L27.532 13.148L27.5313 13.1466ZM32.9551 13.1187L32.9526 13.1239L32.9574 13.1133L32.9551 13.1187ZM27.5166 13.1158L27.5174 13.1176L27.5169 13.1163L27.5166 13.1158ZM32.9649 13.0969C32.963 13.1012 32.961 13.1055 32.9591 13.1099L32.9649 13.0969ZM27.5115 13.1045L27.5122 13.106L27.5119 13.1056L27.5115 13.1045ZM32.9689 13.0877L32.9664 13.0936L32.971 13.0828L32.9689 13.0877ZM27.4976 13.0726L27.4982 13.074L27.4979 13.0734L27.4976 13.0726ZM32.9821 13.0564L32.9795 13.0629L32.9839 13.0518L32.9821 13.0564ZM32.9907 13.0345C32.989 13.0391 32.9872 13.0436 32.9854 13.0481L32.9907 13.0345ZM32.9944 13.0248L32.9917 13.032L32.9961 13.0204L32.9944 13.0248ZM33.0061 12.9927L33.0032 13.0008L33.0075 12.9886L33.0061 12.9927ZM33.0134 12.9709C33.0119 12.9756 33.0103 12.9803 33.0087 12.9849L33.0134 12.9709ZM33.0169 12.9602L33.0138 12.9696L33.018 12.9565L33.0169 12.9602ZM33.0203 12.9494L33.0192 12.9527L33.0237 12.9386L33.0203 12.9494ZM33.0268 12.9275L33.0237 12.9382L33.0278 12.9241L33.0268 12.9275ZM33.03 12.9165L33.0289 12.9202L33.0327 12.9068L33.03 12.9165ZM33.0389 12.8834L33.0379 12.8875L33.0411 12.8746L33.0389 12.8834ZM33.0471 12.8498L33.046 12.8544L33.0489 12.8417L33.0471 12.8498ZM33.0543 12.8159L33.0533 12.8211L33.0558 12.8085L33.0543 12.8159ZM33.0608 12.7818L33.0597 12.7874L33.0619 12.7749L33.0608 12.7818ZM33.0663 12.7473L33.0654 12.7536L33.0672 12.741L33.0663 12.7473ZM33.071 12.7126L33.0701 12.7194L33.0717 12.7068L33.071 12.7126ZM33.0748 12.6776L33.0741 12.6852L33.0753 12.6723L33.0748 12.6776ZM33.0777 12.6424L33.0771 12.6508L33.078 12.6374L33.0777 12.6424ZM33.0798 12.6069L33.0792 12.6163L33.0799 12.6024L33.0798 12.6069ZM33.0807 12.5712L33.0806 12.5817L33.0809 12.5671L33.0807 12.5712ZM33.0809 12.5629L33.081 12.5472V12.5592L33.0809 12.5629Z" fill="url(#paint3_linear_290_6553)"/>
<path fill-rule="evenodd" clip-rule="evenodd" d="M33.0807 9.66348C33.0807 8.90713 32.4599 8.29303 31.6954 8.29303H28.7769C28.0123 8.29303 27.3916 8.90713 27.3916 9.66348V12.5472C27.3916 13.3037 28.0123 13.9176 28.7769 13.9176H31.6954C32.4599 13.9176 33.0807 13.3037 33.0807 12.5472V9.66348Z" fill="url(#paint4_linear_290_6553)"/>
<path fill-rule="evenodd" clip-rule="evenodd" d="M27.4428 8.16858C27.4428 8.16858 20.5832 4.09176 19.7973 4.52304C19.0115 4.95432 18.5959 6.88789 18.6561 7.50021C18.7164 8.11253 26.3543 9.46941 26.8383 9.24452C27.3222 9.01963 27.4428 8.16858 27.4428 8.16858Z" fill="url(#paint5_linear_290_6553)"/>
<path fill-rule="evenodd" clip-rule="evenodd" d="M33.1279 8.17265C33.1279 8.17265 39.9877 4.09132 40.7736 4.52301C41.5593 4.95484 41.9749 6.8906 41.9148 7.50346C41.8545 8.11646 34.2166 9.47499 33.7326 9.24983C33.2486 9.02466 33.1279 8.17265 33.1279 8.17265Z" fill="url(#paint6_linear_290_6553)"/>
<defs>
<linearGradient id="paint0_linear_290_6553" x1="33.0857" y1="26.7479" x2="33.0857" y2="52.2587" gradientUnits="userSpaceOnUse">
<stop stop-color="#CCE6FF"/>
<stop offset="0.36" stop-color="#2684FB"/>
<stop offset="1" stop-color="#D0E4FC"/>
</linearGradient>
<linearGradient id="paint1_linear_290_6553" x1="45.3072" y1="17.3591" x2="45.3072" y2="41.8434" gradientUnits="userSpaceOnUse">
<stop stop-color="#7AD5FE"/>
<stop offset="1" stop-color="#2684FB"/>
</linearGradient>
<linearGradient id="paint2_linear_290_6553" x1="39.774" y1="16.9436" x2="39.774" y2="2.32019" gradientUnits="userSpaceOnUse">
<stop stop-color="#129F00"/>
<stop offset="0.5" stop-color="#3EC827"/>
<stop offset="1" stop-color="#79DF68"/>
</linearGradient>
<linearGradient id="paint3_linear_290_6553" x1="37.7872" y1="14.4503" x2="37.7872" y2="27.8555" gradientUnits="userSpaceOnUse">
<stop stop-color="#1A9900"/>
<stop offset="0.5" stop-color="#55D041"/>
<stop offset="1" stop-color="#79DF68"/>
</linearGradient>
<linearGradient id="paint4_linear_290_6553" x1="29.5961" y1="12.3833" x2="29.5961" y2="8.59665" gradientUnits="userSpaceOnUse">
<stop stop-color="#0BBC00"/>
<stop offset="1" stop-color="#79DF68"/>
</linearGradient>
<linearGradient id="paint5_linear_290_6553" x1="38.1721" y1="3.29017" x2="38.7809" y2="10.5546" gradientUnits="userSpaceOnUse">
<stop stop-color="white" stop-opacity="0.212"/>
<stop offset="1" stop-color="white" stop-opacity="0"/>
</linearGradient>
<linearGradient id="paint6_linear_290_6553" x1="37.9639" y1="2.74919" x2="38.7768" y2="10.5556" gradientUnits="userSpaceOnUse">
<stop stop-color="white" stop-opacity="0.212"/>
<stop offset="1" stop-color="white" stop-opacity="0"/>
</linearGradient>
</defs>
</svg>
