<svg width="64" height="64" viewBox="0 0 64 64" fill="none" xmlns="http://www.w3.org/2000/svg">
<g clip-path="url(#clip0_289_12222)">
<path d="M31.5686 59.1026C46.4087 59.1026 58.4389 46.9867 58.4389 32.0409C58.4389 17.0952 46.4087 4.97925 31.5686 4.97925C16.7285 4.97925 4.69824 17.0952 4.69824 32.0409C4.69824 46.9867 16.7285 59.1026 31.5686 59.1026Z" fill="url(#paint0_radial_289_12222)"/>
<g opacity="0.359">
<path fill-rule="evenodd" clip-rule="evenodd" d="M36.6857 4.83125C36.6753 4.84006 41.9164 4.53703 39.6765 24.6923C37.8646 40.9961 32.5745 59.0143 25.7705 60.1948C28.7028 60.6795 33.2709 56.636 36.5644 48.3659C40.9856 37.2646 42.1834 23.0194 41.7795 14.343C41.5499 9.41202 38.4668 3.33217 36.6857 4.83125Z" fill="#2684FB"/>
<path fill-rule="evenodd" clip-rule="evenodd" d="M40.6087 58.6003C40.6206 58.5927 35.9189 60.2104 28.5876 42.7111C22.0668 27.1459 19.9332 8.63451 25.5214 4.22583C22.6319 5.22494 19.7767 12.2756 20.8019 21.391C22.178 33.6271 27.2226 45.704 31.7921 53.3737C34.3889 57.7327 39.3723 59.3859 40.6087 58.6003Z" fill="#2684FB"/>
<path fill-rule="evenodd" clip-rule="evenodd" d="M58.9527 27.2571C58.9399 27.2524 63.3355 30.3351 40.9464 39.2794C25.9259 45.2801 7.23681 46.9044 3.36082 41.2326C4.14063 44.0837 9.28681 46.3479 18.0648 45.942C29.8477 45.3971 43.6396 40.9533 51.1043 36.7605C57.3996 33.2246 61.4401 28.1623 58.9527 27.2571ZM3.00368 39.0079C3.01643 39.014 0.527928 34.1907 20.2729 27.8098C36.2451 22.6483 55.2805 20.0497 59.2453 25.9797C58.4634 23.0053 52.7687 20.3944 43.6674 20.7695C31.4505 21.2731 17.6573 26.1468 9.73314 30.1861C5.2298 32.4816 0.855713 37.9573 3.00368 39.0079Z" fill="#2684FB"/>
<path fill-rule="evenodd" clip-rule="evenodd" d="M50.0735 53.0971C50.0833 53.0877 40.6864 62.5191 21.1094 45.8073C8.762 35.2671 6.46109 18.9158 10.3072 12.8236C7.89128 14.8361 6.15048 22.6653 9.12021 30.869C13.4061 42.7092 21.2773 50.1412 30.1309 53.8142C41.8685 58.6837 47.4263 55.6239 50.0735 53.0971Z" fill="#2684FB"/>
<path fill-rule="evenodd" clip-rule="evenodd" d="M55.3445 46.1274C55.0815 46.2881 47.7368 47.9489 31.975 36.1472C19.3482 26.6928 14.4066 12.2051 16.454 9.24829C14.8988 10.7009 15.0127 17.6939 19.383 24.5049C25.6713 34.3051 29.8574 37.0005 37.6785 41.8379C44.6233 46.1335 54.2974 48.1134 55.3445 46.1274Z" fill="#2684FB"/>
</g>
<path fill-rule="evenodd" clip-rule="evenodd" d="M22.2969 24.3314C21.4598 24.3314 20.7812 25.0148 20.7812 25.8579C20.7812 26.701 21.4598 27.3844 22.2969 27.3844C23.134 27.3844 23.8126 26.701 23.8126 25.8579C23.8126 25.0148 23.134 24.3314 22.2969 24.3314ZM18.6729 25.8579C18.6729 23.8422 20.2954 22.2081 22.2969 22.2081C24.2984 22.2081 25.9209 23.8422 25.9209 25.8579C25.9209 27.8737 24.2984 29.5078 22.2969 29.5078C20.2954 29.5078 18.6729 27.8737 18.6729 25.8579Z" fill="white"/>
<path d="M22.2964 28.4461C23.7157 28.4461 24.8663 27.2873 24.8663 25.8579C24.8663 24.4285 23.7157 23.2697 22.2964 23.2697C20.8771 23.2697 19.7266 24.4285 19.7266 25.8579C19.7266 27.2873 20.8771 28.4461 22.2964 28.4461Z" fill="#2684FB"/>
<path fill-rule="evenodd" clip-rule="evenodd" d="M41.4219 20.6257C40.5848 20.6257 39.9062 21.3091 39.9062 22.1522C39.9062 22.9953 40.5848 23.6787 41.4219 23.6787C42.259 23.6787 42.9376 22.9953 42.9376 22.1522C42.9376 21.3091 42.259 20.6257 41.4219 20.6257ZM37.7979 22.1522C37.7979 20.1365 39.4204 18.5024 41.4219 18.5024C43.4234 18.5024 45.0459 20.1365 45.0459 22.1522C45.0459 24.168 43.4234 25.8021 41.4219 25.8021C39.4204 25.8021 37.7979 24.168 37.7979 22.1522Z" fill="white"/>
<path d="M41.4214 24.7404C42.8407 24.7404 43.9913 23.5816 43.9913 22.1522C43.9913 20.7228 42.8407 19.564 41.4214 19.564C40.0021 19.564 38.8516 20.7228 38.8516 22.1522C38.8516 23.5816 40.0021 24.7404 41.4214 24.7404Z" fill="#2684FB"/>
<path fill-rule="evenodd" clip-rule="evenodd" d="M9.85646 29.6772C9.01938 29.6772 8.34076 30.3607 8.34076 31.2037C8.34076 32.0468 9.01938 32.7303 9.85646 32.7303C10.6935 32.7303 11.3722 32.0468 11.3722 31.2037C11.3722 30.3607 10.6935 29.6772 9.85646 29.6772ZM6.23242 31.2037C6.23242 29.188 7.85494 27.5539 9.85646 27.5539C11.858 27.5539 13.4805 29.188 13.4805 31.2037C13.4805 33.2195 11.858 34.8536 9.85646 34.8536C7.85494 34.8536 6.23242 33.2195 6.23242 31.2037Z" fill="white"/>
<path d="M9.856 33.7919C11.2753 33.7919 12.4259 32.6331 12.4259 31.2037C12.4259 29.7743 11.2753 28.6155 9.856 28.6155C8.4367 28.6155 7.28613 29.7743 7.28613 31.2037C7.28613 32.6331 8.4367 33.7919 9.856 33.7919Z" fill="#2684FB"/>
<path fill-rule="evenodd" clip-rule="evenodd" d="M17.8613 43.4959C17.0243 43.4959 16.3456 44.1793 16.3456 45.0224C16.3456 45.8655 17.0243 46.5489 17.8613 46.5489C18.6984 46.5489 19.377 45.8655 19.377 45.0224C19.377 44.1793 18.6984 43.4959 17.8613 43.4959ZM14.2373 45.0224C14.2373 43.0067 15.8598 41.3726 17.8613 41.3726C19.8629 41.3726 21.4854 43.0067 21.4854 45.0224C21.4854 47.0381 19.8629 48.6723 17.8613 48.6723C15.8598 48.6723 14.2373 47.0381 14.2373 45.0224Z" fill="white"/>
<path d="M17.8609 47.6106C19.2802 47.6106 20.4308 46.4518 20.4308 45.0224C20.4308 43.593 19.2802 42.4342 17.8609 42.4342C16.4416 42.4342 15.291 43.593 15.291 45.0224C15.291 46.4518 16.4416 47.6106 17.8609 47.6106Z" fill="#2684FB"/>
<path fill-rule="evenodd" clip-rule="evenodd" d="M37.8643 39.5912C37.0272 39.5912 36.3486 40.2747 36.3486 41.1177C36.3486 41.9608 37.0272 42.6443 37.8643 42.6443C38.7014 42.6443 39.38 41.9608 39.38 41.1177C39.38 40.2747 38.7014 39.5912 37.8643 39.5912ZM34.2402 41.1177C34.2402 39.102 35.8628 37.4679 37.8643 37.4679C39.8658 37.4679 41.4883 39.102 41.4883 41.1177C41.4883 43.1335 39.8658 44.7676 37.8643 44.7676C35.8628 44.7676 34.2402 43.1335 34.2402 41.1177Z" fill="white"/>
<path d="M37.8638 43.7059C39.2831 43.7059 40.4337 42.5471 40.4337 41.1177C40.4337 39.6883 39.2831 38.5295 37.8638 38.5295C36.4445 38.5295 35.2939 39.6883 35.2939 41.1177C35.2939 42.5471 36.4445 43.7059 37.8638 43.7059Z" fill="#2684FB"/>
<path fill-rule="evenodd" clip-rule="evenodd" d="M28.0108 41.9209C27.1737 41.9209 26.4951 42.6043 26.4951 43.4474C26.4951 44.2905 27.1737 44.9739 28.0108 44.9739C28.8478 44.9739 29.5265 44.2905 29.5265 43.4474C29.5265 42.6043 28.8478 41.9209 28.0108 41.9209ZM24.3867 43.4474C24.3867 41.4317 26.0092 39.7975 28.0108 39.7975C30.0123 39.7975 31.6348 41.4317 31.6348 43.4474C31.6348 45.4631 30.0123 47.0972 28.0108 47.0972C26.0092 47.0972 24.3867 45.4631 24.3867 43.4474Z" fill="white"/>
<path d="M28.0103 46.0356C29.4296 46.0356 30.5802 44.8768 30.5802 43.4474C30.5802 42.018 29.4296 40.8592 28.0103 40.8592C26.591 40.8592 25.4404 42.018 25.4404 43.4474C25.4404 44.8768 26.591 46.0356 28.0103 46.0356Z" fill="#2684FB"/>
<path fill-rule="evenodd" clip-rule="evenodd" d="M33.2227 52.8405C32.3856 52.8405 31.707 53.5239 31.707 54.367C31.707 55.2101 32.3856 55.8935 33.2227 55.8935C34.0598 55.8935 34.7384 55.2101 34.7384 54.367C34.7384 53.5239 34.0598 52.8405 33.2227 52.8405ZM29.5986 54.367C29.5986 52.3513 31.2212 50.7172 33.2227 50.7172C35.2242 50.7172 36.8467 52.3513 36.8467 54.367C36.8467 56.3828 35.2242 58.0169 33.2227 58.0169C31.2212 58.0169 29.5986 56.3828 29.5986 54.367Z" fill="white"/>
<path d="M33.2222 56.9552C34.6415 56.9552 35.7921 55.7964 35.7921 54.367C35.7921 52.9376 34.6415 51.7788 33.2222 51.7788C31.8029 51.7788 30.6523 52.9376 30.6523 54.367C30.6523 55.7964 31.8029 56.9552 33.2222 56.9552Z" fill="#2684FB"/>
</g>
<defs>
<radialGradient id="paint0_radial_289_12222" cx="0" cy="0" r="1" gradientUnits="userSpaceOnUse" gradientTransform="translate(33.4094 31.2574) scale(34.7879 35.0356)">
<stop stop-color="#F7FBFF"/>
<stop offset="0.5" stop-color="#D9EBFF"/>
<stop offset="0.74" stop-color="#A3D3FF"/>
<stop offset="1" stop-color="#2684FB"/>
</radialGradient>
<clipPath id="clip0_289_12222">
<rect width="64" height="64" fill="white"/>
</clipPath>
</defs>
</svg>
