<svg width="64" height="64" viewBox="0 0 64 64" fill="none" xmlns="http://www.w3.org/2000/svg">
<path d="M59.9 41.36L51.9 17.36C51.7658 16.9628 51.5102 16.6177 51.1693 16.3737C50.8283 16.1296 50.4193 15.9989 50 16H34V6C34 5.46957 33.7893 4.96086 33.4142 4.58579C33.0391 4.21071 32.5304 4 32 4C31.4696 4 30.9609 4.21071 30.5858 4.58579C30.2107 4.96086 30 5.46957 30 6V16H14C13.5807 15.9989 13.1717 16.1296 12.8307 16.3737C12.4898 16.6177 12.2342 16.9628 12.1 17.36L4.1 41.36C4.09249 41.4599 4.09249 41.5601 4.1 41.66C4.05667 41.7701 4.02321 41.8839 4 42V58C4 58.5304 4.21071 59.0391 4.58579 59.4142C4.96086 59.7893 5.46957 60 6 60H58C58.5304 60 59.0391 59.7893 59.4142 59.4142C59.7893 59.0391 60 58.5304 60 58V42C60.0091 41.8935 60.0091 41.7865 60 41.68C59.9763 41.5706 59.9428 41.4635 59.9 41.36ZM15.44 20H30V34L25.2 30.4C24.9899 30.2424 24.7508 30.1278 24.4964 30.0626C24.2419 29.9974 23.9772 29.983 23.7172 30.0201C23.4572 30.0572 23.207 30.1452 22.981 30.2791C22.755 30.4129 22.5576 30.5899 22.4 30.8C22.2424 31.0101 22.1278 31.2492 22.0626 31.5036C21.9974 31.7581 21.983 32.0228 22.0201 32.2828C22.0572 32.5428 22.1452 32.793 22.2791 33.019C22.4129 33.245 22.5899 33.4424 22.8 33.6L30.8 39.6L31.02 39.72H31.16H31.28C31.4995 39.8592 31.7441 39.9543 32 40C32.2398 39.9957 32.477 39.9483 32.7 39.86H32.82H32.96L33.18 39.74L41.18 33.74C41.6043 33.4217 41.8849 32.9479 41.9599 32.4228C42.0349 31.8977 41.8983 31.3643 41.58 30.94C41.2617 30.5157 40.7879 30.2351 40.2628 30.1601C39.7377 30.0851 39.2043 30.2217 38.78 30.54L34 34V20H48.56L55.22 40H42C41.4696 40 40.9609 40.2107 40.5858 40.5858C40.2107 40.9609 40 41.4696 40 42V48H24V42C24 41.4696 23.7893 40.9609 23.4142 40.5858C23.0391 40.2107 22.5304 40 22 40H8.78L15.44 20ZM56 56H8V44H20V50C20 50.5304 20.2107 51.0391 20.5858 51.4142C20.9609 51.7893 21.4696 52 22 52H42C42.5304 52 43.0391 51.7893 43.4142 51.4142C43.7893 51.0391 44 50.5304 44 50V44H56V56Z" fill="#4DAEEB"/>
</svg>
