<svg width="64" height="64" viewBox="0 0 64 64" fill="none" xmlns="http://www.w3.org/2000/svg">
<path d="M30.3216 55.3872C43.0497 55.3872 53.3678 52.982 53.3678 50.015C53.3678 47.0479 43.0497 44.6427 30.3216 44.6427C17.5935 44.6427 7.27539 47.0479 7.27539 50.015C7.27539 52.982 17.5935 55.3872 30.3216 55.3872Z" fill="#2F94FB" fill-opacity="0.329"/>
<path fill-rule="evenodd" clip-rule="evenodd" d="M54.9251 46.9784H54.9004L54.9251 47.212C54.9251 50.4369 48.3045 53.83 30.3996 53.83C13.7434 53.83 5.87402 50.4369 5.87402 47.212L5.89894 46.9784H5.87402V37.6354H54.9251V46.9784Z" fill="url(#paint0_linear_289_12152)"/>
<path fill-rule="evenodd" clip-rule="evenodd" d="M30.3996 31.7181C43.9447 31.7181 54.9251 34.3325 54.9251 37.5576C54.9251 40.7825 48.493 44.1756 30.3996 44.1756C12.0532 44.1756 5.87402 40.7825 5.87402 37.5576C5.87402 34.3325 16.8546 31.7181 30.3996 31.7181Z" fill="#F0F7FF"/>
<path d="M30.3216 43.0855C43.0497 43.0855 53.3678 40.6454 53.3678 37.6354C53.3678 34.6254 43.0497 32.1853 30.3216 32.1853C17.5935 32.1853 7.27539 34.6254 7.27539 37.6354C7.27539 40.6454 17.5935 43.0855 30.3216 43.0855Z" fill="#91D4FF"/>
<path d="M30.3216 41.5283C43.0497 41.5283 53.3678 39.0882 53.3678 36.0782C53.3678 33.0682 43.0497 30.6281 30.3216 30.6281C17.5935 30.6281 7.27539 33.0682 7.27539 36.0782C7.27539 39.0882 17.5935 41.5283 30.3216 41.5283Z" fill="#2F94FB" fill-opacity="0.988"/>
<path fill-rule="evenodd" clip-rule="evenodd" d="M54.9251 33.2753H54.9004L54.9251 33.5089C54.9251 36.7338 48.3045 40.1269 30.3996 40.1269C13.7434 40.1269 5.87402 36.7338 5.87402 33.5089L5.89894 33.2753H5.87402V23.9323H54.9251V33.2753Z" fill="url(#paint1_linear_289_12152)"/>
<path fill-rule="evenodd" clip-rule="evenodd" d="M30.3996 18.1707C43.9447 18.1707 54.9251 20.785 54.9251 24.0101C54.9251 27.235 48.493 30.6281 30.3996 30.6281C12.0532 30.6281 5.87402 27.235 5.87402 24.0101C5.87402 20.785 16.8546 18.1707 30.3996 18.1707Z" fill="#F0F7FF"/>
<path d="M30.3216 29.3824C43.0497 29.3824 53.3678 26.9423 53.3678 23.9323C53.3678 20.9223 43.0497 18.4822 30.3216 18.4822C17.5935 18.4822 7.27539 20.9223 7.27539 23.9323C7.27539 26.9423 17.5935 29.3824 30.3216 29.3824Z" fill="url(#paint2_radial_289_12152)"/>
<path d="M30.3216 27.358C43.0497 27.358 53.3678 24.9179 53.3678 21.9079C53.3678 18.8979 43.0497 16.4578 30.3216 16.4578C17.5935 16.4578 7.27539 18.8979 7.27539 21.9079C7.27539 24.9179 17.5935 27.358 30.3216 27.358Z" fill="#2F94FB" fill-opacity="0.812"/>
<path fill-rule="evenodd" clip-rule="evenodd" d="M54.9251 19.105H54.9004L54.9251 19.3386C54.9251 22.5635 48.3045 25.9566 30.3996 25.9566C13.7434 25.9566 5.87402 22.5635 5.87402 19.3386L5.89894 19.105H5.87402V9.76196H54.9251V19.105Z" fill="url(#paint3_linear_289_12152)"/>
<path fill-rule="evenodd" clip-rule="evenodd" d="M30.3996 4.00037C43.9447 4.00037 54.9251 6.61471 54.9251 9.83978C54.9251 13.0647 48.493 16.4578 30.3996 16.4578C12.0532 16.4578 5.87402 13.0647 5.87402 9.83978C5.87402 6.61471 16.8546 4.00037 30.3996 4.00037Z" fill="#F0F7FF"/>
<path d="M30.3219 14.5892C42.534 14.5892 52.4338 12.428 52.4338 9.76194C52.4338 7.09593 42.534 4.93469 30.3219 4.93469C18.1098 4.93469 8.20996 7.09593 8.20996 9.76194C8.20996 12.428 18.1098 14.5892 30.3219 14.5892Z" fill="url(#paint4_linear_289_12152)"/>
<path d="M47.1391 57.5672C52.9012 57.5672 57.5722 52.8962 57.5722 47.1341C57.5722 41.3721 52.9012 36.701 47.1391 36.701C41.3771 36.701 36.7061 41.3721 36.7061 47.1341C36.7061 52.8962 41.3771 57.5672 47.1391 57.5672Z" fill="url(#paint5_radial_289_12152)"/>
<path fill-rule="evenodd" clip-rule="evenodd" d="M47.1393 33.8982C54.4445 33.8982 60.3753 39.829 60.3753 47.1342C60.3753 54.4394 54.4445 60.3702 47.1393 60.3702C39.8343 60.3702 33.9033 54.4394 33.9033 47.1342C33.9033 39.829 39.8343 33.8982 47.1393 33.8982ZM47.1393 36.8568C52.8117 36.8568 57.4167 41.4619 57.4167 47.1342C57.4167 52.8064 52.8117 57.4116 47.1393 57.4116C41.4672 57.4116 36.862 52.8064 36.862 47.1342C36.862 41.4619 41.4672 36.8568 47.1393 36.8568Z" fill="url(#paint6_linear_289_12152)"/>
<path d="M47.2576 35.0398C47.6128 35.0917 47.6165 35.2504 47.6329 35.4134C47.6869 35.9508 46.6873 35.8578 45.9088 35.9472C42.2657 36.3661 38.9136 38.6583 37.178 41.9355C37.178 41.9355 37.0722 42.1125 36.8922 42.1491C36.5489 42.2187 36.2653 41.8676 36.5124 41.4101C38.5961 37.5959 42.748 35.0666 47.1629 35.0381C47.1629 35.0381 47.2098 35.0377 47.2576 35.0398ZM35.5246 46.0301C35.6062 46.0405 35.6191 46.0485 35.6535 46.0636C36.0102 46.2205 35.8713 46.8364 35.8796 47.385C35.8964 48.5241 36.0864 49.6572 36.4382 50.7415C36.4382 50.7415 36.4741 51.1579 36.1828 51.2628C35.6764 51.4453 35.4651 50.531 35.283 49.6258C35.0742 48.5876 35.0032 47.5159 35.066 46.4681C35.0722 46.3652 35.1535 46.0293 35.4978 46.0285C35.5067 46.029 35.5157 46.0296 35.5246 46.0301Z" fill="white"/>
<path d="M54.8251 51.0682C53.2445 54.0376 50.0951 56.0621 46.4678 56.0621M55.4418 43.814C55.7443 44.7288 55.9079 45.7058 55.9079 46.7206C55.9079 46.9252 55.9012 47.1283 55.8881 47.3296" stroke="#CCE6FF" stroke-width="5.36" stroke-miterlimit="10" stroke-linecap="round"/>
<path fill-rule="evenodd" clip-rule="evenodd" d="M47.9183 39.6597C47.9183 39.058 47.43 38.5697 46.8283 38.5697C46.2268 38.5697 45.7383 39.058 45.7383 39.6597V47.757C45.7383 48.3586 46.2268 48.8471 46.8283 48.8471C47.43 48.8471 47.9183 48.3586 47.9183 47.757V39.6597Z" fill="#17BC00"/>
<path fill-rule="evenodd" clip-rule="evenodd" d="M53.057 47.757C53.057 47.1553 52.5687 46.667 51.967 46.667H46.8283C46.2268 46.667 45.7383 47.1553 45.7383 47.757C45.7383 48.3586 46.2268 48.847 46.8283 48.847H51.967C52.5687 48.847 53.057 48.3586 53.057 47.757Z" fill="#0BBC00"/>
<defs>
<linearGradient id="paint0_linear_289_12152" x1="6.154" y1="44.3387" x2="54.8697" y2="44.3387" gradientUnits="userSpaceOnUse">
<stop stop-color="#98D7FF"/>
<stop offset="0.11" stop-color="#D2E9FF"/>
<stop offset="0.37" stop-color="#E8F4FF"/>
<stop offset="0.44" stop-color="#D4E9FF"/>
<stop offset="0.68" stop-color="#CCE6FF"/>
<stop offset="0.84" stop-color="#A5D5FF"/>
<stop offset="1" stop-color="#4CB9FF"/>
</linearGradient>
<linearGradient id="paint1_linear_289_12152" x1="6.154" y1="30.6356" x2="54.8697" y2="30.6356" gradientUnits="userSpaceOnUse">
<stop stop-color="#98D7FF"/>
<stop offset="0.11" stop-color="#D2E9FF"/>
<stop offset="0.37" stop-color="#E8F4FF"/>
<stop offset="0.44" stop-color="#D4E9FF"/>
<stop offset="0.68" stop-color="#CCE6FF"/>
<stop offset="0.84" stop-color="#A5D5FF"/>
<stop offset="1" stop-color="#4CB9FF"/>
</linearGradient>
<radialGradient id="paint2_radial_289_12152" cx="0" cy="0" r="1" gradientUnits="userSpaceOnUse" gradientTransform="translate(28.1557 34.9263) scale(44.7084 44.7084)">
<stop stop-color="#97D7FF" stop-opacity="0.988"/>
<stop offset="0.47" stop-color="#6EC6FF" stop-opacity="0.988"/>
<stop offset="1" stop-color="#0097FF" stop-opacity="0.988"/>
</radialGradient>
<linearGradient id="paint3_linear_289_12152" x1="6.154" y1="16.4653" x2="54.8697" y2="16.4653" gradientUnits="userSpaceOnUse">
<stop stop-color="#98D7FF"/>
<stop offset="0.11" stop-color="#D2E9FF"/>
<stop offset="0.37" stop-color="#E8F4FF"/>
<stop offset="0.44" stop-color="#D4E9FF"/>
<stop offset="0.68" stop-color="#CCE6FF"/>
<stop offset="0.84" stop-color="#A5D5FF"/>
<stop offset="1" stop-color="#4CB9FF"/>
</linearGradient>
<linearGradient id="paint4_linear_289_12152" x1="32.683" y1="5.40309" x2="32.683" y2="14.4645" gradientUnits="userSpaceOnUse">
<stop stop-color="#CAE5FF"/>
<stop offset="1" stop-color="#AADDFF"/>
</linearGradient>
<radialGradient id="paint5_radial_289_12152" cx="0" cy="0" r="1" gradientUnits="userSpaceOnUse" gradientTransform="translate(47.1926 46.8215) scale(12.3535 12.3535)">
<stop stop-color="white"/>
<stop offset="0.55" stop-color="#F5F9FE"/>
<stop offset="1" stop-color="#D0E4FC"/>
</radialGradient>
<linearGradient id="paint6_linear_289_12152" x1="58.0872" y1="49.4035" x2="58.0872" y2="67.103" gradientUnits="userSpaceOnUse">
<stop stop-color="#2684FB"/>
<stop offset="1" stop-color="#0563C5"/>
</linearGradient>
</defs>
</svg>
