<svg width="64" height="64" viewBox="0 0 64 64" fill="none" xmlns="http://www.w3.org/2000/svg">
<g clip-path="url(#clip0_198_3587)">
<path d="M64 37.9999C63.997 35.559 63.3037 33.1686 62 31.1049V23.56C61.9931 17.3137 59.5088 11.3252 55.092 6.90836C50.6752 2.49151 44.6868 0.00702478 38.4405 0H25.5596C19.3133 0.00702477 13.3248 2.4915 8.90807 6.90836C4.4913 11.3252 2.00694 17.3137 2.00003 23.56V31.1049C0.992525 32.7002 0.345924 34.4964 0.105513 36.3677C-0.134897 38.2391 0.0366945 40.1404 0.608273 41.9385C1.17985 43.7366 2.1376 45.388 3.41444 46.7771C4.69128 48.1661 6.25634 49.2593 8.00003 49.9799V50.9999C8.00159 52.3255 8.52887 53.5964 9.46622 54.5338C10.4036 55.4711 11.6744 55.9984 13 55.9999H15C16.3256 55.9984 17.5965 55.4711 18.5338 54.5338C19.4712 53.5964 19.9985 52.3255 20 50.9999V24.9999C19.9985 23.6743 19.4712 22.4035 18.5338 21.4661C17.5965 20.5288 16.3256 20.0015 15 19.9999H13C11.6744 20.0015 10.4036 20.5288 9.46622 21.4661C8.52887 22.4035 8.00159 23.6743 8.00003 24.9999V26.0199C7.30391 26.3108 6.63467 26.6623 6.00003 27.0703V23.56C6.00738 18.9876 7.61471 14.5619 10.5433 11.0505C13.4719 7.53906 17.5371 5.16328 22.0338 4.33514C22.1122 4.80016 22.3526 5.22245 22.7124 5.52717C23.0723 5.8319 23.5285 5.9994 24 5.99999H40C40.4716 5.9994 40.9277 5.8319 41.2876 5.52717C41.6475 5.22245 41.8879 4.80016 41.9662 4.33514C46.463 5.16328 50.5282 7.53907 53.4568 11.0505C56.3854 14.562 57.9927 18.9876 58 23.56V27.0703C57.3654 26.6623 56.6962 26.3109 56 26.0199V24.9999C55.9985 23.6743 55.4712 22.4035 54.5338 21.4661C53.5965 20.5288 52.3256 20.0015 51 19.9999H49C47.6744 20.0015 46.4036 20.5288 45.4662 21.4661C44.5289 22.4035 44.0016 23.6743 44 24.9999V50.9999C44.0003 51.8181 44.2014 52.6237 44.5857 53.346C44.9699 54.0683 45.5256 54.6852 46.2039 55.1427C44.8234 56.6653 43.1409 57.8836 41.2635 58.7198C39.3861 59.5561 37.3551 59.9921 35.2998 59.9999H32C31.4696 59.9999 30.9609 60.2106 30.5858 60.5857C30.2107 60.9607 30 61.4694 30 61.9999C30 62.5303 30.2107 63.039 30.5858 63.4141C30.9609 63.7892 31.4696 63.9999 32 63.9999H35.2998C38.3082 63.9887 41.2701 63.2564 43.9371 61.8645C46.6041 60.4725 48.8985 58.4614 50.628 55.9999C51.314 56.0457 52.0021 55.9506 52.65 55.7204C53.2979 55.4902 53.8917 55.1298 54.395 54.6614C54.8983 54.193 55.3004 53.6265 55.5764 52.9967C55.8524 52.367 55.9966 51.6875 56 50.9999V49.9799C58.3627 48.9895 60.3813 47.3251 61.804 45.1946C63.2267 43.0641 63.9905 40.5618 64 37.9999ZM12 24.9999C12.0003 24.7348 12.1057 24.4806 12.2932 24.2931C12.4807 24.1056 12.7349 24.0002 13 23.9999H15C15.2652 24.0002 15.5194 24.1056 15.7068 24.2931C15.8943 24.4806 15.9998 24.7348 16 24.9999V50.9999C15.9998 51.2651 15.8943 51.5193 15.7068 51.7068C15.5194 51.8942 15.2652 51.9997 15 51.9999H13C12.7349 51.9997 12.4807 51.8942 12.2932 51.7068C12.1057 51.5193 12.0003 51.2651 12 50.9999V24.9999ZM8.00003 30.5278V45.4721C7.00153 44.8083 6.14639 43.9508 5.48527 42.9506C4.82416 41.9503 4.37051 40.8275 4.1512 39.6487C3.93189 38.4699 3.95138 37.2591 4.20852 36.088C4.46565 34.9168 4.9552 33.8092 5.64816 32.8307L5.66684 32.8027C6.30076 31.9097 7.09126 31.1389 8.00003 30.5278ZM52 50.9999C51.9998 51.2651 51.8943 51.5193 51.7068 51.7068C51.5194 51.8942 51.2652 51.9997 51 51.9999H49C48.7349 51.9997 48.4807 51.8942 48.2932 51.7068C48.1057 51.5193 48.0003 51.2651 48 50.9999V24.9999C48.0003 24.7348 48.1057 24.4806 48.2932 24.2931C48.4807 24.1056 48.7349 24.0002 49 23.9999H51C51.2652 24.0002 51.5194 24.1056 51.7068 24.2931C51.8943 24.4806 51.9998 24.7348 52 24.9999V50.9999ZM56 45.4721V30.5278C56.9088 31.1389 57.6993 31.9097 58.3332 32.8028L58.3519 32.8308C59.0449 33.8093 59.5344 34.9169 59.7915 36.088C60.0487 37.2591 60.0682 38.4699 59.8489 39.6487C59.6295 40.8275 59.1759 41.9503 58.5148 42.9506C57.8537 43.9508 56.9985 44.8083 56 45.4721Z" fill="#4DAEEB"/>
<path d="M35 31V33C34.9997 33.2651 34.8943 33.5193 34.7068 33.7068C34.5193 33.8943 34.2651 33.9997 34 34H32C31.4696 34 30.9609 34.2107 30.5858 34.5858C30.2107 34.9609 30 35.4696 30 36V38C30 38.5304 30.2107 39.0391 30.5858 39.4142C30.9609 39.7893 31.4696 40 32 40C32.5304 40 33.0391 39.7893 33.4142 39.4142C33.7893 39.0391 34 38.5304 34 38C35.3256 37.9984 36.5965 37.4712 37.5338 36.5338C38.4712 35.5965 38.9984 34.3256 39 33V31C38.9984 29.6744 38.4712 28.4035 37.5338 27.4662C36.5965 26.5288 35.3256 26.0016 34 26H29C28.4696 26 27.9609 26.2107 27.5858 26.5858C27.2107 26.9609 27 27.4696 27 28C27 28.5304 27.2107 29.0391 27.5858 29.4142C27.9609 29.7893 28.4696 30 29 30H34C34.2651 30.0003 34.5193 30.1057 34.7068 30.2932C34.8943 30.4807 34.9997 30.7349 35 31Z" fill="#4DAEEB"/>
<path d="M32 46C33.1046 46 34 45.1046 34 44C34 42.8954 33.1046 42 32 42C30.8954 42 30 42.8954 30 44C30 45.1046 30.8954 46 32 46Z" fill="#4DAEEB"/>
</g>
<defs>
<clipPath id="clip0_198_3587">
<rect width="64" height="64" fill="white"/>
</clipPath>
</defs>
</svg>
