<svg width="64" height="64" viewBox="0 0 64 64" fill="none" xmlns="http://www.w3.org/2000/svg">
<path fill-rule="evenodd" clip-rule="evenodd" d="M61.6376 12.2285C61.6376 10.767 60.4511 9.58044 58.9896 9.58044H8.05134C6.58987 9.58044 5.40332 10.767 5.40332 12.2285V44.1247C5.40332 45.5861 6.58987 46.7727 8.05134 46.7727H58.9896C60.4511 46.7727 61.6376 45.5861 61.6376 44.1247V12.2285Z" fill="#CCE6FF" fill-opacity="0.259"/>
<path fill-rule="evenodd" clip-rule="evenodd" d="M59.9542 10.1339C59.9542 8.67239 58.7676 7.48584 57.3062 7.48584H6.36775C4.90628 7.48584 3.71973 8.67239 3.71973 10.1339V42.03C3.71973 43.4915 4.90628 44.6781 6.36775 44.6781H57.3062C58.7676 44.6781 59.9542 43.4915 59.9542 42.03V10.1339Z" fill="url(#paint0_linear_289_12113)"/>
<path fill-rule="evenodd" clip-rule="evenodd" d="M57.0109 11.9464C57.0109 10.8747 56.1409 10.0045 55.0692 10.0045H8.21989C7.44038 10.0045 6.80762 10.6374 6.80762 11.4168V37.9636H57.0109V11.9464Z" fill="url(#paint1_linear_289_12113)"/>
<path fill-rule="evenodd" clip-rule="evenodd" d="M36.1212 41.1492C36.1211 40.8683 36.0095 40.599 35.8109 40.4003C35.6123 40.2017 35.3429 40.0901 35.062 40.09H28.8776C28.5967 40.0901 28.3273 40.2017 28.1287 40.4003C27.9301 40.5989 27.8184 40.8683 27.8184 41.1492V41.4608C27.8184 41.7417 27.9301 42.011 28.1287 42.2097C28.3273 42.4083 28.5967 42.5199 28.8776 42.52H35.062C35.3429 42.5199 35.6123 42.4083 35.8109 42.2097C36.0095 42.011 36.1212 41.7417 36.1212 41.4608V41.1492Z" fill="#E5F1FF"/>
<path fill-rule="evenodd" clip-rule="evenodd" d="M44.8476 28.3881L44.8173 28.3888C42.4755 28.3888 40.5742 26.4875 40.5742 24.1458V20.6398C40.5742 18.298 42.4755 16.3967 44.8173 16.3967C47.1591 16.3967 49.0604 18.298 49.0604 20.6398V24.1458C49.0604 26.4569 47.2087 28.3389 44.9081 28.3866C46.158 28.3642 47.1656 27.3419 47.1656 26.0859V20.7716C47.1656 19.5005 46.1337 18.4686 44.8627 18.4686C43.5916 18.4686 42.5597 19.5005 42.5597 20.7716V26.0859C42.5597 27.3521 43.5839 28.381 44.8476 28.3881Z" fill="url(#paint2_linear_289_12113)"/>
<path fill-rule="evenodd" clip-rule="evenodd" d="M50.3263 23.8413C50.3263 22.867 49.5354 22.0759 48.5609 22.0759H40.9851C40.0108 22.0759 39.2197 22.867 39.2197 23.8413V29.4195C39.2197 30.3938 40.0108 31.1848 40.9851 31.1848H48.5609C49.5354 31.1848 50.3263 30.3938 50.3263 29.4195V23.8413Z" fill="url(#paint3_linear_289_12113)"/>
<path fill-rule="evenodd" clip-rule="evenodd" d="M44.0769 26.9473C43.6077 26.7397 43.2812 26.2789 43.2812 25.7441C43.2812 25.0148 43.8887 24.4229 44.6369 24.4229C45.385 24.4229 45.9924 25.0148 45.9924 25.7441C45.9924 26.3103 45.6265 26.7936 45.1132 26.9814V27.8706C45.1108 28.0065 45.0551 28.1359 44.9582 28.2311C44.8613 28.3263 44.7309 28.3796 44.5951 28.3796C44.4592 28.3796 44.3288 28.3263 44.2319 28.2311C44.135 28.1359 44.0793 28.0065 44.0769 27.8706V26.9473Z" fill="white"/>
<path d="M19.9038 26.3854C19.9038 23.2109 15.0207 24.1161 15.0207 22.7647C15.0207 22.2547 15.4542 21.9105 16.2319 21.9105C16.8566 21.9105 17.5197 22.0635 18.106 22.3949C18.259 22.4842 18.412 22.5224 18.565 22.5224C18.9986 22.5224 19.4703 22.191 19.4703 21.7065C19.4703 21.5535 19.4193 21.4005 19.3172 21.273C18.8456 20.6483 17.3666 20.3296 16.3978 20.3296C14.396 20.3296 13.1721 21.5025 13.1721 22.9177C13.1721 26.1177 18.0679 25.085 18.0679 26.5894C18.0679 27.0739 17.5833 27.533 16.5889 27.533C15.8283 27.5338 15.0855 27.3025 14.4598 26.8699C14.3195 26.7679 14.1411 26.7298 13.9753 26.7298C13.5418 26.7298 13.1211 27.0866 13.1211 27.5711C13.1211 27.7241 13.1721 27.8771 13.2614 28.0047C13.7331 28.7059 15.263 29.1139 16.4996 29.1139C18.7946 29.1139 19.9038 27.9408 19.9038 26.3854ZM27.5533 26.3854C27.5533 23.2109 22.6703 24.1161 22.6703 22.7647C22.6703 22.2547 23.1038 21.9105 23.8815 21.9105C24.5062 21.9105 25.1692 22.0635 25.7556 22.3949C25.9086 22.4842 26.0616 22.5224 26.2146 22.5224C26.6481 22.5224 27.1198 22.191 27.1198 21.7065C27.1198 21.5535 27.0688 21.4005 26.9668 21.273C26.4951 20.6483 25.0162 20.3296 24.0473 20.3296C22.0456 20.3296 20.8217 21.5025 20.8217 22.9177C20.8217 26.1177 25.7174 25.085 25.7174 26.5894C25.7174 27.0739 25.2329 27.533 24.2385 27.533C23.4779 27.5338 22.7351 27.3025 22.1094 26.8699C21.9691 26.7679 21.7907 26.7298 21.6249 26.7298C21.1913 26.7298 20.7707 27.0866 20.7707 27.5711C20.7707 27.7241 20.8217 27.8771 20.911 28.0047C21.3827 28.7059 22.9126 29.1139 24.1493 29.1139C26.4441 29.1139 27.5533 27.9408 27.5533 26.3854ZM34.2594 28.1448C34.2594 27.7241 33.9025 27.3671 33.4817 27.3671H30.5877V21.273C30.5877 20.7886 30.1796 20.3806 29.6951 20.3806C29.1853 20.3806 28.7772 20.7886 28.7772 21.273V27.9408C28.7772 28.5018 29.2363 28.9609 29.7971 28.9609H33.4817C33.9025 28.9609 34.2594 28.6039 34.2594 28.1448Z" fill="#0085FF"/>
<path fill-rule="evenodd" clip-rule="evenodd" d="M25.7929 44.545H37.741V51.0579C37.741 51.0579 37.7196 53.0486 40.9811 54.5179C39.4797 54.8589 29.6404 54.5179 29.6404 54.5179V54.468C29.523 54.4751 24.0382 54.8038 22.5527 54.468C25.8143 53.0062 25.7929 51.0253 25.7929 51.0253V44.545Z" fill="url(#paint4_linear_289_12113)"/>
<path fill-rule="evenodd" clip-rule="evenodd" d="M41.184 55.1845C41.1839 54.8334 41.0443 54.4967 40.7961 54.2485C40.5478 54.0002 40.211 53.8607 39.8599 53.8606H23.6745C23.3234 53.8607 22.9868 54.0003 22.7385 54.2485C22.4902 54.4968 22.3507 54.8334 22.3506 55.1845V55.5741C22.3507 55.9252 22.4902 56.2619 22.7385 56.5102C22.9867 56.7585 23.3234 56.898 23.6745 56.8982H39.8599C40.2111 56.898 40.5477 56.7585 40.796 56.5102C41.0443 56.2619 41.1839 55.9252 41.184 55.5741V55.1845Z" fill="#CCE6FF"/>
<defs>
<linearGradient id="paint0_linear_289_12113" x1="58.7426" y1="28.6111" x2="58.7426" y2="56.8848" gradientUnits="userSpaceOnUse">
<stop stop-color="#CCE6FF"/>
<stop offset="1" stop-color="#1D98FF"/>
</linearGradient>
<linearGradient id="paint1_linear_289_12113" x1="30.0329" y1="26.2645" x2="30.0329" y2="65.7357" gradientUnits="userSpaceOnUse">
<stop stop-color="white"/>
<stop offset="1" stop-color="#D0E4FC"/>
</linearGradient>
<linearGradient id="paint2_linear_289_12113" x1="45.3878" y1="21.1314" x2="44.2528" y2="14.706" gradientUnits="userSpaceOnUse">
<stop stop-color="#0BBC00"/>
<stop offset="1" stop-color="#79DF68"/>
</linearGradient>
<linearGradient id="paint3_linear_289_12113" x1="48.3437" y1="30.0265" x2="45.9911" y2="19.7805" gradientUnits="userSpaceOnUse">
<stop stop-color="#0BBC00"/>
<stop offset="1" stop-color="#79DF68"/>
</linearGradient>
<linearGradient id="paint4_linear_289_12113" x1="34.9837" y1="58.4924" x2="34.9837" y2="43.2076" gradientUnits="userSpaceOnUse">
<stop stop-color="#CCE6FF"/>
<stop offset="1" stop-color="#1D98FF"/>
</linearGradient>
</defs>
</svg>
