<svg width="64" height="64" viewBox="0 0 64 64" fill="none" xmlns="http://www.w3.org/2000/svg">
<g clip-path="url(#clip0_198_3591)">
<path d="M43.9898 61.8701H20.0298C18.0298 61.8701 16.3998 60.2401 16.3998 58.2401V54.2101C16.3998 52.2101 18.0298 50.5801 20.0298 50.5801H43.9898C45.9898 50.5801 47.6198 52.2101 47.6198 54.2101V58.2401C47.6098 60.2501 45.9798 61.8701 43.9898 61.8701ZM20.1698 58.1101H43.8498V54.3601H20.1698V58.1101ZM12.9398 16.9001C10.5398 16.9001 8.58984 14.9501 8.58984 12.5401C8.58984 10.1401 10.5398 8.18005 12.9398 8.18005C15.3398 8.18005 17.2998 10.1301 17.2998 12.5401C17.2998 14.9501 15.3498 16.9001 12.9398 16.9001ZM12.9398 11.9601C12.7893 11.9688 12.6478 12.0348 12.5443 12.1445C12.4408 12.2542 12.3832 12.3993 12.3832 12.5501C12.3832 12.7008 12.4408 12.8459 12.5443 12.9556C12.6478 13.0653 12.7893 13.1313 12.9398 13.1401C13.0904 13.1313 13.2319 13.0653 13.3354 12.9556C13.4388 12.8459 13.4965 12.7008 13.4965 12.5501C13.4965 12.3993 13.4388 12.2542 13.3354 12.1445C13.2319 12.0348 13.0904 11.9688 12.9398 11.9601ZM12.9398 41.0001C10.5398 41.0001 8.58984 39.0501 8.58984 36.6401C8.58984 34.2401 10.5398 32.2801 12.9398 32.2801C15.3398 32.2801 17.2998 34.2301 17.2998 36.6401C17.2998 39.0401 15.3498 41.0001 12.9398 41.0001ZM12.9398 36.0501C12.8622 36.0502 12.7854 36.0656 12.7138 36.0954C12.6421 36.1252 12.577 36.1689 12.5222 36.2239C12.4675 36.2788 12.424 36.3441 12.3944 36.4158C12.3649 36.4876 12.3497 36.5644 12.3498 36.6421C12.35 36.7197 12.3654 36.7965 12.3952 36.8681C12.425 36.9398 12.4687 37.0049 12.5237 37.0597C12.5786 37.1144 12.6438 37.1579 12.7156 37.1875C12.7874 37.217 12.8642 37.2322 12.9418 37.2321C13.0986 37.2318 13.2488 37.1693 13.3595 37.0582C13.4701 36.9472 13.5321 36.7968 13.5318 36.6401C13.5316 36.4833 13.4691 36.3331 13.358 36.2224C13.247 36.1118 13.0966 36.0498 12.9398 36.0501Z" fill="#4DAEEB"/>
<path d="M59.29 22.98H4.71C2.11 22.98 0 20.87 0 18.27V6.83C0 4.24 2.11 2.12 4.71 2.12H59.3C61.89 2.12 64.01 4.23 64.01 6.83V18.27C64.0055 19.5195 63.5065 20.7164 62.622 21.599C61.7375 22.4816 60.5395 22.9782 59.29 22.98ZM4.71 5.89C4.19 5.89 3.77 6.31 3.77 6.83V18.27C3.77 18.79 4.19 19.21 4.71 19.21H59.3C59.82 19.21 60.24 18.79 60.24 18.27V6.83C60.24 6.31 59.82 5.89 59.3 5.89H4.71ZM59.29 47.07H4.71C2.11 47.07 0 44.96 0 42.36V30.92C0 28.33 2.11 26.21 4.71 26.21H59.3C61.89 26.21 64.01 28.32 64.01 30.92V42.36C64.0055 43.6095 63.5065 44.8064 62.622 45.689C61.7375 46.5716 60.5395 47.0682 59.29 47.07ZM4.71 29.98C4.19 29.98 3.77 30.4 3.77 30.92V42.36C3.77 42.88 4.19 43.3 4.71 43.3H59.3C59.82 43.3 60.24 42.88 60.24 42.36V30.92C60.24 30.4 59.82 29.98 59.3 29.98H4.71Z" fill="#4DAEEB"/>
<path d="M26.3204 54.3599C25.2804 54.3599 24.4404 53.5199 24.4404 52.4799V45.1799C24.4404 44.1399 25.2804 43.2999 26.3204 43.2999C27.3604 43.2999 28.2004 44.1399 28.2004 45.1799V52.4799C28.2004 53.5199 27.3604 54.3599 26.3204 54.3599ZM26.3204 29.9799C25.2804 29.9799 24.4404 29.1399 24.4404 28.0999V21.0999C24.4404 20.0599 25.2804 19.2199 26.3204 19.2199C27.3604 19.2199 28.2004 20.0599 28.2004 21.0999V28.0999C28.2004 29.1299 27.3604 29.9799 26.3204 29.9799ZM37.7004 54.3599C36.6604 54.3599 35.8204 53.5199 35.8204 52.4799V45.1799C35.8204 44.1399 36.6604 43.2999 37.7004 43.2999C38.7404 43.2999 39.5804 44.1399 39.5804 45.1799V52.4799C39.5804 53.5199 38.7404 54.3599 37.7004 54.3599ZM37.7004 29.9799C36.6604 29.9799 35.8204 29.1399 35.8204 28.0999V21.0999C35.8204 20.0599 36.6604 19.2199 37.7004 19.2199C38.7404 19.2199 39.5804 20.0599 39.5804 21.0999V28.0999C39.5804 29.1299 38.7404 29.9799 37.7004 29.9799ZM40.7004 14.4299H37.0204C35.9804 14.4299 35.1404 13.5899 35.1404 12.5499C35.1404 11.5099 35.9804 10.6699 37.0204 10.6699H40.7004C41.7404 10.6699 42.5804 11.5099 42.5804 12.5499C42.5804 13.5899 41.7404 14.4299 40.7004 14.4299ZM51.9104 14.4299H48.2304C47.1904 14.4299 46.3504 13.5899 46.3504 12.5499C46.3504 11.5099 47.1904 10.6699 48.2304 10.6699H51.9104C52.9504 10.6699 53.7904 11.5099 53.7904 12.5499C53.7904 13.5899 52.9504 14.4299 51.9104 14.4299ZM40.7004 38.5299H37.0204C35.9804 38.5299 35.1404 37.6899 35.1404 36.6499C35.1404 35.6099 35.9804 34.7699 37.0204 34.7699H40.7004C41.7404 34.7699 42.5804 35.6099 42.5804 36.6499C42.5804 37.6799 41.7404 38.5299 40.7004 38.5299ZM51.9104 38.5299H48.2304C47.1904 38.5299 46.3504 37.6899 46.3504 36.6499C46.3504 35.6099 47.1904 34.7699 48.2304 34.7699H51.9104C52.9504 34.7699 53.7904 35.6099 53.7904 36.6499C53.7904 37.6799 52.9504 38.5299 51.9104 38.5299Z" fill="#4DAEEB"/>
</g>
<defs>
<clipPath id="clip0_198_3591">
<rect width="64" height="64" fill="white"/>
</clipPath>
</defs>
</svg>
