<svg width="64" height="64" viewBox="0 0 64 64" fill="none" xmlns="http://www.w3.org/2000/svg">
<g clip-path="url(#clip0_198_3589)">
<path d="M54.6246 9.4C48.5496 3.35 40.5121 0 31.9996 0C23.4996 0 15.4871 3.3625 9.42461 9.4125C3.37461 15.4625 0.0371094 23.5125 0.0371094 32.0125C0.0371094 40.525 3.36211 48.5625 9.41211 54.65C15.4871 60.75 23.4996 64.125 31.9996 64.125C36.2996 64.125 40.4746 63.25 44.4371 61.5625C48.2496 59.9375 51.6746 57.5875 54.6371 54.6375C57.5996 51.6875 59.9121 48.25 61.5371 44.4375C63.2246 40.475 64.0871 36.2875 64.0871 32C64.0871 23.4875 60.7246 15.4625 54.6246 9.4ZM51.0996 51.1C45.9496 56.25 39.1746 59.0875 31.9996 59.0875C17.1371 59.0875 5.03711 46.9375 5.03711 32C5.03711 24.8375 7.84961 18.075 12.9621 12.9625C18.0746 7.85 24.8246 5.0375 31.9996 5.0375C46.9371 5.0375 59.0871 17.125 59.0871 32C59.0871 39.1625 56.2496 45.95 51.0996 51.1Z" fill="#4DAEEB"/>
<path d="M34.625 25.55V10.375C34.625 9 33.5 7.875 32.125 7.875C30.75 7.875 29.625 9 29.625 10.375V25.5C27 26.4875 25.1375 29.0125 25.1375 31.975C25.1375 35.7875 28.2375 38.9 32.0625 38.9C35.8875 38.9 38.9875 35.8 38.9875 31.975C38.9875 29.0625 37.175 26.575 34.625 25.55ZM32.0625 33.9C31 33.9 30.1375 33.0375 30.1375 31.975C30.1375 30.9125 31 30.05 32.0625 30.05C33.125 30.05 33.9875 30.9125 33.9875 31.975C33.9875 33.0375 33.125 33.9 32.0625 33.9ZM15 29.5H12.375C11 29.5 9.875 30.625 9.875 32C9.875 33.375 11 34.5 12.375 34.5H15C16.375 34.5 17.5 33.375 17.5 32C17.5 30.625 16.375 29.5 15 29.5ZM48.25 29.5C46.875 29.5 45.75 30.625 45.75 32C45.75 33.375 46.875 34.5 48.25 34.5H50.875C52.25 34.5 53.375 33.375 53.375 32C53.375 30.625 52.25 29.5 50.875 29.5H48.25ZM47.0875 15.1625C46.025 14.275 44.45 14.425 43.5625 15.4875L41.8875 17.5125C41 18.575 41.15 20.15 42.2125 21.0375C42.675 21.425 43.25 21.6125 43.8125 21.6125C44.525 21.6125 45.25 21.3 45.7375 20.7125L47.4125 18.6875C48.3 17.625 48.15 16.05 47.0875 15.1625ZM19.9875 15.625C19.1 14.5625 17.525 14.4125 16.4625 15.3C15.4 16.1875 15.25 17.7625 16.1375 18.825L17.8125 20.85C18.3125 21.45 19.025 21.75 19.7375 21.75C20.3 21.75 20.8625 21.5625 21.3375 21.175C22.4 20.2875 22.55 18.7125 21.6625 17.65L19.9875 15.625Z" fill="#4DAEEB"/>
</g>
<defs>
<clipPath id="clip0_198_3589">
<rect width="64" height="64" fill="white"/>
</clipPath>
</defs>
</svg>
