<svg width="64" height="64" viewBox="0 0 64 64" fill="none" xmlns="http://www.w3.org/2000/svg">
<mask id="mask0_290_6533" style="mask-type:luminance" maskUnits="userSpaceOnUse" x="0" y="5" width="64" height="55">
<path d="M0.0654297 5.08569H63.998V59.7473H0.0654297V5.08569Z" fill="white"/>
</mask>
<g mask="url(#mask0_290_6533)">
<path fill-rule="evenodd" clip-rule="evenodd" d="M64.2081 24.3523C64.2081 23.2152 63.2849 22.2922 62.148 22.2922H23.4458C22.3088 22.2922 21.3857 23.2152 21.3857 24.3523V54.3232C21.3857 55.4601 22.3088 56.3833 23.4458 56.3833H62.148C63.2849 56.3833 64.2081 55.4601 64.2081 54.3232V24.3523Z" fill="#CCE6FF" fill-opacity="0.161"/>
<path fill-rule="evenodd" clip-rule="evenodd" d="M62.0691 22.3136C62.0691 21.1766 61.146 20.2535 60.009 20.2535H21.7642C20.6272 20.2535 19.7041 21.1766 19.7041 22.3136V51.9129C19.7041 53.05 20.6272 53.973 21.7642 53.973H60.009C61.146 53.973 62.0691 53.05 62.0691 51.9129V22.3136Z" fill="url(#paint0_linear_290_6533)"/>
<path fill-rule="evenodd" clip-rule="evenodd" d="M21.7129 26.7262H59.5991V50.5589C59.5991 50.9083 59.4603 51.2434 59.2132 51.4905C58.9661 51.7376 58.631 51.8764 58.2816 51.8764H23.5245C22.524 51.8764 21.7129 51.0653 21.7129 50.0648V26.7262Z" fill="url(#paint1_linear_290_6533)"/>
<path d="M26.7176 24.4356C27.3135 24.4356 27.7965 23.9526 27.7965 23.3567C27.7965 22.7608 27.3135 22.2778 26.7176 22.2778C26.1217 22.2778 25.6387 22.7608 25.6387 23.3567C25.6387 23.9526 26.1217 24.4356 26.7176 24.4356Z" fill="#0084FF"/>
<path d="M23.6121 24.4356C24.208 24.4356 24.6911 23.9526 24.6911 23.3567C24.6911 22.7608 24.208 22.2778 23.6121 22.2778C23.0163 22.2778 22.5332 22.7608 22.5332 23.3567C22.5332 23.9526 23.0163 24.4356 23.6121 24.4356Z" fill="#55D7FF"/>
<path d="M29.8143 24.4356C30.4102 24.4356 30.8932 23.9526 30.8932 23.3567C30.8932 22.7608 30.4102 22.2778 29.8143 22.2778C29.2184 22.2778 28.7354 22.7608 28.7354 23.3567C28.7354 23.9526 29.2184 24.4356 29.8143 24.4356Z" fill="#0BBC00"/>
<path fill-rule="evenodd" clip-rule="evenodd" d="M53.0095 23.1849C53.0095 22.6921 52.6094 22.2922 52.1168 22.2922H41.5509C41.3142 22.2923 41.0872 22.3864 40.9198 22.5538C40.7524 22.7212 40.6583 22.9482 40.6582 23.1849V23.5429C40.6582 24.0357 41.0583 24.4356 41.5509 24.4356H52.1168C52.6094 24.4356 53.0095 24.0357 53.0095 23.5429V23.1849ZM59.8686 23.1772C59.8685 22.9387 59.7737 22.71 59.6051 22.5414C59.4365 22.3728 59.2078 22.278 58.9693 22.2779H57.3956C57.1571 22.278 56.9284 22.3728 56.7598 22.5414C56.5912 22.71 56.4964 22.9387 56.4963 23.1772V23.5363C56.4964 23.7748 56.5912 24.0035 56.7598 24.1721C56.9284 24.3407 57.1571 24.4355 57.3956 24.4356H58.9693C59.2078 24.4355 59.4365 24.3407 59.6051 24.1721C59.7737 24.0035 59.8685 23.7748 59.8686 23.5363V23.1772Z" fill="#E5F1FF"/>
<path fill-rule="evenodd" clip-rule="evenodd" d="M9.19513 52.2532V52.4804L6.65683 56.5908H5.44824L7.38211 48.491L9.19513 48.1316V51.4987H15.3659V48.3557L16.7061 47.7489L17.5999 50.2083L19.147 56.5948H17.9273L15.3659 52.5068V52.2532H9.19513ZM10.3062 8.53094H13.05L15.4887 15.2155V46.0278H10.3062V8.53094Z" fill="#CCE6FF" fill-opacity="0.522"/>
<path fill-rule="evenodd" clip-rule="evenodd" d="M4.66602 16.4571H40.9434V19.2007H4.66602V16.4571Z" fill="#CCE6FF" fill-opacity="0.349"/>
<path fill-rule="evenodd" clip-rule="evenodd" d="M33.2705 37.8445H46.9175V46.8995H33.2705V37.8445Z" stroke="#CCE6FF" stroke-width="6" stroke-miterlimit="10"/>
<path d="M49.7064 37.9682V49.3266H32.7646V38.1981L41.1653 20.6324L49.7064 37.9682ZM33.5887 38.385V48.5025H48.8823V38.1602L41.1764 22.5193L33.5887 38.385Z" fill="#CCE6FF"/>
<path fill-rule="evenodd" clip-rule="evenodd" d="M5.55819 56.1788H4.34961L6.28348 48.079L8.09649 48.4416V51.0867H14.2673V48.4878L16.0969 48.127L18.0484 56.1828H16.8286L14.2673 52.0948V51.8411H8.09649V52.0684L5.55819 56.1788Z" fill="#CCE6FF"/>
<path fill-rule="evenodd" clip-rule="evenodd" d="M32.3193 36.3193H46.3426V45.6173H32.3193V36.3193Z" fill="#0084FF"/>
<path d="M8.95542 7.80814L3.87896 15.4244L3.19336 14.9673L8.26982 7.35107L8.95542 7.80814ZM38.32 15.9105L38.0801 16.6988L11.3935 8.5782L11.6334 7.78987L38.32 15.9105Z" fill="#CCE6FF"/>
<path d="M48.0925 35.9773V47.8502H30.5296V36.2185L39.2386 17.8462L48.0925 35.9773ZM31.3537 36.4039V47.0261H47.2685V36.1678L39.2496 19.7467L31.3537 36.4039ZM9.01807 16.8218C9.10183 16.8417 9.17962 16.8814 9.24495 16.9375L14.0797 21.7733C14.3529 22.0933 14.2405 22.1675 14.0797 22.3559L9.77796 26.6585L13.9588 30.8403C13.9588 30.8403 14.2017 31.1385 13.9588 31.4229L9.77796 35.6046L13.838 39.6656C13.838 39.6656 14.0808 39.9637 13.838 40.2482L9.36581 44.7212C9.1234 44.9283 8.66249 44.8092 8.66249 44.4299C8.66249 44.3227 8.71029 44.2239 8.78308 44.1386L12.964 39.9569L8.90394 35.896C8.90394 35.896 8.66112 35.5977 8.90394 35.3133L13.0848 31.1316L8.90394 26.9499C8.90394 26.9499 8.66112 26.6516 8.90394 26.3672L13.2057 22.0646L8.66222 17.5202C8.66222 17.5202 8.51815 17.3445 8.54672 17.1643C8.57982 16.955 8.77401 16.8026 9.01807 16.8218Z" fill="#55D7FF"/>
<path d="M14.3201 17.8088L9.75257 22.3576L14.077 26.6645C14.1991 26.8068 14.1834 26.8301 14.1932 26.8918C14.2118 27.0092 14.2153 27.087 14.077 27.2483L9.87412 31.4342L14.077 35.62C14.077 35.62 14.321 35.9191 14.077 36.2038L9.99566 40.2686L14.1985 44.4545L13.617 45.0383L9.12109 40.5606C9.12109 40.5606 8.8769 40.2615 9.12109 39.9768L13.2024 35.912L8.99954 31.726C8.99954 31.726 8.75549 31.4269 8.99954 31.1422L13.2024 26.9564L8.878 22.6495C8.878 22.6495 8.63395 22.3504 8.878 22.0657L13.7386 17.2248L14.3201 17.8088Z" fill="#55D7FF"/>
<path fill-rule="evenodd" clip-rule="evenodd" d="M9.84863 8.37854H11.373V43.589H9.84863V8.37854Z" fill="white" fill-opacity="0.502"/>
<path d="M11.876 8.3049L14.269 15.2376L14.535 44.9357H8.25V6.85419H11.7552L11.876 8.3049ZM9.48605 8.09024V43.6996H13.2879L13.0349 15.4504L10.657 8.56186L10.6177 8.09024H9.48605Z" fill="#CCE6FF"/>
<path d="M38.8103 15.2376L41.3683 18.2181H3.29492V15.1959L38.8103 15.2376ZM4.53097 16.9821H38.6785L38.2417 16.4731L4.53097 16.4334V16.9821Z" fill="#CCE6FF"/>
<path fill-rule="evenodd" clip-rule="evenodd" d="M16.8321 44.3955C16.8321 44.0924 16.586 43.8462 16.2827 43.8462H5.75967C5.53238 43.8462 5.34766 44.0308 5.34766 44.2582V47.3258C5.34766 48.0081 5.90154 48.5619 6.58371 48.5619H15.596C16.2782 48.5619 16.8321 48.0081 16.8321 47.3258V44.3955Z" fill="#CCE6FF"/>
<path fill-rule="evenodd" clip-rule="evenodd" d="M15.69 45.0448C15.69 44.8554 15.536 44.7014 15.3467 44.7014H6.83163C6.6421 44.7014 6.48828 44.8554 6.48828 45.0448V46.6928C6.48828 47.1098 6.82668 47.4482 7.24365 47.4482H14.9346C15.3515 47.4482 15.69 47.1098 15.69 46.6928V45.0448Z" fill="white" fill-opacity="0.49"/>
</g>
<defs>
<linearGradient id="paint0_linear_290_6533" x1="61.0625" y1="32.1527" x2="61.0625" y2="75.9193" gradientUnits="userSpaceOnUse">
<stop stop-color="#CCE6FF"/>
<stop offset="1" stop-color="#1D98FF"/>
</linearGradient>
<linearGradient id="paint1_linear_290_6533" x1="58.5872" y1="43.7637" x2="58.5872" y2="70.7567" gradientUnits="userSpaceOnUse">
<stop stop-color="white"/>
<stop offset="1" stop-color="#D0E4FC"/>
</linearGradient>
</defs>
</svg>
