<svg width="64" height="64" viewBox="0 0 64 64" fill="none" xmlns="http://www.w3.org/2000/svg">
<path fill-rule="evenodd" clip-rule="evenodd" d="M22.6667 10.5C18.1563 10.5 14.5 14.1563 14.5 18.6667C14.5 23.177 18.1563 26.8333 22.6667 26.8333C27.177 26.8333 30.8333 23.177 30.8333 18.6667C30.8333 14.1563 27.177 10.5 22.6667 10.5ZM9.5 18.6667C9.5 11.3949 15.3949 5.5 22.6667 5.5C29.9384 5.5 35.8333 11.3949 35.8333 18.6667C35.8333 25.9384 29.9384 31.8333 22.6667 31.8333C15.3949 31.8333 9.5 25.9384 9.5 18.6667ZM63.1008 22.2322C64.0771 23.2085 64.0771 24.7915 63.1008 25.7678L52.4341 36.4344C51.9653 36.9033 51.3294 37.1667 50.6663 37.1667C50.0033 37.1667 49.3674 36.9033 48.8986 36.4344L43.5652 31.1011C42.5889 30.1248 42.5889 28.5419 43.5652 27.5656C44.5416 26.5893 46.1245 26.5893 47.1008 27.5656L50.6663 31.1311L59.5652 22.2322C60.5415 21.2559 62.1245 21.2559 63.1008 22.2322ZM4.02342 41.3564C6.49265 38.8872 9.84164 37.5 13.3337 37.5H32.0003C35.4923 37.5 38.8413 38.8872 41.3106 41.3564C43.7798 43.8257 45.167 47.1747 45.167 50.6667V56C45.167 57.3807 44.0477 58.5 42.667 58.5C41.2863 58.5 40.167 57.3807 40.167 56V50.6667C40.167 48.5007 39.3066 46.4235 37.775 44.892C36.2435 43.3604 34.1663 42.5 32.0003 42.5H13.3337C11.1677 42.5 9.0905 43.3604 7.55895 44.892C6.02741 46.4235 5.16699 48.5007 5.16699 50.6667V56C5.16699 57.3807 4.0477 58.5 2.66699 58.5C1.28628 58.5 0.166992 57.3807 0.166992 56V50.6667C0.166992 47.1747 1.55419 43.8257 4.02342 41.3564Z" fill="#4DAEEB"/>
</svg>
