<svg width="64" height="64" viewBox="0 0 64 64" fill="none" xmlns="http://www.w3.org/2000/svg">
<path fill-rule="evenodd" clip-rule="evenodd" d="M8.26679 27.0359C8.51169 27.2927 8.78426 27.5228 9.08077 27.7226C7.13597 31.3906 6.03543 35.5718 6.03543 40.0081C6.03543 40.4273 6.04524 40.8443 6.0657 41.2567L5.603 41.2334C5.41014 41.2334 5.21987 41.2452 5.03551 41.2718C5.0136 40.8364 5.00293 40.3952 5.00293 39.9516C5.00293 35.2801 6.18433 30.8816 8.26679 27.0359ZM56.4981 27.4148C58.456 31.1694 59.5613 35.4326 59.5613 39.9516C59.5613 40.3219 59.554 40.6905 59.537 41.061C59.2441 40.9931 58.9407 40.9547 58.6293 40.9514C58.6424 40.6383 58.6481 40.3238 58.6481 40.0081C58.6481 35.6469 57.5844 31.5322 55.702 27.9107C55.9848 27.7722 56.2519 27.6063 56.4981 27.4148ZM37.8708 13.2979C42.7546 14.3139 47.1611 16.6353 50.7069 19.8813C50.4543 20.0746 50.2218 20.2925 50.0164 20.5309C46.6418 17.4664 42.4692 15.2659 37.8493 14.2821C37.8786 14.0923 37.8913 13.8984 37.8913 13.7018L37.8708 13.2979ZM29.0274 12.918C28.9778 13.1722 28.9544 13.4343 28.9544 13.7018L28.9652 13.9172C23.7271 14.5889 18.9685 16.8045 15.1647 20.0907C14.9123 19.8501 14.6341 19.6365 14.3318 19.4574C18.3592 15.9374 23.4356 13.5803 29.0274 12.918Z" fill="#0084FF"/>
<path d="M33.9992 19.0352H32.9902V24.6568H33.9992V19.0352Z" fill="#CCE6FF"/>
<path d="M27.0693 33.4932C27.0693 38.0509 29.8407 42.9413 33.257 42.9413C36.6748 42.9413 39.446 38.0509 39.446 33.4932C39.446 24.046 27.0693 24.0272 27.0693 33.4932Z" fill="url(#paint0_linear_289_12131)"/>
<path d="M30.2666 41.6296C31.1531 42.4484 32.1727 42.9412 33.2573 42.9412C34.3417 42.9412 35.3611 42.449 36.2474 41.6311C36.8405 42.1219 37.3922 42.5277 37.8955 42.5277C41.7007 42.8717 44.9969 45.3989 46.2444 49.0734L46.934 51.1058C47.1323 51.6906 47.0366 52.3348 46.6784 52.8364C46.319 53.3383 45.7401 53.6361 45.1229 53.6361H21.3905C20.7744 53.6361 20.1956 53.3383 19.8363 52.8364C19.4768 52.3348 19.3824 51.6906 19.5796 51.1058L20.2692 49.074C21.5166 45.3989 24.8129 42.8717 28.6203 42.5277C29.1238 42.5277 29.6744 42.1212 30.2666 41.6296Z" fill="url(#paint1_linear_289_12131)"/>
<path d="M33.3387 37.5948C36.2856 37.5948 38.6745 35.2059 38.6745 32.259C38.6745 29.3121 36.2856 26.9232 33.3387 26.9232C30.3918 26.9232 28.0029 29.3121 28.0029 32.259C28.0029 35.2059 30.3918 37.5948 33.3387 37.5948Z" fill="url(#paint2_linear_289_12131)"/>
<path d="M33.3679 17.062C35.3261 17.062 36.9136 15.5031 36.9136 13.5801C36.9136 11.6571 35.3261 10.0981 33.3679 10.0981C31.4097 10.0981 29.8223 11.6571 29.8223 13.5801C29.8223 15.5031 31.4097 17.062 33.3679 17.062Z" fill="#0BBC00"/>
<path d="M33.2291 10.4436C33.6222 10.4712 33.796 11.1966 33.1301 11.2172C32.3287 11.2501 31.5787 11.7331 31.1999 12.4601C31.1999 12.4601 31.1086 12.6152 30.955 12.6552C30.6449 12.7364 30.3506 12.3855 30.5759 11.9904C31.1095 11.0536 32.1075 10.4201 33.2291 10.4436ZM30.5744 12.9827C30.8035 12.9963 30.9489 13.2103 30.9398 13.4691C30.9282 13.8898 31.2693 14.3581 30.9538 14.667C30.6363 14.9778 30.1515 14.4544 30.1663 13.4953C30.1702 13.2433 30.289 12.9751 30.5744 12.9827Z" fill="white" fill-opacity="0.451"/>
<path d="M53.613 26.9942C55.5713 26.9942 57.1587 25.4352 57.1587 23.5122C57.1587 21.5892 55.5713 20.0303 53.613 20.0303C51.6548 20.0303 50.0674 21.5892 50.0674 23.5122C50.0674 25.4352 51.6548 26.9942 53.613 26.9942Z" fill="#0BBC00"/>
<path d="M53.4737 20.3757C53.859 20.4022 54.0575 21.1275 53.3751 21.1495C52.5742 21.1813 51.8226 21.6664 51.445 22.3921C51.445 22.3921 50.923 22.842 50.74 22.3479C50.6382 22.0731 50.9049 21.7426 51.1447 21.4581C51.7189 20.777 52.5439 20.3575 53.4737 20.3757ZM50.8193 22.9149C51.0496 22.9285 51.194 23.144 51.1848 23.4013C51.1731 23.822 51.5145 24.2904 51.1988 24.5993C50.8812 24.9102 50.3965 24.3868 50.4115 23.4274C50.4154 23.1683 50.5522 22.9079 50.8193 22.9149Z" fill="white" fill-opacity="0.451"/>
<path d="M11.7507 26.9942C13.7089 26.9942 15.2964 25.4352 15.2964 23.5122C15.2964 21.5892 13.7089 20.0303 11.7507 20.0303C9.79252 20.0303 8.20508 21.5892 8.20508 23.5122C8.20508 25.4352 9.79252 26.9942 11.7507 26.9942Z" fill="#0BBC00"/>
<path d="M11.6114 20.3757C12.0119 20.4034 12.1819 21.128 11.5128 21.1494C10.7131 21.1812 9.96135 21.6655 9.58269 22.3923C9.58269 22.3923 9.4913 22.5473 9.33779 22.5874C9.02759 22.6686 8.73325 22.3184 8.95854 21.9226C9.49217 20.9854 10.4958 20.3538 11.6114 20.3757ZM8.95725 22.9149C9.18759 22.9286 9.33159 23.1448 9.32265 23.4013C9.31098 23.8219 9.65216 24.2903 9.33663 24.5992C9.01894 24.9102 8.53404 24.3868 8.54917 23.4274C8.55321 23.1679 8.69015 22.9077 8.95725 22.9149Z" fill="white" fill-opacity="0.451"/>
<path d="M5.68921 49.0275C7.64743 49.0275 9.23487 47.4686 9.23487 45.5455C9.23487 43.6225 7.64743 42.0636 5.68921 42.0636C3.731 42.0636 2.14355 43.6225 2.14355 45.5455C2.14355 47.4686 3.731 49.0275 5.68921 49.0275Z" fill="#0BBC00"/>
<path d="M5.54945 42.4091C5.94253 42.4366 6.11637 43.1621 5.45042 43.1827C4.65042 43.2154 3.899 43.6986 3.52019 44.4255C3.52019 44.4255 3.42894 44.5806 3.27543 44.6207C2.96523 44.7018 2.67103 44.351 2.89619 43.9559C3.43053 43.0179 4.42786 42.3856 5.54945 42.4091ZM2.89489 44.9482C3.12509 44.9619 3.26923 45.1779 3.26015 45.4345C3.24963 45.8161 3.52538 46.2113 3.34202 46.5431C3.1186 46.948 2.46923 46.5862 2.48667 45.4606C2.49071 45.2014 2.62765 44.9411 2.89489 44.9482Z" fill="white" fill-opacity="0.451"/>
<path d="M58.4168 49.0275C60.375 49.0275 61.9624 47.4686 61.9624 45.5455C61.9624 43.6225 60.375 42.0636 58.4168 42.0636C56.4585 42.0636 54.8711 43.6225 54.8711 45.5455C54.8711 47.4686 56.4585 49.0275 58.4168 49.0275Z" fill="#0BBC00"/>
<path d="M58.2778 42.4091C58.6879 42.4378 58.8077 43.1632 58.1788 43.1827C57.3788 43.2154 56.6274 43.6986 56.2486 44.4255C56.2486 44.4255 56.1573 44.5806 56.0038 44.6207C55.6936 44.7018 55.3994 44.351 55.6246 43.9559C56.1589 43.0179 57.1563 42.3856 58.2778 42.4091ZM55.6233 44.9482C55.8535 44.9619 55.9976 45.1779 55.9885 45.4345C55.978 45.8161 56.2538 46.2113 56.0704 46.5431C55.847 46.948 55.1973 46.5865 55.2152 45.4606C55.2192 45.2012 55.356 44.9411 55.6233 44.9482Z" fill="white" fill-opacity="0.451"/>
<defs>
<linearGradient id="paint0_linear_289_12131" x1="30.328" y1="27.406" x2="30.328" y2="69.1177" gradientUnits="userSpaceOnUse">
<stop stop-color="#70D1FF"/>
<stop offset="1" stop-color="#009DFF"/>
</linearGradient>
<linearGradient id="paint1_linear_289_12131" x1="29.4435" y1="51.8061" x2="29.4435" y2="39.7891" gradientUnits="userSpaceOnUse">
<stop stop-color="#70D1FF"/>
<stop offset="1" stop-color="#009DFF"/>
</linearGradient>
<linearGradient id="paint2_linear_289_12131" x1="33.7138" y1="26.858" x2="33.4725" y2="35.797" gradientUnits="userSpaceOnUse">
<stop stop-color="white" stop-opacity="0.459"/>
<stop offset="1" stop-color="white" stop-opacity="0"/>
</linearGradient>
</defs>
</svg>
