<svg width="64" height="64" viewBox="0 0 64 64" fill="none" xmlns="http://www.w3.org/2000/svg">
<path fill-rule="evenodd" clip-rule="evenodd" d="M62.8932 48.0107C62.8932 47.2633 62.2906 46.6567 61.5485 46.6567H3.96569C3.22353 46.6567 2.62109 47.2633 2.62109 48.0107C2.62109 48.7581 3.22353 49.3647 3.96569 49.3647H61.5485C62.2906 49.3647 62.8932 48.7581 62.8932 48.0107Z" fill="url(#paint0_radial_289_12070)"/>
<path fill-rule="evenodd" clip-rule="evenodd" d="M61.8001 40.0968C61.8001 35.6401 58.2072 32.022 53.7816 32.022H10.2734C5.84794 32.022 2.25488 35.6401 2.25488 40.0968C2.25488 44.5533 5.84794 48.1716 10.2734 48.1716H53.7816C58.2072 48.1716 61.8001 44.5533 61.8001 40.0968Z" fill="url(#paint1_linear_289_12070)"/>
<path fill-rule="evenodd" clip-rule="evenodd" d="M2.43641 38.3823C2.3791 38.2334 2.39068 38.0711 2.48156 37.9022L9.72053 17.3469C9.93808 16.9422 10.502 15.424 12.2835 15.424H50.9511C52.6956 15.424 53.317 16.9422 53.5602 17.3469L60.6448 35.9213C59.2392 33.5848 56.6903 32.0221 53.7816 32.0221H10.2735C6.43203 32.0221 3.21793 34.7482 2.43641 38.3823Z" fill="url(#paint2_linear_289_12070)"/>
<path fill-rule="evenodd" clip-rule="evenodd" d="M2.43641 38.3823C2.3791 38.2334 2.39068 38.0711 2.48156 37.9022L9.72053 17.3469C9.93808 16.9422 10.502 15.424 12.2835 15.424H50.9511C52.6956 15.424 53.317 16.9422 53.5602 17.3469L60.6448 35.9213C59.2392 33.5848 56.6903 32.0221 53.7816 32.0221H10.2735C6.43203 32.0221 3.21793 34.7482 2.43641 38.3823Z" fill="url(#paint3_linear_289_12070)"/>
<path fill-rule="evenodd" clip-rule="evenodd" d="M2.43641 38.3823C2.3791 38.2334 2.39068 38.0711 2.48156 37.9022L9.72053 17.3469C9.93808 16.9422 10.502 15.424 12.2835 15.424H50.9511C52.6956 15.424 53.317 16.9422 53.5602 17.3469L60.6448 35.9213C59.2392 33.5848 56.6903 32.0221 53.7816 32.0221H10.2735C6.43203 32.0221 3.21793 34.7482 2.43641 38.3823Z" fill="url(#paint4_linear_289_12070)"/>
<path fill-rule="evenodd" clip-rule="evenodd" d="M59.7215 40.0221C59.7215 36.597 56.9602 33.8165 53.559 33.8165H10.4964C7.09534 33.8165 4.33398 36.597 4.33398 40.0221C4.33398 43.447 7.09534 46.2277 10.4964 46.2277H53.559C56.9602 46.2277 59.7215 43.447 59.7215 40.0221Z" fill="url(#paint5_linear_289_12070)"/>
<path fill-rule="evenodd" clip-rule="evenodd" d="M58.0288 44.2838C57.4557 44.8987 56.7632 45.3886 55.9943 45.723C55.2254 46.0574 54.3964 46.2291 53.5589 46.2277H10.4963C9.65874 46.2291 8.82984 46.0573 8.06094 45.7229C7.29205 45.3886 6.59955 44.8987 6.02637 44.2838H58.0288Z" fill="#0084FF" fill-opacity="0.212"/>
<path fill-rule="evenodd" clip-rule="evenodd" d="M55.4153 40.8445C55.4153 39.9367 54.6833 39.1996 53.7818 39.1996C52.8804 39.1996 52.1484 39.9367 52.1484 40.8445C52.1484 41.7523 52.8804 42.4894 53.7818 42.4894C54.6833 42.4894 55.4153 41.7523 55.4153 40.8445Z" fill="#0BBC00"/>
<path fill-rule="evenodd" clip-rule="evenodd" d="M54.821 40.9192C54.821 40.3827 54.3886 39.9473 53.8558 39.9473C53.5999 39.9474 53.3544 40.0498 53.1735 40.2321C52.9925 40.4143 52.8907 40.6615 52.8906 40.9192C52.8906 41.4556 53.3232 41.8912 53.8558 41.8912C54.3886 41.8912 54.821 41.4556 54.821 40.9192Z" fill="#A6F997"/>
<path d="M15.1984 41.4899C15.1984 38.8008 11.0911 39.5676 11.0911 38.4229C11.0911 37.9909 11.4556 37.6994 12.1097 37.6994C12.6353 37.6994 13.193 37.829 13.6863 38.1097C13.8029 38.1802 13.9363 38.2175 14.0724 38.2176C14.4369 38.2176 14.8337 37.937 14.8337 37.5265C14.8337 37.397 14.7908 37.2674 14.7051 37.1594C14.3083 36.6302 13.0642 36.3603 12.2492 36.3603C10.5656 36.3603 9.53608 37.3538 9.53608 38.5524C9.53608 41.2632 13.6541 40.3884 13.6541 41.6627C13.6541 42.073 13.2466 42.4618 12.4101 42.4618C11.7703 42.4625 11.1455 42.2667 10.6192 41.9003C10.5011 41.8139 10.351 41.7814 10.2116 41.7814C9.84702 41.7814 9.49316 42.0838 9.49316 42.4943C9.49316 42.6238 9.53608 42.7534 9.61107 42.8614C10.0078 43.4553 11.2948 43.8009 12.335 43.8009C14.2654 43.8009 15.1984 42.8074 15.1984 41.4899ZM21.6328 41.4899C21.6328 38.8008 17.5255 39.5676 17.5255 38.4229C17.5255 37.9909 17.8901 37.6994 18.5442 37.6994C19.0697 37.6994 19.6274 37.829 20.1207 38.1097C20.2373 38.1802 20.3708 38.2175 20.5068 38.2176C20.8714 38.2176 21.2681 37.937 21.2681 37.5265C21.2681 37.397 21.2252 37.2674 21.1395 37.1594C20.7428 36.6302 19.4987 36.3603 18.6836 36.3603C17 36.3603 15.9705 37.3538 15.9705 38.5524C15.9705 41.2632 20.0885 40.3884 20.0885 41.6627C20.0885 42.073 19.681 42.4618 18.8446 42.4618C18.2048 42.4625 17.58 42.2667 17.0536 41.9003C16.9356 41.8139 16.7855 41.7814 16.646 41.7814C16.2815 41.7814 15.9276 42.0838 15.9276 42.4943C15.9276 42.6238 15.9705 42.7534 16.0455 42.8614C16.4423 43.4553 17.7293 43.8009 18.7695 43.8009C20.6998 43.8009 21.6328 42.8074 21.6328 41.4899ZM29.2791 40.0751C29.2791 37.9045 27.7241 36.4683 25.4828 36.4683H23.5202C23.0484 36.4683 22.6623 36.857 22.6623 37.3321V42.8074C22.6623 43.2826 23.0484 43.6714 23.5202 43.6714H25.4828C27.7241 43.6714 29.2791 42.2459 29.2791 40.0751ZM27.7241 40.0751C27.7241 41.2955 26.8983 42.3214 25.4828 42.3214H24.1851V37.8181H25.4828C26.9519 37.8181 27.7241 38.8008 27.7241 40.0751Z" fill="white"/>
<defs>
<radialGradient id="paint0_radial_289_12070" cx="0" cy="0" r="1" gradientUnits="userSpaceOnUse" gradientTransform="translate(31.7892 47.5114) rotate(180) scale(29.1709 2.80619)">
<stop stop-color="#0084FF"/>
<stop offset="1" stop-color="#004FB8" stop-opacity="0"/>
</radialGradient>
<linearGradient id="paint1_linear_289_12070" x1="4.20384" y1="42.8774" x2="4.20384" y2="28.2785" gradientUnits="userSpaceOnUse">
<stop stop-color="#CCE6FF"/>
<stop offset="1" stop-color="#FEFEFF"/>
</linearGradient>
<linearGradient id="paint2_linear_289_12070" x1="3.63118" y1="42.0798" x2="60.346" y2="42.0798" gradientUnits="userSpaceOnUse">
<stop stop-color="#AADEFF"/>
<stop offset="0.11" stop-color="#DEF0FF"/>
<stop offset="0.23" stop-color="#E6F3FF"/>
<stop offset="0.31" stop-color="#CCE6FF"/>
<stop offset="0.51" stop-color="#CCE6FF"/>
<stop offset="0.67" stop-color="#9DD1FF"/>
<stop offset="0.89" stop-color="#7BCAFF"/>
<stop offset="1" stop-color="#1D98FF"/>
</linearGradient>
<linearGradient id="paint3_linear_289_12070" x1="1.17464" y1="38.8076" x2="9.81966" y2="42.0401" gradientUnits="userSpaceOnUse">
<stop stop-color="#7AD5FE"/>
<stop offset="1" stop-color="#DEF0FF" stop-opacity="0"/>
</linearGradient>
<linearGradient id="paint4_linear_289_12070" x1="62.4436" y1="39.1738" x2="55.5428" y2="41.1263" gradientUnits="userSpaceOnUse">
<stop stop-color="#D0E4FC"/>
<stop offset="1" stop-color="#DEF0FF" stop-opacity="0"/>
</linearGradient>
<linearGradient id="paint5_linear_289_12070" x1="46.2044" y1="34.8684" x2="46.2044" y2="59.6889" gradientUnits="userSpaceOnUse">
<stop stop-color="#91D4FF"/>
<stop offset="1" stop-color="#0097FF"/>
</linearGradient>
</defs>
</svg>
