<svg width="64" height="64" viewBox="0 0 64 64" fill="none" xmlns="http://www.w3.org/2000/svg">
<g clip-path="url(#clip0_198_3588)">
<path d="M40.5679 0C36.2201 0.00399979 32.5743 2.46987 29.7645 5.56571C27.7686 4.66576 25.6427 4.00179 23.4288 3.99979C20.5103 3.99776 17.6575 4.86633 15.2353 6.49442C12.8131 8.12252 10.9316 10.4361 9.83149 13.1393C4.23178 15.0992 0 19.943 0 25.9986C0 31.1724 2.62786 35.8101 6.93764 38.22C7.16744 38.3479 7.42018 38.4293 7.68144 38.4595C7.94269 38.4897 8.20734 38.4682 8.46027 38.3962C8.71321 38.3241 8.94947 38.2029 9.15558 38.0396C9.36168 37.8762 9.5336 37.6739 9.6615 37.4441C9.7894 37.2143 9.87078 36.9615 9.90101 36.7003C9.93123 36.439 9.9097 36.1744 9.83765 35.9214C9.76559 35.6685 9.64442 35.4322 9.48106 35.2261C9.3177 35.02 9.11534 34.8481 8.88554 34.7202C5.86169 33.0303 3.99979 29.8444 3.99979 25.9986C3.99979 21.5189 7.15963 17.7691 11.6634 16.4911C11.9811 16.4011 12.2716 16.2338 12.5089 16.0042C12.7462 15.7746 12.9229 15.4898 13.0233 15.1752C14.3633 10.9754 18.563 8.00558 23.4288 8.00358C25.3011 8.00489 27.1451 8.46057 28.8025 9.33151C29.2378 9.5588 29.7416 9.61796 30.2177 9.49773C30.6939 9.37749 31.1091 9.08627 31.3844 8.67955C33.3483 5.7997 36.8141 4.00379 40.5679 3.99979C46.6596 3.99979 51.4193 8.52556 51.4193 13.9953C51.4133 14.1773 51.4093 14.3593 51.3913 14.5412C51.35 14.9927 51.4632 15.4447 51.7125 15.8234C51.9618 16.202 52.3323 16.4847 52.7633 16.6251C57.037 18.0191 59.9969 21.6629 59.9969 25.9986C59.9969 27.7486 59.5969 29.3685 58.8909 30.7684C58.7631 31.0037 58.6838 31.2623 58.6578 31.5288C58.6317 31.7954 58.6595 32.0644 58.7394 32.32C58.8193 32.5756 58.9498 32.8126 59.123 33.0168C59.2962 33.221 59.5087 33.3884 59.7478 33.509C59.9869 33.6295 60.2478 33.7008 60.515 33.7187C60.7822 33.7365 61.0503 33.7005 61.3033 33.6128C61.5564 33.525 61.7892 33.3874 61.988 33.208C62.1868 33.0285 62.3476 32.811 62.4608 32.5683C63.4806 30.5291 64.0068 28.2787 63.9967 25.9986C63.9967 20.3929 60.2609 15.9412 55.3011 13.7133C55.1171 6.08168 48.5635 0 40.5679 0ZM44.0597 19.999C43.9884 19.9965 43.9169 19.9978 43.8457 20.003C43.5619 20.0251 43.2862 20.1076 43.0368 20.2448C42.7875 20.3821 42.5703 20.571 42.3998 20.7989L30.3984 36.8021C30.1782 37.0988 30.0444 37.4508 30.0121 37.8189C29.9797 38.187 30.05 38.5569 30.2151 38.8875C30.3802 39.2182 30.6336 39.4966 30.9474 39.6919C31.2611 39.8872 31.6228 39.9917 31.9923 39.9939H38.004V51.9933C38.004 55.2831 40.7059 58.005 43.9957 58.005C45.5865 57.9945 47.1091 57.3576 48.2336 56.2324C49.3581 55.1071 49.994 53.5841 50.0034 51.9933V39.9939H55.9971C56.3666 39.9917 56.7283 39.8872 57.0421 39.6919C57.3558 39.4966 57.6093 39.2182 57.7744 38.8875C57.9395 38.5569 58.0097 38.187 57.9774 37.8189C57.945 37.4508 57.8113 37.0988 57.591 36.8021L45.6036 20.7989C45.4231 20.558 45.1905 20.3609 44.9232 20.2224C44.6558 20.0838 44.3607 20.0075 44.0597 19.999ZM43.9937 25.3347L51.9933 35.9901H47.9935C47.7305 35.9912 47.4704 36.0441 47.2279 36.1458C46.9854 36.2475 46.7653 36.3961 46.5803 36.583C46.3953 36.7698 46.2489 36.9914 46.1496 37.2349C46.0503 37.4784 46 37.7391 46.0016 38.002V51.9933C46.0073 52.2587 45.9593 52.5226 45.8605 52.769C45.7616 53.0154 45.614 53.2393 45.4265 53.4272C45.2389 53.6151 45.0153 53.7632 44.7691 53.8625C44.5229 53.9618 44.2592 54.0104 43.9937 54.0052C42.8518 54.0052 42.0018 53.1352 42.0018 51.9933V38.002C42.0034 37.7377 41.9526 37.4757 41.8523 37.2312C41.752 36.9866 41.6042 36.7644 41.4175 36.5773C41.2308 36.3902 41.0088 36.242 40.7645 36.1412C40.5201 36.0404 40.2582 35.9891 39.9939 35.9901H36.0061L43.9937 25.3347ZM20.003 25.9986C16.7131 25.9986 13.9953 28.7005 13.9953 31.9903V43.9937H8.00358C7.63065 43.9913 7.26446 44.0932 6.94639 44.2879C6.62831 44.4826 6.37102 44.7624 6.20357 45.0956C6.03612 45.4289 5.96519 45.8023 5.99878 46.1737C6.03237 46.5451 6.16915 46.8998 6.39367 47.1975L18.393 63.2007C18.5792 63.4499 18.821 63.6521 19.0991 63.7915C19.3772 63.9308 19.6839 64.0033 19.995 64.0033C20.306 64.0033 20.6127 63.9308 20.8908 63.7915C21.1689 63.6521 21.4107 63.4499 21.5969 63.2007L33.5983 47.1975C33.8228 46.8998 33.9596 46.5451 33.9931 46.1737C34.0267 45.8023 33.9558 45.4289 33.7883 45.0956C33.6209 44.7624 33.3636 44.4826 33.0455 44.2879C32.7275 44.0932 32.3613 43.9913 31.9883 43.9937H25.9986V31.9903C25.9913 30.4028 25.3571 28.8825 24.2342 27.7603C23.1112 26.6381 21.5905 26.005 20.003 25.9986ZM20.003 29.9984C20.2665 29.9913 20.5287 30.0379 20.7736 30.1355C21.0185 30.233 21.241 30.3795 21.4274 30.5659C21.6138 30.7523 21.7603 30.9748 21.8578 31.2197C21.9554 31.4646 22.002 31.7268 21.9949 31.9903V46.0016C21.9959 46.2646 22.0488 46.5248 22.1505 46.7673C22.2522 47.0098 22.4008 47.2298 22.5877 47.4148C22.7746 47.5998 22.9961 47.7462 23.2396 47.8455C23.4831 47.9448 23.7438 47.9951 24.0068 47.9935H27.9905L19.987 58.653L12.0034 47.9935H16.0032C16.5308 47.9914 17.0362 47.7809 17.4093 47.4078C17.7824 47.0347 17.993 46.5292 17.9951 46.0016V31.9903C17.9951 30.8484 18.861 29.9984 20.003 29.9984Z" fill="#4DAEEB"/>
</g>
<defs>
<clipPath id="clip0_198_3588">
<rect width="64" height="64" fill="white"/>
</clipPath>
</defs>
</svg>
