<svg width="64" height="64" viewBox="0 0 64 64" fill="none" xmlns="http://www.w3.org/2000/svg">
<path fill-rule="evenodd" clip-rule="evenodd" d="M55.87 14.3146C55.87 13.0254 54.8234 11.9788 53.5343 11.9788H8.60237C7.31318 11.9788 6.2666 13.0254 6.2666 14.3146V42.4495C6.2666 43.7387 7.31318 44.7853 8.60237 44.7853H53.5343C54.8234 44.7853 55.87 43.7387 55.87 42.4495V14.3146Z" fill="#CCE6FF" fill-opacity="0.259"/>
<path fill-rule="evenodd" clip-rule="evenodd" d="M54.3847 12.4668C54.3847 11.1776 53.3381 10.131 52.0489 10.131H7.11702C5.82783 10.131 4.78125 11.1776 4.78125 12.4668V40.6019C4.78125 41.8909 5.82783 42.9377 7.11702 42.9377H52.0489C53.3381 42.9377 54.3847 41.8909 54.3847 40.6019V12.4668Z" fill="url(#paint0_linear_290_6500)"/>
<path fill-rule="evenodd" clip-rule="evenodd" d="M51.7895 14.0656C51.7895 13.1202 51.022 12.3527 50.0766 12.3527H8.7516C8.06411 12.3527 7.50586 12.9109 7.50586 13.5984V37.0149H51.7895V14.0656Z" fill="url(#paint1_linear_290_6500)"/>
<path fill-rule="evenodd" clip-rule="evenodd" d="M33.362 39.8249C33.362 39.3091 32.9432 38.8906 32.4277 38.8906H26.9724C26.4568 38.8906 26.0381 39.3091 26.0381 39.8249V40.0997C26.0381 40.6154 26.4568 41.034 26.9724 41.034H32.4277C32.9432 41.034 33.362 40.6154 33.362 40.0997V39.8249Z" fill="#E5F1FF"/>
<path fill-rule="evenodd" clip-rule="evenodd" d="M32.5673 23.8208V25.0445L30.8645 25.8014C30.7981 26.1512 30.7059 26.4956 30.5887 26.8318L31.6848 28.3385L31.073 29.3982L29.2184 29.202C28.9861 29.4707 28.7346 29.7222 28.4658 29.9546L28.662 31.8096L27.6025 32.4214L26.0961 31.3253C25.7599 31.4425 25.4155 31.5346 25.0657 31.6011L24.309 33.304H23.0855L22.3287 31.601C21.9789 31.5345 21.6345 31.4424 21.2983 31.3253L19.7921 32.4214L18.7324 31.8096L18.9286 29.9547C18.6598 29.7223 18.4082 29.4708 18.1759 29.202L16.3214 29.3982L15.7098 28.3385L16.8055 26.8319C16.6885 26.4957 16.5964 26.1512 16.5299 25.8014L14.8271 25.0445V23.8208L16.5298 23.064C16.5963 22.7141 16.6885 22.3696 16.8055 22.0332L15.7098 20.5269L16.3214 19.4671L18.1768 19.6635C18.4088 19.3947 18.6601 19.1431 18.9286 18.9107L18.7324 17.0558L19.7921 16.444L21.2985 17.5403C21.6346 17.4231 21.979 17.3309 22.3287 17.2643L23.0855 15.5614H24.309L25.0657 17.2643C25.4155 17.3309 25.7598 17.4231 26.096 17.5403L27.6025 16.444L28.662 17.0558L28.4658 18.9107C28.7344 19.1431 28.9857 19.3947 29.2178 19.6635L31.073 19.4671L31.6848 20.5269L30.5891 22.0332C30.7061 22.3696 30.7982 22.7141 30.8647 23.064L32.5673 23.8208ZM23.6973 21.6775C22.1759 21.6775 20.9425 22.9111 20.9425 24.4326C20.9425 25.9543 22.1759 27.1878 23.6973 27.1878C25.2187 27.1878 26.4519 25.9543 26.4519 24.4326C26.4519 22.9111 25.2187 21.6775 23.6973 21.6775Z" fill="#0BBC00"/>
<path fill-rule="evenodd" clip-rule="evenodd" d="M33.4971 33.0454L33.8442 32.5408C33.5815 32.2357 33.3724 31.8882 33.2259 31.5131L32.6418 31.6201C32.6151 31.625 32.5877 31.6245 32.5612 31.6188C32.5347 31.6131 32.5096 31.6022 32.4873 31.5868C32.4649 31.5714 32.4458 31.5518 32.431 31.529C32.4162 31.5063 32.406 31.4808 32.401 31.4541L32.183 30.2769C32.1732 30.2231 32.1851 30.1677 32.2162 30.1227C32.2472 30.0777 32.2948 30.0469 32.3486 30.0371L32.9777 29.9218C33.0057 29.527 33.0993 29.1396 33.2545 28.7754L32.7495 28.4279C32.7044 28.3968 32.6734 28.3491 32.6633 28.2952C32.6583 28.2686 32.6587 28.2412 32.6644 28.2147C32.6701 28.1882 32.681 28.1631 32.6964 28.1409L33.3757 27.1578C33.3858 27.1426 33.398 27.129 33.4117 27.1173C33.4463 27.0882 33.4896 27.0712 33.5348 27.0691C33.5801 27.0669 33.6248 27.0797 33.662 27.1055L34.1921 27.4704C34.5015 27.2052 34.8274 27.0013 35.1976 26.8498L35.0869 26.2565C35.0816 26.2299 35.0818 26.2026 35.0872 26.176C35.0927 26.1495 35.1034 26.1243 35.1187 26.1019C35.1341 26.0796 35.1537 26.0605 35.1765 26.0458C35.1993 26.0311 35.2248 26.0211 35.2515 26.0164L36.4306 25.8023C36.5427 25.7821 36.6504 25.856 36.6713 25.9685L36.7857 26.5817C37.1845 26.6064 37.583 26.6988 37.9555 26.852L38.283 26.3764C38.2983 26.354 38.3179 26.3349 38.3407 26.3201C38.3635 26.3053 38.389 26.2952 38.4157 26.2903C38.4424 26.2854 38.4698 26.2859 38.4963 26.2917C38.5229 26.2974 38.548 26.3084 38.5703 26.324L39.5566 27.0032C39.6016 27.0342 39.6326 27.0818 39.6427 27.1355C39.6528 27.1892 39.6413 27.2448 39.6106 27.29L39.2747 27.7793C39.5503 28.0849 39.7713 28.4355 39.9283 28.8159L40.4663 28.7172C40.5202 28.7072 40.5759 28.7191 40.6212 28.7501C40.6664 28.7812 40.6974 28.8289 40.7075 28.8829L40.9252 30.0607C40.9303 30.0873 40.93 30.1147 40.9245 30.1412C40.9189 30.1677 40.9082 30.1928 40.8928 30.2151C40.8775 30.2374 40.8579 30.2565 40.8351 30.2712C40.8124 30.2859 40.7869 30.2959 40.7603 30.3007L40.2033 30.4017C40.18 30.8169 40.0843 31.2247 39.9205 31.6068L40.3573 31.9077C40.4513 31.9723 40.475 32.1008 40.4107 32.1944L39.7335 33.1787C39.7023 33.2236 39.6546 33.2543 39.6008 33.2641C39.547 33.2739 39.4915 33.262 39.4465 33.231L38.9823 32.9118C38.6626 33.1779 38.3141 33.4004 37.9225 33.553L38.0211 34.0795C38.0263 34.1061 38.0261 34.1335 38.0206 34.1601C38.0151 34.1867 38.0044 34.2119 37.989 34.2342C37.9737 34.2566 37.954 34.2757 37.9312 34.2904C37.9084 34.3051 37.8829 34.3151 37.8562 34.3198L36.6783 34.5343C36.6244 34.544 36.5689 34.5319 36.5238 34.5009C36.4787 34.4699 36.4477 34.4223 36.4374 34.3685L36.3307 33.7953C35.9209 33.7654 35.5193 33.665 35.1435 33.4987L34.8267 33.9607C34.8113 33.983 34.7918 34.0021 34.769 34.0168C34.7463 34.0315 34.7209 34.0416 34.6943 34.0465C34.6676 34.0514 34.6402 34.0511 34.6137 34.0454C34.5871 34.0397 34.562 34.0288 34.5397 34.0133L33.5506 33.332C33.5282 33.3168 33.5091 33.2972 33.4943 33.2745C33.4795 33.2518 33.4693 33.2264 33.4643 33.1998C33.4594 33.1732 33.4597 33.1458 33.4653 33.1193C33.471 33.0928 33.4818 33.0677 33.4971 33.0454ZM35.7456 31.4144C36.2991 31.7967 37.0422 31.7618 37.5525 31.33C37.6529 31.2449 37.7415 31.1469 37.8161 31.0385C38.2814 30.362 38.1087 29.4333 37.432 28.9668C36.8776 28.5848 36.1331 28.6203 35.6218 29.0531C35.5213 29.1382 35.4326 29.2364 35.358 29.3449C35.2465 29.5058 35.1682 29.6874 35.1277 29.8789C35.0872 30.0705 35.0852 30.2681 35.1219 30.4605C35.1578 30.6527 35.2313 30.836 35.3384 30.9998C35.4454 31.1635 35.5838 31.3044 35.7456 31.4144ZM36.8569 25.2218C36.8278 25.1756 36.8178 25.1198 36.8292 25.0664L37.0122 24.2484C36.5259 24.0019 36.0874 23.6706 35.7175 23.27L35.0291 23.7045C34.9828 23.7336 34.9268 23.7432 34.8734 23.7311C34.8201 23.719 34.7737 23.6863 34.7444 23.64L33.9142 22.3345C33.8534 22.2378 33.8857 22.1098 33.9778 22.0498L34.7136 21.5847C34.5431 21.0751 34.4646 20.5392 34.4817 20.0021L33.6642 19.8178C33.6107 19.8057 33.5641 19.7729 33.5347 19.7265C33.52 19.7036 33.51 19.6781 33.5053 19.6513C33.5006 19.6246 33.5012 19.5972 33.5071 19.5706L33.8438 18.065C33.856 18.0118 33.8888 17.9656 33.935 17.9364C33.9811 17.9073 34.037 17.8976 34.0903 17.9094L34.9439 18.1021C35.1809 17.6207 35.5015 17.1854 35.8908 16.8163L35.4469 16.1159C35.4323 16.0931 35.4225 16.0676 35.4178 16.041C35.4131 16.0143 35.4137 15.987 35.4196 15.9606C35.4256 15.9342 35.4366 15.9092 35.4522 15.8871C35.4678 15.865 35.4876 15.8462 35.5104 15.8317L36.8142 15.0076C36.8605 14.9786 36.9164 14.969 36.9698 14.981C37.0231 14.9929 37.0695 15.0255 37.0989 15.0716L37.5576 15.7904C38.0731 15.614 38.6157 15.5296 39.1604 15.5411L39.3338 14.7657C39.3396 14.7393 39.3506 14.7144 39.3662 14.6923C39.3817 14.6702 39.4015 14.6514 39.4243 14.637C39.4471 14.6226 39.4725 14.6128 39.4991 14.6082C39.5258 14.6037 39.553 14.6044 39.5793 14.6104L41.0885 14.9503C41.142 14.9623 41.1885 14.9949 41.218 15.0411C41.2475 15.0872 41.2575 15.1432 41.2458 15.1967L41.0689 15.9913C41.5712 16.2311 42.0257 16.5602 42.4101 16.9627L43.0473 16.5603C43.0702 16.5458 43.0957 16.536 43.1224 16.5314C43.1491 16.5268 43.1764 16.5275 43.2029 16.5334C43.2293 16.5394 43.2543 16.5505 43.2764 16.5661C43.2985 16.5817 43.3173 16.6016 43.3318 16.6245L44.1627 17.9291C44.1925 17.9753 44.2018 18.0312 44.1903 18.0845C44.1783 18.1377 44.1456 18.1841 44.0995 18.2133L43.4414 18.6296C43.628 19.1606 43.7145 19.7216 43.6965 20.2841L44.4123 20.4459C44.4658 20.4579 44.5124 20.4906 44.5418 20.5368C44.5713 20.5831 44.5812 20.6391 44.5695 20.6926L44.234 22.1981C44.222 22.2513 44.1892 22.2976 44.1431 22.3268C44.0969 22.356 44.041 22.3656 43.9877 22.3536L43.2322 22.1839C42.9864 22.6859 42.6502 23.1347 42.2309 23.5212L42.6298 24.1473C42.659 24.1941 42.6694 24.2501 42.6571 24.3029C42.6516 24.3295 42.6407 24.3547 42.6251 24.3769C42.6095 24.3991 42.5895 24.4179 42.5663 24.4322L41.2622 25.2568C41.2157 25.2858 41.1596 25.2953 41.1062 25.2831C41.0528 25.2709 41.0064 25.2382 40.977 25.1919L40.5479 24.5169C40.0208 24.6907 39.4665 24.767 38.9121 24.742L38.7439 25.4976C38.7321 25.551 38.7005 25.5972 38.6533 25.6267C38.607 25.6558 38.5511 25.6654 38.4977 25.6534L36.9869 25.3132C36.9332 25.3011 36.8864 25.2683 36.8569 25.2218ZM38.6593 22.0755C38.9584 22.1442 39.2693 22.1419 39.5673 22.0689C39.8652 21.9958 40.142 21.8541 40.3754 21.6549C40.7044 21.3778 40.9328 20.9998 41.025 20.5795C41.2625 19.5129 40.5873 18.4503 39.5197 18.2094C39.2203 18.1406 38.909 18.1428 38.6107 18.2158C38.3123 18.2888 38.0352 18.4307 37.8015 18.63C37.4723 18.9073 37.2439 19.2855 37.1517 19.706C36.9142 20.7715 37.591 21.8348 38.6593 22.0755Z" fill="#CCE6FF"/>
<path fill-rule="evenodd" clip-rule="evenodd" d="M24.2518 42.9238H34.7909V48.6687C34.7909 48.6687 34.772 50.4248 37.6489 51.7206C36.3246 52.0215 27.6456 51.7206 27.6456 51.7206V51.6767C27.6378 51.6772 22.717 51.9759 21.3936 51.6767C24.2706 50.3872 24.2518 48.6401 24.2518 48.6401V42.9238Z" fill="url(#paint2_linear_290_6500)"/>
<path fill-rule="evenodd" clip-rule="evenodd" d="M37.8274 52.2052C37.8274 51.5607 37.3042 51.0374 36.6596 51.0374H22.3827C22.073 51.0375 21.7761 51.1606 21.5571 51.3796C21.3381 51.5986 21.215 51.8955 21.2148 52.2052V52.5491C21.2148 53.1936 21.7382 53.7169 22.3827 53.7169H36.6596C37.3042 53.7169 37.8274 53.1936 37.8274 52.5491V52.2052Z" fill="#CCE6FF"/>
<path fill-rule="evenodd" clip-rule="evenodd" d="M50.0258 37.6573H53.0633C53.7254 37.6573 54.4278 37.6227 54.9731 37.7484C56.2946 38.0527 57.3262 38.7173 58.038 39.6335C58.4156 40.1198 58.7434 40.691 58.9474 41.3456C59.0389 41.6399 59.0978 41.9472 59.1565 42.2747C59.3001 43.0757 59.1047 43.931 58.9292 44.524C58.4044 46.2979 57.3388 47.4865 55.6916 48.1304C54.4386 48.6203 52.3392 48.4568 50.6169 48.4584V48.4492L51.1261 46.5641C51.2186 46.2553 51.2585 45.929 51.4081 45.6807C51.5481 45.4485 51.7562 45.2543 51.9902 45.116C52.3453 44.9061 52.9403 44.9429 53.5089 44.943L54.0001 44.9338C54.6022 44.8252 55.0543 44.5319 55.3277 44.0961C55.445 43.9092 55.5314 43.6805 55.5915 43.4404C55.701 43.0036 55.5689 42.5473 55.4369 42.2472C54.861 40.9388 53.5577 41.1599 51.7447 41.1636L49.6439 48.9866C49.3454 49.9808 49.2694 51.2552 48.4707 51.7551C48.0898 51.9935 47.4549 51.9555 46.8246 51.9555H45.233L47.9978 41.6097L48.5707 39.4605C48.7119 38.9874 48.7781 38.5223 49.0436 38.1855C49.2088 37.9761 49.4699 37.8004 49.753 37.712L50.0258 37.6573ZM43.005 41.1726H47.2429V41.1818L46.7882 42.8939C46.5516 43.6867 46.494 44.2565 45.7696 44.5696C45.2668 44.787 44.3375 44.6881 43.6506 44.688H43.1141C42.237 44.8343 41.6647 45.3196 41.4589 46.127C41.3734 46.4622 41.4131 46.8679 41.5043 47.1561C41.7427 47.9079 42.2535 48.3258 43.105 48.4674C43.6778 48.5627 44.472 48.317 44.842 48.6041C45.1696 48.8584 45.1232 49.2285 44.9966 49.6513L44.3691 51.9645C43.6204 51.9731 42.7747 52.0196 42.1411 51.8826C40.1593 51.4539 38.8704 50.2692 38.1941 48.5312C37.8831 47.7321 37.7565 46.4628 38.003 45.4803C38.1454 44.9134 38.3127 44.3574 38.5761 43.9049C39.2537 42.7399 40.1712 41.969 41.5043 41.455C41.801 41.3407 42.1358 41.2799 42.4774 41.2183L43.005 41.1726Z" fill="#0084FF"/>
<path fill-rule="evenodd" clip-rule="evenodd" d="M53.8199 35.6037L53.8901 35.604L53.9614 35.6046L54.0339 35.6056L54.107 35.607L54.1813 35.6088L54.255 35.6112L54.2948 35.6126L54.3325 35.6141L54.3713 35.616L54.4102 35.6179L54.4496 35.62L54.4889 35.6222L54.5281 35.6247L54.5684 35.6275L54.6083 35.6305L54.6486 35.6338L54.6902 35.6373L54.731 35.6411L54.7718 35.645L54.814 35.6493L54.856 35.654L54.8981 35.659L54.9414 35.6644L54.984 35.67L55.0273 35.6761L55.0711 35.6826L55.1147 35.6893L55.1592 35.6968L55.2042 35.7046L55.2491 35.7129L55.2947 35.7216L55.3413 35.7311L55.3872 35.741L55.4305 35.7507L55.4741 35.7608L55.5143 35.7705L55.5546 35.7803L55.5949 35.7902L55.6346 35.8002L55.675 35.8106L55.7153 35.8214L55.7553 35.8321L55.7947 35.8429L55.834 35.8539L55.874 35.8653L55.9134 35.8767L55.9531 35.8883L55.992 35.9002L56.0312 35.9122L56.0708 35.9245L56.1091 35.9366L56.1482 35.9492L56.1868 35.962L56.2256 35.9749L56.2648 35.9882L56.3027 36.0012L56.3408 36.0146L56.3793 36.0283L56.4177 36.0424L56.4556 36.0562L56.4934 36.0704L56.5316 36.0849L56.5692 36.0993L56.6068 36.1141L56.6446 36.1292L56.6815 36.144L56.7187 36.1593L56.7564 36.175L56.7935 36.1906L56.8304 36.2063L56.8671 36.2224L56.904 36.2386L56.9406 36.2549L56.9772 36.2716L57.0137 36.2882L57.0495 36.3051L57.0858 36.3222L57.1219 36.3395L57.158 36.3569L57.194 36.3747L57.2293 36.3923L57.2656 36.4105L57.3007 36.4285L57.3357 36.4468L57.3712 36.4653L57.4065 36.4841L57.4413 36.5028L57.4758 36.5217L57.5113 36.5413L57.5458 36.5606L57.5795 36.5797L57.6136 36.5994L57.6482 36.6194L57.6826 36.6397L57.7169 36.6602L57.7507 36.6806L57.7837 36.7009L57.8176 36.7218L57.8505 36.7425L57.8838 36.7635L57.9175 36.785L57.9498 36.8062L57.9833 36.8281L58.0166 36.8502L58.0487 36.8719L58.0806 36.8935L58.1135 36.9162L58.1457 36.9387L58.1775 36.9611L58.2096 36.984L58.2409 37.0066L58.2726 37.0298L58.3047 37.0534L58.3362 37.0769L58.3665 37.1L58.3975 37.1237L58.4285 37.1476L58.46 37.1722L58.4903 37.1964L58.5201 37.22L58.5506 37.2448L58.5811 37.2697L58.6113 37.2948L58.6411 37.3197L58.6708 37.3448L58.6996 37.3695L58.7294 37.3952L58.759 37.4212L58.7879 37.4469L58.8169 37.4728L58.8457 37.4989L58.8742 37.5251L58.9021 37.5509L58.9307 37.5777L58.9595 37.605L58.9869 37.6313L59.0148 37.6582L59.0422 37.6852L59.0695 37.7121L59.0976 37.7403L59.1246 37.7676L59.1517 37.7953L59.1786 37.8231L59.2048 37.8506L59.2314 37.8787L59.2579 37.9071L59.2839 37.9353L59.3103 37.9644L59.3364 37.9932L59.3616 38.0214L59.3871 38.0502L59.4123 38.079L59.4377 38.1083L59.4628 38.1378L59.4876 38.1671L59.5122 38.1966L59.5366 38.2261L59.5609 38.2559L59.5853 38.2859L59.6099 38.3168L59.633 38.346L59.656 38.3755L59.6808 38.4074L59.7038 38.4378L59.7269 38.468L59.7503 38.4993L59.7736 38.5306L59.7968 38.562L59.8195 38.5935L59.8431 38.6259L59.866 38.6579L59.8879 38.6892L59.9108 38.7218L59.9335 38.7548L59.9556 38.7872L59.9781 38.82L60.0003 38.8535L60.0228 38.8873L60.0447 38.921L60.0664 38.9544L60.0882 38.9882L60.1101 39.0231L60.1319 39.058L60.1531 39.0922L60.174 39.1263L60.1953 39.1617L60.2165 39.197L60.2375 39.2327L60.2582 39.2684L60.2788 39.3042L60.2996 39.3409L60.3197 39.3767L60.3396 39.4129L60.36 39.4501L60.38 39.4871L60.3997 39.5245L60.4195 39.5624L60.4385 39.5991L60.4577 39.6366L60.477 39.6752L60.4958 39.7132L60.5144 39.7514L60.5332 39.7905L60.5517 39.8297L60.5696 39.8682L60.5879 39.9077L60.6056 39.9471L60.6232 39.9867L60.6406 40.0266L60.6579 40.0666L60.6752 40.1077L60.6917 40.1477L60.7082 40.1877L60.7247 40.2291L60.7411 40.2706L60.7571 40.3121L60.7725 40.3528L60.7881 40.3944L60.8037 40.437L60.8188 40.4791L60.8336 40.5213L60.8484 40.5642L60.8629 40.6074L60.8769 40.6499L60.8906 40.6924L60.9043 40.736L60.9172 40.7777L60.9295 40.819L60.9415 40.8603L60.953 40.9004L60.9641 40.9398L60.975 40.9803L60.9859 41.021L60.996 41.0605L61.0055 41.0979L61.0151 41.1364L61.0248 41.1762L61.0337 41.2141L61.0426 41.2519L61.0511 41.2896L61.0594 41.3265L61.0679 41.3654L61.083 41.4364L61.0977 41.5076L61.1117 41.578L61.1251 41.6476L61.138 41.7156L61.1503 41.7823L61.1623 41.8477L61.1744 41.9154L61.1799 41.9459L61.1852 41.9774L61.1903 42.0087L61.1952 42.0398L61.1998 42.0714L61.2047 42.1046L61.2089 42.1357L61.2132 42.1691L61.2205 42.2293L61.2272 42.2913L61.2332 42.3525L61.2384 42.4145L61.243 42.4749L61.2467 42.5353L61.2498 42.5956L61.2523 42.6551L61.2542 42.7147L61.2553 42.7733L61.2559 42.832V42.8896L61.2554 42.9464L61.2543 43.0042L61.2528 43.0601L61.2507 43.116L61.2481 43.1728L61.2451 43.2278L61.2417 43.282L61.2378 43.336L61.2336 43.3901L61.2289 43.4432L61.2238 43.4964L61.2185 43.5486L61.2128 43.6007L61.2065 43.6529L61.2001 43.7032L61.1934 43.7537L61.1864 43.804L61.1793 43.8532L61.1716 43.9025L61.1639 43.9519L61.1559 43.9994L61.1477 44.0469L61.1393 44.0941L61.1305 44.1415L61.1217 44.188L61.1128 44.2333L61.1034 44.2787L61.0943 44.3231L61.0851 44.3666L61.0754 44.4109L61.0654 44.4552L61.0559 44.4966L61.0461 44.5388L61.036 44.5811L61.0259 44.6224L61.0159 44.6626L61.0058 44.7028L60.9955 44.7428L60.9856 44.7808L60.975 44.8206L60.955 44.8946L60.9346 44.9673L60.9147 45.0372L60.8946 45.1054L60.8789 45.1584L60.8627 45.2112L60.8465 45.263L60.8298 45.3155L60.8126 45.3686L60.7953 45.4208L60.778 45.472L60.7601 45.5237L60.7419 45.5754L60.7235 45.6269L60.7046 45.6783L60.6856 45.7294L60.6663 45.7803L60.6466 45.8311L60.6266 45.8818L60.6062 45.9325L60.5857 45.9828L60.5648 46.0329L60.5436 46.0827L60.522 46.1326L60.4999 46.1829L60.4781 46.2314L60.4557 46.2808L60.4328 46.3299L60.4097 46.3787L60.386 46.428L60.3627 46.4758L60.3387 46.5239L60.3138 46.5728L60.289 46.6209L60.2644 46.6678L60.2392 46.7153L60.2132 46.7631L60.1874 46.8101L60.1606 46.8579L60.1339 46.9044L60.1075 46.9502L60.0802 46.9965L60.0522 47.0432L60.0243 47.089L59.9963 47.1343L59.9676 47.1799L59.9388 47.2251L59.9092 47.2705L59.8797 47.3154L59.8498 47.3598L59.8199 47.4038L59.789 47.4484L59.758 47.4923L59.7274 47.5351L59.6957 47.5787L59.6635 47.6223L59.6313 47.6653L59.5989 47.7078L59.5663 47.7498L59.5333 47.7917L59.4994 47.8342L59.4658 47.8758L59.4321 47.9168L59.3974 47.9582L59.3627 47.999L59.3281 48.0392L59.2929 48.0793L59.2568 48.1198L59.221 48.1594L59.185 48.1985L59.1481 48.238L59.1115 48.2768L59.0741 48.3156L59.0369 48.3537L58.9992 48.3916L58.9611 48.4294L58.9229 48.4668L58.8838 48.5044L58.8452 48.5409L58.8064 48.5772L58.7666 48.6136L58.727 48.6494L58.6869 48.6851L58.647 48.7201L58.6062 48.7553L58.5651 48.7903L58.5241 48.8244L58.4829 48.8585L58.4413 48.8922L58.3994 48.9257L58.3574 48.9587L58.3148 48.9915L58.2719 49.0242L58.2294 49.0562L58.1865 49.0878L58.1425 49.1197L58.0992 49.1507L58.0557 49.1814L58.0112 49.2122L57.9667 49.2425L57.9226 49.2721L57.8774 49.3019L57.8323 49.3312L57.7874 49.36L57.7415 49.3888L57.6957 49.417L57.6501 49.4448L57.6045 49.4722L57.5576 49.4998L57.511 49.5267L57.4646 49.5532L57.4176 49.5795L57.3699 49.6058L57.3226 49.6315L57.2753 49.6568L57.2275 49.6818L57.1795 49.7064L57.1315 49.7307L57.0831 49.7549L57.0342 49.7788L56.9858 49.802L56.9372 49.8251L56.8877 49.8481L56.8386 49.8704L56.7891 49.8927L56.7395 49.9145L56.6899 49.936L56.6398 49.9571L56.5896 49.9782L56.5392 49.9989L56.4891 50.019L56.4358 50.04L56.3883 50.0582L56.3389 50.0767L56.2899 50.0945L56.2402 50.1118L56.1907 50.1286L56.1416 50.1448L56.092 50.1605L56.0432 50.1756L55.9943 50.1902L55.9453 50.2044L55.8964 50.2181L55.8475 50.2315L55.7988 50.2443L55.7505 50.2566L55.7019 50.2686L55.6532 50.2801L55.6046 50.2915L55.5566 50.3021L55.508 50.3126L55.4594 50.3228L55.4118 50.3324L55.3634 50.3419L55.3156 50.3508L55.2678 50.3597L55.2196 50.3681L55.1714 50.3763L55.1236 50.3841L55.0758 50.3916L55.0278 50.3989L54.9802 50.4059L54.9322 50.4128L54.885 50.4192L54.8375 50.4255L54.7896 50.4316L54.7421 50.4374L54.6944 50.443L54.6466 50.4483L54.5997 50.4533L54.5524 50.4582L54.5047 50.4629L54.4576 50.4674L54.4098 50.4718L54.3627 50.4758L54.3157 50.4797L54.2682 50.4836L54.221 50.487L54.1737 50.4905L54.1267 50.4937L54.0801 50.4969L54.0329 50.4997L53.9853 50.5025L53.9384 50.5051L53.8918 50.5076L53.8434 50.5099L53.7509 50.5141L53.6573 50.5179L53.5641 50.5211L53.4706 50.524L53.3775 50.5263L53.2849 50.5282L53.192 50.5297L53.0997 50.531L53.0075 50.5317L52.9156 50.5324L52.8238 50.5325H52.7325L52.6416 50.5324L52.5508 50.5319L52.4606 50.5313L52.3705 50.5303L52.2809 50.5294L52.192 50.5283L52.1028 50.5271L51.9276 50.5243L51.7538 50.5215L51.5825 50.5183L51.4139 50.5155L51.3772 50.5149L51.3686 50.551L51.3547 50.6076L51.3404 50.6657L51.3253 50.725L51.3099 50.7845L51.294 50.8452L51.2773 50.9065L51.2601 50.9687L51.2418 51.0322L51.223 51.0962L51.2038 51.1591L51.1928 51.1945L51.1823 51.2278L51.1719 51.2597L51.161 51.2932L51.1495 51.3278L51.1381 51.3612L51.1261 51.396L51.1138 51.4305L51.1018 51.4639L51.0892 51.4986L51.0761 51.5335L51.0626 51.5693L51.0486 51.6051L51.0347 51.64L51.0202 51.6758L51.0055 51.7118L50.99 51.7479L50.9746 51.7839L50.9583 51.8208L50.9416 51.858L50.9249 51.894L50.9075 51.9312L50.8896 51.9682L50.8708 52.0064L50.8514 52.0448L50.8321 52.0821L50.8127 52.119L50.7921 52.157L50.7702 52.1965L50.7487 52.2344L50.7259 52.2736L50.703 52.3117L50.6794 52.3505L50.6549 52.3895L50.6306 52.427L50.6043 52.4668L50.5775 52.5064L50.5501 52.5458L50.5224 52.5844L50.4944 52.6226L50.4645 52.6623L50.4343 52.701L50.4038 52.7395L50.3714 52.7789L50.3385 52.8178L50.305 52.8564L50.2706 52.8949L50.2356 52.9329L50.2001 52.9704L50.1627 53.0086L50.1255 53.0455L50.0866 53.0829L50.0464 53.1204L50.0075 53.1556L49.9663 53.1916L49.9227 53.2285L49.8806 53.2629L49.8371 53.2973L49.7921 53.3317L49.7479 53.3644L49.7016 53.3973L49.654 53.4301L49.6063 53.4616L49.5604 53.491L49.5269 53.5116L49.4951 53.5307L49.4657 53.5478L49.435 53.5653L49.4028 53.583L49.3717 53.5995L49.3407 53.6157L49.312 53.6302L49.2809 53.6456L49.2482 53.661L49.2194 53.6744L49.185 53.69L49.1297 53.7138L49.0711 53.7377L49.0127 53.7601L48.9548 53.7811L48.8987 53.8003L48.8427 53.8183L48.7874 53.835L48.7337 53.8504L48.6803 53.8646L48.6272 53.878L48.5756 53.8901L48.525 53.9013L48.4743 53.9119L48.4247 53.9214L48.3763 53.9303L48.3285 53.9384L48.2812 53.9457L48.2351 53.9525L48.189 53.9588L48.1437 53.9644L48.0996 53.9695L48.0558 53.9742L48.0129 53.9784L47.971 53.9821L47.9288 53.9857L47.8869 53.9888L47.8466 53.9915L47.8062 53.994L47.7664 53.9961L47.7279 53.998L47.6894 53.9997L47.6508 54.0011L47.6135 54.0024L47.5742 54.0035L47.504 54.005L47.4331 54.0061L47.3642 54.0067L47.2973 54.0069H47.2316L47.1675 54.0066L47.0474 54.0058L46.9317 54.005L46.8778 54.0049L46.8233 54.0047H45.0964L44.3278 54.0145L44.2619 54.0155L44.1229 54.0179L43.979 54.0207L43.8311 54.0236L43.7541 54.0248L43.6764 54.026L43.5978 54.027L43.5181 54.0278L43.4369 54.0282H43.3552L43.2725 54.0281L43.1886 54.0273L43.1054 54.026L43.0612 54.0253L43.0182 54.0242L42.9748 54.0231L42.932 54.0217L42.8882 54.0203L42.8438 54.0186L42.7997 54.0167L42.7557 54.0145L42.7111 54.0122L42.6657 54.0097L42.6207 54.0069L42.5892 54.0047H42.5648L42.5652 54.003L42.53 54.0005L42.4838 53.9968L42.4379 53.9929L42.3918 53.9887L42.3447 53.984L42.2974 53.9792L42.2502 53.9739L42.2026 53.9681L42.1551 53.9622L42.1068 53.9557L42.0581 53.9487L42.0093 53.9413L41.9601 53.9334L41.9101 53.925L41.8603 53.9159L41.81 53.9065L41.7586 53.8962L41.7099 53.8859L41.6485 53.8723L41.5883 53.8588L41.5283 53.8446L41.4693 53.8303L41.41 53.8157L41.351 53.8004L41.2924 53.785L41.2337 53.7691L41.1748 53.7526L41.1166 53.7358L41.0587 53.7188L41.0011 53.7014L40.9434 53.6835L40.8858 53.6651L40.8288 53.6464L40.7718 53.6273L40.7148 53.6076L40.6582 53.5877L40.6023 53.5675L40.546 53.5467L40.4901 53.5257L40.4346 53.5042L40.3786 53.4821L40.3237 53.4599L40.2692 53.4373L40.2142 53.4141L40.1596 53.3906L40.1054 53.3666L40.0513 53.3423L39.9976 53.3175L39.944 53.2925L39.8911 53.2671L39.838 53.2411L39.7852 53.2148L39.7329 53.1881L39.6804 53.1609L39.6282 53.1333L39.5769 53.1054L39.5255 53.0773L39.4744 53.0486L39.4235 53.0195L39.3726 52.9899L39.3226 52.9602L39.2729 52.9301L39.2231 52.8994L39.1736 52.8684L39.1239 52.8367L39.0756 52.8052L39.0272 52.7731L38.9787 52.7404L38.9308 52.7076L38.8827 52.6739L38.8356 52.6405L38.7889 52.6067L38.7424 52.5724L38.6958 52.5375L38.6497 52.5023L38.6042 52.467L38.5588 52.4312L38.5135 52.3947L38.4689 52.3585L38.4245 52.3217L38.3802 52.2842L38.3361 52.2463L38.2931 52.2087L38.2503 52.1707L38.2076 52.1322L38.1653 52.0933L38.1229 52.0536L38.0813 52.0142L38.0402 51.9745L37.9988 51.9338L37.9585 51.8936L37.9183 51.8528L37.8784 51.8116L37.8389 51.7703L37.7993 51.7281L37.7607 51.6862L37.7223 51.644L37.6843 51.6014L37.6467 51.5585L37.6092 51.5152L37.5721 51.4718L37.5352 51.4276L37.4991 51.3837L37.4636 51.3399L37.428 51.2952L37.3925 51.2498L37.3577 51.2048L37.3236 51.1599L37.2897 51.1144L37.2559 51.0683L37.2221 51.0215L37.1892 50.9752L37.157 50.9291L37.1248 50.8823L37.0928 50.8351L37.0612 50.7876L37.0303 50.7401L36.9994 50.6921L36.9694 50.6446L36.9393 50.5964L36.9096 50.5476L36.8801 50.4989L36.8513 50.4501L36.823 50.4016L36.7947 50.3519L36.7668 50.3024L36.7392 50.2527L36.7121 50.2025L36.6855 50.1527L36.6595 50.103L36.6333 50.0524L36.6075 50.0015L36.5821 49.9504L36.557 49.8994L36.5326 49.8484L36.5084 49.7974L36.4845 49.7458L36.4608 49.6938L36.4374 49.6417L36.4147 49.59L36.3924 49.5381L36.3702 49.4855L36.3484 49.4331L36.3267 49.38L36.3054 49.3269L36.285 49.2751L36.2728 49.2433L36.2613 49.213L36.25 49.1824L36.2389 49.1519L36.2278 49.1214L36.2166 49.0895L36.2062 49.0591L36.195 49.0261L36.1757 48.9674L36.1559 48.9053L36.1366 48.8425L36.1184 48.7804L36.1009 48.719L36.0838 48.6563L36.067 48.5927L36.0511 48.5298L36.0358 48.4669L36.021 48.4034L36.007 48.3405L35.9933 48.2768L35.9799 48.2117L35.9673 48.1472L35.9553 48.0834L35.9438 48.0189L35.9328 47.9537L35.9223 47.8883L35.9124 47.823L35.9029 47.7575L35.894 47.6921L35.8856 47.6259L35.8776 47.5589L35.8703 47.4926L35.8635 47.4264L35.8572 47.3593L35.8513 47.2917L35.8462 47.2246L35.8415 47.1575L35.8375 47.0898L35.8337 47.0212L35.8308 46.9533L35.8283 46.8856L35.8264 46.8165L35.8252 46.748L35.8244 46.6794L35.8242 46.6109L35.8247 46.541L35.8258 46.4719L35.8275 46.4027L35.8298 46.335L35.8314 46.2973L35.8329 46.2624L35.8346 46.2289L35.8365 46.1941L35.8387 46.1578L35.8409 46.1231L35.8434 46.0882L35.846 46.0519L35.8487 46.0172L35.8516 45.9823L35.8547 45.9474L35.858 45.9125L35.8616 45.8764L35.8652 45.8415L35.8691 45.8054L35.8733 45.7693L35.8773 45.7358L35.8818 45.6997L35.8865 45.6635L35.8912 45.6288L35.8963 45.5927L35.9016 45.5566L35.9072 45.5204L35.9127 45.4857L35.9186 45.4497L35.9248 45.4136L35.9309 45.3789L35.9374 45.3428L35.9443 45.3066L35.9511 45.2707L35.9584 45.2345L35.9662 45.1972L35.9739 45.1612L35.9815 45.1266L35.9897 45.0905L35.9982 45.0545L36.0067 45.0185L36.0154 44.9835L36.031 44.922L36.0461 44.8628L36.0617 44.8026L36.0779 44.7415L36.0944 44.68L36.1112 44.6184L36.1283 44.5567L36.1461 44.4939L36.1643 44.431L36.1831 44.3676L36.2026 44.3032L36.2225 44.2386L36.2431 44.1741L36.2643 44.109L36.2861 44.0434L36.3088 43.9774L36.3314 43.9131L36.3442 43.8774L36.3566 43.8435L36.3691 43.8097L36.3814 43.7772L36.3941 43.7432L36.4077 43.7083L36.4205 43.6758L36.434 43.642L36.448 43.6073L36.4622 43.5724L36.4764 43.5386L36.4905 43.5051L36.5056 43.4702L36.5207 43.4355L36.5362 43.401L36.5519 43.3662L36.5681 43.3307L36.5843 43.2962L36.6003 43.2625L36.6174 43.2267L36.6349 43.1914L36.652 43.1569L36.6702 43.1213L36.688 43.0872L36.7064 43.052L36.726 43.0152L36.7453 42.9802L36.7648 42.9452L36.7848 42.9097L36.8043 42.8757L36.8258 42.839L36.8468 42.8036L36.8681 42.7678L36.8892 42.7331L36.9108 42.6976L36.9329 42.6618L36.9539 42.6281L36.9761 42.5929L36.9985 42.5579L37.0204 42.524L37.043 42.4892L37.0656 42.4551L37.0883 42.4209L37.1114 42.3866L37.1343 42.3531L37.1578 42.319L37.1815 42.2851L37.2051 42.2516L37.2289 42.2181L37.2523 42.1856L37.2766 42.1521L37.3017 42.1181L37.3256 42.0859L37.3503 42.0532L37.3756 42.0199L37.4001 41.9881L37.4253 41.9559L37.4512 41.923L37.4761 41.8917L37.5018 41.8598L37.5281 41.8274L37.5539 41.7961L37.5806 41.764L37.6072 41.7324L37.6335 41.7016L37.66 41.6709L37.6868 41.6401L37.7143 41.6088L37.7419 41.578L37.7691 41.5476L37.7967 41.5174L37.8244 41.4873L37.8526 41.4571L37.8806 41.4274L37.9085 41.3981L37.9378 41.3677L37.9664 41.3386L37.9954 41.3092L38.0245 41.2799L38.0533 41.2516L38.0824 41.2229L38.1122 41.1943L38.1419 41.1658L38.1714 41.1379L38.2016 41.1097L38.2324 41.0812L38.2626 41.0537L38.2927 41.0266L38.3233 40.999L38.3543 40.9718L38.3855 40.9447L38.4161 40.9182L38.4478 40.8913L38.4798 40.8642L38.5107 40.8385L38.542 40.8128L38.5745 40.7863L38.6067 40.7603L38.6383 40.7352L38.6711 40.7095L38.7044 40.6837L38.7365 40.6591L38.769 40.6345L38.8022 40.6096L38.8352 40.5851L38.8683 40.5608L38.9015 40.5368L38.9355 40.5125L38.9694 40.4886L39.0027 40.4654L39.037 40.4417L39.0714 40.4183L39.1046 40.3959L39.1393 40.3727L39.1742 40.3498L39.2083 40.3277L39.243 40.3054L39.2777 40.2833L39.3131 40.2612L39.3487 40.2391L39.3835 40.2178L39.4183 40.1968L39.4538 40.1756L39.49 40.1542L39.5256 40.1334L39.5614 40.1127L39.5974 40.0923L39.634 40.0716L39.6698 40.0518L39.7053 40.0323L39.7427 40.0119L39.7793 39.9923L39.8156 39.9731L39.8525 39.9538L39.8894 39.9348L39.9261 39.916L39.9634 39.8973L40.0006 39.8788L40.0381 39.8602L40.0761 39.8419L40.1133 39.824L40.1502 39.8065L40.1881 39.7886L40.2265 39.7709L40.2644 39.7537L40.302 39.7366L40.3408 39.7193L40.379 39.7027L40.4171 39.686L40.4562 39.6693L40.4945 39.653L40.5327 39.6371L40.5717 39.6209L40.6111 39.6049L40.6501 39.5891L40.689 39.5736L40.7281 39.5583L40.7715 39.5415L40.819 39.5234L40.8696 39.5051L40.9202 39.4871L40.9705 39.4702L41.0194 39.4541L41.0677 39.4389L41.116 39.4242L41.1636 39.4101L41.2103 39.3968L41.2561 39.3842L41.3016 39.3721L41.3466 39.3604L41.391 39.3492L41.4347 39.3386L41.4774 39.3285L41.5197 39.3187L41.5616 39.3093L41.6027 39.3003L41.6439 39.2916L41.6836 39.2832L41.722 39.2754L41.7624 39.2673L41.8362 39.2528L41.9092 39.2389L41.9797 39.2258L42.0475 39.2135L42.2066 39.1847L42.9172 39.1234H46.5402L46.5977 38.9076L46.6159 38.8459L46.6245 38.8157L46.6334 38.7836L46.6427 38.7494L46.6527 38.7121L46.6628 38.674L46.6852 38.5887L46.7092 38.4974L46.7226 38.4473L46.7366 38.3956L46.7517 38.3415L46.7679 38.2847L46.7852 38.2255L46.8028 38.1677L46.8135 38.1336L46.8237 38.1017L46.8341 38.0696L46.8453 38.0363L46.8567 38.003L46.8683 37.9695L46.8813 37.9331L46.894 37.8984L46.9073 37.8633L46.9219 37.8252L46.9364 37.7889L46.9518 37.7509L46.9678 37.7132L46.984 37.6754L47.0021 37.6347L47.0202 37.5955L47.0385 37.5566L47.0583 37.5161L47.0793 37.474L47.1008 37.4324L47.1229 37.3912L47.1465 37.3487L47.1701 37.3071L47.1958 37.2635L47.2223 37.2202L47.2486 37.1785L47.2774 37.1344L47.3068 37.0906L47.3369 37.0475L47.368 37.0044L47.4014 36.9597L47.4336 36.9183L47.4559 36.8902L47.4791 36.8619L47.5024 36.8339L47.5234 36.8093L47.5471 36.7822L47.5697 36.7566L47.5932 36.7308L47.6169 36.7054L47.6395 36.6817L47.6641 36.6562L47.687 36.633L47.71 36.6103L47.7352 36.5857L47.76 36.5621L47.7823 36.5413L47.8065 36.519L47.8318 36.4963L47.8565 36.4745L47.8821 36.4524L47.9065 36.4317L47.9311 36.4111L47.9559 36.391L47.982 36.37L48.0079 36.3497L48.0319 36.3312L48.0571 36.3121L48.0842 36.292L48.1105 36.2727L48.1362 36.2543L48.1625 36.2359L48.1888 36.2177L48.2147 36.2004L48.2404 36.1833L48.2684 36.1651L48.2963 36.1473L48.3221 36.1311L48.3494 36.1145L48.3776 36.0975L48.4039 36.0821L48.4303 36.0668L48.4598 36.05L48.4875 36.0347L48.5152 36.0198L48.544 36.0044L48.571 35.9903L48.601 35.9751L48.6303 35.9606L48.6575 35.9474L48.687 35.9334L48.7155 35.9201L48.7441 35.907L48.7748 35.8933L48.8047 35.8804L48.8347 35.8678L48.865 35.8553L48.8944 35.8437L48.9248 35.8318L48.9551 35.8201L48.9859 35.8088L49.0177 35.7974L49.0478 35.787L49.0789 35.7764L49.1113 35.7658L49.2407 35.7247L49.8231 35.6081H53.0622L53.1199 35.6079L53.1768 35.6077L53.2971 35.6068L53.4213 35.6057L53.5491 35.6046L53.6153 35.6042L53.6826 35.6039L53.7509 35.6037H53.8199ZM43.0055 41.1726L42.4779 41.2183L42.414 41.2298L42.3502 41.2415L42.2867 41.2531L42.2234 41.2651L42.1605 41.2774L42.1292 41.2837L42.0981 41.29L42.0671 41.2966L42.0361 41.3033L42.0053 41.31L41.9744 41.3168L41.9439 41.3238L41.9134 41.3312L41.8832 41.3385L41.853 41.3461L41.8229 41.3539L41.7932 41.3618L41.7634 41.3699L41.734 41.3783L41.7046 41.3871L41.6755 41.3959L41.6465 41.4051L41.6179 41.4145L41.5892 41.4241L41.5609 41.4341L41.5328 41.4444L41.5048 41.4549L41.4737 41.4671L41.4427 41.4792L41.4118 41.4915L41.3812 41.5038L41.3505 41.5165L41.3201 41.5289L41.2899 41.5417L41.2597 41.5545L41.2298 41.5672L41.1999 41.5801L41.1703 41.5932L41.1407 41.6065L41.1113 41.6197L41.0822 41.6331L41.0531 41.6465L41.0241 41.66L40.9953 41.6737L40.9666 41.6874L40.9381 41.7013L40.9096 41.7153L40.8815 41.7293L40.8534 41.7435L40.8254 41.7578L40.7977 41.7721L40.77 41.7866L40.7424 41.8011L40.715 41.8159L40.6878 41.8307L40.6607 41.8455L40.6337 41.8604L40.6069 41.8755L40.5801 41.8908L40.5537 41.9061L40.5272 41.9215L40.5009 41.9371L40.4747 41.9528L40.4487 41.9685L40.4229 41.9842L40.397 42.0003L40.3715 42.0163L40.346 42.0325L40.3206 42.0489L40.2953 42.0652L40.2703 42.0817L40.2452 42.0984L40.2204 42.115L40.1957 42.1319L40.1711 42.1488L40.1466 42.166L40.1223 42.1831L40.0982 42.2004L40.0741 42.2178L40.0501 42.2354L40.0263 42.253L40.0026 42.2708L39.9791 42.2887L39.9556 42.3066L39.9322 42.3248L39.909 42.343L39.886 42.3612L39.8631 42.3798L39.8402 42.3983L39.8174 42.417L39.7949 42.4358L39.7724 42.4548L39.75 42.4738L39.7278 42.493L39.7056 42.5123L39.6837 42.5317L39.6619 42.5512L39.6401 42.5708L39.6184 42.5906L39.5968 42.6105L39.5755 42.6306L39.5541 42.6507L39.5329 42.6709L39.5119 42.6913L39.4909 42.7119L39.47 42.7325L39.4493 42.7533L39.4288 42.7742L39.4082 42.7952L39.3878 42.8164L39.3676 42.8376L39.3473 42.8591L39.3272 42.8805L39.3073 42.9022L39.2874 42.924L39.2678 42.9458L39.248 42.9679L39.2285 42.99L39.2091 43.0124L39.1897 43.0349L39.1706 43.0573L39.1514 43.08L39.1324 43.1029L39.1136 43.1258L39.0948 43.1488L39.0761 43.172L39.0575 43.1954L39.039 43.2189L39.0206 43.2426L39.0023 43.2663L38.9842 43.2902L38.966 43.3142L38.9481 43.3384L38.9302 43.3626L38.9124 43.3871L38.8947 43.4117L38.8771 43.4363L38.8596 43.4612L38.8422 43.4861L38.8249 43.5112L38.8076 43.5366L38.7906 43.562L38.7735 43.5875L38.7567 43.613L38.7397 43.6389L38.7231 43.6649L38.7064 43.6909L38.6899 43.7172L38.6734 43.7435L38.657 43.77L38.6407 43.7968L38.6245 43.8236L38.6085 43.8505L38.5924 43.8776L38.5765 43.9049L38.5642 43.926L38.5521 43.9475L38.5401 43.969L38.5283 43.9908L38.5166 44.0126L38.5049 44.0347L38.4934 44.0568L38.4822 44.0791L38.471 44.1015L38.4599 44.1241L38.4488 44.1468L38.4381 44.1696L38.4274 44.1926L38.4168 44.2157L38.4063 44.2389L38.3959 44.2621L38.3856 44.2856L38.3755 44.3091L38.3655 44.3328L38.3556 44.3566L38.3458 44.3804L38.3361 44.4044L38.3264 44.4285L38.3169 44.4527L38.3076 44.477L38.2984 44.5014L38.2892 44.5259L38.28 44.5505L38.271 44.5751L38.2621 44.5998L38.2447 44.6497L38.2274 44.6998L38.2106 44.7502L38.1941 44.801L38.1779 44.8519L38.162 44.9033L38.1464 44.9549L38.1312 45.0066L38.1161 45.0586L38.1013 45.1107L38.0866 45.1632L38.0723 45.2157L38.0581 45.2685L38.0443 45.3213L38.0306 45.3742L38.0169 45.4272L38.0035 45.4803L37.9979 45.5035L37.9923 45.5265L37.9868 45.5499L37.9815 45.5732L37.9764 45.5967L37.9713 45.6202L37.9664 45.6439L37.9616 45.6677L37.9569 45.6916L37.9526 45.7155L37.9481 45.7395L37.9438 45.7635L37.9398 45.7878L37.9358 45.8119L37.9319 45.8364L37.9283 45.8607L37.9245 45.8851L37.9211 45.9097L37.9178 45.9343L37.9146 45.9589L37.9115 45.9837L37.9085 46.0084L37.9057 46.0334L37.9029 46.0583L37.9004 46.0832L37.8979 46.1081L37.8956 46.1332L37.8934 46.1584L37.8912 46.1835L37.8892 46.2087L37.8873 46.2339L37.8856 46.2592L37.8841 46.2844L37.8825 46.3098L37.8811 46.3351L37.8798 46.3605L37.8788 46.3859L37.8777 46.4114L37.876 46.4624L37.8747 46.5133L37.8739 46.5644L37.8735 46.6156L37.8736 46.6667L37.8741 46.7179L37.8752 46.769L37.8766 46.82L37.8784 46.8711L37.8806 46.922L37.8833 46.973L37.8864 47.0239L37.89 47.0745L37.8939 47.1251L37.8982 47.1754L37.9029 47.2257L37.908 47.2758L37.9136 47.3257L37.9194 47.3752L37.9258 47.4245L37.9325 47.4737L37.9395 47.5226L37.9468 47.5712L37.9546 47.6195L37.9627 47.6673L37.9713 47.715L37.9801 47.7621L37.9893 47.809L37.9988 47.8556L38.0086 47.9015L38.0189 47.9471L38.0295 47.9923L38.0402 48.0371L38.0514 48.0814L38.063 48.1251L38.0748 48.1683L38.087 48.2109L38.0994 48.2531L38.112 48.2947L38.1251 48.3356L38.1383 48.376L38.1452 48.3959L38.152 48.4158L38.1589 48.4355L38.1659 48.4549L38.1729 48.4742L38.1801 48.4934L38.1872 48.5124L38.1946 48.5312L38.2104 48.5719L38.2266 48.6122L38.2431 48.6525L38.2598 48.6926L38.2766 48.7323L38.2937 48.772L38.311 48.8114L38.3285 48.8505L38.3462 48.8895L38.3643 48.9283L38.3825 48.9669L38.401 49.0052L38.4196 49.0434L38.4386 49.0814L38.4577 49.1191L38.477 49.1566L38.4966 49.194L38.5164 49.231L38.5365 49.2679L38.5568 49.3045L38.5772 49.341L38.598 49.3772L38.6189 49.4134L38.6401 49.4492L38.6616 49.4847L38.6832 49.52L38.705 49.5552L38.7271 49.5901L38.7495 49.6248L38.7721 49.6594L38.7948 49.6937L38.8179 49.7278L38.8411 49.7616L38.8646 49.7952L38.8884 49.8287L38.9123 49.8618L38.9365 49.8947L38.961 49.9276L38.9856 49.9599L39.0105 49.9923L39.0356 50.0243L39.061 50.0562L39.0865 50.0878L39.1124 50.1191L39.1385 50.1502L39.1647 50.1812L39.1913 50.2119L39.2181 50.2423L39.245 50.2725L39.2723 50.3025L39.2997 50.3323L39.3274 50.3619L39.3554 50.3911L39.3836 50.4202L39.412 50.4491L39.4406 50.4775L39.4696 50.506L39.4987 50.5341L39.5281 50.5619L39.5577 50.5897L39.5874 50.6171L39.6177 50.6442L39.6479 50.6711L39.6784 50.6979L39.7092 50.7244L39.7404 50.7505L39.7715 50.7765L39.8031 50.8022L39.8349 50.8278L39.8668 50.853L39.899 50.8781L39.9316 50.9028L39.9643 50.9273L39.9973 50.9516L40.0305 50.9755L40.0639 50.9994L40.0976 51.0229L40.1315 51.0462L40.1656 51.0693L40.2 51.092L40.2348 51.1146L40.2696 51.1369L40.3047 51.159L40.3402 51.1808L40.3757 51.2023L40.4117 51.2236L40.4478 51.2446L40.4841 51.2653L40.5207 51.2859L40.5576 51.3061L40.5946 51.3262L40.632 51.346L40.6695 51.3654L40.7074 51.3848L40.7455 51.4038L40.7838 51.4224L40.8224 51.441L40.8612 51.4592L40.9003 51.4771L40.9395 51.4949L40.9791 51.5123L41.019 51.5294L41.059 51.5464L41.0993 51.5631L41.1398 51.5794L41.1806 51.5956L41.2217 51.6115L41.263 51.6271L41.3045 51.6423L41.3463 51.6574L41.3883 51.6722L41.4307 51.6868L41.4732 51.701L41.516 51.715L41.559 51.7287L41.6023 51.7423L41.6459 51.7554L41.6896 51.7683L41.7337 51.7811L41.7779 51.7934L41.8225 51.8055L41.8673 51.8173L41.9123 51.8289L41.9576 51.8402L42.0033 51.8511L42.049 51.8619L42.0951 51.8725L42.1415 51.8826L42.1713 51.8888L42.2015 51.8949L42.232 51.9007L42.2627 51.9063L42.2937 51.9114L42.325 51.9165L42.3566 51.9212L42.3883 51.9259L42.4204 51.9301L42.4528 51.9343L42.4854 51.9382L42.5182 51.9418L42.5512 51.9452L42.5845 51.9485L42.618 51.9516L42.6517 51.9544L42.6855 51.957L42.7196 51.9597L42.7538 51.9618L42.7882 51.964L42.8228 51.9661L42.8575 51.9678L42.8924 51.9695L42.9274 51.971L42.9626 51.9723L42.998 51.9735L43.0335 51.9746L43.069 51.9755L43.1046 51.9765L43.1405 51.9771L43.2124 51.9782L43.2845 51.9788L43.3571 51.979H43.4298L43.5027 51.9785L43.5755 51.9779L43.6486 51.977L43.7218 51.9759L43.7946 51.9746L43.9402 51.9718L44.0849 51.9692L44.2281 51.9665L44.2992 51.9654L44.3695 51.9645L44.9971 49.6513L45.0088 49.6119L45.0198 49.5727L45.0251 49.5532L45.0303 49.5339L45.0354 49.5146L45.0402 49.4954L45.0449 49.4763L45.0494 49.4573L45.0538 49.4383L45.058 49.4194L45.0619 49.4008L45.0656 49.3821L45.069 49.3635L45.0725 49.345L45.0754 49.3268L45.0784 49.3084L45.081 49.2904L45.0834 49.2723L45.0854 49.2544L45.0872 49.2365L45.0888 49.2189L45.0902 49.2011L45.0913 49.1837L45.0919 49.1662L45.0924 49.1491L45.0925 49.1318L45.0924 49.1149L45.0921 49.0979L45.0913 49.0812L45.09 49.0646L45.0886 49.0479L45.0869 49.0316L45.0848 49.0152L45.0823 48.999L45.0795 48.983L45.0763 48.9671L45.0728 48.9514L45.0687 48.9356L45.0644 48.9202L45.0597 48.9048L45.0545 48.8895L45.0491 48.8744L45.043 48.8595L45.0366 48.8447L45.0299 48.8301L45.0226 48.8156L45.015 48.8011L45.0069 48.7869L45.0027 48.7799L44.9983 48.7727L44.9938 48.7659L44.9893 48.7589L44.9846 48.752L44.9798 48.7452L44.9748 48.7383L44.9698 48.7315L44.9647 48.7248L44.9594 48.7181L44.954 48.7114L44.9483 48.7047L44.9427 48.6982L44.937 48.6916L44.9311 48.6851L44.925 48.6785L44.9189 48.6722L44.9125 48.6658L44.9061 48.6594L44.8996 48.653L44.8929 48.6468L44.8861 48.6405L44.8792 48.6343L44.872 48.6282L44.8649 48.6222L44.8576 48.6161L44.8501 48.61L44.8425 48.6041L44.8337 48.5974L44.8249 48.591L44.8158 48.5846L44.8066 48.5787L44.7973 48.5728L44.7878 48.567L44.7781 48.5616L44.7683 48.5563L44.7584 48.551L44.7482 48.546L44.7381 48.5412L44.7278 48.5367L44.7173 48.5322L44.7067 48.5278L44.6959 48.5236L44.6852 48.5197L44.6741 48.5158L44.6631 48.5121L44.6519 48.5085L44.6405 48.5051L44.629 48.502L44.6174 48.4988L44.6058 48.4959L44.5939 48.4929L44.5819 48.4903L44.57 48.4878L44.5578 48.4853L44.5455 48.483L44.5332 48.4808L44.5207 48.4788L44.5083 48.4767L44.4955 48.475L44.4827 48.4733L44.47 48.4716L44.4571 48.4702L44.444 48.4688L44.4177 48.4663L44.391 48.4643L44.3641 48.4627L44.3368 48.4613L44.3093 48.4604L44.2814 48.4598L44.2532 48.4594L44.2249 48.4593L44.1962 48.4596L44.1674 48.4601L44.1383 48.4607L44.109 48.4615L44.0796 48.4626L44.05 48.4638L44.0204 48.4652L43.9905 48.4666L43.9304 48.4699L43.87 48.4733L43.8093 48.4769L43.7485 48.4803L43.6877 48.4834L43.6573 48.485L43.6269 48.4864L43.5967 48.4875L43.5665 48.4886L43.5365 48.4895L43.5064 48.4901L43.4765 48.4906L43.4468 48.4907H43.4172L43.3877 48.4904L43.3585 48.4898L43.3293 48.4889L43.3005 48.4876L43.2719 48.4859L43.2435 48.4839L43.2154 48.4816L43.1875 48.4786L43.1736 48.477L43.1598 48.4753L43.1461 48.4736L43.1325 48.4716L43.119 48.4696L43.1054 48.4674L43.0855 48.4641L43.0659 48.4605L43.0461 48.457L43.0266 48.4534L43.0072 48.4496L42.988 48.4457L42.9689 48.4417L42.9499 48.4376L42.9309 48.4334L42.9122 48.4292L42.8935 48.4247L42.875 48.4202L42.8566 48.4157L42.8382 48.411L42.82 48.4062L42.8021 48.4012L42.784 48.3962L42.7663 48.3911L42.7487 48.3859L42.7311 48.3807L42.7136 48.3752L42.6964 48.3696L42.6791 48.364L42.6619 48.3582L42.6451 48.3525L42.6282 48.3465L42.6115 48.3405L42.5948 48.3342L42.5785 48.328L42.5621 48.3216L42.5458 48.3151L42.5297 48.3086L42.5137 48.3019L42.4978 48.295L42.4821 48.2882L42.4664 48.2811L42.4508 48.274L42.4354 48.2668L42.4201 48.2595L42.405 48.252L42.3899 48.2444L42.375 48.2368L42.3602 48.229L42.3454 48.2212L42.3309 48.2131L42.3164 48.205L42.3019 48.1969L42.2878 48.1885L42.2736 48.1801L42.2596 48.1715L42.2457 48.163L42.2318 48.1542L42.2181 48.1454L42.2046 48.1363L42.1912 48.1273L42.1778 48.1181L42.1646 48.1088L42.1515 48.0994L42.1386 48.0899L42.1256 48.0803L42.1129 48.0705L42.1003 48.0607L42.0877 48.0507L42.0753 48.0406L42.0629 48.0304L42.0507 48.0202L42.0386 48.0097L42.0266 47.9991L42.0148 47.9886L42.0031 47.9778L41.9914 47.9669L41.9799 47.956L41.9685 47.9448L41.9572 47.9337L41.9459 47.9224L41.9349 47.9109L41.9238 47.8993L41.9129 47.8877L41.9022 47.876L41.8916 47.8641L41.881 47.8521L41.8706 47.84L41.8603 47.8277L41.85 47.8154L41.8399 47.8029L41.8299 47.7903L41.82 47.7777L41.8102 47.7648L41.8005 47.7519L41.791 47.7389L41.7815 47.7257L41.7722 47.7125L41.763 47.6991L41.7538 47.6855L41.7448 47.672L41.7357 47.6583L41.727 47.6444L41.7183 47.6304L41.7096 47.6164L41.7012 47.6021L41.6928 47.5877L41.6843 47.5734L41.6762 47.5588L41.6681 47.5441L41.6602 47.5293L41.6523 47.5144L41.6445 47.4994L41.6369 47.4842L41.6292 47.4689L41.6217 47.4535L41.6144 47.4381L41.6071 47.4225L41.5999 47.4066L41.5929 47.3909L41.5859 47.3749L41.5791 47.3587L41.5724 47.3425L41.5657 47.3261L41.5591 47.3096L41.5528 47.2931L41.5464 47.2765L41.5402 47.2595L41.5341 47.2427L41.528 47.2255L41.5221 47.2084L41.5162 47.191L41.5106 47.1735L41.5048 47.1561L41.5006 47.1424L41.4964 47.1287L41.4923 47.1147L41.4883 47.1006L41.4844 47.0865L41.4805 47.072L41.4768 47.0575L41.4732 47.0429L41.4696 47.0279L41.466 47.013L41.4628 46.998L41.4593 46.9828L41.4562 46.9675L41.4531 46.9519L41.4501 46.9365L41.4472 46.9208L41.4444 46.9051L41.4417 46.8892L41.4391 46.8731L41.4366 46.8571L41.4343 46.8411L41.4319 46.8249L41.4297 46.8085L41.4277 46.7922L41.4259 46.7757L41.424 46.7592L41.4224 46.7427L41.4209 46.726L41.4193 46.7093L41.4181 46.6927L41.4168 46.6759L41.4157 46.6592L41.4148 46.6424L41.414 46.6254L41.4134 46.6086L41.4129 46.5916L41.4125 46.5748L41.4121 46.5578V46.5239L41.4123 46.5069L41.4126 46.4899L41.4131 46.4731L41.4137 46.4561L41.4143 46.4392L41.4153 46.4223L41.4164 46.4055L41.4176 46.3887L41.419 46.3719L41.4204 46.3551L41.4221 46.3384L41.424 46.3218L41.426 46.3051L41.4282 46.2886L41.4305 46.2721L41.433 46.2556L41.4357 46.2392L41.4386 46.2229L41.4416 46.2067L41.4449 46.1905L41.4481 46.1744L41.4517 46.1586L41.4554 46.1427L41.4593 46.1269L41.4643 46.1081L41.4693 46.0893L41.4744 46.0707L41.4797 46.0522L41.4852 46.0338L41.4908 46.0155L41.4964 45.9974L41.5023 45.9793L41.5082 45.9614L41.5143 45.9437L41.5205 45.9259L41.5269 45.9083L41.5333 45.8909L41.54 45.8736L41.5467 45.8563L41.5537 45.8393L41.5607 45.8224L41.5677 45.8055L41.575 45.7887L41.5825 45.7721L41.59 45.7556L41.5976 45.7392L41.6054 45.723L41.6133 45.7068L41.6214 45.6908L41.6297 45.6749L41.6379 45.6592L41.6464 45.6434L41.6549 45.628L41.6636 45.6126L41.6725 45.5972L41.6815 45.5821L41.6906 45.567L41.6998 45.552L41.7091 45.5372L41.7186 45.5226L41.7283 45.508L41.7379 45.4935L41.7479 45.4792L41.7578 45.4648L41.768 45.4508L41.7781 45.4368L41.7885 45.4229L41.799 45.4092L41.8097 45.3955L41.8204 45.3822L41.8313 45.3688L41.8422 45.3554L41.8535 45.3423L41.8647 45.3292L41.876 45.3163L41.8876 45.3035L41.8991 45.2909L41.9109 45.2783L41.9227 45.266L41.9347 45.2537L41.9469 45.2414L41.9592 45.2294L41.9715 45.2174L41.9839 45.2056L41.9966 45.1939L42.0093 45.1824L42.0222 45.1708L42.0352 45.1596L42.0483 45.1484L42.0615 45.1372L42.0749 45.1263L42.0884 45.1154L42.102 45.1047L42.1157 45.0941L42.1295 45.0836L42.1436 45.0732L42.1576 45.0629L42.1719 45.0528L42.1862 45.0428L42.2007 45.033L42.2152 45.0232L42.2298 45.0136L42.2448 45.0041L42.2597 44.9947L42.2747 44.9854L42.2899 44.9763L42.3052 44.9673L42.3206 44.9583L42.3362 44.9496L42.3518 44.9408L42.3675 44.9324L42.3834 44.9239L42.3994 44.9156L42.4156 44.9075L42.4318 44.8994L42.4481 44.8915L42.4646 44.8837L42.4813 44.8761L42.498 44.8684L42.5148 44.861L42.5318 44.8536L42.5489 44.8465L42.566 44.8395L42.5833 44.8325L42.6007 44.8256L42.6183 44.8189L42.6359 44.8124L42.6537 44.806L42.6716 44.7996L42.6897 44.7934L42.7077 44.7873L42.7259 44.7814L42.7443 44.7755L42.7627 44.7697L42.7814 44.7641L42.8001 44.7587L42.8189 44.7534L42.8377 44.7481L42.8567 44.7431L42.8759 44.7381L42.8952 44.7333L42.9145 44.7284L42.9341 44.7239L42.9536 44.7194L42.9734 44.7151L42.9932 44.7109L43.0131 44.7066L43.0332 44.7028L43.0534 44.6989L43.0737 44.6951L43.0941 44.6915L43.1146 44.688H43.6511L43.6835 44.6881L43.7162 44.6883L43.7826 44.6891L43.8501 44.6903L43.9187 44.6919L43.9882 44.6937L44.0586 44.6957L44.2012 44.7001L44.2733 44.7023L44.3456 44.7043L44.4181 44.7062L44.4908 44.7079L44.5634 44.7091L44.6358 44.7101L44.6719 44.7104L44.7079 44.7105H44.7437L44.7795 44.7104L44.8152 44.7101L44.8507 44.7096L44.8861 44.7088L44.9212 44.708L44.9561 44.707L44.991 44.7057L45.0254 44.7043L45.0597 44.7026L45.0938 44.7007L45.1276 44.6985L45.1611 44.6961L45.1942 44.6934L45.2269 44.6905L45.2595 44.6872L45.2917 44.6836L45.3235 44.6799L45.3549 44.6757L45.3859 44.6711L45.4164 44.6663L45.4466 44.6612L45.4764 44.6557L45.5057 44.65L45.5201 44.6469L45.5345 44.6437L45.5488 44.6405L45.5628 44.637L45.5768 44.6336L45.5907 44.6302L45.6044 44.6265L45.6179 44.6227L45.6315 44.6188L45.6447 44.6149L45.658 44.6109L45.671 44.6067L45.684 44.6025L45.6967 44.5981L45.7093 44.5936L45.7218 44.5891L45.7341 44.5844L45.7462 44.5796L45.7582 44.5746L45.7701 44.5696L45.7869 44.5621L45.8035 44.5547L45.8199 44.5472L45.8361 44.5396L45.852 44.5318L45.8677 44.5238L45.8831 44.5159L45.8984 44.508L45.9133 44.4997L45.9281 44.4916L45.9426 44.4832L45.9569 44.4748L45.9711 44.4662L45.985 44.4577L45.9987 44.4489L46.0121 44.4402L46.0254 44.4313L46.0385 44.4223L46.0513 44.4133L46.0641 44.4041L46.0765 44.3949L46.0888 44.3856L46.1008 44.3762L46.1128 44.3666L46.1245 44.3571L46.136 44.3472L46.1474 44.3374L46.1586 44.3276L46.1696 44.3177L46.1804 44.3075L46.1911 44.2974L46.2016 44.2871L46.2118 44.2769L46.222 44.2664L46.2321 44.2558L46.2419 44.2453L46.2515 44.2345L46.261 44.2238L46.2704 44.2129L46.2796 44.202L46.2888 44.1908L46.2976 44.1797L46.3064 44.1685L46.3151 44.1571L46.3236 44.1456L46.3319 44.1341L46.3401 44.1226L46.3482 44.1109L46.3563 44.099L46.3641 44.0872L46.3719 44.0752L46.3794 44.0632L46.387 44.0511L46.3943 44.0388L46.4017 44.0265L46.4088 44.014L46.4158 44.0016L46.4227 43.9889L46.4295 43.9763L46.4362 43.9636L46.4429 43.9508L46.4495 43.9377L46.4558 43.9248L46.4622 43.9117L46.4747 43.8852L46.4868 43.8583L46.4985 43.8312L46.51 43.8036L46.5213 43.7758L46.5321 43.7474L46.5429 43.7189L46.5533 43.69L46.5636 43.6607L46.5737 43.6311L46.5837 43.6011L46.5935 43.5708L46.6032 43.5402L46.6127 43.5092L46.6222 43.4779L46.6315 43.4461L46.6408 43.4142L46.6502 43.3818L46.6689 43.3161L46.6876 43.2491L46.7067 43.1806L46.7262 43.111L46.7463 43.04L46.767 42.9676L46.7777 42.9308L46.7886 42.8939L47.2433 41.1818V41.1726H43.0055ZM53.6902 37.6531L53.6276 37.6534L53.5648 37.6539L53.4392 37.655L53.3135 37.6561L53.1883 37.657L53.126 37.6571L53.0637 37.6573H50.0263L49.7535 37.712L49.7401 37.7162L49.727 37.7205L49.7138 37.7249L49.7007 37.7296L49.6875 37.7342L49.6744 37.7391L49.6615 37.744L49.6484 37.749L49.6354 37.7543L49.6227 37.7596L49.6098 37.7651L49.597 37.7705L49.5842 37.7761L49.5716 37.7819L49.559 37.7878L49.5464 37.7937L49.5339 37.7998L49.5215 37.806L49.509 37.8124L49.4967 37.8188L49.4844 37.8253L49.4723 37.8319L49.4601 37.8386L49.4481 37.8454L49.4361 37.8523L49.4243 37.8593L49.4125 37.8664L49.4006 37.8736L49.3889 37.8809L49.3774 37.8882L49.3659 37.8957L49.3545 37.9033L49.3432 37.911L49.332 37.9188L49.3207 37.9265L49.3097 37.9345L49.2988 37.9424L49.2879 37.9505L49.2771 37.9586L49.2664 37.9669L49.2558 37.9753L49.2454 37.9837L49.2349 37.9921L49.2247 38.0007L49.2145 38.0092L49.2046 38.0179L49.1946 38.0268L49.1848 38.0355L49.175 38.0444L49.1655 38.0534L49.156 38.0625L49.1467 38.0717L49.1373 38.0809L49.1283 38.09L49.1192 38.0992L49.1104 38.1087L49.1016 38.1181L49.0929 38.1276L49.0845 38.1371L49.0761 38.1467L49.0679 38.1562L49.0598 38.166L49.0518 38.1757L49.044 38.1855L49.0317 38.2014L49.0197 38.2174L49.0081 38.2338L48.9965 38.2501L48.9853 38.2668L48.9744 38.2836L48.9637 38.3004L48.9532 38.3175L48.9431 38.3348L48.9332 38.3523L48.9234 38.3699L48.9139 38.3878L48.9047 38.4057L48.8955 38.4237L48.8868 38.442L48.878 38.4603L48.8695 38.4789L48.8612 38.4974L48.8531 38.5162L48.8452 38.5352L48.8374 38.5542L48.8298 38.5734L48.8223 38.5927L48.815 38.6122L48.8078 38.6318L48.8008 38.6514L48.7938 38.6712L48.7871 38.6911L48.7804 38.7112L48.7739 38.7313L48.7673 38.7515L48.7609 38.7719L48.7485 38.8129L48.7363 38.8543L48.7245 38.8959L48.7128 38.9379L48.7013 38.9803L48.6899 39.0229L48.6672 39.1091L48.6445 39.196L48.6329 39.2397L48.6211 39.2838L48.6091 39.3277L48.5968 39.3719L48.5842 39.4161L48.5711 39.4605L47.9982 41.6097L45.2335 51.9555H46.8251L46.8841 51.9556L46.9432 51.9558L47.0611 51.9566L47.1784 51.9573L47.2366 51.9576H47.2947L47.3522 51.9575L47.4095 51.957L47.4661 51.9562L47.5225 51.955L47.5504 51.9541L47.5783 51.9533L47.6058 51.9522L47.6334 51.9509L47.6606 51.9497L47.6879 51.9481L47.7148 51.9464L47.7416 51.9447L47.7682 51.9427L47.7947 51.9405L47.821 51.9382L47.847 51.9355L47.8729 51.9329L47.8986 51.9299L47.924 51.9267L47.9492 51.9232L47.9741 51.9197L47.9989 51.9158L48.0233 51.9116L48.0476 51.9072L48.0716 51.9025L48.0952 51.8977L48.1188 51.8924L48.1418 51.8869L48.1649 51.8812L48.1874 51.8751L48.2097 51.8687L48.2318 51.8622L48.2536 51.8552L48.2749 51.8479L48.2961 51.8401L48.3168 51.8321L48.3374 51.8239L48.3575 51.8152L48.3674 51.8106L48.3772 51.8061L48.3871 51.8015L48.3969 51.7966L48.4064 51.7918L48.4159 51.7868L48.4254 51.7818L48.4347 51.7767L48.4439 51.7714L48.4531 51.7661L48.4621 51.7607L48.4711 51.7551L48.4897 51.7432L48.508 51.7311L48.5261 51.7186L48.5439 51.706L48.5615 51.6931L48.5787 51.6798L48.5959 51.6663L48.6127 51.6526L48.6292 51.6386L48.6456 51.6243L48.6616 51.6098L48.6775 51.595L48.693 51.5799L48.7085 51.5646L48.7237 51.5492L48.7387 51.5333L48.7533 51.5174L48.7678 51.5012L48.7821 51.4847L48.7961 51.4681L48.81 51.4511L48.8237 51.4341L48.8371 51.4167L48.8503 51.3992L48.8634 51.3815L48.8763 51.3634L48.8889 51.3452L48.9014 51.3268L48.9137 51.3083L48.9257 51.2896L48.9377 51.2706L48.9494 51.2515L48.9609 51.2322L48.9722 51.2125L48.9835 51.1929L48.9945 51.173L49.0054 51.1529L49.0162 51.1327L49.0266 51.1123L49.037 51.0917L49.0471 51.071L49.0573 51.0501L49.0672 51.0291L49.0769 51.0079L49.0865 50.9866L49.096 50.9651L49.1054 50.9435L49.1146 50.9217L49.1236 50.8997L49.1326 50.8776L49.1414 50.8555L49.1501 50.8331L49.1586 50.8106L49.1671 50.7881L49.1753 50.7653L49.1836 50.7426L49.1917 50.7197L49.1996 50.6966L49.2075 50.6734L49.2152 50.6502L49.223 50.6269L49.2304 50.6034L49.2379 50.5799L49.2452 50.5562L49.2597 50.5087L49.2739 50.4607L49.2876 50.4126L49.3011 50.364L49.3144 50.3153L49.3273 50.2662L49.3401 50.217L49.3525 50.1677L49.3648 50.1182L49.377 50.0683L49.3889 50.0185L49.4008 49.9685L49.4241 49.8685L49.4473 49.7683L49.4704 49.6683L49.4936 49.5685L49.5053 49.5186L49.5171 49.4691L49.5289 49.4198L49.5409 49.3704L49.5531 49.3215L49.5654 49.2728L49.578 49.2242L49.5908 49.1761L49.6037 49.1281L49.6169 49.0806L49.6305 49.0334L49.6443 48.9866L51.7451 41.1636L51.8297 41.1633L51.9136 41.1627L51.9966 41.1617L52.079 41.1608L52.1606 41.1596L52.2414 41.1582L52.4007 41.1553L52.5567 41.1525L52.6336 41.1513L52.7098 41.1501L52.785 41.149L52.8594 41.1482L52.9331 41.1476L53.0058 41.1472H53.0779L53.1491 41.1477L53.2193 41.1485L53.2542 41.149L53.2887 41.1497L53.3233 41.1505L53.3574 41.1515L53.3915 41.1524L53.4253 41.1536L53.4588 41.1549L53.4921 41.1564L53.5253 41.158L53.5583 41.1597L53.591 41.1617L53.6234 41.1638L53.6558 41.1661L53.6877 41.1686L53.7196 41.1711L53.7512 41.1739L53.7825 41.177L53.8138 41.1801L53.8447 41.1835L53.8755 41.1871L53.906 41.191L53.9362 41.1949L53.9663 41.1993L53.9962 41.2036L54.0258 41.2084L54.0552 41.2133L54.0843 41.2184L54.1133 41.2239L54.1419 41.2296L54.1704 41.2355L54.1986 41.2416L54.2266 41.2482L54.2545 41.2549L54.2821 41.2619L54.3093 41.2692L54.3364 41.2767L54.3634 41.2846L54.39 41.2927L54.4163 41.3011L54.4425 41.31L54.4685 41.319L54.494 41.3284L54.5195 41.338L54.5448 41.3481L54.5697 41.3584L54.5944 41.3691L54.6189 41.3802L54.6432 41.3916L54.6672 41.4032L54.691 41.4154L54.7145 41.4279L54.7379 41.4406L54.7609 41.4537L54.7836 41.4673L54.8062 41.4813L54.8286 41.4956L54.8506 41.5102L54.8616 41.5177L54.8724 41.5253L54.8833 41.5331L54.894 41.5409L54.9048 41.5488L54.9154 41.5568L54.926 41.5649L54.9364 41.5731L54.947 41.5814L54.9573 41.5898L54.9677 41.5984L54.9778 41.6069L54.9881 41.6158L54.9982 41.6245L55.0083 41.6336L55.0183 41.6426L55.0283 41.6518L55.0381 41.661L55.048 41.6705L55.0577 41.68L55.0675 41.6895L55.077 41.6993L55.0867 41.7091L55.0962 41.719L55.1057 41.7292L55.115 41.7393L55.1243 41.7496L55.1335 41.76L55.1427 41.7704L55.1519 41.7812L55.1609 41.7919L55.17 41.8028L55.1788 41.8137L55.1877 41.8249L55.1966 41.8361L55.2053 41.8475L55.214 41.8589L55.2226 41.8706L55.2312 41.8822L55.2396 41.8941L55.248 41.9061L55.2564 41.9182L55.2646 41.9304L55.2729 41.9427L55.2812 41.9551L55.2892 41.9677L55.2972 41.9805L55.3051 41.9933L55.3131 42.0063L55.3209 42.0194L55.3286 42.0327L55.3364 42.0461L55.3441 42.0596L55.3517 42.0731L55.3592 42.087L55.3666 42.1009L55.374 42.1149L55.3813 42.1291L55.3884 42.1434L55.3958 42.1577L55.4028 42.1723L55.4099 42.1871L55.4168 42.2019L55.4238 42.2169L55.4306 42.232L55.4373 42.2472L55.4498 42.2759L55.4621 42.3053L55.4744 42.3357L55.4864 42.3668L55.4984 42.3988L55.5043 42.4149L55.5101 42.4315L55.5158 42.448L55.5216 42.4648L55.5272 42.4818L55.5326 42.4989L55.5381 42.5162L55.5434 42.5336L55.5487 42.5512L55.5538 42.569L55.5588 42.5869L55.5638 42.6049L55.5684 42.6231L55.5731 42.6415L55.5776 42.6599L55.5822 42.6786L55.5864 42.6973L55.5904 42.7161L55.5945 42.7351L55.5982 42.7541L55.6018 42.7733L55.6052 42.7926L55.6085 42.8119L55.6116 42.8313L55.6145 42.851L55.6172 42.8706L55.6197 42.8904L55.622 42.9101L55.624 42.9301L55.6259 42.95L55.6276 42.9701L55.629 42.9902L55.6303 43.0103L55.6312 43.0305L55.632 43.0507L55.6325 43.0711L55.6326 43.0914V43.1118L55.6323 43.1323L55.6317 43.1527L55.6307 43.1733L55.6296 43.1937L55.6282 43.2142L55.6265 43.2348L55.6245 43.2554L55.6222 43.2759L55.6195 43.2966L55.6166 43.3172L55.6133 43.3377L55.6097 43.3583L55.6058 43.3788L55.6016 43.3994L55.5969 43.4198L55.592 43.4403L55.5862 43.4628L55.5804 43.4852L55.5744 43.5075L55.5681 43.5297L55.5619 43.552L55.5554 43.574L55.5487 43.5959L55.5418 43.6179L55.535 43.6395L55.5278 43.6612L55.5205 43.6826L55.513 43.7041L55.5054 43.7253L55.4976 43.7463L55.4897 43.7674L55.4816 43.7882L55.4733 43.8088L55.4647 43.8293L55.4562 43.8496L55.4473 43.8698L55.4384 43.8898L55.4292 43.9095L55.4199 43.9291L55.4104 43.9486L55.4007 43.9678L55.3909 43.9868L55.381 44.0055L55.3708 44.0241L55.3604 44.0424L55.3498 44.0606L55.3391 44.0783L55.3282 44.0961L55.3153 44.1163L55.302 44.1364L55.2886 44.1563L55.2749 44.1761L55.2609 44.1956L55.2466 44.2149L55.2321 44.2339L55.2173 44.2527L55.2024 44.2714L55.1871 44.2898L55.1715 44.308L55.1558 44.3259L55.1398 44.3437L55.1234 44.3613L55.1069 44.3785L55.0901 44.3955L55.073 44.4125L55.0557 44.429L55.0381 44.4455L55.0203 44.4617L55.0023 44.4776L54.984 44.4933L54.9655 44.5087L54.9467 44.524L54.9277 44.5391L54.9084 44.5539L54.8889 44.5684L54.8691 44.5827L54.849 44.5969L54.8288 44.6107L54.8084 44.6243L54.7875 44.6377L54.7667 44.6507L54.7453 44.6637L54.724 44.6763L54.7022 44.6887L54.6802 44.7009L54.6581 44.7129L54.6357 44.7246L54.6131 44.7359L54.5902 44.7471L54.567 44.758L54.5437 44.7688L54.5202 44.7792L54.4963 44.7893L54.4724 44.7993L54.4481 44.809L54.4235 44.8183L54.3987 44.8275L54.3738 44.8365L54.3486 44.8451L54.3232 44.8535L54.2975 44.8616L54.2716 44.8695L54.2455 44.8772L54.2192 44.8845L54.1927 44.8916L54.1659 44.8985L54.1388 44.905L54.1116 44.9113L54.0842 44.9173L54.0564 44.9231L54.0286 44.9287L54.0005 44.9338L53.5094 44.943L53.456 44.9429L53.4026 44.9426L53.2954 44.9418L53.1885 44.941L53.1352 44.9407L53.0821 44.9405H53.0293L52.9767 44.9408L52.9245 44.9415L52.8727 44.9424L52.8211 44.9436L52.7956 44.9446L52.7702 44.9455L52.745 44.9466L52.7198 44.9479L52.6948 44.9493L52.6699 44.9508L52.6453 44.9524L52.6207 44.9542L52.5964 44.9563L52.5721 44.9584L52.5481 44.9608L52.5243 44.9634L52.5008 44.9661L52.4773 44.969L52.4541 44.9721L52.4311 44.9756L52.4083 44.9792L52.3857 44.9829L52.3633 44.9869L52.3412 44.9911L52.3194 44.9957L52.2978 45.0005L52.2764 45.0055L52.2554 45.0108L52.2345 45.0162L52.214 45.0221L52.1936 45.0282L52.1736 45.0346L52.1539 45.0413L52.1346 45.0483L52.1154 45.0556L52.0966 45.0632L52.0782 45.0712L52.06 45.0794L52.0421 45.0882L52.0246 45.097L52.0161 45.1017L52.0075 45.1064L51.9989 45.1112L51.9907 45.116L51.9687 45.1291L51.9471 45.1427L51.9256 45.1564L51.9041 45.1705L51.8829 45.1849L51.8621 45.1997L51.8412 45.2146L51.8206 45.23L51.8002 45.2456L51.7801 45.2615L51.7602 45.2777L51.7406 45.2942L51.7211 45.311L51.702 45.3281L51.683 45.3454L51.6643 45.3632L51.6459 45.3811L51.6279 45.3993L51.6101 45.4177L51.5925 45.4365L51.5754 45.4553L51.5584 45.4746L51.5419 45.4941L51.5257 45.5139L51.5098 45.534L51.4942 45.5542L51.479 45.5746L51.4642 45.5953L51.4497 45.6164L51.4357 45.6375L51.4218 45.659L51.4086 45.6807L51.4016 45.6923L51.3949 45.7042L51.3882 45.716L51.3818 45.7282L51.3754 45.7403L51.3692 45.7524L51.3631 45.7648L51.3572 45.7772L51.3515 45.7898L51.3458 45.8024L51.3402 45.8152L51.335 45.828L51.3297 45.8409L51.3244 45.8538L51.3194 45.8669L51.3144 45.88L51.3096 45.8932L51.3047 45.9066L51.2956 45.9334L51.2865 45.9605L51.278 45.9879L51.2697 46.0155L51.2616 46.0433L51.2538 46.0714L51.2462 46.0997L51.2387 46.128L51.2314 46.1567L51.2242 46.1855L51.2171 46.2143L51.1887 46.3306L51.1743 46.3892L51.1668 46.4185L51.1591 46.4476L51.1514 46.4768L51.1434 46.506L51.1352 46.5351L51.1266 46.564L50.6174 48.4492V48.4584H50.6984L50.78 48.4587L50.8619 48.4591L50.9444 48.4598L51.0274 48.4605L51.1107 48.4616L51.2786 48.464L51.4477 48.4666L51.6179 48.4694L51.7889 48.4725L51.9606 48.4753L52.1329 48.478L52.219 48.4792L52.3051 48.4803L52.3913 48.4812L52.4775 48.482L52.5636 48.4826L52.6495 48.4831L52.7353 48.4833H52.821L52.9066 48.4831L52.9919 48.4826L53.077 48.4817L53.1618 48.4806L53.2464 48.4792L53.3306 48.4775L53.4146 48.4755L53.498 48.473L53.5812 48.47L53.6639 48.4668L53.7461 48.463L53.787 48.461L53.8278 48.4588L53.8686 48.4566L53.9091 48.4542L53.9496 48.4517L53.9898 48.449L54.03 48.4464L54.07 48.4434L54.1098 48.4404L54.1495 48.4373L54.1891 48.4341L54.2283 48.4305L54.2676 48.4271L54.3067 48.4233L54.3456 48.4194L54.3842 48.4154L54.4228 48.4113L54.4611 48.407L54.4993 48.4025L54.5373 48.3979L54.5751 48.3931L54.6127 48.3881L54.65 48.383L54.6872 48.3778L54.7243 48.3724L54.7611 48.3668L54.7976 48.3609L54.8339 48.355L54.8701 48.3489L54.906 48.3425L54.9417 48.336L54.9772 48.3293L55.0124 48.3224L55.0473 48.3154L55.0821 48.3081L55.1166 48.3006L55.1508 48.293L55.1849 48.2852L55.2186 48.2771L55.252 48.2688L55.2854 48.2604L55.3184 48.2517L55.3511 48.2428L55.3835 48.2337L55.4155 48.2245L55.4475 48.2148L55.4791 48.2052L55.5104 48.1952L55.5414 48.1849L55.5722 48.1745L55.6026 48.1639L55.6326 48.153L55.6625 48.1418L55.6921 48.1304L55.7306 48.1153L55.7689 48.0999L55.8069 48.0843L55.8447 48.0684L55.8824 48.0526L55.9199 48.0364L55.9571 48.0199L55.994 48.0033L56.0309 47.9865L56.0675 47.9696L56.1038 47.9524L56.1399 47.935L56.1759 47.9174L56.2117 47.8996L56.2472 47.8816L56.2826 47.8634L56.3176 47.845L56.3525 47.8263L56.3872 47.8076L56.4218 47.7886L56.456 47.7693L56.49 47.75L56.5239 47.7304L56.5576 47.7104L56.5909 47.6905L56.6242 47.6703L56.6572 47.6499L56.6899 47.6293L56.7225 47.6084L56.7549 47.5874L56.7871 47.5661L56.819 47.5448L56.8508 47.5231L56.8822 47.5013L56.9137 47.4792L56.9447 47.4569L56.9757 47.4345L57.0063 47.4119L57.0369 47.389L57.0671 47.366L57.0973 47.3426L57.127 47.3191L57.1568 47.2955L57.1862 47.2716L57.2155 47.2475L57.2444 47.2232L57.2732 47.1988L57.3019 47.1742L57.3304 47.1492L57.3586 47.124L57.3866 47.0988L57.4143 47.0732L57.4419 47.0476L57.4693 47.0215L57.4965 46.9954L57.5235 46.9691L57.5503 46.9426L57.5767 46.9158L57.6031 46.8889L57.6292 46.8616L57.6552 46.8344L57.6809 46.8067L57.7065 46.7789L57.7317 46.7509L57.7569 46.7227L57.7818 46.6944L57.8064 46.6657L57.831 46.6369L57.8553 46.6078L57.8793 46.5787L57.9033 46.5493L57.927 46.5195L57.9503 46.4896L57.9737 46.4596L57.9967 46.4293L58.0196 46.3988L58.0422 46.3682L58.0646 46.3373L58.0869 46.3062L58.109 46.2749L58.1308 46.2433L58.1524 46.2117L58.1739 46.1796L58.1951 46.1475L58.2161 46.1151L58.237 46.0826L58.2575 46.0497L58.2779 46.0169L58.2982 45.9835L58.3181 45.9502L58.338 45.9166L58.3577 45.8828L58.377 45.8487L58.3961 45.8144L58.4151 45.78L58.434 45.7453L58.4527 45.7104L58.471 45.6754L58.4893 45.64L58.5072 45.6045L58.5249 45.5689L58.5425 45.5329L58.5599 45.4968L58.5771 45.4603L58.594 45.4237L58.6109 45.387L58.6275 45.3501L58.6439 45.3129L58.6601 45.2755L58.6761 45.2378L58.6918 45.2L58.7074 45.1618L58.7228 45.1237L58.7379 45.0852L58.7529 45.0464L58.7677 45.0075L58.7823 44.9684L58.7966 44.9292L58.811 44.8896L58.8248 44.8498L58.8387 44.8099L58.8522 44.7697L58.8656 44.7292L58.8789 44.6886L58.8918 44.6478L58.9045 44.6068L58.9172 44.5656L58.9296 44.524L58.9461 44.4676L58.9626 44.4099L58.9791 44.3505L58.9956 44.2899L59.0039 44.2591L59.012 44.228L59.0201 44.1967L59.028 44.1649L59.036 44.1328L59.0439 44.1004L59.0517 44.0679L59.0593 44.035L59.067 44.0019L59.0744 43.9684L59.0818 43.9348L59.0891 43.9008L59.0961 43.8667L59.1031 43.8323L59.1099 43.7977L59.1165 43.7628L59.123 43.7278L59.1292 43.6926L59.1355 43.6571L59.1414 43.6216L59.147 43.5858L59.1526 43.5498L59.1579 43.5137L59.1629 43.4773L59.1679 43.4408L59.1724 43.4042L59.1767 43.3675L59.1808 43.3306L59.1847 43.2937L59.1881 43.2566L59.1914 43.2192L59.1945 43.182L59.1971 43.1446L59.1995 43.1071L59.2015 43.0694L59.2032 43.0319L59.2046 42.9941L59.2057 42.9564L59.2063 42.9185L59.2068 42.8805L59.2066 42.8427L59.2063 42.8047L59.2056 42.7669L59.2043 42.7289L59.2027 42.6909L59.2009 42.6529L59.1984 42.6149L59.1956 42.5769L59.1925 42.5391L59.1887 42.5011L59.1845 42.4632L59.18 42.4254L59.1775 42.4064L59.175 42.3875L59.1722 42.3687L59.1694 42.3499L59.1665 42.331L59.1635 42.3122L59.1602 42.2933L59.157 42.2746L59.1459 42.2134L59.1349 42.1527L59.1238 42.0925L59.1124 42.0327L59.1009 41.9733L59.0892 41.9145L59.0771 41.8559L59.0648 41.7977L59.0584 41.7687L59.052 41.7399L59.0455 41.7113L59.0388 41.6826L59.0319 41.654L59.0251 41.6256L59.0181 41.5973L59.0109 41.5689L59.0036 41.5407L58.9961 41.5126L58.9885 41.4845L58.9807 41.4567L58.9728 41.4288L58.9647 41.4011L58.9562 41.3734L58.9478 41.3456L58.9382 41.3151L58.9284 41.2846L58.9183 41.2542L58.9081 41.2239L58.8977 41.1938L58.8873 41.1638L58.8765 41.1339L58.8656 41.1041L58.8546 41.0744L58.8434 41.0449L58.832 41.0155L58.8205 40.9862L58.8088 40.9571L58.7969 40.928L58.785 40.8992L58.7728 40.8704L58.7605 40.8417L58.7481 40.8131L58.7353 40.7847L58.7225 40.7564L58.7096 40.7282L58.6965 40.7002L58.6834 40.6723L58.67 40.6444L58.6565 40.6167L58.6429 40.5892L58.6291 40.5618L58.6152 40.5345L58.6012 40.5072L58.587 40.4802L58.5727 40.4532L58.5582 40.4264L58.5436 40.3998L58.529 40.3732L58.5142 40.3467L58.4992 40.3204L58.4841 40.2942L58.469 40.2681L58.4537 40.2422L58.4383 40.2164L58.4228 40.1907L58.4072 40.165L58.3915 40.1396L58.3756 40.1142L58.3595 40.089L58.3435 40.0639L58.3275 40.039L58.3111 40.0141L58.2948 39.9895L58.2783 39.9649L58.2617 39.9403L58.2451 39.916L58.2283 39.8919L58.2115 39.8677L58.1945 39.8437L58.1775 39.8199L58.1604 39.7961L58.1432 39.7726L58.126 39.7491L58.1085 39.7257L58.0911 39.7025L58.0736 39.6795L58.056 39.6564L58.0384 39.6335L58.0216 39.6122L58.0048 39.5909L57.9878 39.5695L57.9707 39.5483L57.9536 39.5273L57.9361 39.5063L57.9187 39.4854L57.9013 39.4647L57.8835 39.444L57.8658 39.4235L57.8478 39.4029L57.8298 39.3825L57.8117 39.3623L57.7933 39.342L57.775 39.3219L57.7566 39.302L57.7379 39.2821L57.7192 39.2623L57.7004 39.2425L57.6814 39.2229L57.6624 39.2034L57.6432 39.184L57.6239 39.1647L57.6045 39.1453L57.585 39.1263L57.5654 39.1072L57.5456 39.0883L57.5257 39.0695L57.5057 39.0508L57.4856 39.0321L57.4654 39.0136L57.445 38.9952L57.4246 38.9769L57.4041 38.9586L57.3833 38.9406L57.3626 38.9225L57.3418 38.9046L57.3207 38.8869L57.2996 38.8693L57.2784 38.8517L57.2571 38.8341L57.2356 38.8168L57.2139 38.7995L57.1923 38.7822L57.1705 38.7652L57.1485 38.7483L57.1264 38.7314L57.1043 38.7146L57.082 38.698L57.0598 38.6815L57.0372 38.6651L57.0146 38.6488L56.9919 38.6326L56.9691 38.6164L56.9461 38.6005L56.923 38.5846L56.8998 38.5687L56.8766 38.5531L56.8533 38.5376L56.8298 38.5222L56.8061 38.5067L56.7824 38.4916L56.7586 38.4765L56.7346 38.4614L56.7106 38.4466L56.6863 38.4318L56.6621 38.4172L56.6378 38.4026L56.6132 38.3882L56.5886 38.3739L56.5638 38.3596L56.539 38.3456L56.5141 38.3316L56.4891 38.3177L56.4638 38.304L56.4386 38.2903L56.4132 38.2769L56.3877 38.2635L56.3621 38.2501L56.3363 38.237L56.3104 38.224L56.2846 38.211L56.2584 38.1983L56.2323 38.1855L56.2061 38.1729L56.1796 38.1604L56.1532 38.1481L56.1265 38.136L56.0999 38.1238L56.0731 38.1118L56.0462 38.1L56.0191 38.0882L55.992 38.0767L55.9648 38.0651L55.9373 38.0538L55.9098 38.0426L55.8822 38.0313L55.8545 38.0203L55.8268 38.0094L55.7989 37.9986L55.7709 37.988L55.7427 37.9775L55.7145 37.9672L55.6862 37.9569L55.6577 37.9466L55.629 37.9367L55.6004 37.9269L55.5717 37.917L55.5428 37.9074L55.5138 37.8979L55.4847 37.8884L55.4554 37.8792L55.4261 37.87L55.3967 37.861L55.3673 37.8521L55.3375 37.8434L55.3078 37.8348L55.278 37.8263L55.248 37.8178L55.2179 37.8096L55.1877 37.8015L55.1575 37.7936L55.1271 37.7856L55.0966 37.778L55.066 37.7704L55.0353 37.7629L55.0044 37.7556L54.9736 37.7484L54.9479 37.7426L54.9221 37.737L54.8959 37.7317L54.8696 37.7266L54.843 37.7218L54.8162 37.7171L54.7892 37.7127L54.7621 37.7084L54.7347 37.7043L54.7072 37.7004L54.6795 37.6969L54.6516 37.6933L54.6236 37.69L54.5952 37.6869L54.5669 37.6839L54.5382 37.6811L54.5096 37.6785L54.4806 37.6761L54.4515 37.6738L54.4224 37.6716L54.3931 37.6696L54.3635 37.6677L54.3339 37.666L54.3042 37.6643L54.2744 37.6629L54.2444 37.6615L54.2143 37.6603L54.1841 37.6592L54.1235 37.6573L54.0625 37.6557L54.001 37.6547L53.9393 37.6537L53.8774 37.6533L53.8152 37.6529H53.7528L53.6902 37.6531Z" fill="white"/>
<defs>
<linearGradient id="paint0_linear_290_6500" x1="5.98542" y1="27.0512" x2="5.98542" y2="68.9612" gradientUnits="userSpaceOnUse">
<stop stop-color="#CCE6FF"/>
<stop offset="1" stop-color="#1D98FF"/>
</linearGradient>
<linearGradient id="paint1_linear_290_6500" x1="11.292" y1="28.7396" x2="11.292" y2="55.6349" gradientUnits="userSpaceOnUse">
<stop stop-color="white"/>
<stop offset="1" stop-color="#A3D3FF"/>
</linearGradient>
<linearGradient id="paint2_linear_290_6500" x1="26.8454" y1="51.7318" x2="26.8454" y2="41.2021" gradientUnits="userSpaceOnUse">
<stop stop-color="#CCE6FF"/>
<stop offset="1" stop-color="#1D98FF"/>
</linearGradient>
</defs>
</svg>
