<svg width="64" height="64" viewBox="0 0 64 64" fill="none" xmlns="http://www.w3.org/2000/svg">
<path d="M5.52935 60.9182H13.0929C13.5609 60.9182 14.0098 60.7332 14.3407 60.4037C14.6717 60.0743 14.8576 59.6275 14.8576 59.1616V46.3136C14.8576 45.8477 14.6717 45.4009 14.3407 45.0714C14.0098 44.742 13.5609 44.5569 13.0929 44.5569H5.52935C5.06133 44.5569 4.61247 44.742 4.28152 45.0714C3.95057 45.4009 3.76465 45.8477 3.76465 46.3136V59.1616C3.76465 59.6275 3.95057 60.0743 4.28152 60.4037C4.61247 60.7332 5.06133 60.9182 5.52935 60.9182ZM7.29406 48.0684H11.3282V57.4032H7.29406V48.0684ZM49.1423 6.46251V59.1616C49.1423 59.6275 49.3282 60.0743 49.6592 60.4037C49.9901 60.7332 50.439 60.9182 50.907 60.9182H58.4705C58.9386 60.9182 59.3874 60.7332 59.7184 60.4037C60.0493 60.0743 60.2352 59.6275 60.2352 59.1616V6.46251C60.2352 5.99662 60.0493 5.54981 59.7184 5.22038C59.3874 4.89095 58.9386 4.70587 58.4705 4.70587H50.907C50.439 4.70587 49.9901 4.89095 49.6592 5.22038C49.3282 5.54981 49.1423 5.99662 49.1423 6.46251ZM52.6717 8.21914H56.7058V57.405H52.6717V8.21914ZM28.2129 33.0685H20.6494C20.1813 33.0685 19.7325 33.2536 19.4015 33.583C19.0706 33.9125 18.8846 34.3593 18.8846 34.8252V59.4181C18.8846 59.884 19.0706 60.3308 19.4015 60.6602C19.7325 60.9896 20.1813 61.1747 20.6494 61.1747H28.2129C28.6809 61.1747 29.1298 60.9896 29.4607 60.6602C29.7917 60.3308 29.9776 59.884 29.9776 59.4181V34.8252C29.9776 34.3593 29.7917 33.9125 29.4607 33.583C29.1298 33.2536 28.6809 33.0685 28.2129 33.0685ZM26.4482 57.6614H22.4141V36.5818H26.4482V57.6614ZM34.0117 23.1629V59.4198C34.0117 59.8857 34.1976 60.3325 34.5286 60.662C34.8595 60.9914 35.3084 61.1765 35.7764 61.1765H43.3399C43.808 61.1765 44.2568 60.9914 44.5878 60.662C44.9187 60.3325 45.1046 59.8857 45.1046 59.4198V23.1629C45.1046 22.697 44.9187 22.2502 44.5878 21.9207C44.2568 21.5913 43.808 21.4062 43.3399 21.4062H35.7764C35.3084 21.4062 34.8595 21.5913 34.5286 21.9207C34.1976 22.2502 34.0117 22.697 34.0117 23.1629ZM37.5411 24.9195H41.5752V57.6632H37.5411V24.9195Z" fill="#4DAEEB"/>
</svg>
