<svg width="24" height="24" viewBox="0 0 24 24" fill="none" xmlns="http://www.w3.org/2000/svg">
<path fill-rule="evenodd" clip-rule="evenodd" d="M12.9502 7.54932L5.35139 15.1476L5.00413 18.2708C4.95764 18.6886 5.31065 19.0419 5.72846 18.9957L8.84948 18.6512L16.4508 11.0499L12.9502 7.54932ZM12.9502 8.96351L15.0366 11.0499L8.39069 17.6957L6.04544 17.9546L6.3065 15.6067L12.9502 8.96351ZM18.6158 8.88507C19.1285 8.3721 19.1285 7.54085 18.6158 7.02815L16.9722 5.38452C16.4595 4.87183 15.628 4.87183 15.1153 5.38452L13.569 6.93081L17.0694 10.4312L18.6158 8.88507ZM17.9086 8.17815L17.0696 9.01714L17.9086 8.17815ZM17.0696 9.01714L14.9832 6.93081L15.8224 6.09163C15.9446 5.96946 16.1429 5.96946 16.2651 6.09163L17.9087 7.73526C18.0307 7.85726 18.0309 8.05554 17.9086 8.17815" fill="#004897"/>
</svg>
