<svg width="24" height="24" viewBox="0 0 24 24" fill="none" xmlns="http://www.w3.org/2000/svg">
<path fill-rule="evenodd" clip-rule="evenodd" d="M7.55494 7.5612C7.79728 7.3154 8.19299 7.31259 8.4388 7.55494L12 11.066L15.5612 7.55494C15.807 7.31259 16.2027 7.3154 16.4451 7.5612C16.6874 7.80701 16.6846 8.20272 16.4388 8.44507L12.8839 11.9499L16.445 15.5612C16.6874 15.8069 16.6846 16.2027 16.4388 16.445C16.1931 16.6874 15.7973 16.6846 15.555 16.4388L12 12.8338L8.44502 16.4388C8.20266 16.6846 7.80694 16.6874 7.56116 16.445C7.31538 16.2027 7.31261 15.8069 7.55498 15.5612L11.1161 11.9499L7.5612 8.44506C7.3154 8.20272 7.3126 7.80701 7.55494 7.5612Z" fill="#004897"/>
</svg>
