<svg width="24" height="24" viewBox="0 0 24 24" fill="none" xmlns="http://www.w3.org/2000/svg">
<path d="M6.68633 17.4853L6.19347 17.4011C6.16556 17.5644 6.22035 17.7309 6.33977 17.8457C6.45919 17.9606 6.62773 18.0088 6.78981 17.9745L6.68633 17.4853ZM16.5616 7.60992L16.2142 7.96946L16.5616 7.60992ZM7.21575 14.3874L6.72289 14.3032L7.21575 14.3874ZM14.0769 6.55909C14.0742 6.56181 14.0715 6.56454 14.0688 6.56727C14.066 6.57 14.0633 6.57274 14.0605 6.57549C14.0578 6.57824 14.055 6.58099 14.0523 6.58375C14.0495 6.58651 14.0468 6.58928 14.044 6.59206C14.0412 6.59483 14.0384 6.59761 14.0356 6.6004C14.0328 6.60319 14.0301 6.60598 14.0273 6.60879C14.0244 6.61159 14.0216 6.6144 14.0188 6.61721C14.016 6.62003 14.0132 6.62285 14.0104 6.62568C14.0075 6.62851 14.0047 6.63134 14.0019 6.63419C13.999 6.63703 13.9962 6.63988 13.9933 6.64273C13.9904 6.64559 13.9876 6.64845 13.9847 6.65132C13.9818 6.65419 13.979 6.65707 13.9761 6.65995C13.9732 6.66283 13.9703 6.66572 13.9674 6.66862C13.9645 6.67151 13.9616 6.67441 13.9587 6.67732C13.9558 6.68023 13.9529 6.68315 13.95 6.68607C13.947 6.68899 13.9441 6.69192 13.9412 6.69486C13.9382 6.69779 13.9353 6.70074 13.9324 6.70369C13.9294 6.70663 13.9264 6.70959 13.9235 6.71255C13.9205 6.71551 13.9176 6.71848 13.9146 6.72146C13.9116 6.72443 13.9086 6.72741 13.9056 6.7304C13.9026 6.73339 13.8997 6.73639 13.8967 6.73939C13.8937 6.74239 13.8906 6.7454 13.8876 6.74841C13.8846 6.75142 13.8816 6.75444 13.8786 6.75747C13.8755 6.7605 13.8725 6.76353 13.8695 6.76657C13.8664 6.76961 13.8634 6.77266 13.8603 6.77571C13.8573 6.77876 13.8542 6.78182 13.8511 6.78489C13.8481 6.78795 13.845 6.79103 13.8419 6.7941C13.8389 6.79718 13.8358 6.80027 13.8327 6.80336C13.8296 6.80645 13.8265 6.80955 13.8234 6.81265C13.8203 6.81575 13.8172 6.81886 13.8141 6.82198C13.8109 6.8251 13.8078 6.82822 13.8047 6.83135C13.8016 6.83448 13.7984 6.83761 13.7953 6.84075C13.7921 6.8439 13.789 6.84704 13.7858 6.8502C13.7827 6.85335 13.7795 6.85651 13.7764 6.85968C13.7732 6.86285 13.77 6.86602 13.7668 6.8692C13.7637 6.87238 13.7605 6.87556 13.7573 6.87875C13.7541 6.88195 13.7509 6.88514 13.7477 6.88835C13.7445 6.89155 13.7413 6.89476 13.7381 6.89798C13.7348 6.90119 13.7316 6.90442 13.7284 6.90764C13.7252 6.91087 13.7219 6.91411 13.7187 6.91735C13.7154 6.92059 13.7122 6.92384 13.7089 6.92709C13.7057 6.93034 13.7024 6.9336 13.6992 6.93687C13.6959 6.94013 13.6926 6.9434 13.6894 6.94668C13.6861 6.94996 13.6828 6.95324 13.6795 6.95653C13.6762 6.95982 13.6729 6.96311 13.6696 6.96641C13.6663 6.96972 13.663 6.97302 13.6597 6.97634C13.6564 6.97965 13.6531 6.98297 13.6497 6.98629C13.6464 6.98962 13.6431 6.99295 13.6397 6.99629C13.6364 6.99963 13.6331 7.00297 13.6297 7.00632C13.6264 7.00967 13.623 7.01302 13.6197 7.01638C13.6163 7.01974 13.6129 7.02311 13.6096 7.02648C13.6062 7.02986 13.6028 7.03324 13.5994 7.03662C13.596 7.04001 13.5926 7.0434 13.5892 7.04679C13.5858 7.05019 13.5824 7.05359 13.579 7.057C13.5756 7.06041 13.5722 7.06382 13.5688 7.06724C13.5654 7.07066 13.562 7.07409 13.5585 7.07752C13.5551 7.08095 13.5517 7.08439 13.5482 7.08783C13.5448 7.09127 13.5413 7.09472 13.5379 7.09817C13.5344 7.10163 13.5309 7.10509 13.5275 7.10855C13.524 7.11202 13.5205 7.11549 13.5171 7.11897C13.5136 7.12245 13.5101 7.12593 13.5066 7.12942C13.5031 7.13291 13.4996 7.1364 13.4961 7.1399C13.4926 7.1434 13.4891 7.14691 13.4856 7.15042C13.4821 7.15393 13.4786 7.15745 13.4751 7.16097C13.4715 7.16449 13.468 7.16802 13.4645 7.17156C13.4609 7.17509 13.4574 7.17863 13.4539 7.18217C13.4503 7.18572 13.4468 7.18927 13.4432 7.19283C13.4397 7.19638 13.4361 7.19995 13.4325 7.20351C13.429 7.20708 13.4254 7.21065 13.4218 7.21423C13.4182 7.21781 13.4146 7.22139 13.4111 7.22498C13.4075 7.22857 13.4039 7.23217 13.4003 7.23577C13.3967 7.23937 13.3931 7.24298 13.3894 7.24659C13.3858 7.2502 13.3822 7.25382 13.3786 7.25744C13.375 7.26106 13.3713 7.26469 13.3677 7.26832C13.3641 7.27196 13.3604 7.2756 13.3568 7.27924C13.3532 7.28289 13.3495 7.28654 13.3458 7.29019C13.3422 7.29385 13.3385 7.29751 13.3349 7.30117C13.3312 7.30484 13.3275 7.30851 13.3239 7.31219C13.3202 7.31586 13.3165 7.31954 13.3128 7.32323C13.3091 7.32692 13.3054 7.33061 13.3017 7.33431C13.298 7.33801 13.2943 7.34171 13.2906 7.34542C13.2869 7.34913 13.2832 7.35284 13.2795 7.35656C13.2758 7.36028 13.272 7.36401 13.2683 7.36774C13.2646 7.37146 13.2608 7.3752 13.2571 7.37894C13.2534 7.38268 13.2496 7.38643 13.2459 7.39018C13.2421 7.39393 13.2384 7.39768 13.2346 7.40144C13.2308 7.40521 13.2271 7.40897 13.2233 7.41274C13.2195 7.41651 13.2157 7.42029 13.212 7.42407C13.2082 7.42785 13.2044 7.43164 13.2006 7.43543C13.1968 7.43923 13.193 7.44302 13.1892 7.44683C13.1854 7.45063 13.1816 7.45444 13.1778 7.45825C13.174 7.46206 13.1702 7.46588 13.1663 7.4697C13.1625 7.47352 13.1587 7.47735 13.1549 7.48118C13.151 7.48502 13.1472 7.48886 13.1433 7.4927C13.1395 7.49654 13.1356 7.50039 13.1318 7.50424C13.1279 7.5081 13.1241 7.51195 13.1202 7.51582C13.1164 7.51968 13.1125 7.52355 13.1086 7.52742C13.1047 7.53129 13.1009 7.53517 13.097 7.53906C13.0931 7.54294 13.0892 7.54683 13.0853 7.55072C13.0814 7.55461 13.0775 7.55851 13.0736 7.56241C13.0697 7.56632 13.0658 7.57022 13.0619 7.57414C13.058 7.57805 13.0541 7.58197 13.0501 7.58589C13.0462 7.58981 13.0423 7.59374 13.0384 7.59767C13.0344 7.6016 13.0305 7.60554 13.0266 7.60948C13.0226 7.61342 13.0187 7.61737 13.0147 7.62132C13.0108 7.62527 13.0068 7.62923 13.0028 7.63319C12.9989 7.63715 12.9949 7.64112 12.991 7.64509C12.987 7.64906 12.983 7.65303 12.979 7.65701C12.975 7.66099 12.9711 7.66498 12.9671 7.66897C12.9631 7.67296 12.9591 7.67695 12.9551 7.68095C12.9511 7.68495 12.9471 7.68895 12.9431 7.69296C12.9391 7.69697 12.9351 7.70098 12.931 7.705C12.927 7.70902 12.923 7.71304 12.919 7.71707C12.9149 7.7211 12.9109 7.72513 12.9069 7.72916C12.9028 7.7332 12.8988 7.73724 12.8947 7.74129C12.8907 7.74533 12.8867 7.74938 12.8826 7.75344C12.8785 7.75749 12.8745 7.76155 12.8704 7.76562C12.8664 7.76968 12.8623 7.77375 12.8582 7.77782C12.8541 7.7819 12.8501 7.78598 12.846 7.79006C12.8419 7.79414 12.8378 7.79823 12.8337 7.80232C12.8296 7.80641 12.8255 7.81051 12.8214 7.81461C12.8173 7.81871 12.8132 7.82281 12.8091 7.82692C12.805 7.83103 12.8009 7.83515 12.7968 7.83926C12.7927 7.84338 12.7885 7.84751 12.7844 7.85163C12.7803 7.85576 12.7761 7.85989 12.772 7.86403C12.7679 7.86816 12.7637 7.87231 12.7596 7.87645C12.7554 7.8806 12.7513 7.88474 12.7471 7.8889C12.743 7.89305 12.7388 7.89721 12.7347 7.90137C12.7305 7.90554 12.7263 7.9097 12.7222 7.91387C12.718 7.91805 12.7138 7.92222 12.7096 7.9264C12.7055 7.93058 12.7013 7.93476 12.6971 7.93895C12.6929 7.94314 12.6887 7.94733 12.6845 7.95153C12.6803 7.95573 12.6761 7.95993 12.6719 7.96414C12.6677 7.96834 12.6635 7.97255 12.6593 7.97677C12.6551 7.98098 12.6508 7.9852 12.6466 7.98942C12.6424 7.99364 12.6382 7.99787 12.6339 8.0021C12.6297 8.00633 12.6255 8.01057 12.6212 8.01481C12.617 8.01905 12.6127 8.02329 12.6085 8.02754C12.6043 8.03179 12.6 8.03604 12.5957 8.04029C12.5915 8.04455 12.5872 8.04881 12.583 8.05307C12.5787 8.05734 12.5744 8.06161 12.5702 8.06588C12.5659 8.07015 12.5616 8.07443 12.5573 8.07871C12.553 8.08299 12.5488 8.08727 12.5445 8.09156C12.5402 8.09585 12.5359 8.10015 12.5316 8.10444C12.5273 8.10874 12.523 8.11304 12.5187 8.11735C12.5144 8.12165 12.5101 8.12596 12.5058 8.13027C12.5015 8.13459 12.4971 8.1389 12.4928 8.14322C12.4885 8.14754 12.4842 8.15187 12.4798 8.1562C12.4755 8.16053 12.4712 8.16486 12.4668 8.1692C12.4625 8.17353 12.4582 8.17787 12.4538 8.18222C12.4495 8.18656 12.4451 8.19091 12.4408 8.19527C12.4364 8.19962 12.4321 8.20397 12.4277 8.20833C12.4233 8.2127 12.419 8.21706 12.4146 8.22143C12.4102 8.2258 12.4059 8.23017 12.4015 8.23454C12.3971 8.23892 12.3927 8.2433 12.3884 8.24768C12.384 8.25207 12.3796 8.25645 12.3752 8.26084C12.3708 8.26523 12.3664 8.26963 12.362 8.27403C12.3576 8.27843 12.3532 8.28283 12.3488 8.28724C12.3444 8.29164 12.34 8.29605 12.3356 8.30047C12.3312 8.30488 12.3267 8.3093 12.3223 8.31372C12.3179 8.31814 12.3135 8.32256 12.309 8.32699C12.3046 8.33142 12.3002 8.33585 12.2957 8.34029C12.2913 8.34473 12.2869 8.34917 12.2824 8.35361C12.278 8.35805 12.2735 8.3625 12.2691 8.36695C12.2646 8.3714 12.2602 8.37585 12.2557 8.38031C12.2513 8.38477 12.2468 8.38923 12.2423 8.3937C12.2379 8.39816 12.2334 8.40263 12.2289 8.4071C12.2245 8.41157 12.22 8.41605 12.2155 8.42053C12.211 8.42501 12.2065 8.42949 12.2021 8.43398C12.1976 8.43847 12.1931 8.44296 12.1886 8.44745C12.1841 8.45194 12.1796 8.45644 12.1751 8.46094C12.1706 8.46544 12.1661 8.46995 12.1616 8.47445C12.1571 8.47896 12.1526 8.48347 12.1481 8.48799C12.1435 8.4925 12.139 8.49702 12.1345 8.50154C12.13 8.50606 12.1255 8.51059 12.1209 8.51512C12.1164 8.51964 12.1119 8.52418 12.1073 8.52871C12.1028 8.53325 12.0983 8.53778 12.0937 8.54233C12.0892 8.54687 12.0846 8.55141 12.0801 8.55596C12.0755 8.56051 12.071 8.56506 12.0664 8.56962C12.0619 8.57417 12.0573 8.57873 12.0527 8.58329C12.0482 8.58786 12.0436 8.59242 12.039 8.59699C12.0345 8.60156 12.0299 8.60613 12.0253 8.61071C12.0208 8.61528 12.0162 8.61986 12.0116 8.62444C12.007 8.62902 12.0024 8.63361 11.9978 8.6382C11.9933 8.64279 11.9887 8.64738 11.9841 8.65197C11.9795 8.65657 11.9749 8.66116 11.9703 8.66577C11.9657 8.67037 11.9611 8.67497 11.9565 8.67958C11.9519 8.68419 11.9472 8.6888 11.9426 8.69341C11.938 8.69803 11.9334 8.70264 11.9288 8.70726C11.9242 8.71188 11.9195 8.71651 11.9149 8.72113C11.9103 8.72576 11.9056 8.73039 11.901 8.73502C11.8964 8.73966 11.8917 8.74429 11.8871 8.74893C11.8825 8.75357 11.8778 8.75821 11.8732 8.76286C11.8685 8.7675 11.8639 8.77215 11.8592 8.7768C11.8546 8.78145 11.8499 8.78611 11.8453 8.79076C11.8406 8.79542 11.836 8.80008 11.8313 8.80474C11.8266 8.80941 11.822 8.81407 11.8173 8.81874C11.8126 8.82341 11.808 8.82808 11.8033 8.83276C11.7986 8.83743 11.7939 8.84211 11.7892 8.84679C11.7846 8.85147 11.7799 8.85616 11.7752 8.86085C11.7705 8.86553 11.7658 8.87022 11.7611 8.87492C11.7564 8.87961 11.7517 8.8843 11.747 8.889C11.7423 8.8937 11.7376 8.8984 11.7329 8.90311C11.7282 8.90781 11.7235 8.91252 11.7188 8.91723C11.7141 8.92194 11.7094 8.92665 11.7047 8.93137C11.7 8.93608 11.6952 8.9408 11.6905 8.94552C11.6858 8.95025 11.6811 8.95497 11.6763 8.9597C11.6716 8.96442 11.6669 8.96915 11.6622 8.97389C11.6574 8.97862 11.6527 8.98335 11.6479 8.98809C11.6432 8.99283 11.6385 8.99757 11.6337 9.00231C11.629 9.00706 11.6242 9.0118 11.6195 9.01655C11.6147 9.0213 11.61 9.02605 11.6052 9.03081C11.6005 9.03556 11.5957 9.04032 11.591 9.04508C11.5862 9.04984 11.5814 9.0546 11.5767 9.05937C11.5719 9.06413 11.5671 9.0689 11.5624 9.07367C11.5576 9.07844 11.5528 9.08321 11.5481 9.08799C11.5433 9.09276 11.5385 9.09754 11.5337 9.10232C11.5289 9.1071 11.5242 9.11188 11.5194 9.11667C11.5146 9.12146 11.5098 9.12624 11.505 9.13104C11.5002 9.13583 11.4954 9.14062 11.4906 9.14542C11.4858 9.15021 11.481 9.15501 11.4762 9.15981C11.4714 9.16461 11.4666 9.16942 11.4618 9.17422C11.457 9.17903 11.4522 9.18384 11.4474 9.18865C11.4426 9.19346 11.4378 9.19827 11.4329 9.20309C11.4281 9.2079 11.4233 9.21272 11.4185 9.21754C11.4137 9.22236 11.4089 9.22719 11.404 9.23201C11.3992 9.23684 11.3944 9.24167 11.3895 9.2465C11.3847 9.25133 11.3799 9.25616 11.375 9.26099C11.3702 9.26583 11.3654 9.27067 11.3605 9.27551C11.3557 9.28035 11.3508 9.28519 11.346 9.29003C11.3412 9.29488 11.3363 9.29972 11.3315 9.30457C11.3266 9.30942 11.3218 9.31427 11.3169 9.31913C11.3121 9.32398 11.3072 9.32884 11.3023 9.3337C11.2975 9.33855 11.2926 9.34341 11.2878 9.34828C11.2829 9.35314 11.278 9.35801 11.2732 9.36287C11.2683 9.36774 11.2634 9.37261 11.2586 9.37748C11.2537 9.38235 11.2488 9.38723 11.2439 9.3921C11.2391 9.39698 11.2342 9.40186 11.2293 9.40674C11.2244 9.41162 11.2195 9.4165 11.2147 9.42139C11.2098 9.42627 11.2049 9.43116 11.2 9.43605C11.1951 9.44093 11.1902 9.44583 11.1853 9.45072C11.1804 9.45561 11.1755 9.46051 11.1706 9.46541C11.1657 9.4703 11.1608 9.4752 11.1559 9.4801C11.151 9.48501 11.1461 9.48991 11.1412 9.49481C11.1363 9.49972 11.1314 9.50463 11.1265 9.50954C11.1216 9.51445 11.1167 9.51936 11.1118 9.52427C11.1068 9.52919 11.1019 9.5341 11.097 9.53902C11.0921 9.54394 11.0872 9.54886 11.0823 9.55378C11.0773 9.5587 11.0724 9.56363 11.0675 9.56855C11.0626 9.57348 11.0576 9.5784 11.0527 9.58333C11.0478 9.58826 11.0428 9.5932 11.0379 9.59813C11.033 9.60306 11.028 9.608 11.0231 9.61293C11.0182 9.61787 11.0132 9.62281 11.0083 9.62775C11.0033 9.63269 10.9984 9.63764 10.9935 9.64258C10.9885 9.64752 10.9836 9.65247 10.9786 9.65742C10.9737 9.66237 10.9687 9.66732 10.9638 9.67227C10.9588 9.67722 10.9539 9.68218 10.9489 9.68713C10.944 9.69209 10.939 9.69704 10.934 9.702C10.9291 9.70696 10.9241 9.71192 10.9192 9.71689C10.9142 9.72185 10.9092 9.72681 10.9043 9.73178C10.8993 9.73675 10.8943 9.74171 10.8894 9.74668C10.8844 9.75165 10.8794 9.75662 10.8744 9.7616C10.8695 9.76657 10.8645 9.77154 10.8595 9.77652C10.8545 9.7815 10.8496 9.78647 10.8446 9.79145C10.8396 9.79643 10.8346 9.80141 10.8296 9.8064C10.8247 9.81138 10.8197 9.81636 10.8147 9.82135C10.8097 9.82634 10.8047 9.83132 10.7997 9.83631C10.7947 9.8413 10.7897 9.84629 10.7848 9.85129C10.7798 9.85628 10.7748 9.86127 10.7698 9.86627C10.7648 9.87126 10.7598 9.87626 10.7548 9.88126C10.7498 9.88626 10.7448 9.89126 10.7398 9.89626C10.7348 9.90126 10.7298 9.90627 10.7248 9.91127C10.7198 9.91627 10.7148 9.92128 10.7097 9.92629C10.7047 9.9313 10.6997 9.93631 10.6947 9.94132C10.6897 9.94633 10.6847 9.95134 10.6797 9.95635C10.6747 9.96137 10.6697 9.96638 10.6646 9.9714C10.6596 9.97641 10.6546 9.98143 10.6496 9.98645C10.6446 9.99147 10.6395 9.99649 10.6345 10.0015C10.6295 10.0065 10.6245 10.0116 10.6195 10.0166C10.6144 10.0216 10.6094 10.0266 10.6044 10.0317C10.5994 10.0367 10.5943 10.0417 10.5893 10.0467C10.5843 10.0518 10.5792 10.0568 10.5742 10.0618C10.5692 10.0669 10.5641 10.0719 10.5591 10.0769C10.5541 10.082 10.549 10.087 10.544 10.092C10.539 10.0971 10.5339 10.1021 10.5289 10.1072C10.5238 10.1122 10.5188 10.1172 10.5138 10.1223C10.5087 10.1273 10.5037 10.1324 10.4986 10.1374C10.4936 10.1425 10.4885 10.1475 10.4835 10.1526C10.4784 10.1576 10.4734 10.1627 10.4683 10.1677C10.4633 10.1728 10.4582 10.1778 10.4532 10.1829C10.4481 10.1879 10.4431 10.193 10.438 10.198C10.433 10.2031 10.4279 10.2081 10.4229 10.2132C10.4178 10.2182 10.4127 10.2233 10.4077 10.2283C10.4026 10.2334 10.3976 10.2385 10.3925 10.2435C10.3874 10.2486 10.3824 10.2536 10.3773 10.2587C10.3723 10.2638 10.3672 10.2688 10.3621 10.2739C10.3571 10.279 10.352 10.284 10.3469 10.2891C10.3419 10.2942 10.3368 10.2992 10.3317 10.3043C10.3267 10.3094 10.3216 10.3144 10.3165 10.3195C10.3115 10.3246 10.3064 10.3297 10.3013 10.3347C10.2962 10.3398 10.2912 10.3449 10.2861 10.3499C10.281 10.355 10.2759 10.3601 10.2709 10.3652C10.2658 10.3702 10.2607 10.3753 10.2556 10.3804C10.2506 10.3855 10.2455 10.3906 10.2404 10.3956C10.2353 10.4007 10.2302 10.4058 10.2252 10.4109C10.2201 10.416 10.215 10.421 10.2099 10.4261C10.2048 10.4312 10.1997 10.4363 10.1947 10.4414C10.1896 10.4465 10.1845 10.4515 10.1794 10.4566C10.1743 10.4617 10.1692 10.4668 10.1641 10.4719C10.1591 10.477 10.154 10.4821 10.1489 10.4872C10.1438 10.4922 10.1387 10.4973 10.1336 10.5024C10.1285 10.5075 10.1234 10.5126 10.1183 10.5177C10.1132 10.5228 10.1082 10.5279 10.1031 10.533C10.098 10.5381 10.0929 10.5432 10.0878 10.5483C10.0827 10.5534 10.0776 10.5584 10.0725 10.5635C10.0674 10.5686 10.0623 10.5737 10.0572 10.5788C10.0521 10.5839 10.047 10.589 10.0419 10.5941C10.0368 10.5992 10.0317 10.6043 10.0266 10.6094C10.0215 10.6145 10.0164 10.6196 10.0113 10.6247C10.0062 10.6298 10.0011 10.6349 9.99601 10.64C9.99091 10.6451 9.98581 10.6502 9.98071 10.6553C9.9756 10.6604 9.9705 10.6655 9.9654 10.6706C9.96029 10.6757 9.95519 10.6808 9.95008 10.686C9.94498 10.6911 9.93987 10.6962 9.93477 10.7013C9.92966 10.7064 9.92456 10.7115 9.91945 10.7166C9.91434 10.7217 9.90924 10.7268 9.90413 10.7319C9.89902 10.737 9.89392 10.7421 9.88881 10.7472C9.8837 10.7523 9.87859 10.7574 9.87348 10.7626C9.86837 10.7677 9.86326 10.7728 9.85816 10.7779C9.85305 10.783 9.84794 10.7881 9.84283 10.7932C9.83772 10.7983 9.8326 10.8034 9.82749 10.8085C9.82238 10.8137 9.81727 10.8188 9.81216 10.8239C9.80705 10.829 9.80194 10.8341 9.79683 10.8392C9.79171 10.8443 9.7866 10.8494 9.78149 10.8545C9.77638 10.8597 9.77126 10.8648 9.76615 10.8699C9.76104 10.875 9.75592 10.8801 9.75081 10.8852C9.7457 10.8903 9.74058 10.8955 9.73547 10.9006C9.73036 10.9057 9.72524 10.9108 9.72013 10.9159C9.71501 10.921 9.7099 10.9261 9.70478 10.9313C9.69967 10.9364 9.69455 10.9415 9.68944 10.9466C9.68432 10.9517 9.67921 10.9568 9.6741 10.9619C9.66898 10.9671 9.66386 10.9722 9.65875 10.9773C9.65363 10.9824 9.64852 10.9875 9.6434 10.9926C9.63829 10.9977 9.63317 11.0029 9.62806 11.008C9.62294 11.0131 9.61783 11.0182 9.61271 11.0233C9.60759 11.0284 9.60248 11.0336 9.59736 11.0387C9.59225 11.0438 9.58713 11.0489 9.58202 11.054C9.5769 11.0591 9.57178 11.0643 9.56667 11.0694C9.56155 11.0745 9.55644 11.0796 9.55132 11.0847C9.54621 11.0898 9.54109 11.0949 9.53598 11.1001C9.53086 11.1052 9.52574 11.1103 9.52063 11.1154C9.51551 11.1205 9.5104 11.1256 9.50528 11.1308C9.50017 11.1359 9.49505 11.141 9.48994 11.1461C9.48482 11.1512 9.47971 11.1563 9.47459 11.1614C9.46948 11.1666 9.46436 11.1717 9.45925 11.1768C9.45414 11.1819 9.44902 11.187 9.44391 11.1921C9.43879 11.1972 9.43368 11.2024 9.42857 11.2075C9.42345 11.2126 9.41834 11.2177 9.41323 11.2228C9.40811 11.2279 9.403 11.233 9.39789 11.2381C9.39278 11.2433 9.38766 11.2484 9.38255 11.2535C9.37744 11.2586 9.37233 11.2637 9.36722 11.2688C9.3621 11.2739 9.35699 11.279 9.35188 11.2842C9.34677 11.2893 9.34166 11.2944 9.33655 11.2995C9.33144 11.3046 9.32633 11.3097 9.32122 11.3148C9.31611 11.3199 9.311 11.325 9.30589 11.3301C9.30078 11.3353 9.29567 11.3404 9.29057 11.3455C9.28546 11.3506 9.28035 11.3557 9.27524 11.3608C9.27013 11.3659 9.26503 11.371 9.25992 11.3761C9.25481 11.3812 9.24971 11.3863 9.2446 11.3914C9.2395 11.3965 9.23439 11.4016 9.22929 11.4068C9.22418 11.4119 9.21908 11.417 9.21397 11.4221C9.20887 11.4272 9.20377 11.4323 9.19866 11.4374C9.19356 11.4425 9.18846 11.4476 9.18336 11.4527C9.17825 11.4578 9.17315 11.4629 9.16805 11.468C9.16295 11.4731 9.15785 11.4782 9.15275 11.4833C9.14765 11.4884 9.14255 11.4935 9.13746 11.4986C9.13236 11.5037 9.12726 11.5088 9.12216 11.5139C9.11706 11.519 9.11197 11.5241 9.10687 11.5292C9.10178 11.5343 9.09668 11.5394 9.09159 11.5445C9.08649 11.5495 9.0814 11.5546 9.0763 11.5597C9.07121 11.5648 9.06612 11.5699 9.06102 11.575C9.05593 11.5801 9.05084 11.5852 9.04575 11.5903C9.04066 11.5954 9.03557 11.6005 9.03048 11.6056C9.02539 11.6106 9.0203 11.6157 9.01521 11.6208C9.01013 11.6259 9.00504 11.631 8.99995 11.6361C8.99487 11.6412 8.98978 11.6463 8.9847 11.6513C8.97961 11.6564 8.97453 11.6615 8.96944 11.6666C8.96436 11.6717 8.95928 11.6768 8.9542 11.6818C8.94912 11.6869 8.94403 11.692 8.93895 11.6971C8.93387 11.7022 8.9288 11.7072 8.92372 11.7123C8.91864 11.7174 8.91356 11.7225 8.90849 11.7276C8.90341 11.7326 8.89833 11.7377 8.89326 11.7428C8.88818 11.7479 8.88311 11.7529 8.87804 11.758C8.87297 11.7631 8.86789 11.7681 8.86282 11.7732C8.85775 11.7783 8.85268 11.7834 8.84761 11.7884C8.84254 11.7935 8.83748 11.7986 8.83241 11.8036C8.82734 11.8087 8.82228 11.8138 8.81721 11.8188C8.81215 11.8239 8.80708 11.829 8.80202 11.834C8.79696 11.8391 8.79189 11.8441 8.78683 11.8492C8.78177 11.8543 8.77671 11.8593 8.77165 11.8644C8.76659 11.8694 8.76154 11.8745 8.75648 11.8796C8.75142 11.8846 8.74637 11.8897 8.74131 11.8947C8.73626 11.8998 8.7312 11.9048 8.72615 11.9099C8.7211 11.9149 8.71605 11.92 8.711 11.925C8.70595 11.9301 8.7009 11.9351 8.69585 11.9402C8.6908 11.9452 8.68576 11.9503 8.68071 11.9553C8.67567 11.9604 8.67062 11.9654 8.66558 11.9705C8.66054 11.9755 8.65549 11.9805 8.65045 11.9856C8.64541 11.9906 8.64037 11.9957 8.63534 12.0007C8.6303 12.0057 8.62526 12.0108 8.62023 12.0158C8.61519 12.0208 8.61016 12.0259 8.60512 12.0309C8.60009 12.0359 8.59506 12.041 8.59003 12.046C8.585 12.051 8.57997 12.0561 8.57494 12.0611C8.56991 12.0661 8.56489 12.0712 8.55986 12.0762C8.55484 12.0812 8.54981 12.0862 8.54479 12.0912C8.53977 12.0963 8.53475 12.1013 8.52973 12.1063C8.52471 12.1113 8.51969 12.1163 8.51467 12.1214C8.50965 12.1264 8.50464 12.1314 8.49962 12.1364C8.49461 12.1414 8.4896 12.1464 8.48459 12.1514C8.47958 12.1565 8.47457 12.1615 8.46956 12.1665C8.46455 12.1715 8.45954 12.1765 8.45454 12.1815C8.44953 12.1865 8.44453 12.1915 8.43953 12.1965C8.43452 12.2015 8.42952 12.2065 8.42452 12.2115C8.41952 12.2165 8.41453 12.2215 8.40953 12.2265C8.40453 12.2315 8.39954 12.2365 8.39455 12.2415C8.38955 12.2465 8.38456 12.2515 8.37957 12.2565C8.37458 12.2615 8.36959 12.2664 8.36461 12.2714C8.35962 12.2764 8.35463 12.2814 8.34965 12.2864C8.34467 12.2914 8.33968 12.2964 8.3347 12.3013C8.32972 12.3063 8.32475 12.3113 8.31977 12.3163C8.31479 12.3212 8.30982 12.3262 8.30484 12.3312C8.29987 12.3362 8.2949 12.3411 8.28993 12.3461C8.28496 12.3511 8.27999 12.356 8.27502 12.361C8.27005 12.366 8.26509 12.3709 8.26012 12.3759C8.25516 12.3809 8.2502 12.3858 8.24524 12.3908C8.24028 12.3958 8.23532 12.4007 8.23037 12.4057C8.22541 12.4106 8.22045 12.4156 8.2155 12.4205C8.21055 12.4255 8.2056 12.4304 8.20065 12.4354C8.1957 12.4403 8.19075 12.4453 8.18581 12.4502C8.18086 12.4552 8.17592 12.4601 8.17098 12.4651C8.16603 12.47 8.16109 12.4749 8.15616 12.4799C8.15122 12.4848 8.14628 12.4898 8.14135 12.4947C8.13641 12.4996 8.13148 12.5046 8.12655 12.5095C8.12162 12.5144 8.11669 12.5193 8.11177 12.5243C8.10684 12.5292 8.10191 12.5341 8.09699 12.539C8.09207 12.544 8.08715 12.5489 8.08223 12.5538C8.07731 12.5587 8.07239 12.5636 8.06748 12.5686C8.06256 12.5735 8.05765 12.5784 8.05274 12.5833C8.04783 12.5882 8.04292 12.5931 8.03801 12.598C8.03311 12.6029 8.0282 12.6078 8.0233 12.6127C8.0184 12.6176 8.0135 12.6225 8.0086 12.6274C8.0037 12.6323 7.99881 12.6372 7.99391 12.6421C7.98902 12.647 7.98413 12.6519 7.97923 12.6568C7.97434 12.6617 7.96946 12.6666 7.96457 12.6715C7.95969 12.6764 7.9548 12.6812 7.94992 12.6861C7.94504 12.691 7.94016 12.6959 7.93528 12.7008C7.93041 12.7056 7.92553 12.7105 7.92066 12.7154C7.91579 12.7203 7.91091 12.7251 7.90605 12.73C7.90118 12.7349 7.89631 12.7397 7.89145 12.7446C7.88659 12.7495 7.88172 12.7543 7.87686 12.7592C7.872 12.764 7.86715 12.7689 7.86229 12.7737C7.85744 12.7786 7.85259 12.7835 7.84774 12.7883C7.84289 12.7932 7.83804 12.798 7.83319 12.8028C7.82835 12.8077 7.8235 12.8125 7.81866 12.8174C7.81382 12.8222 7.80898 12.8271 7.80415 12.8319C7.79931 12.8367 7.79448 12.8416 7.78965 12.8464C7.78481 12.8512 7.77999 12.8561 7.77516 12.8609C7.77033 12.8657 7.76551 12.8705 7.76069 12.8754C7.75586 12.8802 7.75104 12.885 7.74623 12.8898C7.74141 12.8946 7.7366 12.8994 7.73178 12.9043C7.72697 12.9091 7.72216 12.9139 7.71735 12.9187C7.71255 12.9235 7.70774 12.9283 7.70294 12.9331C7.69814 12.9379 7.69334 12.9427 7.68854 12.9475C7.68374 12.9523 7.67895 12.9571 7.67416 12.9619C7.66937 12.9667 7.66458 12.9715 7.65979 12.9762C7.655 12.981 7.65022 12.9858 7.64544 12.9906C7.64065 12.9954 7.63588 13.0002 7.6311 13.0049C7.62632 13.0097 7.62155 13.0145 7.61678 13.0193C7.61201 13.024 7.60724 13.0288 7.60247 13.0336C7.5977 13.0383 7.59294 13.0431 7.58818 13.0479C7.58342 13.0526 7.57866 13.0574 7.57391 13.0621C7.56915 13.0669 7.5644 13.0716 7.55965 13.0764C7.5549 13.0811 7.55015 13.0859 7.5454 13.0906C7.54066 13.0954 7.53592 13.1001 7.53118 13.1049C7.52644 13.1096 7.5217 13.1143 7.51697 13.1191C7.51224 13.1238 7.5075 13.1285 7.50278 13.1333C7.49805 13.138 7.49332 13.1427 7.4886 13.1474C7.48388 13.1522 7.47916 13.1569 7.47444 13.1616C7.46972 13.1663 7.46501 13.171 7.4603 13.1757C7.45559 13.1804 7.45088 13.1852 7.44617 13.1899C7.44147 13.1946 7.43676 13.1993 7.43206 13.204C7.42736 13.2087 7.42267 13.2134 7.41797 13.2181C7.41328 13.2228 7.40859 13.2274 7.4039 13.2321C7.39921 13.2368 7.39453 13.2415 7.38984 13.2462C7.38516 13.2509 7.38048 13.2556 7.3758 13.2602C7.37113 13.2649 7.36645 13.2696 7.36178 13.2743C7.35711 13.2789 7.35245 13.2836 7.34778 13.2883C7.34312 13.2929 7.33845 13.2976 7.3338 13.3022C7.32914 13.3069 7.32448 13.3116 7.31983 13.3162C7.31518 13.3209 7.31053 13.3255 7.30588 13.3302C7.30123 13.3348 7.29659 13.3394 7.29195 13.3441C7.28731 13.3487 7.28267 13.3534 7.27804 13.358C7.2734 13.3626 7.26877 13.3673 7.26415 13.3719C7.25952 13.3765 7.25489 13.3811 7.25027 13.3858C7.24565 13.3904 7.24103 13.395 7.23642 13.3996C7.2318 13.4042 7.22719 13.4088 7.22258 13.4135C7.21797 13.4181 7.21336 13.4227 7.20876 13.4273C7.20416 13.4319 7.19956 13.4365 7.19496 13.4411C7.19037 13.4457 7.18577 13.4503 7.18118 13.4549C7.17659 13.4594 7.17201 13.464 7.16742 13.4686C7.16284 13.4732 7.15826 13.4778 7.15368 13.4824C7.14911 13.4869 7.14453 13.4915 7.13996 13.4961L7.84707 14.2032C7.85164 14.1986 7.85621 14.194 7.86079 14.1895C7.86537 14.1849 7.86995 14.1803 7.87453 14.1757C7.87911 14.1711 7.8837 14.1665 7.88829 14.162C7.89288 14.1574 7.89747 14.1528 7.90207 14.1482C7.90667 14.1436 7.91127 14.139 7.91587 14.1344C7.92047 14.1298 7.92508 14.1252 7.92969 14.1206C7.93429 14.116 7.93891 14.1113 7.94352 14.1067C7.94814 14.1021 7.95276 14.0975 7.95738 14.0929C7.962 14.0883 7.96662 14.0836 7.97125 14.079C7.97588 14.0744 7.98051 14.0697 7.98515 14.0651C7.98978 14.0605 7.99442 14.0558 7.99906 14.0512C8.0037 14.0466 8.00834 14.0419 8.01299 14.0373C8.01763 14.0326 8.02228 14.028 8.02694 14.0233C8.03159 14.0187 8.03624 14.014 8.0409 14.0093C8.04556 14.0047 8.05022 14 8.05489 13.9954C8.05955 13.9907 8.06422 13.986 8.06889 13.9814C8.07356 13.9767 8.07823 13.972 8.08291 13.9673C8.08759 13.9627 8.09227 13.958 8.09695 13.9533C8.10163 13.9486 8.10632 13.9439 8.11101 13.9392C8.11569 13.9346 8.12039 13.9299 8.12508 13.9252C8.12977 13.9205 8.13447 13.9158 8.13917 13.9111C8.14387 13.9064 8.14857 13.9017 8.15328 13.897C8.15798 13.8923 8.16269 13.8876 8.1674 13.8828C8.17212 13.8781 8.17683 13.8734 8.18155 13.8687C8.18626 13.864 8.19098 13.8593 8.19571 13.8545C8.20043 13.8498 8.20515 13.8451 8.20988 13.8404C8.21461 13.8356 8.21934 13.8309 8.22408 13.8262C8.22881 13.8214 8.23355 13.8167 8.23829 13.812C8.24302 13.8072 8.24777 13.8025 8.25251 13.7977C8.25726 13.793 8.262 13.7882 8.26675 13.7835C8.2715 13.7787 8.27626 13.774 8.28101 13.7692C8.28577 13.7645 8.29053 13.7597 8.29529 13.755C8.30005 13.7502 8.30481 13.7454 8.30958 13.7407C8.31434 13.7359 8.31911 13.7311 8.32388 13.7264C8.32865 13.7216 8.33343 13.7168 8.33821 13.712C8.34298 13.7073 8.34776 13.7025 8.35254 13.6977C8.35732 13.6929 8.36211 13.6881 8.3669 13.6834C8.37168 13.6786 8.37647 13.6738 8.38126 13.669C8.38606 13.6642 8.39085 13.6594 8.39565 13.6546C8.40045 13.6498 8.40525 13.645 8.41005 13.6402C8.41485 13.6354 8.41965 13.6306 8.42446 13.6258C8.42927 13.621 8.43408 13.6162 8.43889 13.6114C8.4437 13.6065 8.44852 13.6017 8.45333 13.5969C8.45815 13.5921 8.46297 13.5873 8.46779 13.5825C8.47261 13.5776 8.47744 13.5728 8.48226 13.568C8.48709 13.5632 8.49192 13.5583 8.49675 13.5535C8.50158 13.5487 8.50642 13.5438 8.51125 13.539C8.51609 13.5342 8.52093 13.5293 8.52577 13.5245C8.53061 13.5196 8.53545 13.5148 8.5403 13.51C8.54514 13.5051 8.54999 13.5003 8.55484 13.4954C8.55969 13.4906 8.56455 13.4857 8.5694 13.4809C8.57425 13.476 8.57911 13.4711 8.58397 13.4663C8.58883 13.4614 8.59369 13.4566 8.59856 13.4517C8.60342 13.4468 8.60829 13.442 8.61315 13.4371C8.61802 13.4322 8.62289 13.4274 8.62776 13.4225C8.63264 13.4176 8.63751 13.4127 8.64239 13.4079C8.64727 13.403 8.65215 13.3981 8.65703 13.3932C8.66191 13.3883 8.66679 13.3835 8.67168 13.3786C8.67656 13.3737 8.68145 13.3688 8.68634 13.3639C8.69123 13.359 8.69612 13.3541 8.70102 13.3492C8.70591 13.3443 8.71081 13.3394 8.71571 13.3345C8.72061 13.3296 8.72551 13.3247 8.73041 13.3198C8.73531 13.3149 8.74022 13.31 8.74512 13.3051C8.75003 13.3002 8.75494 13.2953 8.75985 13.2904C8.76476 13.2855 8.76967 13.2806 8.77459 13.2757C8.7795 13.2707 8.78442 13.2658 8.78934 13.2609C8.79425 13.256 8.79918 13.2511 8.8041 13.2462C8.80902 13.2412 8.81395 13.2363 8.81887 13.2314C8.8238 13.2265 8.82873 13.2215 8.83366 13.2166C8.83859 13.2117 8.84352 13.2067 8.84845 13.2018C8.85339 13.1969 8.85832 13.1919 8.86326 13.187C8.8682 13.182 8.87314 13.1771 8.87808 13.1722C8.88302 13.1672 8.88797 13.1623 8.89291 13.1573C8.89786 13.1524 8.90281 13.1474 8.90776 13.1425C8.9127 13.1375 8.91766 13.1326 8.92261 13.1276C8.92756 13.1227 8.93252 13.1177 8.93747 13.1128C8.94243 13.1078 8.94739 13.1029 8.95235 13.0979C8.95731 13.0929 8.96227 13.088 8.96723 13.083C8.97219 13.0781 8.97716 13.0731 8.98213 13.0681C8.98709 13.0632 8.99206 13.0582 8.99703 13.0532C9.002 13.0482 9.00698 13.0433 9.01195 13.0383C9.01692 13.0333 9.0219 13.0284 9.02687 13.0234C9.03185 13.0184 9.03683 13.0134 9.04181 13.0084C9.04679 13.0035 9.05177 12.9985 9.05676 12.9935C9.06174 12.9885 9.06673 12.9835 9.07171 12.9785C9.0767 12.9736 9.08169 12.9686 9.08668 12.9636C9.09167 12.9586 9.09666 12.9536 9.10165 12.9486C9.10665 12.9436 9.11164 12.9386 9.11664 12.9336C9.12163 12.9286 9.12663 12.9236 9.13163 12.9186C9.13663 12.9136 9.14163 12.9086 9.14663 12.9036C9.15163 12.8986 9.15664 12.8936 9.16164 12.8886C9.16665 12.8836 9.17166 12.8786 9.17666 12.8736C9.18167 12.8686 9.18668 12.8636 9.19169 12.8586C9.1967 12.8535 9.20172 12.8485 9.20673 12.8435C9.21175 12.8385 9.21676 12.8335 9.22178 12.8285C9.22679 12.8235 9.23181 12.8184 9.23683 12.8134C9.24185 12.8084 9.24687 12.8034 9.2519 12.7984C9.25692 12.7933 9.26194 12.7883 9.26697 12.7833C9.27199 12.7783 9.27702 12.7732 9.28205 12.7682C9.28707 12.7632 9.2921 12.7581 9.29713 12.7531C9.30216 12.7481 9.3072 12.7431 9.31223 12.738C9.31726 12.733 9.3223 12.728 9.32733 12.7229C9.33237 12.7179 9.3374 12.7128 9.34244 12.7078C9.34748 12.7028 9.35252 12.6977 9.35756 12.6927C9.3626 12.6876 9.36764 12.6826 9.37269 12.6776C9.37773 12.6725 9.38277 12.6675 9.38782 12.6624C9.39286 12.6574 9.39791 12.6523 9.40296 12.6473C9.40801 12.6422 9.41305 12.6372 9.41811 12.6321C9.42316 12.6271 9.42821 12.622 9.43326 12.617C9.43831 12.6119 9.44336 12.6069 9.44842 12.6018C9.45347 12.5968 9.45853 12.5917 9.46359 12.5867C9.46864 12.5816 9.4737 12.5765 9.47876 12.5715C9.48382 12.5664 9.48888 12.5614 9.49394 12.5563C9.499 12.5513 9.50406 12.5462 9.50912 12.5411C9.51419 12.5361 9.51925 12.531 9.52432 12.5259C9.52938 12.5209 9.53445 12.5158 9.53951 12.5107C9.54458 12.5057 9.54965 12.5006 9.55472 12.4955C9.55979 12.4905 9.56486 12.4854 9.56993 12.4803C9.575 12.4753 9.58007 12.4702 9.58514 12.4651C9.59022 12.46 9.59529 12.455 9.60037 12.4499C9.60544 12.4448 9.61052 12.4397 9.61559 12.4347C9.62067 12.4296 9.62575 12.4245 9.63082 12.4194C9.6359 12.4143 9.64098 12.4093 9.64606 12.4042C9.65114 12.3991 9.65622 12.394 9.6613 12.3889C9.66639 12.3839 9.67147 12.3788 9.67655 12.3737C9.68163 12.3686 9.68672 12.3635 9.6918 12.3584C9.69689 12.3534 9.70197 12.3483 9.70706 12.3432C9.71215 12.3381 9.71723 12.333 9.72232 12.3279C9.72741 12.3228 9.7325 12.3178 9.73759 12.3127C9.74268 12.3076 9.74777 12.3025 9.75286 12.2974C9.75795 12.2923 9.76304 12.2872 9.76813 12.2821C9.77322 12.277 9.77832 12.2719 9.78341 12.2668C9.7885 12.2617 9.7936 12.2567 9.79869 12.2516C9.80379 12.2465 9.80888 12.2414 9.81398 12.2363C9.81907 12.2312 9.82417 12.2261 9.82927 12.221C9.83436 12.2159 9.83946 12.2108 9.84456 12.2057C9.84966 12.2006 9.85476 12.1955 9.85986 12.1904C9.86496 12.1853 9.87006 12.1802 9.87516 12.1751C9.88026 12.17 9.88536 12.1649 9.89046 12.1598C9.89557 12.1547 9.90067 12.1496 9.90577 12.1445C9.91087 12.1394 9.91598 12.1343 9.92108 12.1292C9.92618 12.1241 9.93129 12.119 9.93639 12.1139C9.9415 12.1088 9.9466 12.1036 9.95171 12.0985C9.95682 12.0934 9.96192 12.0883 9.96703 12.0832C9.97213 12.0781 9.97724 12.073 9.98235 12.0679C9.98746 12.0628 9.99256 12.0577 9.99767 12.0526C10.0028 12.0475 10.0079 12.0424 10.013 12.0373C10.0181 12.0321 10.0232 12.027 10.0283 12.0219C10.0334 12.0168 10.0385 12.0117 10.0437 12.0066C10.0488 12.0015 10.0539 11.9964 10.059 11.9913C10.0641 11.9862 10.0692 11.981 10.0743 11.9759C10.0794 11.9708 10.0845 11.9657 10.0897 11.9606C10.0948 11.9555 10.0999 11.9504 10.105 11.9453C10.1101 11.9401 10.1152 11.935 10.1203 11.9299C10.1254 11.9248 10.1306 11.9197 10.1357 11.9146C10.1408 11.9095 10.1459 11.9043 10.151 11.8992C10.1561 11.8941 10.1612 11.889 10.1664 11.8839C10.1715 11.8788 10.1766 11.8737 10.1817 11.8685C10.1868 11.8634 10.1919 11.8583 10.197 11.8532C10.2022 11.8481 10.2073 11.843 10.2124 11.8379C10.2175 11.8327 10.2226 11.8276 10.2277 11.8225C10.2329 11.8174 10.238 11.8123 10.2431 11.8072C10.2482 11.8021 10.2533 11.7969 10.2584 11.7918C10.2635 11.7867 10.2687 11.7816 10.2738 11.7765C10.2789 11.7714 10.284 11.7662 10.2891 11.7611C10.2942 11.756 10.2994 11.7509 10.3045 11.7458C10.3096 11.7407 10.3147 11.7355 10.3198 11.7304C10.3249 11.7253 10.33 11.7202 10.3352 11.7151C10.3403 11.71 10.3454 11.7049 10.3505 11.6997C10.3556 11.6946 10.3607 11.6895 10.3659 11.6844C10.371 11.6793 10.3761 11.6742 10.3812 11.669C10.3863 11.6639 10.3914 11.6588 10.3965 11.6537C10.4017 11.6486 10.4068 11.6435 10.4119 11.6384C10.417 11.6332 10.4221 11.6281 10.4272 11.623C10.4323 11.6179 10.4375 11.6128 10.4426 11.6077C10.4477 11.6026 10.4528 11.5974 10.4579 11.5923C10.463 11.5872 10.4681 11.5821 10.4733 11.577C10.4784 11.5719 10.4835 11.5668 10.4886 11.5617C10.4937 11.5565 10.4988 11.5514 10.5039 11.5463C10.509 11.5412 10.5142 11.5361 10.5193 11.531C10.5244 11.5259 10.5295 11.5208 10.5346 11.5156C10.5397 11.5105 10.5448 11.5054 10.5499 11.5003C10.555 11.4952 10.5602 11.4901 10.5653 11.485C10.5704 11.4799 10.5755 11.4748 10.5806 11.4697C10.5857 11.4646 10.5908 11.4594 10.5959 11.4543C10.601 11.4492 10.6061 11.4441 10.6112 11.439C10.6163 11.4339 10.6215 11.4288 10.6266 11.4237C10.6317 11.4186 10.6368 11.4135 10.6419 11.4084C10.647 11.4033 10.6521 11.3982 10.6572 11.3931C10.6623 11.388 10.6674 11.3829 10.6725 11.3777C10.6776 11.3726 10.6827 11.3675 10.6878 11.3624C10.6929 11.3573 10.698 11.3522 10.7031 11.3471C10.7082 11.342 10.7133 11.3369 10.7184 11.3318C10.7235 11.3267 10.7286 11.3216 10.7337 11.3165C10.7388 11.3114 10.7439 11.3063 10.749 11.3012C10.7541 11.2961 10.7592 11.291 10.7643 11.2859C10.7694 11.2808 10.7745 11.2757 10.7796 11.2706C10.7847 11.2656 10.7898 11.2605 10.7949 11.2554C10.8 11.2503 10.8051 11.2452 10.8102 11.2401C10.8153 11.235 10.8204 11.2299 10.8254 11.2248C10.8305 11.2197 10.8356 11.2146 10.8407 11.2095C10.8458 11.2044 10.8509 11.1994 10.856 11.1943C10.8611 11.1892 10.8662 11.1841 10.8713 11.179C10.8763 11.1739 10.8814 11.1688 10.8865 11.1637C10.8916 11.1587 10.8967 11.1536 10.9018 11.1485C10.9069 11.1434 10.9119 11.1383 10.917 11.1332C10.9221 11.1281 10.9272 11.1231 10.9323 11.118C10.9373 11.1129 10.9424 11.1078 10.9475 11.1027C10.9526 11.0977 10.9577 11.0926 10.9627 11.0875C10.9678 11.0824 10.9729 11.0774 10.978 11.0723C10.983 11.0672 10.9881 11.0621 10.9932 11.0571C10.9983 11.052 11.0033 11.0469 11.0084 11.0418C11.0135 11.0368 11.0186 11.0317 11.0236 11.0266C11.0287 11.0215 11.0338 11.0165 11.0388 11.0114C11.0439 11.0063 11.049 11.0013 11.054 10.9962C11.0591 10.9911 11.0642 10.9861 11.0692 10.981C11.0743 10.9759 11.0794 10.9709 11.0844 10.9658C11.0895 10.9608 11.0946 10.9557 11.0996 10.9506C11.1047 10.9456 11.1097 10.9405 11.1148 10.9355C11.1199 10.9304 11.1249 10.9253 11.13 10.9203C11.135 10.9152 11.1401 10.9102 11.1451 10.9051C11.1502 10.9001 11.1552 10.895 11.1603 10.89C11.1653 10.8849 11.1704 10.8799 11.1754 10.8748C11.1805 10.8698 11.1855 10.8647 11.1906 10.8597C11.1956 10.8546 11.2007 10.8496 11.2057 10.8445C11.2108 10.8395 11.2158 10.8344 11.2209 10.8294C11.2259 10.8244 11.2309 10.8193 11.236 10.8143C11.241 10.8092 11.2461 10.8042 11.2511 10.7992C11.2561 10.7941 11.2612 10.7891 11.2662 10.784C11.2712 10.779 11.2763 10.774 11.2813 10.7689C11.2863 10.7639 11.2914 10.7589 11.2964 10.7539C11.3014 10.7488 11.3065 10.7438 11.3115 10.7388C11.3165 10.7337 11.3215 10.7287 11.3266 10.7237C11.3316 10.7187 11.3366 10.7136 11.3416 10.7086C11.3467 10.7036 11.3517 10.6986 11.3567 10.6936C11.3617 10.6885 11.3667 10.6835 11.3717 10.6785C11.3768 10.6735 11.3818 10.6685 11.3868 10.6635C11.3918 10.6584 11.3968 10.6534 11.4018 10.6484C11.4068 10.6434 11.4118 10.6384 11.4169 10.6334C11.4219 10.6284 11.4269 10.6234 11.4319 10.6184C11.4369 10.6134 11.4419 10.6084 11.4469 10.6034C11.4519 10.5984 11.4569 10.5934 11.4619 10.5884C11.4669 10.5834 11.4719 10.5784 11.4769 10.5734C11.4819 10.5684 11.4869 10.5634 11.4919 10.5584C11.4968 10.5534 11.5018 10.5484 11.5068 10.5434C11.5118 10.5384 11.5168 10.5334 11.5218 10.5285C11.5268 10.5235 11.5318 10.5185 11.5367 10.5135C11.5417 10.5085 11.5467 10.5035 11.5517 10.4986C11.5567 10.4936 11.5616 10.4886 11.5666 10.4836C11.5716 10.4787 11.5766 10.4737 11.5815 10.4687C11.5865 10.4637 11.5915 10.4588 11.5965 10.4538C11.6014 10.4488 11.6064 10.4439 11.6114 10.4389C11.6163 10.4339 11.6213 10.429 11.6263 10.424C11.6312 10.419 11.6362 10.4141 11.6411 10.4091C11.6461 10.4042 11.6511 10.3992 11.656 10.3942C11.661 10.3893 11.6659 10.3843 11.6709 10.3794C11.6758 10.3744 11.6808 10.3695 11.6857 10.3645C11.6907 10.3596 11.6956 10.3546 11.7006 10.3497C11.7055 10.3447 11.7105 10.3398 11.7154 10.3349C11.7203 10.3299 11.7253 10.325 11.7302 10.32C11.7351 10.3151 11.7401 10.3102 11.745 10.3052C11.7499 10.3003 11.7549 10.2954 11.7598 10.2904C11.7647 10.2855 11.7697 10.2806 11.7746 10.2757C11.7795 10.2707 11.7844 10.2658 11.7894 10.2609C11.7943 10.256 11.7992 10.251 11.8041 10.2461C11.809 10.2412 11.814 10.2363 11.8189 10.2314C11.8238 10.2265 11.8287 10.2216 11.8336 10.2166C11.8385 10.2117 11.8434 10.2068 11.8483 10.2019C11.8532 10.197 11.8581 10.1921 11.863 10.1872C11.8679 10.1823 11.8728 10.1774 11.8777 10.1725C11.8826 10.1676 11.8875 10.1627 11.8924 10.1578C11.8973 10.1529 11.9022 10.148 11.9071 10.1432C11.912 10.1383 11.9169 10.1334 11.9218 10.1285C11.9266 10.1236 11.9315 10.1187 11.9364 10.1138C11.9413 10.109 11.9462 10.1041 11.951 10.0992C11.9559 10.0943 11.9608 10.0895 11.9657 10.0846C11.9705 10.0797 11.9754 10.0748 11.9803 10.07C11.9851 10.0651 11.99 10.0602 11.9949 10.0554C11.9997 10.0505 12.0046 10.0457 12.0094 10.0408C12.0143 10.0359 12.0192 10.0311 12.024 10.0262C12.0289 10.0214 12.0337 10.0165 12.0386 10.0117C12.0434 10.0068 12.0483 10.002 12.0531 9.99714C12.058 9.9923 12.0628 9.98745 12.0676 9.98261C12.0725 9.97777 12.0773 9.97294 12.0821 9.9681C12.087 9.96327 12.0918 9.95843 12.0966 9.9536C12.1015 9.94877 12.1063 9.94394 12.1111 9.93912C12.116 9.93429 12.1208 9.92947 12.1256 9.92465C12.1304 9.91983 12.1352 9.91501 12.1401 9.91019C12.1449 9.90538 12.1497 9.90057 12.1545 9.89575C12.1593 9.89094 12.1641 9.88613 12.1689 9.88133C12.1737 9.87652 12.1785 9.87172 12.1833 9.86692C12.1881 9.86212 12.1929 9.85732 12.1977 9.85252C12.2025 9.84773 12.2073 9.84293 12.2121 9.83814C12.2169 9.83335 12.2217 9.82856 12.2265 9.82378C12.2313 9.81899 12.236 9.81421 12.2408 9.80943C12.2456 9.80465 12.2504 9.79987 12.2552 9.79509C12.2599 9.79032 12.2647 9.78554 12.2695 9.78077C12.2742 9.776 12.279 9.77124 12.2838 9.76647C12.2885 9.76171 12.2933 9.75694 12.2981 9.75218C12.3028 9.74743 12.3076 9.74267 12.3123 9.73791C12.3171 9.73316 12.3218 9.72841 12.3266 9.72366C12.3313 9.71891 12.3361 9.71416 12.3408 9.70942C12.3456 9.70468 12.3503 9.69994 12.3551 9.6952C12.3598 9.69046 12.3645 9.68572 12.3693 9.68099C12.374 9.67626 12.3787 9.67153 12.3834 9.6668C12.3882 9.66208 12.3929 9.65735 12.3976 9.65263C12.4023 9.64791 12.4071 9.64319 12.4118 9.63848C12.4165 9.63376 12.4212 9.62905 12.4259 9.62434C12.4306 9.61963 12.4353 9.61492 12.44 9.61021C12.4447 9.60551 12.4494 9.60081 12.4541 9.59611C12.4588 9.59141 12.4635 9.58672 12.4682 9.58202C12.4729 9.57733 12.4776 9.57264 12.4823 9.56795C12.487 9.56327 12.4917 9.55858 12.4963 9.5539C12.501 9.54922 12.5057 9.54454 12.5104 9.53987C12.5151 9.53519 12.5197 9.53052 12.5244 9.52585C12.5291 9.52118 12.5337 9.51651 12.5384 9.51185C12.5431 9.50719 12.5477 9.50253 12.5524 9.49787C12.557 9.49321 12.5617 9.48856 12.5663 9.48391C12.571 9.47926 12.5756 9.47461 12.5803 9.46996C12.5849 9.46532 12.5896 9.46068 12.5942 9.45604C12.5989 9.4514 12.6035 9.44676 12.6081 9.44213C12.6128 9.4375 12.6174 9.43287 12.622 9.42824C12.6266 9.42361 12.6313 9.41899 12.6359 9.41437C12.6405 9.40975 12.6451 9.40513 12.6497 9.40052C12.6543 9.3959 12.659 9.39129 12.6636 9.38669C12.6682 9.38208 12.6728 9.37747 12.6774 9.37287C12.682 9.36827 12.6866 9.36367 12.6912 9.35908C12.6958 9.35448 12.7004 9.34989 12.7049 9.3453C12.7095 9.34072 12.7141 9.33613 12.7187 9.33155C12.7233 9.32697 12.7279 9.32239 12.7324 9.31781C12.737 9.31324 12.7416 9.30867 12.7462 9.3041C12.7507 9.29953 12.7553 9.29496 12.7598 9.2904C12.7644 9.28584 12.769 9.28128 12.7735 9.27673C12.7781 9.27217 12.7826 9.26762 12.7872 9.26307C12.7917 9.25852 12.7963 9.25397 12.8008 9.24943C12.8054 9.24489 12.8099 9.24035 12.8144 9.23582C12.819 9.23128 12.8235 9.22675 12.828 9.22222C12.8326 9.21769 12.8371 9.21317 12.8416 9.20865C12.8461 9.20413 12.8506 9.19961 12.8552 9.19509C12.8597 9.19058 12.8642 9.18607 12.8687 9.18156C12.8732 9.17705 12.8777 9.17255 12.8822 9.16805C12.8867 9.16355 12.8912 9.15905 12.8957 9.15456C12.9002 9.15006 12.9047 9.14557 12.9092 9.14109C12.9137 9.1366 12.9181 9.13212 12.9226 9.12764C12.9271 9.12316 12.9316 9.11868 12.936 9.11421C12.9405 9.10974 12.945 9.10527 12.9494 9.1008C12.9539 9.09634 12.9584 9.09188 12.9628 9.08742C12.9673 9.08296 12.9717 9.07851 12.9762 9.07406C12.9806 9.06961 12.9851 9.06516 12.9895 9.06072C12.994 9.05627 12.9984 9.05183 13.0029 9.0474C13.0073 9.04296 13.0117 9.03853 13.0162 9.0341C13.0206 9.02967 13.025 9.02525 13.0294 9.02082C13.0338 9.0164 13.0383 9.01199 13.0427 9.00757C13.0471 9.00316 13.0515 8.99875 13.0559 8.99434C13.0603 8.98994 13.0647 8.98553 13.0691 8.98114C13.0735 8.97674 13.0779 8.97234 13.0823 8.96795C13.0867 8.96356 13.0911 8.95917 13.0955 8.95479C13.0998 8.95041 13.1042 8.94603 13.1086 8.94165C13.113 8.93727 13.1173 8.9329 13.1217 8.92853C13.1261 8.92417 13.1304 8.9198 13.1348 8.91544C13.1392 8.91108 13.1435 8.90672 13.1479 8.90237C13.1522 8.89802 13.1566 8.89367 13.1609 8.88933C13.1653 8.88498 13.1696 8.88064 13.1739 8.8763C13.1783 8.87197 13.1826 8.86763 13.1869 8.86331C13.1913 8.85898 13.1956 8.85465 13.1999 8.85033C13.2042 8.84601 13.2086 8.84169 13.2129 8.83738C13.2172 8.83307 13.2215 8.82876 13.2258 8.82445C13.2301 8.82015 13.2344 8.81585 13.2387 8.81155C13.243 8.80725 13.2473 8.80296 13.2516 8.79867C13.2559 8.79438 13.2602 8.7901 13.2644 8.78582C13.2687 8.78154 13.273 8.77726 13.2773 8.77299C13.2815 8.76871 13.2858 8.76444 13.2901 8.76018C13.2943 8.75592 13.2986 8.75166 13.3029 8.7474C13.3071 8.74314 13.3114 8.73889 13.3156 8.73464C13.3199 8.7304 13.3241 8.72615 13.3283 8.72191C13.3326 8.71767 13.3368 8.71344 13.341 8.70921C13.3453 8.70498 13.3495 8.70075 13.3537 8.69653C13.3579 8.6923 13.3622 8.68809 13.3664 8.68387C13.3706 8.67966 13.3748 8.67545 13.379 8.67124C13.3832 8.66704 13.3874 8.66284 13.3916 8.65864C13.3958 8.65444 13.4 8.65025 13.4042 8.64606C13.4084 8.64187 13.4126 8.63769 13.4167 8.63351C13.4209 8.62933 13.4251 8.62515 13.4293 8.62098C13.4334 8.61681 13.4376 8.61264 13.4418 8.60848C13.4459 8.60432 13.4501 8.60016 13.4542 8.59601C13.4584 8.59185 13.4625 8.5877 13.4667 8.58356C13.4708 8.57941 13.475 8.57527 13.4791 8.57114C13.4833 8.567 13.4874 8.56287 13.4915 8.55874C13.4956 8.55461 13.4998 8.55049 13.5039 8.54637C13.508 8.54225 13.5121 8.53814 13.5162 8.53403C13.5203 8.52992 13.5244 8.52582 13.5285 8.52171C13.5326 8.51761 13.5367 8.51352 13.5408 8.50943C13.5449 8.50533 13.549 8.50125 13.5531 8.49717C13.5572 8.49308 13.5612 8.48901 13.5653 8.48493C13.5694 8.48086 13.5735 8.47679 13.5775 8.47273C13.5816 8.46866 13.5856 8.4646 13.5897 8.46055C13.5938 8.45649 13.5978 8.45244 13.6019 8.4484C13.6059 8.44435 13.6099 8.44031 13.614 8.43627C13.618 8.43224 13.622 8.4282 13.6261 8.42418C13.6301 8.42015 13.6341 8.41613 13.6381 8.41211C13.6422 8.40809 13.6462 8.40408 13.6502 8.40007C13.6542 8.39606 13.6582 8.39206 13.6622 8.38806C13.6662 8.38406 13.6702 8.38006 13.6742 8.37607C13.6782 8.37208 13.6822 8.3681 13.6861 8.36412C13.6901 8.36014 13.6941 8.35616 13.6981 8.35219C13.702 8.34822 13.706 8.34426 13.71 8.3403C13.7139 8.33633 13.7179 8.33238 13.7218 8.32843C13.7258 8.32448 13.7297 8.32053 13.7337 8.31659C13.7376 8.31265 13.7415 8.30871 13.7455 8.30478C13.7494 8.30084 13.7533 8.29692 13.7573 8.29299C13.7612 8.28907 13.7651 8.28515 13.769 8.28124C13.7729 8.27733 13.7768 8.27342 13.7807 8.26952C13.7846 8.26562 13.7885 8.26172 13.7924 8.25783C13.7963 8.25393 13.8002 8.25005 13.8041 8.24616C13.808 8.24228 13.8118 8.2384 13.8157 8.23453C13.8196 8.23065 13.8235 8.22679 13.8273 8.22292C13.8312 8.21906 13.835 8.2152 13.8389 8.21135C13.8428 8.2075 13.8466 8.20365 13.8504 8.19981C13.8543 8.19596 13.8581 8.19212 13.862 8.18829C13.8658 8.18446 13.8696 8.18063 13.8734 8.17681C13.8773 8.17299 13.8811 8.16917 13.8849 8.16536C13.8887 8.16154 13.8925 8.15774 13.8963 8.15393C13.9001 8.15013 13.9039 8.14633 13.9077 8.14254C13.9115 8.13875 13.9153 8.13496 13.9191 8.13118C13.9229 8.1274 13.9266 8.12362 13.9304 8.11985C13.9342 8.11608 13.9379 8.11231 13.9417 8.10855C13.9455 8.10479 13.9492 8.10103 13.953 8.09728C13.9567 8.09353 13.9605 8.08979 13.9642 8.08605C13.9679 8.08231 13.9717 8.07857 13.9754 8.07484C13.9791 8.07111 13.9829 8.06739 13.9866 8.06367C13.9903 8.05995 13.994 8.05624 13.9977 8.05253C14.0014 8.04882 14.0051 8.04511 14.0088 8.04142C14.0125 8.03772 14.0162 8.03403 14.0199 8.03034C14.0236 8.02665 14.0273 8.02297 14.031 8.01929C14.0346 8.01562 14.0383 8.01194 14.042 8.00828C14.0456 8.00461 14.0493 8.00095 14.053 7.9973C14.0566 7.99364 14.0603 7.98999 14.0639 7.98635C14.0675 7.9827 14.0712 7.97906 14.0748 7.97543C14.0785 7.9718 14.0821 7.96817 14.0857 7.96455C14.0893 7.96092 14.0929 7.95731 14.0966 7.9537C14.1002 7.95008 14.1038 7.94648 14.1074 7.94288C14.111 7.93928 14.1146 7.93568 14.1182 7.93209C14.1217 7.9285 14.1253 7.92492 14.1289 7.92134C14.1325 7.91776 14.1361 7.91419 14.1396 7.91062C14.1432 7.90705 14.1468 7.90349 14.1503 7.89993C14.1539 7.89638 14.1574 7.89283 14.161 7.88928C14.1645 7.88574 14.1681 7.8822 14.1716 7.87866C14.1751 7.87513 14.1787 7.8716 14.1822 7.86808C14.1857 7.86455 14.1892 7.86104 14.1927 7.85753C14.1962 7.85401 14.1997 7.85051 14.2032 7.84701C14.2067 7.84351 14.2102 7.84001 14.2137 7.83653C14.2172 7.83304 14.2207 7.82955 14.2242 7.82608C14.2277 7.8226 14.2311 7.81913 14.2346 7.81566C14.2381 7.8122 14.2415 7.80874 14.245 7.80528C14.2484 7.80183 14.2519 7.79838 14.2553 7.79493C14.2588 7.79149 14.2622 7.78805 14.2656 7.78462C14.2691 7.78119 14.2725 7.77777 14.2759 7.77435C14.2793 7.77093 14.2827 7.76751 14.2861 7.76411C14.2896 7.7607 14.293 7.7573 14.2964 7.7539C14.2997 7.7505 14.3031 7.74711 14.3065 7.74373C14.3099 7.74034 14.3133 7.73696 14.3167 7.73359C14.32 7.73022 14.3234 7.72685 14.3268 7.72349C14.3301 7.72013 14.3335 7.71677 14.3368 7.71343C14.3402 7.71008 14.3435 7.70673 14.3469 7.7034C14.3502 7.70006 14.3535 7.69673 14.3568 7.6934C14.3602 7.69008 14.3635 7.68676 14.3668 7.68344C14.3701 7.68013 14.3734 7.67682 14.3767 7.67352C14.38 7.67022 14.3833 7.66692 14.3866 7.66364C14.3899 7.66035 14.3932 7.65706 14.3965 7.65379C14.3997 7.65051 14.403 7.64724 14.4063 7.64397C14.4095 7.64071 14.4128 7.63745 14.4161 7.63419C14.4193 7.63094 14.4226 7.6277 14.4258 7.62445C14.429 7.62121 14.4323 7.61798 14.4355 7.61475C14.4387 7.61152 14.442 7.6083 14.4452 7.60508C14.4484 7.60187 14.4516 7.59866 14.4548 7.59545C14.458 7.59225 14.4612 7.58905 14.4644 7.58586C14.4676 7.58267 14.4708 7.57948 14.4739 7.5763C14.4771 7.57313 14.4803 7.56995 14.4835 7.56679C14.4866 7.56362 14.4898 7.56046 14.4929 7.55731C14.4961 7.55415 14.4992 7.551 14.5024 7.54786C14.5055 7.54472 14.5087 7.54158 14.5118 7.53846C14.5149 7.53533 14.518 7.5322 14.5212 7.52909C14.5243 7.52597 14.5274 7.52286 14.5305 7.51976C14.5336 7.51665 14.5367 7.51356 14.5398 7.51046C14.5429 7.50737 14.546 7.50429 14.549 7.50121C14.5521 7.49813 14.5552 7.49506 14.5583 7.49199C14.5613 7.48893 14.5644 7.48587 14.5674 7.48282C14.5705 7.47976 14.5735 7.47672 14.5766 7.47368C14.5796 7.47064 14.5826 7.4676 14.5857 7.46458C14.5887 7.46155 14.5917 7.45853 14.5947 7.45552C14.5977 7.4525 14.6008 7.44949 14.6038 7.44649C14.6068 7.44349 14.6098 7.4405 14.6127 7.43751C14.6157 7.43452 14.6187 7.43154 14.6217 7.42856C14.6247 7.42559 14.6276 7.42262 14.6306 7.41966C14.6336 7.4167 14.6365 7.41374 14.6395 7.41079C14.6424 7.40784 14.6453 7.4049 14.6483 7.40197C14.6512 7.39903 14.6542 7.3961 14.6571 7.39318C14.66 7.39026 14.6629 7.38734 14.6658 7.38443C14.6687 7.38152 14.6716 7.37862 14.6745 7.37572C14.6774 7.37283 14.6803 7.36994 14.6832 7.36706C14.6861 7.36417 14.689 7.3613 14.6918 7.35843C14.6947 7.35556 14.6976 7.3527 14.7004 7.34984C14.7033 7.34698 14.7061 7.34413 14.709 7.34129C14.7118 7.33845 14.7146 7.33561 14.7175 7.33279C14.7203 7.32996 14.7231 7.32713 14.7259 7.32432C14.7287 7.3215 14.7316 7.31869 14.7344 7.31589C14.7372 7.31309 14.74 7.3103 14.7427 7.30751C14.7455 7.30472 14.7483 7.30194 14.7511 7.29916C14.7539 7.29639 14.7566 7.29362 14.7594 7.29086C14.7622 7.2881 14.7649 7.28535 14.7677 7.2826C14.7704 7.27985 14.7731 7.27711 14.7759 7.27438C14.7786 7.27164 14.7813 7.26892 14.7841 7.2662L14.0769 6.55909ZM6.72289 14.3032L6.19347 17.4011L7.17918 17.5695L7.7086 14.4717L6.72289 14.3032ZM6.78981 17.9745L10.0867 17.277L9.87977 16.2987L6.58284 16.9961L6.78981 17.9745ZM10.8369 16.8702L17.6343 10.0728L16.9272 9.36573L10.1298 16.1631L10.8369 16.8702ZM17.616 7.93356L16.9091 7.25039L16.2142 7.96946L16.9211 8.65264L17.616 7.93356ZM16.9091 7.25039L16.1777 6.54349L15.4827 7.26256L16.2142 7.96946L16.9091 7.25039ZM17.6343 10.0728C18.2271 9.47996 18.2189 8.51623 17.616 7.93356L16.9211 8.65264C17.122 8.84686 17.1248 9.1681 16.9272 9.36573L17.6343 10.0728ZM10.0867 17.277C10.3709 17.2169 10.6315 17.0756 10.8369 16.8702L10.1298 16.1631C10.0614 16.2315 9.9745 16.2786 9.87977 16.2987L10.0867 17.277ZM7.13996 13.4961C6.91996 13.7161 6.7751 13.9977 6.72289 14.3032L7.7086 14.4717C7.72614 14.369 7.77431 14.2759 7.84707 14.2032L7.13996 13.4961ZM14.7841 7.2662C14.9754 7.07481 15.285 7.07148 15.4827 7.26256L16.1777 6.54349C15.5907 5.97622 14.6572 5.97884 14.0769 6.55909L14.7841 7.2662Z" fill="#FE7235"/>
</svg>
