<svg width="26" height="26" viewBox="0 0 26 26" fill="none" xmlns="http://www.w3.org/2000/svg">
<path d="M19.8227 6.08936C18.9941 5.38907 17.93 5.00421 16.827 5.00421C15.5531 5.00421 14.3199 5.52172 13.4441 6.42563C13.2867 6.58837 13.1391 6.76305 13.0006 6.95278C11.9282 5.49473 10.1364 4.74661 8.36413 5.07748C6.8935 5.35012 5.73731 6.17575 4.9299 7.52968C3.79069 9.44123 3.69745 11.2849 4.65434 13.0098C5.16582 13.9326 5.82941 14.8319 6.68325 15.759C8.24712 17.4572 10.0982 19.0692 12.5091 20.8299C12.6632 20.9429 12.8281 21 13.0002 21C13.2652 21 13.4441 20.8631 13.5328 20.796C15.7082 19.2092 17.417 17.7465 18.9111 16.1905C19.7453 15.322 20.692 14.2546 21.3843 12.9215C21.6809 12.3519 22.0192 11.5853 21.9992 10.7096C21.9546 8.825 21.2227 7.27054 19.8227 6.08936ZM20.2511 12.3068C19.6347 13.4922 18.765 14.4706 17.9949 15.2719C16.6134 16.7111 15.0337 18.0731 12.998 19.5747C10.7826 17.9374 9.06774 16.4338 7.61825 14.8589C6.83575 14.0094 6.23142 13.193 5.77053 12.362C5.04087 11.047 5.12203 9.72736 6.02645 8.21108C6.63494 7.18994 7.49859 6.56908 8.59401 6.36586C8.80389 6.32652 9.0164 6.30724 9.2259 6.30724C10.5244 6.30724 11.6746 7.03993 12.3242 8.31212L12.4344 8.5246C12.5476 8.7417 12.7809 8.8651 13.0112 8.87089C13.2524 8.86626 13.4702 8.72551 13.5763 8.50416C13.8043 8.02907 14.053 7.66041 14.3565 7.34651C14.9929 6.69056 15.8932 6.3138 16.827 6.3138C17.6322 6.3138 18.4056 6.59261 19.0054 7.09932C20.1212 8.04063 20.6806 9.23222 20.7165 10.7392C20.729 11.308 20.4885 11.8502 20.2511 12.3068Z" fill="#0D2DFF"/>
</svg>
