<svg width="25" height="25" viewBox="0 0 25 25" fill="none" xmlns="http://www.w3.org/2000/svg">
<path fill-rule="evenodd" clip-rule="evenodd" d="M4.54567 6.37868C3.66699 7.25736 3.66699 8.67157 3.66699 11.5V13.5C3.66699 16.3284 3.66699 17.7426 4.54567 18.6213C5.42435 19.5 6.83856 19.5 9.66699 19.5H15.667C18.4954 19.5 19.9096 19.5 20.7883 18.6213C21.667 17.7426 21.667 16.3284 21.667 13.5V11.5C21.667 8.67157 21.667 7.25736 20.7883 6.37868C19.9096 5.5 18.4954 5.5 15.667 5.5H9.66699C6.83857 5.5 5.42435 5.5 4.54567 6.37868ZM7.22169 8.66795C6.76216 8.3616 6.14129 8.48577 5.83494 8.9453C5.52859 9.40483 5.65276 10.0257 6.11229 10.3321L11.5576 13.9622C12.2294 14.4101 13.1046 14.4101 13.7764 13.9622L19.2217 10.3321C19.6812 10.0257 19.8054 9.40483 19.499 8.9453C19.1927 8.48577 18.5718 8.3616 18.1123 8.66795L12.667 12.2982L7.22169 8.66795Z" fill="white"/>
</svg>
