<svg width="24" height="24" viewBox="0 0 24 24" fill="none" xmlns="http://www.w3.org/2000/svg">
<path d="M14.1361 3.36136H15.1361V3.31148L15.1312 3.26185L14.1361 3.36136ZM14.1361 3.36137H13.1361V3.41125L13.1411 3.46088L14.1361 3.36137ZM14.4309 4.81738L15.2261 4.21104L15.2261 4.21104L14.4309 4.81738ZM15.3596 5.20208L15.2261 4.21104V4.21104L15.3596 5.20208ZM16.5975 4.38101L16.0428 3.54896L16.0021 3.57609L15.9643 3.60705L16.5975 4.38101ZM16.5975 4.381L17.1522 5.21305L17.1929 5.18593L17.2308 5.15496L16.5975 4.381ZM17.2847 3.90923L17.5891 4.86175L17.5891 4.86175L17.2847 3.90923ZM17.9869 3.94425L17.5891 4.86175L17.5891 4.86175L17.9869 3.94425ZM18.6237 4.48206L19.3308 3.77496L19.3308 3.77496L18.6237 4.48206ZM19.5173 5.37568L20.2244 4.66857L19.5173 5.37568ZM20.0553 6.01274L20.9728 5.61514L20.0553 6.01274ZM20.0903 6.71466L21.0429 7.01899V7.01898L20.0903 6.71466ZM19.6184 7.40207L20.3658 8.06644L20.3794 8.05115L20.3923 8.03531L19.6184 7.40207ZM19.6184 7.40209L18.8709 6.73772L18.8573 6.75302L18.8444 6.76885L19.6184 7.40209ZM18.797 8.64049L17.8059 8.50715V8.50715L18.797 8.64049ZM19.1816 9.56889L18.5751 10.364V10.364L19.1816 9.56889ZM20.6383 9.86383L20.5388 10.8589H20.5388L20.6383 9.86383ZM21.4585 10.0163L21.917 9.12761L21.917 9.12761L21.4585 10.0163ZM21.9299 10.5372L22.8598 10.1694L22.8598 10.1694L21.9299 10.5372ZM21.9301 13.4624L22.8601 13.8298L22.8601 13.8298L21.9301 13.4624ZM21.4581 13.9839L21.9162 14.8728L21.9162 14.8728L21.4581 13.9839ZM20.639 14.1361L20.7385 15.1311H20.7385L20.639 14.1361ZM19.1837 14.4307L19.7898 15.226L19.7898 15.226L19.1837 14.4307ZM18.7988 15.3598L19.7898 15.226V15.226L18.7988 15.3598ZM19.6198 16.5974L18.8459 17.2307L18.8459 17.2307L19.6198 16.5974ZM20.0918 17.2848L19.1392 17.5892V17.5892L20.0918 17.2848ZM20.0568 17.9869L20.9743 18.3846L20.9743 18.3846L20.0568 17.9869ZM17.988 20.0555L17.5907 19.1378L17.5907 19.1378L17.988 20.0555ZM17.2866 20.0905L16.9826 21.0431L17.2866 20.0905ZM16.5986 19.6182L17.2318 18.8442H17.2318L16.5986 19.6182ZM15.3591 18.7963L15.492 17.8051L15.3591 18.7963ZM14.4315 19.1805L15.2262 19.7874L15.2262 19.7874L14.4315 19.1805ZM14.1362 20.6382L13.1411 20.5387L14.1362 20.6382ZM13.9836 21.4587L13.095 21L13.095 21L13.9836 21.4587ZM13.463 21.9298L13.831 22.8597L13.831 22.8597L13.463 21.9298ZM10.5372 21.9299L10.905 21L10.905 21L10.5372 21.9299ZM10.0163 21.4585L10.905 21L10.905 21L10.0163 21.4585ZM9.86384 20.6384L10.8589 20.5389V20.5389L9.86384 20.6384ZM9.56879 19.1815L10.3638 18.5749L9.56879 19.1815ZM8.64068 18.7971L8.50752 17.806L8.64068 18.7971ZM7.40177 19.6187L8.03501 20.3927V20.3927L7.40177 19.6187ZM6.71395 20.0909L7.01809 21.0435L7.0181 21.0435L6.71395 20.0909ZM6.01237 20.0559L6.4098 19.1383L6.4098 19.1383L6.01237 20.0559ZM5.37498 19.5177L6.08209 18.8105L6.08209 18.8105L5.37498 19.5177ZM4.48169 18.6244L3.72912 19.2829L3.75104 19.3079L3.77459 19.3315L4.48169 18.6244ZM4.48168 18.6244L5.23426 17.9658L5.21233 17.9408L5.18879 17.9172L4.48168 18.6244ZM3.94364 17.9872L3.02607 18.3848L3.02607 18.3848L3.94364 17.9872ZM3.90864 17.2854L2.95606 16.9811L2.95606 16.9811L3.90864 17.2854ZM4.3807 16.5978L5.15466 17.231H5.15466L4.3807 16.5978ZM5.202 15.3596L6.19305 15.4931L5.202 15.3596ZM4.81733 14.4309L4.21095 15.2261L4.21095 15.2261L4.81733 14.4309ZM3.36128 14.1361L3.46079 13.1411L3.41116 13.1361H3.36128V14.1361ZM3.36128 14.1361L3.26177 15.1312L3.3114 15.1361H3.36128V14.1361ZM2.54172 13.9838L2.08344 14.8726L2.08344 14.8726L2.54172 13.9838ZM2.07 13.4626L1.14001 13.8301H1.14001L2.07 13.4626ZM2.07017 10.537L3 10.905L3 10.905L2.07017 10.537ZM2.54131 10.0164L3 10.905L3 10.905L2.54131 10.0164ZM3.36203 9.8638L3.46154 10.8588L3.36203 9.8638ZM4.81934 9.5687L4.21268 8.77374L4.21268 8.77374L4.81934 9.5687ZM5.20377 8.6406L6.19487 8.50745L6.19487 8.50745L5.20377 8.6406ZM4.38221 7.40176L3.58221 8.00176L3.59488 8.01866L3.60825 8.035L4.38221 7.40176ZM4.3822 7.40176L5.1822 6.80176L5.13956 6.7449L5.08931 6.69465L4.3822 7.40176ZM4.3822 7.40175L3.60824 8.03499L3.63983 8.07359L3.67509 8.10886L4.3822 7.40175ZM3.91012 6.71408L4.86273 6.40988L4.86273 6.40988L3.91012 6.71408ZM3.94512 6.0124L3.02751 5.61492L3.02751 5.61493L3.94512 6.0124ZM5.3769 4.4815L6.08401 5.18861L6.08401 5.18861L5.3769 4.4815ZM6.01346 3.94385L6.41131 4.8613L6.41131 4.8613L6.01346 3.94385ZM6.7159 3.90882L6.41131 4.8613L6.41131 4.8613L6.7159 3.90882ZM7.40281 4.38046L8.06131 3.62789L8.04885 3.61699L8.03604 3.60651L7.40281 4.38046ZM7.40281 4.38047L6.74431 5.13304L6.75676 5.14394L6.76957 5.15442L7.40281 4.38047ZM8.64023 5.20129L8.77399 4.21028L8.77398 4.21027L8.64023 5.20129ZM9.56932 4.81645L10.3646 5.42262L9.56932 4.81645ZM9.86389 3.36106L8.86886 3.26156V3.26156L9.86389 3.36106ZM10.0161 2.54188L10.905 3L10.905 3L10.0161 2.54188ZM10.5376 2.06994L10.905 3L10.905 3L10.5376 2.06994ZM13.4626 2.07001L13.095 3L13.095 3L13.4626 2.07001ZM13.9838 2.5417L14.8726 2.0834L14.8726 2.0834L13.9838 2.5417ZM15.1361 3.36136V3.36136H13.1361V3.36136H15.1361ZM15.1361 3.36137V3.36136H13.1361V3.36137H15.1361ZM15.2261 4.21104C15.2893 4.29395 15.2692 4.33061 15.2341 4.13559C15.2007 3.95014 15.1739 3.68893 15.1312 3.26187L13.1411 3.46088C13.1805 3.85439 13.2151 4.20862 13.2657 4.48974C13.3146 4.7613 13.4008 5.11567 13.6357 5.42372L15.2261 4.21104ZM15.2261 4.21104L15.2261 4.21104L13.6357 5.42371C14.0716 5.99538 14.7807 6.28913 15.4932 6.19312L15.2261 4.21104ZM15.9643 3.60705C15.6321 3.87882 15.4285 4.04451 15.2738 4.15204C15.1111 4.2651 15.1228 4.22496 15.2261 4.21104L15.4932 6.19312C15.8771 6.14139 16.1886 5.9518 16.4152 5.79433C16.6497 5.63132 16.9247 5.40538 17.2308 5.15497L15.9643 3.60705ZM16.0428 3.54895L16.0428 3.54896L17.1522 5.21306L17.1522 5.21305L16.0428 3.54895ZM16.9802 2.95671C16.7511 3.02993 16.5678 3.14314 16.4192 3.24899C16.2788 3.34905 16.1226 3.47752 15.9643 3.60705L17.2308 5.15496C17.4096 5.00862 17.5063 4.93019 17.5798 4.87783C17.6452 4.83125 17.6368 4.84651 17.5891 4.86175L16.9802 2.95671ZM18.3846 3.02675C17.9404 2.83418 17.4414 2.8093 16.9802 2.95671L17.5891 4.86175H17.5891L18.3846 3.02675ZM19.3308 3.77496C19.1861 3.63032 19.0435 3.48695 18.9137 3.37341C18.7764 3.2533 18.6053 3.1224 18.3846 3.02675L17.5891 4.86175C17.5432 4.84184 17.5364 4.82583 17.5968 4.87868C17.6648 4.9381 17.7531 5.02576 17.9166 5.18917L19.3308 3.77496ZM20.2244 4.66857L19.3308 3.77496L17.9166 5.18917L18.8102 6.08279L20.2244 4.66857ZM20.9728 5.61514C20.8772 5.39439 20.7462 5.22315 20.6261 5.08581C20.5125 4.95597 20.3691 4.81327 20.2244 4.66857L18.8102 6.08279C18.9737 6.24626 19.0613 6.33469 19.1208 6.40264C19.1737 6.46308 19.1576 6.45628 19.1377 6.41033L20.9728 5.61514ZM21.0429 7.01898C21.1901 6.55797 21.1653 6.0592 20.9728 5.61514L19.1377 6.41033L19.1377 6.41033L21.0429 7.01898ZM20.3923 8.03531C20.5219 7.87694 20.6504 7.72068 20.7505 7.58018C20.8564 7.43157 20.9696 7.24815 21.0429 7.01899L19.1377 6.41033C19.153 6.36263 19.1682 6.35428 19.1216 6.41968C19.0693 6.4932 18.9908 6.58991 18.8444 6.76884L20.3923 8.03531ZM20.3658 8.06645L20.3658 8.06644L18.871 6.73771L18.8709 6.73772L20.3658 8.06645ZM19.7881 8.77382C19.7742 8.87718 19.734 8.88889 19.8471 8.72615C19.9547 8.57137 20.1204 8.36761 20.3923 8.03533L18.8444 6.76885C18.5939 7.07503 18.3679 7.35012 18.2048 7.58476C18.0473 7.81142 17.8576 8.12309 17.8059 8.50715L19.7881 8.77382ZM19.7881 8.77382H19.7881L17.8059 8.50715C17.7101 9.21932 18.0037 9.92814 18.5751 10.364L19.7881 8.77382ZM20.7378 8.86879C20.3105 8.82606 20.0491 8.79919 19.8636 8.7658C19.6685 8.73069 19.7051 8.71055 19.7881 8.77382L18.5751 10.364C18.8832 10.599 19.2377 10.6853 19.5094 10.7342C19.7906 10.7848 20.145 10.8195 20.5388 10.8589L20.7378 8.86879ZM21.917 9.12761C21.7031 9.01725 21.4932 8.9676 21.3132 8.93737C21.143 8.90879 20.9415 8.88916 20.7378 8.86879L20.5388 10.8589C20.7689 10.8819 20.8929 10.8948 20.982 10.9098C21.0613 10.9231 21.0445 10.928 21 10.905L21.917 9.12761ZM22.8598 10.1694C22.6819 9.71953 22.3469 9.34942 21.917 9.12761L21 10.905L21 10.905L22.8598 10.1694ZM23 11.3684C23 11.1637 23.0005 10.9613 22.989 10.7891C22.9768 10.6069 22.9483 10.3932 22.8598 10.1694L21 10.905C20.9816 10.8584 20.9881 10.8423 20.9935 10.9224C20.9995 11.0125 21 11.1371 21 11.3684H23ZM23 12.6322V11.3684H21V12.6322H23ZM22.8601 13.8298C22.9485 13.6062 22.9769 13.3927 22.989 13.2108C23.0005 13.0388 23 12.8366 23 12.6322H21C21 12.8632 20.9995 12.9876 20.9935 13.0776C20.9881 13.1577 20.9816 13.1416 21 13.095L22.8601 13.8298ZM21.9162 14.8728C22.3468 14.6509 22.6822 14.2803 22.8601 13.8298L21 13.095L21 13.095L21.9162 14.8728ZM20.7385 15.1311C20.9419 15.1108 21.1431 15.0912 21.3131 15.0627C21.4929 15.0325 21.7025 14.9829 21.9162 14.8728L21 13.095C21.0445 13.0721 21.0612 13.077 20.982 13.0903C20.8931 13.1052 20.7693 13.1181 20.5395 13.1411L20.7385 15.1311ZM19.7898 15.226C19.7069 15.2892 19.6703 15.2691 19.8652 15.234C20.0506 15.2007 20.3116 15.1738 20.7385 15.1311L20.5395 13.1411C20.1462 13.1804 19.7921 13.2151 19.5111 13.2656C19.2397 13.3144 18.8855 13.4006 18.5775 13.6353L19.7898 15.226ZM19.7898 15.226L19.7898 15.226L18.5775 13.6353C18.0055 14.0713 17.7116 14.7808 17.8078 15.4936L19.7898 15.226ZM20.3938 15.9642C20.1221 15.6321 19.9564 15.4284 19.8488 15.2737C19.7357 15.111 19.7759 15.1227 19.7898 15.226L17.8078 15.4936C17.8596 15.8773 18.0492 16.1888 18.2066 16.4152C18.3696 16.6497 18.5955 16.9246 18.8459 17.2307L20.3938 15.9642ZM21.0443 16.9804C20.9711 16.7513 20.8578 16.5679 20.752 16.4193C20.6519 16.2788 20.5234 16.1226 20.3938 15.9642L18.8459 17.2307C18.9923 17.4096 19.0707 17.5063 19.1231 17.5799C19.1698 17.6453 19.1545 17.6369 19.1392 17.5892L21.0443 16.9804ZM20.9743 18.3846C21.1668 17.9404 21.1917 17.4415 21.0443 16.9804L19.1392 17.5892V17.5892L20.9743 18.3846ZM20.226 19.3309C20.3706 19.1862 20.514 19.0436 20.6276 18.9138C20.7477 18.7765 20.8786 18.6053 20.9743 18.3846L19.1392 17.5892C19.1591 17.5433 19.1752 17.5365 19.1223 17.5969C19.0629 17.6648 18.9752 17.7533 18.8118 17.9167L20.226 19.3309ZM19.3327 20.2242L20.226 19.3309L18.8118 17.9167L17.9185 18.81L19.3327 20.2242ZM18.3853 20.9732C18.6062 20.8775 18.7776 20.7465 18.9151 20.6262C19.0451 20.5126 19.1879 20.369 19.3327 20.2242L17.9185 18.81C17.7549 18.9736 17.6664 19.0614 17.5984 19.1209C17.5379 19.1738 17.5447 19.1577 17.5907 19.1378L18.3853 20.9732ZM16.9826 21.0431C17.4432 21.1901 17.9415 21.1653 18.3853 20.9732L17.5907 19.1378L17.5907 19.1378L16.9826 21.0431ZM15.9654 20.3921C16.1239 20.5218 16.2803 20.6505 16.4209 20.7506C16.5696 20.8566 16.7532 20.9699 16.9826 21.0431L17.5907 19.1378C17.6384 19.153 17.6468 19.1683 17.5813 19.1217C17.5077 19.0693 17.4109 18.9907 17.2318 18.8442L15.9654 20.3921ZM15.2262 19.7874C15.1228 19.7735 15.1111 19.7333 15.274 19.8465C15.4289 19.9541 15.6328 20.12 15.9654 20.3921L17.2318 18.8442C16.9254 18.5935 16.6501 18.3673 16.4152 18.2041C16.1884 18.0465 15.8764 17.8567 15.492 17.8051L15.2262 19.7874ZM15.2262 19.7874H15.2262L15.492 17.8051C14.7804 17.7098 14.0724 18.0031 13.6367 18.5737L15.2262 19.7874ZM15.1312 20.7377C15.174 20.3101 15.2009 20.0486 15.2343 19.8629C15.2694 19.6677 15.2896 19.7045 15.2262 19.7874L13.6367 18.5736C13.4013 18.8819 13.3149 19.2367 13.2659 19.5086C13.2153 19.79 13.1805 20.1447 13.1411 20.5387L15.1312 20.7377ZM14.8722 21.9173C14.9827 21.7034 15.0324 21.4934 15.0626 21.3133C15.0912 21.143 15.1108 20.9415 15.1312 20.7377L13.1411 20.5387C13.1181 20.7689 13.1052 20.8929 13.0902 20.982C13.0769 21.0613 13.072 21.0445 13.095 21L14.8722 21.9173ZM13.831 22.8597C14.2805 22.6818 14.6505 22.347 14.8722 21.9173L13.095 21L13.095 21L13.831 22.8597ZM12.6314 23C12.8362 23 13.0387 23.0005 13.211 22.989C13.3932 22.9768 13.6071 22.9483 13.831 22.8597L13.095 21C13.1416 20.9816 13.1578 20.9881 13.0776 20.9935C12.9874 20.9995 12.8628 21 12.6314 21V23ZM11.3684 23H12.6314V21H11.3684V23ZM10.1694 22.8598C10.3932 22.9483 10.607 22.9768 10.7891 22.989C10.9613 23.0005 11.1637 23 11.3684 23V21C11.1371 21 11.0125 20.9995 10.9224 20.9935C10.8423 20.9881 10.8584 20.9816 10.905 21L10.1694 22.8598ZM9.12759 21.917C9.3494 22.3469 9.71954 22.6819 10.1694 22.8598L10.905 21L10.905 21L9.12759 21.917ZM8.86881 20.7379C8.88917 20.9416 8.9088 21.1431 8.93738 21.3132C8.96761 21.4933 9.01725 21.7031 9.12759 21.917L10.905 21C10.928 21.0445 10.9231 21.0612 10.9098 20.982C10.8948 20.893 10.8819 20.769 10.8589 20.5389L8.86881 20.7379ZM8.77383 19.7882C8.71054 19.7052 8.73068 19.6685 8.76579 19.8636C8.79919 20.0492 8.82607 20.3106 8.86881 20.7379L10.8589 20.5389C10.8195 20.1452 10.7848 19.7907 10.7342 19.5094C10.6853 19.2376 10.5989 18.883 10.3638 18.5749L8.77383 19.7882ZM8.77383 19.7882H8.77383L10.3638 18.5749C9.92798 18.0038 9.21945 17.7103 8.50752 17.806L8.77383 19.7882ZM8.03501 20.3927C8.36743 20.1207 8.57128 19.9548 8.72613 19.8472C8.88895 19.7341 8.87724 19.7743 8.77383 19.7882L8.50752 17.806C8.12331 17.8576 7.81151 18.0473 7.58477 18.2049C7.35005 18.368 7.07484 18.5941 6.76853 18.8447L8.03501 20.3927ZM7.0181 21.0435C7.2474 20.9703 7.43093 20.857 7.57962 20.7511C7.72019 20.6509 7.87654 20.5223 8.03501 20.3927L6.76853 18.8447C6.5895 18.9912 6.49272 19.0697 6.41915 19.1222C6.3537 19.1688 6.36206 19.1535 6.4098 19.1383L7.0181 21.0435ZM5.61495 20.9735C6.05881 21.1658 6.5573 21.1906 7.01809 21.0435L6.40981 19.1383L6.4098 19.1383L5.61495 20.9735ZM4.66788 20.2248C4.81264 20.3695 4.95541 20.513 5.08532 20.6267C5.22274 20.7469 5.39407 20.8779 5.61495 20.9735L6.4098 19.1383C6.45577 19.1582 6.46257 19.1742 6.4021 19.1213C6.33412 19.0618 6.24565 18.9741 6.08209 18.8105L4.66788 20.2248ZM3.77459 19.3315L4.66788 20.2248L6.08209 18.8105L5.1888 17.9173L3.77459 19.3315ZM3.72911 19.2829L3.72912 19.2829L5.23427 17.9659L5.23426 17.9658L3.72911 19.2829ZM3.02607 18.3848C3.12173 18.6056 3.25268 18.7768 3.37284 18.9142C3.48643 19.044 3.62987 19.1868 3.77458 19.3315L5.18879 17.9172C5.0253 17.7538 4.9376 17.6653 4.87815 17.5974C4.82528 17.5369 4.84131 17.5437 4.86122 17.5897L3.02607 18.3848ZM2.95606 16.9811C2.80881 17.4421 2.83369 17.9408 3.02607 18.3848L4.86122 17.5897L4.86122 17.5897L2.95606 16.9811ZM3.60674 15.9646C3.47712 16.123 3.34858 16.2793 3.24846 16.4198C3.14256 16.5684 3.02928 16.7519 2.95606 16.9811L4.86122 17.5897C4.84597 17.6374 4.8307 17.6458 4.87732 17.5803C4.92972 17.5068 5.00822 17.41 5.15466 17.231L3.60674 15.9646ZM4.21095 15.2261C4.22487 15.1227 4.26503 15.111 4.15191 15.2738C4.04434 15.4286 3.87858 15.6323 3.60674 15.9646L5.15466 17.231C5.40515 16.9249 5.63114 16.6498 5.79419 16.4152C5.95169 16.1886 6.14133 15.877 6.19305 15.4931L4.21095 15.2261ZM4.21095 15.2261L6.19305 15.4931C6.289 14.7807 5.99529 14.0716 5.42372 13.6357L4.21095 15.2261ZM3.26178 15.1312C3.68886 15.1739 3.95007 15.2007 4.13552 15.2341C4.33052 15.2692 4.29385 15.2893 4.21095 15.2261L5.42372 13.6357C5.11566 13.4008 4.76128 13.3146 4.48969 13.2657C4.20855 13.2151 3.85431 13.1804 3.46079 13.1411L3.26178 15.1312ZM3.36128 15.1361H3.36128V13.1361H3.36128V15.1361ZM2.08344 14.8726C2.29721 14.9828 2.50693 15.0324 2.68683 15.0626C2.85691 15.0912 3.05822 15.1108 3.26177 15.1312L3.46078 13.1411C3.23081 13.1181 3.10698 13.1052 3.01797 13.0902C2.9388 13.077 2.9555 13.0721 3 13.095L2.08344 14.8726ZM1.14001 13.8301C1.31795 14.2804 1.65316 14.6508 2.08344 14.8726L3 13.095H3L1.14001 13.8301ZM1 12.6319C1 12.8365 0.999483 13.0388 1.01097 13.2108C1.02312 13.3929 1.0516 13.6065 1.14001 13.8301L3 13.095C3.0184 13.1416 3.01188 13.1577 3.00653 13.0776C3.00052 12.9876 3 12.863 3 12.6319H1ZM1 11.3686V12.6319H3V11.3686H1ZM1.14035 10.169C1.05173 10.3929 1.02318 10.6068 1.011 10.789C0.999482 10.9613 1 11.1638 1 11.3686H3C3 11.1372 3.00052 11.0126 3.00654 10.9224C3.01191 10.8422 3.01844 10.8584 3 10.905L1.14035 10.169ZM2.08262 9.12779C1.653 9.34956 1.31826 9.71945 1.14034 10.169L3 10.905L3 10.905L2.08262 9.12779ZM3.26253 8.86876C3.05866 8.88915 2.85706 8.90878 2.68676 8.93739C2.50663 8.96764 2.29662 9.01733 2.08262 9.1278L3 10.905C2.95544 10.928 2.93871 10.9231 3.01803 10.9098C3.10718 10.8948 3.23122 10.8819 3.46154 10.8588L3.26253 8.86876ZM4.21268 8.77374C4.29564 8.71043 4.33236 8.73058 4.13713 8.76571C3.95149 8.79912 3.69001 8.82601 3.26253 8.86876L3.46154 10.8588C3.85544 10.8194 4.20999 10.7847 4.49135 10.7341C4.76312 10.6852 5.1178 10.5989 5.426 10.3637L4.21268 8.77374ZM4.21268 8.77374L4.21268 8.77374L5.426 10.3637C5.99703 9.92789 6.29051 9.21937 6.19487 8.50745L4.21268 8.77374ZM3.60825 8.035C3.88022 8.3674 4.04603 8.57123 4.15363 8.72606C4.26676 8.88886 4.22657 8.87714 4.21268 8.77374L6.19487 8.50745C6.14326 8.12325 5.95356 7.81146 5.79598 7.58471C5.63287 7.35 5.40676 7.07481 5.15616 6.76852L3.60825 8.035ZM3.5822 8.00176L3.58221 8.00176L5.18221 6.80176L5.1822 6.80176L3.5822 8.00176ZM3.67509 8.10886L3.6751 8.10886L5.08931 6.69465L5.08931 6.69465L3.67509 8.10886ZM2.95751 7.01828C3.03072 7.24754 3.14401 7.43103 3.24993 7.5797C3.35006 7.72025 3.47862 7.87656 3.60824 8.03499L5.15616 6.76852C5.00971 6.58952 4.93122 6.49277 4.87882 6.41923C4.83221 6.3538 4.84749 6.36216 4.86273 6.40988L2.95751 7.01828ZM3.02751 5.61493C2.83521 6.05885 2.81035 6.55743 2.95751 7.01828L4.86273 6.40988H4.86273L3.02751 5.61493ZM3.77618 4.66801C3.63143 4.81275 3.48795 4.9555 3.37433 5.08539C3.25415 5.22278 3.12317 5.39409 3.02751 5.61492L4.86273 6.40988C4.84282 6.45585 4.82678 6.46265 4.87967 6.40219C4.93913 6.33421 5.02686 6.24576 5.19039 6.08222L3.77618 4.66801ZM4.66979 3.77439L3.77618 4.66801L5.19039 6.08222L6.08401 5.18861L4.66979 3.77439ZM5.61561 3.0264C5.39505 3.12205 5.22395 3.25291 5.08671 3.37298C4.95697 3.48648 4.81438 3.62981 4.66979 3.77439L6.08401 5.18861C6.24736 5.02525 6.33572 4.93762 6.40362 4.87822C6.46401 4.82538 6.45722 4.84139 6.41131 4.8613L5.61561 3.0264ZM7.02049 2.95633C6.55916 2.80881 6.05997 2.8337 5.61561 3.0264L6.41131 4.8613L6.41131 4.8613L7.02049 2.95633ZM8.03604 3.60651C7.87779 3.47702 7.72164 3.3486 7.58125 3.24856C7.43274 3.14275 7.24947 3.02956 7.02049 2.95633L6.41131 4.8613C6.36365 4.84606 6.3553 4.8308 6.42065 4.87737C6.49412 4.92972 6.59077 5.00813 6.76957 5.15442L8.03604 3.60651ZM8.06132 3.62789L8.06131 3.62789L6.7443 5.13304L6.74431 5.13304L8.06132 3.62789ZM8.77398 4.21027C8.87727 4.22421 8.88896 4.26433 8.72633 4.1513C8.57168 4.0438 8.36808 3.87817 8.03605 3.60651L6.76957 5.15442C7.07552 5.40474 7.3504 5.6306 7.58485 5.79356C7.81133 5.95097 8.12274 6.14051 8.50648 6.1923L8.77398 4.21027ZM8.77398 4.21027L8.77399 4.21028L8.50648 6.1923C9.2192 6.2885 9.92869 5.99462 10.3646 5.42262L8.77398 4.21027ZM8.86886 3.26156C8.82617 3.68843 8.79932 3.94952 8.76598 4.13488C8.73091 4.32979 8.71081 4.29316 8.77398 4.21027L10.3646 5.42262C10.5994 5.11466 10.6855 4.76044 10.7344 4.48898C10.7849 4.20797 10.8196 3.8539 10.8589 3.46057L8.86886 3.26156ZM9.12721 2.08376C9.01708 2.29744 8.96752 2.50707 8.93734 2.68689C8.9088 2.85689 8.8892 3.05811 8.86886 3.26156L10.8589 3.46057C10.8819 3.2307 10.8948 3.10693 10.9097 3.01797C10.923 2.93883 10.9279 2.95552 10.905 3L9.12721 2.08376ZM10.1702 1.13987C9.7197 1.31783 9.3491 1.65322 9.12721 2.08376L10.905 3L10.905 3L10.1702 1.13987ZM11.3679 1C11.1634 1 10.9612 0.999484 10.7892 1.01096C10.6073 1.0231 10.3938 1.05155 10.1702 1.13987L10.905 3C10.8584 3.01838 10.8423 3.01187 10.9224 3.00652C11.0124 3.00052 11.1368 3 11.3679 3V1ZM12.6319 1H11.3679V3H12.6319V1ZM13.8302 1.14002C13.6065 1.05161 13.3929 1.02313 13.2108 1.01097C13.0388 0.999483 12.8365 1 12.6319 1V3C12.863 3 12.9875 3.00052 13.0776 3.00653C13.1577 3.01188 13.1416 3.0184 13.095 3L13.8302 1.14002ZM14.8726 2.0834C14.6508 1.65315 14.2804 1.31797 13.8302 1.14002L13.095 3V3L14.8726 2.0834ZM15.1312 3.26185C15.1108 3.05827 15.0912 2.85694 15.0626 2.68684C15.0324 2.50692 14.9828 2.29718 14.8726 2.0834L13.095 3C13.0721 2.95549 13.077 2.93879 13.0902 3.01798C13.1052 3.107 13.1181 3.23086 13.1411 3.46086L15.1312 3.26185ZM15 12C15 13.6569 13.6569 15 12 15V17C14.7614 17 17 14.7614 17 12H15ZM12 9C13.6569 9 15 10.3431 15 12H17C17 9.23858 14.7614 7 12 7V9ZM9 12C9 10.3431 10.3431 9 12 9V7C9.23858 7 7 9.23858 7 12H9ZM12 15C10.3431 15 9 13.6569 9 12H7C7 14.7614 9.23858 17 12 17V15Z" fill="#0E0C04"/>
</svg>
