<svg width="24" height="24" viewBox="0 0 24 24" fill="none" xmlns="http://www.w3.org/2000/svg">
<path d="M0 1C0 0.447716 0.447715 0 1 0H23C23.5523 0 24 0.447715 24 1V23C24 23.5523 23.5523 24 23 24H1C0.447716 24 0 23.5523 0 23V1Z" fill="#0D2DFF"/>
<path d="M7.83205 9.9453C7.5257 9.48577 6.90483 9.3616 6.4453 9.66795C5.98577 9.9743 5.8616 10.5952 6.16795 11.0547L7.83205 9.9453ZM18.7894 8.11394C19.1284 7.67799 19.0499 7.04972 18.6139 6.71065C18.178 6.37158 17.5497 6.45011 17.2106 6.88606L18.7894 8.11394ZM10.2304 15.3456L9.39834 15.9003L10.2304 15.3456ZM6.16795 11.0547L9.39834 15.9003L11.0624 14.7909L7.83205 9.9453L6.16795 11.0547ZM12.6411 16.0188L18.7894 8.11394L17.2106 6.88606L11.0624 14.7909L12.6411 16.0188ZM9.39834 15.9003C10.1556 17.0361 11.8031 17.0963 12.6411 16.0188L11.0624 14.7909V14.7909L9.39834 15.9003Z" fill="white"/>
</svg>
