<svg width="16" height="16" viewBox="0 0 16 16" fill="none" xmlns="http://www.w3.org/2000/svg">
<g opacity="0.5">
<path fill-rule="evenodd" clip-rule="evenodd" d="M8 2.5C6.5 2.5 5.2 2.9 4.1 3.7L4.9 4.4C5.8 3.8 6.8 3.5 8 3.5C11.3 3.5 14 6.2 14 9.5H15C15 5.6 11.9 2.5 8 2.5ZM1 3.5L2.6 5C1.6 6.2 1 7.8 1 9.5H2C2 8 2.5 6.7 3.4 5.7L5.6 7.7C5.2 8.2 5 8.8 5 9.5C5 11.2 6.3 12.5 8 12.5C8.8 12.5 9.5 12.2 10 11.7L13 14.5L13.7 13.8L1.7 2.8L1 3.5V3.5ZM6.3 8.4L9.2 11.1C8.9 11.3 8.5 11.5 8 11.5C6.9 11.5 6 10.6 6 9.5C6 9.1 6.1 8.7 6.3 8.4V8.4ZM11 10L10 9.1C9.8 8.3 9.1 7.6 8.2 7.5L7.2 6.6C7.5 6.5 7.7 6.5 8 6.5C9.7 6.5 11 7.8 11 9.5V10Z" fill="#004897"/>
</g>
</svg>
