<svg width="25" height="25" viewBox="0 0 25 25" fill="none" xmlns="http://www.w3.org/2000/svg">
<path fill-rule="evenodd" clip-rule="evenodd" d="M10.2722 13.1465L8.02494 12.3974L8.02493 12.3974L8.02492 12.3974C5.67172 11.613 4.49512 11.2208 4.49512 10.5C4.49512 9.77924 5.67172 9.38704 8.02494 8.60264L16.5381 5.76491C18.1939 5.21299 19.0218 4.93702 19.4588 5.37404C19.8958 5.81105 19.6199 6.63895 19.0679 8.29474L16.2302 16.8079L16.2302 16.8079L16.2302 16.8079C15.4458 19.1611 15.0536 20.3377 14.3328 20.3377C13.6121 20.3377 13.2199 19.1611 12.4355 16.8079L11.6864 14.5607L16.0399 10.2071C16.4305 9.81659 16.4305 9.18342 16.0399 8.7929C15.6494 8.40237 15.0163 8.40237 14.6257 8.7929L10.2722 13.1465Z" fill="white"/>
</svg>
