<svg width="30" height="30" viewBox="0 0 30 30" fill="none" xmlns="http://www.w3.org/2000/svg">
<path d="M19.1418 18.4629C18.946 18.2681 18.6294 18.269 18.4347 18.4648C18.2399 18.6606 18.2408 18.9772 18.4366 19.1719L19.1418 18.4629ZM23.6474 24.3545C23.8432 24.5492 24.1598 24.5484 24.3545 24.3526C24.5492 24.1568 24.5484 23.8402 24.3526 23.6455L23.6474 24.3545ZM14.1 11C14.1 10.7239 13.8761 10.5 13.6 10.5C13.3239 10.5 13.1 10.7239 13.1 11H14.1ZM13.1 16.2C13.1 16.4761 13.3239 16.7 13.6 16.7C13.8761 16.7 14.1 16.4761 14.1 16.2H13.1ZM11 13.1C10.7239 13.1 10.5 13.3239 10.5 13.6C10.5 13.8761 10.7239 14.1 11 14.1V13.1ZM16.2 14.1C16.4761 14.1 16.7 13.8761 16.7 13.6C16.7 13.3239 16.4761 13.1 16.2 13.1V14.1ZM20.5 13.5C20.5 17.366 17.366 20.5 13.5 20.5V21.5C17.9183 21.5 21.5 17.9183 21.5 13.5H20.5ZM13.5 20.5C9.63401 20.5 6.5 17.366 6.5 13.5H5.5C5.5 17.9183 9.08172 21.5 13.5 21.5V20.5ZM6.5 13.5C6.5 9.63401 9.63401 6.5 13.5 6.5V5.5C9.08172 5.5 5.5 9.08172 5.5 13.5H6.5ZM13.5 6.5C17.366 6.5 20.5 9.63401 20.5 13.5H21.5C21.5 9.08172 17.9183 5.5 13.5 5.5V6.5ZM18.4366 19.1719L23.6474 24.3545L24.3526 23.6455L19.1418 18.4629L18.4366 19.1719ZM13.1 11V16.2H14.1V11H13.1ZM11 14.1H16.2V13.1H11V14.1Z" fill="#004897"/>
</svg>
